G04 Layer_Color=8388736*
%FSLAX42Y42*%
%MOMM*%
G71*
G01*
G75*
%ADD27C,0.86*%
%ADD28C,1.00*%
%ADD29C,0.76*%
%ADD30R,0.51X0.51*%
%ADD31R,0.33X80.00*%
%ADD32R,190.00X80.00*%
%ADD72R,1.70X1.80*%
%ADD73R,1.80X2.70*%
%ADD74R,1.80X1.70*%
%ADD75O,0.75X1.85*%
%ADD76O,1.85X0.75*%
%ADD77R,3.40X5.46*%
%ADD78O,1.90X0.55*%
%ADD79O,2.40X0.80*%
%ADD80R,6.20X2.40*%
%ADD81R,6.20X1.60*%
%ADD82O,2.50X0.80*%
%ADD83R,0.80X1.30*%
%ADD84R,1.60X1.35*%
%ADD85C,1.20*%
%ADD86R,1.20X1.20*%
%ADD87R,1.70X1.70*%
%ADD88C,1.70*%
%ADD89R,1.70X1.70*%
G04:AMPARAMS|DCode=90|XSize=2.24mm|YSize=1.73mm|CornerRadius=0mm|HoleSize=0mm|Usage=FLASHONLY|Rotation=270.000|XOffset=0mm|YOffset=0mm|HoleType=Round|Shape=Octagon|*
%AMOCTAGOND90*
4,1,8,-0.43,-1.12,0.43,-1.12,0.86,-0.69,0.86,0.69,0.43,1.12,-0.43,1.12,-0.86,0.69,-0.86,-0.69,-0.43,-1.12,0.0*
%
%ADD90OCTAGOND90*%

G04:AMPARAMS|DCode=91|XSize=1.8mm|YSize=1.8mm|CornerRadius=0.5mm|HoleSize=0mm|Usage=FLASHONLY|Rotation=90.000|XOffset=0mm|YOffset=0mm|HoleType=Round|Shape=RoundedRectangle|*
%AMROUNDEDRECTD91*
21,1,1.80,0.80,0,0,90.0*
21,1,0.80,1.80,0,0,90.0*
1,1,1.00,0.40,0.40*
1,1,1.00,0.40,-0.40*
1,1,1.00,-0.40,-0.40*
1,1,1.00,-0.40,0.40*
%
%ADD91ROUNDEDRECTD91*%
%ADD92C,3.70*%
%ADD93C,3.15*%
%ADD94C,1.80*%
%ADD95C,1.70*%
%ADD96R,1.70X1.70*%
%ADD97O,1.73X2.74*%
G04:AMPARAMS|DCode=98|XSize=2.74mm|YSize=1.73mm|CornerRadius=0mm|HoleSize=0mm|Usage=FLASHONLY|Rotation=90.000|XOffset=0mm|YOffset=0mm|HoleType=Round|Shape=Octagon|*
%AMOCTAGOND98*
4,1,8,0.43,1.37,-0.43,1.37,-0.86,0.94,-0.86,-0.94,-0.43,-1.37,0.43,-1.37,0.86,-0.94,0.86,0.94,0.43,1.37,0.0*
%
%ADD98OCTAGOND98*%

%ADD99O,2.20X4.70*%
%ADD100O,2.20X4.20*%
%ADD101O,4.20X2.20*%
%ADD102C,3.00*%
%ADD103C,1.60*%
%ADD104R,1.60X1.60*%
%ADD105C,4.24*%
%ADD106C,1.80*%
G04:AMPARAMS|DCode=107|XSize=3.2mm|YSize=2.2mm|CornerRadius=0mm|HoleSize=0mm|Usage=FLASHONLY|Rotation=270.000|XOffset=0mm|YOffset=0mm|HoleType=Round|Shape=Octagon|*
%AMOCTAGOND107*
4,1,8,-0.55,-1.60,0.55,-1.60,1.10,-1.05,1.10,1.05,0.55,1.60,-0.55,1.60,-1.10,1.05,-1.10,-1.05,-0.55,-1.60,0.0*
%
%ADD107OCTAGOND107*%

%ADD108C,6.20*%
%ADD109C,1.02*%
D27*
X8719Y2088D02*
G03*
X8719Y2088I-15J0D01*
G01*
D28*
X737Y2062D02*
Y2262D01*
X937Y1662D02*
X1137D01*
X1357Y2037D02*
Y2287D01*
D29*
X8251Y2083D02*
X8443D01*
X8373Y2769D02*
X8562D01*
X8307Y2426D02*
X8508D01*
X8589Y2482D02*
X8627Y2695D01*
X8249Y2502D02*
X8285Y2710D01*
X8529Y2137D02*
X8566Y2350D01*
X8188Y2157D02*
X8226Y2374D01*
D30*
X1302Y6569D02*
D03*
X1556D02*
D03*
Y4879D02*
D03*
X1302D02*
D03*
X2909Y7011D02*
D03*
X2655D02*
D03*
X11080Y6740D02*
D03*
X10826D02*
D03*
X11334D02*
D03*
X12046Y6750D02*
D03*
X12554D02*
D03*
X12300D02*
D03*
D31*
X3899Y4000D02*
D03*
D32*
X9500D02*
D03*
D72*
X6006Y3132D02*
D03*
Y2852D02*
D03*
X16332Y3658D02*
D03*
Y3378D02*
D03*
X1880Y7143D02*
D03*
Y6863D02*
D03*
X14541Y2654D02*
D03*
Y2934D02*
D03*
X16637Y2451D02*
D03*
Y2171D02*
D03*
X940Y4115D02*
D03*
Y4394D02*
D03*
X15789Y6718D02*
D03*
Y6998D02*
D03*
X16320Y2171D02*
D03*
Y2451D02*
D03*
X16624Y3378D02*
D03*
Y3658D02*
D03*
X8167Y5086D02*
D03*
Y5366D02*
D03*
X914Y5816D02*
D03*
Y6096D02*
D03*
X14821Y2947D02*
D03*
Y2667D02*
D03*
X2110Y7143D02*
D03*
Y6863D02*
D03*
X8675Y5369D02*
D03*
Y5089D02*
D03*
X7659Y5086D02*
D03*
Y5366D02*
D03*
X9183Y5369D02*
D03*
Y5089D02*
D03*
Y5699D02*
D03*
Y5979D02*
D03*
X7656Y5976D02*
D03*
Y5696D02*
D03*
X8167Y5973D02*
D03*
Y5693D02*
D03*
X8675Y5699D02*
D03*
Y5979D02*
D03*
D73*
X5600Y3175D02*
D03*
Y2825D02*
D03*
X1670Y3465D02*
D03*
Y3115D02*
D03*
D74*
X4037Y329D02*
D03*
X3757D02*
D03*
X1604Y6097D02*
D03*
X1324D02*
D03*
X1555Y4392D02*
D03*
X1275D02*
D03*
X17022Y4555D02*
D03*
X17302D02*
D03*
X16824Y5066D02*
D03*
X16544D02*
D03*
X17022Y4313D02*
D03*
X17302D02*
D03*
X16834Y5919D02*
D03*
X17114D02*
D03*
X17909Y4554D02*
D03*
X17629D02*
D03*
X17909Y4313D02*
D03*
X17629D02*
D03*
X1555Y4176D02*
D03*
X1275D02*
D03*
X16834Y6148D02*
D03*
X17114D02*
D03*
X2607Y6516D02*
D03*
X2327D02*
D03*
X16834Y5665D02*
D03*
X17114D02*
D03*
D75*
X16273Y5379D02*
D03*
X16193D02*
D03*
X16113D02*
D03*
X16033D02*
D03*
X15953D02*
D03*
X15873D02*
D03*
X15793D02*
D03*
X15713D02*
D03*
Y6219D02*
D03*
X15793D02*
D03*
X15873D02*
D03*
X15953D02*
D03*
X16033D02*
D03*
X16113D02*
D03*
X16193D02*
D03*
X16273D02*
D03*
D76*
X15573Y5519D02*
D03*
Y5599D02*
D03*
Y5679D02*
D03*
Y5759D02*
D03*
Y5839D02*
D03*
Y5919D02*
D03*
Y5999D02*
D03*
Y6079D02*
D03*
X16413D02*
D03*
Y5999D02*
D03*
Y5919D02*
D03*
Y5839D02*
D03*
Y5759D02*
D03*
Y5679D02*
D03*
Y5599D02*
D03*
Y5519D02*
D03*
D77*
X2469Y5853D02*
D03*
D78*
X2754Y5495D02*
D03*
Y5560D02*
D03*
Y5625D02*
D03*
Y5690D02*
D03*
Y5755D02*
D03*
Y5820D02*
D03*
Y5885D02*
D03*
Y5950D02*
D03*
Y6015D02*
D03*
Y6080D02*
D03*
Y6145D02*
D03*
Y6210D02*
D03*
X2184Y5495D02*
D03*
Y5560D02*
D03*
Y5625D02*
D03*
Y5690D02*
D03*
Y5755D02*
D03*
Y5820D02*
D03*
Y5885D02*
D03*
Y5950D02*
D03*
Y6015D02*
D03*
Y6080D02*
D03*
Y6145D02*
D03*
Y6210D02*
D03*
D79*
X15356Y3277D02*
D03*
Y3150D02*
D03*
Y3023D02*
D03*
Y2896D02*
D03*
Y2769D02*
D03*
Y2642D02*
D03*
Y2515D02*
D03*
X15836Y3277D02*
D03*
Y3150D02*
D03*
Y3023D02*
D03*
Y2896D02*
D03*
Y2769D02*
D03*
Y2642D02*
D03*
Y2515D02*
D03*
D80*
X340Y6518D02*
D03*
Y5685D02*
D03*
Y4817D02*
D03*
Y3984D02*
D03*
D81*
Y6102D02*
D03*
Y4400D02*
D03*
D82*
X4361Y4724D02*
D03*
Y4851D02*
D03*
Y4978D02*
D03*
Y5105D02*
D03*
Y5232D02*
D03*
Y5359D02*
D03*
Y5486D02*
D03*
Y5613D02*
D03*
X3451Y4724D02*
D03*
Y4851D02*
D03*
Y4978D02*
D03*
Y5105D02*
D03*
Y5232D02*
D03*
Y5359D02*
D03*
Y5486D02*
D03*
Y5613D02*
D03*
X4354Y5906D02*
D03*
Y6033D02*
D03*
Y6160D02*
D03*
Y6287D02*
D03*
Y6414D02*
D03*
Y6540D02*
D03*
Y6668D02*
D03*
Y6794D02*
D03*
X3444Y5906D02*
D03*
Y6033D02*
D03*
Y6160D02*
D03*
Y6287D02*
D03*
Y6414D02*
D03*
Y6540D02*
D03*
Y6668D02*
D03*
Y6794D02*
D03*
D83*
X16292Y6695D02*
D03*
X16102D02*
D03*
Y6935D02*
D03*
X16197D02*
D03*
X16292D02*
D03*
D84*
X16194Y7514D02*
D03*
Y7318D02*
D03*
D85*
X1550Y1226D02*
D03*
X17564Y6996D02*
D03*
D86*
X1550Y1376D02*
D03*
X17564Y6846D02*
D03*
D87*
X16170Y580D02*
D03*
X11709Y1702D02*
D03*
X6300Y7080D02*
D03*
X2202Y4120D02*
D03*
X11580Y6100D02*
D03*
X7330Y1050D02*
D03*
X11210Y7450D02*
D03*
X8153Y2934D02*
D03*
X13233Y7452D02*
D03*
X13650Y5050D02*
D03*
D88*
X16424Y580D02*
D03*
X16678D02*
D03*
X16932D02*
D03*
X11709Y1956D02*
D03*
X11963Y1702D02*
D03*
Y1956D02*
D03*
X12217Y1702D02*
D03*
Y1956D02*
D03*
X12471Y1702D02*
D03*
Y1956D02*
D03*
X12725Y1702D02*
D03*
Y1956D02*
D03*
X12979Y1702D02*
D03*
Y1956D02*
D03*
X13233Y1702D02*
D03*
Y1956D02*
D03*
X6046Y7080D02*
D03*
X5792D02*
D03*
X5538D02*
D03*
X5284D02*
D03*
X8776Y1422D02*
D03*
X8522D02*
D03*
X8268D02*
D03*
X8014D02*
D03*
X8776Y660D02*
D03*
X8522D02*
D03*
X8268D02*
D03*
X2710Y4120D02*
D03*
X2456D02*
D03*
X11326Y6100D02*
D03*
X11072D02*
D03*
X10818D02*
D03*
X10564D02*
D03*
X5552Y1050D02*
D03*
X5806D02*
D03*
X6060D02*
D03*
X6314D02*
D03*
X6568D02*
D03*
X6822D02*
D03*
X7076D02*
D03*
X10956Y7450D02*
D03*
X8661Y1918D02*
D03*
Y2172D02*
D03*
Y2426D02*
D03*
Y2680D02*
D03*
Y2934D02*
D03*
X8153Y1918D02*
D03*
Y2172D02*
D03*
Y2426D02*
D03*
Y2680D02*
D03*
X13487Y7452D02*
D03*
X13904Y5050D02*
D03*
X14158D02*
D03*
X14412D02*
D03*
X3650Y3675D02*
D03*
Y3925D02*
D03*
X12425Y5276D02*
D03*
Y5026D02*
D03*
X16539Y6746D02*
D03*
Y6996D02*
D03*
D89*
X8014Y660D02*
D03*
D90*
X1302Y6569D02*
D03*
X1556D02*
D03*
Y4879D02*
D03*
X1302D02*
D03*
X2909Y7011D02*
D03*
X2655D02*
D03*
X11080Y6740D02*
D03*
X10826D02*
D03*
X11334D02*
D03*
D91*
X17957Y5873D02*
D03*
X17960Y5623D02*
D03*
X18160D02*
D03*
X18156Y5873D02*
D03*
D92*
X18462Y5138D02*
D03*
Y6361D02*
D03*
D93*
X18190Y3480D02*
D03*
Y2337D02*
D03*
D94*
X17555Y2718D02*
D03*
D95*
Y2972D02*
D03*
X17301Y2845D02*
D03*
Y3099D02*
D03*
X17555Y3226D02*
D03*
X17301Y2591D02*
D03*
Y3353D02*
D03*
X2413Y1130D02*
D03*
X2667D02*
D03*
X4445D02*
D03*
X4699D02*
D03*
X4953D02*
D03*
X2159Y2654D02*
D03*
X2413D02*
D03*
X2667D02*
D03*
X4445D02*
D03*
X4699D02*
D03*
X4953D02*
D03*
D96*
X17555Y2464D02*
D03*
X2159Y1130D02*
D03*
D97*
X16157Y4686D02*
D03*
D98*
X15669D02*
D03*
D99*
X1357Y2162D02*
D03*
D100*
X737D02*
D03*
D101*
X1037Y1662D02*
D03*
D102*
X7749Y7119D02*
D03*
X8202D02*
D03*
X8197Y6449D02*
D03*
X7749Y6444D02*
D03*
X6860Y7107D02*
D03*
X7313D02*
D03*
X7308Y6437D02*
D03*
X6860Y6432D02*
D03*
X14480Y6635D02*
D03*
X14928Y6640D02*
D03*
X14933Y7310D02*
D03*
X14480D02*
D03*
X8638Y6444D02*
D03*
X9086Y6449D02*
D03*
X9091Y7119D02*
D03*
X8638D02*
D03*
X9527Y6444D02*
D03*
X9975Y6449D02*
D03*
X9980Y7119D02*
D03*
X9527D02*
D03*
D103*
X12993Y4275D02*
D03*
X13120Y4085D02*
D03*
X12993Y3895D02*
D03*
X13120Y3705D02*
D03*
X12739Y4275D02*
D03*
X12865Y4085D02*
D03*
X12739Y3895D02*
D03*
X12865Y3705D02*
D03*
X12485Y4275D02*
D03*
X12611Y4085D02*
D03*
X12485Y3895D02*
D03*
X12611Y3705D02*
D03*
X12231Y4275D02*
D03*
X12357Y4085D02*
D03*
X12231Y3895D02*
D03*
X12357Y3705D02*
D03*
X11976Y4275D02*
D03*
X12104Y4085D02*
D03*
X11976Y3895D02*
D03*
X12104Y3705D02*
D03*
X11722Y4275D02*
D03*
X11850Y4085D02*
D03*
X11722Y3895D02*
D03*
X11850Y3705D02*
D03*
X11468Y4275D02*
D03*
X11596Y4085D02*
D03*
X11468Y3895D02*
D03*
X11596Y3705D02*
D03*
X11214Y4275D02*
D03*
X11342Y4085D02*
D03*
X11214Y3895D02*
D03*
X11342Y3705D02*
D03*
X10961Y4275D02*
D03*
X11088Y4085D02*
D03*
X10961Y3895D02*
D03*
X11088Y3705D02*
D03*
X10707Y4275D02*
D03*
X10833Y4085D02*
D03*
X10707Y3895D02*
D03*
X10833Y3705D02*
D03*
X10453Y4275D02*
D03*
X10579Y4085D02*
D03*
X10453Y3895D02*
D03*
X10579Y3705D02*
D03*
X10199Y4275D02*
D03*
X10325Y4085D02*
D03*
X10199Y3895D02*
D03*
X10325Y3705D02*
D03*
X9944Y4275D02*
D03*
X10071Y4085D02*
D03*
X9944Y3895D02*
D03*
X10071Y3705D02*
D03*
X9690Y4275D02*
D03*
X9818Y4085D02*
D03*
X9690Y3895D02*
D03*
X9818Y3705D02*
D03*
X8929Y4275D02*
D03*
X9056Y4085D02*
D03*
X8929Y3895D02*
D03*
X9056Y3705D02*
D03*
X8675Y4275D02*
D03*
X8801Y4085D02*
D03*
X8675Y3895D02*
D03*
X8801Y3705D02*
D03*
X8421Y4275D02*
D03*
X8547Y4085D02*
D03*
X8421Y3895D02*
D03*
X8547Y3705D02*
D03*
X8167Y4275D02*
D03*
X8293Y4085D02*
D03*
X8167Y3895D02*
D03*
X8293Y3705D02*
D03*
X7912Y4275D02*
D03*
X8039Y4085D02*
D03*
X7912Y3895D02*
D03*
X8039Y3705D02*
D03*
X7658Y4275D02*
D03*
X7786Y4085D02*
D03*
X7658Y3895D02*
D03*
X7786Y3705D02*
D03*
X7404Y4275D02*
D03*
X7532Y4085D02*
D03*
X7404Y3895D02*
D03*
X7532Y3705D02*
D03*
X7150Y4275D02*
D03*
X7278Y4085D02*
D03*
X7150Y3895D02*
D03*
X7278Y3705D02*
D03*
X6388Y4275D02*
D03*
X6515Y4085D02*
D03*
X6388Y3895D02*
D03*
X6515Y3705D02*
D03*
X6135Y4275D02*
D03*
X6262Y4085D02*
D03*
X6135Y3895D02*
D03*
X6262Y3705D02*
D03*
X5881Y4275D02*
D03*
X6008Y4085D02*
D03*
Y3705D02*
D03*
D104*
X5881Y3895D02*
D03*
D105*
X5563Y3990D02*
D03*
X13437D02*
D03*
D106*
X510Y3331D02*
D03*
Y3077D02*
D03*
D107*
X12046Y6750D02*
D03*
X12554D02*
D03*
X12300D02*
D03*
D108*
X800Y7200D02*
D03*
Y800D02*
D03*
X18200D02*
D03*
Y7200D02*
D03*
D109*
X9450Y5395D02*
D03*
X10918Y2178D02*
D03*
X15960Y5590D02*
D03*
X15262Y6978D02*
D03*
X9232Y1420D02*
D03*
X9053Y1420D02*
D03*
X14395Y4010D02*
D03*
X12993Y5910D02*
D03*
X10570Y6367D02*
D03*
X2460Y4700D02*
D03*
Y4538D02*
D03*
X2655Y7288D02*
D03*
X14543Y2167D02*
D03*
X15073Y2665D02*
D03*
X4325Y3330D02*
D03*
Y3540D02*
D03*
X12485Y3350D02*
D03*
X12357Y3353D02*
D03*
X10450Y3310D02*
D03*
X10070Y3390D02*
D03*
X10320D02*
D03*
Y3230D02*
D03*
X5200Y2750D02*
D03*
X1323Y6337D02*
D03*
X10199Y5108D02*
D03*
X12100Y4490D02*
D03*
X12610Y2640D02*
D03*
X14150Y2370D02*
D03*
X12610Y4490D02*
D03*
X15150Y4280D02*
D03*
X11722Y4458D02*
D03*
X11600Y4460D02*
D03*
X11210D02*
D03*
X11340D02*
D03*
X11720Y3430D02*
D03*
X11590Y3530D02*
D03*
X6830Y4920D02*
D03*
Y4760D02*
D03*
Y4640D02*
D03*
X5800D02*
D03*
Y4780D02*
D03*
Y4920D02*
D03*
X6380Y7530D02*
D03*
X6690Y570D02*
D03*
X4567Y4718D02*
D03*
X4570Y5910D02*
D03*
X940Y4700D02*
D03*
X3250Y4540D02*
D03*
X10325Y2794D02*
D03*
Y2921D02*
D03*
X6883Y1917D02*
D03*
X6884Y2171D02*
D03*
X6883Y2425D02*
D03*
X6883Y2680D02*
D03*
X8919Y5979D02*
D03*
X8417D02*
D03*
X7946Y5973D02*
D03*
X7360Y5976D02*
D03*
X1956Y5982D02*
D03*
X3175Y6668D02*
D03*
X3264Y5766D02*
D03*
X2934Y5423D02*
D03*
X1968Y5436D02*
D03*
X2934Y5626D02*
D03*
X3226Y5232D02*
D03*
X15481Y1295D02*
D03*
Y1422D02*
D03*
Y1549D02*
D03*
X15113Y3023D02*
D03*
Y3150D02*
D03*
X16053Y2616D02*
D03*
X16167D02*
D03*
X16091Y3023D02*
D03*
Y3150D02*
D03*
X16015Y5080D02*
D03*
X15812D02*
D03*
X16218Y6007D02*
D03*
X17628Y5499D02*
D03*
Y5613D02*
D03*
X16091Y6007D02*
D03*
X15926D02*
D03*
X15812Y5753D02*
D03*
X16624Y4559D02*
D03*
X16713Y4318D02*
D03*
X18199Y4559D02*
D03*
X15926Y7379D02*
D03*
X17462Y5067D02*
D03*
X16256Y5144D02*
D03*
X15227Y5946D02*
D03*
X15596Y2896D02*
D03*
X17005Y3734D02*
D03*
X11709Y2184D02*
D03*
X12230Y4496D02*
D03*
Y3467D02*
D03*
X13792Y2172D02*
D03*
X11390Y5342D02*
D03*
X11400Y5110D02*
D03*
X14580Y5050D02*
D03*
Y5240D02*
D03*
X12730Y5010D02*
D03*
X6102Y6222D02*
D03*
X5792Y6032D02*
D03*
X6110Y6530D02*
D03*
X1960Y5730D02*
D03*
X16871Y1168D02*
D03*
X4563Y6670D02*
D03*
X12184Y2271D02*
D03*
X16500Y6500D02*
D03*
X1670Y3830D02*
D03*
X14232Y4010D02*
D03*
X5092Y3980D02*
D03*
X12465Y4490D02*
D03*
M02*
