M48
;Layer_Color=9474304
;FILE_FORMAT=4:2
METRIC,LZ
;TYPE=PLATED
T1F00S00C0.41
T2F00S00C0.50
T3F00S00C0.70
T4F00S00C0.75
T5F00S00C0.80
T6F00S00C0.81
T7F00S00C0.90
T8F00S00C1.00
T10F00S00C1.02
T11F00S00C2.30
T12F00S00C2.54
T13F00S00C3.00
;TYPE=NON_PLATED
T14F00S00C3.25
%
T01
X016871Y001168
X00669Y00057
X00246Y004538
Y0047
X00094
X00167Y00383
X00325Y00454
X003226Y005232
X004567Y004718
X005092Y00398
X004325Y00354
Y00333
X0052Y00275
X0058Y00464
Y00478
Y00492
X00683
Y00476
Y00464
X006883Y00268
X006883Y002425
X006884Y002171
X006883Y001917
X009053Y00142
X009232Y00142
X010325Y002794
Y002921
X01032Y00323
Y00339
X01045Y00331
X01007Y00339
X010199Y005108
X0114Y00511
X01134Y00446
X01121
X0116
X011722Y004458
X0121Y00449
X01223Y004496
X012465Y00449
X01261
X01273Y00501
X01458Y00505
Y00524
X014395Y00401
X014232
X01415Y00237
X013792Y002172
X014543Y002167
X01261Y00264
X012184Y002271
X011709Y002184
X010918Y002178
X01159Y00353
X01172Y00343
X01223Y003467
X012357Y003353
X012485Y00335
X015113Y00315
Y003023
X015073Y002665
X015596Y002896
X016091Y003023
Y00315
X016053Y002616
X016167
X015481Y001549
Y001422
Y001295
X01515Y00428
X015812Y00508
X016015
X016256Y005144
X016624Y004559
X016713Y004318
X017005Y003734
X017462Y005067
X018199Y004559
X017628Y005499
Y005613
X01596Y00559
X015812Y005753
X015926Y006007
X016091
X016218Y006007
X0165Y0065
X015926Y007379
X015262Y006978
X015227Y005946
X012993Y00591
X01139Y005342
X01057Y006367
X008919Y005979
X008417
X007946Y005973
X00736Y005976
X00945Y005395
X006102Y006222
X00611Y00653
X005792Y006032
X00457Y00591
X004563Y00667
X003175Y006668
X003264Y005766
X002934Y005626
Y005423
X00638Y00753
X002655Y007288
X001956Y005982
X00196Y00573
X001968Y005436
X001323Y006337
T02
X00155Y001226
Y001376
X017564Y006846
Y006996
T03
X01796Y005623
X01816
X018156Y005873
X017957
T04
X00365Y003675
Y003925
X012425Y005026
X016539Y006746
Y006996
X012425Y005276
T05
X00051Y003077
Y003331
X015669Y004686
X016157
T06
X006008Y003705
X006262
X006515
X006388Y003895
X006135
X005881Y003895
X006008Y004085
X006262
X006515
X006388Y004275
X006135
X005881
X00715
X007404
X007658
X007912
X008167
X008421
X008675
X008929
X009056Y004085
X008801
X008547
X008293
X008039
X007786
X007532
X007278
X007404Y003895
X007658
X007912
X008167
X008421
X008675
X008929
X009056Y003705
X008801Y003705
X008547
X008293
X008039
X007786
X007532
X007278
X00715Y003895
X00969
X009944Y003895
X010199Y003895
X010453
X010579Y004085
X010325
X010071
X009818
X009944Y004275
X010199
X010453
X010579Y003705
X010325
X010071
X009818
X00969Y004275
X010707
X010961
X011214
X011468
X011722
X011976
X012231
X012485
X012739
X012993
X01312Y004085
X012865
X012611
X012357
X012104
X01185
X011596
X011342
X011088
X010833
X010961Y003895
X011214
X011468
X011722
X011976
X012231
X012485
X012739
X012993
X01312Y003705
X012865
X012611
X012357
X012104
X01185
X011596
X011342
X011088
X010833
X010707Y003895
T07
X01617Y00058
X016424
X016678
X016932
X008776Y00066
X008522
X008268
X008014
X00733Y00105
X007076
X006822
X006568
X006314
X00606
X005806
X005552
X004953Y00113
X004699
X004445
X002667
X002413
X002159
Y002654
X002413
X002667
X00271Y00412
X002456
X002202
X004445Y002654
X004699
X004953
X008153Y00268
Y002426
Y002172
Y001918
X008661
Y002172
Y002426
Y00268
Y002934
X008153
X008268Y001422
X008522
X008776
X008014
X011709Y001702
Y001956
X011963
Y001702
X012217
Y001956
X012471
Y001702
X012725
Y001956
X012979
Y001702
X013233
Y001956
X01365Y00505
X013904
X014158
X014412
X017301Y003353
Y003099
Y002845
Y002591
X017555Y002718
Y002972
Y003226
Y002464
X013487Y007452
X013233
X01121Y00745
X010956
X011072Y0061
X011326
X01158
X010818
X010564
X0063Y00708
X006046
X005792
X005538
X005284
T08
X014928Y00664
X014933Y00731
X01448
Y006635
X009975Y006449
X009527Y006444
X009086Y006449
X008638Y006444
X008197Y006449
X007749Y006444
X007308Y006437
X00686Y006432
Y007107
X007313
X007749Y007119
X008202
X008638
X009091
X009527
X00998
T10
X001302Y004879
X001556
X010826Y00674
X01108
X011334
X002909Y007011
X002655
X001556Y006569
X001302
T11
X018462Y005138
Y006361
T12
X005563Y00399
X013437
T13
X0182Y0008
X0008
X0182Y0072
X0008
T14
X01819Y002337
Y00348
M30
