M48
;Layer_Color=7250688
;FILE_FORMAT=2:4
INCH,LZ
;TYPE=PLATED
T1F00S00C0.0197
T2F00S00C0.0236
T3F00S00C0.0280
T4F00S00C0.0295
T5F00S00C0.0315
T6F00S00C0.0394
T7F00S00C0.0472
T8F00S00C0.0591
T9F00S00C0.1969
%
T01
X193412Y110039
X192912
X192412
T02
X167829Y083248
Y086043
Y093878
Y096673
X182177Y096295
Y097295
Y098295
Y095295
X185583
Y096295
Y097295
Y098295
X193101Y097197
X194101
X195101
X196101
Y100268
X195101
X194101
X193101
X200423Y10015
X201423
X202423
Y097079
X201423
X200423
X203423
Y10015
X215932Y09999
X216932
X217932
Y09685
X216932
X215932
X218932
X219932
X220932
X221932
Y09999
X220932
X219932
X218932
X201365Y116074
Y118869
X201281Y124091
Y126886
T03
X215354Y117707
T04
X185616Y07779
X187716
X199916
X202016
X194004Y066535
X193004
X210583Y068363
X212683Y068313
X214764Y068339
X216728
Y064339
X214764
X212683Y064313
X210583Y064363
X207679Y07779
X205529
X220132
X222332
Y08179
X222382Y083235
X220182
X220132Y08179
X220182Y087235
X222382
X217453Y084268
Y083268
Y081853
Y080853
X21024
Y081853
X210236Y083268
Y084268
X207679Y083235
Y08179
X205529
X205529Y083235
Y087235
X207679
X202016
X199916
Y083235
Y08179
X202016
Y083235
X19667Y083214
Y084214
Y081799
Y080799
X189961
Y081799
Y083214
Y084214
X187666Y083235
X187716Y08179
X187666Y087235
X18563
Y083235
X185616Y08179
X167913Y088083
Y089083
X16689Y104528
X164606
X205118Y105799
Y106799
X21378
Y105799
X222638
Y106799
X199166Y112069
X195166
X189764Y117707
Y120707
Y121707
Y124707
X181884Y124997
X180124Y122627
Y119177
X181884Y116467
X167067Y113458
Y111174
X167067Y120359
Y122642
X230799Y125228
X231799
T05
X225984Y061299
X222441Y058661
X215551Y054134
X2127Y061417
X209252Y06211
X19776Y06573
X19667
X19685Y069094
X195866
X194832
X193004
X191339
X1904
X18927
Y065748
X190372Y06573
X199Y069089
X205709Y070276
X204134Y072027
X209646Y072441
Y074645
X207679Y076575
X207286Y065551
X212992Y070276
X219094Y07018
X219103Y075394
X22108Y075765
X223004Y074645
X223425Y072027
X221232Y065579
X224213Y062992
X229528Y087235
X212913Y087205
X214173Y085396
X215234Y089819
X208726Y089819
X195197Y089876
X192717Y087235
X193738Y085396
X188701Y089876
X179559Y088083
X179606Y098917
X195078Y096127
X202423Y096063
X217882Y101181
X223819Y094094
X226575
X208203Y11437
X204802Y119094
Y122642
X202677Y124803
X202756Y119094
T06
X196004Y074213
X195004
X194004
X191961
X190961
X189961
X212192Y074586
Y073586
Y075586
X215157
Y074586
Y073586
X229528Y089567
Y090567
Y091567
Y092567
Y093567
X17286Y093143
Y092143
Y091143
Y090143
Y089143
Y088143
Y087143
X16986
Y088143
Y089143
Y090143
Y091143
Y092143
Y093143
X171351Y084087
Y083087
Y082087
X160973Y100859
X159202
X229528Y100819
Y099819
Y098819
X22331Y112288
X22231
X22131
X22131Y115982
X22231
X22331
X220942Y121513
Y124513
X212642
Y121513
X212205Y116142
X211205
X213205
X213192Y112485
X212192
X211192
X202984Y112069
X201984
X200984
X197244Y115732
Y116732
Y117732
Y123213
Y124213
X193819Y121968
X192441
X192905Y112069
X191905
X190905
X167116Y115981
Y117359
X163239Y117142
Y116142
Y115142
X160973Y110739
X159202
X163239Y12344
Y12444
Y12544
X167116Y12561
Y126988
X197244Y125213
T07
X195872Y055699
X193892Y055709
X179724Y058661
X169291
Y063661
Y07
Y075
X179724
Y07
Y063661
X187598Y074586
X19776Y074586
X202472Y074586
X224732Y074586
X227953
X228111Y068701
X227953Y079991
X228064Y085396
X17815Y089173
Y091929
X165748Y10685
X176766
X192938Y10685
X201575Y10685
X190354Y098295
Y09626
X210483Y10685
X219255Y10685
X228027
X228064Y096457
X228027Y113554
Y120257
X232016Y11952
X232026Y1215
T08
X16316Y084843
Y086988
Y089134
X163239Y096673
Y098819
Y100965
X171407Y09794
Y10574
T09
X233661Y053937
X160236
Y127331
X233661Y127362
M30
