G04 Layer_Color=65535*
%FSLAX42Y42*%
%MOMM*%
G71*
G01*
G75*
%ADD24C,0.25*%
%ADD26C,0.20*%
%ADD27C,0.86*%
%ADD28C,1.00*%
%ADD29C,0.76*%
%ADD30R,0.51X0.51*%
%ADD31R,0.33X80.00*%
%ADD32R,190.00X80.00*%
%ADD63C,0.20*%
%ADD64C,0.60*%
%ADD65C,0.25*%
%ADD66C,0.40*%
%ADD67C,0.05*%
%ADD68C,0.15*%
%ADD69C,0.13*%
%ADD70C,0.10*%
%ADD71C,0.15*%
D24*
X8176Y6783D02*
G03*
X8176Y6783I-200J0D01*
G01*
X7287Y6770D02*
G03*
X7287Y6770I-200J0D01*
G01*
X14907Y6974D02*
G03*
X14907Y6974I-200J0D01*
G01*
X9065Y6783D02*
G03*
X9065Y6783I-200J0D01*
G01*
X9954D02*
G03*
X9954Y6783I-200J0D01*
G01*
X11399Y7450D02*
X11501D01*
X11450Y7399D02*
Y7501D01*
X5367Y2662D02*
Y2762D01*
X5317Y2715D02*
X5417D01*
X1350Y1300D02*
Y1600D01*
X50Y1300D02*
X1350D01*
X14050Y1150D02*
Y2350D01*
X11000Y1150D02*
Y2350D01*
X12900Y1150D02*
X14050D01*
X11000D02*
X12150D01*
X11000Y2350D02*
X14050D01*
X3900Y50D02*
Y7950D01*
X50Y3650D02*
X1850D01*
X50Y6850D02*
X1700D01*
X50Y5250D02*
X200D01*
X1850Y5000D02*
Y6650D01*
Y3650D02*
Y5250D01*
X200D02*
X1850D01*
X8280Y6617D02*
Y6934D01*
X7925Y6375D02*
X8026D01*
X7925Y7201D02*
X8026D01*
X7671Y6617D02*
Y6934D01*
X7391Y6604D02*
Y6921D01*
X7036Y6363D02*
X7137D01*
X7036Y7188D02*
X7137D01*
X6782Y6604D02*
Y6921D01*
X14402Y6807D02*
Y7125D01*
X14656Y7391D02*
X14757D01*
X14656Y6566D02*
X14757D01*
X15011Y6807D02*
Y7125D01*
X8560Y6617D02*
Y6934D01*
X8814Y7201D02*
X8915D01*
X8814Y6375D02*
X8915D01*
X9169Y6617D02*
Y6934D01*
X9449Y6617D02*
Y6934D01*
X9703Y7201D02*
X9804D01*
X9703Y6375D02*
X9804D01*
X10058Y6617D02*
Y6934D01*
X15300Y6200D02*
Y6550D01*
X14100Y6200D02*
Y6500D01*
Y6200D02*
X15300D01*
X11596Y6350D02*
Y7150D01*
X12096D01*
X11596Y6350D02*
X12096D01*
X13000D02*
Y7150D01*
X12500D02*
X13000D01*
X12500Y6350D02*
X13000D01*
X1852Y3575D02*
X1952D01*
X1902Y3528D02*
Y3628D01*
D26*
X5903Y2743D02*
X6108D01*
X5903Y3243D02*
X6108D01*
X5901Y2744D02*
Y2932D01*
Y3054D02*
Y3240D01*
X6109Y2743D02*
Y2932D01*
Y3054D02*
Y3240D01*
X3647Y227D02*
Y432D01*
X4148Y227D02*
Y432D01*
X3649Y434D02*
X3837D01*
X3959D02*
X4145D01*
X3647Y225D02*
X3837D01*
X3959D02*
X4145D01*
X16229Y3270D02*
Y3456D01*
Y3578D02*
Y3768D01*
X16437Y3270D02*
Y3456D01*
Y3578D02*
Y3766D01*
X16230Y3267D02*
X16435D01*
X16230Y3768D02*
X16435D01*
X1216Y6200D02*
X1402D01*
X1524D02*
X1714D01*
X1216Y5992D02*
X1402D01*
X1524D02*
X1712D01*
X1213Y5993D02*
Y6199D01*
X1714Y5993D02*
Y6199D01*
X1776Y6755D02*
Y6941D01*
Y7063D02*
Y7253D01*
X1985Y6755D02*
Y6941D01*
Y7063D02*
Y7251D01*
X1778Y6752D02*
X1983D01*
X1778Y7253D02*
X1983D01*
X14645Y2856D02*
Y3042D01*
Y2544D02*
Y2734D01*
X14437Y2856D02*
Y3042D01*
Y2546D02*
Y2734D01*
X14438Y3045D02*
X14644D01*
X14438Y2544D02*
X14644D01*
X1167Y4496D02*
X1353D01*
X1475D02*
X1665D01*
X1167Y4288D02*
X1353D01*
X1475D02*
X1663D01*
X1164Y4289D02*
Y4495D01*
X1665Y4289D02*
Y4495D01*
X17224Y4451D02*
X17410D01*
X16913D02*
X17102D01*
X17224Y4659D02*
X17410D01*
X16914D02*
X17102D01*
X17413Y4452D02*
Y4658D01*
X16913Y4452D02*
Y4658D01*
X16874Y4451D02*
Y4657D01*
X16534Y2063D02*
Y2249D01*
Y2371D02*
Y2561D01*
X16742Y2063D02*
Y2249D01*
Y2371D02*
Y2559D01*
X16535Y2060D02*
X16740D01*
X16535Y2561D02*
X16740D01*
X1043Y4317D02*
Y4503D01*
Y4005D02*
Y4194D01*
X835Y4317D02*
Y4503D01*
Y4006D02*
Y4194D01*
X837Y4506D02*
X1042D01*
X837Y4005D02*
X1042D01*
X16435Y4964D02*
Y5170D01*
X16935Y4964D02*
Y5170D01*
X16436Y5171D02*
X16624D01*
X16746D02*
X16932D01*
X16435Y4963D02*
X16624D01*
X16746D02*
X16932D01*
X17224Y4210D02*
X17410D01*
X16913D02*
X17102D01*
X17224Y4418D02*
X17410D01*
X16914D02*
X17102D01*
X17413Y4211D02*
Y4416D01*
X16913Y4211D02*
Y4416D01*
X16874Y4210D02*
Y4415D01*
X15687Y7108D02*
X15892D01*
X15687Y6607D02*
X15892D01*
X15894Y6918D02*
Y7106D01*
Y6610D02*
Y6796D01*
X15686Y6918D02*
Y7108D01*
Y6610D02*
Y6796D01*
X16423Y2373D02*
Y2559D01*
Y2062D02*
Y2251D01*
X16215Y2373D02*
Y2559D01*
Y2063D02*
Y2251D01*
X16216Y2562D02*
X16422D01*
X16216Y2062D02*
X16422D01*
X17223Y5816D02*
Y6021D01*
X16723Y5816D02*
Y6021D01*
X17034Y5814D02*
X17222D01*
X16726D02*
X16912D01*
X17034Y6023D02*
X17223D01*
X16726D02*
X16912D01*
X16728Y3580D02*
Y3766D01*
Y3268D02*
Y3458D01*
X16520Y3580D02*
Y3766D01*
Y3270D02*
Y3458D01*
X16521Y3769D02*
X16727D01*
X16521Y3268D02*
X16727D01*
X8270Y5289D02*
Y5474D01*
Y4977D02*
Y5166D01*
X8062Y5289D02*
Y5474D01*
Y4978D02*
Y5166D01*
X8064Y5478D02*
X8269D01*
X8064Y4977D02*
X8269D01*
X1018Y6018D02*
Y6204D01*
Y5707D02*
Y5896D01*
X810Y6018D02*
Y6204D01*
Y5708D02*
Y5896D01*
X811Y6207D02*
X1017D01*
X811Y5707D02*
X1017D01*
X17519Y4452D02*
Y4657D01*
X18020Y4452D02*
Y4657D01*
X17521Y4659D02*
X17709D01*
X17831D02*
X18017D01*
X17519Y4450D02*
X17709D01*
X17831D02*
X18017D01*
X17519Y4210D02*
Y4416D01*
X18020Y4210D02*
Y4416D01*
X17521Y4417D02*
X17709D01*
X17831D02*
X18017D01*
X17519Y4209D02*
X17709D01*
X17831D02*
X18017D01*
X14717Y2559D02*
Y2745D01*
Y2867D02*
Y3056D01*
X14926Y2559D02*
Y2745D01*
Y2867D02*
Y3055D01*
X14719Y2556D02*
X14924D01*
X14719Y3056D02*
X14924D01*
X2006Y6755D02*
Y6941D01*
Y7063D02*
Y7253D01*
X2215Y6755D02*
Y6941D01*
Y7063D02*
Y7251D01*
X2008Y6752D02*
X2213D01*
X2008Y7253D02*
X2213D01*
X1167Y4280D02*
X1353D01*
X1475D02*
X1665D01*
X1167Y4072D02*
X1353D01*
X1475D02*
X1663D01*
X1164Y4073D02*
Y4279D01*
X1665Y4073D02*
Y4279D01*
X17223Y6045D02*
Y6250D01*
X16723Y6045D02*
Y6250D01*
X17034Y6043D02*
X17222D01*
X16726D02*
X16912D01*
X17034Y6251D02*
X17223D01*
X16726D02*
X16912D01*
X2219Y6619D02*
X2405D01*
X2527D02*
X2717D01*
X2219Y6411D02*
X2405D01*
X2527D02*
X2715D01*
X2216Y6413D02*
Y6618D01*
X2717Y6413D02*
Y6618D01*
X17223Y5562D02*
Y5767D01*
X16723Y5562D02*
Y5767D01*
X17034Y5560D02*
X17222D01*
X16726D02*
X16912D01*
X17034Y5769D02*
X17223D01*
X16726D02*
X16912D01*
X8572Y4979D02*
X8777D01*
X8572Y5480D02*
X8777D01*
X8570Y4981D02*
Y5169D01*
Y5291D02*
Y5477D01*
X8778Y4979D02*
Y5169D01*
Y5291D02*
Y5477D01*
X7762Y5289D02*
Y5474D01*
Y4977D02*
Y5166D01*
X7554Y5289D02*
Y5474D01*
Y4978D02*
Y5166D01*
X7556Y5478D02*
X7761D01*
X7556Y4977D02*
X7761D01*
X9080Y4979D02*
X9285D01*
X9080Y5480D02*
X9285D01*
X9078Y4981D02*
Y5169D01*
Y5291D02*
Y5477D01*
X9286Y4979D02*
Y5169D01*
Y5291D02*
Y5477D01*
Y5901D02*
Y6087D01*
Y5589D02*
Y5778D01*
X9078Y5901D02*
Y6087D01*
Y5591D02*
Y5778D01*
X9080Y6090D02*
X9285D01*
X9080Y5589D02*
X9285D01*
X9081Y5550D02*
X9286D01*
X7554Y5547D02*
X7759D01*
X7553Y5586D02*
X7758D01*
X7553Y6087D02*
X7758D01*
X7551Y5588D02*
Y5776D01*
Y5898D02*
Y6084D01*
X7760Y5586D02*
Y5776D01*
Y5898D02*
Y6084D01*
X8065Y5545D02*
X8270D01*
X8064Y5584D02*
X8269D01*
X8064Y6085D02*
X8269D01*
X8062Y5585D02*
Y5773D01*
Y5896D02*
Y6081D01*
X8270Y5584D02*
Y5773D01*
Y5896D02*
Y6081D01*
X8778Y5901D02*
Y6087D01*
Y5589D02*
Y5778D01*
X8570Y5901D02*
Y6087D01*
Y5591D02*
Y5778D01*
X8572Y6090D02*
X8777D01*
X8572Y5589D02*
X8777D01*
X8572Y5550D02*
X8778D01*
X16094Y7603D02*
X16295D01*
X16094Y7229D02*
X16295D01*
Y7459D02*
Y7599D01*
Y7234D02*
Y7374D01*
X16094Y7459D02*
Y7599D01*
Y7234D02*
Y7374D01*
X1481Y1002D02*
X1461Y1022D01*
X1420D01*
X1400Y1002D01*
Y920D01*
X1420Y900D01*
X1461D01*
X1481Y920D01*
X1583Y900D02*
Y1022D01*
X1522Y961D01*
X1603D01*
X1725Y1022D02*
X1684Y1002D01*
X1644Y961D01*
Y920D01*
X1664Y900D01*
X1705D01*
X1725Y920D01*
Y941D01*
X1705Y961D01*
X1644D01*
X752Y3421D02*
Y3299D01*
X813D01*
X833Y3320D01*
Y3401D01*
X813Y3421D01*
X752D01*
X874Y3299D02*
X914D01*
X894D01*
Y3421D01*
X874Y3401D01*
X3500Y550D02*
Y672D01*
X3561D01*
X3581Y652D01*
Y611D01*
X3561Y591D01*
X3500D01*
X3541D02*
X3581Y550D01*
X3683D02*
Y672D01*
X3622Y611D01*
X3703D01*
X3825Y550D02*
X3744D01*
X3825Y631D01*
Y652D01*
X3805Y672D01*
X3764D01*
X3744Y652D01*
X7950Y3272D02*
Y3150D01*
X8011D01*
X8031Y3170D01*
Y3252D01*
X8011Y3272D01*
X7950D01*
X8153Y3252D02*
X8133Y3272D01*
X8092D01*
X8072Y3252D01*
Y3231D01*
X8092Y3211D01*
X8133D01*
X8153Y3191D01*
Y3170D01*
X8133Y3150D01*
X8092D01*
X8072Y3170D01*
X8194Y3150D02*
X8234D01*
X8214D01*
Y3272D01*
X8194Y3252D01*
X12800Y6150D02*
Y6272D01*
X12861D01*
X12881Y6252D01*
Y6211D01*
X12861Y6191D01*
X12800D01*
X12922Y6252D02*
X12942Y6272D01*
X12983D01*
X13003Y6252D01*
Y6231D01*
X12983Y6211D01*
X13003Y6191D01*
Y6170D01*
X12983Y6150D01*
X12942D01*
X12922Y6170D01*
Y6191D01*
X12942Y6211D01*
X12922Y6231D01*
Y6252D01*
X12942Y6211D02*
X12983D01*
X8950Y5000D02*
X8828D01*
Y5061D01*
X8848Y5081D01*
X8889D01*
X8909Y5061D01*
Y5000D01*
Y5041D02*
X8950Y5081D01*
Y5203D02*
Y5122D01*
X8869Y5203D01*
X8848D01*
X8828Y5183D01*
Y5142D01*
X8848Y5122D01*
Y5244D02*
X8828Y5264D01*
Y5305D01*
X8848Y5325D01*
X8869D01*
X8889Y5305D01*
Y5284D01*
Y5305D01*
X8909Y5325D01*
X8930D01*
X8950Y5305D01*
Y5264D01*
X8930Y5244D01*
X9531Y7452D02*
X9511Y7472D01*
X9470D01*
X9450Y7452D01*
Y7431D01*
X9470Y7411D01*
X9511D01*
X9531Y7391D01*
Y7370D01*
X9511Y7350D01*
X9470D01*
X9450Y7370D01*
X9572Y7472D02*
Y7350D01*
X9613Y7391D01*
X9653Y7350D01*
Y7472D01*
X9775D02*
X9694D01*
Y7411D01*
X9734Y7431D01*
X9755D01*
X9775Y7411D01*
Y7370D01*
X9755Y7350D01*
X9714D01*
X9694Y7370D01*
X8631Y7452D02*
X8611Y7472D01*
X8570D01*
X8550Y7452D01*
Y7431D01*
X8570Y7411D01*
X8611D01*
X8631Y7391D01*
Y7370D01*
X8611Y7350D01*
X8570D01*
X8550Y7370D01*
X8672Y7472D02*
Y7350D01*
X8713Y7391D01*
X8753Y7350D01*
Y7472D01*
X8855Y7350D02*
Y7472D01*
X8794Y7411D01*
X8875D01*
X9500Y5000D02*
X9378D01*
Y5061D01*
X9398Y5081D01*
X9439D01*
X9459Y5061D01*
Y5000D01*
Y5041D02*
X9500Y5081D01*
Y5203D02*
Y5122D01*
X9419Y5203D01*
X9398D01*
X9378Y5183D01*
Y5142D01*
X9398Y5122D01*
X9500Y5305D02*
X9378D01*
X9439Y5244D01*
Y5325D01*
X9378Y5500D02*
X9500D01*
Y5581D01*
X9378Y5703D02*
Y5622D01*
X9500D01*
Y5703D01*
X9439Y5622D02*
Y5663D01*
X9378Y5744D02*
X9500D01*
Y5805D01*
X9480Y5825D01*
X9398D01*
X9378Y5805D01*
Y5744D01*
Y5947D02*
X9398Y5906D01*
X9439Y5866D01*
X9480D01*
X9500Y5886D01*
Y5927D01*
X9480Y5947D01*
X9459D01*
X9439Y5927D01*
Y5866D01*
X8828Y5500D02*
X8950D01*
Y5581D01*
X8828Y5703D02*
Y5622D01*
X8950D01*
Y5703D01*
X8889Y5622D02*
Y5663D01*
X8828Y5744D02*
X8950D01*
Y5805D01*
X8930Y5825D01*
X8848D01*
X8828Y5805D01*
Y5744D01*
Y5947D02*
Y5866D01*
X8889D01*
X8869Y5906D01*
Y5927D01*
X8889Y5947D01*
X8930D01*
X8950Y5927D01*
Y5886D01*
X8930Y5866D01*
X12345Y4817D02*
X12325Y4837D01*
X12284D01*
X12264Y4817D01*
Y4735D01*
X12284Y4715D01*
X12325D01*
X12345Y4735D01*
X12447Y4715D02*
Y4837D01*
X12386Y4776D01*
X12467D01*
X12508Y4817D02*
X12528Y4837D01*
X12569D01*
X12589Y4817D01*
Y4796D01*
X12569Y4776D01*
X12549D01*
X12569D01*
X12589Y4756D01*
Y4735D01*
X12569Y4715D01*
X12528D01*
X12508Y4735D01*
X7828Y5500D02*
X7950D01*
Y5581D01*
X7828Y5703D02*
Y5622D01*
X7950D01*
Y5703D01*
X7889Y5622D02*
Y5663D01*
X7828Y5744D02*
X7950D01*
Y5805D01*
X7930Y5825D01*
X7848D01*
X7828Y5805D01*
Y5744D01*
X7848Y5866D02*
X7828Y5886D01*
Y5927D01*
X7848Y5947D01*
X7869D01*
X7889Y5927D01*
Y5906D01*
Y5927D01*
X7909Y5947D01*
X7930D01*
X7950Y5927D01*
Y5886D01*
X7930Y5866D01*
X8328Y5500D02*
X8450D01*
Y5581D01*
X8328Y5703D02*
Y5622D01*
X8450D01*
Y5703D01*
X8389Y5622D02*
Y5663D01*
X8328Y5744D02*
X8450D01*
Y5805D01*
X8430Y5825D01*
X8348D01*
X8328Y5805D01*
Y5744D01*
X8450Y5927D02*
X8328D01*
X8389Y5866D01*
Y5947D01*
X7950Y5000D02*
X7828D01*
Y5061D01*
X7848Y5081D01*
X7889D01*
X7909Y5061D01*
Y5000D01*
Y5041D02*
X7950Y5081D01*
Y5122D02*
Y5163D01*
Y5142D01*
X7828D01*
X7848Y5122D01*
Y5223D02*
X7828Y5244D01*
Y5284D01*
X7848Y5305D01*
X7869D01*
X7889Y5284D01*
X7909Y5305D01*
X7930D01*
X7950Y5284D01*
Y5244D01*
X7930Y5223D01*
X7909D01*
X7889Y5244D01*
X7869Y5223D01*
X7848D01*
X7889Y5244D02*
Y5284D01*
X8450Y5000D02*
X8328D01*
Y5061D01*
X8348Y5081D01*
X8389D01*
X8409Y5061D01*
Y5000D01*
Y5041D02*
X8450Y5081D01*
Y5203D02*
Y5122D01*
X8369Y5203D01*
X8348D01*
X8328Y5183D01*
Y5142D01*
X8348Y5122D01*
X8450Y5325D02*
Y5244D01*
X8369Y5325D01*
X8348D01*
X8328Y5305D01*
Y5264D01*
X8348Y5244D01*
X6781Y7452D02*
X6761Y7472D01*
X6720D01*
X6700Y7452D01*
Y7431D01*
X6720Y7411D01*
X6761D01*
X6781Y7391D01*
Y7370D01*
X6761Y7350D01*
X6720D01*
X6700Y7370D01*
X6822Y7472D02*
Y7350D01*
X6863Y7391D01*
X6903Y7350D01*
Y7472D01*
X7025Y7350D02*
X6944D01*
X7025Y7431D01*
Y7452D01*
X7005Y7472D01*
X6964D01*
X6944Y7452D01*
X7731D02*
X7711Y7472D01*
X7670D01*
X7650Y7452D01*
Y7431D01*
X7670Y7411D01*
X7711D01*
X7731Y7391D01*
Y7370D01*
X7711Y7350D01*
X7670D01*
X7650Y7370D01*
X7772Y7472D02*
Y7350D01*
X7813Y7391D01*
X7853Y7350D01*
Y7472D01*
X7894Y7452D02*
X7914Y7472D01*
X7955D01*
X7975Y7452D01*
Y7431D01*
X7955Y7411D01*
X7934D01*
X7955D01*
X7975Y7391D01*
Y7370D01*
X7955Y7350D01*
X7914D01*
X7894Y7370D01*
X9091Y1450D02*
X9070Y1471D01*
X9030D01*
X9009Y1450D01*
Y1430D01*
X9030Y1410D01*
X9070D01*
X9091Y1389D01*
Y1369D01*
X9070Y1349D01*
X9030D01*
X9009Y1369D01*
X9131Y1349D02*
X9172D01*
X9152D01*
Y1471D01*
X9131Y1450D01*
X11300Y6450D02*
Y6572D01*
X11361D01*
X11381Y6552D01*
Y6511D01*
X11361Y6491D01*
X11300D01*
X11422Y6470D02*
X11442Y6450D01*
X11483D01*
X11503Y6470D01*
Y6552D01*
X11483Y6572D01*
X11442D01*
X11422Y6552D01*
Y6531D01*
X11442Y6511D01*
X11503D01*
X1989Y3177D02*
X2071D01*
X2030D01*
Y3055D01*
X2111D02*
X2152D01*
X2132D01*
Y3177D01*
X2111Y3157D01*
X11300Y7150D02*
Y7272D01*
X11361D01*
X11381Y7252D01*
Y7211D01*
X11361Y7191D01*
X11300D01*
X11422Y7272D02*
X11503D01*
Y7252D01*
X11422Y7170D01*
Y7150D01*
X5931Y2652D02*
X5911Y2672D01*
X5870D01*
X5850Y2652D01*
Y2570D01*
X5870Y2550D01*
X5911D01*
X5931Y2570D01*
X6033Y2550D02*
Y2672D01*
X5972Y2611D01*
X6053D01*
X6175Y2672D02*
X6094D01*
Y2611D01*
X6134Y2631D01*
X6155D01*
X6175Y2611D01*
Y2570D01*
X6155Y2550D01*
X6114D01*
X6094Y2570D01*
X5531Y2552D02*
X5511Y2572D01*
X5470D01*
X5450Y2552D01*
Y2470D01*
X5470Y2450D01*
X5511D01*
X5531Y2470D01*
X5633Y2450D02*
Y2572D01*
X5572Y2511D01*
X5653D01*
X5755Y2450D02*
Y2572D01*
X5694Y2511D01*
X5775D01*
X16452Y7644D02*
X16431Y7664D01*
X16391D01*
X16370Y7644D01*
Y7563D01*
X16391Y7542D01*
X16431D01*
X16452Y7563D01*
X16492Y7542D02*
X16533D01*
X16512D01*
Y7664D01*
X16492Y7644D01*
X16594D02*
X16614Y7664D01*
X16655D01*
X16675Y7644D01*
Y7563D01*
X16655Y7542D01*
X16614D01*
X16594Y7563D01*
Y7644D01*
X15776Y7290D02*
X15756Y7310D01*
X15715D01*
X15695Y7290D01*
Y7209D01*
X15715Y7188D01*
X15756D01*
X15776Y7209D01*
X15817Y7188D02*
X15857D01*
X15837D01*
Y7310D01*
X15817Y7290D01*
X15918Y7188D02*
X15959D01*
X15938D01*
Y7310D01*
X15918Y7290D01*
X16507Y7305D02*
X16487Y7325D01*
X16446D01*
X16426Y7305D01*
Y7224D01*
X16446Y7203D01*
X16487D01*
X16507Y7224D01*
X16548Y7203D02*
X16589D01*
X16568D01*
Y7325D01*
X16548Y7305D01*
X16731Y7203D02*
X16650D01*
X16731Y7285D01*
Y7305D01*
X16711Y7325D01*
X16670D01*
X16650Y7305D01*
X17511Y7290D02*
X17490Y7310D01*
X17450D01*
X17429Y7290D01*
Y7209D01*
X17450Y7188D01*
X17490D01*
X17511Y7209D01*
X17633Y7188D02*
X17551D01*
X17633Y7269D01*
Y7290D01*
X17612Y7310D01*
X17572D01*
X17551Y7290D01*
X17673D02*
X17694Y7310D01*
X17734D01*
X17754Y7290D01*
Y7209D01*
X17734Y7188D01*
X17694D01*
X17673Y7209D01*
Y7290D01*
X16993Y4846D02*
Y4724D01*
X17074D01*
X17196Y4846D02*
X17114D01*
Y4724D01*
X17196D01*
X17114Y4785D02*
X17155D01*
X17236Y4846D02*
Y4724D01*
X17297D01*
X17318Y4745D01*
Y4826D01*
X17297Y4846D01*
X17236D01*
X17358Y4724D02*
X17399D01*
X17379D01*
Y4846D01*
X17358Y4826D01*
X16993Y4160D02*
Y4039D01*
X17074D01*
X17196Y4160D02*
X17114D01*
Y4039D01*
X17196D01*
X17114Y4100D02*
X17155D01*
X17236Y4160D02*
Y4039D01*
X17297D01*
X17318Y4059D01*
Y4140D01*
X17297Y4160D01*
X17236D01*
X17439Y4039D02*
X17358D01*
X17439Y4120D01*
Y4140D01*
X17419Y4160D01*
X17379D01*
X17358Y4140D01*
X17996Y6579D02*
Y6700D01*
X18057D01*
X18077Y6680D01*
Y6640D01*
X18057Y6619D01*
X17996D01*
X18118Y6579D02*
X18158D01*
X18138D01*
Y6700D01*
X18118Y6680D01*
X16586Y5232D02*
Y5354D01*
X16647D01*
X16667Y5334D01*
Y5293D01*
X16647Y5273D01*
X16586D01*
X16627D02*
X16667Y5232D01*
X16708Y5334D02*
X16728Y5354D01*
X16769D01*
X16789Y5334D01*
Y5314D01*
X16769Y5293D01*
X16789Y5273D01*
Y5253D01*
X16769Y5232D01*
X16728D01*
X16708Y5253D01*
Y5273D01*
X16728Y5293D01*
X16708Y5314D01*
Y5334D01*
X16728Y5293D02*
X16769D01*
X17297Y6096D02*
Y6218D01*
X17358D01*
X17379Y6198D01*
Y6157D01*
X17358Y6137D01*
X17297D01*
X17338D02*
X17379Y6096D01*
X17419Y6116D02*
X17440Y6096D01*
X17480D01*
X17501Y6116D01*
Y6198D01*
X17480Y6218D01*
X17440D01*
X17419Y6198D01*
Y6177D01*
X17440Y6157D01*
X17501D01*
X17297Y5855D02*
Y5977D01*
X17358D01*
X17379Y5956D01*
Y5916D01*
X17358Y5895D01*
X17297D01*
X17338D02*
X17379Y5855D01*
X17419D02*
X17460D01*
X17440D01*
Y5977D01*
X17419Y5956D01*
X17521D02*
X17541Y5977D01*
X17582D01*
X17602Y5956D01*
Y5875D01*
X17582Y5855D01*
X17541D01*
X17521Y5875D01*
Y5956D01*
X17297Y5601D02*
Y5723D01*
X17358D01*
X17379Y5702D01*
Y5662D01*
X17358Y5641D01*
X17297D01*
X17338D02*
X17379Y5601D01*
X17419D02*
X17460D01*
X17440D01*
Y5723D01*
X17419Y5702D01*
X17521Y5601D02*
X17561D01*
X17541D01*
Y5723D01*
X17521Y5702D01*
X17628Y4724D02*
Y4846D01*
X17689D01*
X17709Y4826D01*
Y4785D01*
X17689Y4765D01*
X17628D01*
X17668D02*
X17709Y4724D01*
X17749D02*
X17790D01*
X17770D01*
Y4846D01*
X17749Y4826D01*
X17932Y4724D02*
X17851D01*
X17932Y4806D01*
Y4826D01*
X17912Y4846D01*
X17871D01*
X17851Y4826D01*
X17628Y4039D02*
Y4160D01*
X17689D01*
X17709Y4140D01*
Y4100D01*
X17689Y4079D01*
X17628D01*
X17668D02*
X17709Y4039D01*
X17749D02*
X17790D01*
X17770D01*
Y4160D01*
X17749Y4140D01*
X17851D02*
X17871Y4160D01*
X17912D01*
X17932Y4140D01*
Y4120D01*
X17912Y4100D01*
X17892D01*
X17912D01*
X17932Y4079D01*
Y4059D01*
X17912Y4039D01*
X17871D01*
X17851Y4059D01*
X14281Y7652D02*
X14261Y7672D01*
X14220D01*
X14200Y7652D01*
Y7631D01*
X14220Y7611D01*
X14261D01*
X14281Y7591D01*
Y7570D01*
X14261Y7550D01*
X14220D01*
X14200Y7570D01*
X14322Y7672D02*
Y7550D01*
X14363Y7591D01*
X14403Y7550D01*
Y7672D01*
X14444Y7550D02*
X14484D01*
X14464D01*
Y7672D01*
X14444Y7652D01*
X16091Y6561D02*
Y6459D01*
X16111Y6439D01*
X16152D01*
X16172Y6459D01*
Y6561D01*
X16213Y6540D02*
X16233Y6561D01*
X16274D01*
X16294Y6540D01*
Y6520D01*
X16274Y6500D01*
X16253D01*
X16274D01*
X16294Y6480D01*
Y6459D01*
X16274Y6439D01*
X16233D01*
X16213Y6459D01*
X15350Y5372D02*
Y5270D01*
X15370Y5250D01*
X15411D01*
X15431Y5270D01*
Y5372D01*
X15533Y5250D02*
Y5372D01*
X15472Y5311D01*
X15553D01*
X15075Y4745D02*
Y4724D01*
X15116Y4684D01*
X15156Y4724D01*
Y4745D01*
X15116Y4684D02*
Y4623D01*
X15197D02*
X15237D01*
X15217D01*
Y4745D01*
X15197Y4724D01*
X261Y2812D02*
X221D01*
X241D01*
Y2710D01*
X221Y2690D01*
X200D01*
X180Y2710D01*
X383Y2690D02*
X302D01*
X383Y2771D01*
Y2792D01*
X363Y2812D01*
X322D01*
X302Y2792D01*
X16307Y2746D02*
X16286Y2766D01*
X16246D01*
X16226Y2746D01*
Y2664D01*
X16246Y2644D01*
X16286D01*
X16307Y2664D01*
X16429Y2644D02*
X16347D01*
X16429Y2725D01*
Y2746D01*
X16408Y2766D01*
X16368D01*
X16347Y2746D01*
X16624Y2743D02*
X16604Y2763D01*
X16563D01*
X16543Y2743D01*
Y2662D01*
X16563Y2642D01*
X16604D01*
X16624Y2662D01*
X16665Y2743D02*
X16685Y2763D01*
X16726D01*
X16746Y2743D01*
Y2723D01*
X16726Y2703D01*
X16706D01*
X16726D01*
X16746Y2682D01*
Y2662D01*
X16726Y2642D01*
X16685D01*
X16665Y2662D01*
X16325Y3950D02*
X16304Y3970D01*
X16264D01*
X16243Y3950D01*
Y3868D01*
X16264Y3848D01*
X16304D01*
X16325Y3868D01*
X16446Y3970D02*
X16406Y3950D01*
X16365Y3909D01*
Y3868D01*
X16385Y3848D01*
X16426D01*
X16446Y3868D01*
Y3889D01*
X16426Y3909D01*
X16365D01*
X16612Y3952D02*
X16591Y3973D01*
X16551D01*
X16530Y3952D01*
Y3871D01*
X16551Y3851D01*
X16591D01*
X16612Y3871D01*
X16652Y3973D02*
X16733D01*
Y3952D01*
X16652Y3871D01*
Y3851D01*
X14529Y3228D02*
X14508Y3249D01*
X14468D01*
X14448Y3228D01*
Y3147D01*
X14468Y3127D01*
X14508D01*
X14529Y3147D01*
X14569Y3228D02*
X14590Y3249D01*
X14630D01*
X14651Y3228D01*
Y3208D01*
X14630Y3188D01*
X14651Y3167D01*
Y3147D01*
X14630Y3127D01*
X14590D01*
X14569Y3147D01*
Y3167D01*
X14590Y3188D01*
X14569Y3208D01*
Y3228D01*
X14590Y3188D02*
X14630D01*
X14808Y3238D02*
X14788Y3259D01*
X14747D01*
X14727Y3238D01*
Y3157D01*
X14747Y3137D01*
X14788D01*
X14808Y3157D01*
X14849D02*
X14869Y3137D01*
X14910D01*
X14930Y3157D01*
Y3238D01*
X14910Y3259D01*
X14869D01*
X14849Y3238D01*
Y3218D01*
X14869Y3198D01*
X14930D01*
X1278Y3201D02*
X1258Y3181D01*
Y3140D01*
X1278Y3120D01*
X1360D01*
X1380Y3140D01*
Y3181D01*
X1360Y3201D01*
X1380Y3323D02*
Y3242D01*
X1299Y3323D01*
X1278D01*
X1258Y3303D01*
Y3262D01*
X1278Y3242D01*
X1258Y3445D02*
Y3364D01*
X1319D01*
X1299Y3404D01*
Y3425D01*
X1319Y3445D01*
X1360D01*
X1380Y3425D01*
Y3384D01*
X1360Y3364D01*
X3581Y4202D02*
X3561Y4222D01*
X3520D01*
X3500Y4202D01*
Y4120D01*
X3520Y4100D01*
X3561D01*
X3581Y4120D01*
X3703Y4100D02*
X3622D01*
X3703Y4181D01*
Y4202D01*
X3683Y4222D01*
X3642D01*
X3622Y4202D01*
X3825Y4222D02*
X3784Y4202D01*
X3744Y4161D01*
Y4120D01*
X3764Y4100D01*
X3805D01*
X3825Y4120D01*
Y4141D01*
X3805Y4161D01*
X3744D01*
X851Y3932D02*
X831Y3952D01*
X790D01*
X770Y3932D01*
Y3850D01*
X790Y3830D01*
X831D01*
X851Y3850D01*
X892Y3932D02*
X912Y3952D01*
X953D01*
X973Y3932D01*
Y3911D01*
X953Y3891D01*
X933D01*
X953D01*
X973Y3871D01*
Y3850D01*
X953Y3830D01*
X912D01*
X892Y3850D01*
X1075Y3830D02*
Y3952D01*
X1014Y3891D01*
X1095D01*
X831Y6352D02*
X811Y6372D01*
X770D01*
X750Y6352D01*
Y6270D01*
X770Y6250D01*
X811D01*
X831Y6270D01*
X872Y6352D02*
X892Y6372D01*
X933D01*
X953Y6352D01*
Y6331D01*
X933Y6311D01*
X913D01*
X933D01*
X953Y6291D01*
Y6270D01*
X933Y6250D01*
X892D01*
X872Y6270D01*
X994Y6352D02*
X1014Y6372D01*
X1055D01*
X1075Y6352D01*
Y6331D01*
X1055Y6311D01*
X1075Y6291D01*
Y6270D01*
X1055Y6250D01*
X1014D01*
X994Y6270D01*
Y6291D01*
X1014Y6311D01*
X994Y6331D01*
Y6352D01*
X1014Y6311D02*
X1055D01*
X2181Y7402D02*
X2161Y7422D01*
X2120D01*
X2100Y7402D01*
Y7320D01*
X2120Y7300D01*
X2161D01*
X2181Y7320D01*
X2222Y7402D02*
X2242Y7422D01*
X2283D01*
X2303Y7402D01*
Y7381D01*
X2283Y7361D01*
X2263D01*
X2283D01*
X2303Y7341D01*
Y7320D01*
X2283Y7300D01*
X2242D01*
X2222Y7320D01*
X2344D02*
X2364Y7300D01*
X2405D01*
X2425Y7320D01*
Y7402D01*
X2405Y7422D01*
X2364D01*
X2344Y7402D01*
Y7381D01*
X2364Y7361D01*
X2425D01*
X1691Y7402D02*
X1671Y7422D01*
X1630D01*
X1610Y7402D01*
Y7320D01*
X1630Y7300D01*
X1671D01*
X1691Y7320D01*
X1793Y7300D02*
Y7422D01*
X1732Y7361D01*
X1813D01*
X1854Y7402D02*
X1874Y7422D01*
X1915D01*
X1935Y7402D01*
Y7320D01*
X1915Y7300D01*
X1874D01*
X1854Y7320D01*
Y7402D01*
X17262Y3873D02*
X17221D01*
X17241D01*
Y3772D01*
X17221Y3752D01*
X17201D01*
X17181Y3772D01*
X17302Y3752D02*
X17343D01*
X17323D01*
Y3873D01*
X17302Y3853D01*
X5041Y4572D02*
X5001D01*
X5021D01*
Y4470D01*
X5001Y4450D01*
X4980D01*
X4960Y4470D01*
X5082Y4552D02*
X5102Y4572D01*
X5143D01*
X5163Y4552D01*
Y4531D01*
X5143Y4511D01*
X5123D01*
X5143D01*
X5163Y4491D01*
Y4470D01*
X5143Y4450D01*
X5102D01*
X5082Y4470D01*
X123Y5030D02*
Y5152D01*
X184D01*
X204Y5132D01*
Y5091D01*
X184Y5071D01*
X123D01*
X326Y5030D02*
X245D01*
X326Y5111D01*
Y5132D01*
X306Y5152D01*
X265D01*
X245Y5132D01*
X150Y6700D02*
Y6822D01*
X211D01*
X231Y6802D01*
Y6761D01*
X211Y6741D01*
X150D01*
X272Y6802D02*
X292Y6822D01*
X333D01*
X353Y6802D01*
Y6781D01*
X333Y6761D01*
X313D01*
X333D01*
X353Y6741D01*
Y6720D01*
X333Y6700D01*
X292D01*
X272Y6720D01*
X10950Y2500D02*
Y2622D01*
X11011D01*
X11031Y2602D01*
Y2561D01*
X11011Y2541D01*
X10950D01*
X11153Y2622D02*
X11113Y2602D01*
X11072Y2561D01*
Y2520D01*
X11092Y2500D01*
X11133D01*
X11153Y2520D01*
Y2541D01*
X11133Y2561D01*
X11072D01*
X1150Y3900D02*
Y4022D01*
X1211D01*
X1231Y4002D01*
Y3961D01*
X1211Y3941D01*
X1150D01*
X1191D02*
X1231Y3900D01*
X1272D02*
X1313D01*
X1292D01*
Y4022D01*
X1272Y4002D01*
X1455Y4022D02*
X1414Y4002D01*
X1373Y3961D01*
Y3920D01*
X1394Y3900D01*
X1434D01*
X1455Y3920D01*
Y3941D01*
X1434Y3961D01*
X1373D01*
X1150Y4550D02*
Y4672D01*
X1211D01*
X1231Y4652D01*
Y4611D01*
X1211Y4591D01*
X1150D01*
X1191D02*
X1231Y4550D01*
X1272D02*
X1313D01*
X1292D01*
Y4672D01*
X1272Y4652D01*
X1373Y4672D02*
X1455D01*
Y4652D01*
X1373Y4570D01*
Y4550D01*
X1400Y6250D02*
Y6372D01*
X1461D01*
X1481Y6352D01*
Y6311D01*
X1461Y6291D01*
X1400D01*
X1441D02*
X1481Y6250D01*
X1603D02*
X1522D01*
X1603Y6331D01*
Y6352D01*
X1583Y6372D01*
X1542D01*
X1522Y6352D01*
X1644D02*
X1664Y6372D01*
X1705D01*
X1725Y6352D01*
Y6270D01*
X1705Y6250D01*
X1664D01*
X1644Y6270D01*
Y6352D01*
X1900Y6450D02*
Y6572D01*
X1961D01*
X1981Y6552D01*
Y6511D01*
X1961Y6491D01*
X1900D01*
X1941D02*
X1981Y6450D01*
X2103D02*
X2022D01*
X2103Y6531D01*
Y6552D01*
X2083Y6572D01*
X2042D01*
X2022Y6552D01*
X2144Y6450D02*
X2184D01*
X2164D01*
Y6572D01*
X2144Y6552D01*
X15770Y3512D02*
Y3411D01*
X15790Y3390D01*
X15831D01*
X15851Y3411D01*
Y3512D01*
X15892Y3390D02*
X15932D01*
X15912D01*
Y3512D01*
X15892Y3492D01*
X3520Y7102D02*
Y7000D01*
X3540Y6980D01*
X3581D01*
X3601Y7000D01*
Y7102D01*
X3723D02*
X3642D01*
Y7041D01*
X3683Y7061D01*
X3703D01*
X3723Y7041D01*
Y7000D01*
X3703Y6980D01*
X3662D01*
X3642Y7000D01*
X3300Y4572D02*
Y4470D01*
X3320Y4450D01*
X3361D01*
X3381Y4470D01*
Y4572D01*
X3422Y4552D02*
X3442Y4572D01*
X3483D01*
X3503Y4552D01*
Y4531D01*
X3483Y4511D01*
X3503Y4491D01*
Y4470D01*
X3483Y4450D01*
X3442D01*
X3422Y4470D01*
Y4491D01*
X3442Y4511D01*
X3422Y4531D01*
Y4552D01*
X3442Y4511D02*
X3483D01*
X2800Y6402D02*
Y6300D01*
X2820Y6280D01*
X2861D01*
X2881Y6300D01*
Y6402D01*
X2922Y6300D02*
X2942Y6280D01*
X2983D01*
X3003Y6300D01*
Y6382D01*
X2983Y6402D01*
X2942D01*
X2922Y6382D01*
Y6361D01*
X2942Y6341D01*
X3003D01*
X1000Y6722D02*
Y6600D01*
X1041Y6641D01*
X1081Y6600D01*
Y6722D01*
X1122Y6600D02*
X1163D01*
X1142D01*
Y6722D01*
X1122Y6702D01*
X2950Y7322D02*
Y7200D01*
X2991Y7241D01*
X3031Y7200D01*
Y7322D01*
X3153Y7200D02*
X3072D01*
X3153Y7281D01*
Y7302D01*
X3133Y7322D01*
X3092D01*
X3072Y7302D01*
X900Y4922D02*
Y4800D01*
X941Y4841D01*
X981Y4800D01*
Y4922D01*
X1022Y4902D02*
X1042Y4922D01*
X1083D01*
X1103Y4902D01*
Y4881D01*
X1083Y4861D01*
X1063D01*
X1083D01*
X1103Y4841D01*
Y4820D01*
X1083Y4800D01*
X1042D01*
X1022Y4820D01*
X10350Y6300D02*
Y6422D01*
X10411D01*
X10431Y6402D01*
Y6361D01*
X10411Y6341D01*
X10350D01*
X10533Y6300D02*
Y6422D01*
X10472Y6361D01*
X10553D01*
X7400Y700D02*
Y822D01*
X7461D01*
X7481Y802D01*
Y761D01*
X7461Y741D01*
X7400D01*
X7603Y822D02*
X7522D01*
Y761D01*
X7563Y781D01*
X7583D01*
X7603Y761D01*
Y720D01*
X7583Y700D01*
X7542D01*
X7522Y720D01*
X13100Y5000D02*
Y5122D01*
X13161D01*
X13181Y5102D01*
Y5061D01*
X13161Y5041D01*
X13100D01*
X13222Y5000D02*
X13263D01*
X13242D01*
Y5122D01*
X13222Y5102D01*
X13323D02*
X13344Y5122D01*
X13384D01*
X13405Y5102D01*
Y5020D01*
X13384Y5000D01*
X13344D01*
X13323Y5020D01*
Y5102D01*
X17150Y800D02*
Y922D01*
X17211D01*
X17231Y902D01*
Y861D01*
X17211Y841D01*
X17150D01*
X17272Y800D02*
X17313D01*
X17292D01*
Y922D01*
X17272Y902D01*
X17373Y800D02*
X17414D01*
X17394D01*
Y922D01*
X17373Y902D01*
X4850Y7250D02*
Y7372D01*
X4911D01*
X4931Y7352D01*
Y7311D01*
X4911Y7291D01*
X4850D01*
X4972Y7250D02*
X5013D01*
X4992D01*
Y7372D01*
X4972Y7352D01*
X5155Y7250D02*
X5073D01*
X5155Y7331D01*
Y7352D01*
X5134Y7372D01*
X5094D01*
X5073Y7352D01*
X12900Y7700D02*
Y7822D01*
X12961D01*
X12981Y7802D01*
Y7761D01*
X12961Y7741D01*
X12900D01*
X13022Y7700D02*
X13063D01*
X13042D01*
Y7822D01*
X13022Y7802D01*
X13123D02*
X13144Y7822D01*
X13184D01*
X13205Y7802D01*
Y7781D01*
X13184Y7761D01*
X13164D01*
X13184D01*
X13205Y7741D01*
Y7720D01*
X13184Y7700D01*
X13144D01*
X13123Y7720D01*
X2085Y4328D02*
Y4450D01*
X2146D01*
X2167Y4430D01*
Y4389D01*
X2146Y4369D01*
X2085D01*
X2207Y4328D02*
X2248D01*
X2228D01*
Y4450D01*
X2207Y4430D01*
X2370Y4328D02*
Y4450D01*
X2309Y4389D01*
X2390D01*
X8991Y1850D02*
X8950Y1891D01*
Y1931D01*
X8991Y1972D01*
X9052Y1850D02*
X9092D01*
X9072D01*
Y1972D01*
X9052Y1952D01*
X9234Y1972D02*
X9153D01*
Y1911D01*
X9194Y1931D01*
X9214D01*
X9234Y1911D01*
Y1870D01*
X9214Y1850D01*
X9173D01*
X9153Y1870D01*
X9275Y1850D02*
X9316Y1891D01*
Y1931D01*
X9275Y1972D01*
X8991Y2100D02*
X8950Y2141D01*
Y2181D01*
X8991Y2222D01*
X9052Y2202D02*
X9072Y2222D01*
X9113D01*
X9133Y2202D01*
Y2120D01*
X9113Y2100D01*
X9072D01*
X9052Y2120D01*
Y2202D01*
X9234Y2100D02*
Y2222D01*
X9173Y2161D01*
X9255D01*
X9295Y2100D02*
X9336Y2141D01*
Y2181D01*
X9295Y2222D01*
X8991Y2350D02*
X8950Y2391D01*
Y2431D01*
X8991Y2472D01*
X9052Y2452D02*
X9072Y2472D01*
X9113D01*
X9133Y2452D01*
Y2370D01*
X9113Y2350D01*
X9072D01*
X9052Y2370D01*
Y2452D01*
X9255Y2350D02*
X9173D01*
X9255Y2431D01*
Y2452D01*
X9234Y2472D01*
X9194D01*
X9173Y2452D01*
X9295Y2350D02*
X9336Y2391D01*
Y2431D01*
X9295Y2472D01*
X8991Y2600D02*
X8950Y2641D01*
Y2681D01*
X8991Y2722D01*
X9052Y2702D02*
X9072Y2722D01*
X9113D01*
X9133Y2702D01*
Y2620D01*
X9113Y2600D01*
X9072D01*
X9052Y2620D01*
Y2702D01*
X9173D02*
X9194Y2722D01*
X9234D01*
X9255Y2702D01*
Y2620D01*
X9234Y2600D01*
X9194D01*
X9173Y2620D01*
Y2702D01*
X9295Y2600D02*
X9336Y2641D01*
Y2681D01*
X9295Y2722D01*
X7541Y1850D02*
X7500Y1891D01*
Y1931D01*
X7541Y1972D01*
X7602Y1952D02*
X7622Y1972D01*
X7663D01*
X7683Y1952D01*
Y1870D01*
X7663Y1850D01*
X7622D01*
X7602Y1870D01*
Y1952D01*
X7805Y1972D02*
X7764Y1952D01*
X7723Y1911D01*
Y1870D01*
X7744Y1850D01*
X7784D01*
X7805Y1870D01*
Y1891D01*
X7784Y1911D01*
X7723D01*
X7845Y1850D02*
X7886Y1891D01*
Y1931D01*
X7845Y1972D01*
X7541Y2100D02*
X7500Y2141D01*
Y2181D01*
X7541Y2222D01*
X7602Y2202D02*
X7622Y2222D01*
X7663D01*
X7683Y2202D01*
Y2120D01*
X7663Y2100D01*
X7622D01*
X7602Y2120D01*
Y2202D01*
X7723D02*
X7744Y2222D01*
X7784D01*
X7805Y2202D01*
Y2181D01*
X7784Y2161D01*
X7805Y2141D01*
Y2120D01*
X7784Y2100D01*
X7744D01*
X7723Y2120D01*
Y2141D01*
X7744Y2161D01*
X7723Y2181D01*
Y2202D01*
X7744Y2161D02*
X7784D01*
X7845Y2100D02*
X7886Y2141D01*
Y2181D01*
X7845Y2222D01*
X7541Y2350D02*
X7500Y2391D01*
Y2431D01*
X7541Y2472D01*
X7602Y2350D02*
X7642D01*
X7622D01*
Y2472D01*
X7602Y2452D01*
X7784Y2350D02*
X7703D01*
X7784Y2431D01*
Y2452D01*
X7764Y2472D01*
X7723D01*
X7703Y2452D01*
X7825Y2350D02*
X7866Y2391D01*
Y2431D01*
X7825Y2472D01*
X7541Y2600D02*
X7500Y2641D01*
Y2681D01*
X7541Y2722D01*
X7602Y2600D02*
X7642D01*
X7622D01*
Y2722D01*
X7602Y2702D01*
X7703D02*
X7723Y2722D01*
X7764D01*
X7784Y2702D01*
Y2620D01*
X7764Y2600D01*
X7723D01*
X7703Y2620D01*
Y2702D01*
X7825Y2600D02*
X7866Y2641D01*
Y2681D01*
X7825Y2722D01*
X9641Y6150D02*
X9600Y6191D01*
Y6231D01*
X9641Y6272D01*
X9702Y6252D02*
X9722Y6272D01*
X9763D01*
X9783Y6252D01*
Y6170D01*
X9763Y6150D01*
X9722D01*
X9702Y6170D01*
Y6252D01*
X9823Y6170D02*
X9844Y6150D01*
X9884D01*
X9905Y6170D01*
Y6252D01*
X9884Y6272D01*
X9844D01*
X9823Y6252D01*
Y6231D01*
X9844Y6211D01*
X9905D01*
X9945Y6150D02*
X9986Y6191D01*
Y6231D01*
X9945Y6272D01*
X8741Y6150D02*
X8700Y6191D01*
Y6231D01*
X8741Y6272D01*
X8802Y6252D02*
X8822Y6272D01*
X8863D01*
X8883Y6252D01*
Y6170D01*
X8863Y6150D01*
X8822D01*
X8802Y6170D01*
Y6252D01*
X8923Y6272D02*
X9005D01*
Y6252D01*
X8923Y6170D01*
Y6150D01*
X9045D02*
X9086Y6191D01*
Y6231D01*
X9045Y6272D01*
X7841Y6150D02*
X7800Y6191D01*
Y6231D01*
X7841Y6272D01*
X7902Y6252D02*
X7922Y6272D01*
X7963D01*
X7983Y6252D01*
Y6170D01*
X7963Y6150D01*
X7922D01*
X7902Y6170D01*
Y6252D01*
X8105Y6272D02*
X8023D01*
Y6211D01*
X8064Y6231D01*
X8084D01*
X8105Y6211D01*
Y6170D01*
X8084Y6150D01*
X8044D01*
X8023Y6170D01*
X8145Y6150D02*
X8186Y6191D01*
Y6231D01*
X8145Y6272D01*
X6941Y6150D02*
X6900Y6191D01*
Y6231D01*
X6941Y6272D01*
X7002Y6252D02*
X7022Y6272D01*
X7063D01*
X7083Y6252D01*
Y6170D01*
X7063Y6150D01*
X7022D01*
X7002Y6170D01*
Y6252D01*
X7123D02*
X7144Y6272D01*
X7184D01*
X7205Y6252D01*
Y6231D01*
X7184Y6211D01*
X7164D01*
X7184D01*
X7205Y6191D01*
Y6170D01*
X7184Y6150D01*
X7144D01*
X7123Y6170D01*
X7245Y6150D02*
X7286Y6191D01*
Y6231D01*
X7245Y6272D01*
X8850Y141D02*
X8809Y100D01*
X8769D01*
X8728Y141D01*
X8850Y283D02*
Y202D01*
X8769Y283D01*
X8748D01*
X8728Y263D01*
Y222D01*
X8748Y202D01*
X8728Y405D02*
X8748Y364D01*
X8789Y323D01*
X8830D01*
X8850Y344D01*
Y384D01*
X8830Y405D01*
X8809D01*
X8789Y384D01*
Y323D01*
X8850Y445D02*
X8809Y486D01*
X8769D01*
X8728Y445D01*
X8600Y141D02*
X8559Y100D01*
X8519D01*
X8478Y141D01*
X8600Y283D02*
Y202D01*
X8519Y283D01*
X8498D01*
X8478Y263D01*
Y222D01*
X8498Y202D01*
X8600Y384D02*
X8478D01*
X8539Y323D01*
Y405D01*
X8600Y445D02*
X8559Y486D01*
X8519D01*
X8478Y445D01*
X8100Y141D02*
X8059Y100D01*
X8019D01*
X7978Y141D01*
X7998Y202D02*
X7978Y222D01*
Y263D01*
X7998Y283D01*
X8019D01*
X8039Y263D01*
Y242D01*
Y263D01*
X8059Y283D01*
X8080D01*
X8100Y263D01*
Y222D01*
X8080Y202D01*
X7998Y323D02*
X7978Y344D01*
Y384D01*
X7998Y405D01*
X8080D01*
X8100Y384D01*
Y344D01*
X8080Y323D01*
X7998D01*
X8100Y445D02*
X8059Y486D01*
X8019D01*
X7978Y445D01*
X8350Y141D02*
X8309Y100D01*
X8269D01*
X8228Y141D01*
X8248Y202D02*
X8228Y222D01*
Y263D01*
X8248Y283D01*
X8269D01*
X8289Y263D01*
Y242D01*
Y263D01*
X8309Y283D01*
X8330D01*
X8350Y263D01*
Y222D01*
X8330Y202D01*
X8350Y405D02*
Y323D01*
X8269Y405D01*
X8248D01*
X8228Y384D01*
Y344D01*
X8248Y323D01*
X8350Y445D02*
X8309Y486D01*
X8269D01*
X8228Y445D01*
X16898Y831D02*
X16878Y811D01*
Y770D01*
X16898Y750D01*
X16980D01*
X17000Y770D01*
Y811D01*
X16980Y831D01*
X16939D01*
Y791D01*
X17000Y872D02*
X16878D01*
X17000Y953D01*
X16878D01*
Y994D02*
X17000D01*
Y1055D01*
X16980Y1075D01*
X16898D01*
X16878Y1055D01*
Y994D01*
X16750Y811D02*
Y770D01*
X16730Y750D01*
X16689D01*
X16669Y770D01*
Y811D01*
X16689Y831D01*
X16709D01*
Y750D01*
X16730Y953D02*
X16648D01*
X16628Y933D01*
Y892D01*
X16648Y872D01*
X16730D01*
X16750Y892D01*
Y933D01*
X16709Y913D02*
X16750Y953D01*
Y933D02*
X16730Y953D01*
X16628Y1075D02*
Y994D01*
X16750D01*
Y1075D01*
X16689Y994D02*
Y1034D01*
X16750Y1116D02*
X16628D01*
Y1177D01*
X16648Y1197D01*
X16689D01*
X16709Y1177D01*
Y1116D01*
X16750Y1238D02*
X16669D01*
X16628Y1278D01*
X16669Y1319D01*
X16750D01*
X16689D01*
Y1238D01*
X16500Y811D02*
Y770D01*
X16480Y750D01*
X16439D01*
X16419Y770D01*
Y811D01*
X16439Y831D01*
X16459D01*
Y750D01*
X16480Y953D02*
X16398D01*
X16378Y933D01*
Y892D01*
X16398Y872D01*
X16480D01*
X16500Y892D01*
Y933D01*
X16459Y913D02*
X16500Y953D01*
Y933D02*
X16480Y953D01*
X16378Y1075D02*
Y994D01*
X16500D01*
Y1075D01*
X16439Y994D02*
Y1034D01*
X16500Y1116D02*
X16378D01*
Y1177D01*
X16398Y1197D01*
X16439D01*
X16459Y1177D01*
Y1116D01*
X16378Y1238D02*
X16500D01*
Y1298D01*
X16480Y1319D01*
X16459D01*
X16439Y1298D01*
Y1238D01*
Y1298D01*
X16419Y1319D01*
X16398D01*
X16378Y1298D01*
Y1238D01*
X16250Y811D02*
Y770D01*
X16230Y750D01*
X16189D01*
X16169Y770D01*
Y811D01*
X16189Y831D01*
X16209D01*
Y750D01*
X16230Y953D02*
X16148D01*
X16128Y933D01*
Y892D01*
X16148Y872D01*
X16230D01*
X16250Y892D01*
Y933D01*
X16209Y913D02*
X16250Y953D01*
Y933D02*
X16230Y953D01*
X16128Y1075D02*
Y994D01*
X16250D01*
Y1075D01*
X16189Y994D02*
Y1034D01*
X16250Y1116D02*
X16128D01*
Y1177D01*
X16148Y1197D01*
X16189D01*
X16209Y1177D01*
Y1116D01*
X16128Y1238D02*
Y1278D01*
Y1258D01*
X16250D01*
Y1238D01*
Y1278D01*
X16411Y250D02*
X16370D01*
X16350Y270D01*
Y311D01*
X16370Y331D01*
X16411D01*
X16431Y311D01*
Y291D01*
X16350D01*
X16553Y270D02*
Y352D01*
X16533Y372D01*
X16492D01*
X16472Y352D01*
Y270D01*
X16492Y250D01*
X16533D01*
X16513Y291D02*
X16553Y250D01*
X16533D02*
X16553Y270D01*
X16675Y372D02*
X16594D01*
Y250D01*
X16675D01*
X16594Y311D02*
X16634D01*
X16716Y250D02*
Y372D01*
X16777D01*
X16797Y352D01*
Y311D01*
X16777Y291D01*
X16716D01*
X100Y1400D02*
X141D01*
X120D01*
Y1522D01*
X100Y1502D01*
X283Y1400D02*
X202D01*
X283Y1481D01*
Y1502D01*
X263Y1522D01*
X222D01*
X202Y1502D01*
X323Y1400D02*
Y1420D01*
X344D01*
Y1400D01*
X323D01*
X506Y1522D02*
X425D01*
Y1461D01*
X466Y1481D01*
X486D01*
X506Y1461D01*
Y1420D01*
X486Y1400D01*
X445D01*
X425Y1420D01*
X669Y1461D02*
X750D01*
X913Y1400D02*
X953D01*
X933D01*
Y1522D01*
X913Y1502D01*
X1095Y1522D02*
X1014D01*
Y1461D01*
X1055Y1481D01*
X1075D01*
X1095Y1461D01*
Y1420D01*
X1075Y1400D01*
X1034D01*
X1014Y1420D01*
X1136Y1522D02*
Y1441D01*
X1177Y1400D01*
X1217Y1441D01*
Y1522D01*
X11405Y1651D02*
X11447D01*
X11426D01*
Y1778D01*
X11405Y1757D01*
X13437Y1905D02*
X13477D01*
X13457D01*
Y2027D01*
X13437Y2007D01*
X13599Y1905D02*
Y2027D01*
X13538Y1966D01*
X13619D01*
X12331Y1222D02*
X12291D01*
X12311D01*
Y1120D01*
X12291Y1100D01*
X12270D01*
X12250Y1120D01*
X12372Y1161D02*
X12453D01*
X12494Y1222D02*
X12575D01*
X12534D01*
Y1100D01*
X12616D02*
Y1181D01*
X12656Y1222D01*
X12697Y1181D01*
Y1100D01*
Y1161D01*
X12616D01*
X12819Y1202D02*
X12798Y1222D01*
X12758D01*
X12738Y1202D01*
Y1120D01*
X12758Y1100D01*
X12798D01*
X12819Y1120D01*
Y1161D01*
X12778D01*
X6248Y6531D02*
X6228Y6511D01*
Y6470D01*
X6248Y6450D01*
X6269D01*
X6289Y6470D01*
Y6511D01*
X6309Y6531D01*
X6330D01*
X6350Y6511D01*
Y6470D01*
X6330Y6450D01*
X6228Y6572D02*
Y6613D01*
Y6592D01*
X6350D01*
Y6572D01*
Y6613D01*
Y6673D02*
X6228D01*
X6269Y6714D01*
X6228Y6755D01*
X6350D01*
X6228Y6856D02*
Y6816D01*
X6248Y6795D01*
X6330D01*
X6350Y6816D01*
Y6856D01*
X6330Y6877D01*
X6248D01*
X6228Y6856D01*
X5998Y6531D02*
X5978Y6511D01*
Y6470D01*
X5998Y6450D01*
X6019D01*
X6039Y6470D01*
Y6511D01*
X6059Y6531D01*
X6080D01*
X6100Y6511D01*
Y6470D01*
X6080Y6450D01*
X5978Y6633D02*
Y6592D01*
X5998Y6572D01*
X6080D01*
X6100Y6592D01*
Y6633D01*
X6080Y6653D01*
X5998D01*
X5978Y6633D01*
X6100Y6694D02*
X5978D01*
X6019Y6734D01*
X5978Y6775D01*
X6100D01*
X5978Y6816D02*
Y6856D01*
Y6836D01*
X6100D01*
Y6816D01*
Y6856D01*
X5748Y6631D02*
X5728Y6611D01*
Y6570D01*
X5748Y6550D01*
X5830D01*
X5850Y6570D01*
Y6611D01*
X5830Y6631D01*
X5728Y6672D02*
X5850D01*
Y6753D01*
X5728Y6794D02*
X5850D01*
X5809D01*
X5728Y6875D01*
X5789Y6814D01*
X5850Y6875D01*
X5498Y6631D02*
X5478Y6611D01*
Y6570D01*
X5498Y6550D01*
X5519D01*
X5539Y6570D01*
Y6611D01*
X5559Y6631D01*
X5580D01*
X5600Y6611D01*
Y6570D01*
X5580Y6550D01*
X5478Y6672D02*
Y6753D01*
Y6713D01*
X5600D01*
X5478Y6875D02*
Y6794D01*
X5600D01*
Y6875D01*
X5539Y6794D02*
Y6834D01*
X5248Y6631D02*
X5228Y6611D01*
Y6570D01*
X5248Y6550D01*
X5330D01*
X5350Y6570D01*
Y6611D01*
X5330Y6631D01*
X5289D01*
Y6591D01*
X5350Y6672D02*
X5228D01*
X5350Y6753D01*
X5228D01*
Y6794D02*
X5350D01*
Y6855D01*
X5330Y6875D01*
X5248D01*
X5228Y6855D01*
Y6794D01*
X5731Y7402D02*
X5711Y7422D01*
X5670D01*
X5650Y7402D01*
Y7381D01*
X5670Y7361D01*
X5711D01*
X5731Y7341D01*
Y7320D01*
X5711Y7300D01*
X5670D01*
X5650Y7320D01*
X5772Y7300D02*
Y7422D01*
X5833D01*
X5853Y7402D01*
Y7361D01*
X5833Y7341D01*
X5772D01*
X5894Y7422D02*
X5934D01*
X5914D01*
Y7300D01*
X5894D01*
X5934D01*
X3978Y3250D02*
Y3291D01*
Y3270D01*
X4100D01*
Y3250D01*
Y3291D01*
X3998Y3433D02*
X3978Y3413D01*
Y3372D01*
X3998Y3352D01*
X4019D01*
X4039Y3372D01*
Y3413D01*
X4059Y3433D01*
X4080D01*
X4100Y3413D01*
Y3372D01*
X4080Y3352D01*
X3978Y3534D02*
Y3494D01*
X3998Y3473D01*
X4080D01*
X4100Y3494D01*
Y3534D01*
X4080Y3555D01*
X3998D01*
X3978Y3534D01*
Y3595D02*
X4100D01*
Y3677D01*
Y3717D02*
X4019D01*
X3978Y3758D01*
X4019Y3798D01*
X4100D01*
X4039D01*
Y3717D01*
X3978Y3839D02*
Y3920D01*
Y3880D01*
X4100D01*
X3978Y4042D02*
Y3961D01*
X4100D01*
Y4042D01*
X4039Y3961D02*
Y4002D01*
X3978Y4083D02*
X4100D01*
Y4144D01*
X4080Y4164D01*
X3998D01*
X3978Y4144D01*
Y4083D01*
X200Y3822D02*
Y3741D01*
X241Y3700D01*
X281Y3741D01*
Y3822D01*
X383D02*
X342D01*
X322Y3802D01*
Y3720D01*
X342Y3700D01*
X383D01*
X403Y3720D01*
Y3802D01*
X383Y3822D01*
X444D02*
Y3720D01*
X464Y3700D01*
X505D01*
X525Y3720D01*
Y3822D01*
X566D02*
X647D01*
X606D01*
Y3700D01*
X200Y5422D02*
X241D01*
X220D01*
Y5300D01*
X200D01*
X241D01*
X363Y5422D02*
X322D01*
X302Y5402D01*
Y5320D01*
X322Y5300D01*
X363D01*
X383Y5320D01*
Y5402D01*
X363Y5422D01*
X423D02*
Y5320D01*
X444Y5300D01*
X484D01*
X505Y5320D01*
Y5422D01*
X545D02*
X627D01*
X586D01*
Y5300D01*
X2600Y6822D02*
Y6700D01*
Y6761D01*
X2681D01*
Y6822D01*
Y6700D01*
X2722D02*
Y6781D01*
X2763Y6822D01*
X2803Y6781D01*
Y6700D01*
Y6761D01*
X2722D01*
X2844Y6700D02*
Y6822D01*
X2905D01*
X2925Y6802D01*
Y6761D01*
X2905Y6741D01*
X2844D01*
X2884D02*
X2925Y6700D01*
X2966Y6822D02*
X3047D01*
X3006D01*
Y6700D01*
X2628Y3500D02*
X2750D01*
Y3561D01*
X2730Y3581D01*
X2648D01*
X2628Y3561D01*
Y3500D01*
Y3622D02*
X2709D01*
X2750Y3663D01*
X2709Y3703D01*
X2628D01*
Y3744D02*
X2750D01*
Y3805D01*
X2730Y3825D01*
X2648D01*
X2628Y3805D01*
Y3744D01*
Y3866D02*
X2750D01*
Y3927D01*
X2730Y3947D01*
X2648D01*
X2628Y3927D01*
Y3866D01*
X2500Y3500D02*
X2419D01*
X2378Y3541D01*
X2419Y3581D01*
X2500D01*
X2439D01*
Y3500D01*
X2398Y3703D02*
X2378Y3683D01*
Y3642D01*
X2398Y3622D01*
X2480D01*
X2500Y3642D01*
Y3683D01*
X2480Y3703D01*
X2439D01*
Y3663D01*
X2500Y3744D02*
X2378D01*
X2500Y3825D01*
X2378D01*
Y3866D02*
X2500D01*
Y3927D01*
X2480Y3947D01*
X2398D01*
X2378Y3927D01*
Y3866D01*
X2250Y3500D02*
X2169D01*
X2128Y3541D01*
X2169Y3581D01*
X2250D01*
X2189D01*
Y3500D01*
X2128Y3622D02*
X2209D01*
X2250Y3663D01*
X2209Y3703D01*
X2128D01*
Y3744D02*
X2250D01*
Y3805D01*
X2230Y3825D01*
X2148D01*
X2128Y3805D01*
Y3744D01*
Y3866D02*
X2250D01*
Y3927D01*
X2230Y3947D01*
X2148D01*
X2128Y3927D01*
Y3866D01*
X17771Y6608D02*
Y6690D01*
X17730Y6649D02*
X17811D01*
X12932Y4438D02*
X12973D01*
X12952D01*
Y4559D01*
X12932Y4539D01*
X13034D02*
X13054Y4559D01*
X13095D01*
X13115Y4539D01*
Y4458D01*
X13095Y4438D01*
X13054D01*
X13034Y4458D01*
Y4539D01*
X13155D02*
X13176Y4559D01*
X13216D01*
X13237Y4539D01*
Y4458D01*
X13216Y4438D01*
X13176D01*
X13155Y4458D01*
Y4539D01*
X13076Y3514D02*
X12995D01*
Y3453D01*
X13035Y3474D01*
X13055D01*
X13076Y3453D01*
Y3413D01*
X13055Y3392D01*
X13015D01*
X12995Y3413D01*
X13116Y3494D02*
X13137Y3514D01*
X13177D01*
X13198Y3494D01*
Y3413D01*
X13177Y3392D01*
X13137D01*
X13116Y3413D01*
Y3494D01*
X9565Y4559D02*
X9647D01*
Y4539D01*
X9565Y4458D01*
Y4438D01*
X9687Y4539D02*
X9708Y4559D01*
X9748D01*
X9769Y4539D01*
Y4519D01*
X9748Y4498D01*
X9728D01*
X9748D01*
X9769Y4478D01*
Y4458D01*
X9748Y4438D01*
X9708D01*
X9687Y4458D01*
X9774Y3392D02*
X9693D01*
X9774Y3474D01*
Y3494D01*
X9753Y3514D01*
X9713D01*
X9693Y3494D01*
X9875Y3392D02*
Y3514D01*
X9814Y3453D01*
X9896D01*
X8829Y4559D02*
X8910D01*
Y4539D01*
X8829Y4458D01*
Y4438D01*
X8950D02*
X8991D01*
X8971D01*
Y4559D01*
X8950Y4539D01*
X9012Y3392D02*
X8931D01*
X9012Y3474D01*
Y3494D01*
X8991Y3514D01*
X8951D01*
X8931Y3494D01*
X9134Y3392D02*
X9052D01*
X9134Y3474D01*
Y3494D01*
X9113Y3514D01*
X9073D01*
X9052Y3494D01*
X7107Y4559D02*
X7025D01*
Y4498D01*
X7066Y4519D01*
X7086D01*
X7107Y4498D01*
Y4458D01*
X7086Y4438D01*
X7046D01*
X7025Y4458D01*
X7147Y4559D02*
X7229D01*
Y4539D01*
X7147Y4458D01*
Y4438D01*
X7228Y3514D02*
X7309D01*
Y3494D01*
X7228Y3413D01*
Y3392D01*
X6345Y4559D02*
X6263D01*
Y4498D01*
X6304Y4519D01*
X6324D01*
X6345Y4498D01*
Y4458D01*
X6324Y4438D01*
X6284D01*
X6263Y4458D01*
X6467Y4559D02*
X6385D01*
Y4498D01*
X6426Y4519D01*
X6446D01*
X6467Y4498D01*
Y4458D01*
X6446Y4438D01*
X6406D01*
X6385Y4458D01*
X6547Y3514D02*
X6506Y3494D01*
X6465Y3453D01*
Y3413D01*
X6486Y3392D01*
X6526D01*
X6547Y3413D01*
Y3433D01*
X6526Y3453D01*
X6465D01*
X5862Y4559D02*
X5781D01*
Y4498D01*
X5821Y4519D01*
X5841D01*
X5862Y4498D01*
Y4458D01*
X5841Y4438D01*
X5801D01*
X5781Y4458D01*
X5902Y4438D02*
X5943D01*
X5923D01*
Y4559D01*
X5902Y4539D01*
X5856Y3392D02*
X5896D01*
X5876D01*
Y3514D01*
X5856Y3494D01*
X9250Y4541D02*
X9209Y4500D01*
X9169D01*
X9128Y4541D01*
X9148Y4602D02*
X9128Y4622D01*
Y4663D01*
X9148Y4683D01*
X9230D01*
X9250Y4663D01*
Y4622D01*
X9230Y4602D01*
X9148D01*
X9250Y4723D02*
Y4764D01*
Y4744D01*
X9128D01*
X9148Y4723D01*
X9250Y4825D02*
X9209Y4866D01*
X9169D01*
X9128Y4825D01*
X8750Y4541D02*
X8709Y4500D01*
X8669D01*
X8628Y4541D01*
Y4683D02*
X8648Y4642D01*
X8689Y4602D01*
X8730D01*
X8750Y4622D01*
Y4663D01*
X8730Y4683D01*
X8709D01*
X8689Y4663D01*
Y4602D01*
X8648Y4723D02*
X8628Y4744D01*
Y4784D01*
X8648Y4805D01*
X8669D01*
X8689Y4784D01*
Y4764D01*
Y4784D01*
X8709Y4805D01*
X8730D01*
X8750Y4784D01*
Y4744D01*
X8730Y4723D01*
X8750Y4845D02*
X8709Y4886D01*
X8669D01*
X8628Y4845D01*
X8200Y4541D02*
X8159Y4500D01*
X8119D01*
X8078Y4541D01*
Y4683D02*
X8098Y4642D01*
X8139Y4602D01*
X8180D01*
X8200Y4622D01*
Y4663D01*
X8180Y4683D01*
X8159D01*
X8139Y4663D01*
Y4602D01*
X8200Y4723D02*
Y4764D01*
Y4744D01*
X8078D01*
X8098Y4723D01*
X8200Y4825D02*
X8159Y4866D01*
X8119D01*
X8078Y4825D01*
X7700Y4541D02*
X7659Y4500D01*
X7619D01*
X7578Y4541D01*
Y4683D02*
Y4602D01*
X7639D01*
X7619Y4642D01*
Y4663D01*
X7639Y4683D01*
X7680D01*
X7700Y4663D01*
Y4622D01*
X7680Y4602D01*
Y4723D02*
X7700Y4744D01*
Y4784D01*
X7680Y4805D01*
X7598D01*
X7578Y4784D01*
Y4744D01*
X7598Y4723D01*
X7619D01*
X7639Y4744D01*
Y4805D01*
X7700Y4845D02*
X7659Y4886D01*
X7619D01*
X7578Y4845D01*
X13800Y4872D02*
Y4770D01*
X13820Y4750D01*
X13861D01*
X13881Y4770D01*
Y4872D01*
X13922Y4750D02*
Y4831D01*
X13963Y4872D01*
X14003Y4831D01*
Y4750D01*
Y4811D01*
X13922D01*
X14044Y4750D02*
Y4872D01*
X14105D01*
X14125Y4852D01*
Y4811D01*
X14105Y4791D01*
X14044D01*
X14084D02*
X14125Y4750D01*
X14166Y4872D02*
X14247D01*
X14206D01*
Y4750D01*
X14215Y5253D02*
X14093D01*
Y5313D01*
X14113Y5334D01*
X14154D01*
X14174Y5313D01*
Y5253D01*
Y5293D02*
X14215Y5334D01*
X14093Y5374D02*
X14215Y5456D01*
X14093D02*
X14215Y5374D01*
X14093Y5496D02*
X14215D01*
Y5557D01*
X14195Y5578D01*
X14113D01*
X14093Y5557D01*
Y5496D01*
X14348Y5250D02*
Y5331D01*
Y5291D01*
X14470D01*
X14348Y5372D02*
X14470Y5453D01*
X14348D02*
X14470Y5372D01*
X14348Y5494D02*
X14470D01*
Y5555D01*
X14450Y5575D01*
X14368D01*
X14348Y5555D01*
Y5494D01*
X13848Y5331D02*
X13828Y5311D01*
Y5270D01*
X13848Y5250D01*
X13930D01*
X13950Y5270D01*
Y5311D01*
X13930Y5331D01*
X13889D01*
Y5291D01*
X13950Y5372D02*
X13828D01*
X13950Y5453D01*
X13828D01*
Y5494D02*
X13950D01*
Y5555D01*
X13930Y5575D01*
X13848D01*
X13828Y5555D01*
Y5494D01*
X13578Y5331D02*
Y5250D01*
X13639D01*
X13619Y5291D01*
Y5311D01*
X13639Y5331D01*
X13680D01*
X13700Y5311D01*
Y5270D01*
X13680Y5250D01*
X13578Y5372D02*
X13659D01*
X13700Y5413D01*
X13659Y5453D01*
X13578D01*
X14200Y6250D02*
Y6372D01*
X14261D01*
X14281Y6352D01*
Y6311D01*
X14261Y6291D01*
X14200D01*
X14241D02*
X14281Y6250D01*
X14403Y6372D02*
X14322D01*
Y6250D01*
X14403D01*
X14322Y6311D02*
X14363D01*
X14525Y6352D02*
X14505Y6372D01*
X14464D01*
X14444Y6352D01*
Y6331D01*
X14464Y6311D01*
X14505D01*
X14525Y6291D01*
Y6270D01*
X14505Y6250D01*
X14464D01*
X14444Y6270D01*
X14647Y6372D02*
X14566D01*
Y6250D01*
X14647D01*
X14566Y6311D02*
X14606D01*
X14688Y6372D02*
X14769D01*
X14728D01*
Y6250D01*
X14931Y6372D02*
Y6270D01*
X14952Y6250D01*
X14992D01*
X15013Y6270D01*
Y6372D01*
X15134Y6352D02*
X15114Y6372D01*
X15073D01*
X15053Y6352D01*
Y6331D01*
X15073Y6311D01*
X15114D01*
X15134Y6291D01*
Y6270D01*
X15114Y6250D01*
X15073D01*
X15053Y6270D01*
X15175Y6372D02*
Y6250D01*
X15236D01*
X15256Y6270D01*
Y6291D01*
X15236Y6311D01*
X15175D01*
X15236D01*
X15256Y6331D01*
Y6352D01*
X15236Y6372D01*
X15175D01*
X10600Y7022D02*
X10641D01*
X10620D01*
Y6900D01*
X10600D01*
X10641D01*
X10783Y7002D02*
X10763Y7022D01*
X10722D01*
X10702Y7002D01*
Y6981D01*
X10722Y6961D01*
X10763D01*
X10783Y6941D01*
Y6920D01*
X10763Y6900D01*
X10722D01*
X10702Y6920D01*
X10884Y7022D02*
X10844D01*
X10823Y7002D01*
Y6920D01*
X10844Y6900D01*
X10884D01*
X10905Y6920D01*
Y7002D01*
X10884Y7022D01*
X11311D02*
Y6900D01*
Y6961D01*
X11392D01*
Y7022D01*
Y6900D01*
X11433Y7022D02*
Y6900D01*
X11494D01*
X11514Y6920D01*
Y7002D01*
X11494Y7022D01*
X11433D01*
X10681Y7822D02*
X10600D01*
Y7761D01*
X10641Y7781D01*
X10661D01*
X10681Y7761D01*
Y7720D01*
X10661Y7700D01*
X10620D01*
X10600Y7720D01*
X10722Y7822D02*
Y7741D01*
X10763Y7700D01*
X10803Y7741D01*
Y7822D01*
X10966D02*
Y7700D01*
Y7761D01*
X11047D01*
Y7822D01*
Y7700D01*
X11148D02*
X11108D01*
X11088Y7720D01*
Y7761D01*
X11108Y7781D01*
X11148D01*
X11169Y7761D01*
Y7741D01*
X11088D01*
X11230Y7781D02*
X11270D01*
X11291Y7761D01*
Y7700D01*
X11230D01*
X11209Y7720D01*
X11230Y7741D01*
X11291D01*
X11413Y7822D02*
Y7700D01*
X11352D01*
X11331Y7720D01*
Y7761D01*
X11352Y7781D01*
X11413D01*
X11514Y7700D02*
X11473D01*
X11453Y7720D01*
Y7761D01*
X11473Y7781D01*
X11514D01*
X11534Y7761D01*
Y7741D01*
X11453D01*
X11575Y7781D02*
Y7700D01*
Y7741D01*
X11595Y7761D01*
X11616Y7781D01*
X11636D01*
X13398Y7031D02*
X13378Y7011D01*
Y6970D01*
X13398Y6950D01*
X13480D01*
X13500Y6970D01*
Y7011D01*
X13480Y7031D01*
X13439D01*
Y6991D01*
X13500Y7072D02*
X13378D01*
X13500Y7153D01*
X13378D01*
Y7194D02*
X13500D01*
Y7255D01*
X13480Y7275D01*
X13398D01*
X13378Y7255D01*
Y7194D01*
X13128Y7131D02*
Y7050D01*
X13189D01*
X13169Y7091D01*
Y7111D01*
X13189Y7131D01*
X13230D01*
X13250Y7111D01*
Y7070D01*
X13230Y7050D01*
X13128Y7172D02*
X13209D01*
X13250Y7213D01*
X13209Y7253D01*
X13128D01*
X7248Y1250D02*
X7228Y1270D01*
Y1311D01*
X7248Y1331D01*
X7269D01*
X7289Y1311D01*
Y1291D01*
Y1311D01*
X7309Y1331D01*
X7330D01*
X7350Y1311D01*
Y1270D01*
X7330Y1250D01*
X7228Y1372D02*
X7309D01*
X7350Y1413D01*
X7309Y1453D01*
X7228D01*
X7248Y1494D02*
X7228Y1514D01*
Y1555D01*
X7248Y1575D01*
X7269D01*
X7289Y1555D01*
Y1534D01*
Y1555D01*
X7309Y1575D01*
X7330D01*
X7350Y1555D01*
Y1514D01*
X7330Y1494D01*
X6998Y1331D02*
X6978Y1311D01*
Y1270D01*
X6998Y1250D01*
X7080D01*
X7100Y1270D01*
Y1311D01*
X7080Y1331D01*
X7039D01*
Y1291D01*
X7100Y1372D02*
X6978D01*
Y1433D01*
X6998Y1453D01*
X7039D01*
X7059Y1433D01*
Y1372D01*
X6978Y1494D02*
Y1534D01*
Y1514D01*
X7100D01*
Y1494D01*
Y1534D01*
X6978Y1656D02*
Y1616D01*
X6998Y1595D01*
X7080D01*
X7100Y1616D01*
Y1656D01*
X7080Y1677D01*
X6998D01*
X6978Y1656D01*
X7039Y1717D02*
Y1798D01*
X6978Y1920D02*
X6998Y1880D01*
X7039Y1839D01*
X7080D01*
X7100Y1859D01*
Y1900D01*
X7080Y1920D01*
X7059D01*
X7039Y1900D01*
Y1839D01*
X7100Y2042D02*
Y1961D01*
X7019Y2042D01*
X6998D01*
X6978Y2022D01*
Y1981D01*
X6998Y1961D01*
X6850Y1250D02*
X6769D01*
X6728Y1291D01*
X6769Y1331D01*
X6850D01*
X6789D01*
Y1250D01*
X6728Y1372D02*
X6850D01*
Y1433D01*
X6830Y1453D01*
X6748D01*
X6728Y1433D01*
Y1372D01*
X6748Y1575D02*
X6728Y1555D01*
Y1514D01*
X6748Y1494D01*
X6830D01*
X6850Y1514D01*
Y1555D01*
X6830Y1575D01*
X6728Y1616D02*
Y1656D01*
Y1636D01*
X6850D01*
Y1616D01*
Y1656D01*
Y1717D02*
X6728D01*
X6850Y1798D01*
X6728D01*
X6789Y1839D02*
Y1920D01*
X6728Y1961D02*
X6850D01*
Y2022D01*
X6830Y2042D01*
X6809D01*
X6789Y2022D01*
Y1961D01*
Y2022D01*
X6769Y2042D01*
X6748D01*
X6728Y2022D01*
Y1961D01*
Y2083D02*
Y2164D01*
X6748D01*
X6830Y2083D01*
X6850D01*
X6498Y1331D02*
X6478Y1311D01*
Y1270D01*
X6498Y1250D01*
X6580D01*
X6600Y1270D01*
Y1311D01*
X6580Y1331D01*
X6539D01*
Y1291D01*
X6600Y1372D02*
X6478D01*
Y1433D01*
X6498Y1453D01*
X6539D01*
X6559Y1433D01*
Y1372D01*
X6478Y1494D02*
Y1534D01*
Y1514D01*
X6600D01*
Y1494D01*
Y1534D01*
X6478Y1656D02*
Y1616D01*
X6498Y1595D01*
X6580D01*
X6600Y1616D01*
Y1656D01*
X6580Y1677D01*
X6498D01*
X6478Y1656D01*
X6539Y1717D02*
Y1798D01*
X6478Y1920D02*
X6498Y1880D01*
X6539Y1839D01*
X6580D01*
X6600Y1859D01*
Y1900D01*
X6580Y1920D01*
X6559D01*
X6539Y1900D01*
Y1839D01*
X6498Y1961D02*
X6478Y1981D01*
Y2022D01*
X6498Y2042D01*
X6580D01*
X6600Y2022D01*
Y1981D01*
X6580Y1961D01*
X6498D01*
X6350Y1250D02*
X6269D01*
X6228Y1291D01*
X6269Y1331D01*
X6350D01*
X6289D01*
Y1250D01*
X6228Y1372D02*
X6350D01*
Y1433D01*
X6330Y1453D01*
X6248D01*
X6228Y1433D01*
Y1372D01*
X6248Y1575D02*
X6228Y1555D01*
Y1514D01*
X6248Y1494D01*
X6330D01*
X6350Y1514D01*
Y1555D01*
X6330Y1575D01*
X6228Y1616D02*
Y1656D01*
Y1636D01*
X6350D01*
Y1616D01*
Y1656D01*
Y1717D02*
X6228D01*
X6350Y1798D01*
X6228D01*
X6289Y1839D02*
Y1920D01*
X6228Y1961D02*
X6350D01*
Y2022D01*
X6330Y2042D01*
X6309D01*
X6289Y2022D01*
Y1961D01*
Y2022D01*
X6269Y2042D01*
X6248D01*
X6228Y2022D01*
Y1961D01*
Y2164D02*
X6248Y2123D01*
X6289Y2083D01*
X6330D01*
X6350Y2103D01*
Y2144D01*
X6330Y2164D01*
X6309D01*
X6289Y2144D01*
Y2083D01*
X5998Y1331D02*
X5978Y1311D01*
Y1270D01*
X5998Y1250D01*
X6080D01*
X6100Y1270D01*
Y1311D01*
X6080Y1331D01*
X6039D01*
Y1291D01*
X6100Y1372D02*
X5978D01*
Y1433D01*
X5998Y1453D01*
X6039D01*
X6059Y1433D01*
Y1372D01*
X5978Y1494D02*
Y1534D01*
Y1514D01*
X6100D01*
Y1494D01*
Y1534D01*
X5978Y1656D02*
Y1616D01*
X5998Y1595D01*
X6080D01*
X6100Y1616D01*
Y1656D01*
X6080Y1677D01*
X5998D01*
X5978Y1656D01*
X6039Y1717D02*
Y1798D01*
X5978Y1920D02*
Y1839D01*
X6039D01*
X6019Y1880D01*
Y1900D01*
X6039Y1920D01*
X6080D01*
X6100Y1900D01*
Y1859D01*
X6080Y1839D01*
X5998Y1961D02*
X5978Y1981D01*
Y2022D01*
X5998Y2042D01*
X6019D01*
X6039Y2022D01*
X6059Y2042D01*
X6080D01*
X6100Y2022D01*
Y1981D01*
X6080Y1961D01*
X6059D01*
X6039Y1981D01*
X6019Y1961D01*
X5998D01*
X6039Y1981D02*
Y2022D01*
X5850Y1250D02*
X5769D01*
X5728Y1291D01*
X5769Y1331D01*
X5850D01*
X5789D01*
Y1250D01*
X5728Y1372D02*
X5850D01*
Y1433D01*
X5830Y1453D01*
X5748D01*
X5728Y1433D01*
Y1372D01*
X5748Y1575D02*
X5728Y1555D01*
Y1514D01*
X5748Y1494D01*
X5830D01*
X5850Y1514D01*
Y1555D01*
X5830Y1575D01*
X5728Y1616D02*
Y1656D01*
Y1636D01*
X5850D01*
Y1616D01*
Y1656D01*
Y1717D02*
X5728D01*
X5850Y1798D01*
X5728D01*
X5789Y1839D02*
Y1920D01*
X5728Y1961D02*
X5850D01*
Y2022D01*
X5830Y2042D01*
X5809D01*
X5789Y2022D01*
Y1961D01*
Y2022D01*
X5769Y2042D01*
X5748D01*
X5728Y2022D01*
Y1961D01*
Y2164D02*
Y2083D01*
X5789D01*
X5769Y2123D01*
Y2144D01*
X5789Y2164D01*
X5830D01*
X5850Y2144D01*
Y2103D01*
X5830Y2083D01*
X5498Y1331D02*
X5478Y1311D01*
Y1270D01*
X5498Y1250D01*
X5580D01*
X5600Y1270D01*
Y1311D01*
X5580Y1331D01*
X5539D01*
Y1291D01*
X5600Y1372D02*
X5478D01*
X5600Y1453D01*
X5478D01*
Y1494D02*
X5600D01*
Y1555D01*
X5580Y1575D01*
X5498D01*
X5478Y1555D01*
Y1494D01*
X11498Y5600D02*
X11478Y5620D01*
Y5661D01*
X11498Y5681D01*
X11519D01*
X11539Y5661D01*
Y5641D01*
Y5661D01*
X11559Y5681D01*
X11580D01*
X11600Y5661D01*
Y5620D01*
X11580Y5600D01*
X11478Y5722D02*
X11559D01*
X11600Y5763D01*
X11559Y5803D01*
X11478D01*
X11498Y5844D02*
X11478Y5864D01*
Y5905D01*
X11498Y5925D01*
X11519D01*
X11539Y5905D01*
Y5884D01*
Y5905D01*
X11559Y5925D01*
X11580D01*
X11600Y5905D01*
Y5864D01*
X11580Y5844D01*
X11248Y5231D02*
X11228Y5211D01*
Y5170D01*
X11248Y5150D01*
X11330D01*
X11350Y5170D01*
Y5211D01*
X11330Y5231D01*
X11289D01*
Y5191D01*
X11350Y5272D02*
X11228D01*
Y5333D01*
X11248Y5353D01*
X11289D01*
X11309Y5333D01*
Y5272D01*
X11228Y5394D02*
Y5434D01*
Y5414D01*
X11350D01*
Y5394D01*
Y5434D01*
X11228Y5556D02*
Y5516D01*
X11248Y5495D01*
X11330D01*
X11350Y5516D01*
Y5556D01*
X11330Y5577D01*
X11248D01*
X11228Y5556D01*
X11289Y5617D02*
Y5698D01*
X11248Y5739D02*
X11228Y5759D01*
Y5800D01*
X11248Y5820D01*
X11269D01*
X11289Y5800D01*
X11309Y5820D01*
X11330D01*
X11350Y5800D01*
Y5759D01*
X11330Y5739D01*
X11309D01*
X11289Y5759D01*
X11269Y5739D01*
X11248D01*
X11289Y5759D02*
Y5800D01*
X11228Y5942D02*
Y5861D01*
X11289D01*
X11269Y5902D01*
Y5922D01*
X11289Y5942D01*
X11330D01*
X11350Y5922D01*
Y5881D01*
X11330Y5861D01*
X10998Y5231D02*
X10978Y5211D01*
Y5170D01*
X10998Y5150D01*
X11080D01*
X11100Y5170D01*
Y5211D01*
X11080Y5231D01*
X11039D01*
Y5191D01*
X11100Y5272D02*
X10978D01*
Y5333D01*
X10998Y5353D01*
X11039D01*
X11059Y5333D01*
Y5272D01*
X10978Y5394D02*
Y5434D01*
Y5414D01*
X11100D01*
Y5394D01*
Y5434D01*
X10978Y5556D02*
Y5516D01*
X10998Y5495D01*
X11080D01*
X11100Y5516D01*
Y5556D01*
X11080Y5577D01*
X10998D01*
X10978Y5556D01*
X11039Y5617D02*
Y5698D01*
X11100Y5800D02*
X10978D01*
X11039Y5739D01*
Y5820D01*
X11080Y5861D02*
X11100Y5881D01*
Y5922D01*
X11080Y5942D01*
X10998D01*
X10978Y5922D01*
Y5881D01*
X10998Y5861D01*
X11019D01*
X11039Y5881D01*
Y5942D01*
X10748Y5281D02*
X10728Y5261D01*
Y5220D01*
X10748Y5200D01*
X10830D01*
X10850Y5220D01*
Y5261D01*
X10830Y5281D01*
X10789D01*
Y5241D01*
X10850Y5322D02*
X10728D01*
Y5383D01*
X10748Y5403D01*
X10789D01*
X10809Y5383D01*
Y5322D01*
X10728Y5444D02*
Y5484D01*
Y5464D01*
X10850D01*
Y5444D01*
Y5484D01*
X10728Y5606D02*
Y5566D01*
X10748Y5545D01*
X10830D01*
X10850Y5566D01*
Y5606D01*
X10830Y5627D01*
X10748D01*
X10728Y5606D01*
X10789Y5667D02*
Y5748D01*
X10850Y5789D02*
Y5830D01*
Y5809D01*
X10728D01*
X10748Y5789D01*
X10850Y5891D02*
Y5931D01*
Y5911D01*
X10728D01*
X10748Y5891D01*
X10498Y5681D02*
X10478Y5661D01*
Y5620D01*
X10498Y5600D01*
X10580D01*
X10600Y5620D01*
Y5661D01*
X10580Y5681D01*
X10539D01*
Y5641D01*
X10600Y5722D02*
X10478D01*
X10600Y5803D01*
X10478D01*
Y5844D02*
X10600D01*
Y5905D01*
X10580Y5925D01*
X10498D01*
X10478Y5905D01*
Y5844D01*
X11678Y6481D02*
Y6400D01*
X11739D01*
X11719Y6441D01*
Y6461D01*
X11739Y6481D01*
X11780D01*
X11800Y6461D01*
Y6420D01*
X11780Y6400D01*
X11678Y6522D02*
X11759D01*
X11800Y6563D01*
X11759Y6603D01*
X11678D01*
Y6847D02*
Y6766D01*
X11800D01*
Y6847D01*
X11739Y6766D02*
Y6806D01*
X11678Y6888D02*
X11800Y6969D01*
X11678D02*
X11800Y6888D01*
X11678Y7009D02*
Y7091D01*
Y7050D01*
X11800D01*
X12830Y6490D02*
Y6408D01*
X12891D01*
X12870Y6449D01*
Y6469D01*
X12891Y6490D01*
X12931D01*
X12951Y6469D01*
Y6429D01*
X12931Y6408D01*
X12830Y6530D02*
X12911D01*
X12951Y6571D01*
X12911Y6612D01*
X12830D01*
Y6774D02*
X12931D01*
X12951Y6794D01*
Y6835D01*
X12931Y6855D01*
X12830D01*
X12850Y6977D02*
X12830Y6957D01*
Y6916D01*
X12850Y6896D01*
X12870D01*
X12891Y6916D01*
Y6957D01*
X12911Y6977D01*
X12931D01*
X12951Y6957D01*
Y6916D01*
X12931Y6896D01*
X12830Y7018D02*
X12951D01*
Y7079D01*
X12931Y7099D01*
X12911D01*
X12891Y7079D01*
Y7018D01*
Y7079D01*
X12870Y7099D01*
X12850D01*
X12830Y7079D01*
Y7018D01*
D27*
X8719Y2088D02*
G03*
X8719Y2088I-15J0D01*
G01*
D28*
X737Y2062D02*
Y2262D01*
X937Y1662D02*
X1137D01*
X1357Y2037D02*
Y2287D01*
D29*
X8251Y2083D02*
X8443D01*
X8373Y2769D02*
X8562D01*
X8307Y2426D02*
X8508D01*
X8589Y2482D02*
X8627Y2695D01*
X8249Y2502D02*
X8285Y2710D01*
X8529Y2137D02*
X8566Y2350D01*
X8188Y2157D02*
X8226Y2374D01*
D30*
X1302Y6569D02*
D03*
X1556D02*
D03*
Y4879D02*
D03*
X1302D02*
D03*
X2909Y7011D02*
D03*
X2655D02*
D03*
X11080Y6740D02*
D03*
X10826D02*
D03*
X11334D02*
D03*
X12046Y6750D02*
D03*
X12554D02*
D03*
X12300D02*
D03*
D31*
X3899Y4000D02*
D03*
D32*
X9500D02*
D03*
D63*
X1757Y1296D02*
G03*
X1757Y1296I-200J0D01*
G01*
X7880Y978D02*
G03*
X7880Y1105I0J63D01*
G01*
X17757Y6926D02*
G03*
X17757Y6926I-200J0D01*
G01*
X1916Y1829D02*
G03*
X1916Y1956I0J63D01*
G01*
X17059Y453D02*
Y707D01*
X16043Y453D02*
X17059D01*
X16043Y707D02*
X17059D01*
X16043Y453D02*
Y707D01*
X13360Y1575D02*
Y2083D01*
X11582Y1575D02*
Y2083D01*
X13360D01*
X11582Y1575D02*
X13360D01*
X5157Y6953D02*
Y7207D01*
X6427D01*
X5157Y6953D02*
X6427D01*
Y7207D01*
X15698Y6094D02*
X16288D01*
X15698Y5504D02*
X16288D01*
X15698D02*
Y6094D01*
X16288Y5504D02*
Y6094D01*
X8910Y776D02*
Y1306D01*
X7880Y1105D02*
Y1306D01*
Y776D02*
Y978D01*
Y1306D02*
X8910D01*
X7880Y776D02*
X8910D01*
X2629Y5458D02*
Y6248D01*
X2309Y5458D02*
Y6248D01*
Y5458D02*
X2629D01*
X2309Y6248D02*
X2629D01*
X18259Y3671D02*
X19244D01*
X17186D02*
X18121D01*
X17186Y2147D02*
Y3671D01*
Y2147D02*
X18121D01*
X18259D02*
X19244D01*
Y3671D01*
X15506Y3331D02*
X15686D01*
X15506Y2461D02*
X15686D01*
X15506D02*
Y3331D01*
X15686Y2461D02*
Y3331D01*
X-13Y1712D02*
X817D01*
X1257D02*
X1447D01*
Y1942D01*
X-13Y1712D02*
Y2612D01*
X1447D01*
X1447Y2382D01*
X4206Y4644D02*
Y5694D01*
X3606Y4644D02*
Y5694D01*
Y4644D02*
X4206D01*
X3606Y5694D02*
X4206D01*
X16042Y6790D02*
X16352D01*
X16042Y6840D02*
X16352D01*
X16042Y6790D02*
Y6840D01*
X16352Y6790D02*
Y6840D01*
X1916Y1247D02*
Y1829D01*
Y1956D02*
Y2537D01*
X5196Y1247D02*
Y2537D01*
X1916Y1247D02*
X5196D01*
X1916Y2537D02*
X5196D01*
X4610Y3590D02*
X14390D01*
Y4390D01*
X4610D02*
X14390D01*
X4610Y3590D02*
Y4390D01*
X2075Y3993D02*
Y4247D01*
X2837D01*
Y3993D02*
Y4247D01*
X2075Y3993D02*
X2837D01*
X10437Y5973D02*
Y6227D01*
X11707D01*
X10437Y5973D02*
X11707D01*
Y6227D01*
X5425Y923D02*
X7457D01*
Y1177D01*
X5425D02*
X7457D01*
X5425Y923D02*
Y1177D01*
X10829Y7323D02*
Y7577D01*
X11337D01*
Y7323D02*
Y7577D01*
X10829Y7323D02*
X11337D01*
X8012Y3081D02*
X8802D01*
X8012Y1771D02*
Y3081D01*
Y1771D02*
X8802D01*
Y3081D01*
X13106Y7579D02*
X13614D01*
X13106Y7325D02*
Y7579D01*
Y7325D02*
X13614D01*
Y7579D01*
X14539Y4923D02*
Y5177D01*
X13523Y4923D02*
X14539D01*
X13523Y5177D02*
X14539D01*
X13523Y4923D02*
Y5177D01*
X4199Y5825D02*
Y6875D01*
X3599Y5825D02*
Y6875D01*
Y5825D02*
X4199D01*
X3599Y6875D02*
X4199D01*
D64*
X16218Y5604D02*
G03*
X16218Y5604I-30J0D01*
G01*
X8010Y876D02*
G03*
X8010Y876I-30J0D01*
G01*
X2559Y5558D02*
G03*
X2559Y5558I-30J0D01*
G01*
X4136Y4744D02*
G03*
X4136Y4744I-30J0D01*
G01*
X4129Y5925D02*
G03*
X4129Y5925I-30J0D01*
G01*
D65*
X16426Y5436D02*
G03*
X16426Y5436I-12J0D01*
G01*
X7896Y660D02*
G03*
X7896Y660I-12J0D01*
G01*
X2767Y5423D02*
G03*
X2767Y5423I-12J0D01*
G01*
X15848Y2430D02*
G03*
X15848Y2430I-12J0D01*
G01*
X4374Y4639D02*
G03*
X4374Y4639I-12J0D01*
G01*
X16389Y6935D02*
G03*
X16389Y6935I-12J0D01*
G01*
X7960Y2934D02*
G03*
X7960Y2934I-12J0D01*
G01*
X4366Y5821D02*
G03*
X4366Y5821I-12J0D01*
G01*
D66*
X15626Y2541D02*
G03*
X15626Y2541I-20J0D01*
G01*
D67*
X15570Y4864D02*
G03*
X15570Y4508I0J-178D01*
G01*
X16256D02*
G03*
X16256Y4864I0J178D01*
G01*
X15570D02*
X16256D01*
X15570Y4508D02*
X16256D01*
D68*
X15570Y4915D02*
G03*
X15570Y4457I0J-229D01*
G01*
X16256D02*
G03*
X16256Y4915I0J229D01*
G01*
X15570D02*
X16256D01*
X15570Y4457D02*
X16256D01*
D69*
X-40Y3349D02*
G03*
X-40Y3059I0J-145D01*
G01*
Y3349D02*
X70D01*
X-40Y3059D02*
X70D01*
Y3424D02*
X710D01*
X70Y2984D02*
Y3424D01*
Y2984D02*
X710D01*
Y3424D01*
D70*
X1492Y6696D02*
X1619D01*
X1683Y6633D01*
X1619Y6442D02*
X1683Y6506D01*
Y6633D01*
X1365Y6696D02*
X1429Y6633D01*
X1238Y6696D02*
X1365D01*
X1175Y6633D02*
X1238Y6696D01*
X1175Y6506D02*
Y6633D01*
Y6506D02*
X1238Y6442D01*
X1365D01*
X1429Y6506D01*
Y6633D02*
X1492Y6696D01*
X1429Y6506D02*
Y6633D01*
Y6506D02*
X1492Y6442D01*
X1619D01*
X17830Y5153D02*
X19520D01*
X17830Y6353D02*
X19520D01*
X17830Y5153D02*
Y6353D01*
X19520Y5153D02*
Y6353D01*
X1492Y4752D02*
X1619D01*
X1429Y4816D02*
X1492Y4752D01*
X1429Y4816D02*
Y4943D01*
X1492Y5006D01*
X1365Y4752D02*
X1429Y4816D01*
X1238Y4752D02*
X1365D01*
X1175Y4816D02*
X1238Y4752D01*
X1175Y4816D02*
Y4943D01*
X1238Y5006D01*
X1365D01*
X1429Y4943D01*
X1683Y4816D02*
Y4943D01*
X1619Y4752D02*
X1683Y4816D01*
X1619Y5006D02*
X1683Y4943D01*
X1492Y5006D02*
X1619D01*
X2592Y6884D02*
X2719D01*
X2528Y6947D02*
X2592Y6884D01*
X2528Y7074D02*
X2592Y7138D01*
X2528Y6947D02*
Y7074D01*
X2782Y6947D02*
X2846Y6884D01*
X2973D01*
X3036Y6947D01*
Y7074D01*
X2973Y7138D02*
X3036Y7074D01*
X2846Y7138D02*
X2973D01*
X2782Y7074D02*
X2846Y7138D01*
X2719Y6884D02*
X2782Y6947D01*
Y7074D01*
X2719Y7138D02*
X2782Y7074D01*
X2592Y7138D02*
X2719D01*
X10762Y6613D02*
X10889D01*
X10699Y6676D02*
X10762Y6613D01*
X10699Y6804D02*
X10762Y6867D01*
X10699Y6676D02*
Y6804D01*
X10953Y6676D02*
X11017Y6613D01*
X11143D01*
X11207Y6676D01*
Y6804D01*
X11143Y6867D02*
X11207Y6804D01*
X11017Y6867D02*
X11143D01*
X10953Y6804D02*
X11017Y6867D01*
X10889Y6613D02*
X10953Y6676D01*
Y6804D01*
X10889Y6867D02*
X10953Y6804D01*
X10762Y6867D02*
X10889D01*
X11207Y6676D02*
Y6804D01*
X11271Y6867D01*
X11397D01*
X11461Y6804D01*
Y6676D02*
Y6804D01*
X11397Y6613D02*
X11461Y6676D01*
X11271Y6613D02*
X11397D01*
X11207Y6676D02*
X11271Y6613D01*
X12110Y6877D02*
X12173Y6814D01*
X11982Y6877D02*
X12110D01*
X11919Y6814D02*
X11982Y6877D01*
X11919Y6686D02*
Y6814D01*
Y6686D02*
X11982Y6623D01*
X12110D01*
X12173Y6686D01*
Y6814D01*
X12490Y6623D02*
X12618D01*
X12427Y6686D02*
X12490Y6623D01*
X12427Y6686D02*
Y6814D01*
X12490Y6877D01*
X12364Y6623D02*
X12427Y6686D01*
X12236Y6623D02*
X12364D01*
X12173Y6686D02*
X12236Y6623D01*
X12173Y6686D02*
Y6814D01*
X12236Y6877D01*
X12364D01*
X12427Y6814D01*
X12681Y6686D02*
Y6814D01*
X12618Y6623D02*
X12681Y6686D01*
X12618Y6877D02*
X12681Y6814D01*
X12490Y6877D02*
X12618D01*
D71*
X1725Y1600D02*
Y1500D01*
X1775Y1550D02*
X1675D01*
M02*
