%FSLAX24Y24*%
%MOIN*%
G70*
G01*
G75*
G04 Layer_Color=8388736*
%ADD10O,0.0157X0.0906*%
%ADD11R,0.0157X0.0906*%
%ADD12R,0.0252X0.0850*%
%ADD13O,0.0252X0.0850*%
%ADD14R,0.2362X0.3150*%
%ADD15R,0.1083X0.0850*%
%ADD16R,0.0532X0.0472*%
%ADD17R,0.0532X0.0354*%
%ADD18O,0.0866X0.0236*%
%ADD19R,0.0480X0.0358*%
%ADD20R,0.0630X0.0709*%
%ADD21R,0.0709X0.0630*%
%ADD22O,0.0240X0.0800*%
%ADD23C,0.0394*%
%ADD24C,0.0157*%
%ADD25C,0.1969*%
%ADD26C,0.0787*%
%ADD27C,0.0591*%
%ADD28C,0.0236*%
%ADD29C,0.0252*%
%ADD30C,0.0100*%
%ADD31C,0.0276*%
%ADD32C,0.0315*%
%ADD33C,0.1181*%
%ADD34C,0.0709*%
%ADD35R,0.0409X0.2062*%
%ADD36R,0.0285X0.1791*%
%ADD37R,0.0440X0.1575*%
%ADD38R,0.0571X0.1575*%
%ADD39R,0.2325X0.0197*%
%ADD40R,0.1394X0.0989*%
%ADD41R,0.1334X0.0984*%
%ADD42R,0.2987X0.2760*%
%ADD43R,0.1394X0.1772*%
%ADD44R,0.1334X0.4921*%
%ADD45R,0.2866X0.5906*%
%ADD46R,0.2344X0.3937*%
%ADD47R,0.3733X1.1024*%
%ADD48R,0.1969X0.1181*%
%ADD49R,0.1846X0.1575*%
%ADD50R,0.0709X0.0709*%
%ADD51C,0.0709*%
%ADD52O,0.0236X0.0787*%
%ADD53R,0.0236X0.0787*%
%ADD54C,0.0433*%
%ADD55R,0.0433X0.0433*%
%ADD56R,0.0433X0.0433*%
%ADD57R,0.0787X0.0787*%
%ADD58C,0.0787*%
%ADD59C,0.0866*%
%ADD60R,0.0866X0.0866*%
%ADD61R,0.0866X0.0866*%
%ADD62C,0.1063*%
%ADD63C,0.0532*%
%ADD64C,0.0906*%
%ADD65R,0.0906X0.0906*%
%ADD66R,0.0709X0.0709*%
%ADD67C,0.0512*%
%ADD68R,0.0787X0.0787*%
%ADD69C,0.2756*%
%ADD70C,0.0591*%
%ADD71C,0.0984*%
%ADD72R,0.0984X0.0984*%
%ADD73C,0.0500*%
%ADD74C,0.0079*%
%ADD75C,0.0098*%
%ADD76C,0.0050*%
%ADD77C,0.0120*%
%ADD78C,0.0059*%
%ADD79R,0.0748X0.0315*%
%ADD80O,0.0237X0.0986*%
%ADD81R,0.0237X0.0986*%
%ADD82R,0.0332X0.0930*%
%ADD83O,0.0332X0.0930*%
%ADD84R,0.2442X0.3230*%
%ADD85R,0.1163X0.0930*%
%ADD86R,0.0612X0.0552*%
%ADD87R,0.0612X0.0434*%
%ADD88O,0.0946X0.0316*%
%ADD89R,0.0560X0.0438*%
%ADD90R,0.0710X0.0789*%
%ADD91R,0.0789X0.0710*%
%ADD92O,0.0320X0.0880*%
%ADD93R,0.0789X0.0789*%
%ADD94C,0.0789*%
%ADD95O,0.0316X0.0867*%
%ADD96R,0.0316X0.0867*%
%ADD97C,0.0513*%
%ADD98R,0.0513X0.0513*%
%ADD99R,0.0513X0.0513*%
%ADD100R,0.0867X0.0867*%
%ADD101C,0.0867*%
%ADD102C,0.0946*%
%ADD103R,0.0946X0.0946*%
%ADD104R,0.0946X0.0946*%
%ADD105C,0.1143*%
%ADD106C,0.0612*%
%ADD107C,0.0986*%
%ADD108R,0.0986X0.0986*%
%ADD109R,0.0789X0.0789*%
%ADD110C,0.0592*%
%ADD111R,0.0867X0.0867*%
%ADD112C,0.2836*%
%ADD113C,0.0671*%
%ADD114C,0.1064*%
%ADD115R,0.1064X0.1064*%
%ADD116C,0.0580*%
G54D80*
X192872Y62411D02*
D03*
X192622D02*
D03*
X192372D02*
D03*
X192122D02*
D03*
X191872D02*
D03*
X191622D02*
D03*
X191372D02*
D03*
X191122D02*
D03*
X190872D02*
D03*
X190622D02*
D03*
X190372D02*
D03*
X190122D02*
D03*
X192872Y60443D02*
D03*
X192622D02*
D03*
X192372D02*
D03*
X192122D02*
D03*
X191872D02*
D03*
X191622D02*
D03*
X191372D02*
D03*
X191122D02*
D03*
X190872D02*
D03*
X190622D02*
D03*
X190372D02*
D03*
X200272Y62411D02*
D03*
X200022D02*
D03*
X199772D02*
D03*
X199522D02*
D03*
X199272D02*
D03*
X199022D02*
D03*
X198772D02*
D03*
X198522D02*
D03*
X198272D02*
D03*
X198022D02*
D03*
X197772D02*
D03*
X197522D02*
D03*
X200272Y60443D02*
D03*
X200022D02*
D03*
X199772D02*
D03*
X199522D02*
D03*
X199272D02*
D03*
X199022D02*
D03*
X198772D02*
D03*
X198522D02*
D03*
X198272D02*
D03*
X198022D02*
D03*
X197772D02*
D03*
G54D81*
X190122D02*
D03*
X197522D02*
D03*
G54D82*
X205203Y69270D02*
D03*
X218603D02*
D03*
G54D83*
X205703D02*
D03*
X206203D02*
D03*
X206703D02*
D03*
X207203D02*
D03*
X207703D02*
D03*
X208203D02*
D03*
X208703D02*
D03*
X205203Y72998D02*
D03*
X205703D02*
D03*
X206203D02*
D03*
X206703D02*
D03*
X207203D02*
D03*
X207703D02*
D03*
X208203D02*
D03*
X208703D02*
D03*
X219103Y69270D02*
D03*
X219603D02*
D03*
X220103D02*
D03*
X220603D02*
D03*
X221103D02*
D03*
X221603D02*
D03*
X222103D02*
D03*
X218603Y72998D02*
D03*
X219103D02*
D03*
X219603D02*
D03*
X220103D02*
D03*
X220603D02*
D03*
X221103D02*
D03*
X221603D02*
D03*
X222103D02*
D03*
G54D84*
X212059Y55906D02*
D03*
X207679D02*
D03*
X223474D02*
D03*
X219094D02*
D03*
G54D85*
X176766Y113173D02*
D03*
Y111441D02*
D03*
Y117223D02*
D03*
Y115491D02*
D03*
X173516Y113173D02*
D03*
Y111441D02*
D03*
Y115541D02*
D03*
Y117273D02*
D03*
X176766Y121623D02*
D03*
Y119891D02*
D03*
Y125573D02*
D03*
Y123841D02*
D03*
X173516Y121573D02*
D03*
Y119841D02*
D03*
Y123791D02*
D03*
Y125523D02*
D03*
G54D86*
X211100Y61299D02*
D03*
X225065D02*
D03*
G54D87*
X210234Y61240D02*
D03*
Y61988D02*
D03*
X211100D02*
D03*
X224199Y61240D02*
D03*
Y61988D02*
D03*
X225065D02*
D03*
G54D88*
X194211Y81787D02*
D03*
Y82287D02*
D03*
Y82787D02*
D03*
Y83287D02*
D03*
X192321Y81787D02*
D03*
Y82287D02*
D03*
Y82787D02*
D03*
Y83287D02*
D03*
X214577Y81787D02*
D03*
Y82287D02*
D03*
Y82787D02*
D03*
Y83287D02*
D03*
X212687Y81787D02*
D03*
Y82287D02*
D03*
Y82787D02*
D03*
Y83287D02*
D03*
G54D89*
X190157Y89876D02*
D03*
X190154Y88589D02*
D03*
X196670Y89876D02*
D03*
X196666Y88589D02*
D03*
X210240Y89819D02*
D03*
X210236Y88532D02*
D03*
X216732Y89819D02*
D03*
X216728Y88532D02*
D03*
G54D90*
X202441Y101378D02*
D03*
X203543D02*
D03*
X195078Y101360D02*
D03*
X196180D02*
D03*
X165827Y102165D02*
D03*
X166929D02*
D03*
X193819Y118701D02*
D03*
X192717D02*
D03*
X203779Y123841D02*
D03*
X202677D02*
D03*
X205842Y118898D02*
D03*
X206945D02*
D03*
X189270Y64764D02*
D03*
X190372D02*
D03*
X192725Y88640D02*
D03*
X191622D02*
D03*
X193975Y64764D02*
D03*
X192872D02*
D03*
X196670D02*
D03*
X197772D02*
D03*
X192636Y84430D02*
D03*
X193738D02*
D03*
X199331Y88640D02*
D03*
X198228D02*
D03*
X201436Y64764D02*
D03*
X200333D02*
D03*
X213108Y84430D02*
D03*
X214210D02*
D03*
X212913Y88640D02*
D03*
X211811D02*
D03*
X208386Y64004D02*
D03*
X207283D02*
D03*
X205785Y66786D02*
D03*
X204682D02*
D03*
X205785Y74645D02*
D03*
X204682D02*
D03*
X207756D02*
D03*
X208858D02*
D03*
X208386Y66786D02*
D03*
X207283D02*
D03*
X219409Y88616D02*
D03*
X218307D02*
D03*
X222335Y64004D02*
D03*
X221232D02*
D03*
X219689Y66786D02*
D03*
X218587D02*
D03*
X219213Y74645D02*
D03*
X218110D02*
D03*
X221080D02*
D03*
X222182D02*
D03*
X222335Y66786D02*
D03*
X221232D02*
D03*
X200262Y66535D02*
D03*
X201365D02*
D03*
X206945Y120669D02*
D03*
X205842D02*
D03*
X205842Y122441D02*
D03*
X206945D02*
D03*
X188701Y88640D02*
D03*
X187598D02*
D03*
X195106D02*
D03*
X194004D02*
D03*
X207283Y61220D02*
D03*
X208386D02*
D03*
X204682Y61221D02*
D03*
X205785D02*
D03*
Y64004D02*
D03*
X204682D02*
D03*
X208805Y88640D02*
D03*
X207703D02*
D03*
X221230Y61221D02*
D03*
X222332D02*
D03*
X218587D02*
D03*
X219689D02*
D03*
X219689Y64004D02*
D03*
X218587D02*
D03*
X215313Y88616D02*
D03*
X214210D02*
D03*
X231996Y123822D02*
D03*
X230894D02*
D03*
X195078Y95313D02*
D03*
X196180D02*
D03*
X202441D02*
D03*
X203543D02*
D03*
X179606Y97638D02*
D03*
X180709D02*
D03*
X217047Y101213D02*
D03*
X215945D02*
D03*
X194016Y95313D02*
D03*
X192913D02*
D03*
X201299D02*
D03*
X200197D02*
D03*
G54D91*
X163386Y67244D02*
D03*
Y66142D02*
D03*
X174803Y86980D02*
D03*
Y88083D02*
D03*
X167913Y92244D02*
D03*
Y91142D02*
D03*
X208642Y113331D02*
D03*
Y112229D02*
D03*
X215412Y113331D02*
D03*
Y112229D02*
D03*
X217292Y115687D02*
D03*
Y116790D02*
D03*
X219094Y113331D02*
D03*
Y112229D02*
D03*
X170216Y117359D02*
D03*
Y116257D02*
D03*
Y113504D02*
D03*
Y112402D02*
D03*
Y125659D02*
D03*
Y124557D02*
D03*
Y121559D02*
D03*
Y120457D02*
D03*
X168740Y105630D02*
D03*
Y104528D02*
D03*
X165827Y83328D02*
D03*
Y84430D02*
D03*
X165945Y96575D02*
D03*
Y95472D02*
D03*
X200093Y117757D02*
D03*
Y118860D02*
D03*
X199861Y125193D02*
D03*
Y124091D02*
D03*
X217292Y113331D02*
D03*
Y112229D02*
D03*
X220866Y106843D02*
D03*
Y105740D02*
D03*
X212008Y106862D02*
D03*
Y105760D02*
D03*
X203346Y106862D02*
D03*
Y105760D02*
D03*
G54D92*
X202756Y122638D02*
D03*
X203256D02*
D03*
X203756D02*
D03*
X204256D02*
D03*
Y120438D02*
D03*
X203756D02*
D03*
X203256D02*
D03*
X202756D02*
D03*
G54D93*
X189961Y74213D02*
D03*
X193819Y121968D02*
D03*
X194004Y74213D02*
D03*
X200984Y112069D02*
D03*
X223310Y115982D02*
D03*
X213205Y116142D02*
D03*
X211192Y112485D02*
D03*
X221310Y112288D02*
D03*
X169860Y93143D02*
D03*
G54D94*
X190961Y74213D02*
D03*
X191961D02*
D03*
X167116Y115981D02*
D03*
X192441Y121968D02*
D03*
X167116Y126988D02*
D03*
X229528Y93567D02*
D03*
Y92567D02*
D03*
Y91567D02*
D03*
Y90567D02*
D03*
Y99819D02*
D03*
Y100819D02*
D03*
X195004Y74213D02*
D03*
X196004D02*
D03*
X212192Y74586D02*
D03*
Y75586D02*
D03*
X215157Y74586D02*
D03*
Y73586D02*
D03*
X201984Y112069D02*
D03*
X202984D02*
D03*
X171351Y83087D02*
D03*
Y84087D02*
D03*
X221310Y115982D02*
D03*
X222310D02*
D03*
X211205Y116142D02*
D03*
X212205D02*
D03*
X213192Y112485D02*
D03*
X212192D02*
D03*
X223310Y112288D02*
D03*
X222310D02*
D03*
X163239Y117142D02*
D03*
Y116142D02*
D03*
X163239Y125440D02*
D03*
Y124440D02*
D03*
X169860Y92143D02*
D03*
Y91143D02*
D03*
Y90143D02*
D03*
Y89143D02*
D03*
Y88143D02*
D03*
Y87143D02*
D03*
X172860Y93143D02*
D03*
Y92143D02*
D03*
Y91143D02*
D03*
Y90143D02*
D03*
Y89143D02*
D03*
Y88143D02*
D03*
Y87143D02*
D03*
X192905Y112069D02*
D03*
X191905D02*
D03*
X190905D02*
D03*
X197244Y116732D02*
D03*
Y115732D02*
D03*
Y124213D02*
D03*
Y123213D02*
D03*
X159202Y100859D02*
D03*
Y110739D02*
D03*
X160973D02*
D03*
Y100859D02*
D03*
G54D95*
X192412Y110039D02*
D03*
X192912D02*
D03*
G54D96*
X193412D02*
D03*
G54D97*
X221932Y99990D02*
D03*
X220932D02*
D03*
X219932D02*
D03*
X218932D02*
D03*
X217932D02*
D03*
X216932D02*
D03*
X215932D02*
D03*
X221932Y96850D02*
D03*
X220932D02*
D03*
X219932D02*
D03*
X218932D02*
D03*
X217932D02*
D03*
X216932D02*
D03*
X182177Y98295D02*
D03*
Y97295D02*
D03*
Y96295D02*
D03*
Y95295D02*
D03*
X185583Y98295D02*
D03*
Y97295D02*
D03*
Y96295D02*
D03*
X164606Y104528D02*
D03*
X167067Y111174D02*
D03*
X167067Y120359D02*
D03*
X167829Y83248D02*
D03*
Y96673D02*
D03*
X201365Y116074D02*
D03*
X201281Y126886D02*
D03*
X193101Y97197D02*
D03*
X194101D02*
D03*
X195101D02*
D03*
X196101D02*
D03*
X193101Y100268D02*
D03*
X194101D02*
D03*
X195101D02*
D03*
X202423Y100150D02*
D03*
X201423D02*
D03*
X200423D02*
D03*
X203423Y97079D02*
D03*
X202423D02*
D03*
X201423D02*
D03*
X200423D02*
D03*
G54D98*
X215932Y96850D02*
D03*
X167067Y113458D02*
D03*
X167067Y122642D02*
D03*
X167829Y86043D02*
D03*
Y93878D02*
D03*
X201365Y118869D02*
D03*
X201281Y124091D02*
D03*
X196101Y100268D02*
D03*
X203423Y100150D02*
D03*
G54D99*
X185583Y95295D02*
D03*
X166890Y104528D02*
D03*
G54D100*
X189764Y117707D02*
D03*
X202472Y74586D02*
D03*
X224732Y74586D02*
D03*
X228027Y120257D02*
D03*
X201575Y106850D02*
D03*
X210483Y106850D02*
D03*
X219255Y106850D02*
D03*
X228027D02*
D03*
X165748Y106850D02*
D03*
X176766D02*
D03*
X192938Y106850D02*
D03*
X228027Y113554D02*
D03*
X228111Y68701D02*
D03*
X228064Y96457D02*
D03*
X227953Y74586D02*
D03*
Y79991D02*
D03*
X228064Y85396D02*
D03*
X187598Y74586D02*
D03*
X197760Y74586D02*
D03*
G54D101*
X189764Y120707D02*
D03*
Y121707D02*
D03*
Y124707D02*
D03*
X181884Y116467D02*
D03*
X180124Y119177D02*
D03*
Y122627D02*
D03*
X181884Y124997D02*
D03*
G54D102*
X232026Y121500D02*
D03*
X195872Y55699D02*
D03*
G54D103*
X232016Y119520D02*
D03*
G54D104*
X193892Y55709D02*
D03*
G54D105*
X171407Y105740D02*
D03*
Y97940D02*
D03*
G54D106*
X199166Y112069D02*
D03*
X195166D02*
D03*
X187666Y87235D02*
D03*
Y83235D02*
D03*
X185630D02*
D03*
Y87235D02*
D03*
X185616Y81790D02*
D03*
Y77790D02*
D03*
X187716D02*
D03*
Y81790D02*
D03*
X199916Y87235D02*
D03*
Y83235D02*
D03*
X202016D02*
D03*
Y87235D02*
D03*
Y81790D02*
D03*
Y77790D02*
D03*
X199916D02*
D03*
Y81790D02*
D03*
X207679Y87235D02*
D03*
Y83235D02*
D03*
X205529D02*
D03*
Y87235D02*
D03*
X205529Y81790D02*
D03*
Y77790D02*
D03*
X212683Y68313D02*
D03*
Y64313D02*
D03*
X207679Y77790D02*
D03*
Y81790D02*
D03*
X210583Y64363D02*
D03*
Y68363D02*
D03*
X220182Y87235D02*
D03*
Y83235D02*
D03*
X222382D02*
D03*
Y87235D02*
D03*
X214764Y68339D02*
D03*
Y64339D02*
D03*
X222332Y81790D02*
D03*
Y77790D02*
D03*
X216728Y64339D02*
D03*
Y68339D02*
D03*
X220132Y77790D02*
D03*
Y81790D02*
D03*
X222638Y106799D02*
D03*
Y105799D02*
D03*
X213780Y106799D02*
D03*
Y105799D02*
D03*
X205118Y106799D02*
D03*
Y105799D02*
D03*
X231799Y125228D02*
D03*
X230799D02*
D03*
G54D107*
X163160Y89134D02*
D03*
Y86988D02*
D03*
X163239Y100965D02*
D03*
Y98819D02*
D03*
G54D108*
X163160Y84843D02*
D03*
X163239Y96673D02*
D03*
G54D109*
X167116Y117359D02*
D03*
X167116Y125610D02*
D03*
X229528Y89567D02*
D03*
Y98819D02*
D03*
X212192Y73586D02*
D03*
X215157Y75586D02*
D03*
X171351Y82087D02*
D03*
X163239Y115142D02*
D03*
X163239Y123440D02*
D03*
X197244Y117732D02*
D03*
Y125213D02*
D03*
G54D110*
X167913Y88083D02*
D03*
Y89083D02*
D03*
X189961Y83214D02*
D03*
Y84214D02*
D03*
Y81799D02*
D03*
Y80799D02*
D03*
X196670Y83214D02*
D03*
Y84214D02*
D03*
Y81799D02*
D03*
Y80799D02*
D03*
X210236Y83268D02*
D03*
Y84268D02*
D03*
X210240Y81853D02*
D03*
Y80853D02*
D03*
X217453Y83268D02*
D03*
Y84268D02*
D03*
Y81853D02*
D03*
Y80853D02*
D03*
X194004Y66535D02*
D03*
X193004D02*
D03*
G54D111*
X178150Y89173D02*
D03*
Y91929D02*
D03*
X190354Y96260D02*
D03*
Y98295D02*
D03*
G54D112*
X160236Y53937D02*
D03*
Y127331D02*
D03*
X233661Y127362D02*
D03*
Y53937D02*
D03*
G54D113*
X212992Y70276D02*
D03*
X199000Y69089D02*
D03*
X196850Y69094D02*
D03*
X195866D02*
D03*
X194832D02*
D03*
X193004D02*
D03*
X191339D02*
D03*
X190400D02*
D03*
X189270D02*
D03*
X179559Y88083D02*
D03*
X179606Y98917D02*
D03*
X209646Y74645D02*
D03*
Y72441D02*
D03*
X196670Y65730D02*
D03*
X189270Y65748D02*
D03*
X223004Y74645D02*
D03*
X219103Y75394D02*
D03*
X229528Y87235D02*
D03*
X212913Y87205D02*
D03*
X192717Y87235D02*
D03*
X217882Y101181D02*
D03*
X208203Y114370D02*
D03*
X204802Y119094D02*
D03*
X202756D02*
D03*
X204802Y122642D02*
D03*
X202677Y124803D02*
D03*
X202423Y96063D02*
D03*
X195078Y96127D02*
D03*
X219094Y70180D02*
D03*
X205709Y70276D02*
D03*
X188701Y89876D02*
D03*
X195197D02*
D03*
X208726Y89819D02*
D03*
X215234Y89819D02*
D03*
X204134Y72027D02*
D03*
X223425D02*
D03*
X190372Y65730D02*
D03*
X197760D02*
D03*
X193738Y85396D02*
D03*
X214173D02*
D03*
X223819Y94094D02*
D03*
X226575D02*
D03*
X221080Y75765D02*
D03*
X207679Y76575D02*
D03*
X221232Y65579D02*
D03*
X207286Y65551D02*
D03*
X222441Y58661D02*
D03*
X225984Y61299D02*
D03*
X224213Y62992D02*
D03*
X212700Y61417D02*
D03*
X215551Y54134D02*
D03*
X209252Y62110D02*
D03*
G54D114*
X169291Y75000D02*
D03*
X179724Y63661D02*
D03*
Y75000D02*
D03*
X169291Y63661D02*
D03*
X212642Y121513D02*
D03*
X220942D02*
D03*
G54D115*
X169291Y70000D02*
D03*
X179724Y58661D02*
D03*
Y70000D02*
D03*
X169291Y58661D02*
D03*
X212642Y124513D02*
D03*
X220942D02*
D03*
G54D116*
X215354Y117707D02*
D03*
M02*
