%FSLAX24Y24*%
%MOIN*%
G70*
G01*
G75*
G04 Layer_Physical_Order=1*
G04 Layer_Color=255*
%ADD10O,0.0157X0.0906*%
%ADD11R,0.0157X0.0906*%
%ADD12R,0.0252X0.0850*%
%ADD13O,0.0252X0.0850*%
%ADD14R,0.2362X0.3150*%
%ADD15R,0.1083X0.0850*%
%ADD16R,0.0532X0.0472*%
%ADD17R,0.0532X0.0354*%
%ADD18O,0.0866X0.0236*%
%ADD19R,0.0480X0.0358*%
%ADD20R,0.0630X0.0709*%
%ADD21R,0.0709X0.0630*%
%ADD22O,0.0240X0.0800*%
%ADD23C,0.0394*%
%ADD24C,0.0157*%
%ADD25C,0.1969*%
%ADD26C,0.0787*%
%ADD27C,0.0591*%
%ADD28C,0.0236*%
%ADD29C,0.0252*%
%ADD30C,0.0100*%
%ADD31C,0.0276*%
%ADD32C,0.0315*%
%ADD33C,0.1181*%
%ADD34C,0.0709*%
%ADD35R,0.0409X0.2062*%
%ADD36R,0.0285X0.1791*%
%ADD37R,0.0440X0.1575*%
%ADD38R,0.0571X0.1575*%
%ADD39R,0.2325X0.0197*%
%ADD40R,0.1394X0.0989*%
%ADD41R,0.1334X0.0984*%
%ADD42R,0.2987X0.2760*%
%ADD43R,0.1394X0.1772*%
%ADD44R,0.1334X0.4921*%
%ADD45R,0.2866X0.5906*%
%ADD46R,0.2344X0.3937*%
%ADD47R,0.3733X1.1024*%
%ADD48R,0.1969X0.1181*%
%ADD49R,0.1846X0.1575*%
%ADD50R,0.0709X0.0709*%
%ADD51C,0.0709*%
%ADD52O,0.0236X0.0787*%
%ADD53R,0.0236X0.0787*%
%ADD54C,0.0433*%
%ADD55R,0.0433X0.0433*%
%ADD56R,0.0433X0.0433*%
%ADD57R,0.0787X0.0787*%
%ADD58C,0.0787*%
%ADD59C,0.0866*%
%ADD60R,0.0866X0.0866*%
%ADD61R,0.0866X0.0866*%
%ADD62C,0.1063*%
%ADD63C,0.0532*%
%ADD64C,0.0906*%
%ADD65R,0.0906X0.0906*%
%ADD66R,0.0709X0.0709*%
%ADD67C,0.0512*%
%ADD68R,0.0787X0.0787*%
%ADD69C,0.2756*%
%ADD70C,0.0591*%
%ADD71C,0.0984*%
%ADD72R,0.0984X0.0984*%
%ADD73C,0.0500*%
G36*
X180897Y88915D02*
X180906Y88908D01*
Y78740D01*
X186024Y73622D01*
Y63189D01*
X186024D01*
X187795Y61417D01*
X187845Y61368D01*
X187830Y61053D01*
X187686Y60936D01*
X186744Y59994D01*
X186735Y59990D01*
X186653Y59926D01*
X186590Y59844D01*
X186586Y59835D01*
X186401Y59650D01*
X164173D01*
X164078Y59737D01*
Y65433D01*
X164134D01*
Y66850D01*
X162638D01*
Y65433D01*
X162694D01*
Y59055D01*
X162707Y58920D01*
X162737Y58820D01*
X162746Y58790D01*
X162810Y58670D01*
X162896Y58566D01*
X163290Y58172D01*
X163341Y58130D01*
X163351Y58112D01*
X163474Y57962D01*
X163624Y57839D01*
X163795Y57748D01*
X163980Y57691D01*
X164173Y57672D01*
X186811D01*
X186811Y57672D01*
X186887Y57680D01*
X186933Y57674D01*
X188353D01*
X188386Y57670D01*
X191225D01*
Y54921D01*
X191239Y54818D01*
X191279Y54723D01*
X191342Y54640D01*
X191424Y54577D01*
X191520Y54538D01*
X191622Y54524D01*
X194488D01*
X194591Y54538D01*
X194687Y54577D01*
X194769Y54640D01*
X194832Y54723D01*
X194872Y54818D01*
X194885Y54921D01*
Y60827D01*
X194872Y60930D01*
X194832Y61025D01*
X194769Y61108D01*
X194687Y61171D01*
X194591Y61210D01*
X194488Y61224D01*
X194564Y61299D01*
X196961D01*
X196994Y61219D01*
X197050Y61146D01*
Y60874D01*
X197044Y60827D01*
Y59843D01*
Y54921D01*
X197057Y54818D01*
X197097Y54723D01*
X197160Y54640D01*
X197242Y54577D01*
X197338Y54538D01*
X197441Y54524D01*
X198761D01*
X198772Y54523D01*
X206104D01*
Y53937D01*
D01*
Y53937D01*
X205911Y53744D01*
X166714D01*
X160831Y59628D01*
Y87752D01*
X162323D01*
X162458Y87467D01*
X162453Y87461D01*
X162374Y87314D01*
X162326Y87154D01*
X162309Y86988D01*
X162326Y86822D01*
X162374Y86663D01*
X162453Y86516D01*
X162558Y86387D01*
X162687Y86281D01*
X162834Y86202D01*
X162994Y86154D01*
X163160Y86138D01*
X163326Y86154D01*
X163485Y86202D01*
X163632Y86281D01*
X163761Y86387D01*
X163867Y86516D01*
X163946Y86663D01*
X163994Y86822D01*
X164010Y86988D01*
X163994Y87154D01*
X163946Y87314D01*
X163867Y87461D01*
X163761Y87590D01*
X163632Y87695D01*
X163485Y87774D01*
X163486Y87795D01*
X163587Y87819D01*
X163787Y87902D01*
X163972Y88016D01*
X164137Y88156D01*
X164278Y88321D01*
X164320Y88390D01*
X166679D01*
X167200Y88232D01*
X167268Y88157D01*
X167261Y88083D01*
X167273Y87955D01*
X167310Y87833D01*
X167371Y87720D01*
X167452Y87621D01*
X167551Y87540D01*
X167664Y87480D01*
X167786Y87442D01*
X167913Y87430D01*
X168041Y87442D01*
X168068Y87451D01*
X168577D01*
X168972Y87331D01*
X169075Y87217D01*
X169067Y87143D01*
Y86919D01*
X168983Y86835D01*
X166358D01*
X166204Y86819D01*
X166055Y86774D01*
X165919Y86701D01*
X165799Y86603D01*
X165267Y86071D01*
X165169Y85951D01*
X165096Y85815D01*
X165051Y85666D01*
X165036Y85512D01*
Y84646D01*
X165051Y84491D01*
X165079Y84399D01*
Y83907D01*
X164525D01*
X164006Y84426D01*
Y85689D01*
X162313D01*
Y83996D01*
X162537D01*
X162584Y83909D01*
X162670Y83804D01*
X163749Y82725D01*
X163854Y82639D01*
X163918Y82605D01*
X163974Y82575D01*
X164104Y82535D01*
X164239Y82522D01*
X165945D01*
X165977Y82525D01*
X166010Y82522D01*
X167913D01*
X168048Y82535D01*
X168178Y82575D01*
X168298Y82639D01*
X168403Y82725D01*
X168489Y82830D01*
X168553Y82949D01*
X168592Y83079D01*
X168606Y83214D01*
X168592Y83349D01*
X168553Y83479D01*
X168489Y83599D01*
X168403Y83704D01*
X168298Y83790D01*
X168178Y83854D01*
X168048Y83893D01*
X167913Y83907D01*
X166575D01*
Y84399D01*
X166603Y84491D01*
X166618Y84646D01*
Y85184D01*
X166686Y85252D01*
X169311D01*
X169465Y85267D01*
X169614Y85312D01*
X169751Y85385D01*
X169870Y85484D01*
X170418Y86031D01*
X170517Y86151D01*
X170590Y86288D01*
X170635Y86437D01*
X170650Y86591D01*
Y87143D01*
X170635Y87297D01*
X170590Y87446D01*
X170593Y87451D01*
X171017D01*
X171152Y87464D01*
X171252Y87494D01*
X171282Y87503D01*
X171402Y87567D01*
X171506Y87653D01*
X171842Y87989D01*
X172148Y87913D01*
X172165Y87855D01*
X172235Y87725D01*
X172328Y87611D01*
X172442Y87518D01*
X172572Y87448D01*
X172713Y87406D01*
X172860Y87391D01*
X173006Y87406D01*
X173147Y87448D01*
X173277Y87518D01*
X173316Y87550D01*
X174055D01*
Y87374D01*
X175551D01*
Y87489D01*
X179207D01*
X179294Y87443D01*
X179424Y87404D01*
X179559Y87390D01*
X179694Y87404D01*
X179824Y87443D01*
X179943Y87507D01*
X180048Y87593D01*
X180134Y87698D01*
X180198Y87818D01*
X180238Y87948D01*
X180251Y88083D01*
X180238Y88218D01*
X180198Y88348D01*
X180134Y88467D01*
X180090Y88521D01*
X180166Y88583D01*
X180615Y89032D01*
X180897Y88915D01*
D02*
G37*
G36*
X206728Y70609D02*
X206854Y70557D01*
X206990Y70539D01*
X207049Y70547D01*
X207140Y70428D01*
X207114Y70272D01*
X207082Y70114D01*
X206953Y70028D01*
X206838Y70076D01*
X206703Y70093D01*
X206567Y70076D01*
X206453Y70028D01*
X206338Y70076D01*
X206203Y70093D01*
X206067Y70076D01*
X205941Y70023D01*
X205751Y70050D01*
X205722Y70089D01*
Y70089D01*
X204683D01*
Y69304D01*
X204678Y69270D01*
Y69036D01*
X203173Y67530D01*
X203089Y67422D01*
X203065Y67362D01*
X202984Y67378D01*
X202756Y67473D01*
Y70669D01*
X206649D01*
X206728Y70609D01*
D02*
G37*
G36*
X213231Y70639D02*
X213286Y70536D01*
X213360Y70447D01*
X213450Y70373D01*
X213552Y70318D01*
X213664Y70284D01*
X213780Y70273D01*
X218083D01*
Y70089D01*
X218083D01*
Y69304D01*
X218078Y69270D01*
Y68690D01*
X217923Y68534D01*
X217514Y68494D01*
X217503Y68496D01*
X217459Y68641D01*
X217386Y68778D01*
X217288Y68898D01*
X217168Y68996D01*
X217031Y69070D01*
X216883Y69115D01*
X216728Y69130D01*
X214764D01*
X214609Y69115D01*
X214461Y69070D01*
X214324Y68996D01*
X214204Y68898D01*
X214106Y68778D01*
X214033Y68641D01*
X213988Y68493D01*
X213973Y68339D01*
X213988Y68184D01*
X214033Y68036D01*
X214106Y67899D01*
X214204Y67779D01*
X214324Y67681D01*
X214461Y67608D01*
X214609Y67563D01*
X214764Y67547D01*
X216728D01*
X216762Y67551D01*
X216996Y67339D01*
Y66379D01*
X214764D01*
X214648Y66367D01*
X214537Y66333D01*
X214434Y66279D01*
X214344Y66205D01*
X214270Y66115D01*
X214216Y66012D01*
X214182Y65901D01*
X214170Y65785D01*
Y64627D01*
X214152Y64592D01*
X214114Y64468D01*
X214101Y64339D01*
X214114Y64209D01*
X214152Y64085D01*
X214213Y63970D01*
X214295Y63870D01*
X214396Y63788D01*
X214510Y63726D01*
X214634Y63689D01*
X214764Y63676D01*
X214893Y63689D01*
X215017Y63726D01*
X215132Y63788D01*
X215232Y63870D01*
X215315Y63970D01*
X215376Y64085D01*
X215414Y64209D01*
X215426Y64339D01*
X215414Y64468D01*
X215376Y64592D01*
X215357Y64627D01*
Y65192D01*
X217319D01*
X217404Y65166D01*
X217520Y65155D01*
X218247D01*
X218422Y64893D01*
X218364Y64752D01*
X217878D01*
Y63256D01*
X217993D01*
Y61969D01*
X217878D01*
Y60831D01*
X213521D01*
X213428Y60907D01*
X213312Y61101D01*
X213339Y61152D01*
X213379Y61282D01*
X213392Y61417D01*
X213379Y61552D01*
X213339Y61682D01*
X213275Y61802D01*
X213189Y61907D01*
X213084Y61993D01*
X212965Y62057D01*
X212835Y62096D01*
X212700Y62110D01*
X212565Y62096D01*
X212435Y62057D01*
X212315Y61993D01*
X212210Y61907D01*
X212199Y61893D01*
X211760D01*
Y61929D01*
X210893D01*
Y62399D01*
X212402D01*
X212517Y62410D01*
X212629Y62444D01*
X212731Y62499D01*
X212821Y62573D01*
X213103Y62854D01*
X213177Y62944D01*
X213232Y63047D01*
X213265Y63158D01*
X213277Y63274D01*
X213277Y63274D01*
Y64024D01*
X213296Y64060D01*
X213333Y64184D01*
X213346Y64313D01*
X213333Y64442D01*
X213296Y64567D01*
X213234Y64681D01*
X213152Y64782D01*
X213051Y64864D01*
X212937Y64925D01*
X212813Y64963D01*
X212683Y64976D01*
X212554Y64963D01*
X212430Y64925D01*
X212315Y64864D01*
X212215Y64782D01*
X212132Y64681D01*
X212071Y64567D01*
X212033Y64442D01*
X212021Y64313D01*
X212033Y64184D01*
X212071Y64060D01*
X212090Y64024D01*
Y63586D01*
X207992D01*
Y64752D01*
X207865D01*
X207759Y65048D01*
X207775Y65062D01*
X207861Y65167D01*
X207925Y65286D01*
X207965Y65416D01*
X207978Y65551D01*
X207965Y65686D01*
X207925Y65816D01*
X207879Y65903D01*
Y66038D01*
X207992D01*
Y67534D01*
X207992D01*
Y67628D01*
X208147Y67783D01*
X208214Y67792D01*
X208282Y67801D01*
X208335Y67822D01*
X208409Y67853D01*
X208517Y67936D01*
X208517Y67936D01*
X208517Y67936D01*
X208573Y67993D01*
X208620Y68054D01*
X208657Y68101D01*
X208709Y68227D01*
X208727Y68363D01*
Y69270D01*
Y69569D01*
X208709Y69705D01*
X208774Y69802D01*
X211370D01*
X211429Y69770D01*
X211541Y69736D01*
X211656Y69724D01*
X211772Y69736D01*
X211884Y69770D01*
X211986Y69825D01*
X212076Y69898D01*
X212624Y70447D01*
X212698Y70536D01*
X212753Y70639D01*
X212762Y70669D01*
X213222D01*
X213231Y70639D01*
D02*
G37*
G36*
X181386Y99456D02*
Y98425D01*
X181350Y98386D01*
X180000D01*
Y96890D01*
X180000D01*
X180000Y96670D01*
X179559Y96229D01*
X179460Y96109D01*
X179387Y95972D01*
X179342Y95824D01*
X179327Y95669D01*
Y89982D01*
X179279Y89934D01*
X178937D01*
Y89961D01*
X177362D01*
Y89934D01*
X175731D01*
X173612Y90143D01*
X173597Y90290D01*
X173643Y90352D01*
X177560D01*
X177715Y90367D01*
X177863Y90412D01*
X178000Y90485D01*
X178120Y90583D01*
X178678Y91142D01*
X178937D01*
Y91694D01*
X178941Y91732D01*
Y99560D01*
X181282D01*
X181386Y99456D01*
D02*
G37*
G36*
X199406Y94488D02*
X199421Y94334D01*
X199466Y94185D01*
X199486Y94148D01*
X199324Y93878D01*
X196997D01*
X196863Y94163D01*
X196873Y94176D01*
X196918Y94230D01*
X196991Y94367D01*
X197036Y94515D01*
X197037Y94522D01*
X199406D01*
Y94488D01*
D02*
G37*
G36*
X182870Y95604D02*
Y94023D01*
X182739Y93878D01*
X181122D01*
X181102Y93898D01*
X181102Y93898D01*
X181102Y93898D01*
X180909Y93978D01*
Y95342D01*
X181171Y95603D01*
X182177D01*
X182312Y95616D01*
X182442Y95656D01*
X182562Y95720D01*
X182585Y95739D01*
X182870Y95604D01*
D02*
G37*
G36*
X165197Y95866D02*
Y95522D01*
X165169Y95430D01*
X165154Y95276D01*
Y94291D01*
X165169Y94137D01*
X165214Y93989D01*
X165287Y93852D01*
X165385Y93732D01*
X165799Y93318D01*
X165919Y93220D01*
X166055Y93147D01*
X166204Y93102D01*
X166358Y93087D01*
X169074D01*
X169084Y92989D01*
X169112Y92896D01*
Y92395D01*
X169613D01*
X169705Y92367D01*
X169860Y92352D01*
X170014Y92367D01*
X170106Y92395D01*
X170608D01*
D01*
X170608D01*
X170714Y92288D01*
Y91748D01*
X170418Y91642D01*
X170391Y91674D01*
X170277Y91768D01*
X170147Y91837D01*
X170006Y91880D01*
X169860Y91895D01*
X169713Y91880D01*
X169572Y91837D01*
X169442Y91768D01*
X169402Y91735D01*
X168661D01*
Y91850D01*
X167165D01*
Y90433D01*
X168661D01*
Y90548D01*
X169405D01*
X169442Y90518D01*
X169572Y90448D01*
X169713Y90406D01*
X169860Y90391D01*
X170006Y90406D01*
X170147Y90448D01*
X170277Y90518D01*
X170391Y90611D01*
X170418Y90644D01*
X170714Y90538D01*
Y89748D01*
X170418Y89642D01*
X170391Y89674D01*
X170277Y89768D01*
X170147Y89837D01*
X170006Y89880D01*
X169860Y89895D01*
X169713Y89880D01*
X169572Y89837D01*
X169568Y89835D01*
X167974D01*
X167839Y89822D01*
X167709Y89783D01*
X167695Y89775D01*
X164383D01*
X164278Y89946D01*
X164137Y90111D01*
X163972Y90252D01*
X163787Y90365D01*
X163587Y90448D01*
X163376Y90499D01*
X163160Y90516D01*
X162602D01*
Y95827D01*
X164085D01*
Y95882D01*
X165197D01*
Y95866D01*
D02*
G37*
G36*
X232722Y55440D02*
X232581Y55346D01*
X232406Y55192D01*
X232253Y55018D01*
X232124Y54825D01*
X232021Y54616D01*
X231946Y54397D01*
X231901Y54169D01*
X231886Y53937D01*
X231901Y53705D01*
X231946Y53477D01*
X232021Y53258D01*
X232124Y53049D01*
X232253Y52856D01*
X232406Y52682D01*
X232581Y52528D01*
X232774Y52399D01*
X232982Y52297D01*
X233202Y52222D01*
X233430Y52177D01*
X233661Y52162D01*
X233893Y52177D01*
X234121Y52222D01*
X234341Y52297D01*
X234549Y52399D01*
X234742Y52528D01*
X234917Y52682D01*
X235070Y52856D01*
X235199Y53049D01*
X235302Y53258D01*
X235376Y53477D01*
X235422Y53705D01*
X235437Y53937D01*
X235422Y54169D01*
X235376Y54397D01*
X235302Y54616D01*
X235199Y54825D01*
X235070Y55018D01*
X234917Y55192D01*
X234742Y55346D01*
X234549Y55475D01*
X234417Y55540D01*
Y56396D01*
X235992D01*
Y56396D01*
X235998D01*
X236220Y56173D01*
Y51181D01*
X213238D01*
X213106Y51467D01*
X213177Y51550D01*
X213290Y51735D01*
X213373Y51935D01*
X213424Y52146D01*
X213441Y52362D01*
Y53937D01*
X213633D01*
Y57874D01*
D01*
Y57874D01*
X213826Y58067D01*
X215895D01*
X216967Y57926D01*
X216982Y57810D01*
X217027Y57702D01*
X217098Y57609D01*
X217191Y57538D01*
X217299Y57493D01*
X217414Y57478D01*
X217520Y57386D01*
Y53937D01*
X220669D01*
Y54699D01*
X220673Y54724D01*
Y58661D01*
X220659Y58764D01*
X220619Y58860D01*
X220558Y58940D01*
X220527Y59069D01*
X220444Y59269D01*
X220331Y59454D01*
X220190Y59619D01*
X219383Y60426D01*
X219400Y60473D01*
X220398D01*
Y60473D01*
X220398D01*
X220398Y60473D01*
X220521D01*
Y60473D01*
X221749D01*
Y58661D01*
Y58544D01*
X221762Y58409D01*
X221801Y58279D01*
X221865Y58159D01*
X221951Y58054D01*
X222056Y57968D01*
X222176Y57904D01*
X222306Y57865D01*
X222441Y57852D01*
X222576Y57865D01*
X222706Y57904D01*
X222826Y57968D01*
X222930Y58054D01*
X223017Y58159D01*
X223081Y58279D01*
X223120Y58409D01*
X223133Y58544D01*
Y58661D01*
Y61220D01*
X223120Y61356D01*
X223081Y61485D01*
X223041Y61560D01*
Y61969D01*
X220521D01*
D01*
D01*
X220521Y61969D01*
X220398D01*
Y61969D01*
X219180D01*
Y63256D01*
X220398D01*
Y63256D01*
X220398D01*
X220398Y63256D01*
X220524D01*
D01*
X220639Y63256D01*
Y63070D01*
X220650Y62954D01*
X220684Y62843D01*
X220739Y62740D01*
X220813Y62650D01*
X220891Y62573D01*
X220981Y62499D01*
X221083Y62444D01*
X221194Y62410D01*
X221310Y62399D01*
X223540D01*
Y61417D01*
X224047D01*
X224083Y61406D01*
X224199Y61395D01*
D01*
X224199Y61395D01*
D01*
X224199D01*
X224315Y61406D01*
X224315Y61406D01*
X224406Y61106D01*
Y60669D01*
X225701D01*
X225719Y60660D01*
X225849Y60620D01*
X225984Y60607D01*
X226119Y60620D01*
X226249Y60660D01*
X226369Y60724D01*
X226474Y60810D01*
X226560Y60915D01*
X226624Y61034D01*
X226663Y61164D01*
X226677Y61299D01*
X226663Y61434D01*
X226624Y61564D01*
X226560Y61684D01*
X226474Y61789D01*
X226369Y61875D01*
X226249Y61939D01*
X226119Y61978D01*
X225984Y61992D01*
X225849Y61978D01*
X225719Y61939D01*
X225701Y61929D01*
X224859D01*
Y62559D01*
X224859D01*
X224793Y62616D01*
X224793Y62616D01*
X224852Y62727D01*
X224892Y62857D01*
X224905Y62992D01*
X224892Y63127D01*
X224852Y63257D01*
X224788Y63377D01*
X224702Y63482D01*
X224597Y63568D01*
X224478Y63632D01*
X224348Y63671D01*
X224213Y63684D01*
X224078Y63671D01*
X223948Y63632D01*
X223861Y63586D01*
X221941D01*
Y64752D01*
X221778D01*
X221672Y65048D01*
X221722Y65089D01*
X221808Y65194D01*
X221872Y65314D01*
X221911Y65444D01*
X221925Y65579D01*
X221911Y65714D01*
X221872Y65844D01*
X221826Y65930D01*
Y66038D01*
X221941D01*
Y67534D01*
X221756D01*
Y68007D01*
X221860Y68050D01*
X221968Y68133D01*
X221970Y68136D01*
X221973Y68138D01*
X222057Y68247D01*
X222109Y68373D01*
X222127Y68509D01*
Y69270D01*
Y69569D01*
X222109Y69705D01*
X222057Y69831D01*
X221973Y69940D01*
X221865Y70023D01*
X221738Y70076D01*
X221603Y70093D01*
X221593Y70092D01*
X221557Y70180D01*
X221473Y70289D01*
X221384Y70378D01*
X221504Y70669D01*
X232722D01*
Y55440D01*
D02*
G37*
G36*
X210484Y57874D02*
X210484D01*
Y53937D01*
D01*
Y53937D01*
X210291Y53744D01*
X209253D01*
Y53937D01*
X209253D01*
Y57874D01*
D01*
Y57874D01*
X209446Y58067D01*
X210484D01*
Y57874D01*
D02*
G37*
G36*
X200423Y58067D02*
X204479D01*
X205551Y57926D01*
X205566Y57810D01*
X205611Y57702D01*
X205682Y57609D01*
X205712Y57586D01*
X205611Y57288D01*
X199172D01*
Y58067D01*
X200394D01*
X200400Y58068D01*
X200423Y58067D01*
D02*
G37*
G36*
X203089Y65289D02*
X203173Y65181D01*
X203370Y64984D01*
X203478Y64900D01*
X203515Y64885D01*
X203604Y64848D01*
X203672Y64839D01*
X203740Y64830D01*
X203974D01*
Y64752D01*
X203974D01*
Y63256D01*
X204089D01*
Y61969D01*
X203974D01*
Y60831D01*
X200791D01*
X200777Y60934D01*
X200738Y61030D01*
X200674Y61112D01*
X200644Y61135D01*
X200633Y61219D01*
X200667Y61299D01*
X202756D01*
Y65238D01*
X202984Y65332D01*
X203065Y65348D01*
X203089Y65289D01*
D02*
G37*
G36*
X236220Y69663D02*
X235992D01*
Y69663D01*
X234417D01*
Y70669D01*
X236220D01*
Y69663D01*
D02*
G37*
G36*
X220575Y65785D02*
X220553Y65714D01*
X220540Y65579D01*
X220553Y65444D01*
X220593Y65314D01*
X220657Y65194D01*
X220743Y65089D01*
X220793Y65048D01*
X220687Y64752D01*
X220524D01*
D01*
D01*
X220524Y64752D01*
X220398D01*
Y64752D01*
X220275D01*
X220271Y64793D01*
X220237Y64904D01*
X220183Y65007D01*
X220109Y65097D01*
X219458Y65747D01*
X219579Y66038D01*
X220387D01*
X220575Y65785D01*
D02*
G37*
G36*
X206493Y63256D02*
X206493D01*
X206493Y63256D01*
X206575D01*
D01*
X206690Y63256D01*
Y63189D01*
X206701Y63073D01*
X206735Y62962D01*
X206790Y62859D01*
X206864Y62769D01*
X207061Y62573D01*
X207151Y62499D01*
X207253Y62444D01*
X207365Y62410D01*
X207480Y62399D01*
X209575D01*
Y61417D01*
X210081D01*
X210118Y61406D01*
X210234Y61395D01*
D01*
X210234Y61395D01*
D01*
X210234D01*
X210350Y61406D01*
X210350Y61406D01*
X210441Y61106D01*
Y60831D01*
X209094D01*
Y61968D01*
X206575D01*
Y61968D01*
X206494D01*
X206493Y61969D01*
Y61969D01*
X205276D01*
Y63256D01*
X206493D01*
Y63256D01*
D02*
G37*
G36*
X184252Y112008D02*
X186417Y109843D01*
Y98988D01*
X185582D01*
X185447Y98975D01*
X185317Y98936D01*
X185198Y98872D01*
X185093Y98785D01*
X185006Y98681D01*
X184943Y98561D01*
X184903Y98431D01*
X184890Y98296D01*
X184903Y98161D01*
X184943Y98031D01*
X185006Y97911D01*
X185093Y97806D01*
X185198Y97720D01*
X185317Y97656D01*
X185447Y97617D01*
X185582Y97604D01*
X189567D01*
Y97508D01*
X191142D01*
Y97604D01*
X193196D01*
X193269Y97565D01*
X193427Y97351D01*
X193422Y97332D01*
X193408Y97197D01*
Y97083D01*
X193185Y96861D01*
X191142Y96881D01*
Y97047D01*
X189567D01*
Y96988D01*
X185618D01*
X185483Y96974D01*
X185353Y96935D01*
X185233Y96871D01*
X185129Y96785D01*
X185042Y96680D01*
X184979Y96560D01*
X184939Y96430D01*
X184926Y96295D01*
X184939Y96160D01*
X184979Y96030D01*
X185042Y95911D01*
X185129Y95806D01*
X185233Y95720D01*
X185353Y95656D01*
X185483Y95616D01*
X185618Y95603D01*
X189567D01*
Y95472D01*
X191142D01*
Y95472D01*
X191363Y95692D01*
X192205Y95684D01*
Y94814D01*
X184453D01*
Y101575D01*
X184437Y101729D01*
X184392Y101878D01*
X184319Y102014D01*
X184221Y102134D01*
X183630Y102725D01*
X183510Y102823D01*
X183374Y102896D01*
X183225Y102941D01*
X183071Y102957D01*
X179715D01*
X179504Y103168D01*
Y106102D01*
X179488Y106257D01*
X179443Y106405D01*
X179370Y106542D01*
X179326Y106596D01*
X179272Y106662D01*
X178524Y107410D01*
X178404Y107508D01*
X178267Y107581D01*
X178119Y107626D01*
X177965Y107641D01*
X176766D01*
X176727Y107638D01*
X175979D01*
Y106889D01*
X175975Y106850D01*
X175979Y106811D01*
Y106063D01*
X176727D01*
X176766Y106059D01*
X177637D01*
X177921Y105775D01*
Y102840D01*
X177936Y102686D01*
X177981Y102537D01*
X178054Y102401D01*
X178153Y102281D01*
X178828Y101606D01*
X178948Y101507D01*
X179059Y101448D01*
X178982Y101142D01*
X178395D01*
X178241Y101127D01*
X178092Y101082D01*
X177956Y101009D01*
X177890Y100955D01*
X177836Y100911D01*
X177590Y100665D01*
X177492Y100545D01*
X177419Y100408D01*
X177374Y100260D01*
X177358Y100106D01*
Y92060D01*
X177233Y91934D01*
X172860D01*
X172705Y91919D01*
X172557Y91874D01*
X172420Y91801D01*
X172384Y91771D01*
X172099Y91905D01*
Y95313D01*
Y97325D01*
X172180Y97424D01*
X172266Y97584D01*
X172318Y97759D01*
X172336Y97940D01*
X172318Y98122D01*
X172266Y98296D01*
X172180Y98457D01*
X172064Y98598D01*
X171923Y98713D01*
X171762Y98799D01*
X171588Y98852D01*
X171407Y98870D01*
X171225Y98852D01*
X171051Y98799D01*
X170890Y98713D01*
X170749Y98598D01*
X170634Y98457D01*
X170548Y98296D01*
X170495Y98122D01*
X170477Y97940D01*
X170495Y97759D01*
X170548Y97584D01*
X170634Y97424D01*
X170714Y97325D01*
Y95313D01*
Y95114D01*
Y94367D01*
X170419Y94125D01*
X170107Y94437D01*
X169987Y94536D01*
X169850Y94609D01*
X169702Y94654D01*
X169548Y94669D01*
X166736D01*
Y95276D01*
X166721Y95430D01*
X166693Y95522D01*
Y95866D01*
Y95882D01*
X167967D01*
X168121Y95897D01*
X168269Y95942D01*
X168406Y96015D01*
X168526Y96114D01*
X168625Y96234D01*
X168698Y96370D01*
X168743Y96519D01*
X168758Y96673D01*
X168743Y96828D01*
X168698Y96976D01*
X168625Y97113D01*
X168526Y97233D01*
X168406Y97331D01*
X168269Y97404D01*
X168121Y97449D01*
X167967Y97464D01*
X164085D01*
Y97520D01*
X163624D01*
X163603Y97834D01*
X163685Y97845D01*
X163781Y97884D01*
X163863Y97948D01*
X163927Y98030D01*
X163966Y98126D01*
X163980Y98228D01*
Y98410D01*
X164024Y98493D01*
X164073Y98653D01*
X164089Y98819D01*
X164073Y98985D01*
X164024Y99144D01*
X163980Y99228D01*
Y99409D01*
X163966Y99512D01*
X163927Y99608D01*
X163863Y99690D01*
X163781Y99753D01*
X163685Y99793D01*
X163583Y99807D01*
X162205D01*
X162205Y99807D01*
X159953D01*
Y100859D01*
X159939Y101006D01*
X159896Y101147D01*
X159827Y101277D01*
X159733Y101391D01*
X159619Y101484D01*
X159489Y101554D01*
X159348Y101596D01*
X159202Y101611D01*
X159055Y101596D01*
X158914Y101554D01*
X158784Y101484D01*
X158670Y101391D01*
X158577Y101277D01*
X158507Y101147D01*
X158465Y101006D01*
X158450Y100859D01*
Y99804D01*
X158369Y99793D01*
X158273Y99753D01*
X158191Y99690D01*
X158128Y99608D01*
X158088Y99512D01*
X158074Y99409D01*
Y88484D01*
X158067Y88386D01*
Y59055D01*
X158084Y58839D01*
X158134Y58628D01*
X158217Y58428D01*
X158331Y58243D01*
X158471Y58078D01*
X160532Y56018D01*
X160496Y55840D01*
X160433Y55700D01*
X160236Y55712D01*
X160004Y55697D01*
X159777Y55652D01*
X159557Y55577D01*
X159348Y55475D01*
X159155Y55346D01*
X158981Y55192D01*
X158828Y55018D01*
X158699Y54825D01*
X158596Y54616D01*
X158521Y54397D01*
X158476Y54169D01*
X158461Y53937D01*
X158476Y53705D01*
X158521Y53477D01*
X158596Y53258D01*
X158699Y53049D01*
X158828Y52856D01*
X158981Y52682D01*
X159155Y52528D01*
X159348Y52399D01*
X159557Y52297D01*
X159777Y52222D01*
X160004Y52177D01*
X160236Y52162D01*
X160468Y52177D01*
X160696Y52222D01*
X160916Y52297D01*
X161124Y52399D01*
X161317Y52528D01*
X161492Y52682D01*
X161645Y52856D01*
X161774Y53049D01*
X161877Y53258D01*
X161951Y53477D01*
X161996Y53705D01*
X162012Y53937D01*
X161999Y54134D01*
X162139Y54197D01*
X162317Y54232D01*
X165077Y51472D01*
X164957Y51181D01*
X157480D01*
Y129921D01*
X184252D01*
Y112008D01*
D02*
G37*
G36*
X224803Y125323D02*
Y122244D01*
X232390D01*
Y121199D01*
X231327D01*
Y121063D01*
X224803D01*
Y115491D01*
X223388D01*
X223123Y115633D01*
X223040Y115744D01*
X223067Y115831D01*
X223082Y115982D01*
X223067Y116132D01*
X223023Y116277D01*
X222952Y116410D01*
X222856Y116527D01*
X222835Y116544D01*
Y117126D01*
X223622D01*
Y123622D01*
Y124091D01*
X223547Y124016D01*
X211811D01*
Y125394D01*
X224732D01*
X224803Y125323D01*
D02*
G37*
G36*
X182870Y101247D02*
Y100621D01*
X182579Y100500D01*
X182169Y100911D01*
X182049Y101009D01*
X181938Y101069D01*
X182014Y101374D01*
X182743D01*
X182870Y101247D01*
D02*
G37*
G36*
X200730Y97079D02*
X200744Y96944D01*
X200783Y96814D01*
X200829Y96727D01*
Y96061D01*
X200443D01*
X200351Y96089D01*
X200197Y96105D01*
X200110Y96096D01*
X200022Y96105D01*
X197053D01*
Y97149D01*
X197050Y97179D01*
X197050Y97209D01*
X197042Y97256D01*
X197037Y97303D01*
X197029Y97332D01*
X197023Y97362D01*
X197006Y97406D01*
X196992Y97452D01*
X196978Y97478D01*
X196967Y97506D01*
X196942Y97546D01*
X196919Y97588D01*
X196926Y97604D01*
X200730D01*
Y97079D01*
D02*
G37*
G36*
X207480Y98622D02*
Y93878D01*
X204500D01*
X204368Y94023D01*
Y96924D01*
X204353Y97079D01*
X204308Y97227D01*
X204235Y97364D01*
X204136Y97484D01*
X203982Y97638D01*
X203862Y97737D01*
X203725Y97810D01*
X203577Y97855D01*
X203423Y97870D01*
X202559D01*
X202405Y97855D01*
X202368Y97844D01*
X202153Y98003D01*
X202115Y98074D01*
Y98296D01*
X202102Y98431D01*
X202062Y98561D01*
X201998Y98681D01*
X202039Y98768D01*
X207335D01*
X207480Y98622D01*
D02*
G37*
G36*
X195197Y96406D02*
X195470D01*
Y95329D01*
X195469Y95313D01*
Y94997D01*
X195286Y94814D01*
X194724D01*
Y95104D01*
X194740Y95133D01*
X194780Y95263D01*
X194793Y95398D01*
Y95599D01*
X195042Y96421D01*
X195197Y96406D01*
D02*
G37*
G36*
X202405Y96303D02*
X202559Y96288D01*
X202786D01*
Y94814D01*
X202008D01*
Y95231D01*
X202016Y95313D01*
Y95898D01*
X202245Y96326D01*
X202269Y96344D01*
X202405Y96303D01*
D02*
G37*
%LPC*%
G36*
X169291Y71382D02*
X169075Y71365D01*
X168864Y71315D01*
X168664Y71232D01*
X168479Y71118D01*
X168314Y70977D01*
X168173Y70812D01*
X168060Y70628D01*
X167977Y70427D01*
X167926Y70216D01*
X167909Y70000D01*
Y63661D01*
X167926Y63445D01*
X167977Y63234D01*
X168060Y63034D01*
X168173Y62849D01*
X168314Y62684D01*
X168479Y62543D01*
X168664Y62430D01*
X168864Y62347D01*
X169075Y62296D01*
X169291Y62279D01*
X169508Y62296D01*
X169718Y62347D01*
X169919Y62430D01*
X170104Y62543D01*
X170269Y62684D01*
X170410Y62849D01*
X170523Y63034D01*
X170606Y63234D01*
X170657Y63445D01*
X170674Y63661D01*
Y70000D01*
X170657Y70216D01*
X170606Y70427D01*
X170523Y70628D01*
X170410Y70812D01*
X170269Y70977D01*
X170104Y71118D01*
X169919Y71232D01*
X169718Y71315D01*
X169508Y71365D01*
X169291Y71382D01*
D02*
G37*
G36*
X163239Y117893D02*
X163092Y117879D01*
X162951Y117836D01*
X162821Y117767D01*
X162707Y117673D01*
X162614Y117559D01*
X162544Y117429D01*
X162501Y117288D01*
X162487Y117142D01*
X162501Y116995D01*
X162544Y116854D01*
X162614Y116724D01*
X162707Y116610D01*
X162821Y116517D01*
X162951Y116447D01*
X163092Y116405D01*
X163239Y116390D01*
X163385Y116405D01*
X163526Y116447D01*
X163656Y116517D01*
X163770Y116610D01*
X163864Y116724D01*
X163933Y116854D01*
X163976Y116995D01*
X163990Y117142D01*
X163976Y117288D01*
X163933Y117429D01*
X163864Y117559D01*
X163770Y117673D01*
X163656Y117767D01*
X163526Y117836D01*
X163385Y117879D01*
X163239Y117893D01*
D02*
G37*
G36*
X163239Y126192D02*
X163092Y126177D01*
X162951Y126135D01*
X162821Y126065D01*
X162707Y125972D01*
X162614Y125858D01*
X162544Y125728D01*
X162501Y125587D01*
X162487Y125440D01*
X162501Y125294D01*
X162544Y125153D01*
X162614Y125023D01*
X162707Y124909D01*
X162821Y124815D01*
X162951Y124746D01*
X163092Y124703D01*
X163239Y124689D01*
X163385Y124703D01*
X163526Y124746D01*
X163656Y124815D01*
X163770Y124909D01*
X163864Y125023D01*
X163933Y125153D01*
X163976Y125294D01*
X163990Y125440D01*
X163976Y125587D01*
X163933Y125728D01*
X163864Y125858D01*
X163770Y125972D01*
X163656Y126065D01*
X163526Y126135D01*
X163385Y126177D01*
X163239Y126192D01*
D02*
G37*
G36*
X160236Y129107D02*
X160004Y129091D01*
X159777Y129046D01*
X159557Y128971D01*
X159348Y128869D01*
X159155Y128740D01*
X158981Y128587D01*
X158828Y128412D01*
X158699Y128219D01*
X158596Y128011D01*
X158521Y127791D01*
X158476Y127563D01*
X158461Y127331D01*
X158476Y127099D01*
X158521Y126872D01*
X158596Y126652D01*
X158699Y126443D01*
X158828Y126250D01*
X158981Y126076D01*
X159155Y125923D01*
X159348Y125794D01*
X159557Y125691D01*
X159777Y125616D01*
X160004Y125571D01*
X160236Y125556D01*
X160468Y125571D01*
X160696Y125616D01*
X160916Y125691D01*
X161124Y125794D01*
X161317Y125923D01*
X161492Y126076D01*
X161645Y126250D01*
X161774Y126443D01*
X161877Y126652D01*
X161951Y126872D01*
X161996Y127099D01*
X162012Y127331D01*
X161996Y127563D01*
X161951Y127791D01*
X161877Y128011D01*
X161774Y128219D01*
X161645Y128412D01*
X161492Y128587D01*
X161317Y128740D01*
X161124Y128869D01*
X160916Y128971D01*
X160696Y129046D01*
X160468Y129091D01*
X160236Y129107D01*
D02*
G37*
G36*
X179724Y71382D02*
X179508Y71365D01*
X179297Y71315D01*
X179097Y71232D01*
X178912Y71118D01*
X178747Y70977D01*
X178606Y70812D01*
X178493Y70628D01*
X178410Y70427D01*
X178359Y70216D01*
X178342Y70000D01*
Y63661D01*
X178359Y63445D01*
X178410Y63234D01*
X178493Y63034D01*
X178606Y62849D01*
X178747Y62684D01*
X178912Y62543D01*
X179097Y62430D01*
X179297Y62347D01*
X179508Y62296D01*
X179724Y62279D01*
X179941Y62296D01*
X180152Y62347D01*
X180352Y62430D01*
X180537Y62543D01*
X180702Y62684D01*
X180843Y62849D01*
X180956Y63034D01*
X181039Y63234D01*
X181090Y63445D01*
X181107Y63661D01*
Y70000D01*
X181090Y70216D01*
X181039Y70427D01*
X180956Y70628D01*
X180843Y70812D01*
X180702Y70977D01*
X180537Y71118D01*
X180352Y71232D01*
X180152Y71315D01*
X179941Y71365D01*
X179724Y71382D01*
D02*
G37*
G36*
X160973Y111491D02*
X160827Y111476D01*
X160686Y111434D01*
X160556Y111364D01*
X160442Y111271D01*
X160348Y111157D01*
X160279Y111027D01*
X160245Y110915D01*
X159930D01*
X159896Y111027D01*
X159827Y111157D01*
X159733Y111271D01*
X159619Y111364D01*
X159489Y111434D01*
X159348Y111476D01*
X159202Y111491D01*
X159055Y111476D01*
X158914Y111434D01*
X158784Y111364D01*
X158670Y111271D01*
X158577Y111157D01*
X158507Y111027D01*
X158465Y110886D01*
X158450Y110739D01*
X158465Y110593D01*
X158507Y110452D01*
X158577Y110322D01*
X158670Y110208D01*
X158784Y110114D01*
X158914Y110045D01*
X159055Y110002D01*
X159202Y109988D01*
X159348Y110002D01*
X159489Y110045D01*
X159619Y110114D01*
X159733Y110208D01*
X159827Y110322D01*
X159896Y110452D01*
X159930Y110563D01*
X160245D01*
X160279Y110452D01*
X160348Y110322D01*
X160442Y110208D01*
X160556Y110114D01*
X160686Y110045D01*
X160827Y110002D01*
X160973Y109988D01*
X161120Y110002D01*
X161261Y110045D01*
X161391Y110114D01*
X161505Y110208D01*
X161598Y110322D01*
X161668Y110452D01*
X161711Y110593D01*
X161725Y110739D01*
X161711Y110886D01*
X161668Y111027D01*
X161598Y111157D01*
X161505Y111271D01*
X161391Y111364D01*
X161261Y111434D01*
X161120Y111476D01*
X160973Y111491D01*
D02*
G37*
G36*
X171351Y84838D02*
X171204Y84824D01*
X171063Y84781D01*
X170933Y84712D01*
X170819Y84618D01*
X170726Y84504D01*
X170656Y84374D01*
X170613Y84233D01*
X170599Y84087D01*
X170613Y83940D01*
X170656Y83799D01*
X170726Y83669D01*
X170793Y83587D01*
X170726Y83504D01*
X170656Y83374D01*
X170613Y83233D01*
X170599Y83087D01*
X170613Y82940D01*
X170656Y82799D01*
X170726Y82669D01*
X170819Y82555D01*
X170933Y82462D01*
X171063Y82392D01*
X171204Y82349D01*
X171351Y82335D01*
X171497Y82349D01*
X171638Y82392D01*
X171768Y82462D01*
X171882Y82555D01*
X171976Y82669D01*
X172045Y82799D01*
X172088Y82940D01*
X172102Y83087D01*
X172088Y83233D01*
X172045Y83374D01*
X171976Y83504D01*
X171908Y83587D01*
X171976Y83669D01*
X172045Y83799D01*
X172088Y83940D01*
X172102Y84087D01*
X172088Y84233D01*
X172045Y84374D01*
X171976Y84504D01*
X171882Y84618D01*
X171768Y84712D01*
X171638Y84781D01*
X171497Y84824D01*
X171351Y84838D01*
D02*
G37*
G36*
X212683Y69104D02*
X210633D01*
X210479Y69089D01*
X210331Y69044D01*
X210194Y68971D01*
X210074Y68873D01*
X209975Y68753D01*
X209902Y68616D01*
X209857Y68468D01*
X209842Y68313D01*
X209857Y68159D01*
X209902Y68010D01*
X209975Y67874D01*
X210074Y67754D01*
X210194Y67655D01*
X210331Y67582D01*
X210479Y67537D01*
X210633Y67522D01*
X212683D01*
X212838Y67537D01*
X212986Y67582D01*
X213123Y67655D01*
X213243Y67754D01*
X213341Y67874D01*
X213414Y68010D01*
X213459Y68159D01*
X213475Y68313D01*
X213459Y68468D01*
X213414Y68616D01*
X213341Y68753D01*
X213243Y68873D01*
X213123Y68971D01*
X212986Y69044D01*
X212838Y69089D01*
X212683Y69104D01*
D02*
G37*
G36*
X180118Y127563D02*
X174765D01*
X174610Y127548D01*
X174462Y127503D01*
X174325Y127430D01*
X174271Y127385D01*
X174205Y127331D01*
X173216Y126342D01*
X172581D01*
Y126114D01*
X172495Y126105D01*
X172384Y126071D01*
X172281Y126017D01*
X172191Y125943D01*
X171856Y125607D01*
X171648Y125717D01*
Y125717D01*
X171648Y125717D01*
D01*
X171286Y126079D01*
X171196Y126153D01*
X171093Y126208D01*
X170982Y126241D01*
X170964Y126243D01*
Y126368D01*
X170561D01*
X170519Y126390D01*
X170371Y126435D01*
X170216Y126451D01*
X167165D01*
X167011Y126435D01*
X166863Y126390D01*
X166802Y126358D01*
X166368D01*
Y125981D01*
X164588Y124201D01*
X163269D01*
X163143Y124188D01*
X162491D01*
Y123536D01*
X162478Y123409D01*
X162491Y123283D01*
Y122692D01*
X162941D01*
X162967Y122678D01*
X163115Y122633D01*
X163269Y122618D01*
X164915D01*
X165070Y122633D01*
X165218Y122678D01*
X165355Y122752D01*
X165475Y122850D01*
X167487Y124862D01*
X167864D01*
Y124868D01*
X170216D01*
X170371Y124883D01*
X170382Y124887D01*
X170635Y124699D01*
Y122520D01*
X170382Y122332D01*
X170371Y122335D01*
X170216Y122351D01*
X168477D01*
X167677Y123151D01*
Y123252D01*
X167565D01*
X167507Y123300D01*
X167370Y123373D01*
X167221Y123418D01*
X167067Y123433D01*
X166913Y123418D01*
X166764Y123373D01*
X166627Y123300D01*
X166569Y123252D01*
X166457D01*
Y123140D01*
X166409Y123082D01*
X166336Y122945D01*
X166291Y122796D01*
X166276Y122642D01*
X166291Y122488D01*
X166336Y122339D01*
X166409Y122203D01*
X166457Y122145D01*
Y122032D01*
X166558D01*
X167590Y121000D01*
X167656Y120946D01*
X167710Y120902D01*
X167847Y120828D01*
X167995Y120783D01*
X168150Y120768D01*
X170216D01*
X170371Y120783D01*
X170380Y120786D01*
X170642Y120611D01*
X170646Y120567D01*
X170680Y120455D01*
X170735Y120353D01*
X170809Y120263D01*
X171650Y119421D01*
X171740Y119348D01*
X171843Y119293D01*
X171954Y119259D01*
X172070Y119248D01*
X172581D01*
Y119022D01*
X172897D01*
X173018Y118731D01*
X172957Y118670D01*
X172858Y118550D01*
X172785Y118413D01*
X172740Y118265D01*
X172725Y118110D01*
Y118092D01*
X172581D01*
Y117867D01*
X172391D01*
X172276Y117855D01*
X172164Y117821D01*
X172062Y117767D01*
X171972Y117693D01*
X171818Y117539D01*
X171648Y117643D01*
Y117643D01*
X171648Y117643D01*
X171648Y117643D01*
X171512Y117779D01*
X171422Y117853D01*
X171319Y117908D01*
X171208Y117941D01*
X171092Y117953D01*
X170964D01*
Y118068D01*
X170561D01*
X170519Y118090D01*
X170371Y118135D01*
X170216Y118151D01*
X167116D01*
X167116Y118151D01*
X166385D01*
X166231Y118135D01*
X166083Y118090D01*
X165946Y118017D01*
X165826Y117919D01*
X163857Y115950D01*
X163256D01*
X163101Y115935D01*
X162953Y115890D01*
X162491D01*
Y115349D01*
X162480Y115313D01*
X162464Y115159D01*
X162480Y115004D01*
X162491Y114968D01*
Y114394D01*
X163065D01*
X163101Y114383D01*
X163256Y114367D01*
X164185D01*
X164339Y114383D01*
X164487Y114428D01*
X164624Y114501D01*
X164744Y114599D01*
X166713Y116568D01*
X167520D01*
X167520Y116568D01*
X170216D01*
X170371Y116583D01*
X170382Y116587D01*
X170635Y116399D01*
Y114418D01*
X170382Y114230D01*
X170371Y114234D01*
X170216Y114249D01*
X167067D01*
X166959Y114238D01*
X166851Y114249D01*
X166697Y114234D01*
X166548Y114189D01*
X166412Y114116D01*
X166292Y114017D01*
X165189Y112914D01*
X165090Y112794D01*
X165017Y112658D01*
X164972Y112509D01*
X164957Y112355D01*
Y106850D01*
Y105669D01*
X164972Y105515D01*
X165017Y105367D01*
X165090Y105230D01*
X165189Y105110D01*
X166138Y104160D01*
Y102165D01*
X166153Y102011D01*
X166198Y101863D01*
X166220Y101821D01*
Y101417D01*
X166683D01*
X166775Y101389D01*
X166929Y101374D01*
X167083Y101389D01*
X167176Y101417D01*
X167638D01*
Y101821D01*
X167660Y101863D01*
X167705Y102011D01*
X167720Y102165D01*
Y103579D01*
X168740D01*
X168895Y103594D01*
X169043Y103639D01*
X169180Y103712D01*
X169300Y103811D01*
X169306Y103819D01*
X169488D01*
Y104123D01*
X169516Y104216D01*
X169531Y104370D01*
X169516Y104524D01*
X169488Y104617D01*
Y104921D01*
Y104949D01*
X170924D01*
X171051Y104881D01*
X171225Y104828D01*
X171407Y104810D01*
X171588Y104828D01*
X171762Y104881D01*
X171923Y104967D01*
X172064Y105083D01*
X172180Y105224D01*
X172266Y105384D01*
X172318Y105559D01*
X172336Y105740D01*
X172318Y105922D01*
X172266Y106096D01*
X172180Y106257D01*
X172064Y106398D01*
X171923Y106513D01*
X171762Y106599D01*
X171588Y106652D01*
X171407Y106670D01*
X171225Y106652D01*
X171051Y106599D01*
X170924Y106531D01*
X168740D01*
X168586Y106516D01*
X168437Y106471D01*
X168301Y106398D01*
X168228Y106339D01*
X167992D01*
Y105987D01*
X167964Y105895D01*
X167949Y105740D01*
X167964Y105586D01*
X167992Y105494D01*
Y105161D01*
X167375D01*
X166539Y105997D01*
Y106850D01*
Y112027D01*
X167179Y112667D01*
X170216D01*
X170371Y112682D01*
X170382Y112685D01*
X170635Y112498D01*
Y111866D01*
X170646Y111750D01*
X170680Y111639D01*
X170735Y111536D01*
X170809Y111447D01*
X171234Y111021D01*
X171324Y110948D01*
X171426Y110893D01*
X171538Y110859D01*
X171654Y110848D01*
X172581D01*
Y110622D01*
X174451D01*
Y110650D01*
X175831D01*
Y110622D01*
X177701D01*
Y112132D01*
X177701Y112132D01*
D01*
D01*
X177701Y112260D01*
Y112270D01*
Y112307D01*
X177701Y112354D01*
X177701Y112483D01*
X177701Y112483D01*
X177701D01*
Y113992D01*
X177557D01*
Y114672D01*
X177701D01*
Y114700D01*
X180856D01*
X181010Y114715D01*
X181158Y114760D01*
X181295Y114833D01*
X181415Y114931D01*
X182258Y115774D01*
X182323Y115809D01*
X182443Y115908D01*
X182542Y116028D01*
X182615Y116164D01*
X182660Y116313D01*
X182675Y116467D01*
X182660Y116621D01*
X182615Y116770D01*
X182542Y116907D01*
X182443Y117027D01*
X182323Y117125D01*
X182187Y117198D01*
X182038Y117243D01*
X181884Y117258D01*
X181858Y117256D01*
X181832Y117258D01*
X181677Y117243D01*
X181529Y117198D01*
X181392Y117125D01*
X181272Y117027D01*
X180528Y116282D01*
X177701D01*
Y116310D01*
X175831D01*
Y114672D01*
X175975D01*
Y113992D01*
X175831D01*
Y112483D01*
X175831Y112483D01*
X175831D01*
X175831Y112354D01*
Y112260D01*
X175831D01*
X175831Y112232D01*
X174451D01*
X174451Y112260D01*
D01*
Y112354D01*
X174451D01*
Y113992D01*
X172641D01*
Y116454D01*
X174451D01*
Y117713D01*
X179451D01*
X179605Y117728D01*
X179753Y117773D01*
X179890Y117846D01*
X180010Y117944D01*
X180683Y118618D01*
X180782Y118738D01*
X180855Y118874D01*
X180900Y119023D01*
X180915Y119177D01*
X180900Y119331D01*
X180855Y119480D01*
X180782Y119617D01*
X180683Y119737D01*
X180563Y119835D01*
X180427Y119908D01*
X180278Y119953D01*
X180124Y119968D01*
X179969Y119953D01*
X179821Y119908D01*
X179684Y119835D01*
X179564Y119737D01*
X179123Y119295D01*
X177701D01*
Y120582D01*
X177701Y120582D01*
D01*
D01*
X177701Y120710D01*
X177701Y120804D01*
D01*
X177701D01*
Y120804D01*
D01*
Y120807D01*
X177701Y120832D01*
X179120D01*
X179274Y120847D01*
X179423Y120892D01*
X179559Y120965D01*
X179679Y121064D01*
X180683Y122068D01*
X180737Y122133D01*
X180782Y122188D01*
X180855Y122324D01*
X180900Y122473D01*
X180915Y122627D01*
X180900Y122781D01*
X180855Y122930D01*
X180782Y123067D01*
X180683Y123187D01*
X180563Y123285D01*
X180427Y123358D01*
X180278Y123403D01*
X180124Y123418D01*
X179969Y123403D01*
X179821Y123358D01*
X179684Y123285D01*
X179630Y123241D01*
X179564Y123187D01*
X178792Y122414D01*
X177701D01*
Y122442D01*
X177557D01*
Y123022D01*
X177701D01*
Y124660D01*
X175831D01*
Y123022D01*
X175975D01*
Y122442D01*
X175831D01*
Y120933D01*
X175831Y120933D01*
X175831D01*
X175831Y120804D01*
Y120710D01*
X175831D01*
X175831Y120434D01*
X174451D01*
X174451Y120660D01*
D01*
Y120754D01*
X174451D01*
Y122392D01*
X172641D01*
Y124704D01*
X174451D01*
Y125339D01*
X175092Y125980D01*
X179781D01*
X181324Y124438D01*
X181444Y124339D01*
X181581Y124266D01*
X181729Y124221D01*
X181884Y124206D01*
X182038Y124221D01*
X182187Y124266D01*
X182323Y124339D01*
X182443Y124438D01*
X182542Y124558D01*
X182615Y124694D01*
X182660Y124843D01*
X182675Y124997D01*
X182660Y125151D01*
X182615Y125300D01*
X182542Y125437D01*
X182443Y125557D01*
X180874Y127125D01*
X180781Y127202D01*
X180776Y127211D01*
X180678Y127331D01*
X180558Y127430D01*
X180421Y127503D01*
X180272Y127548D01*
X180118Y127563D01*
D02*
G37*
%LPD*%
G36*
X172127Y112680D02*
X172230Y112625D01*
X172341Y112591D01*
X172457Y112580D01*
X172581D01*
X172581Y112354D01*
X172581D01*
X172581Y112260D01*
D01*
X172581Y112034D01*
X171899D01*
X171822Y112112D01*
Y112562D01*
X172106Y112697D01*
X172127Y112680D01*
D02*
G37*
G36*
X172192Y121080D02*
X172294Y121025D01*
X172405Y120991D01*
X172521Y120980D01*
X172581D01*
X172581Y120754D01*
X172581D01*
X172581Y120660D01*
X172581D01*
Y120580D01*
X172290Y120460D01*
X171822Y120928D01*
Y121015D01*
X172106Y121150D01*
X172192Y121080D01*
D02*
G37*
G54D10*
X192872Y62411D02*
D03*
X192622D02*
D03*
X192372D02*
D03*
X192122D02*
D03*
X191872D02*
D03*
X191622D02*
D03*
X191372D02*
D03*
X191122D02*
D03*
X190872D02*
D03*
X190622D02*
D03*
X190372D02*
D03*
X190122D02*
D03*
X192872Y60443D02*
D03*
X192622D02*
D03*
X192372D02*
D03*
X192122D02*
D03*
X191872D02*
D03*
X191622D02*
D03*
X191372D02*
D03*
X191122D02*
D03*
X190872D02*
D03*
X190622D02*
D03*
X190372D02*
D03*
X200272Y62411D02*
D03*
X200022D02*
D03*
X199772D02*
D03*
X199522D02*
D03*
X199272D02*
D03*
X199022D02*
D03*
X198772D02*
D03*
X198522D02*
D03*
X198272D02*
D03*
X198022D02*
D03*
X197772D02*
D03*
X197522D02*
D03*
X200272Y60443D02*
D03*
X200022D02*
D03*
X199772D02*
D03*
X199522D02*
D03*
X199272D02*
D03*
X199022D02*
D03*
X198772D02*
D03*
X198522D02*
D03*
X198272D02*
D03*
X198022D02*
D03*
X197772D02*
D03*
G54D11*
X190122D02*
D03*
X197522D02*
D03*
G54D12*
X205203Y69270D02*
D03*
X218603D02*
D03*
G54D13*
X205703D02*
D03*
X206203D02*
D03*
X206703D02*
D03*
X207203D02*
D03*
X207703D02*
D03*
X208203D02*
D03*
X208703D02*
D03*
X205203Y72998D02*
D03*
X205703D02*
D03*
X206203D02*
D03*
X206703D02*
D03*
X207203D02*
D03*
X207703D02*
D03*
X208203D02*
D03*
X208703D02*
D03*
X219103Y69270D02*
D03*
X219603D02*
D03*
X220103D02*
D03*
X220603D02*
D03*
X221103D02*
D03*
X221603D02*
D03*
X222103D02*
D03*
X218603Y72998D02*
D03*
X219103D02*
D03*
X219603D02*
D03*
X220103D02*
D03*
X220603D02*
D03*
X221103D02*
D03*
X221603D02*
D03*
X222103D02*
D03*
G54D14*
X212059Y55906D02*
D03*
X207679D02*
D03*
X223474D02*
D03*
X219094D02*
D03*
G54D15*
X176766Y113173D02*
D03*
Y111441D02*
D03*
Y117223D02*
D03*
Y115491D02*
D03*
X173516Y113173D02*
D03*
Y111441D02*
D03*
Y115541D02*
D03*
Y117273D02*
D03*
X176766Y121623D02*
D03*
Y119891D02*
D03*
Y125573D02*
D03*
Y123841D02*
D03*
X173516Y121573D02*
D03*
Y119841D02*
D03*
Y123791D02*
D03*
Y125523D02*
D03*
G54D16*
X211100Y61299D02*
D03*
X225065D02*
D03*
G54D17*
X210234Y61240D02*
D03*
Y61988D02*
D03*
X211100D02*
D03*
X224199Y61240D02*
D03*
Y61988D02*
D03*
X225065D02*
D03*
G54D18*
X194211Y81787D02*
D03*
Y82287D02*
D03*
Y82787D02*
D03*
Y83287D02*
D03*
X192321Y81787D02*
D03*
Y82287D02*
D03*
Y82787D02*
D03*
Y83287D02*
D03*
X214577Y81787D02*
D03*
Y82287D02*
D03*
Y82787D02*
D03*
Y83287D02*
D03*
X212687Y81787D02*
D03*
Y82287D02*
D03*
Y82787D02*
D03*
Y83287D02*
D03*
G54D19*
X190157Y89876D02*
D03*
X190154Y88589D02*
D03*
X196670Y89876D02*
D03*
X196666Y88589D02*
D03*
X210240Y89819D02*
D03*
X210236Y88532D02*
D03*
X216732Y89819D02*
D03*
X216728Y88532D02*
D03*
G54D20*
X202441Y101378D02*
D03*
X203543D02*
D03*
X195078Y101360D02*
D03*
X196180D02*
D03*
X165827Y102165D02*
D03*
X166929D02*
D03*
X193819Y118701D02*
D03*
X192717D02*
D03*
X203779Y123841D02*
D03*
X202677D02*
D03*
X205842Y118898D02*
D03*
X206945D02*
D03*
X189270Y64764D02*
D03*
X190372D02*
D03*
X192725Y88640D02*
D03*
X191622D02*
D03*
X193975Y64764D02*
D03*
X192872D02*
D03*
X196670D02*
D03*
X197772D02*
D03*
X192636Y84430D02*
D03*
X193738D02*
D03*
X199331Y88640D02*
D03*
X198228D02*
D03*
X201436Y64764D02*
D03*
X200333D02*
D03*
X213108Y84430D02*
D03*
X214210D02*
D03*
X212913Y88640D02*
D03*
X211811D02*
D03*
X208386Y64004D02*
D03*
X207283D02*
D03*
X205785Y66786D02*
D03*
X204682D02*
D03*
X205785Y74645D02*
D03*
X204682D02*
D03*
X207756D02*
D03*
X208858D02*
D03*
X208386Y66786D02*
D03*
X207283D02*
D03*
X219409Y88616D02*
D03*
X218307D02*
D03*
X222335Y64004D02*
D03*
X221232D02*
D03*
X219689Y66786D02*
D03*
X218587D02*
D03*
X219213Y74645D02*
D03*
X218110D02*
D03*
X221080D02*
D03*
X222182D02*
D03*
X222335Y66786D02*
D03*
X221232D02*
D03*
X200262Y66535D02*
D03*
X201365D02*
D03*
X206945Y120669D02*
D03*
X205842D02*
D03*
X205842Y122441D02*
D03*
X206945D02*
D03*
X188701Y88640D02*
D03*
X187598D02*
D03*
X195106D02*
D03*
X194004D02*
D03*
X207283Y61220D02*
D03*
X208386D02*
D03*
X204682Y61221D02*
D03*
X205785D02*
D03*
Y64004D02*
D03*
X204682D02*
D03*
X208805Y88640D02*
D03*
X207703D02*
D03*
X221230Y61221D02*
D03*
X222332D02*
D03*
X218587D02*
D03*
X219689D02*
D03*
X219689Y64004D02*
D03*
X218587D02*
D03*
X215313Y88616D02*
D03*
X214210D02*
D03*
X231996Y123822D02*
D03*
X230894D02*
D03*
X195078Y95313D02*
D03*
X196180D02*
D03*
X202441D02*
D03*
X203543D02*
D03*
X179606Y97638D02*
D03*
X180709D02*
D03*
X217047Y101213D02*
D03*
X215945D02*
D03*
X194016Y95313D02*
D03*
X192913D02*
D03*
X201299D02*
D03*
X200197D02*
D03*
G54D21*
X163386Y67244D02*
D03*
Y66142D02*
D03*
X174803Y86980D02*
D03*
Y88083D02*
D03*
X167913Y92244D02*
D03*
Y91142D02*
D03*
X208642Y113331D02*
D03*
Y112229D02*
D03*
X215412Y113331D02*
D03*
Y112229D02*
D03*
X217292Y115687D02*
D03*
Y116790D02*
D03*
X219094Y113331D02*
D03*
Y112229D02*
D03*
X170216Y117359D02*
D03*
Y116257D02*
D03*
Y113504D02*
D03*
Y112402D02*
D03*
Y125659D02*
D03*
Y124557D02*
D03*
Y121559D02*
D03*
Y120457D02*
D03*
X168740Y105630D02*
D03*
Y104528D02*
D03*
X165827Y83328D02*
D03*
Y84430D02*
D03*
X165945Y96575D02*
D03*
Y95472D02*
D03*
X200093Y117757D02*
D03*
Y118860D02*
D03*
X199861Y125193D02*
D03*
Y124091D02*
D03*
X217292Y113331D02*
D03*
Y112229D02*
D03*
X220866Y106843D02*
D03*
Y105740D02*
D03*
X212008Y106862D02*
D03*
Y105760D02*
D03*
X203346Y106862D02*
D03*
Y105760D02*
D03*
G54D22*
X202756Y122638D02*
D03*
X203256D02*
D03*
X203756D02*
D03*
X204256D02*
D03*
Y120438D02*
D03*
X203756D02*
D03*
X203256D02*
D03*
X202756D02*
D03*
G54D23*
X196850Y69094D02*
Y72457D01*
X194832Y69094D02*
Y71900D01*
X196004Y73303D02*
X196850Y72457D01*
X195004Y72909D02*
X195866Y72047D01*
Y69304D02*
Y72047D01*
X193975Y72757D02*
X194832Y71900D01*
X214173Y84430D02*
Y85396D01*
X189270Y69291D02*
Y72125D01*
X190400Y69291D02*
Y72093D01*
X191372Y69291D02*
Y72050D01*
X193004Y69304D02*
Y76376D01*
X207286Y65633D02*
Y66840D01*
X193009Y94023D02*
Y95313D01*
X218618Y65748D02*
X219689Y64677D01*
X217520Y65748D02*
X218618D01*
X214764Y65785D02*
X217520D01*
X214764Y64339D02*
Y65785D01*
X230799Y123916D02*
Y125228D01*
X180615Y97295D02*
X182177D01*
X180709Y97530D02*
Y97638D01*
X205529Y77790D02*
X206366D01*
X199016Y69323D02*
Y74586D01*
X210583Y72354D02*
Y74537D01*
X211656Y70318D02*
X212205Y70866D01*
X219103Y75394D02*
X219213Y75284D01*
Y74645D02*
Y75284D01*
X206366Y77790D02*
X206703Y77453D01*
X212913Y87205D02*
Y88640D01*
X204999Y118898D02*
X205842D01*
X213780Y70866D02*
X220155D01*
X198022Y56656D02*
Y60443D01*
X194211Y87235D02*
X198022D01*
X196670Y84214D02*
Y87214D01*
X198022Y87235D02*
X199916D01*
X221541Y77790D02*
X222056D01*
X220103Y76351D02*
X221541Y77790D01*
X217744Y71654D02*
X219886D01*
X215811Y73586D02*
X217744Y71654D01*
X215157Y73586D02*
X215811D01*
X202016Y76622D02*
Y77790D01*
X199980Y74586D02*
X202016Y76622D01*
X205785Y64903D02*
Y65215D01*
X192157Y110039D02*
X192354D01*
X191905Y110292D02*
X192157Y110039D01*
X191905Y110292D02*
Y112069D01*
X215313Y88616D02*
X218307D01*
X210982Y112258D02*
X211205Y112481D01*
X200498Y116093D02*
X201365D01*
X200093Y116497D02*
X200498Y116093D01*
X200093Y116497D02*
Y117767D01*
X189764Y124707D02*
X192016D01*
X200334Y126886D02*
X201281D01*
X199861Y126413D02*
X200334Y126886D01*
X199861Y125193D02*
Y126413D01*
X223898Y124513D02*
X223945Y124467D01*
X220942Y124513D02*
X223898D01*
X219689Y64004D02*
X221232D01*
X219689Y64173D02*
Y64677D01*
X170216Y125659D02*
X170866D01*
X171228Y125297D01*
Y120682D02*
Y125297D01*
X172070Y119841D02*
X173516D01*
X171228Y120682D02*
X172070Y119841D01*
X173516Y117273D02*
X173572D01*
X172391D02*
X173516D01*
X171654Y111441D02*
X173516D01*
X171228Y111866D02*
X171654Y111441D01*
X171228Y111866D02*
Y117223D01*
X171092Y117359D02*
X171228Y117223D01*
X170216Y117359D02*
X171092D01*
X190354Y96295D02*
X193975Y96260D01*
X194016Y95313D02*
X194101Y95398D01*
X195106Y88640D02*
X198228D01*
X208805D02*
X211811D01*
X201423Y95313D02*
Y97079D01*
X192905Y112069D02*
X195166D01*
X200984Y109646D02*
X201575Y109055D01*
X214567D01*
X200984Y109646D02*
Y112069D01*
X214567Y109055D02*
X216772Y106850D01*
X219255D01*
X220866Y105740D02*
X222579D01*
X219255Y106850D02*
X220859D01*
X212008Y105760D02*
X213740D01*
X210483Y106850D02*
X211996D01*
X203346Y105760D02*
X205078D01*
X201575Y106850D02*
X203335D01*
X210936Y112229D02*
X211192Y112485D01*
X213448Y112229D02*
X215412D01*
X213192Y112485D02*
X213448Y112229D01*
X219647Y111174D02*
X221766D01*
X219094Y111727D02*
X219647Y111174D01*
X219094Y111727D02*
Y112229D01*
X221766Y111174D02*
X222310Y111719D01*
Y112288D01*
X212642Y124513D02*
X220942D01*
X169291Y58661D02*
Y58858D01*
Y70000D02*
Y70276D01*
X163386Y67244D02*
X163465Y67323D01*
X174743Y88143D02*
X174803Y88083D01*
X172860Y88143D02*
X174743D01*
X167913Y91142D02*
X169859D01*
X180315Y126566D02*
Y126575D01*
X180118Y126772D02*
X180315Y126575D01*
X172047Y122047D02*
Y124959D01*
X172611Y125523D02*
X173516D01*
X172047Y124959D02*
X172611Y125523D01*
X172047Y122047D02*
X172521Y121573D01*
X173516D01*
Y119841D02*
X176716D01*
X180124Y122466D02*
Y122627D01*
X167116Y125610D02*
X167165Y125659D01*
X172047Y116929D02*
X172391Y117273D01*
X172047Y113583D02*
Y116929D01*
Y113583D02*
X172457Y113173D01*
X173516D01*
X167913Y88083D02*
X167974Y88143D01*
X201984Y112069D02*
Y112812D01*
X202559Y113386D01*
X206945Y120472D02*
Y122441D01*
Y113906D02*
Y118435D01*
X206424Y113386D02*
X206945Y113906D01*
X202559Y113386D02*
X206424D01*
X206945Y118435D02*
Y120438D01*
Y120472D01*
X206890Y120418D02*
X206945Y120472D01*
X200984Y112069D02*
Y113189D01*
X202165Y114370D01*
X203543D01*
X203756Y114583D01*
X200102Y118878D02*
X201365D01*
X199861Y124091D02*
X201281D01*
X193819Y121968D02*
X193898Y122047D01*
X197244Y117732D02*
X200068D01*
X197263Y125193D02*
X199861D01*
X197244Y125213D02*
X197263Y125193D01*
X191961Y72638D02*
Y74213D01*
X190961Y72654D02*
Y74213D01*
X190400Y72093D02*
X190961Y72654D01*
X189961Y72815D02*
Y74213D01*
X189270Y72125D02*
X189961Y72815D01*
X192412Y76968D02*
X193004Y76376D01*
X185616Y77790D02*
X186437Y76968D01*
X187598Y74586D02*
Y76968D01*
X186437D02*
X187598D01*
X192412D01*
X195004Y72909D02*
Y74213D01*
X187666Y87235D02*
Y88572D01*
X188701Y88640D02*
X190102D01*
X190205D02*
X191622D01*
X196658Y81787D02*
X196670Y81799D01*
X194004Y87442D02*
X194211Y87235D01*
X194004Y87442D02*
Y88640D01*
X204682Y61221D02*
Y64004D01*
X205785Y61221D02*
X207283D01*
X205785Y64004D02*
X207283D01*
Y63189D02*
Y64004D01*
Y63189D02*
X207480Y62992D01*
X210234Y61988D02*
Y62798D01*
X210236Y84268D02*
Y85575D01*
X210177Y81790D02*
X210240Y81853D01*
X210203Y83235D02*
X210236Y83268D01*
X204682Y77790D02*
X205529D01*
X202472Y75580D02*
X204682Y77790D01*
X202472Y74586D02*
Y75580D01*
X218587Y61221D02*
Y64004D01*
X219689Y61221D02*
X221230D01*
X221232Y63070D02*
Y64004D01*
Y63070D02*
X221310Y62992D01*
X224199Y61988D02*
Y62979D01*
X221310Y62992D02*
X224213D01*
X219886Y71654D02*
X220603Y72370D01*
X213780Y70866D02*
Y74645D01*
X214720Y75586D01*
X215157D01*
X222332Y77790D02*
X223125D01*
X224732Y76182D01*
Y74586D02*
Y76182D01*
X229512Y90551D02*
X229528Y90567D01*
X188701Y89876D02*
X190157D01*
X195197D02*
X196654D01*
X208726Y89819D02*
X210240D01*
X215234Y89819D02*
X216732D01*
X212205Y70866D02*
Y73586D01*
X211220Y74174D02*
X211632Y74586D01*
X212192D01*
X211632Y75586D02*
X212192D01*
X211220Y72047D02*
Y74174D01*
X210583Y74537D02*
X211632Y75586D01*
X221603Y72269D02*
X222218Y71654D01*
X223052D01*
X223425Y72027D01*
X193738Y84430D02*
Y85396D01*
X210081Y119999D02*
X210240Y119841D01*
X221080Y74645D02*
Y75765D01*
X207679Y74842D02*
Y76575D01*
X221232Y65579D02*
Y66786D01*
X174803Y88083D02*
X179559D01*
X207480Y62992D02*
X212402D01*
X212683Y63274D01*
Y64313D01*
X189764Y117707D02*
X191070D01*
X191372Y72050D02*
X191961Y72638D01*
X197760Y74586D02*
X199016D01*
X199022D02*
X199980D01*
X193975Y72757D02*
Y74183D01*
X196004Y73303D02*
Y74213D01*
X161811Y90264D02*
Y97933D01*
X162697Y98819D01*
X163239D01*
X192372Y55709D02*
Y60443D01*
X225065Y61988D02*
X228937D01*
X225065Y61299D02*
X225984D01*
X225984Y61299D01*
X211100D02*
X212582D01*
X212700Y61417D01*
X192016Y124707D02*
X192517Y124206D01*
X197244D01*
X191070Y117707D02*
X192044Y116732D01*
X197244D01*
X192081Y121609D02*
X192441Y121968D01*
X212913Y84430D02*
Y87205D01*
X192081Y118974D02*
Y121609D01*
Y118974D02*
X192354Y118701D01*
X192717D01*
X162941Y89134D02*
X162992Y89083D01*
X161811Y90264D02*
X162941Y89134D01*
G54D24*
X196850Y67913D02*
Y69094D01*
X194832Y64266D02*
Y69094D01*
Y64266D02*
X195712Y63386D01*
X196850Y67913D02*
X198772Y65991D01*
X189270Y68098D02*
Y69291D01*
X187795Y66623D02*
X189270Y68098D01*
X193004Y68295D02*
Y69304D01*
X190400Y68156D02*
Y69291D01*
X188471Y66227D02*
X190400Y68156D01*
X188471Y63892D02*
Y66227D01*
X190372Y64764D02*
X190863D01*
X191122Y64505D01*
Y62411D02*
Y64505D01*
X192321Y64764D02*
X192872D01*
X192122Y64565D02*
X192321Y64764D01*
X192122Y62411D02*
Y64565D01*
X197772Y64764D02*
X198425D01*
X198522Y64667D01*
X200310Y64089D02*
Y64764D01*
X199522Y63302D02*
X200310Y64089D01*
X199522Y62411D02*
Y63302D01*
X198522Y62411D02*
Y64667D01*
X188189Y63386D02*
X190354D01*
X187795Y63780D02*
X188189Y63386D01*
X191872Y62411D02*
Y66054D01*
X192354Y66535D01*
X193004D01*
X190872Y62411D02*
Y63530D01*
X190622Y63780D02*
X190872Y63530D01*
X190622Y62411D02*
Y63118D01*
X190354Y63386D02*
X190622Y63118D01*
X188471Y63892D02*
X188583Y63780D01*
X190622D01*
X199272Y62411D02*
Y66046D01*
X199761Y66535D01*
X200262D01*
X198272Y62411D02*
Y63597D01*
X198090Y63780D02*
X198272Y63597D01*
X196075Y63780D02*
X198090D01*
X195866Y63989D02*
X196075Y63780D01*
X198022Y62411D02*
Y63118D01*
X197754Y63386D02*
X198022Y63118D01*
X195712Y63386D02*
X197754D01*
X191622Y62411D02*
Y66913D01*
X195866Y63989D02*
Y69316D01*
X198772Y62411D02*
Y65991D01*
X191622Y66913D02*
X193004Y68295D01*
X191372Y62411D02*
Y69291D01*
X187795Y63780D02*
Y66623D01*
X199016Y74586D02*
X199022D01*
Y62411D02*
Y69316D01*
G54D25*
X166142Y52362D02*
X212059D01*
X159449Y59055D02*
X166142Y52362D01*
X159449Y59055D02*
Y88386D01*
X208386Y59449D02*
X218406D01*
X219213Y57283D02*
Y58642D01*
X218406Y59449D02*
X219213Y58642D01*
X179724Y63661D02*
Y70000D01*
X169291Y63661D02*
Y70000D01*
X200423Y59449D02*
X208071D01*
X198772Y55906D02*
X207679D01*
X212059Y52362D02*
Y55906D01*
X160197Y89134D02*
X162941D01*
X163160D01*
G54D26*
X223945Y121510D02*
X231996D01*
X181609Y100351D02*
X182177Y99783D01*
Y98425D02*
Y99783D01*
X203577Y94023D02*
Y96924D01*
X196261Y94780D02*
Y95313D01*
Y97149D01*
X196260Y94669D02*
Y95313D01*
X195197Y97197D02*
X196101D01*
X196261Y95313D02*
X200022D01*
X196260D02*
X196261D01*
X200197Y94488D02*
X200662Y94023D01*
X203423Y97079D02*
X203577Y96924D01*
X200662Y94023D02*
X203577D01*
X195614D02*
X196260Y94669D01*
X193009Y94023D02*
X195614D01*
X183661D02*
X193009D01*
X183661D02*
Y101575D01*
X232026Y121500D02*
X232069Y121457D01*
X167067Y113458D02*
X170216D01*
X166929Y104370D02*
X168740D01*
X165748Y106850D02*
Y112355D01*
Y105669D02*
Y106850D01*
X193819Y118701D02*
Y121968D01*
X178395Y100351D02*
X181609D01*
X178150Y100106D02*
X178395Y100351D01*
X178150Y91732D02*
Y100106D01*
X178712Y102840D02*
X179387Y102165D01*
X178712Y102840D02*
Y106102D01*
X183071Y102165D02*
X183661Y101575D01*
X179387Y102165D02*
X183071D01*
X199772Y59283D02*
Y60443D01*
X169548Y93878D02*
X169860Y93566D01*
Y93143D02*
Y93566D01*
X167829Y93878D02*
X169548D01*
X211205Y112481D02*
Y116142D01*
X217323Y110236D02*
Y112069D01*
X210039Y119999D02*
Y125787D01*
X209422Y126405D02*
X210039Y125787D01*
X204256Y126405D02*
X209422D01*
X223945Y121510D02*
Y124467D01*
Y116616D02*
Y121510D01*
X167165Y125659D02*
X170216D01*
X173516Y117273D02*
Y118110D01*
X173910Y118504D02*
X174803D01*
X173516Y118110D02*
X173910Y118504D01*
X174803D02*
X179451D01*
X167116Y117359D02*
X170216D01*
X167116Y117359D02*
X167520D01*
X166385D02*
X167116D01*
X165748Y112355D02*
X166851Y113458D01*
X177965Y106850D02*
X178712Y106102D01*
X200197Y94488D02*
Y95313D01*
X196224Y97197D02*
X196261Y97149D01*
X169859Y86591D02*
Y87143D01*
X169311Y86043D02*
X169859Y86591D01*
X167829Y86043D02*
X169311D01*
X166358D02*
X167829D01*
X166358Y93878D02*
X167829D01*
X165945Y94291D02*
X166358Y93878D01*
X165945Y94291D02*
Y95276D01*
X165827Y85512D02*
X166358Y86043D01*
X165827Y84646D02*
Y85512D01*
X166929Y102165D02*
Y104370D01*
X177560Y91143D02*
X178150Y91732D01*
X172860Y91143D02*
X177560D01*
X172860Y89143D02*
X179606D01*
X180118Y89655D01*
Y95669D01*
X180744Y96295D01*
X202559Y97079D02*
X203423D01*
X203145Y112229D02*
X208642D01*
X217323Y110236D02*
X222135D01*
X212598D02*
X217323D01*
X208642Y112229D02*
X210936D01*
X222135Y110236D02*
X223310Y111411D01*
X211192Y111643D02*
X212598Y110236D01*
X223310Y111411D02*
Y112288D01*
X211178Y112258D02*
X211192Y111643D01*
X217292Y116790D02*
X219103D01*
X215412D02*
X217292D01*
X214764Y116142D02*
X215412Y116790D01*
X213205Y116142D02*
X214764D01*
X219103Y116790D02*
X219911Y115982D01*
X221310D01*
X223310D02*
X223945Y116616D01*
X164185Y115159D02*
X166385Y117359D01*
X163256Y115159D02*
X164185D01*
X165748Y105669D02*
X166890Y104528D01*
X168740Y105740D02*
X171407D01*
X180315Y126566D02*
X181884Y124997D01*
X174765Y126772D02*
X180118D01*
X173516Y125523D02*
X174765Y126772D01*
X176766Y121623D02*
Y123841D01*
X179120Y121623D02*
X180124Y122627D01*
X176766Y121623D02*
X179120D01*
X163269Y123409D02*
X164915D01*
X167116Y125610D01*
X167067Y122642D02*
X168150Y121559D01*
X170216D01*
X179451Y118504D02*
X180124Y119177D01*
X173516Y111441D02*
X176766D01*
Y113173D02*
Y115491D01*
X180856D01*
X181832Y116467D01*
X163376Y96673D02*
X167967D01*
X210633Y68313D02*
X212683D01*
X214764Y68339D02*
X216728D01*
X223819Y94094D02*
X226378D01*
X203779Y123841D02*
Y125928D01*
X204256Y126405D01*
X215313Y117827D02*
Y119841D01*
X210240D02*
X215313D01*
X176766Y106850D02*
X177965D01*
X199939Y59449D02*
X200423D01*
X199772Y59283D02*
X199939Y59449D01*
G54D27*
X231996Y121510D02*
Y123822D01*
X201423Y97079D02*
Y98296D01*
X185582D02*
X201423D01*
X179606Y97638D02*
Y98917D01*
X208858Y74645D02*
X209646D01*
X196670Y64764D02*
Y65730D01*
X189270Y65748D02*
X189270Y65748D01*
X189270Y64764D02*
Y65748D01*
X204682Y72998D02*
Y74645D01*
Y72998D02*
X204986D01*
X201785D02*
X204682D01*
X193975Y64764D02*
Y66506D01*
X194004Y66535D01*
X192872Y62411D02*
X197522D01*
X193975Y62441D02*
Y64764D01*
X201168Y62399D02*
X201436Y62666D01*
X192613Y62402D02*
X192622Y62411D01*
X200022D02*
X200035Y62399D01*
X201436Y62666D02*
Y64764D01*
Y72650D02*
X201785Y72998D01*
X218110Y74645D02*
Y77362D01*
X218538Y77790D01*
X220132D01*
X208858Y74645D02*
Y77471D01*
X208540Y77790D02*
X208858Y77471D01*
X207679Y77790D02*
X208540D01*
X222382Y87235D02*
X229528D01*
X222382D02*
Y88314D01*
X222080Y88616D02*
X222382Y88314D01*
X219409Y88616D02*
X222080D01*
X202016Y87235D02*
Y88338D01*
X201715Y88640D02*
X202016Y88338D01*
X199331Y88640D02*
X201715D01*
X217047Y101213D02*
X217850D01*
X217292Y113331D02*
Y115687D01*
X221310Y112288D02*
Y112942D01*
X220920Y113331D02*
X221310Y112942D01*
X219094Y113331D02*
X220920D01*
X217292D02*
X219094D01*
X215412D02*
X217292D01*
X208386Y59449D02*
Y61220D01*
X214370Y87235D02*
X220182D01*
X214210Y87394D02*
X214370Y87235D01*
X214210Y87394D02*
Y88616D01*
X217453Y84268D02*
Y87168D01*
X190372Y64764D02*
Y65730D01*
X197760Y65036D02*
Y65730D01*
X185618Y96295D02*
X190354D01*
X194101Y95398D02*
Y97197D01*
X171407Y88533D02*
Y95313D01*
X171017Y88143D02*
X171407Y88533D01*
X169860Y88143D02*
X171017D01*
X164239Y83214D02*
X165945D01*
X163160Y84293D02*
X164239Y83214D01*
X166010D02*
X167913D01*
X163160Y84293D02*
Y84843D01*
X180744Y96295D02*
X182177D01*
X195101Y100268D02*
Y101276D01*
X202423Y100150D02*
Y101360D01*
X203543Y101360D02*
X211632D01*
X212992Y100000D01*
Y96260D02*
Y100000D01*
Y96260D02*
X213780Y95472D01*
X217815Y103150D02*
X218932Y102033D01*
X225197Y97835D02*
X227181Y99819D01*
X219932Y96850D02*
Y97687D01*
X215932Y96850D02*
Y97819D01*
X216932Y98819D01*
Y99990D01*
X217932Y96850D02*
X218932D01*
X224803Y98819D02*
X226803Y100819D01*
X216932Y98819D02*
X224803D01*
X227181Y99819D02*
X229528D01*
X213780Y95472D02*
X220669D01*
X220932Y95735D01*
Y96850D01*
X218932Y99990D02*
Y102033D01*
X226803Y100819D02*
X229528D01*
X228027Y120257D02*
Y121464D01*
X167974Y89143D02*
X169860D01*
X171407Y95114D02*
Y97940D01*
X167974Y88143D02*
X169860D01*
X185616Y81790D02*
X187716D01*
X185630Y83235D02*
X187666D01*
X187716Y81790D02*
X189951D01*
X187666Y83235D02*
X189940D01*
X189961Y84214D02*
Y86024D01*
X188750Y87235D02*
X189961Y86024D01*
X187666Y87235D02*
X188750D01*
X191622Y88640D02*
Y89654D01*
X199916Y83235D02*
X202016D01*
X196690D02*
X199916D01*
X196670Y81799D02*
X199907D01*
X199916Y81790D02*
X202016D01*
X198228Y88640D02*
Y89654D01*
X205529Y81790D02*
X207679D01*
X210177D01*
X207679Y87375D02*
Y88616D01*
X208624Y87187D02*
X210236Y85575D01*
X207679Y87235D02*
X208576D01*
X205529Y83235D02*
X207679D01*
X210203D01*
X217453Y81790D02*
X222332D01*
X217453Y83235D02*
X222382D01*
X218307Y88616D02*
Y89173D01*
X218701Y89567D01*
X211811Y88640D02*
Y90069D01*
X212294Y90551D01*
X198228Y89654D02*
X200110Y91535D01*
X191622Y89654D02*
X194488Y92520D01*
X229480D01*
X200110Y91535D02*
X229496D01*
X212294Y90551D02*
X229512D01*
X218701Y89567D02*
X229528D01*
X216932Y96850D02*
Y97327D01*
X217423Y97819D01*
X225181D01*
X196180Y101457D02*
Y102283D01*
X197047Y103150D01*
X217815D01*
X163386Y59055D02*
Y66142D01*
Y59055D02*
X163780Y58661D01*
X222441Y58544D02*
Y58661D01*
Y61220D01*
X215932Y99990D02*
Y101199D01*
X200035Y62399D02*
X201168D01*
X201436Y64764D02*
Y72650D01*
X162992Y89083D02*
X167913D01*
G54D28*
X193738Y84430D02*
X194788D01*
X195004Y84214D01*
Y83409D02*
Y84214D01*
X194882Y83287D02*
X195004Y83409D01*
X194211Y83287D02*
X194882D01*
X215157D02*
X215335Y83465D01*
X214577Y83287D02*
X215157D01*
X214210Y84430D02*
X215157D01*
X214173D02*
X214210D01*
X215157D02*
X215335Y84253D01*
Y83465D02*
Y84253D01*
X208858Y74016D02*
Y74645D01*
X208703Y73860D02*
X208858Y74016D01*
X208703Y72998D02*
Y73860D01*
X210236Y71063D02*
X211220Y72047D01*
X206990Y71063D02*
X210236D01*
X207967Y70318D02*
X211656D01*
X196670Y65730D02*
X196670Y65730D01*
X197732Y61614D02*
X200000D01*
X192622D02*
Y62411D01*
X190354Y61614D02*
X192622D01*
X190122Y61846D02*
X190354Y61614D01*
X190122Y61846D02*
Y62411D01*
X222182Y74645D02*
X223004D01*
X222103Y72998D02*
Y74566D01*
X218110Y74079D02*
Y74645D01*
Y74079D02*
X218603Y73586D01*
Y72998D02*
Y73586D01*
X212120Y81787D02*
X212687D01*
X191732D02*
X192321D01*
X202953Y121260D02*
X205203D01*
X202756Y121063D02*
X202953Y121260D01*
X205203D02*
X205842Y120620D01*
X202756Y120438D02*
Y121063D01*
X202953Y121850D02*
X205252D01*
X202756Y122047D02*
X202953Y121850D01*
X205252D02*
X205842Y122441D01*
X192912Y106876D02*
Y110039D01*
X192905Y110046D02*
Y112069D01*
X203756Y114583D02*
Y120276D01*
X202756Y122047D02*
Y122476D01*
X203756Y122638D02*
Y123818D01*
X202756Y122638D02*
Y122952D01*
X202677Y123032D02*
X202756Y122952D01*
X201281Y123122D02*
Y124091D01*
Y123122D02*
X201371Y123032D01*
X202677D01*
X202756Y120079D02*
Y120438D01*
X202677Y119999D02*
X202756Y120079D01*
X201371Y118878D02*
Y119884D01*
X201486Y119999D01*
X202677D01*
X190449Y82287D02*
X192321D01*
X189951Y81790D02*
X189961Y81799D01*
X190449Y82287D01*
X190388Y82787D02*
X192321D01*
X189961Y83214D02*
X190388Y82787D01*
X189940Y83235D02*
X189961Y83214D01*
Y84214D02*
X190888Y83287D01*
X192321D01*
X194211Y81787D02*
X196658D01*
X194211Y82287D02*
X195743D01*
X196670Y83214D01*
X194211Y82787D02*
X195243D01*
X196670Y84214D01*
X210240Y81853D02*
X210671Y82283D01*
X210236Y84268D02*
X211192Y83312D01*
X211217Y83287D02*
X212687D01*
X210675Y82287D02*
X212687D01*
X210675Y82787D02*
X212687D01*
X210236Y83268D02*
X210675Y82829D01*
X214577Y81787D02*
X217323D01*
X214577Y82287D02*
X216472D01*
X217453Y83268D01*
X214577Y82787D02*
X215972D01*
X217453Y84268D01*
X219103Y72998D02*
Y74535D01*
G54D29*
X205703Y72998D02*
Y74504D01*
Y71844D02*
Y72998D01*
X217520Y65785D02*
Y67390D01*
X208203Y72325D02*
Y72998D01*
X207891Y71654D02*
X209883D01*
X210583Y72354D01*
X206203Y71850D02*
X206990Y71063D01*
X207703Y70053D02*
X207967Y70318D01*
X207203Y72325D02*
X207891Y71636D01*
X206703Y72998D02*
Y77453D01*
X210240Y80853D02*
X211186D01*
X212120Y81787D01*
X190744Y80799D02*
X191732Y81787D01*
X189961Y80799D02*
X190744D01*
X217850Y101213D02*
X217882Y101181D01*
X208203Y114370D02*
X208248D01*
X208642Y113976D01*
Y113331D02*
Y113976D01*
X204256Y119792D02*
X204802Y119246D01*
X204256Y119792D02*
Y120438D01*
X204802Y119094D02*
Y119246D01*
Y119094D02*
X204999Y118898D01*
X203256Y119792D02*
Y120438D01*
X202756Y119292D02*
X203256Y119792D01*
X204802Y122642D02*
X204921D01*
X204682D02*
X204802D01*
X204678Y122638D02*
X204682Y122642D01*
X204256Y122638D02*
X204678D01*
X202677Y123841D02*
Y124803D01*
X203256Y122638D02*
Y123122D01*
X202677Y123701D02*
X203256Y123122D01*
X202677Y123701D02*
Y123841D01*
X202423Y96063D02*
X202441Y96045D01*
Y95313D02*
Y96045D01*
X195078Y95313D02*
Y96127D01*
X219103Y69270D02*
Y70172D01*
X219094Y70180D02*
X219103Y70172D01*
X220155Y70866D02*
X221103Y69918D01*
X205703Y70270D02*
X205709Y70276D01*
X205703Y69270D02*
Y70270D01*
X220103Y72998D02*
Y76351D01*
X218099Y72218D02*
X219409D01*
X215730Y74586D02*
X218099Y72218D01*
X215157Y74586D02*
X215730D01*
X220603Y68504D02*
X221597D01*
X206703Y68217D02*
Y69270D01*
X205785Y67299D02*
X206703Y68217D01*
X205785Y66786D02*
Y67299D01*
X205645Y65354D02*
X205785Y65215D01*
X203740Y65354D02*
X205645D01*
X203543Y65551D02*
X203740Y65354D01*
X203543Y65551D02*
Y67160D01*
X219603Y68584D02*
Y69270D01*
X218504Y67486D02*
X219603Y68584D01*
X218504Y66869D02*
Y67486D01*
X220103Y67933D02*
Y69270D01*
X219689Y67520D02*
X220103Y67933D01*
X219689Y66786D02*
Y67520D01*
X221232Y66786D02*
Y68372D01*
X219689Y64004D02*
Y64173D01*
X204682Y66786D02*
Y67281D01*
X206203Y68801D01*
Y69270D01*
X205785Y64004D02*
Y64903D01*
X203543Y67160D02*
X205203Y68819D01*
Y69270D01*
X207703D02*
Y70053D01*
X206203Y71850D02*
Y72998D01*
X207203Y72325D02*
Y72998D01*
X207703D02*
Y74592D01*
X220603Y72370D02*
Y72998D01*
X219409Y72218D02*
X219603Y72411D01*
Y72998D01*
X221103Y69270D02*
Y69918D01*
Y72998D02*
Y74623D01*
X205512Y71654D02*
X205703Y71844D01*
X204507Y71654D02*
X205512D01*
X204134Y72027D02*
X204507Y71654D01*
X221603Y72269D02*
Y72998D01*
X208147Y68307D02*
X208203Y68363D01*
Y69270D01*
X207203Y68307D02*
X208147D01*
X207203Y66867D02*
Y68307D01*
Y69270D01*
X221603Y68509D02*
Y69270D01*
X220603Y68504D02*
Y69270D01*
X217520Y67390D02*
X218603Y68472D01*
Y69270D01*
X192725Y84519D02*
Y88640D01*
X202756Y119094D02*
Y119292D01*
G54D30*
X205999Y57926D02*
X206019Y57946D01*
X217414Y57926D02*
X217434Y57946D01*
X234883Y89572D02*
Y89577D01*
X234908Y57362D02*
X234790Y57244D01*
Y57008D01*
X234908Y56890D01*
X235380D01*
X235499Y57008D01*
Y57244D01*
X235380Y57362D01*
X235499Y57598D02*
X235026D01*
X234790Y57834D01*
X235026Y58070D01*
X235499D01*
X235144D01*
Y57598D01*
X235499Y58307D02*
X234790D01*
Y58661D01*
X234908Y58779D01*
X235144D01*
X235262Y58661D01*
Y58307D01*
Y58543D02*
X235499Y58779D01*
Y59015D02*
X235026D01*
X234790Y59251D01*
X235026Y59487D01*
X235499D01*
X235144D01*
Y59015D01*
X234790Y59723D02*
X235262D01*
X235499Y59960D01*
X235262Y60196D01*
X234790D01*
Y60904D02*
Y60432D01*
X235499D01*
Y60904D01*
X235144Y60432D02*
Y60668D01*
X234790Y61140D02*
X235499D01*
Y61613D01*
X234790Y61849D02*
X235499D01*
Y62321D01*
X234790Y62557D02*
Y62793D01*
Y62675D01*
X235499D01*
Y62557D01*
Y62793D01*
X235144Y63856D02*
Y64328D01*
X234790Y65273D02*
Y65509D01*
Y65391D01*
X235499D01*
Y65273D01*
Y65509D01*
Y65863D02*
X234790D01*
Y66217D01*
X234908Y66336D01*
X235144D01*
X235262Y66217D01*
Y65863D01*
Y66099D02*
X235499Y66336D01*
X234790Y66572D02*
X235380D01*
X235499Y66690D01*
Y66926D01*
X235380Y67044D01*
X234790D01*
X234908Y67752D02*
X234790Y67634D01*
Y67398D01*
X234908Y67280D01*
X235026D01*
X235144Y67398D01*
Y67634D01*
X235262Y67752D01*
X235380D01*
X235499Y67634D01*
Y67398D01*
X235380Y67280D01*
X234790Y67989D02*
Y68461D01*
Y68225D01*
X235499D01*
Y68697D02*
X235026D01*
X234790Y68933D01*
X235026Y69169D01*
X235499D01*
X235144D01*
Y68697D01*
X233215Y55906D02*
X233924D01*
Y56378D01*
X233215Y57086D02*
Y56614D01*
X233924D01*
Y57086D01*
X233570Y56614D02*
Y56850D01*
X233215Y57322D02*
Y57559D01*
Y57440D01*
X233924D01*
Y57322D01*
Y57559D01*
X233333Y58385D02*
X233215Y58267D01*
Y58031D01*
X233333Y57913D01*
X233806D01*
X233924Y58031D01*
Y58267D01*
X233806Y58385D01*
X233215Y58621D02*
Y58857D01*
Y58739D01*
X233924D01*
Y58621D01*
Y58857D01*
X233570Y59920D02*
Y60392D01*
X233215Y61809D02*
Y61337D01*
X233570D01*
Y61573D01*
Y61337D01*
X233924D01*
X233215Y62045D02*
Y62281D01*
Y62163D01*
X233924D01*
Y62045D01*
Y62281D01*
X233215Y63344D02*
X233806D01*
X233924Y63462D01*
Y63698D01*
X233806Y63816D01*
X233215D01*
X233924Y64052D02*
X233215D01*
X233924Y64525D01*
X233215D01*
Y64761D02*
X233924D01*
Y65233D01*
Y65469D02*
X233215D01*
Y65824D01*
X233333Y65942D01*
X233570D01*
X233688Y65824D01*
Y65469D01*
X233570Y66886D02*
Y67358D01*
X233924Y68775D02*
Y68303D01*
X233451Y68775D01*
X233333D01*
X233215Y68657D01*
Y68421D01*
X233333Y68303D01*
Y69012D02*
X233215Y69130D01*
Y69366D01*
X233333Y69484D01*
X233806D01*
X233924Y69366D01*
Y69130D01*
X233806Y69012D01*
X233333D01*
X233924Y69720D02*
Y69956D01*
Y69838D01*
X233215D01*
X233333Y69720D01*
X233924Y70310D02*
Y70546D01*
Y70428D01*
X233215D01*
X233333Y70310D01*
G54D31*
X209538Y72218D02*
X209646Y72325D01*
X208310Y72218D02*
X209538D01*
X208203Y72325D02*
X208310Y72218D01*
G54D32*
X209646Y72325D02*
Y72441D01*
G54D33*
X186811Y58661D02*
X188386Y60236D01*
X179724Y58661D02*
X186811D01*
X169291D02*
X179724D01*
X164173D02*
X169291D01*
G54D34*
X159202Y98763D02*
Y100859D01*
G54D35*
X222178Y69141D02*
D03*
G54D36*
X208716Y68906D02*
D03*
G54D37*
X197558Y62205D02*
D03*
X190180D02*
D03*
G54D38*
X200004D02*
D03*
X192626D02*
D03*
G54D39*
X198940Y61516D02*
D03*
X191563D02*
D03*
G54D40*
X199697Y60337D02*
D03*
G54D41*
X198108Y60335D02*
D03*
G54D42*
X189879Y59447D02*
D03*
G54D43*
X199697Y59350D02*
D03*
G54D44*
X198108Y57382D02*
D03*
G54D45*
X193055Y57874D02*
D03*
G54D46*
X219104Y56693D02*
D03*
G54D47*
X160338Y93898D02*
D03*
G54D48*
X162598Y98819D02*
D03*
G54D49*
X187856Y58858D02*
D03*
G54D50*
X189961Y74213D02*
D03*
X193819Y121968D02*
D03*
X194004Y74213D02*
D03*
X200984Y112069D02*
D03*
X223310Y115982D02*
D03*
X213205Y116142D02*
D03*
X211192Y112485D02*
D03*
X221310Y112288D02*
D03*
X169860Y93143D02*
D03*
G54D51*
X190961Y74213D02*
D03*
X191961D02*
D03*
X167116Y115981D02*
D03*
X192441Y121968D02*
D03*
X167116Y126988D02*
D03*
X229528Y93567D02*
D03*
Y92567D02*
D03*
Y91567D02*
D03*
Y90567D02*
D03*
Y99819D02*
D03*
Y100819D02*
D03*
X195004Y74213D02*
D03*
X196004D02*
D03*
X212192Y74586D02*
D03*
Y75586D02*
D03*
X215157Y74586D02*
D03*
Y73586D02*
D03*
X201984Y112069D02*
D03*
X202984D02*
D03*
X171351Y83087D02*
D03*
Y84087D02*
D03*
X221310Y115982D02*
D03*
X222310D02*
D03*
X211205Y116142D02*
D03*
X212205D02*
D03*
X213192Y112485D02*
D03*
X212192D02*
D03*
X223310Y112288D02*
D03*
X222310D02*
D03*
X163239Y117142D02*
D03*
Y116142D02*
D03*
X163239Y125440D02*
D03*
Y124440D02*
D03*
X169860Y92143D02*
D03*
Y91143D02*
D03*
Y90143D02*
D03*
Y89143D02*
D03*
Y88143D02*
D03*
Y87143D02*
D03*
X172860Y93143D02*
D03*
Y92143D02*
D03*
Y91143D02*
D03*
Y90143D02*
D03*
Y89143D02*
D03*
Y88143D02*
D03*
Y87143D02*
D03*
X192905Y112069D02*
D03*
X191905D02*
D03*
X190905D02*
D03*
X197244Y116732D02*
D03*
Y115732D02*
D03*
Y124213D02*
D03*
Y123213D02*
D03*
X159202Y100859D02*
D03*
Y110739D02*
D03*
X160973D02*
D03*
Y100859D02*
D03*
G54D52*
X192412Y110039D02*
D03*
X192912D02*
D03*
G54D53*
X193412D02*
D03*
G54D54*
X221932Y99990D02*
D03*
X220932D02*
D03*
X219932D02*
D03*
X218932D02*
D03*
X217932D02*
D03*
X216932D02*
D03*
X215932D02*
D03*
X221932Y96850D02*
D03*
X220932D02*
D03*
X219932D02*
D03*
X218932D02*
D03*
X217932D02*
D03*
X216932D02*
D03*
X182177Y98295D02*
D03*
Y97295D02*
D03*
Y96295D02*
D03*
Y95295D02*
D03*
X185583Y98295D02*
D03*
Y97295D02*
D03*
Y96295D02*
D03*
X164606Y104528D02*
D03*
X167067Y111174D02*
D03*
X167067Y120359D02*
D03*
X167829Y83248D02*
D03*
Y96673D02*
D03*
X201365Y116074D02*
D03*
X201281Y126886D02*
D03*
X193101Y97197D02*
D03*
X194101D02*
D03*
X195101D02*
D03*
X196101D02*
D03*
X193101Y100268D02*
D03*
X194101D02*
D03*
X195101D02*
D03*
X202423Y100150D02*
D03*
X201423D02*
D03*
X200423D02*
D03*
X203423Y97079D02*
D03*
X202423D02*
D03*
X201423D02*
D03*
X200423D02*
D03*
G54D55*
X215932Y96850D02*
D03*
X167067Y113458D02*
D03*
X167067Y122642D02*
D03*
X167829Y86043D02*
D03*
Y93878D02*
D03*
X201365Y118869D02*
D03*
X201281Y124091D02*
D03*
X196101Y100268D02*
D03*
X203423Y100150D02*
D03*
G54D56*
X185583Y95295D02*
D03*
X166890Y104528D02*
D03*
G54D57*
X189764Y117707D02*
D03*
X202472Y74586D02*
D03*
X224732Y74586D02*
D03*
X228027Y120257D02*
D03*
X201575Y106850D02*
D03*
X210483Y106850D02*
D03*
X219255Y106850D02*
D03*
X228027D02*
D03*
X165748Y106850D02*
D03*
X176766D02*
D03*
X192938Y106850D02*
D03*
X228027Y113554D02*
D03*
X228111Y68701D02*
D03*
X228064Y96457D02*
D03*
X227953Y74586D02*
D03*
Y79991D02*
D03*
X228064Y85396D02*
D03*
X187598Y74586D02*
D03*
X197760Y74586D02*
D03*
G54D58*
X189764Y120707D02*
D03*
Y121707D02*
D03*
Y124707D02*
D03*
X181884Y116467D02*
D03*
X180124Y119177D02*
D03*
Y122627D02*
D03*
X181884Y124997D02*
D03*
G54D59*
X232026Y121500D02*
D03*
X195872Y55699D02*
D03*
G54D60*
X232016Y119520D02*
D03*
G54D61*
X193892Y55709D02*
D03*
G54D62*
X171407Y105740D02*
D03*
Y97940D02*
D03*
G54D63*
X199166Y112069D02*
D03*
X195166D02*
D03*
X187666Y87235D02*
D03*
Y83235D02*
D03*
X185630D02*
D03*
Y87235D02*
D03*
X185616Y81790D02*
D03*
Y77790D02*
D03*
X187716D02*
D03*
Y81790D02*
D03*
X199916Y87235D02*
D03*
Y83235D02*
D03*
X202016D02*
D03*
Y87235D02*
D03*
Y81790D02*
D03*
Y77790D02*
D03*
X199916D02*
D03*
Y81790D02*
D03*
X207679Y87235D02*
D03*
Y83235D02*
D03*
X205529D02*
D03*
Y87235D02*
D03*
X205529Y81790D02*
D03*
Y77790D02*
D03*
X212683Y68313D02*
D03*
Y64313D02*
D03*
X207679Y77790D02*
D03*
Y81790D02*
D03*
X210583Y64363D02*
D03*
Y68363D02*
D03*
X220182Y87235D02*
D03*
Y83235D02*
D03*
X222382D02*
D03*
Y87235D02*
D03*
X214764Y68339D02*
D03*
Y64339D02*
D03*
X222332Y81790D02*
D03*
Y77790D02*
D03*
X216728Y64339D02*
D03*
Y68339D02*
D03*
X220132Y77790D02*
D03*
Y81790D02*
D03*
X222638Y106799D02*
D03*
Y105799D02*
D03*
X213780Y106799D02*
D03*
Y105799D02*
D03*
X205118Y106799D02*
D03*
Y105799D02*
D03*
X231799Y125228D02*
D03*
X230799D02*
D03*
G54D64*
X163160Y89134D02*
D03*
Y86988D02*
D03*
X163239Y100965D02*
D03*
Y98819D02*
D03*
G54D65*
X163160Y84843D02*
D03*
X163239Y96673D02*
D03*
G54D66*
X167116Y117359D02*
D03*
X167116Y125610D02*
D03*
X229528Y89567D02*
D03*
Y98819D02*
D03*
X212192Y73586D02*
D03*
X215157Y75586D02*
D03*
X171351Y82087D02*
D03*
X163239Y115142D02*
D03*
X163239Y123440D02*
D03*
X197244Y117732D02*
D03*
Y125213D02*
D03*
G54D67*
X167913Y88083D02*
D03*
Y89083D02*
D03*
X189961Y83214D02*
D03*
Y84214D02*
D03*
Y81799D02*
D03*
Y80799D02*
D03*
X196670Y83214D02*
D03*
Y84214D02*
D03*
Y81799D02*
D03*
Y80799D02*
D03*
X210236Y83268D02*
D03*
Y84268D02*
D03*
X210240Y81853D02*
D03*
Y80853D02*
D03*
X217453Y83268D02*
D03*
Y84268D02*
D03*
Y81853D02*
D03*
Y80853D02*
D03*
X194004Y66535D02*
D03*
X193004D02*
D03*
G54D68*
X178150Y89173D02*
D03*
Y91929D02*
D03*
X190354Y96260D02*
D03*
Y98295D02*
D03*
G54D69*
X160236Y53937D02*
D03*
Y127331D02*
D03*
X233661Y127362D02*
D03*
Y53937D02*
D03*
G54D70*
X212992Y70276D02*
D03*
X199000Y69089D02*
D03*
X196850Y69094D02*
D03*
X195866D02*
D03*
X194832D02*
D03*
X193004D02*
D03*
X191339D02*
D03*
X190400D02*
D03*
X189270D02*
D03*
X179559Y88083D02*
D03*
X179606Y98917D02*
D03*
X209646Y74645D02*
D03*
Y72441D02*
D03*
X196670Y65730D02*
D03*
X189270Y65748D02*
D03*
X223004Y74645D02*
D03*
X219103Y75394D02*
D03*
X229528Y87235D02*
D03*
X212913Y87205D02*
D03*
X192717Y87235D02*
D03*
X217882Y101181D02*
D03*
X208203Y114370D02*
D03*
X204802Y119094D02*
D03*
X202756D02*
D03*
X204802Y122642D02*
D03*
X202677Y124803D02*
D03*
X202423Y96063D02*
D03*
X195078Y96127D02*
D03*
X219094Y70180D02*
D03*
X205709Y70276D02*
D03*
X188701Y89876D02*
D03*
X195197D02*
D03*
X208726Y89819D02*
D03*
X215234Y89819D02*
D03*
X204134Y72027D02*
D03*
X223425D02*
D03*
X190372Y65730D02*
D03*
X197760D02*
D03*
X193738Y85396D02*
D03*
X214173D02*
D03*
X223819Y94094D02*
D03*
X226575D02*
D03*
X221080Y75765D02*
D03*
X207679Y76575D02*
D03*
X221232Y65579D02*
D03*
X207286Y65551D02*
D03*
X222441Y58661D02*
D03*
X225984Y61299D02*
D03*
X224213Y62992D02*
D03*
X212700Y61417D02*
D03*
X215551Y54134D02*
D03*
X209252Y62110D02*
D03*
G54D71*
X169291Y75000D02*
D03*
X179724Y63661D02*
D03*
Y75000D02*
D03*
X169291Y63661D02*
D03*
X212642Y121513D02*
D03*
X220942D02*
D03*
G54D72*
X169291Y70000D02*
D03*
X179724Y58661D02*
D03*
Y70000D02*
D03*
X169291Y58661D02*
D03*
X212642Y124513D02*
D03*
X220942D02*
D03*
G54D73*
X215354Y117707D02*
D03*
M02*
