%FSLAX24Y24*%
%MOIN*%
G70*
G01*
G75*
G04 Layer_Physical_Order=2*
G04 Layer_Color=16711680*
%ADD10O,0.0157X0.0906*%
%ADD11R,0.0157X0.0906*%
%ADD12R,0.0252X0.0850*%
%ADD13O,0.0252X0.0850*%
%ADD14R,0.2362X0.3150*%
%ADD15R,0.1083X0.0850*%
%ADD16R,0.0532X0.0472*%
%ADD17R,0.0532X0.0354*%
%ADD18O,0.0866X0.0236*%
%ADD19R,0.0480X0.0358*%
%ADD20R,0.0630X0.0709*%
%ADD21R,0.0709X0.0630*%
%ADD22O,0.0240X0.0800*%
%ADD23C,0.0394*%
%ADD24C,0.0157*%
%ADD25C,0.1969*%
%ADD26C,0.0787*%
%ADD27C,0.0591*%
%ADD28C,0.0236*%
%ADD29C,0.0252*%
%ADD30C,0.0100*%
%ADD31C,0.0276*%
%ADD32C,0.0315*%
%ADD33C,0.1181*%
%ADD34C,0.0709*%
%ADD35R,0.0409X0.2062*%
%ADD36R,0.0285X0.1791*%
%ADD37R,0.0440X0.1575*%
%ADD38R,0.0571X0.1575*%
%ADD39R,0.2325X0.0197*%
%ADD40R,0.1394X0.0989*%
%ADD41R,0.1334X0.0984*%
%ADD42R,0.2987X0.2760*%
%ADD43R,0.1394X0.1772*%
%ADD44R,0.1334X0.4921*%
%ADD45R,0.2866X0.5906*%
%ADD46R,0.2344X0.3937*%
%ADD47R,0.3733X1.1024*%
%ADD48R,0.1969X0.1181*%
%ADD49R,0.1846X0.1575*%
%ADD50R,0.0709X0.0709*%
%ADD51C,0.0709*%
%ADD52O,0.0236X0.0787*%
%ADD53R,0.0236X0.0787*%
%ADD54C,0.0433*%
%ADD55R,0.0433X0.0433*%
%ADD56R,0.0433X0.0433*%
%ADD57R,0.0787X0.0787*%
%ADD58C,0.0787*%
%ADD59C,0.0866*%
%ADD60R,0.0866X0.0866*%
%ADD61R,0.0866X0.0866*%
%ADD62C,0.1063*%
%ADD63C,0.0532*%
%ADD64C,0.0906*%
%ADD65R,0.0906X0.0906*%
%ADD66R,0.0709X0.0709*%
%ADD67C,0.0512*%
%ADD68R,0.0787X0.0787*%
%ADD69C,0.2756*%
%ADD70C,0.0591*%
%ADD71C,0.0984*%
%ADD72R,0.0984X0.0984*%
%ADD73C,0.0500*%
G36*
X178832Y89961D02*
X177557D01*
Y91142D01*
X178832D01*
Y89961D01*
D02*
G37*
G36*
X231690Y84987D02*
Y80584D01*
X228740D01*
Y80778D01*
X227366D01*
Y84609D01*
X228852D01*
Y84803D01*
X230849D01*
X230964Y84814D01*
X230964D01*
X230964Y84814D01*
X230964Y84814D01*
X231076Y84848D01*
X231178Y84903D01*
X231268Y84976D01*
X231399Y85107D01*
X231690Y84987D01*
D02*
G37*
G36*
X184252Y112008D02*
X186417Y109843D01*
Y98768D01*
X187398D01*
Y93878D01*
X181122D01*
X181102Y93898D01*
X180906Y93701D01*
Y78740D01*
X186024Y73622D01*
Y63189D01*
X186024D01*
X187795Y61417D01*
X187913Y61299D01*
X202756D01*
Y65579D01*
Y70669D01*
X236220D01*
Y51181D01*
X227508D01*
X227274Y51466D01*
X227397Y51616D01*
X227489Y51787D01*
X227534Y51936D01*
X227594Y52010D01*
X227685Y52181D01*
X227742Y52366D01*
X227761Y52559D01*
Y58071D01*
X227761Y58071D01*
X227742Y58264D01*
X227685Y58449D01*
X227594Y58620D01*
X227471Y58770D01*
X227471Y58770D01*
X226880Y59361D01*
X226731Y59484D01*
X226560Y59575D01*
X226374Y59631D01*
X226181Y59650D01*
X226181Y59650D01*
X222441D01*
X222248Y59631D01*
X222056Y59843D01*
X222051Y59889D01*
Y65551D01*
X222036Y65706D01*
X221991Y65854D01*
X221918Y65991D01*
X221819Y66111D01*
X221699Y66209D01*
X221563Y66282D01*
X221414Y66327D01*
X221260Y66342D01*
X221105Y66327D01*
X220957Y66282D01*
X220820Y66209D01*
X220700Y66111D01*
X220602Y65991D01*
X220529Y65854D01*
X220484Y65706D01*
X220469Y65551D01*
Y60634D01*
X213431D01*
X213189Y60928D01*
X213275Y61033D01*
X213339Y61152D01*
X213379Y61282D01*
X213392Y61417D01*
X213379Y61552D01*
X213339Y61682D01*
X213293Y61769D01*
Y64055D01*
X213296Y64060D01*
X213333Y64184D01*
X213346Y64313D01*
X213333Y64442D01*
X213296Y64567D01*
X213234Y64681D01*
X213152Y64782D01*
X213051Y64864D01*
X212937Y64925D01*
X212813Y64963D01*
X212683Y64976D01*
X212554Y64963D01*
X212430Y64925D01*
X212315Y64864D01*
X212215Y64782D01*
X212132Y64681D01*
X212071Y64567D01*
X212033Y64442D01*
X212021Y64313D01*
X212033Y64184D01*
X212071Y64060D01*
X212106Y63994D01*
Y61769D01*
X212060Y61682D01*
X212021Y61552D01*
X212008Y61417D01*
X212021Y61282D01*
X212060Y61152D01*
X212124Y61033D01*
X212210Y60928D01*
X211969Y60634D01*
X208105D01*
Y65605D01*
X208089Y65759D01*
X208044Y65908D01*
X207971Y66045D01*
X207873Y66165D01*
X207753Y66263D01*
X207616Y66336D01*
X207468Y66381D01*
X207313Y66396D01*
X207159Y66381D01*
X207011Y66336D01*
X206874Y66263D01*
X206754Y66165D01*
X206656Y66045D01*
X206582Y65908D01*
X206537Y65759D01*
X206522Y65605D01*
Y60634D01*
X177684D01*
X177557Y60761D01*
Y88386D01*
X178832D01*
Y88125D01*
X178847Y87971D01*
X178892Y87822D01*
X178966Y87686D01*
X179064Y87566D01*
X179184Y87467D01*
X179321Y87394D01*
X179469Y87349D01*
X179623Y87334D01*
X179778Y87349D01*
X179926Y87394D01*
X180063Y87467D01*
X180183Y87566D01*
X180281Y87686D01*
X180354Y87822D01*
X180399Y87971D01*
X180415Y88125D01*
Y96244D01*
X180674Y96504D01*
X181510D01*
D01*
X181564Y96295D01*
X181564Y96295D01*
X181564D01*
D01*
D01*
D01*
X181576Y96176D01*
X181611Y96061D01*
X181667Y95955D01*
X181744Y95862D01*
X181836Y95785D01*
X181943Y95729D01*
X182058Y95694D01*
X182177Y95682D01*
X182297Y95694D01*
X182412Y95729D01*
X182518Y95785D01*
X182611Y95862D01*
X182687Y95955D01*
X182744Y96061D01*
X182779Y96176D01*
X182790Y96295D01*
X182779Y96415D01*
X182744Y96530D01*
X182687Y96636D01*
X182622Y96716D01*
X182646Y96736D01*
X182744Y96856D01*
X182818Y96992D01*
X182863Y97141D01*
X182878Y97295D01*
X182863Y97450D01*
X182818Y97598D01*
X182744Y97735D01*
X182646Y97855D01*
X182622Y97875D01*
X182687Y97955D01*
X182744Y98061D01*
X182779Y98176D01*
X182790Y98295D01*
X182779Y98415D01*
X182744Y98530D01*
X182687Y98636D01*
X182611Y98729D01*
X182518Y98805D01*
X182412Y98862D01*
X182297Y98897D01*
X182177Y98908D01*
X182058Y98897D01*
X181943Y98862D01*
X181836Y98805D01*
X181744Y98729D01*
X181667Y98636D01*
X181611Y98530D01*
X181576Y98415D01*
X181564Y98295D01*
D01*
D01*
D01*
X181564Y98295D01*
X181564Y98295D01*
X181510Y98086D01*
X180346D01*
X180192Y98071D01*
X180044Y98026D01*
X179907Y97953D01*
X179787Y97855D01*
X179064Y97132D01*
X178966Y97012D01*
X178892Y96875D01*
X178847Y96727D01*
X178832Y96572D01*
Y92717D01*
X177557D01*
Y106850D01*
X177555Y106870D01*
X177557Y106890D01*
X177554Y106928D01*
Y107638D01*
X177014D01*
X176921Y107666D01*
X176766Y107681D01*
X173556D01*
X169478Y111759D01*
Y121022D01*
X169463Y121176D01*
X169418Y121325D01*
X169345Y121461D01*
X169247Y121581D01*
X167858Y122970D01*
Y123303D01*
X167843Y123458D01*
X167798Y123606D01*
X167725Y123743D01*
X167626Y123863D01*
X166918Y124571D01*
X167038Y124862D01*
X167864D01*
Y126358D01*
X166368D01*
Y125532D01*
X166077Y125412D01*
X165489Y126000D01*
X165369Y126098D01*
X165233Y126171D01*
X165084Y126216D01*
X164930Y126231D01*
X163239D01*
X163084Y126216D01*
X162936Y126171D01*
X162799Y126098D01*
X162679Y126000D01*
X162581Y125880D01*
X162508Y125743D01*
X162463Y125595D01*
X162447Y125440D01*
X162463Y125286D01*
X162508Y125137D01*
X162581Y125001D01*
X162679Y124881D01*
X162799Y124782D01*
X162936Y124709D01*
X163084Y124664D01*
X163239Y124649D01*
X164602D01*
X166276Y122975D01*
Y122642D01*
X166291Y122488D01*
X166336Y122339D01*
X166409Y122203D01*
X166457Y122145D01*
Y122032D01*
X166558D01*
X167896Y120694D01*
Y118107D01*
X167896D01*
X167864D01*
X167673Y118107D01*
X167673Y118107D01*
Y118107D01*
X166368D01*
Y116611D01*
X167673D01*
X167896Y116389D01*
Y114816D01*
X167701Y114656D01*
X167605Y114616D01*
X164520Y117701D01*
X164400Y117800D01*
X164263Y117873D01*
X164115Y117918D01*
X163961Y117933D01*
X163239D01*
X163084Y117918D01*
X162936Y117873D01*
X162799Y117800D01*
X162679Y117701D01*
X162581Y117581D01*
X162508Y117445D01*
X162463Y117296D01*
X162447Y117142D01*
X162463Y116987D01*
X162508Y116839D01*
X162581Y116702D01*
X162679Y116582D01*
X162799Y116484D01*
X162936Y116411D01*
X163084Y116366D01*
X163239Y116351D01*
X163633D01*
X163803Y116181D01*
X163682Y115890D01*
X162491D01*
Y114394D01*
X163987D01*
Y115585D01*
X164094Y115630D01*
D01*
X164094Y115630D01*
D01*
D01*
X164213Y115679D01*
X164213Y115679D01*
X164278Y115706D01*
X166276Y113708D01*
Y113458D01*
X166291Y113304D01*
X166336Y113155D01*
X166409Y113018D01*
X166457Y112960D01*
Y112848D01*
X166569D01*
X166627Y112800D01*
X166764Y112727D01*
X166913Y112682D01*
X167067Y112667D01*
X167221Y112682D01*
X167370Y112727D01*
X167507Y112800D01*
X167565Y112848D01*
X167673D01*
X167896Y112625D01*
Y111431D01*
X167911Y111277D01*
X167956Y111128D01*
X168029Y110991D01*
X168128Y110871D01*
X172669Y106330D01*
X172735Y106276D01*
X172789Y106232D01*
X172926Y106159D01*
X173074Y106114D01*
X173228Y106099D01*
X175975D01*
Y89424D01*
X175684Y89304D01*
X174285Y90702D01*
X174165Y90801D01*
X174029Y90874D01*
X173880Y90919D01*
X173726Y90934D01*
X173597Y90996D01*
X173597D01*
X173612Y91143D01*
X173597Y91290D01*
X173554Y91431D01*
X173485Y91561D01*
X173391Y91674D01*
X173277Y91768D01*
X173147Y91837D01*
X173006Y91880D01*
X172860Y91895D01*
X172713Y91880D01*
X172572Y91837D01*
X172442Y91768D01*
X172328Y91674D01*
X172235Y91561D01*
X172195Y91486D01*
X172052Y91465D01*
X171775Y91549D01*
X171621Y91702D01*
X171501Y91801D01*
X171365Y91874D01*
X171216Y91919D01*
X171062Y91934D01*
X167130D01*
Y93268D01*
X167130D01*
X167219D01*
X167353Y93268D01*
X167353Y93268D01*
Y93268D01*
X168439D01*
Y94488D01*
X167353D01*
X167353Y94488D01*
Y94488D01*
X167219Y94488D01*
X167130Y94577D01*
Y96022D01*
X167324Y96181D01*
X167415Y96224D01*
X167488Y96163D01*
X167594Y96107D01*
X167709Y96072D01*
X167829Y96060D01*
X167949Y96072D01*
X168064Y96107D01*
X168170Y96163D01*
X168263Y96240D01*
X168339Y96333D01*
X168395Y96439D01*
X168430Y96554D01*
X168442Y96673D01*
X168430Y96793D01*
X168395Y96908D01*
X168339Y97014D01*
X168263Y97107D01*
X168170Y97183D01*
X168064Y97240D01*
X167949Y97275D01*
X167829Y97286D01*
X167709Y97275D01*
X167594Y97240D01*
X167488Y97183D01*
X167415Y97123D01*
X167324Y97165D01*
X167130Y97325D01*
Y103649D01*
X167398Y103917D01*
X167500D01*
Y104030D01*
X167548Y104088D01*
X167621Y104225D01*
X167666Y104373D01*
X167681Y104528D01*
X167666Y104682D01*
X167621Y104830D01*
X167548Y104967D01*
X167500Y105025D01*
Y105138D01*
X167387D01*
X167329Y105185D01*
X167193Y105259D01*
X167044Y105304D01*
X166890Y105319D01*
X166735Y105304D01*
X166587Y105259D01*
X166450Y105185D01*
X166392Y105138D01*
X166280D01*
Y105036D01*
X165779Y104536D01*
X165681Y104416D01*
X165608Y104279D01*
X165563Y104131D01*
X165547Y103976D01*
Y91535D01*
X165563Y91381D01*
X165608Y91233D01*
X165681Y91096D01*
X165779Y90976D01*
X166172Y90583D01*
X166292Y90485D01*
X166428Y90412D01*
X166577Y90367D01*
X166731Y90352D01*
X170425D01*
X170631Y90114D01*
X170594Y89863D01*
X170301Y89749D01*
X170277Y89768D01*
X170147Y89837D01*
X170006Y89880D01*
X169860Y89895D01*
X169713Y89880D01*
X169572Y89837D01*
X169442Y89768D01*
X169328Y89674D01*
X169235Y89561D01*
X169165Y89431D01*
X169123Y89290D01*
X169108Y89143D01*
X169123Y88996D01*
X169165Y88855D01*
X169235Y88725D01*
X169303Y88643D01*
X169235Y88561D01*
X169165Y88431D01*
X169123Y88290D01*
X169108Y88143D01*
X169123Y87996D01*
X169165Y87855D01*
X169235Y87725D01*
X169303Y87643D01*
X169235Y87561D01*
X169165Y87431D01*
X169123Y87290D01*
X169108Y87143D01*
X169123Y86996D01*
X169165Y86855D01*
X169235Y86725D01*
X169328Y86611D01*
X169442Y86518D01*
X169572Y86448D01*
X169713Y86406D01*
X169860Y86391D01*
X170006Y86406D01*
X170147Y86448D01*
X170277Y86518D01*
X170391Y86611D01*
X170485Y86725D01*
X170554Y86855D01*
X170597Y86996D01*
X170611Y87143D01*
X170597Y87290D01*
X170554Y87431D01*
X170485Y87561D01*
X170417Y87643D01*
X170485Y87725D01*
X170554Y87855D01*
X170564Y87886D01*
X170872Y87947D01*
X170897Y87917D01*
X171231Y87583D01*
X171351Y87485D01*
X171487Y87412D01*
X171636Y87367D01*
X171790Y87352D01*
X173225D01*
Y85093D01*
X173009Y84878D01*
X171351D01*
X171196Y84863D01*
X171048Y84818D01*
X170911Y84744D01*
X170791Y84646D01*
X170693Y84526D01*
X170620Y84389D01*
X170575Y84241D01*
X170559Y84087D01*
X170575Y83932D01*
X170620Y83784D01*
X170693Y83647D01*
X170742Y83587D01*
X170693Y83526D01*
X170620Y83389D01*
X170575Y83241D01*
X170559Y83087D01*
X170575Y82932D01*
X170620Y82784D01*
X170693Y82647D01*
X170791Y82527D01*
X170911Y82429D01*
X171048Y82356D01*
X171196Y82311D01*
X171351Y82295D01*
X174041D01*
X174195Y82311D01*
X174343Y82356D01*
X174480Y82429D01*
X174600Y82527D01*
X175684Y83611D01*
X175975Y83490D01*
Y60433D01*
X175990Y60279D01*
X176035Y60130D01*
X176108Y59994D01*
X176207Y59874D01*
X176797Y59283D01*
X176917Y59185D01*
X177054Y59112D01*
X177202Y59067D01*
X177357Y59051D01*
X178839D01*
Y57776D01*
X180610D01*
Y59051D01*
X221256D01*
X221467Y58818D01*
X221452Y58661D01*
X221471Y58468D01*
X221527Y58283D01*
X221619Y58112D01*
X221742Y57962D01*
X221891Y57839D01*
X222062Y57748D01*
X222248Y57691D01*
X222441Y57672D01*
X225771D01*
X225783Y57661D01*
Y53154D01*
X194898D01*
X194881Y53171D01*
Y55709D01*
X194862Y55902D01*
X194806Y56087D01*
X194719Y56250D01*
Y56535D01*
X194433D01*
X194270Y56622D01*
X194085Y56679D01*
X193892Y56698D01*
X193699Y56679D01*
X193513Y56622D01*
X193351Y56535D01*
X193065D01*
Y56250D01*
X192978Y56087D01*
X192922Y55902D01*
X192903Y55709D01*
Y52762D01*
X192903Y52762D01*
X192922Y52569D01*
X192978Y52383D01*
X193070Y52212D01*
X193193Y52062D01*
X193624Y51631D01*
X193609Y51317D01*
X193447Y51181D01*
X157480D01*
Y129921D01*
X184252D01*
Y112008D01*
D02*
G37*
G36*
X236220Y71457D02*
X226924D01*
X226804Y71748D01*
X227134Y72078D01*
X227233Y72198D01*
X227306Y72335D01*
X227351Y72483D01*
X227366Y72638D01*
Y73799D01*
X228740D01*
Y73993D01*
X232874D01*
X232990Y74004D01*
X233101Y74038D01*
X233204Y74093D01*
X233294Y74167D01*
X233687Y74560D01*
X233761Y74650D01*
X233816Y74753D01*
X233850Y74864D01*
X233861Y74980D01*
Y90946D01*
X233850Y91062D01*
X233816Y91173D01*
X233761Y91276D01*
X233687Y91366D01*
X233066Y91987D01*
X232977Y92060D01*
X232874Y92115D01*
X232763Y92149D01*
X232647Y92160D01*
X231691D01*
X231570Y92451D01*
X231613Y92494D01*
X231686Y92584D01*
X231741Y92686D01*
X231775Y92798D01*
X231786Y92913D01*
Y96063D01*
X231775Y96179D01*
X231741Y96290D01*
X231686Y96393D01*
X231613Y96483D01*
X231219Y96876D01*
X231129Y96950D01*
X231026Y97005D01*
X230915Y97039D01*
X230799Y97050D01*
X228852D01*
Y97244D01*
X227277D01*
Y95669D01*
X228852D01*
Y95863D01*
X230553D01*
X230599Y95817D01*
Y93160D01*
X229984D01*
X229945Y93192D01*
X229815Y93261D01*
X229674Y93304D01*
X229528Y93319D01*
X229381Y93304D01*
X229240Y93261D01*
X229110Y93192D01*
X228996Y93098D01*
X228903Y92985D01*
X228833Y92855D01*
X228790Y92714D01*
X228776Y92567D01*
X228790Y92420D01*
X228833Y92279D01*
X228903Y92149D01*
X228970Y92067D01*
X228903Y91985D01*
X228833Y91855D01*
X228790Y91714D01*
X228776Y91567D01*
X228790Y91420D01*
X228833Y91279D01*
X228903Y91149D01*
X228970Y91067D01*
X228903Y90985D01*
X228833Y90855D01*
X228790Y90714D01*
X228776Y90567D01*
X228790Y90420D01*
X228810Y90356D01*
X228780Y90315D01*
X228780D01*
Y88819D01*
X230276D01*
Y88974D01*
X230706D01*
Y86092D01*
X230603Y85989D01*
X228852D01*
Y86183D01*
X227366D01*
Y94094D01*
X227351Y94249D01*
X227306Y94397D01*
X227233Y94534D01*
X227134Y94654D01*
X227014Y94752D01*
X226878Y94825D01*
X226729Y94871D01*
X226575Y94886D01*
X226420Y94871D01*
X226272Y94825D01*
X226135Y94752D01*
X226076Y94704D01*
X225791Y94838D01*
Y101050D01*
X228586Y103845D01*
X228685Y103965D01*
X228758Y104102D01*
X228803Y104251D01*
X228803Y104251D01*
X228803Y104251D01*
Y104251D01*
X228818Y104405D01*
Y106850D01*
X228818Y106850D01*
Y110162D01*
D01*
Y110162D01*
X228818D01*
D01*
Y110162D01*
X228818D01*
Y110162D01*
X228818Y110162D01*
X228818Y110162D01*
D01*
X228803Y110316D01*
X228788Y110366D01*
X228788Y110366D01*
X228758Y110465D01*
Y110465D01*
D01*
D01*
D01*
X228758Y110465D01*
X228685Y110602D01*
X228641Y110656D01*
X228586Y110721D01*
X227528Y111780D01*
X227408Y111878D01*
X227271Y111951D01*
X227123Y111996D01*
X226968Y112012D01*
X224269D01*
X224058Y112245D01*
X224062Y112288D01*
X224047Y112435D01*
X224005Y112576D01*
X223935Y112706D01*
X223842Y112820D01*
X223728Y112913D01*
X223598Y112983D01*
X223457Y113025D01*
X223310Y113040D01*
X223164Y113025D01*
X223023Y112983D01*
X222893Y112913D01*
X222841Y112871D01*
X222750Y112946D01*
X222613Y113019D01*
X222465Y113064D01*
X222310Y113079D01*
X222156Y113064D01*
X222007Y113019D01*
X221871Y112946D01*
X221751Y112848D01*
X221652Y112728D01*
X221579Y112591D01*
X221534Y112443D01*
X221519Y112288D01*
Y111636D01*
X221534Y111482D01*
X221534Y111482D01*
X221534D01*
X221579Y111333D01*
X221652Y111197D01*
X221751Y111077D01*
X222167Y110661D01*
X222286Y110563D01*
X222423Y110489D01*
X222572Y110444D01*
X222726Y110429D01*
X226641D01*
X227236Y109834D01*
Y106850D01*
X227236Y106850D01*
Y104733D01*
X224507Y102004D01*
X224216Y102125D01*
Y102559D01*
X224201Y102713D01*
X224156Y102862D01*
X224083Y102999D01*
X223985Y103119D01*
X223788Y103315D01*
X223668Y103414D01*
X223531Y103487D01*
X223383Y103532D01*
X223228Y103547D01*
X220046D01*
Y106625D01*
X220067Y106696D01*
X220083Y106850D01*
Y109843D01*
D01*
Y109843D01*
X220083D01*
D01*
Y109843D01*
X220083D01*
Y109843D01*
X220083Y109843D01*
X220083Y109843D01*
D01*
X220067Y109997D01*
X220052Y110047D01*
X220052Y110047D01*
X220022Y110145D01*
Y110145D01*
D01*
D01*
D01*
X220022Y110145D01*
X219949Y110282D01*
X219851Y110402D01*
X218473Y111780D01*
X218353Y111878D01*
X218216Y111951D01*
X218068Y111996D01*
X217913Y112012D01*
X214030D01*
X213983Y112059D01*
Y113242D01*
X215914Y115173D01*
X215968Y115239D01*
X216012Y115293D01*
X216085Y115429D01*
X216130Y115578D01*
X216146Y115732D01*
Y117707D01*
X216130Y117861D01*
X216085Y118010D01*
X216143Y118106D01*
X219011D01*
X220519Y116599D01*
Y115982D01*
X220534Y115827D01*
X220579Y115679D01*
X220652Y115542D01*
X220751Y115422D01*
X220871Y115324D01*
X221007Y115251D01*
X221156Y115205D01*
X221310Y115190D01*
X221465Y115205D01*
X221613Y115251D01*
X221750Y115324D01*
X221870Y115422D01*
X221968Y115542D01*
X222041Y115679D01*
X222086Y115827D01*
X222101Y115982D01*
Y116927D01*
X222086Y117081D01*
X222041Y117229D01*
X221968Y117366D01*
X221870Y117486D01*
X219899Y119457D01*
X219779Y119556D01*
X219642Y119629D01*
X219494Y119674D01*
X219339Y119689D01*
X208661D01*
X208507Y119674D01*
X208359Y119629D01*
X208222Y119556D01*
X208102Y119457D01*
X205543Y116898D01*
X205444Y116778D01*
X205371Y116641D01*
X205326Y116493D01*
X205311Y116339D01*
Y109186D01*
X204987Y108862D01*
X202165D01*
X202011Y108847D01*
X201863Y108802D01*
X201726Y108729D01*
X201606Y108630D01*
X201015Y108040D01*
X200917Y107920D01*
X200844Y107783D01*
X200800Y107638D01*
X200787D01*
Y107519D01*
X200784Y107480D01*
Y106850D01*
X200787Y106811D01*
Y106063D01*
X201536D01*
X201575Y106059D01*
X201613Y106063D01*
X202362D01*
Y106811D01*
X202366Y106850D01*
Y107153D01*
X202493Y107280D01*
X205315D01*
X205469Y107295D01*
X205618Y107340D01*
X205755Y107413D01*
X205874Y107511D01*
X205874Y107511D01*
X205874Y107511D01*
X206662Y108299D01*
X206760Y108419D01*
X206833Y108555D01*
X206878Y108704D01*
X206878Y108704D01*
X206878Y108704D01*
Y108704D01*
X206894Y108858D01*
Y116011D01*
X208989Y118106D01*
X213771D01*
X214578Y117861D01*
X214563Y117707D01*
Y116060D01*
X214244Y115741D01*
X213953Y115861D01*
Y116890D01*
X212457D01*
Y115394D01*
X213485D01*
X213606Y115103D01*
X212633Y114129D01*
X212534Y114010D01*
X212461Y113873D01*
X212416Y113724D01*
X212401Y113570D01*
Y111731D01*
X212416Y111577D01*
X212416Y111577D01*
X212416D01*
X212461Y111428D01*
X212534Y111292D01*
X212633Y111172D01*
X213143Y110661D01*
X213263Y110563D01*
D01*
D01*
Y110563D01*
X213263Y110563D01*
D01*
D01*
X213263D01*
X213263Y110563D01*
D01*
X213263D01*
Y110563D01*
X213400Y110489D01*
X213548Y110444D01*
X213703Y110429D01*
X217586D01*
X218500Y109515D01*
Y107638D01*
X218467D01*
Y106889D01*
X218464Y106850D01*
Y102792D01*
X218465Y102774D01*
X218464Y102756D01*
X218479Y102602D01*
X218524Y102453D01*
X218597Y102316D01*
X218695Y102196D01*
X218815Y102098D01*
X218952Y102025D01*
X219100Y101980D01*
X219255Y101965D01*
X222634D01*
Y100645D01*
X222424Y100473D01*
X222349Y100437D01*
X222272Y100500D01*
X222166Y100557D01*
X222051Y100592D01*
X221932Y100604D01*
X221812Y100592D01*
X221697Y100557D01*
X221591Y100500D01*
X221498Y100424D01*
X221422Y100331D01*
X221365Y100225D01*
X221330Y100110D01*
X221318Y99990D01*
X221330Y99871D01*
X221365Y99756D01*
X221422Y99650D01*
X221498Y99557D01*
X221591Y99481D01*
X221697Y99424D01*
X221812Y99389D01*
X221932Y99377D01*
X222051Y99389D01*
X222166Y99424D01*
X222272Y99481D01*
X222349Y99544D01*
X222424Y99508D01*
X222634Y99336D01*
Y94094D01*
X222649Y93940D01*
X222694Y93792D01*
X222767Y93655D01*
X222866Y93535D01*
X222986Y93437D01*
X223122Y93364D01*
X223271Y93318D01*
X223425Y93303D01*
X223819D01*
X223973Y93318D01*
X224209Y92542D01*
Y91856D01*
X213783D01*
Y99199D01*
X215777D01*
X215932Y99214D01*
X216080Y99259D01*
X216217Y99333D01*
X216337Y99431D01*
X216435Y99551D01*
X216498Y99557D01*
X216498Y99557D01*
X216591Y99481D01*
X216697Y99424D01*
X216812Y99389D01*
X216932Y99377D01*
X217006Y99385D01*
X217070Y99326D01*
X217239Y98769D01*
Y98072D01*
X217070Y97515D01*
X217006Y97456D01*
X216932Y97464D01*
X216812Y97452D01*
X216697Y97417D01*
X216689Y97413D01*
X216542Y97461D01*
X216542Y97461D01*
D01*
X215321D01*
Y96240D01*
X216542D01*
Y96240D01*
X216550Y96257D01*
X216542Y96240D01*
X216591Y96341D01*
D01*
X216697Y96284D01*
X216812Y96249D01*
X216932Y96237D01*
X217051Y96249D01*
X217166Y96284D01*
X217272Y96341D01*
X217365Y96417D01*
X217442Y96361D01*
Y96361D01*
X217547Y96275D01*
X217667Y96211D01*
X217797Y96171D01*
X217932Y96158D01*
X218067Y96171D01*
X218197Y96211D01*
X218316Y96275D01*
X218421Y96361D01*
Y96361D01*
X218498Y96417D01*
X218591Y96341D01*
X218697Y96284D01*
X218812Y96249D01*
X218932Y96237D01*
X219051Y96249D01*
X219166Y96284D01*
X219272Y96341D01*
X219365Y96417D01*
X219498D01*
X219591Y96341D01*
X219697Y96284D01*
X219812Y96249D01*
X219932Y96237D01*
X220051Y96249D01*
X220166Y96284D01*
X220272Y96341D01*
X220365Y96417D01*
X220498D01*
X220591Y96341D01*
X220697Y96284D01*
X220812Y96249D01*
X220932Y96237D01*
X221051Y96249D01*
X221166Y96284D01*
X221272Y96341D01*
X221365Y96417D01*
X221441Y96510D01*
X221498Y96616D01*
X221533Y96731D01*
X221545Y96850D01*
X221533Y96970D01*
X221498Y97085D01*
X221441Y97191D01*
X221365Y97284D01*
X221272Y97360D01*
X221166Y97417D01*
X221051Y97452D01*
X220932Y97464D01*
X220812Y97452D01*
X220697Y97417D01*
X220591Y97360D01*
X220498Y97284D01*
X220365D01*
X220272Y97360D01*
X220166Y97417D01*
X220051Y97452D01*
X219932Y97464D01*
X219812Y97452D01*
X219697Y97417D01*
X219591Y97360D01*
X219498Y97284D01*
X219365D01*
X219272Y97360D01*
X219166Y97417D01*
X219051Y97452D01*
X218932Y97464D01*
X218857Y97456D01*
X218793Y97515D01*
X218624Y98072D01*
Y98769D01*
X218793Y99326D01*
X218857Y99385D01*
X218932Y99377D01*
X219051Y99389D01*
X219166Y99424D01*
X219272Y99481D01*
X219365Y99557D01*
X219441Y99650D01*
X219498Y99756D01*
X219533Y99871D01*
X219545Y99990D01*
X219533Y100110D01*
X219498Y100225D01*
X219441Y100331D01*
X219365Y100424D01*
X219272Y100500D01*
X219166Y100557D01*
X219051Y100592D01*
X218932Y100604D01*
X218812Y100592D01*
X218697Y100557D01*
X218591Y100500D01*
X218498Y100424D01*
X218421Y100480D01*
Y100480D01*
X218316Y100566D01*
X218197Y100630D01*
X218067Y100669D01*
X217932Y100683D01*
X217797Y100669D01*
X217667Y100630D01*
X217547Y100566D01*
X217442Y100480D01*
Y100480D01*
X217365Y100424D01*
X217272Y100500D01*
X217166Y100557D01*
X217051Y100592D01*
X216932Y100604D01*
X216812Y100592D01*
X216697Y100557D01*
X216591Y100500D01*
X216498Y100424D01*
X216498Y100424D01*
X216435Y100430D01*
X216337Y100550D01*
X216217Y100648D01*
X216080Y100721D01*
X215932Y100766D01*
X215777Y100782D01*
X213376D01*
X213222Y100766D01*
X213073Y100721D01*
X212937Y100648D01*
X212817Y100550D01*
X212433Y100166D01*
X212334Y100046D01*
X212261Y99909D01*
X212216Y99761D01*
X212201Y99606D01*
Y91856D01*
X188703D01*
X188621Y91848D01*
X188486Y92133D01*
X188748Y92396D01*
X188847Y92515D01*
X188920Y92652D01*
X188965Y92801D01*
X188980Y92955D01*
Y93143D01*
X207874D01*
X208235Y93504D01*
X208268D01*
Y99016D01*
X207874Y99409D01*
X202950D01*
X202844Y99706D01*
X202856Y99716D01*
X202932Y99809D01*
X202989Y99915D01*
X203024Y100030D01*
X203036Y100150D01*
X203024Y100269D01*
X202989Y100384D01*
X202932Y100490D01*
X202856Y100583D01*
X202763Y100659D01*
X202657Y100716D01*
X202542Y100751D01*
X202423Y100763D01*
X202303Y100751D01*
X202188Y100716D01*
X202082Y100659D01*
X201989Y100583D01*
X201913Y100490D01*
X201856Y100384D01*
X201821Y100269D01*
X201809Y100150D01*
X201821Y100030D01*
X201856Y99915D01*
X201913Y99809D01*
X201989Y99716D01*
X202001Y99706D01*
X201895Y99409D01*
X195438D01*
X195413Y99507D01*
X195413D01*
X195361Y99715D01*
D01*
X195441Y99758D01*
X195534Y99834D01*
X195611Y99927D01*
X195667Y100033D01*
X195702Y100148D01*
X195714Y100268D01*
X195702Y100387D01*
X195667Y100502D01*
X195611Y100608D01*
X195534Y100701D01*
X195441Y100778D01*
X195335Y100834D01*
X195220Y100869D01*
X195101Y100881D01*
X194981Y100869D01*
X194866Y100834D01*
X194760Y100778D01*
X194667Y100701D01*
X194591Y100608D01*
X194534Y100502D01*
X194499Y100387D01*
X194488Y100268D01*
X194499Y100148D01*
X194534Y100033D01*
X194591Y99927D01*
X194667Y99834D01*
X194760Y99758D01*
X194840Y99715D01*
X194764Y99409D01*
X188980D01*
Y105775D01*
X189264Y106059D01*
X192938D01*
X192977Y106063D01*
X193726D01*
Y106811D01*
X193729Y106850D01*
X193726Y106889D01*
Y107638D01*
X192977D01*
X192938Y107641D01*
X188937D01*
X188782Y107626D01*
X188634Y107581D01*
X188497Y107508D01*
X188377Y107410D01*
X187630Y106662D01*
X187531Y106542D01*
X187510Y106503D01*
X187205Y106579D01*
Y110039D01*
Y110236D01*
Y110236D01*
X185039Y112402D01*
Y129884D01*
X185077Y129921D01*
X236220D01*
Y71457D01*
D02*
G37*
G36*
X207480Y98622D02*
Y93878D01*
X188980D01*
Y98768D01*
X189567D01*
Y97508D01*
X191142D01*
Y98768D01*
X207335D01*
X207480Y98622D01*
D02*
G37*
G36*
X211440Y75586D02*
X211455Y75440D01*
X211498Y75299D01*
X211567Y75169D01*
X211635Y75086D01*
X211567Y75004D01*
X211498Y74874D01*
X211455Y74733D01*
X211440Y74586D01*
X211455Y74440D01*
X211474Y74375D01*
X211444Y74334D01*
X211444D01*
Y72838D01*
D01*
Y72838D01*
X211424Y72818D01*
X210337D01*
X210304Y72881D01*
X210205Y73000D01*
X210085Y73099D01*
X209948Y73172D01*
X209800Y73217D01*
X209646Y73232D01*
X209491Y73217D01*
X209343Y73172D01*
X209206Y73099D01*
X209086Y73000D01*
X208988Y72881D01*
X208955Y72818D01*
X188339D01*
X188185Y72803D01*
X188036Y72758D01*
X187899Y72685D01*
X187780Y72587D01*
X187681Y72467D01*
X187608Y72330D01*
X187563Y72182D01*
X187561Y72164D01*
X187549Y72142D01*
X187540Y72112D01*
X187510Y72012D01*
X187497Y71877D01*
X187497Y71877D01*
X187497D01*
X187497Y71877D01*
X187497D01*
Y68828D01*
X187497Y68828D01*
X187497D01*
X187510Y68693D01*
X187540Y68593D01*
X187549Y68563D01*
X187613Y68444D01*
X187699Y68339D01*
X187699Y68339D01*
X187699Y68339D01*
X189680Y66358D01*
Y65730D01*
X189693Y65595D01*
X189733Y65465D01*
X189797Y65345D01*
X189883Y65240D01*
X189988Y65154D01*
X190107Y65090D01*
X190237Y65051D01*
X190372Y65038D01*
X190508Y65051D01*
X190637Y65090D01*
X190757Y65154D01*
X190862Y65240D01*
X190948Y65345D01*
X191012Y65465D01*
X191051Y65595D01*
X191065Y65730D01*
Y66645D01*
D01*
Y66645D01*
X191065D01*
D01*
Y66645D01*
X191065D01*
Y66645D01*
X191065Y66645D01*
X191065Y66645D01*
D01*
X191051Y66780D01*
X191038Y66823D01*
X191038Y66823D01*
X191026Y66862D01*
Y66862D01*
Y66862D01*
X191021Y66879D01*
X191012Y66910D01*
X190948Y67029D01*
X190862Y67134D01*
X189632Y68364D01*
X189647Y68467D01*
X189941Y68580D01*
X190016Y68519D01*
X190135Y68455D01*
X190265Y68415D01*
X190400Y68402D01*
X190535Y68415D01*
X190665Y68455D01*
X190785Y68519D01*
X190869Y68588D01*
X190954Y68519D01*
X191074Y68455D01*
X191204Y68415D01*
X191339Y68402D01*
X191474Y68415D01*
X191604Y68455D01*
X191723Y68519D01*
X191828Y68605D01*
X191914Y68710D01*
X191978Y68830D01*
X192014Y68947D01*
X192329D01*
X192364Y68830D01*
X192428Y68710D01*
X192514Y68605D01*
X192619Y68519D01*
X192739Y68455D01*
X192869Y68415D01*
X193004Y68402D01*
X193139Y68415D01*
X193269Y68455D01*
X193389Y68519D01*
X193493Y68605D01*
X193580Y68710D01*
X193644Y68830D01*
X193683Y68959D01*
X193696Y69094D01*
X193683Y69230D01*
X193644Y69359D01*
X193580Y69479D01*
X193493Y69584D01*
X193389Y69670D01*
X193269Y69734D01*
X193139Y69774D01*
X193004Y69787D01*
X192869Y69774D01*
X192739Y69734D01*
X192619Y69670D01*
X192514Y69584D01*
X192428Y69479D01*
X192364Y69359D01*
X192329Y69242D01*
X192014D01*
X191978Y69359D01*
X191914Y69479D01*
X191828Y69584D01*
X191723Y69670D01*
X191604Y69734D01*
X191474Y69774D01*
X191339Y69787D01*
X191204Y69774D01*
X191074Y69734D01*
X190954Y69670D01*
X190869Y69601D01*
X190785Y69670D01*
X190665Y69734D01*
X190535Y69774D01*
X190400Y69787D01*
X190265Y69774D01*
X190135Y69734D01*
X190016Y69670D01*
X189911Y69584D01*
X189760D01*
X189655Y69670D01*
X189535Y69734D01*
X189405Y69774D01*
X189270Y69787D01*
X189135Y69774D01*
X189134Y69773D01*
X188886Y69958D01*
X188881Y69966D01*
Y71236D01*
X197330D01*
Y70136D01*
X197151Y69800D01*
X197077Y69746D01*
X196985Y69774D01*
X196850Y69787D01*
X196715Y69774D01*
X196585Y69734D01*
X196466Y69670D01*
X196361Y69584D01*
X196356D01*
X196251Y69670D01*
X196131Y69734D01*
X196001Y69774D01*
X195866Y69787D01*
X195731Y69774D01*
X195601Y69734D01*
X195482Y69670D01*
X195377Y69584D01*
X195322D01*
X195217Y69670D01*
X195097Y69734D01*
X194967Y69774D01*
X194832Y69787D01*
X194697Y69774D01*
X194567Y69734D01*
X194447Y69670D01*
X194343Y69584D01*
X194256Y69479D01*
X194192Y69359D01*
X194153Y69230D01*
X194140Y69094D01*
X194153Y68959D01*
X194192Y68830D01*
X194256Y68710D01*
X194343Y68605D01*
X194447Y68519D01*
X194567Y68455D01*
X194697Y68415D01*
X194832Y68402D01*
X194967Y68415D01*
X195097Y68455D01*
X195217Y68519D01*
X195322Y68605D01*
X195377D01*
X195482Y68519D01*
X195601Y68455D01*
X195731Y68415D01*
X195866Y68402D01*
X196001Y68415D01*
X196131Y68455D01*
X196251Y68519D01*
X196356Y68605D01*
X196361D01*
X196466Y68519D01*
X196585Y68455D01*
X196715Y68415D01*
X196850Y68402D01*
X196985Y68415D01*
X197077Y68443D01*
X197151Y68389D01*
X197330Y68053D01*
Y66279D01*
X197270Y66219D01*
X197184Y66115D01*
X197120Y65995D01*
X197111Y65965D01*
X197081Y65865D01*
X197067Y65730D01*
X197081Y65595D01*
X197111Y65495D01*
X197120Y65465D01*
X197184Y65345D01*
X197270Y65240D01*
X197375Y65154D01*
X197495Y65090D01*
X197525Y65081D01*
X197625Y65051D01*
X197760Y65038D01*
X197895Y65051D01*
X197994Y65081D01*
X198025Y65090D01*
X198144Y65154D01*
X198249Y65240D01*
X198249Y65240D01*
X198249Y65240D01*
X198512Y65503D01*
X198598Y65608D01*
X198662Y65728D01*
X198671Y65758D01*
X198701Y65858D01*
X198715Y65993D01*
Y67916D01*
X198829Y68294D01*
X198948Y68402D01*
X199000Y68397D01*
X199135Y68410D01*
X199265Y68450D01*
X199384Y68514D01*
X199489Y68600D01*
X199575Y68705D01*
X199639Y68824D01*
X199679Y68954D01*
X199692Y69089D01*
X199679Y69224D01*
X199639Y69354D01*
X199575Y69474D01*
X199489Y69579D01*
X199384Y69665D01*
X199265Y69729D01*
X199135Y69768D01*
X199000Y69781D01*
X198948Y69776D01*
X198829Y69884D01*
X198715Y70262D01*
Y71236D01*
X201945D01*
X202016Y71063D01*
X202016D01*
X202016Y71063D01*
Y61811D01*
X188386D01*
X186811Y63386D01*
Y73799D01*
X188386D01*
Y75374D01*
X186811D01*
Y74427D01*
X186520Y74307D01*
X185334Y75493D01*
X185455Y75784D01*
X209436D01*
X211440Y75586D01*
D02*
G37*
G36*
X214409Y74838D02*
X214409D01*
X214440Y74797D01*
X214420Y74733D01*
X214406Y74586D01*
X214420Y74440D01*
X214463Y74299D01*
X214533Y74169D01*
X214600Y74086D01*
X214533Y74004D01*
X214463Y73874D01*
X214420Y73733D01*
X214406Y73586D01*
X214420Y73440D01*
X214463Y73299D01*
X214533Y73169D01*
X214586Y73103D01*
X214478Y72875D01*
X214432Y72818D01*
X212940D01*
Y72838D01*
X212940D01*
Y74334D01*
X212940D01*
X212910Y74375D01*
X212929Y74440D01*
X212944Y74586D01*
X212929Y74733D01*
X212886Y74874D01*
X212817Y75004D01*
X212749Y75086D01*
X212817Y75169D01*
X212886Y75299D01*
X212929Y75440D01*
X212944Y75586D01*
X212929Y75733D01*
X212967Y75784D01*
X214409D01*
Y74838D01*
D02*
G37*
G36*
X187961Y91332D02*
X187927Y91220D01*
X187912Y91065D01*
Y89878D01*
X187927Y89724D01*
X187972Y89575D01*
X188045Y89439D01*
X188144Y89319D01*
X188263Y89220D01*
X188400Y89147D01*
X188549Y89102D01*
X188703Y89087D01*
X188857Y89102D01*
X189006Y89147D01*
X189143Y89220D01*
X189263Y89319D01*
X189361Y89439D01*
X189434Y89575D01*
X189479Y89724D01*
X189494Y89878D01*
Y90274D01*
X194406D01*
Y89876D01*
X194421Y89722D01*
X194466Y89573D01*
X194539Y89436D01*
X194637Y89317D01*
X194757Y89218D01*
X194894Y89145D01*
X195042Y89100D01*
X195197Y89085D01*
X195351Y89100D01*
X195500Y89145D01*
X195636Y89218D01*
X195756Y89317D01*
X195855Y89436D01*
X195928Y89573D01*
X195973Y89722D01*
X195988Y89876D01*
Y90274D01*
X207935D01*
Y89819D01*
X207950Y89665D01*
X207995Y89516D01*
X208068Y89379D01*
X208167Y89259D01*
X208287Y89161D01*
X208423Y89088D01*
X208572Y89043D01*
X208726Y89028D01*
X208881Y89043D01*
X209029Y89088D01*
X209166Y89161D01*
X209286Y89259D01*
X209384Y89379D01*
X209457Y89516D01*
X209502Y89665D01*
X209517Y89819D01*
Y90274D01*
X214443D01*
Y89819D01*
X214458Y89665D01*
X214503Y89516D01*
X214576Y89379D01*
X214675Y89259D01*
X214794Y89161D01*
X214931Y89088D01*
X215080Y89043D01*
X215234Y89028D01*
X215388Y89043D01*
X215537Y89088D01*
X215674Y89161D01*
X215793Y89259D01*
X215892Y89379D01*
X215965Y89516D01*
X216010Y89665D01*
X216025Y89819D01*
Y90274D01*
X225000D01*
X225154Y90289D01*
X225303Y90334D01*
X225440Y90407D01*
X225499Y90456D01*
X225784Y90321D01*
Y86187D01*
X193738D01*
X193584Y86172D01*
X193435Y86127D01*
X193298Y86054D01*
X193178Y85955D01*
X193080Y85836D01*
X193007Y85699D01*
X192962Y85550D01*
X192947Y85396D01*
X192962Y85242D01*
X193007Y85093D01*
X193080Y84956D01*
X193178Y84836D01*
X193298Y84738D01*
X193435Y84665D01*
X193584Y84620D01*
X193738Y84605D01*
X195804D01*
X195872Y84568D01*
X196033Y84352D01*
X196030Y84342D01*
X196017Y84214D01*
X196030Y84087D01*
X196067Y83965D01*
X196127Y83852D01*
X196209Y83753D01*
Y83676D01*
X196127Y83577D01*
X196067Y83464D01*
X196030Y83342D01*
X196017Y83214D01*
X196030Y83087D01*
X196067Y82965D01*
X196127Y82852D01*
X196209Y82753D01*
X196307Y82672D01*
X196321Y82664D01*
Y82349D01*
X196307Y82342D01*
X196209Y82261D01*
X196127Y82162D01*
X196067Y82049D01*
X196030Y81927D01*
X196017Y81799D01*
X196030Y81672D01*
X196067Y81549D01*
X196127Y81437D01*
X196209Y81338D01*
X196307Y81256D01*
X196420Y81196D01*
X196543Y81159D01*
X196670Y81146D01*
X196797Y81159D01*
X196920Y81196D01*
X197033Y81256D01*
X197132Y81338D01*
X197213Y81437D01*
X197273Y81549D01*
X197310Y81672D01*
X197323Y81799D01*
X197310Y81927D01*
X197273Y82049D01*
X197213Y82162D01*
X197132Y82261D01*
X197033Y82342D01*
X197019Y82349D01*
Y82664D01*
X197033Y82672D01*
X197132Y82753D01*
X197213Y82852D01*
X197273Y82965D01*
X197310Y83087D01*
X197323Y83214D01*
X197310Y83342D01*
X197273Y83464D01*
X197213Y83577D01*
X197132Y83676D01*
Y83753D01*
X197213Y83852D01*
X197273Y83965D01*
X197310Y84087D01*
X197323Y84214D01*
X197310Y84342D01*
X197273Y84464D01*
X197213Y84577D01*
X197226Y84605D01*
X208905D01*
X209563Y84405D01*
X209594Y84371D01*
X209583Y84268D01*
X209596Y84140D01*
X209633Y84018D01*
X209693Y83905D01*
X209775Y83806D01*
Y83729D01*
X209693Y83630D01*
X209633Y83518D01*
X209596Y83395D01*
X209583Y83268D01*
X209596Y83140D01*
X209633Y83018D01*
X209693Y82905D01*
X209775Y82806D01*
X209874Y82725D01*
X209889Y82717D01*
Y82402D01*
X209877Y82395D01*
X209778Y82314D01*
X209697Y82215D01*
X209637Y82102D01*
X209600Y81980D01*
X209587Y81853D01*
X209600Y81725D01*
X209637Y81603D01*
X209697Y81490D01*
X209778Y81391D01*
X209877Y81310D01*
X209990Y81249D01*
X210113Y81212D01*
X210240Y81200D01*
X210367Y81212D01*
X210490Y81249D01*
X210603Y81310D01*
X210701Y81391D01*
X210783Y81490D01*
X210843Y81603D01*
X210880Y81725D01*
X210893Y81853D01*
X210880Y81980D01*
X210843Y82102D01*
X210783Y82215D01*
X210701Y82314D01*
X210603Y82395D01*
X210587Y82404D01*
Y82719D01*
X210599Y82725D01*
X210698Y82806D01*
X210779Y82905D01*
X210839Y83018D01*
X210876Y83140D01*
X210889Y83268D01*
X210876Y83395D01*
X210839Y83518D01*
X210779Y83630D01*
X210698Y83729D01*
Y83806D01*
X210779Y83905D01*
X210839Y84018D01*
X210876Y84140D01*
X210889Y84268D01*
X210876Y84395D01*
X210839Y84518D01*
X210892Y84605D01*
X216121D01*
X216780Y84405D01*
X216810Y84371D01*
X216800Y84268D01*
X216812Y84140D01*
X216850Y84018D01*
X216910Y83905D01*
X216991Y83806D01*
Y83729D01*
X216910Y83630D01*
X216850Y83518D01*
X216812Y83395D01*
X216800Y83268D01*
X216812Y83140D01*
X216850Y83018D01*
X216910Y82905D01*
X216991Y82806D01*
X217090Y82725D01*
X217104Y82718D01*
Y82403D01*
X217090Y82395D01*
X216991Y82314D01*
X216910Y82215D01*
X216850Y82102D01*
X216812Y81980D01*
X216800Y81853D01*
X216812Y81725D01*
X216850Y81603D01*
X216910Y81490D01*
X216991Y81391D01*
X217090Y81310D01*
X217203Y81249D01*
X217325Y81212D01*
X217453Y81200D01*
X217580Y81212D01*
X217702Y81249D01*
X217815Y81310D01*
X217914Y81391D01*
X217995Y81490D01*
X218056Y81603D01*
X218093Y81725D01*
X218105Y81853D01*
X218093Y81980D01*
X218056Y82102D01*
X217995Y82215D01*
X217914Y82314D01*
X217815Y82395D01*
X217801Y82403D01*
Y82718D01*
X217815Y82725D01*
X217914Y82806D01*
X217995Y82905D01*
X218056Y83018D01*
X218093Y83140D01*
X218105Y83268D01*
X218093Y83395D01*
X218056Y83518D01*
X217995Y83630D01*
X217914Y83729D01*
Y83806D01*
X217995Y83905D01*
X218056Y84018D01*
X218093Y84140D01*
X218105Y84268D01*
X218093Y84395D01*
X218056Y84518D01*
X218108Y84605D01*
X225784D01*
Y75374D01*
X225520D01*
Y75374D01*
X223945D01*
Y73799D01*
X225520D01*
Y73799D01*
X225561D01*
X225784Y73576D01*
Y72966D01*
X225636Y72818D01*
X217327D01*
Y74602D01*
X219103D01*
X219257Y74618D01*
X219405Y74663D01*
X219542Y74736D01*
X219662Y74834D01*
X219760Y74954D01*
X219834Y75091D01*
X219879Y75239D01*
X219894Y75394D01*
X219892Y75415D01*
X220176Y75549D01*
X220520Y75205D01*
X220640Y75107D01*
X220777Y75034D01*
X220926Y74989D01*
X221080Y74974D01*
X221234Y74989D01*
X221383Y75034D01*
X221519Y75107D01*
X221639Y75205D01*
X221738Y75325D01*
X221811Y75462D01*
X221856Y75610D01*
X221871Y75765D01*
X221856Y75919D01*
X221811Y76068D01*
X221738Y76204D01*
X221639Y76324D01*
X220829Y77134D01*
X220709Y77233D01*
X220573Y77306D01*
X220424Y77351D01*
X220270Y77366D01*
X206459D01*
X206284Y77459D01*
X206166Y77619D01*
X206178Y77660D01*
X206191Y77790D01*
X206178Y77919D01*
X206141Y78043D01*
X206080Y78158D01*
X205997Y78258D01*
X205897Y78341D01*
X205782Y78402D01*
X205658Y78439D01*
X205529Y78452D01*
X205399Y78439D01*
X205275Y78402D01*
X205160Y78341D01*
X205060Y78258D01*
X204978Y78158D01*
X204916Y78043D01*
X204879Y77919D01*
X204866Y77790D01*
X204879Y77660D01*
X204891Y77619D01*
X204773Y77459D01*
X204598Y77366D01*
X202946D01*
X202772Y77459D01*
X202654Y77619D01*
X202666Y77660D01*
X202679Y77790D01*
X202666Y77919D01*
X202628Y78043D01*
X202567Y78158D01*
X202485Y78258D01*
X202384Y78341D01*
X202270Y78402D01*
X202145Y78439D01*
X202016Y78452D01*
X201887Y78439D01*
X201763Y78402D01*
X201648Y78341D01*
X201548Y78258D01*
X201465Y78158D01*
X201404Y78043D01*
X201366Y77919D01*
X201354Y77790D01*
X201366Y77660D01*
X201379Y77619D01*
X201260Y77459D01*
X201086Y77366D01*
X186546D01*
X186372Y77459D01*
X186254Y77619D01*
X186266Y77660D01*
X186279Y77790D01*
X186266Y77919D01*
X186228Y78043D01*
X186167Y78158D01*
X186085Y78258D01*
X185984Y78341D01*
X185870Y78402D01*
X185745Y78439D01*
X185616Y78452D01*
X185487Y78439D01*
X185363Y78402D01*
X185248Y78341D01*
X185148Y78258D01*
X185082Y78178D01*
X185032Y78176D01*
X184436Y78494D01*
X183862Y79068D01*
Y91042D01*
X184351Y91532D01*
X187557D01*
X187711Y91547D01*
X187739Y91555D01*
X187961Y91332D01*
D02*
G37*
G36*
X183377Y92988D02*
X183434Y92852D01*
X182511Y91930D01*
X182413Y91810D01*
X182340Y91673D01*
X182295Y91524D01*
X182280Y91370D01*
Y78959D01*
X181989Y78838D01*
X181693Y79134D01*
X181697Y79138D01*
Y93143D01*
X183250D01*
X183377Y92988D01*
D02*
G37*
G36*
X232674Y79455D02*
Y75226D01*
X232628Y75180D01*
X228740D01*
Y75374D01*
X227366D01*
Y79204D01*
X228740D01*
Y79398D01*
X231960D01*
X232075Y79409D01*
X232187Y79443D01*
X232289Y79498D01*
X232379Y79571D01*
X232383Y79576D01*
X232674Y79455D01*
D02*
G37*
%LPC*%
G36*
X199916Y83897D02*
X199787Y83885D01*
X199663Y83847D01*
X199548Y83786D01*
X199448Y83703D01*
X199365Y83603D01*
X199304Y83488D01*
X199266Y83364D01*
X199254Y83235D01*
X199266Y83105D01*
X199304Y82981D01*
X199365Y82867D01*
X199448Y82766D01*
X199548Y82684D01*
X199574Y82670D01*
Y82355D01*
X199548Y82341D01*
X199448Y82258D01*
X199365Y82158D01*
X199304Y82043D01*
X199266Y81919D01*
X199254Y81790D01*
X199266Y81660D01*
X199304Y81536D01*
X199365Y81421D01*
X199448Y81321D01*
X199548Y81239D01*
X199663Y81177D01*
X199787Y81140D01*
X199916Y81127D01*
X200045Y81140D01*
X200170Y81177D01*
X200284Y81239D01*
X200385Y81321D01*
X200467Y81421D01*
X200528Y81536D01*
X200566Y81660D01*
X200579Y81790D01*
X200566Y81919D01*
X200528Y82043D01*
X200467Y82158D01*
X200385Y82258D01*
X200284Y82341D01*
X200258Y82355D01*
Y82670D01*
X200284Y82684D01*
X200385Y82766D01*
X200467Y82867D01*
X200528Y82981D01*
X200566Y83105D01*
X200579Y83235D01*
X200566Y83364D01*
X200528Y83488D01*
X200467Y83603D01*
X200385Y83703D01*
X200284Y83786D01*
X200170Y83847D01*
X200045Y83885D01*
X199916Y83897D01*
D02*
G37*
G36*
X187666D02*
X187537Y83885D01*
X187413Y83847D01*
X187298Y83786D01*
X187198Y83703D01*
X187115Y83603D01*
X187054Y83488D01*
X187016Y83364D01*
X187004Y83235D01*
X187016Y83105D01*
X187054Y82981D01*
X187115Y82867D01*
X187198Y82766D01*
X187298Y82684D01*
X187349Y82656D01*
Y82341D01*
X187348Y82341D01*
X187248Y82258D01*
X187165Y82158D01*
X187104Y82043D01*
X187066Y81919D01*
X187054Y81790D01*
X187066Y81660D01*
X187104Y81536D01*
X187165Y81421D01*
X187248Y81321D01*
X187348Y81239D01*
X187463Y81177D01*
X187587Y81140D01*
X187716Y81127D01*
X187845Y81140D01*
X187970Y81177D01*
X188084Y81239D01*
X188185Y81321D01*
X188267Y81421D01*
X188328Y81536D01*
X188366Y81660D01*
X188379Y81790D01*
X188366Y81919D01*
X188328Y82043D01*
X188267Y82158D01*
X188185Y82258D01*
X188084Y82341D01*
X188033Y82368D01*
Y82683D01*
X188034Y82684D01*
X188135Y82766D01*
X188217Y82867D01*
X188278Y82981D01*
X188316Y83105D01*
X188329Y83235D01*
X188316Y83364D01*
X188278Y83488D01*
X188217Y83603D01*
X188135Y83703D01*
X188034Y83786D01*
X187920Y83847D01*
X187795Y83885D01*
X187666Y83897D01*
D02*
G37*
G36*
X205529D02*
X205399Y83885D01*
X205275Y83847D01*
X205160Y83786D01*
X205060Y83703D01*
X204978Y83603D01*
X204916Y83488D01*
X204879Y83364D01*
X204866Y83235D01*
X204879Y83105D01*
X204916Y82981D01*
X204978Y82867D01*
X205060Y82766D01*
X205160Y82684D01*
X205187Y82670D01*
Y82355D01*
X205160Y82341D01*
X205060Y82258D01*
X204978Y82158D01*
X204916Y82043D01*
X204879Y81919D01*
X204866Y81790D01*
X204879Y81660D01*
X204916Y81536D01*
X204978Y81421D01*
X205060Y81321D01*
X205160Y81239D01*
X205275Y81177D01*
X205399Y81140D01*
X205529Y81127D01*
X205658Y81140D01*
X205782Y81177D01*
X205897Y81239D01*
X205997Y81321D01*
X206080Y81421D01*
X206141Y81536D01*
X206178Y81660D01*
X206191Y81790D01*
X206178Y81919D01*
X206141Y82043D01*
X206080Y82158D01*
X205997Y82258D01*
X205897Y82341D01*
X205870Y82355D01*
Y82670D01*
X205897Y82684D01*
X205997Y82766D01*
X206080Y82867D01*
X206141Y82981D01*
X206178Y83105D01*
X206191Y83235D01*
X206178Y83364D01*
X206141Y83488D01*
X206080Y83603D01*
X205997Y83703D01*
X205897Y83786D01*
X205782Y83847D01*
X205658Y83885D01*
X205529Y83897D01*
D02*
G37*
G36*
X202016D02*
X201887Y83885D01*
X201763Y83847D01*
X201648Y83786D01*
X201548Y83703D01*
X201465Y83603D01*
X201404Y83488D01*
X201366Y83364D01*
X201354Y83235D01*
X201366Y83105D01*
X201404Y82981D01*
X201465Y82867D01*
X201548Y82766D01*
X201648Y82684D01*
X201674Y82670D01*
Y82355D01*
X201648Y82341D01*
X201548Y82258D01*
X201465Y82158D01*
X201404Y82043D01*
X201366Y81919D01*
X201354Y81790D01*
X201366Y81660D01*
X201404Y81536D01*
X201465Y81421D01*
X201548Y81321D01*
X201648Y81239D01*
X201763Y81177D01*
X201887Y81140D01*
X202016Y81127D01*
X202145Y81140D01*
X202270Y81177D01*
X202384Y81239D01*
X202485Y81321D01*
X202567Y81421D01*
X202628Y81536D01*
X202666Y81660D01*
X202679Y81790D01*
X202666Y81919D01*
X202628Y82043D01*
X202567Y82158D01*
X202485Y82258D01*
X202384Y82341D01*
X202358Y82355D01*
Y82670D01*
X202384Y82684D01*
X202485Y82766D01*
X202567Y82867D01*
X202628Y82981D01*
X202666Y83105D01*
X202679Y83235D01*
X202666Y83364D01*
X202628Y83488D01*
X202567Y83603D01*
X202485Y83703D01*
X202384Y83786D01*
X202270Y83847D01*
X202145Y83885D01*
X202016Y83897D01*
D02*
G37*
G36*
X185630D02*
X185501Y83885D01*
X185376Y83847D01*
X185262Y83786D01*
X185161Y83703D01*
X185079Y83603D01*
X185018Y83488D01*
X184980Y83364D01*
X184967Y83235D01*
X184980Y83105D01*
X185018Y82981D01*
X185079Y82867D01*
X185161Y82766D01*
X185262Y82684D01*
X185281Y82673D01*
Y82358D01*
X185248Y82341D01*
X185148Y82258D01*
X185065Y82158D01*
X185004Y82043D01*
X184966Y81919D01*
X184954Y81790D01*
X184966Y81660D01*
X185004Y81536D01*
X185065Y81421D01*
X185148Y81321D01*
X185248Y81239D01*
X185363Y81177D01*
X185487Y81140D01*
X185616Y81127D01*
X185745Y81140D01*
X185870Y81177D01*
X185984Y81239D01*
X186085Y81321D01*
X186167Y81421D01*
X186228Y81536D01*
X186266Y81660D01*
X186279Y81790D01*
X186266Y81919D01*
X186228Y82043D01*
X186167Y82158D01*
X186085Y82258D01*
X185984Y82341D01*
X185965Y82351D01*
Y82666D01*
X185998Y82684D01*
X186098Y82766D01*
X186181Y82867D01*
X186242Y82981D01*
X186280Y83105D01*
X186293Y83235D01*
X186280Y83364D01*
X186242Y83488D01*
X186181Y83603D01*
X186098Y83703D01*
X185998Y83786D01*
X185884Y83847D01*
X185759Y83885D01*
X185630Y83897D01*
D02*
G37*
G36*
X230799Y125890D02*
X230670Y125877D01*
X230546Y125840D01*
X230431Y125779D01*
X230331Y125696D01*
X230248Y125596D01*
X230187Y125481D01*
X230149Y125357D01*
X230137Y125228D01*
X230149Y125098D01*
X230187Y124974D01*
X230248Y124859D01*
X230331Y124759D01*
X230431Y124677D01*
X230546Y124615D01*
X230670Y124578D01*
X230799Y124565D01*
X230928Y124578D01*
X231053Y124615D01*
X231167Y124677D01*
X231268Y124759D01*
X231350Y124859D01*
X231411Y124974D01*
X231449Y125098D01*
X231462Y125228D01*
X231449Y125357D01*
X231411Y125481D01*
X231350Y125596D01*
X231268Y125696D01*
X231167Y125779D01*
X231053Y125840D01*
X230928Y125877D01*
X230799Y125890D01*
D02*
G37*
G36*
X160236Y129107D02*
X160004Y129091D01*
X159777Y129046D01*
X159557Y128971D01*
X159348Y128869D01*
X159155Y128740D01*
X158981Y128587D01*
X158828Y128412D01*
X158699Y128219D01*
X158596Y128011D01*
X158521Y127791D01*
X158476Y127563D01*
X158461Y127331D01*
X158476Y127099D01*
X158521Y126872D01*
X158596Y126652D01*
X158699Y126443D01*
X158828Y126250D01*
X158981Y126076D01*
X159155Y125923D01*
X159348Y125794D01*
X159557Y125691D01*
X159777Y125616D01*
X160004Y125571D01*
X160236Y125556D01*
X160468Y125571D01*
X160696Y125616D01*
X160916Y125691D01*
X161124Y125794D01*
X161317Y125923D01*
X161492Y126076D01*
X161645Y126250D01*
X161774Y126443D01*
X161877Y126652D01*
X161951Y126872D01*
X161996Y127099D01*
X162012Y127331D01*
X161996Y127563D01*
X161951Y127791D01*
X161877Y128011D01*
X161774Y128219D01*
X161645Y128412D01*
X161492Y128587D01*
X161317Y128740D01*
X161124Y128869D01*
X160916Y128971D01*
X160696Y129046D01*
X160468Y129091D01*
X160236Y129107D01*
D02*
G37*
G36*
X181884Y125788D02*
X181729Y125773D01*
X181581Y125728D01*
X181444Y125655D01*
X181324Y125557D01*
X181226Y125437D01*
X181153Y125300D01*
X181108Y125151D01*
X181093Y124997D01*
X181108Y124843D01*
X181153Y124694D01*
X181226Y124558D01*
X181324Y124438D01*
X181444Y124339D01*
X181581Y124266D01*
X181729Y124221D01*
X181884Y124206D01*
X182038Y124221D01*
X182187Y124266D01*
X182323Y124339D01*
X182443Y124438D01*
X182542Y124558D01*
X182615Y124694D01*
X182660Y124843D01*
X182675Y124997D01*
X182660Y125151D01*
X182615Y125300D01*
X182542Y125437D01*
X182443Y125557D01*
X182323Y125655D01*
X182187Y125728D01*
X182038Y125773D01*
X181884Y125788D01*
D02*
G37*
G36*
X222332Y78452D02*
X222203Y78439D01*
X222079Y78402D01*
X221964Y78341D01*
X221864Y78258D01*
X221781Y78158D01*
X221720Y78043D01*
X221682Y77919D01*
X221670Y77790D01*
X221682Y77660D01*
X221720Y77536D01*
X221781Y77421D01*
X221864Y77321D01*
X221964Y77239D01*
X222079Y77177D01*
X222203Y77140D01*
X222332Y77127D01*
X222462Y77140D01*
X222586Y77177D01*
X222700Y77239D01*
X222801Y77321D01*
X222883Y77421D01*
X222944Y77536D01*
X222982Y77660D01*
X222995Y77790D01*
X222982Y77919D01*
X222944Y78043D01*
X222883Y78158D01*
X222801Y78258D01*
X222700Y78341D01*
X222586Y78402D01*
X222462Y78439D01*
X222332Y78452D01*
D02*
G37*
G36*
X207679Y83897D02*
X207549Y83885D01*
X207425Y83847D01*
X207310Y83786D01*
X207210Y83703D01*
X207128Y83603D01*
X207066Y83488D01*
X207029Y83364D01*
X207016Y83235D01*
X207029Y83105D01*
X207066Y82981D01*
X207128Y82867D01*
X207210Y82766D01*
X207310Y82684D01*
X207337Y82670D01*
Y82355D01*
X207310Y82341D01*
X207210Y82258D01*
X207128Y82158D01*
X207066Y82043D01*
X207029Y81919D01*
X207016Y81790D01*
X207029Y81660D01*
X207066Y81536D01*
X207128Y81421D01*
X207210Y81321D01*
X207310Y81239D01*
X207425Y81177D01*
X207549Y81140D01*
X207679Y81127D01*
X207808Y81140D01*
X207932Y81177D01*
X208047Y81239D01*
X208147Y81321D01*
X208230Y81421D01*
X208291Y81536D01*
X208328Y81660D01*
X208341Y81790D01*
X208328Y81919D01*
X208291Y82043D01*
X208230Y82158D01*
X208147Y82258D01*
X208047Y82341D01*
X208020Y82355D01*
Y82670D01*
X208047Y82684D01*
X208147Y82766D01*
X208230Y82867D01*
X208291Y82981D01*
X208328Y83105D01*
X208341Y83235D01*
X208328Y83364D01*
X208291Y83488D01*
X208230Y83603D01*
X208147Y83703D01*
X208047Y83786D01*
X207932Y83847D01*
X207808Y83885D01*
X207679Y83897D01*
D02*
G37*
G36*
X187666Y87897D02*
X187537Y87885D01*
X187413Y87847D01*
X187298Y87786D01*
X187198Y87703D01*
X187115Y87603D01*
X187054Y87488D01*
X187016Y87364D01*
X187004Y87235D01*
X187016Y87105D01*
X187054Y86981D01*
X187115Y86867D01*
X187198Y86766D01*
X187298Y86684D01*
X187413Y86622D01*
X187537Y86585D01*
X187666Y86572D01*
X187795Y86585D01*
X187920Y86622D01*
X188034Y86684D01*
X188135Y86766D01*
X188217Y86867D01*
X188278Y86981D01*
X188316Y87105D01*
X188329Y87235D01*
X188316Y87364D01*
X188278Y87488D01*
X188217Y87603D01*
X188135Y87703D01*
X188034Y87786D01*
X187920Y87847D01*
X187795Y87885D01*
X187666Y87897D01*
D02*
G37*
G36*
X168439Y86654D02*
X167219D01*
Y85433D01*
X168439D01*
Y86654D01*
D02*
G37*
G36*
X207679Y87897D02*
X207549Y87885D01*
X207425Y87847D01*
X207310Y87786D01*
X207210Y87703D01*
X207128Y87603D01*
X207066Y87488D01*
X207029Y87364D01*
X207016Y87235D01*
X207029Y87105D01*
X207066Y86981D01*
X207128Y86867D01*
X207210Y86766D01*
X207310Y86684D01*
X207425Y86622D01*
X207549Y86585D01*
X207679Y86572D01*
X207808Y86585D01*
X207932Y86622D01*
X208047Y86684D01*
X208147Y86766D01*
X208230Y86867D01*
X208291Y86981D01*
X208328Y87105D01*
X208341Y87235D01*
X208328Y87364D01*
X208291Y87488D01*
X208230Y87603D01*
X208147Y87703D01*
X208047Y87786D01*
X207932Y87847D01*
X207808Y87885D01*
X207679Y87897D01*
D02*
G37*
G36*
X199916D02*
X199787Y87885D01*
X199663Y87847D01*
X199548Y87786D01*
X199448Y87703D01*
X199365Y87603D01*
X199304Y87488D01*
X199266Y87364D01*
X199254Y87235D01*
X199266Y87105D01*
X199304Y86981D01*
X199365Y86867D01*
X199448Y86766D01*
X199548Y86684D01*
X199663Y86622D01*
X199787Y86585D01*
X199916Y86572D01*
X200045Y86585D01*
X200170Y86622D01*
X200284Y86684D01*
X200385Y86766D01*
X200467Y86867D01*
X200528Y86981D01*
X200566Y87105D01*
X200579Y87235D01*
X200566Y87364D01*
X200528Y87488D01*
X200467Y87603D01*
X200385Y87703D01*
X200284Y87786D01*
X200170Y87847D01*
X200045Y87885D01*
X199916Y87897D01*
D02*
G37*
G36*
X221828Y125399D02*
X220056D01*
Y123628D01*
X221828D01*
Y125399D01*
D02*
G37*
G36*
X222382Y83897D02*
X222253Y83885D01*
X222129Y83847D01*
X222014Y83786D01*
X221914Y83703D01*
X221831Y83603D01*
X221770Y83488D01*
X221732Y83364D01*
X221720Y83235D01*
X221732Y83105D01*
X221770Y82981D01*
X221831Y82867D01*
X221914Y82766D01*
X222014Y82684D01*
X222015Y82683D01*
Y82368D01*
X221964Y82341D01*
X221864Y82258D01*
X221781Y82158D01*
X221720Y82043D01*
X221682Y81919D01*
X221670Y81790D01*
X221682Y81660D01*
X221720Y81536D01*
X221781Y81421D01*
X221864Y81321D01*
X221964Y81239D01*
X222079Y81177D01*
X222203Y81140D01*
X222332Y81127D01*
X222462Y81140D01*
X222586Y81177D01*
X222700Y81239D01*
X222801Y81321D01*
X222883Y81421D01*
X222944Y81536D01*
X222982Y81660D01*
X222995Y81790D01*
X222982Y81919D01*
X222944Y82043D01*
X222883Y82158D01*
X222801Y82258D01*
X222700Y82341D01*
X222699Y82341D01*
Y82656D01*
X222750Y82684D01*
X222851Y82766D01*
X222933Y82867D01*
X222994Y82981D01*
X223032Y83105D01*
X223045Y83235D01*
X223032Y83364D01*
X222994Y83488D01*
X222933Y83603D01*
X222851Y83703D01*
X222750Y83786D01*
X222636Y83847D01*
X222512Y83885D01*
X222382Y83897D01*
D02*
G37*
G36*
X220182D02*
X220053Y83885D01*
X219929Y83847D01*
X219814Y83786D01*
X219714Y83703D01*
X219631Y83603D01*
X219570Y83488D01*
X219532Y83364D01*
X219520Y83235D01*
X219532Y83105D01*
X219570Y82981D01*
X219631Y82867D01*
X219714Y82766D01*
X219814Y82684D01*
X219816Y82683D01*
Y82368D01*
X219764Y82341D01*
X219664Y82258D01*
X219581Y82158D01*
X219520Y82043D01*
X219482Y81919D01*
X219470Y81790D01*
X219482Y81660D01*
X219520Y81536D01*
X219581Y81421D01*
X219664Y81321D01*
X219764Y81239D01*
X219879Y81177D01*
X220003Y81140D01*
X220132Y81127D01*
X220262Y81140D01*
X220386Y81177D01*
X220500Y81239D01*
X220601Y81321D01*
X220683Y81421D01*
X220744Y81536D01*
X220782Y81660D01*
X220795Y81790D01*
X220782Y81919D01*
X220744Y82043D01*
X220683Y82158D01*
X220601Y82258D01*
X220500Y82341D01*
X220499Y82341D01*
Y82656D01*
X220550Y82684D01*
X220651Y82766D01*
X220733Y82867D01*
X220794Y82981D01*
X220832Y83105D01*
X220845Y83235D01*
X220832Y83364D01*
X220794Y83488D01*
X220733Y83603D01*
X220651Y83703D01*
X220550Y83786D01*
X220436Y83847D01*
X220312Y83885D01*
X220182Y83897D01*
D02*
G37*
G36*
X167829Y83861D02*
X167709Y83849D01*
X167594Y83815D01*
X167488Y83758D01*
X167395Y83682D01*
X167319Y83589D01*
X167262Y83483D01*
X167227Y83368D01*
X167216Y83248D01*
X167227Y83128D01*
X167262Y83013D01*
X167319Y82907D01*
X167395Y82814D01*
X167488Y82738D01*
X167594Y82682D01*
X167709Y82647D01*
X167829Y82635D01*
X167949Y82647D01*
X168064Y82682D01*
X168170Y82738D01*
X168263Y82814D01*
X168339Y82907D01*
X168395Y83013D01*
X168430Y83128D01*
X168442Y83248D01*
X168430Y83368D01*
X168395Y83483D01*
X168339Y83589D01*
X168263Y83682D01*
X168170Y83758D01*
X168064Y83815D01*
X167949Y83849D01*
X167829Y83861D01*
D02*
G37*
G36*
X189961Y84867D02*
X189833Y84855D01*
X189711Y84817D01*
X189598Y84757D01*
X189499Y84676D01*
X189418Y84577D01*
X189358Y84464D01*
X189320Y84342D01*
X189308Y84214D01*
X189320Y84087D01*
X189358Y83965D01*
X189418Y83852D01*
X189499Y83753D01*
Y83676D01*
X189418Y83577D01*
X189358Y83464D01*
X189320Y83342D01*
X189308Y83214D01*
X189320Y83087D01*
X189358Y82965D01*
X189418Y82852D01*
X189499Y82753D01*
X189598Y82672D01*
X189612Y82664D01*
Y82349D01*
X189598Y82342D01*
X189499Y82261D01*
X189418Y82162D01*
X189358Y82049D01*
X189320Y81927D01*
X189308Y81799D01*
X189320Y81672D01*
X189358Y81549D01*
X189418Y81437D01*
X189499Y81338D01*
X189598Y81256D01*
X189711Y81196D01*
X189833Y81159D01*
X189961Y81146D01*
X190088Y81159D01*
X190210Y81196D01*
X190323Y81256D01*
X190422Y81338D01*
X190503Y81437D01*
X190564Y81549D01*
X190601Y81672D01*
X190613Y81799D01*
X190601Y81927D01*
X190564Y82049D01*
X190503Y82162D01*
X190422Y82261D01*
X190323Y82342D01*
X190310Y82349D01*
Y82664D01*
X190323Y82672D01*
X190422Y82753D01*
X190503Y82852D01*
X190564Y82965D01*
X190601Y83087D01*
X190613Y83214D01*
X190601Y83342D01*
X190564Y83464D01*
X190503Y83577D01*
X190422Y83676D01*
Y83753D01*
X190503Y83852D01*
X190564Y83965D01*
X190601Y84087D01*
X190613Y84214D01*
X190601Y84342D01*
X190564Y84464D01*
X190503Y84577D01*
X190422Y84676D01*
X190323Y84757D01*
X190210Y84817D01*
X190088Y84855D01*
X189961Y84867D01*
D02*
G37*
G36*
X214764Y65001D02*
X214634Y64988D01*
X214510Y64951D01*
X214396Y64890D01*
X214295Y64807D01*
X214213Y64707D01*
X214152Y64592D01*
X214114Y64468D01*
X214101Y64339D01*
X214114Y64209D01*
X214152Y64085D01*
X214213Y63970D01*
X214295Y63870D01*
X214396Y63788D01*
X214510Y63726D01*
X214634Y63689D01*
X214764Y63676D01*
X214893Y63689D01*
X215017Y63726D01*
X215132Y63788D01*
X215232Y63870D01*
X215315Y63970D01*
X215376Y64085D01*
X215414Y64209D01*
X215426Y64339D01*
X215414Y64468D01*
X215376Y64592D01*
X215315Y64707D01*
X215232Y64807D01*
X215132Y64890D01*
X215017Y64951D01*
X214893Y64988D01*
X214764Y65001D01*
D02*
G37*
G36*
X179724Y64552D02*
X179551Y64534D01*
X179384Y64484D01*
X179230Y64402D01*
X179095Y64291D01*
X178984Y64156D01*
X178902Y64002D01*
X178851Y63835D01*
X178834Y63661D01*
X178851Y63488D01*
X178902Y63321D01*
X178984Y63167D01*
X179095Y63032D01*
X179230Y62921D01*
X179384Y62839D01*
X179551Y62788D01*
X179724Y62771D01*
X179898Y62788D01*
X180065Y62839D01*
X180219Y62921D01*
X180354Y63032D01*
X180465Y63167D01*
X180547Y63321D01*
X180597Y63488D01*
X180615Y63661D01*
X180597Y63835D01*
X180547Y64002D01*
X180465Y64156D01*
X180354Y64291D01*
X180219Y64402D01*
X180065Y64484D01*
X179898Y64534D01*
X179724Y64552D01*
D02*
G37*
G36*
X212683Y68976D02*
X212554Y68963D01*
X212430Y68925D01*
X212315Y68864D01*
X212215Y68782D01*
X212132Y68681D01*
X212071Y68567D01*
X212033Y68442D01*
X212021Y68313D01*
X212033Y68184D01*
X212071Y68060D01*
X212132Y67945D01*
X212215Y67845D01*
X212315Y67762D01*
X212430Y67701D01*
X212554Y67663D01*
X212683Y67651D01*
X212813Y67663D01*
X212937Y67701D01*
X213051Y67762D01*
X213152Y67845D01*
X213234Y67945D01*
X213296Y68060D01*
X213333Y68184D01*
X213346Y68313D01*
X213333Y68442D01*
X213296Y68567D01*
X213234Y68681D01*
X213152Y68782D01*
X213051Y68864D01*
X212937Y68925D01*
X212813Y68963D01*
X212683Y68976D01*
D02*
G37*
G36*
X193004Y67188D02*
X192877Y67176D01*
X192754Y67138D01*
X192641Y67078D01*
X192542Y66997D01*
X192461Y66898D01*
X192401Y66785D01*
X192364Y66663D01*
X192351Y66535D01*
X192364Y66408D01*
X192401Y66286D01*
X192461Y66173D01*
X192542Y66074D01*
X192641Y65993D01*
X192754Y65932D01*
X192877Y65895D01*
X193004Y65883D01*
X193131Y65895D01*
X193254Y65932D01*
X193367Y65993D01*
X193465Y66074D01*
X193547Y66173D01*
X193607Y66286D01*
X193644Y66408D01*
X193657Y66535D01*
X193644Y66663D01*
X193607Y66785D01*
X193547Y66898D01*
X193465Y66997D01*
X193367Y67078D01*
X193254Y67138D01*
X193131Y67176D01*
X193004Y67188D01*
D02*
G37*
G36*
X169291Y64552D02*
X169118Y64534D01*
X168951Y64484D01*
X168797Y64402D01*
X168662Y64291D01*
X168551Y64156D01*
X168469Y64002D01*
X168418Y63835D01*
X168401Y63661D01*
X168418Y63488D01*
X168469Y63321D01*
X168551Y63167D01*
X168662Y63032D01*
X168797Y62921D01*
X168951Y62839D01*
X169118Y62788D01*
X169291Y62771D01*
X169465Y62788D01*
X169632Y62839D01*
X169786Y62921D01*
X169921Y63032D01*
X170031Y63167D01*
X170114Y63321D01*
X170164Y63488D01*
X170181Y63661D01*
X170164Y63835D01*
X170114Y64002D01*
X170031Y64156D01*
X169921Y64291D01*
X169786Y64402D01*
X169632Y64484D01*
X169465Y64534D01*
X169291Y64552D01*
D02*
G37*
G36*
X233661Y55712D02*
X233430Y55697D01*
X233202Y55652D01*
X232982Y55577D01*
X232774Y55475D01*
X232581Y55346D01*
X232406Y55192D01*
X232253Y55018D01*
X232124Y54825D01*
X232021Y54616D01*
X231946Y54397D01*
X231901Y54169D01*
X231886Y53937D01*
X231901Y53705D01*
X231946Y53477D01*
X232021Y53258D01*
X232124Y53049D01*
X232253Y52856D01*
X232406Y52682D01*
X232581Y52528D01*
X232774Y52399D01*
X232982Y52297D01*
X233202Y52222D01*
X233430Y52177D01*
X233661Y52162D01*
X233893Y52177D01*
X234121Y52222D01*
X234341Y52297D01*
X234549Y52399D01*
X234742Y52528D01*
X234917Y52682D01*
X235070Y52856D01*
X235199Y53049D01*
X235302Y53258D01*
X235376Y53477D01*
X235422Y53705D01*
X235437Y53937D01*
X235422Y54169D01*
X235376Y54397D01*
X235302Y54616D01*
X235199Y54825D01*
X235070Y55018D01*
X234917Y55192D01*
X234742Y55346D01*
X234549Y55475D01*
X234341Y55577D01*
X234121Y55652D01*
X233893Y55697D01*
X233661Y55712D01*
D02*
G37*
G36*
X160236D02*
X160004Y55697D01*
X159777Y55652D01*
X159557Y55577D01*
X159348Y55475D01*
X159155Y55346D01*
X158981Y55192D01*
X158828Y55018D01*
X158699Y54825D01*
X158596Y54616D01*
X158521Y54397D01*
X158476Y54169D01*
X158461Y53937D01*
X158476Y53705D01*
X158521Y53477D01*
X158596Y53258D01*
X158699Y53049D01*
X158828Y52856D01*
X158981Y52682D01*
X159155Y52528D01*
X159348Y52399D01*
X159557Y52297D01*
X159777Y52222D01*
X160004Y52177D01*
X160236Y52162D01*
X160468Y52177D01*
X160696Y52222D01*
X160916Y52297D01*
X161124Y52399D01*
X161317Y52528D01*
X161492Y52682D01*
X161645Y52856D01*
X161774Y53049D01*
X161877Y53258D01*
X161951Y53477D01*
X161996Y53705D01*
X162012Y53937D01*
X161996Y54169D01*
X161951Y54397D01*
X161877Y54616D01*
X161774Y54825D01*
X161645Y55018D01*
X161492Y55192D01*
X161317Y55346D01*
X161124Y55475D01*
X160916Y55577D01*
X160696Y55652D01*
X160468Y55697D01*
X160236Y55712D01*
D02*
G37*
G36*
X224213Y63684D02*
X224078Y63671D01*
X223948Y63632D01*
X223828Y63568D01*
X223723Y63482D01*
X223637Y63377D01*
X223573Y63257D01*
X223534Y63127D01*
X223520Y62992D01*
X223534Y62857D01*
X223573Y62727D01*
X223637Y62607D01*
X223723Y62503D01*
X223828Y62416D01*
X223948Y62353D01*
X224078Y62313D01*
X224213Y62300D01*
X224348Y62313D01*
X224478Y62353D01*
X224564Y62399D01*
X225391D01*
Y61651D01*
X225345Y61564D01*
X225305Y61434D01*
X225292Y61299D01*
X225305Y61164D01*
X225345Y61034D01*
X225409Y60915D01*
X225495Y60810D01*
X225600Y60724D01*
X225719Y60660D01*
X225849Y60620D01*
X225984Y60607D01*
X226119Y60620D01*
X226249Y60660D01*
X226369Y60724D01*
X226474Y60810D01*
X226560Y60915D01*
X226624Y61034D01*
X226663Y61164D01*
X226677Y61299D01*
X226663Y61434D01*
X226624Y61564D01*
X226578Y61651D01*
Y62795D01*
X226566Y62911D01*
X226532Y63022D01*
X226478Y63125D01*
X226404Y63215D01*
X226207Y63412D01*
X226117Y63486D01*
X226014Y63540D01*
X225903Y63574D01*
X225787Y63586D01*
X224564D01*
X224478Y63632D01*
X224348Y63671D01*
X224213Y63684D01*
D02*
G37*
G36*
X163160Y89984D02*
X162994Y89968D01*
X162834Y89920D01*
X162687Y89841D01*
X162558Y89735D01*
X162453Y89606D01*
X162374Y89459D01*
X162326Y89300D01*
X162309Y89134D01*
X162326Y88968D01*
X162374Y88808D01*
X162453Y88661D01*
X162558Y88532D01*
X162687Y88427D01*
X162834Y88348D01*
X162994Y88300D01*
X163074Y88292D01*
X163063Y88079D01*
X163058Y87977D01*
X161791D01*
X161598Y87958D01*
X161413Y87902D01*
X161242Y87811D01*
X161092Y87688D01*
X161092Y87688D01*
X160324Y86920D01*
X160201Y86770D01*
X160110Y86599D01*
X160054Y86413D01*
X160035Y86220D01*
X160035Y86220D01*
Y59449D01*
X160035Y59449D01*
X160054Y59256D01*
X160110Y59070D01*
X160201Y58899D01*
X160324Y58749D01*
X161112Y57962D01*
X161112Y57962D01*
X161262Y57839D01*
X161433Y57748D01*
X161618Y57691D01*
X161811Y57672D01*
X161811Y57672D01*
X169291D01*
X169484Y57691D01*
X169670Y57748D01*
X169722Y57776D01*
X170177D01*
Y58231D01*
X170205Y58283D01*
X170261Y58468D01*
X170280Y58661D01*
X170261Y58854D01*
X170205Y59040D01*
X170177Y59092D01*
Y59547D01*
X169722D01*
X169670Y59575D01*
X169484Y59631D01*
X169291Y59650D01*
X162221D01*
X162013Y59858D01*
Y83996D01*
X162313D01*
Y83996D01*
X164006D01*
Y85689D01*
X163220D01*
X163204Y86004D01*
X163353Y86018D01*
X163538Y86074D01*
X163709Y86166D01*
X163859Y86289D01*
X163982Y86439D01*
X164074Y86610D01*
X164130Y86795D01*
X164149Y86988D01*
X164130Y87181D01*
X164074Y87367D01*
X163982Y87538D01*
X163859Y87688D01*
X163709Y87811D01*
X163538Y87902D01*
X163353Y87958D01*
X163205Y87973D01*
X163205Y88288D01*
Y88288D01*
Y88288D01*
X163326Y88300D01*
X163485Y88348D01*
X163632Y88427D01*
X163761Y88532D01*
X163867Y88661D01*
X163946Y88808D01*
X163994Y88968D01*
X164010Y89134D01*
X163994Y89300D01*
X163946Y89459D01*
X163867Y89606D01*
X163761Y89735D01*
X163632Y89841D01*
X163485Y89920D01*
X163326Y89968D01*
X163160Y89984D01*
D02*
G37*
G36*
X214764Y69001D02*
X214634Y68988D01*
X214510Y68951D01*
X214396Y68890D01*
X214295Y68807D01*
X214213Y68707D01*
X214152Y68592D01*
X214114Y68468D01*
X214101Y68339D01*
X214114Y68209D01*
X214152Y68085D01*
X214213Y67970D01*
X214295Y67870D01*
X214396Y67788D01*
X214510Y67726D01*
X214634Y67689D01*
X214764Y67676D01*
X214893Y67689D01*
X215017Y67726D01*
X215132Y67788D01*
X215232Y67870D01*
X215315Y67970D01*
X215376Y68085D01*
X215414Y68209D01*
X215426Y68339D01*
X215414Y68468D01*
X215376Y68592D01*
X215315Y68707D01*
X215232Y68807D01*
X215132Y68890D01*
X215017Y68951D01*
X214893Y68988D01*
X214764Y69001D01*
D02*
G37*
G36*
X203260Y75374D02*
X201685D01*
Y73799D01*
X203260D01*
Y75374D01*
D02*
G37*
G36*
X233661Y129138D02*
X233430Y129122D01*
X233202Y129077D01*
X232982Y129003D01*
X232774Y128900D01*
X232581Y128771D01*
X232406Y128618D01*
X232253Y128443D01*
X232124Y128250D01*
X232021Y128042D01*
X231946Y127822D01*
X231901Y127594D01*
X231886Y127362D01*
X231901Y127130D01*
X231946Y126903D01*
X232021Y126683D01*
X232124Y126474D01*
X232253Y126281D01*
X232406Y126107D01*
X232581Y125954D01*
X232774Y125825D01*
X232982Y125722D01*
X233202Y125647D01*
X233430Y125602D01*
X233661Y125587D01*
X233893Y125602D01*
X234121Y125647D01*
X234341Y125722D01*
X234549Y125825D01*
X234742Y125954D01*
X234917Y126107D01*
X235070Y126281D01*
X235199Y126474D01*
X235302Y126683D01*
X235376Y126903D01*
X235422Y127130D01*
X235437Y127362D01*
X235422Y127594D01*
X235376Y127822D01*
X235302Y128042D01*
X235199Y128250D01*
X235070Y128443D01*
X234917Y128618D01*
X234742Y128771D01*
X234549Y128900D01*
X234341Y129003D01*
X234121Y129077D01*
X233893Y129122D01*
X233661Y129138D01*
D02*
G37*
G36*
X191961Y74964D02*
X191814Y74950D01*
X191673Y74907D01*
X191543Y74838D01*
X191461Y74770D01*
X191378Y74838D01*
X191248Y74907D01*
X191107Y74950D01*
X190961Y74964D01*
X190814Y74950D01*
X190750Y74930D01*
X190709Y74961D01*
Y74961D01*
X189213D01*
Y73465D01*
X190709D01*
Y73465D01*
X190750Y73495D01*
X190814Y73475D01*
X190961Y73461D01*
X191107Y73475D01*
X191248Y73518D01*
X191378Y73588D01*
X191461Y73655D01*
X191543Y73588D01*
X191673Y73518D01*
X191814Y73475D01*
X191961Y73461D01*
X192107Y73475D01*
X192248Y73518D01*
X192378Y73588D01*
X192492Y73681D01*
X192586Y73795D01*
X192655Y73925D01*
X192698Y74066D01*
X192712Y74213D01*
X192698Y74359D01*
X192655Y74500D01*
X192586Y74630D01*
X192492Y74744D01*
X192378Y74838D01*
X192248Y74907D01*
X192107Y74950D01*
X191961Y74964D01*
D02*
G37*
G36*
X198547Y75374D02*
X196972D01*
Y74636D01*
X196667Y74559D01*
X196629Y74630D01*
X196535Y74744D01*
X196422Y74838D01*
X196292Y74907D01*
X196151Y74950D01*
X196004Y74964D01*
X195857Y74950D01*
X195716Y74907D01*
X195586Y74838D01*
X195504Y74770D01*
X195422Y74838D01*
X195292Y74907D01*
X195151Y74950D01*
X195004Y74964D01*
X194857Y74950D01*
X194793Y74930D01*
X194752Y74961D01*
Y74961D01*
X193256D01*
Y73465D01*
X194752D01*
Y73465D01*
X194793Y73495D01*
X194857Y73475D01*
X195004Y73461D01*
X195151Y73475D01*
X195292Y73518D01*
X195422Y73588D01*
X195504Y73655D01*
X195586Y73588D01*
X195716Y73518D01*
X195857Y73475D01*
X196004Y73461D01*
X196151Y73475D01*
X196292Y73518D01*
X196422Y73588D01*
X196535Y73681D01*
X196629Y73795D01*
X196631Y73799D01*
X196972D01*
Y73799D01*
X198547D01*
Y75374D01*
D02*
G37*
G36*
X201281Y127499D02*
X201161Y127488D01*
X201046Y127453D01*
X200940Y127396D01*
X200848Y127320D01*
X200771Y127227D01*
X200715Y127121D01*
X200680Y127006D01*
X200668Y126886D01*
X200680Y126767D01*
X200715Y126652D01*
X200771Y126546D01*
X200848Y126453D01*
X200940Y126376D01*
X201046Y126320D01*
X201161Y126285D01*
X201281Y126273D01*
X201401Y126285D01*
X201516Y126320D01*
X201622Y126376D01*
X201715Y126453D01*
X201791Y126546D01*
X201848Y126652D01*
X201883Y126767D01*
X201894Y126886D01*
X201883Y127006D01*
X201848Y127121D01*
X201791Y127227D01*
X201715Y127320D01*
X201622Y127396D01*
X201516Y127453D01*
X201401Y127488D01*
X201281Y127499D01*
D02*
G37*
G36*
X210583Y69026D02*
X210454Y69013D01*
X210330Y68975D01*
X210215Y68914D01*
X210115Y68832D01*
X210032Y68731D01*
X209971Y68617D01*
X209933Y68492D01*
X209921Y68363D01*
X209933Y68234D01*
X209971Y68110D01*
X210032Y67995D01*
X210115Y67895D01*
X210215Y67812D01*
X210330Y67751D01*
X210454Y67713D01*
X210583Y67701D01*
X210713Y67713D01*
X210837Y67751D01*
X210951Y67812D01*
X211052Y67895D01*
X211134Y67995D01*
X211196Y68110D01*
X211233Y68234D01*
X211246Y68363D01*
X211233Y68492D01*
X211196Y68617D01*
X211134Y68731D01*
X211052Y68832D01*
X210951Y68914D01*
X210837Y68975D01*
X210713Y69013D01*
X210583Y69026D01*
D02*
G37*
G36*
X216728Y69001D02*
X216599Y68988D01*
X216475Y68951D01*
X216360Y68890D01*
X216260Y68807D01*
X216177Y68707D01*
X216116Y68592D01*
X216078Y68468D01*
X216066Y68339D01*
X216078Y68209D01*
X216116Y68085D01*
X216177Y67970D01*
X216260Y67870D01*
X216360Y67788D01*
X216475Y67726D01*
X216599Y67689D01*
X216728Y67676D01*
X216858Y67689D01*
X216982Y67726D01*
X217096Y67788D01*
X217197Y67870D01*
X217279Y67970D01*
X217341Y68085D01*
X217378Y68209D01*
X217391Y68339D01*
X217378Y68468D01*
X217341Y68592D01*
X217279Y68707D01*
X217197Y68807D01*
X217096Y68890D01*
X216982Y68951D01*
X216858Y68988D01*
X216728Y69001D01*
D02*
G37*
G36*
X180610Y70886D02*
X178839D01*
Y69114D01*
X180610D01*
Y70886D01*
D02*
G37*
G36*
X170177D02*
X168406D01*
Y69114D01*
X170177D01*
Y70886D01*
D02*
G37*
G36*
X192905Y112820D02*
X192758Y112806D01*
X192617Y112763D01*
X192487Y112693D01*
X192405Y112626D01*
X192323Y112693D01*
X192193Y112763D01*
X192052Y112806D01*
X191905Y112820D01*
X191758Y112806D01*
X191617Y112763D01*
X191487Y112693D01*
X191374Y112600D01*
X191280Y112486D01*
X191211Y112356D01*
X191168Y112215D01*
X191153Y112069D01*
X191168Y111922D01*
X191211Y111781D01*
X191280Y111651D01*
X191374Y111537D01*
X191487Y111444D01*
X191617Y111374D01*
X191758Y111331D01*
X191905Y111317D01*
X192052Y111331D01*
X192193Y111374D01*
X192323Y111444D01*
X192405Y111511D01*
X192487Y111444D01*
X192617Y111374D01*
X192758Y111331D01*
X192905Y111317D01*
X193052Y111331D01*
X193193Y111374D01*
X193323Y111444D01*
X193437Y111537D01*
X193530Y111651D01*
X193599Y111781D01*
X193642Y111922D01*
X193657Y112069D01*
X193642Y112215D01*
X193599Y112356D01*
X193530Y112486D01*
X193437Y112600D01*
X193323Y112693D01*
X193193Y112763D01*
X193052Y112806D01*
X192905Y112820D01*
D02*
G37*
G36*
X211205Y116933D02*
X210236D01*
X210082Y116918D01*
X209933Y116873D01*
X209797Y116800D01*
X209677Y116701D01*
X209086Y116111D01*
X208988Y115991D01*
X208915Y115854D01*
X208870Y115706D01*
X208854Y115551D01*
Y107677D01*
X208854Y107677D01*
Y107244D01*
X208870Y107089D01*
X208915Y106941D01*
X208988Y106804D01*
X209086Y106684D01*
X209480Y106291D01*
X209546Y106237D01*
X209600Y106192D01*
X209695Y106141D01*
Y106063D01*
X210001D01*
X210039Y106059D01*
X210483D01*
X210521Y106063D01*
X211270D01*
Y106811D01*
X211274Y106850D01*
X211270Y106889D01*
Y107638D01*
X210521D01*
X210483Y107641D01*
X210437D01*
Y107677D01*
X210437Y107677D01*
Y111730D01*
X210444Y111737D01*
X210660Y111737D01*
X210660Y111737D01*
Y111737D01*
X211940D01*
Y113233D01*
X210660D01*
X210660Y113233D01*
Y113233D01*
X210444Y113233D01*
X210437Y113240D01*
Y115223D01*
X210564Y115351D01*
X211205D01*
X211359Y115366D01*
X211508Y115411D01*
X211644Y115484D01*
X211764Y115582D01*
X211863Y115702D01*
X211936Y115839D01*
X211981Y115987D01*
X211996Y116142D01*
X211981Y116296D01*
X211936Y116445D01*
X211863Y116581D01*
X211764Y116701D01*
X211644Y116800D01*
X211508Y116873D01*
X211359Y116918D01*
X211205Y116933D01*
D02*
G37*
G36*
X163987Y124188D02*
X162491D01*
Y122692D01*
X163987D01*
Y124188D01*
D02*
G37*
G36*
X202984Y112860D02*
X202830Y112845D01*
X202681Y112799D01*
X202545Y112726D01*
X202453Y112651D01*
X202402Y112693D01*
X202272Y112763D01*
X202131Y112806D01*
X201984Y112820D01*
X201838Y112806D01*
X201773Y112786D01*
X201732Y112817D01*
Y112817D01*
X200236D01*
Y112327D01*
X199925Y112281D01*
X199897Y112371D01*
X199824Y112508D01*
X199726Y112628D01*
X199606Y112726D01*
X199469Y112799D01*
X199321Y112845D01*
X199166Y112860D01*
X199012Y112845D01*
X198863Y112799D01*
X198727Y112726D01*
X198607Y112628D01*
X198508Y112508D01*
X198435Y112371D01*
X198390Y112223D01*
X198375Y112069D01*
Y111464D01*
X198390Y111309D01*
X198435Y111161D01*
X198508Y111024D01*
X198607Y110904D01*
X199441Y110070D01*
X199560Y109972D01*
X199697Y109899D01*
X199846Y109854D01*
X200000Y109839D01*
X202211D01*
X202366Y109854D01*
X202514Y109899D01*
X202651Y109972D01*
X202771Y110070D01*
X202771Y110070D01*
X202771Y110070D01*
X203544Y110843D01*
X203598Y110909D01*
X203642Y110963D01*
X203715Y111100D01*
X203715Y111100D01*
X203715Y111100D01*
X203760Y111248D01*
X203775Y111403D01*
X203775Y111403D01*
X203775Y111403D01*
Y111403D01*
Y112069D01*
X203760Y112223D01*
X203715Y112371D01*
X203642Y112508D01*
X203544Y112628D01*
X203424Y112726D01*
X203287Y112799D01*
X203139Y112845D01*
X202984Y112860D01*
D02*
G37*
G36*
X195166Y112731D02*
X195037Y112718D01*
X194913Y112681D01*
X194798Y112619D01*
X194698Y112537D01*
X194615Y112437D01*
X194554Y112322D01*
X194516Y112198D01*
X194504Y112069D01*
X194516Y111939D01*
X194554Y111815D01*
X194615Y111700D01*
X194698Y111600D01*
X194798Y111518D01*
X194913Y111456D01*
X195037Y111419D01*
X195166Y111406D01*
X195295Y111419D01*
X195420Y111456D01*
X195534Y111518D01*
X195635Y111600D01*
X195717Y111700D01*
X195778Y111815D01*
X195816Y111939D01*
X195829Y112069D01*
X195816Y112198D01*
X195778Y112322D01*
X195717Y112437D01*
X195635Y112537D01*
X195534Y112619D01*
X195420Y112681D01*
X195295Y112718D01*
X195166Y112731D01*
D02*
G37*
G36*
X166535Y107638D02*
X164961D01*
Y106063D01*
X166535D01*
Y107638D01*
D02*
G37*
G36*
X222638Y106462D02*
X222509Y106449D01*
X222384Y106411D01*
X222270Y106350D01*
X222169Y106268D01*
X222087Y106167D01*
X222026Y106053D01*
X221988Y105928D01*
X221975Y105799D01*
X221988Y105670D01*
X222026Y105546D01*
X222087Y105431D01*
X222169Y105331D01*
X222270Y105248D01*
X222384Y105187D01*
X222509Y105149D01*
X222638Y105137D01*
X222767Y105149D01*
X222891Y105187D01*
X223006Y105248D01*
X223106Y105331D01*
X223189Y105431D01*
X223250Y105546D01*
X223288Y105670D01*
X223300Y105799D01*
X223288Y105928D01*
X223250Y106053D01*
X223189Y106167D01*
X223106Y106268D01*
X223006Y106350D01*
X222891Y106411D01*
X222767Y106449D01*
X222638Y106462D01*
D02*
G37*
G36*
X192912Y110831D02*
X192778Y110814D01*
X192662Y110765D01*
X192545Y110814D01*
X192412Y110831D01*
X192278Y110814D01*
X192154Y110762D01*
X192047Y110680D01*
X191965Y110573D01*
X191913Y110449D01*
X191896Y110315D01*
Y109764D01*
X191913Y109630D01*
X191965Y109506D01*
X192047Y109399D01*
X192154Y109317D01*
X192278Y109265D01*
X192412Y109248D01*
X192545Y109265D01*
X192662Y109313D01*
X192778Y109265D01*
X192912Y109248D01*
X193045Y109265D01*
X193170Y109317D01*
X193277Y109399D01*
X193359Y109506D01*
X193410Y109630D01*
X193428Y109764D01*
Y110315D01*
X193410Y110449D01*
X193359Y110573D01*
X193277Y110680D01*
X193170Y110762D01*
X193045Y110814D01*
X192912Y110831D01*
D02*
G37*
G36*
X160973Y111728D02*
X159202D01*
X159009Y111709D01*
X158823Y111653D01*
X158652Y111562D01*
X158502Y111439D01*
X158379Y111289D01*
X158288Y111118D01*
X158232Y110932D01*
X158213Y110739D01*
X158232Y110546D01*
X158288Y110361D01*
X158379Y110190D01*
X158502Y110040D01*
X158652Y109917D01*
X158823Y109825D01*
X159009Y109769D01*
X159202Y109750D01*
X160973D01*
X161166Y109769D01*
X161352Y109825D01*
X161523Y109917D01*
X161673Y110040D01*
X161796Y110190D01*
X161887Y110361D01*
X161943Y110546D01*
X161962Y110739D01*
X161943Y110932D01*
X161887Y111118D01*
X161796Y111289D01*
X161673Y111439D01*
X161523Y111562D01*
X161352Y111653D01*
X161166Y111709D01*
X160973Y111728D01*
D02*
G37*
G36*
X224058Y116730D02*
X222562D01*
Y115233D01*
X224058D01*
Y116730D01*
D02*
G37*
G36*
X228814Y121044D02*
X227240D01*
Y119470D01*
X228814D01*
Y121044D01*
D02*
G37*
G36*
X180124Y119968D02*
X179969Y119953D01*
X179821Y119908D01*
X179684Y119835D01*
X179564Y119737D01*
X179466Y119617D01*
X179393Y119480D01*
X179348Y119331D01*
X179333Y119177D01*
X179348Y119023D01*
X179393Y118874D01*
X179466Y118738D01*
X179564Y118618D01*
X179684Y118519D01*
X179821Y118446D01*
X179969Y118401D01*
X180124Y118386D01*
X180278Y118401D01*
X180427Y118446D01*
X180563Y118519D01*
X180683Y118618D01*
X180782Y118738D01*
X180855Y118874D01*
X180900Y119023D01*
X180915Y119177D01*
X180900Y119331D01*
X180855Y119480D01*
X180782Y119617D01*
X180683Y119737D01*
X180563Y119835D01*
X180427Y119908D01*
X180278Y119953D01*
X180124Y119968D01*
D02*
G37*
G36*
Y123418D02*
X179969Y123403D01*
X179821Y123358D01*
X179684Y123285D01*
X179564Y123187D01*
X179466Y123067D01*
X179393Y122930D01*
X179348Y122781D01*
X179333Y122627D01*
X179348Y122473D01*
X179393Y122324D01*
X179466Y122188D01*
X179564Y122068D01*
X179684Y121969D01*
X179821Y121896D01*
X179969Y121851D01*
X180124Y121836D01*
X180278Y121851D01*
X180427Y121896D01*
X180563Y121969D01*
X180683Y122068D01*
X180782Y122188D01*
X180855Y122324D01*
X180900Y122473D01*
X180915Y122627D01*
X180900Y122781D01*
X180855Y122930D01*
X180782Y123067D01*
X180683Y123187D01*
X180563Y123285D01*
X180427Y123358D01*
X180278Y123403D01*
X180124Y123418D01*
D02*
G37*
G36*
X232026Y122331D02*
X231864Y122315D01*
X231708Y122268D01*
X231564Y122191D01*
X231438Y122088D01*
X231335Y121962D01*
X231258Y121818D01*
X231211Y121662D01*
X231195Y121500D01*
X231211Y121338D01*
X231258Y121182D01*
X231335Y121039D01*
X231438Y120913D01*
X231564Y120809D01*
X231708Y120733D01*
X231864Y120685D01*
X232026Y120669D01*
X232188Y120685D01*
X232344Y120733D01*
X232487Y120809D01*
X232613Y120913D01*
X232717Y121039D01*
X232793Y121182D01*
X232841Y121338D01*
X232857Y121500D01*
X232841Y121662D01*
X232793Y121818D01*
X232717Y121962D01*
X232613Y122088D01*
X232487Y122191D01*
X232344Y122268D01*
X232188Y122315D01*
X232026Y122331D01*
D02*
G37*
G36*
X201975Y119479D02*
X200754D01*
Y118259D01*
X201975D01*
Y119479D01*
D02*
G37*
G36*
X181884Y117258D02*
X181729Y117243D01*
X181581Y117198D01*
X181444Y117125D01*
X181324Y117027D01*
X181226Y116907D01*
X181153Y116770D01*
X181108Y116621D01*
X181093Y116467D01*
X181108Y116313D01*
X181153Y116164D01*
X181226Y116028D01*
X181324Y115908D01*
X181444Y115809D01*
X181581Y115736D01*
X181729Y115691D01*
X181884Y115676D01*
X182038Y115691D01*
X182187Y115736D01*
X182323Y115809D01*
X182443Y115908D01*
X182542Y116028D01*
X182615Y116164D01*
X182660Y116313D01*
X182675Y116467D01*
X182660Y116621D01*
X182615Y116770D01*
X182542Y116907D01*
X182443Y117027D01*
X182323Y117125D01*
X182187Y117198D01*
X182038Y117243D01*
X181884Y117258D01*
D02*
G37*
G36*
X201365Y116687D02*
X201245Y116675D01*
X201130Y116640D01*
X201024Y116583D01*
X200931Y116507D01*
X200855Y116414D01*
X200798Y116308D01*
X200763Y116193D01*
X200751Y116074D01*
X200763Y115954D01*
X200798Y115839D01*
X200855Y115733D01*
X200931Y115640D01*
X201024Y115564D01*
X201130Y115507D01*
X201245Y115472D01*
X201365Y115460D01*
X201484Y115472D01*
X201599Y115507D01*
X201705Y115564D01*
X201798Y115640D01*
X201875Y115733D01*
X201931Y115839D01*
X201966Y115954D01*
X201978Y116074D01*
X201966Y116193D01*
X201931Y116308D01*
X201875Y116414D01*
X201798Y116507D01*
X201705Y116583D01*
X201599Y116640D01*
X201484Y116675D01*
X201365Y116687D01*
D02*
G37*
G36*
X190551Y118494D02*
X188976D01*
Y116920D01*
X190551D01*
Y118494D01*
D02*
G37*
G36*
X197992Y118480D02*
X196496D01*
Y116984D01*
X196496D01*
X196526Y116943D01*
X196507Y116879D01*
X196492Y116732D01*
X196507Y116586D01*
X196550Y116445D01*
X196619Y116315D01*
X196713Y116201D01*
X196826Y116107D01*
X196956Y116038D01*
X197097Y115995D01*
X197244Y115981D01*
X197391Y115995D01*
X197532Y116038D01*
X197662Y116107D01*
X197776Y116201D01*
X197869Y116315D01*
X197939Y116445D01*
X197981Y116586D01*
X197996Y116732D01*
X197981Y116879D01*
X197962Y116943D01*
X197992Y116984D01*
X197992D01*
Y118480D01*
D02*
G37*
G36*
X185583Y96908D02*
X185463Y96897D01*
X185348Y96862D01*
X185242Y96805D01*
X185149Y96729D01*
X185073Y96636D01*
X185016Y96530D01*
X184981Y96415D01*
X184969Y96295D01*
X184981Y96176D01*
X185016Y96061D01*
X185073Y95955D01*
X185149Y95862D01*
X185242Y95785D01*
X185348Y95729D01*
X185463Y95694D01*
X185583Y95682D01*
X185702Y95694D01*
X185817Y95729D01*
X185923Y95785D01*
X186016Y95862D01*
X186093Y95955D01*
X186149Y96061D01*
X186184Y96176D01*
X186196Y96295D01*
X186184Y96415D01*
X186149Y96530D01*
X186093Y96636D01*
X186016Y96729D01*
X185923Y96805D01*
X185817Y96862D01*
X185702Y96897D01*
X185583Y96908D01*
D02*
G37*
G36*
X201891Y124701D02*
X200671D01*
Y123481D01*
X201891D01*
Y124701D01*
D02*
G37*
G36*
X171407Y98870D02*
X171225Y98852D01*
X171051Y98799D01*
X170890Y98713D01*
X170749Y98598D01*
X170634Y98457D01*
X170548Y98296D01*
X170495Y98122D01*
X170477Y97940D01*
X170495Y97759D01*
X170548Y97584D01*
X170634Y97424D01*
X170749Y97283D01*
X170890Y97167D01*
X171051Y97081D01*
X171225Y97028D01*
X171407Y97010D01*
X171588Y97028D01*
X171762Y97081D01*
X171923Y97167D01*
X172064Y97283D01*
X172180Y97424D01*
X172266Y97584D01*
X172318Y97759D01*
X172336Y97940D01*
X172318Y98122D01*
X172266Y98296D01*
X172180Y98457D01*
X172064Y98598D01*
X171923Y98713D01*
X171762Y98799D01*
X171588Y98852D01*
X171407Y98870D01*
D02*
G37*
G36*
X164085Y97520D02*
X162392D01*
Y95827D01*
X164085D01*
Y97520D01*
D02*
G37*
G36*
X191142Y97047D02*
X189567D01*
Y95472D01*
X191142D01*
Y97047D01*
D02*
G37*
G36*
X167913Y89735D02*
X167786Y89723D01*
X167664Y89686D01*
X167551Y89625D01*
X167452Y89544D01*
X167371Y89445D01*
X167310Y89332D01*
X167273Y89210D01*
X167261Y89083D01*
X167273Y88955D01*
X167310Y88833D01*
X167371Y88720D01*
X167452Y88621D01*
Y88544D01*
X167371Y88445D01*
X167310Y88332D01*
X167273Y88210D01*
X167261Y88083D01*
X167273Y87955D01*
X167310Y87833D01*
X167371Y87720D01*
X167452Y87621D01*
X167551Y87540D01*
X167664Y87480D01*
X167786Y87442D01*
X167913Y87430D01*
X168041Y87442D01*
X168163Y87480D01*
X168276Y87540D01*
X168375Y87621D01*
X168456Y87720D01*
X168516Y87833D01*
X168554Y87955D01*
X168566Y88083D01*
X168554Y88210D01*
X168516Y88332D01*
X168456Y88445D01*
X168375Y88544D01*
Y88621D01*
X168456Y88720D01*
X168516Y88833D01*
X168554Y88955D01*
X168566Y89083D01*
X168554Y89210D01*
X168516Y89332D01*
X168456Y89445D01*
X168375Y89544D01*
X168276Y89625D01*
X168163Y89686D01*
X168041Y89723D01*
X167913Y89735D01*
D02*
G37*
G36*
X220182Y87897D02*
X220053Y87885D01*
X219929Y87847D01*
X219814Y87786D01*
X219714Y87703D01*
X219631Y87603D01*
X219570Y87488D01*
X219532Y87364D01*
X219520Y87235D01*
X219532Y87105D01*
X219570Y86981D01*
X219631Y86867D01*
X219714Y86766D01*
X219814Y86684D01*
X219929Y86622D01*
X220053Y86585D01*
X220182Y86572D01*
X220312Y86585D01*
X220436Y86622D01*
X220550Y86684D01*
X220651Y86766D01*
X220733Y86867D01*
X220794Y86981D01*
X220832Y87105D01*
X220845Y87235D01*
X220832Y87364D01*
X220794Y87488D01*
X220733Y87603D01*
X220651Y87703D01*
X220550Y87786D01*
X220436Y87847D01*
X220312Y87885D01*
X220182Y87897D01*
D02*
G37*
G36*
X170608Y93891D02*
X169112D01*
Y92395D01*
X170608D01*
Y93891D01*
D02*
G37*
G36*
X212057Y129482D02*
X189124D01*
X188970Y129467D01*
X188821Y129422D01*
X188684Y129349D01*
X188564Y129250D01*
X187630Y128315D01*
X187531Y128195D01*
X187458Y128059D01*
X187413Y127910D01*
X187398Y127756D01*
Y123282D01*
X187413Y123128D01*
X187413Y123128D01*
X187413D01*
X187458Y122979D01*
X187531Y122842D01*
X187630Y122722D01*
X188973Y121379D01*
Y121063D01*
X188988Y120909D01*
X188995Y120885D01*
X188988Y120861D01*
X188973Y120707D01*
X188988Y120553D01*
X189033Y120404D01*
X189106Y120268D01*
X189204Y120148D01*
X189324Y120049D01*
X189461Y119976D01*
X189609Y119931D01*
X189764Y119916D01*
X193665D01*
X193819Y119931D01*
X193967Y119976D01*
X194104Y120049D01*
X194224Y120148D01*
X194224Y120148D01*
X194224Y120148D01*
X194378Y120302D01*
X194477Y120422D01*
X194550Y120559D01*
X194595Y120707D01*
X194595Y120707D01*
X194595Y120707D01*
Y120707D01*
X194610Y120861D01*
Y121968D01*
X194595Y122123D01*
X194567Y122215D01*
Y122717D01*
X194065D01*
X193973Y122745D01*
X193819Y122760D01*
X193665Y122745D01*
X193572Y122717D01*
X193071D01*
Y122215D01*
X193043Y122123D01*
X193028Y121968D01*
Y121498D01*
X190555D01*
Y121707D01*
X190540Y121861D01*
X190495Y122010D01*
X190422Y122147D01*
X190323Y122267D01*
X188980Y123610D01*
Y123963D01*
X189265Y124098D01*
X189324Y124049D01*
X189461Y123976D01*
X189609Y123931D01*
X189764Y123916D01*
X189918Y123931D01*
X190067Y123976D01*
X190203Y124049D01*
X190323Y124148D01*
X190422Y124268D01*
X190495Y124404D01*
X190540Y124553D01*
X190555Y124707D01*
X190540Y124861D01*
X190495Y125010D01*
X190422Y125147D01*
X190323Y125267D01*
X190203Y125365D01*
X190067Y125438D01*
X189918Y125483D01*
X189764Y125498D01*
X189609Y125483D01*
X189461Y125438D01*
X189324Y125365D01*
X189265Y125316D01*
X188980Y125451D01*
Y127428D01*
X189452Y127900D01*
X211729D01*
X211851Y127778D01*
Y125399D01*
X211756D01*
Y123628D01*
X213528D01*
Y125399D01*
X213433D01*
Y128106D01*
X213418Y128260D01*
X213373Y128409D01*
X213300Y128546D01*
X213201Y128666D01*
X212617Y129250D01*
X212497Y129349D01*
X212360Y129422D01*
X212212Y129467D01*
X212057Y129482D01*
D02*
G37*
G36*
X197992Y125961D02*
X196496D01*
Y124465D01*
X196496D01*
X196526Y124424D01*
X196507Y124359D01*
X196492Y124213D01*
X196507Y124066D01*
X196550Y123925D01*
X196619Y123795D01*
X196713Y123681D01*
X196826Y123588D01*
X196956Y123518D01*
X197097Y123475D01*
X197244Y123461D01*
X197391Y123475D01*
X197532Y123518D01*
X197662Y123588D01*
X197776Y123681D01*
X197869Y123795D01*
X197939Y123925D01*
X197981Y124066D01*
X197996Y124213D01*
X197981Y124359D01*
X197962Y124424D01*
X197992Y124465D01*
X197992D01*
Y125961D01*
D02*
G37*
G36*
X171407Y106670D02*
X171225Y106652D01*
X171051Y106599D01*
X170890Y106513D01*
X170749Y106398D01*
X170634Y106257D01*
X170548Y106096D01*
X170495Y105922D01*
X170477Y105740D01*
X170495Y105559D01*
X170548Y105384D01*
X170634Y105224D01*
X170749Y105083D01*
X170890Y104967D01*
X171051Y104881D01*
X171225Y104828D01*
X171407Y104810D01*
X171588Y104828D01*
X171762Y104881D01*
X171923Y104967D01*
X172064Y105083D01*
X172180Y105224D01*
X172266Y105384D01*
X172318Y105559D01*
X172336Y105740D01*
X172318Y105922D01*
X172266Y106096D01*
X172180Y106257D01*
X172064Y106398D01*
X171923Y106513D01*
X171762Y106599D01*
X171588Y106652D01*
X171407Y106670D01*
D02*
G37*
G36*
X159202Y101611D02*
X159055Y101596D01*
X158914Y101554D01*
X158784Y101484D01*
X158670Y101391D01*
X158577Y101277D01*
X158507Y101147D01*
X158465Y101006D01*
X158450Y100859D01*
X158465Y100713D01*
X158507Y100572D01*
X158577Y100442D01*
X158670Y100328D01*
X158784Y100234D01*
X158914Y100165D01*
X159055Y100122D01*
X159202Y100108D01*
X159348Y100122D01*
X159489Y100165D01*
X159619Y100234D01*
X159733Y100328D01*
X159827Y100442D01*
X159896Y100572D01*
X159939Y100713D01*
X159953Y100859D01*
X159939Y101006D01*
X159896Y101147D01*
X159827Y101277D01*
X159733Y101391D01*
X159619Y101484D01*
X159489Y101554D01*
X159348Y101596D01*
X159202Y101611D01*
D02*
G37*
G36*
X213780Y106462D02*
X213650Y106449D01*
X213526Y106411D01*
X213411Y106350D01*
X213311Y106268D01*
X213229Y106167D01*
X213167Y106053D01*
X213130Y105928D01*
X213117Y105799D01*
X213130Y105670D01*
X213167Y105546D01*
X213229Y105431D01*
X213311Y105331D01*
X213411Y105248D01*
X213526Y105187D01*
X213650Y105149D01*
X213780Y105137D01*
X213909Y105149D01*
X214033Y105187D01*
X214148Y105248D01*
X214248Y105331D01*
X214330Y105431D01*
X214392Y105546D01*
X214429Y105670D01*
X214442Y105799D01*
X214429Y105928D01*
X214392Y106053D01*
X214330Y106167D01*
X214248Y106268D01*
X214148Y106350D01*
X214033Y106411D01*
X213909Y106449D01*
X213780Y106462D01*
D02*
G37*
G36*
X205118D02*
X204989Y106449D01*
X204865Y106411D01*
X204750Y106350D01*
X204650Y106268D01*
X204567Y106167D01*
X204506Y106053D01*
X204468Y105928D01*
X204455Y105799D01*
X204468Y105670D01*
X204506Y105546D01*
X204567Y105431D01*
X204650Y105331D01*
X204750Y105248D01*
X204865Y105187D01*
X204989Y105149D01*
X205118Y105137D01*
X205247Y105149D01*
X205372Y105187D01*
X205486Y105248D01*
X205587Y105331D01*
X205669Y105431D01*
X205730Y105546D01*
X205768Y105670D01*
X205781Y105799D01*
X205768Y105928D01*
X205730Y106053D01*
X205669Y106167D01*
X205587Y106268D01*
X205486Y106350D01*
X205372Y106411D01*
X205247Y106449D01*
X205118Y106462D01*
D02*
G37*
G36*
X229528Y101571D02*
X229381Y101556D01*
X229240Y101513D01*
X229110Y101444D01*
X228996Y101350D01*
X228903Y101236D01*
X228833Y101107D01*
X228790Y100966D01*
X228776Y100819D01*
X228790Y100672D01*
X228833Y100531D01*
X228903Y100401D01*
X228970Y100319D01*
X228903Y100236D01*
X228833Y100107D01*
X228790Y99966D01*
X228776Y99819D01*
X228790Y99672D01*
X228833Y99531D01*
X228903Y99401D01*
X228996Y99287D01*
X229110Y99194D01*
X229240Y99124D01*
X229381Y99082D01*
X229528Y99067D01*
X229674Y99082D01*
X229815Y99124D01*
X229945Y99194D01*
X230059Y99287D01*
X230153Y99401D01*
X230222Y99531D01*
X230265Y99672D01*
X230279Y99819D01*
X230265Y99966D01*
X230222Y100107D01*
X230153Y100236D01*
X230085Y100319D01*
X230153Y100401D01*
X230222Y100531D01*
X230265Y100672D01*
X230279Y100819D01*
X230265Y100966D01*
X230222Y101107D01*
X230153Y101236D01*
X230059Y101350D01*
X229945Y101444D01*
X229815Y101513D01*
X229674Y101556D01*
X229528Y101571D01*
D02*
G37*
G36*
X196101Y97810D02*
X195981Y97798D01*
X195866Y97763D01*
X195760Y97707D01*
X195667Y97630D01*
X195534D01*
X195441Y97707D01*
X195335Y97763D01*
X195220Y97798D01*
X195101Y97810D01*
X194981Y97798D01*
X194866Y97763D01*
X194760Y97707D01*
X194667Y97630D01*
X194534D01*
X194441Y97707D01*
X194335Y97763D01*
X194220Y97798D01*
X194101Y97810D01*
X193981Y97798D01*
X193866Y97763D01*
X193760Y97707D01*
X193667Y97630D01*
X193591Y97538D01*
X193534Y97431D01*
X193499Y97316D01*
X193488Y97197D01*
X193499Y97077D01*
X193534Y96962D01*
X193591Y96856D01*
X193667Y96763D01*
X193760Y96687D01*
X193866Y96630D01*
X193981Y96595D01*
X194101Y96584D01*
X194220Y96595D01*
X194335Y96630D01*
X194441Y96687D01*
X194534Y96763D01*
X194667D01*
X194760Y96687D01*
X194866Y96630D01*
X194981Y96595D01*
X195101Y96584D01*
X195220Y96595D01*
X195335Y96630D01*
X195441Y96687D01*
X195534Y96763D01*
X195667D01*
X195760Y96687D01*
X195866Y96630D01*
X195981Y96595D01*
X196101Y96584D01*
X196220Y96595D01*
X196335Y96630D01*
X196441Y96687D01*
X196534Y96763D01*
X196611Y96856D01*
X196667Y96962D01*
X196702Y97077D01*
X196714Y97197D01*
X196702Y97316D01*
X196667Y97431D01*
X196611Y97538D01*
X196534Y97630D01*
X196441Y97707D01*
X196335Y97763D01*
X196220Y97798D01*
X196101Y97810D01*
D02*
G37*
G36*
X203423Y97692D02*
X203303Y97680D01*
X203188Y97645D01*
X203082Y97589D01*
X202989Y97512D01*
X202856D01*
X202763Y97589D01*
X202657Y97645D01*
X202542Y97680D01*
X202423Y97692D01*
X202303Y97680D01*
X202188Y97645D01*
X202082Y97589D01*
X201989Y97512D01*
X201856D01*
X201763Y97589D01*
X201657Y97645D01*
X201542Y97680D01*
X201423Y97692D01*
X201303Y97680D01*
X201188Y97645D01*
X201082Y97589D01*
X200989Y97512D01*
X200913Y97419D01*
X200856Y97313D01*
X200821Y97198D01*
X200809Y97079D01*
X200821Y96959D01*
X200856Y96844D01*
X200913Y96738D01*
X200989Y96645D01*
X201082Y96569D01*
X201188Y96512D01*
X201303Y96477D01*
X201423Y96466D01*
X201542Y96477D01*
X201657Y96512D01*
X201763Y96569D01*
X201856Y96645D01*
X201989D01*
X202082Y96569D01*
X202188Y96512D01*
X202303Y96477D01*
X202423Y96466D01*
X202542Y96477D01*
X202657Y96512D01*
X202763Y96569D01*
X202856Y96645D01*
X202989D01*
X203082Y96569D01*
X203188Y96512D01*
X203303Y96477D01*
X203423Y96466D01*
X203542Y96477D01*
X203657Y96512D01*
X203763Y96569D01*
X203856Y96645D01*
X203932Y96738D01*
X203989Y96844D01*
X204024Y96959D01*
X204036Y97079D01*
X204024Y97198D01*
X203989Y97313D01*
X203932Y97419D01*
X203856Y97512D01*
X203763Y97589D01*
X203657Y97645D01*
X203542Y97680D01*
X203423Y97692D01*
D02*
G37*
G36*
X163239Y99669D02*
X163073Y99653D01*
X162913Y99605D01*
X162766Y99526D01*
X162637Y99420D01*
X162531Y99291D01*
X162453Y99144D01*
X162404Y98985D01*
X162388Y98819D01*
X162404Y98653D01*
X162453Y98493D01*
X162531Y98346D01*
X162637Y98217D01*
X162766Y98112D01*
X162913Y98033D01*
X163073Y97985D01*
X163239Y97968D01*
X163405Y97985D01*
X163564Y98033D01*
X163711Y98112D01*
X163840Y98217D01*
X163946Y98346D01*
X164024Y98493D01*
X164073Y98653D01*
X164089Y98819D01*
X164073Y98985D01*
X164024Y99144D01*
X163946Y99291D01*
X163840Y99420D01*
X163711Y99526D01*
X163564Y99605D01*
X163405Y99653D01*
X163239Y99669D01*
D02*
G37*
G36*
X185583Y98908D02*
X185463Y98897D01*
X185348Y98862D01*
X185242Y98805D01*
X185149Y98729D01*
X185073Y98636D01*
X185016Y98530D01*
X184981Y98415D01*
X184969Y98295D01*
X184981Y98176D01*
X185016Y98061D01*
X185073Y97955D01*
X185149Y97862D01*
X185242Y97785D01*
X185348Y97729D01*
X185463Y97694D01*
X185583Y97682D01*
X185702Y97694D01*
X185817Y97729D01*
X185923Y97785D01*
X186016Y97862D01*
X186093Y97955D01*
X186149Y98061D01*
X186184Y98176D01*
X186196Y98295D01*
X186184Y98415D01*
X186149Y98530D01*
X186093Y98636D01*
X186016Y98729D01*
X185923Y98805D01*
X185817Y98862D01*
X185702Y98897D01*
X185583Y98908D01*
D02*
G37*
%LPD*%
G54D23*
X209177Y62130D02*
X209252Y62205D01*
X233268Y74980D02*
Y90946D01*
X232647Y91567D02*
X233268Y90946D01*
X229528Y91567D02*
X232647D01*
X231299Y85846D02*
Y89264D01*
X230996Y89567D02*
X231299Y89264D01*
X229528Y89567D02*
X230996D01*
X232283Y80315D02*
Y90264D01*
X231980Y90567D02*
X232283Y90264D01*
X229528Y90567D02*
X231980D01*
X210473Y106850D02*
X210483D01*
X221260Y59843D02*
X221462D01*
X227953Y74586D02*
X232874D01*
X233268Y74980D01*
X227953Y79991D02*
X231960D01*
X232283Y80315D01*
X228064Y85396D02*
X230849D01*
X231299Y85846D01*
X228064Y96457D02*
X230799D01*
X231193Y96063D01*
Y92913D02*
Y96063D01*
X230846Y92567D02*
X231193Y92913D01*
X229528Y92567D02*
X230846D01*
X225984Y61299D02*
Y62795D01*
X225787Y62992D02*
X225984Y62795D01*
X224213Y62992D02*
X225787D01*
X212700Y61417D02*
Y64297D01*
X212683Y64313D02*
X212700Y64297D01*
X209442Y64363D02*
X210583D01*
X209252Y64173D02*
X209442Y64363D01*
X209252Y62205D02*
Y64173D01*
X209177Y62130D02*
X209197Y62110D01*
X209252D01*
X158889Y110585D02*
X159175Y110871D01*
G54D26*
X188339Y72027D02*
X204134D01*
X219291Y106850D02*
Y109843D01*
X223425Y94094D02*
Y102559D01*
X209646Y72027D02*
X216535D01*
X204134D02*
X209646D01*
X213192Y111731D02*
Y113570D01*
X213376Y99990D02*
X215777D01*
X212992Y99606D02*
X213376Y99990D01*
X207313Y59843D02*
Y65605D01*
X173228Y106890D02*
X176766D01*
X171790Y88143D02*
X173651D01*
X166731Y91143D02*
X171062D01*
X179623Y96572D02*
X180346Y97295D01*
X179623Y88125D02*
Y96572D01*
X173726Y90143D02*
X175562Y88307D01*
Y84608D02*
Y88307D01*
X174041Y83087D02*
X175562Y84608D01*
X173651Y88143D02*
X174016Y87778D01*
Y84766D02*
Y87778D01*
X173337Y84087D02*
X174016Y84766D01*
X171351Y84087D02*
X173337D01*
X171351Y83087D02*
X174041D01*
X172860Y90143D02*
X173726D01*
X209646Y72027D02*
Y72441D01*
X216535Y72027D02*
Y75082D01*
X216847Y75394D02*
X219103D01*
X216535Y75082D02*
X216847Y75394D01*
X205709Y70276D02*
X212992D01*
X171046Y92339D02*
X171850Y93143D01*
X172860D01*
X225000Y101378D02*
X228027Y104405D01*
X225000Y91065D02*
Y101378D01*
X215234Y91065D02*
X225000D01*
X226575Y85396D02*
Y94094D01*
Y72638D02*
Y85396D01*
X214173D02*
X226575D01*
X228027Y106850D02*
Y110162D01*
X226968Y111220D02*
X228027Y110162D01*
X222726Y111220D02*
X226968D01*
X228027Y104405D02*
Y106850D01*
X184024Y92323D02*
X187557D01*
X183071Y91370D02*
X184024Y92323D01*
X183071Y78740D02*
Y91370D01*
X187557Y92323D02*
X188189Y92955D01*
X188937Y106850D02*
X192938D01*
X188189Y106102D02*
X188937Y106850D01*
X188189Y92955D02*
Y106102D01*
X168687Y111431D02*
X173228Y106890D01*
X168687Y111431D02*
Y121022D01*
X166339Y91535D02*
X166731Y91143D01*
X166339Y91535D02*
Y103976D01*
X171457Y88476D02*
X171790Y88143D01*
X171457Y88476D02*
Y90748D01*
X171062Y91143D02*
X171457Y90748D01*
X166339Y103976D02*
X166890Y104528D01*
X225964Y72027D02*
X226575Y72638D01*
X223425Y72027D02*
X225964D01*
X219255Y102756D02*
X223228D01*
X223425Y102559D01*
X219255Y102792D02*
Y106850D01*
X210039D02*
X210483D01*
X209646Y107244D02*
X210039Y106850D01*
X209646Y107244D02*
Y107677D01*
X209646D02*
Y115551D01*
X202165Y108071D02*
X205315D01*
X201575Y107480D02*
X202165Y108071D01*
X201575Y106850D02*
Y107480D01*
X208661Y118898D02*
X219339D01*
X206102Y116339D02*
X208661Y118898D01*
X206102Y108858D02*
Y116339D01*
X188189Y127756D02*
X189124Y128691D01*
X188189Y123282D02*
Y127756D01*
Y123282D02*
X189764Y121707D01*
X212642Y124513D02*
Y128106D01*
X212057Y128691D02*
X212642Y128106D01*
X189124Y128691D02*
X212057D01*
X167099Y122610D02*
X168687Y121022D01*
X180346Y97295D02*
X182087D01*
X221260Y59843D02*
Y65551D01*
X207313Y59843D02*
X221260D01*
X177357D02*
X207313D01*
X176766Y60433D02*
X177357Y59843D01*
X176766Y60433D02*
Y106850D01*
X202984Y111403D02*
Y112069D01*
X202211Y110630D02*
X202984Y111403D01*
X200000Y110630D02*
X202211D01*
X199166Y111464D02*
Y112069D01*
Y111464D02*
X200000Y110630D01*
X205315Y108071D02*
X206102Y108858D01*
X217913Y111220D02*
X219291Y109843D01*
X213703Y111220D02*
X217913D01*
X221310Y115982D02*
Y116927D01*
X213192Y111731D02*
X213703Y111220D01*
X209646Y115551D02*
X210236Y116142D01*
X211205D01*
X222310Y111636D02*
X222726Y111220D01*
X222310Y111636D02*
Y112288D01*
X167067Y113458D02*
Y114035D01*
X163961Y117142D02*
X167067Y114035D01*
X163239Y117142D02*
X163961D01*
X163239Y125440D02*
X164930D01*
X167067Y123303D01*
Y122642D02*
Y123303D01*
X215234Y89819D02*
Y91065D01*
X188703Y89878D02*
Y91065D01*
X195197Y89876D02*
Y90986D01*
X208726Y89819D02*
Y91018D01*
X193738Y85396D02*
X214173D01*
X216535Y72027D02*
X223425D01*
Y94094D02*
X223819D01*
X219339Y118898D02*
X221310Y116927D01*
X213192Y113570D02*
X215354Y115732D01*
Y117707D01*
X185236Y76575D02*
X207679D01*
X183071Y78740D02*
X185236Y76575D01*
X207679D02*
X220270D01*
X221080Y75765D01*
X212992Y91065D02*
Y99606D01*
X188703Y91065D02*
X212992D01*
X215234D01*
X189764Y120707D02*
X193665D01*
X193819Y120861D01*
Y121968D01*
X189764Y121063D02*
Y121707D01*
G54D27*
X198022Y65993D02*
Y71923D01*
X197760Y65730D02*
X198022Y65993D01*
X188189Y71877D02*
X188339Y72027D01*
X188189Y68828D02*
Y71877D01*
Y68828D02*
X190372Y66645D01*
Y65730D02*
Y66645D01*
X169860Y92143D02*
X170850D01*
X217932Y96850D02*
Y99990D01*
G54D28*
X223004Y74645D02*
X223032Y74618D01*
G54D29*
X221232Y65579D02*
X221260Y65551D01*
G54D33*
X212992Y70276D02*
X226536D01*
X195872Y54719D02*
Y55699D01*
Y54719D02*
X196457Y54134D01*
X161811Y58661D02*
X169291D01*
X161024Y59449D02*
Y86220D01*
X161791Y86988D01*
X163160D01*
X161024Y59449D02*
X161811Y58661D01*
X193892Y52762D02*
Y55709D01*
Y52762D02*
X194488Y52165D01*
X226575D01*
Y52362D01*
X226772Y52559D01*
Y58071D01*
X226181Y58661D02*
X226772Y58071D01*
X222441Y58661D02*
X226181D01*
X196457Y54134D02*
X215551D01*
X226536Y70276D02*
X228111Y68701D01*
X159202Y110739D02*
X160973D01*
G54D50*
X189961Y74213D02*
D03*
X193819Y121968D02*
D03*
X194004Y74213D02*
D03*
X200984Y112069D02*
D03*
X223310Y115982D02*
D03*
X213205Y116142D02*
D03*
X211192Y112485D02*
D03*
X221310Y112288D02*
D03*
X169860Y93143D02*
D03*
G54D51*
X190961Y74213D02*
D03*
X191961D02*
D03*
X167116Y115981D02*
D03*
X192441Y121968D02*
D03*
X167116Y126988D02*
D03*
X229528Y93567D02*
D03*
Y92567D02*
D03*
Y91567D02*
D03*
Y90567D02*
D03*
Y99819D02*
D03*
Y100819D02*
D03*
X195004Y74213D02*
D03*
X196004D02*
D03*
X212192Y74586D02*
D03*
Y75586D02*
D03*
X215157Y74586D02*
D03*
Y73586D02*
D03*
X201984Y112069D02*
D03*
X202984D02*
D03*
X171351Y83087D02*
D03*
Y84087D02*
D03*
X221310Y115982D02*
D03*
X222310D02*
D03*
X211205Y116142D02*
D03*
X212205D02*
D03*
X213192Y112485D02*
D03*
X212192D02*
D03*
X223310Y112288D02*
D03*
X222310D02*
D03*
X163239Y117142D02*
D03*
Y116142D02*
D03*
X163239Y125440D02*
D03*
Y124440D02*
D03*
X169860Y92143D02*
D03*
Y91143D02*
D03*
Y90143D02*
D03*
Y89143D02*
D03*
Y88143D02*
D03*
Y87143D02*
D03*
X172860Y93143D02*
D03*
Y92143D02*
D03*
Y91143D02*
D03*
Y90143D02*
D03*
Y89143D02*
D03*
Y88143D02*
D03*
Y87143D02*
D03*
X192905Y112069D02*
D03*
X191905D02*
D03*
X190905D02*
D03*
X197244Y116732D02*
D03*
Y115732D02*
D03*
Y124213D02*
D03*
Y123213D02*
D03*
X159202Y100859D02*
D03*
Y110739D02*
D03*
X160973D02*
D03*
Y100859D02*
D03*
G54D52*
X192412Y110039D02*
D03*
X192912D02*
D03*
G54D53*
X193412D02*
D03*
G54D54*
X221932Y99990D02*
D03*
X220932D02*
D03*
X219932D02*
D03*
X218932D02*
D03*
X217932D02*
D03*
X216932D02*
D03*
X215932D02*
D03*
X221932Y96850D02*
D03*
X220932D02*
D03*
X219932D02*
D03*
X218932D02*
D03*
X217932D02*
D03*
X216932D02*
D03*
X182177Y98295D02*
D03*
Y97295D02*
D03*
Y96295D02*
D03*
Y95295D02*
D03*
X185583Y98295D02*
D03*
Y97295D02*
D03*
Y96295D02*
D03*
X164606Y104528D02*
D03*
X167067Y111174D02*
D03*
X167067Y120359D02*
D03*
X167829Y83248D02*
D03*
Y96673D02*
D03*
X201365Y116074D02*
D03*
X201281Y126886D02*
D03*
X193101Y97197D02*
D03*
X194101D02*
D03*
X195101D02*
D03*
X196101D02*
D03*
X193101Y100268D02*
D03*
X194101D02*
D03*
X195101D02*
D03*
X202423Y100150D02*
D03*
X201423D02*
D03*
X200423D02*
D03*
X203423Y97079D02*
D03*
X202423D02*
D03*
X201423D02*
D03*
X200423D02*
D03*
G54D55*
X215932Y96850D02*
D03*
X167067Y113458D02*
D03*
X167067Y122642D02*
D03*
X167829Y86043D02*
D03*
Y93878D02*
D03*
X201365Y118869D02*
D03*
X201281Y124091D02*
D03*
X196101Y100268D02*
D03*
X203423Y100150D02*
D03*
G54D56*
X185583Y95295D02*
D03*
X166890Y104528D02*
D03*
G54D57*
X189764Y117707D02*
D03*
X202472Y74586D02*
D03*
X224732Y74586D02*
D03*
X228027Y120257D02*
D03*
X201575Y106850D02*
D03*
X210483Y106850D02*
D03*
X219255Y106850D02*
D03*
X228027D02*
D03*
X165748Y106850D02*
D03*
X176766D02*
D03*
X192938Y106850D02*
D03*
X228027Y113554D02*
D03*
X228111Y68701D02*
D03*
X228064Y96457D02*
D03*
X227953Y74586D02*
D03*
Y79991D02*
D03*
X228064Y85396D02*
D03*
X187598Y74586D02*
D03*
X197760Y74586D02*
D03*
G54D58*
X189764Y120707D02*
D03*
Y121707D02*
D03*
Y124707D02*
D03*
X181884Y116467D02*
D03*
X180124Y119177D02*
D03*
Y122627D02*
D03*
X181884Y124997D02*
D03*
G54D59*
X232026Y121500D02*
D03*
X195872Y55699D02*
D03*
G54D60*
X232016Y119520D02*
D03*
G54D61*
X193892Y55709D02*
D03*
G54D62*
X171407Y105740D02*
D03*
Y97940D02*
D03*
G54D63*
X199166Y112069D02*
D03*
X195166D02*
D03*
X187666Y87235D02*
D03*
Y83235D02*
D03*
X185630D02*
D03*
Y87235D02*
D03*
X185616Y81790D02*
D03*
Y77790D02*
D03*
X187716D02*
D03*
Y81790D02*
D03*
X199916Y87235D02*
D03*
Y83235D02*
D03*
X202016D02*
D03*
Y87235D02*
D03*
Y81790D02*
D03*
Y77790D02*
D03*
X199916D02*
D03*
Y81790D02*
D03*
X207679Y87235D02*
D03*
Y83235D02*
D03*
X205529D02*
D03*
Y87235D02*
D03*
X205529Y81790D02*
D03*
Y77790D02*
D03*
X212683Y68313D02*
D03*
Y64313D02*
D03*
X207679Y77790D02*
D03*
Y81790D02*
D03*
X210583Y64363D02*
D03*
Y68363D02*
D03*
X220182Y87235D02*
D03*
Y83235D02*
D03*
X222382D02*
D03*
Y87235D02*
D03*
X214764Y68339D02*
D03*
Y64339D02*
D03*
X222332Y81790D02*
D03*
Y77790D02*
D03*
X216728Y64339D02*
D03*
Y68339D02*
D03*
X220132Y77790D02*
D03*
Y81790D02*
D03*
X222638Y106799D02*
D03*
Y105799D02*
D03*
X213780Y106799D02*
D03*
Y105799D02*
D03*
X205118Y106799D02*
D03*
Y105799D02*
D03*
X231799Y125228D02*
D03*
X230799D02*
D03*
G54D64*
X163160Y89134D02*
D03*
Y86988D02*
D03*
X163239Y100965D02*
D03*
Y98819D02*
D03*
G54D65*
X163160Y84843D02*
D03*
X163239Y96673D02*
D03*
G54D66*
X167116Y117359D02*
D03*
X167116Y125610D02*
D03*
X229528Y89567D02*
D03*
Y98819D02*
D03*
X212192Y73586D02*
D03*
X215157Y75586D02*
D03*
X171351Y82087D02*
D03*
X163239Y115142D02*
D03*
X163239Y123440D02*
D03*
X197244Y117732D02*
D03*
Y125213D02*
D03*
G54D67*
X167913Y88083D02*
D03*
Y89083D02*
D03*
X189961Y83214D02*
D03*
Y84214D02*
D03*
Y81799D02*
D03*
Y80799D02*
D03*
X196670Y83214D02*
D03*
Y84214D02*
D03*
Y81799D02*
D03*
Y80799D02*
D03*
X210236Y83268D02*
D03*
Y84268D02*
D03*
X210240Y81853D02*
D03*
Y80853D02*
D03*
X217453Y83268D02*
D03*
Y84268D02*
D03*
Y81853D02*
D03*
Y80853D02*
D03*
X194004Y66535D02*
D03*
X193004D02*
D03*
G54D68*
X178150Y89173D02*
D03*
Y91929D02*
D03*
X190354Y96260D02*
D03*
Y98295D02*
D03*
G54D69*
X160236Y53937D02*
D03*
Y127331D02*
D03*
X233661Y127362D02*
D03*
Y53937D02*
D03*
G54D70*
X212992Y70276D02*
D03*
X199000Y69089D02*
D03*
X196850Y69094D02*
D03*
X195866D02*
D03*
X194832D02*
D03*
X193004D02*
D03*
X191339D02*
D03*
X190400D02*
D03*
X189270D02*
D03*
X179559Y88083D02*
D03*
X179606Y98917D02*
D03*
X209646Y74645D02*
D03*
Y72441D02*
D03*
X196670Y65730D02*
D03*
X189270Y65748D02*
D03*
X223004Y74645D02*
D03*
X219103Y75394D02*
D03*
X229528Y87235D02*
D03*
X212913Y87205D02*
D03*
X192717Y87235D02*
D03*
X217882Y101181D02*
D03*
X208203Y114370D02*
D03*
X204802Y119094D02*
D03*
X202756D02*
D03*
X204802Y122642D02*
D03*
X202677Y124803D02*
D03*
X202423Y96063D02*
D03*
X195078Y96127D02*
D03*
X219094Y70180D02*
D03*
X205709Y70276D02*
D03*
X188701Y89876D02*
D03*
X195197D02*
D03*
X208726Y89819D02*
D03*
X215234Y89819D02*
D03*
X204134Y72027D02*
D03*
X223425D02*
D03*
X190372Y65730D02*
D03*
X197760D02*
D03*
X193738Y85396D02*
D03*
X214173D02*
D03*
X223819Y94094D02*
D03*
X226575D02*
D03*
X221080Y75765D02*
D03*
X207679Y76575D02*
D03*
X221232Y65579D02*
D03*
X207286Y65551D02*
D03*
X222441Y58661D02*
D03*
X225984Y61299D02*
D03*
X224213Y62992D02*
D03*
X212700Y61417D02*
D03*
X215551Y54134D02*
D03*
X209252Y62110D02*
D03*
G54D71*
X169291Y75000D02*
D03*
X179724Y63661D02*
D03*
Y75000D02*
D03*
X169291Y63661D02*
D03*
X212642Y121513D02*
D03*
X220942D02*
D03*
G54D72*
X169291Y70000D02*
D03*
X179724Y58661D02*
D03*
Y70000D02*
D03*
X169291Y58661D02*
D03*
X212642Y124513D02*
D03*
X220942D02*
D03*
G54D73*
X215354Y117707D02*
D03*
M02*
