*
*
G04 PADS Layout (Build Number 2008.43.1) generated Gerber (RS-274-X) file*
G04 PC Version=2.1*
*
%IN "TEX024_TMDSCNCD28335PGF"*%
*
%MOIN*%
*
%FSLAX35Y35*%
*
*
*
*
G04 PC Standard Apertures*
*
*
G04 Thermal Relief Aperture macro.*
%AMTER*
1,1,$1,0,0*
1,0,$1-$2,0,0*
21,0,$3,$4,0,0,45*
21,0,$3,$4,0,0,135*
%
*
*
G04 Annular Aperture macro.*
%AMANN*
1,1,$1,0,0*
1,0,$2,0,0*
%
*
*
G04 Odd Aperture macro.*
%AMODD*
1,1,$1,0,0*
1,0,$1-0.005,0,0*
%
*
*
G04 PC Custom Aperture Macros*
*
*
*
*
*
*
G04 PC Aperture Table*
*
%ADD027C,0.01*%
%ADD028C,0.005*%
%ADD029C,0.012*%
%ADD033C,0.008*%
%ADD037C,0.025*%
%ADD048C,0.024*%
%ADD060C,0*%
*
*
*
*
G04 PC Circuitry*
G04 Layer Name TEX024_TMDSCNCD28335PGF - circuitry*
%LPD*%
*
*
G04 PC Custom Flashes*
G04 Layer Name TEX024_TMDSCNCD28335PGF - flashes*
%LPD*%
*
*
G04 PC Circuitry*
G04 Layer Name TEX024_TMDSCNCD28335PGF - circuitry*
%LPD*%
*
G54D27*
G01X1293580Y664184D02*
Y654341D01*
X1297670*
X1303466Y664184D02*
X1300739Y654341D01*
X1303466Y664184D02*
X1306193Y654341D01*
X1301761Y657622D02*
X1305170D01*
X1309261Y664184D02*
X1311989Y659497D01*
Y654341*
X1314716Y664184D02*
X1311989Y659497D01*
X1317784Y664184D02*
Y654341D01*
Y664184D02*
X1322216D01*
X1317784Y659497D02*
X1320511D01*
X1317784Y654341D02*
X1322216D01*
X1325284Y664184D02*
Y654341D01*
Y664184D02*
X1328352D01*
X1329375Y663716*
X1329716Y663247*
X1330057Y662309*
Y661372*
X1329716Y660434*
X1329375Y659966*
X1328352Y659497*
X1325284*
X1327670D02*
X1330057Y654341D01*
X1035078Y707903D02*
Y698060D01*
Y707903D02*
X1038146D01*
X1039169Y707435*
X1039509Y706966*
X1039850Y706028*
Y704622*
X1039509Y703685*
X1039169Y703216*
X1038146Y702747*
X1035078*
X1042919Y707903D02*
Y698060D01*
X1047691Y707903D02*
Y698060D01*
X1042919Y703216D02*
X1047691D01*
X1052805Y707903D02*
X1052123Y707435D01*
X1051441Y706497*
X1051100Y705560*
X1050759Y704153*
Y701810*
X1051100Y700403*
X1051441Y699466*
X1052123Y698528*
X1052805Y698060*
X1054169*
X1054850Y698528*
X1055532Y699466*
X1055873Y700403*
X1056214Y701810*
Y704153*
X1055873Y705560*
X1055532Y706497*
X1054850Y707435*
X1054169Y707903*
X1052805*
X1059282D02*
Y698060D01*
Y707903D02*
X1064055Y698060D01*
Y707903D02*
Y698060D01*
X1067123Y707903D02*
Y698060D01*
Y707903D02*
X1071555D01*
X1067123Y703216D02*
X1069850D01*
X1067123Y698060D02*
X1071555D01*
X1074964Y704622D02*
X1074623Y704153D01*
X1074964Y703685*
X1075305Y704153*
X1074964Y704622*
Y698997D02*
X1074623Y698528D01*
X1074964Y698060*
X1075305Y698528*
X1074964Y698997*
X1090646Y707903D02*
X1087237D01*
X1086896Y703685*
X1087237Y704153*
X1088259Y704622*
X1089282*
X1090305Y704153*
X1090987Y703216*
X1091328Y701810*
X1090987Y700872*
X1090646Y699466*
X1089964Y698528*
X1088941Y698060*
X1087919*
X1086896Y698528*
X1086555Y698997*
X1086214Y699935*
X1096441Y707903D02*
X1095419Y707435D01*
X1094737Y706028*
X1094396Y703685*
Y702278*
X1094737Y699935*
X1095419Y698528*
X1096441Y698060*
X1097123*
X1098146Y698528*
X1098828Y699935*
X1099169Y702278*
Y703685*
X1098828Y706028*
X1098146Y707435*
X1097123Y707903*
X1096441*
X1103941D02*
X1102919Y707435D01*
X1102578Y706497*
Y705560*
X1102919Y704622*
X1103600Y704153*
X1104964Y703685*
X1105987Y703216*
X1106669Y702278*
X1107009Y701341*
Y699935*
X1106669Y698997*
X1106328Y698528*
X1105305Y698060*
X1103941*
X1102919Y698528*
X1102578Y698997*
X1102237Y699935*
Y701341*
X1102578Y702278*
X1103259Y703216*
X1104282Y703685*
X1105646Y704153*
X1106328Y704622*
X1106669Y705560*
Y706497*
X1106328Y707435*
X1105305Y707903*
X1103941*
X1110419Y698997D02*
X1110078Y698528D01*
X1110419Y698060*
X1110759Y698528*
X1110419Y698997*
X1118259Y704622D02*
X1117919Y703216D01*
X1117237Y702278*
X1116214Y701810*
X1115873*
X1114850Y702278*
X1114169Y703216*
X1113828Y704622*
Y705091*
X1114169Y706497*
X1114850Y707435*
X1115873Y707903*
X1116214*
X1117237Y707435*
X1117919Y706497*
X1118259Y704622*
Y702278*
X1117919Y699935*
X1117237Y698528*
X1116214Y698060*
X1115532*
X1114509Y698528*
X1114169Y699466*
X1124737Y707903D02*
X1121328Y701341D01*
X1126441*
X1124737Y707903D02*
Y698060D01*
X1134282Y707903D02*
X1130873Y698060D01*
X1129509Y707903D02*
X1134282D01*
X1137691Y698997D02*
X1137350Y698528D01*
X1137691Y698060*
X1138032Y698528*
X1137691Y698997*
X1141441Y705560D02*
Y706028D01*
X1141782Y706966*
X1142123Y707435*
X1142805Y707903*
X1144169*
X1144850Y707435*
X1145191Y706966*
X1145532Y706028*
Y705091*
X1145191Y704153*
X1144509Y702747*
X1141100Y698060*
X1145873*
X1153714Y707903D02*
X1150305Y698060D01*
X1148941Y707903D02*
X1153714D01*
X1158828D02*
X1157805Y707435D01*
X1157123Y706028*
X1156782Y703685*
Y702278*
X1157123Y699935*
X1157805Y698528*
X1158828Y698060*
X1159509*
X1160532Y698528*
X1161214Y699935*
X1161555Y702278*
Y703685*
X1161214Y706028*
X1160532Y707435*
X1159509Y707903*
X1158828*
X1169055Y704622D02*
X1168714Y703216D01*
X1168032Y702278*
X1167009Y701810*
X1166669*
X1165646Y702278*
X1164964Y703216*
X1164623Y704622*
Y705091*
X1164964Y706497*
X1165646Y707435*
X1166669Y707903*
X1167009*
X1168032Y707435*
X1168714Y706497*
X1169055Y704622*
Y702278*
X1168714Y699935*
X1168032Y698528*
X1167009Y698060*
X1166328*
X1165305Y698528*
X1164964Y699466*
X1032578Y726403D02*
Y716560D01*
Y726403D02*
X1035305Y716560D01*
X1038032Y726403D02*
X1035305Y716560D01*
X1038032Y726403D02*
Y716560D01*
X1041100Y726403D02*
X1041441Y725935D01*
X1041782Y726403*
X1041441Y726872*
X1041100Y726403*
X1041441Y723122D02*
Y716560D01*
X1048941Y726403D02*
Y716560D01*
Y721716D02*
X1048259Y722653D01*
X1047578Y723122*
X1046555*
X1045873Y722653*
X1045191Y721716*
X1044850Y720310*
Y719372*
X1045191Y717966*
X1045873Y717028*
X1046555Y716560*
X1047578*
X1048259Y717028*
X1048941Y717966*
X1056100Y726403D02*
Y716560D01*
Y721716D02*
X1055419Y722653D01*
X1054737Y723122*
X1053714*
X1053032Y722653*
X1052350Y721716*
X1052009Y720310*
Y719372*
X1052350Y717966*
X1053032Y717028*
X1053714Y716560*
X1054737*
X1055419Y717028*
X1056100Y717966*
X1059169Y726403D02*
Y716560D01*
X1062237Y720310D02*
X1066328D01*
Y721247*
X1065987Y722185*
X1065646Y722653*
X1064964Y723122*
X1063941*
X1063259Y722653*
X1062578Y721716*
X1062237Y720310*
Y719372*
X1062578Y717966*
X1063259Y717028*
X1063941Y716560*
X1064964*
X1065646Y717028*
X1066328Y717966*
X1069396Y726403D02*
Y716560D01*
Y721716D02*
X1070078Y722653D01*
X1070759Y723122*
X1071782*
X1072464Y722653*
X1073146Y721716*
X1073487Y720310*
Y719372*
X1073146Y717966*
X1072464Y717028*
X1071782Y716560*
X1070759*
X1070078Y717028*
X1069396Y717966*
X1078259Y723122D02*
X1077578Y722653D01*
X1076896Y721716*
X1076555Y720310*
Y719372*
X1076896Y717966*
X1077578Y717028*
X1078259Y716560*
X1079282*
X1079964Y717028*
X1080646Y717966*
X1080987Y719372*
Y720310*
X1080646Y721716*
X1079964Y722653*
X1079282Y723122*
X1078259*
X1084055D02*
Y716560D01*
Y720310D02*
X1084396Y721716D01*
X1085078Y722653*
X1085759Y723122*
X1086782*
X1091555D02*
X1090873Y722653D01*
X1090191Y721716*
X1089850Y720310*
Y719372*
X1090191Y717966*
X1090873Y717028*
X1091555Y716560*
X1092578*
X1093259Y717028*
X1093941Y717966*
X1094282Y719372*
Y720310*
X1093941Y721716*
X1093259Y722653*
X1092578Y723122*
X1091555*
X1098032Y717028D02*
X1097691Y716560D01*
X1097350Y717028*
X1097691Y717497*
X1098032Y717028*
Y716091*
X1097691Y715153*
X1097350Y714685*
X1108941Y726403D02*
Y716560D01*
Y726403D02*
X1111669Y716560D01*
X1114396Y726403D02*
X1111669Y716560D01*
X1114396Y726403D02*
Y716560D01*
X1120191Y726403D02*
X1117464Y716560D01*
X1120191Y726403D02*
X1122919Y716560D01*
X1118487Y719841D02*
X1121896D01*
X1135873Y726403D02*
X1134850Y725935D01*
X1134169Y724528*
X1133828Y722185*
Y720778*
X1134169Y718435*
X1134850Y717028*
X1135873Y716560*
X1136555*
X1137578Y717028*
X1138259Y718435*
X1138600Y720778*
Y722185*
X1138259Y724528*
X1137578Y725935*
X1136555Y726403*
X1135873*
X1142009Y724060D02*
Y724528D01*
X1142350Y725466*
X1142691Y725935*
X1143373Y726403*
X1144737*
X1145419Y725935*
X1145759Y725466*
X1146100Y724528*
Y723591*
X1145759Y722653*
X1145078Y721247*
X1141669Y716560*
X1146441*
X1150191Y726403D02*
X1153941D01*
X1151896Y722653*
X1152919*
X1153600Y722185*
X1153941Y721716*
X1154282Y720310*
Y719372*
X1153941Y717966*
X1153259Y717028*
X1152237Y716560*
X1151214*
X1150191Y717028*
X1149850Y717497*
X1149509Y718435*
X1160759Y726403D02*
X1157350Y719841D01*
X1162464*
X1160759Y726403D02*
Y716560D01*
X1169623Y724997D02*
X1169282Y725935D01*
X1168259Y726403*
X1167578*
X1166555Y725935*
X1165873Y724528*
X1165532Y722185*
Y719841*
X1165873Y717966*
X1166555Y717028*
X1167578Y716560*
X1167919*
X1168941Y717028*
X1169623Y717966*
X1169964Y719372*
Y719841*
X1169623Y721247*
X1168941Y722185*
X1167919Y722653*
X1167578*
X1166555Y722185*
X1165873Y721247*
X1165532Y719841*
X1041078Y743028D02*
X1041759Y743497D01*
X1042782Y744903*
Y735060*
X1045850Y743028D02*
X1046532Y743497D01*
X1047555Y744903*
Y735060*
X1052328Y744903D02*
X1051305Y744435D01*
X1050964Y743497*
Y742560*
X1051305Y741622*
X1051987Y741153*
X1053350Y740685*
X1054373Y740216*
X1055055Y739278*
X1055396Y738341*
Y736935*
X1055055Y735997*
X1054714Y735528*
X1053691Y735060*
X1052328*
X1051305Y735528*
X1050964Y735997*
X1050623Y736935*
Y738341*
X1050964Y739278*
X1051646Y740216*
X1052669Y740685*
X1054032Y741153*
X1054714Y741622*
X1055055Y742560*
Y743497*
X1054714Y744435*
X1053691Y744903*
X1052328*
X1062896D02*
X1059487D01*
X1059146Y740685*
X1059487Y741153*
X1060509Y741622*
X1061532*
X1062555Y741153*
X1063237Y740216*
X1063578Y738810*
X1063237Y737872*
X1062896Y736466*
X1062214Y735528*
X1061191Y735060*
X1060169*
X1059146Y735528*
X1058805Y735997*
X1058464Y736935*
X1079600Y742560D02*
X1079259Y743497D01*
X1078578Y744435*
X1077896Y744903*
X1076532*
X1075850Y744435*
X1075169Y743497*
X1074828Y742560*
X1074487Y741153*
Y738810*
X1074828Y737403*
X1075169Y736466*
X1075850Y735528*
X1076532Y735060*
X1077896*
X1078578Y735528*
X1079259Y736466*
X1079600Y737403*
X1082669Y738810D02*
X1086759D01*
Y739747*
X1086419Y740685*
X1086078Y741153*
X1085396Y741622*
X1084373*
X1083691Y741153*
X1083009Y740216*
X1082669Y738810*
Y737872*
X1083009Y736466*
X1083691Y735528*
X1084373Y735060*
X1085396*
X1086078Y735528*
X1086759Y736466*
X1089828Y741622D02*
Y735060D01*
Y739747D02*
X1090850Y741153D01*
X1091532Y741622*
X1092555*
X1093237Y741153*
X1093578Y739747*
Y735060*
X1097669Y744903D02*
Y736935D01*
X1098009Y735528*
X1098691Y735060*
X1099373*
X1096646Y741622D02*
X1099032D01*
X1102441D02*
Y735060D01*
Y738810D02*
X1102782Y740216D01*
X1103464Y741153*
X1104146Y741622*
X1105169*
X1108237Y738810D02*
X1112328D01*
Y739747*
X1111987Y740685*
X1111646Y741153*
X1110964Y741622*
X1109941*
X1109259Y741153*
X1108578Y740216*
X1108237Y738810*
Y737872*
X1108578Y736466*
X1109259Y735528*
X1109941Y735060*
X1110964*
X1111646Y735528*
X1112328Y736466*
X1128009Y743497D02*
X1127328Y744435D01*
X1126305Y744903*
X1124941*
X1123919Y744435*
X1123237Y743497*
Y742560*
X1123578Y741622*
X1123919Y741153*
X1124600Y740685*
X1126646Y739747*
X1127328Y739278*
X1127669Y738810*
X1128009Y737872*
Y736466*
X1127328Y735528*
X1126305Y735060*
X1124941*
X1123919Y735528*
X1123237Y736466*
X1132100Y744903D02*
Y736935D01*
X1132441Y735528*
X1133123Y735060*
X1133805*
X1131078Y741622D02*
X1133464D01*
X1136873D02*
Y735060D01*
Y738810D02*
X1137214Y740216D01*
X1137896Y741153*
X1138578Y741622*
X1139600*
X1142669Y738810D02*
X1146759D01*
Y739747*
X1146419Y740685*
X1146078Y741153*
X1145396Y741622*
X1144373*
X1143691Y741153*
X1143009Y740216*
X1142669Y738810*
Y737872*
X1143009Y736466*
X1143691Y735528*
X1144373Y735060*
X1145396*
X1146078Y735528*
X1146759Y736466*
X1149828Y738810D02*
X1153919D01*
Y739747*
X1153578Y740685*
X1153237Y741153*
X1152555Y741622*
X1151532*
X1150850Y741153*
X1150169Y740216*
X1149828Y738810*
Y737872*
X1150169Y736466*
X1150850Y735528*
X1151532Y735060*
X1152555*
X1153237Y735528*
X1153919Y736466*
X1158009Y744903D02*
Y736935D01*
X1158350Y735528*
X1159032Y735060*
X1159714*
X1156987Y741622D02*
X1159373D01*
X1167591Y666513D02*
X1163045Y657762D01*
X1163045D02*
X1169864D01*
X1167591Y666513D02*
Y653387D01*
X1182136Y669013D02*
X1173955Y649012D01*
X1186682Y663388D02*
Y664013D01*
X1186682D02*
X1187136Y665263D01*
X1187136D02*
X1187591Y665888D01*
X1187591D02*
X1188500Y666513D01*
X1188500D02*
X1190318D01*
X1190318D02*
X1191227Y665888D01*
X1191227D02*
X1191682Y665263D01*
X1191682D02*
X1192136Y664013D01*
X1192136D02*
Y662763D01*
X1192136D02*
X1191682Y661513D01*
X1191682D02*
X1190773Y659637D01*
X1190773D02*
X1186227Y653387D01*
X1186227D02*
X1192591D01*
X1197136Y663388D02*
Y664013D01*
X1197136D02*
X1197591Y665263D01*
X1197591D02*
X1198045Y665888D01*
X1198045D02*
X1198955Y666513D01*
X1198955D02*
X1200773D01*
X1200773D02*
X1201682Y665888D01*
X1201682D02*
X1202136Y665263D01*
X1202136D02*
X1202591Y664013D01*
X1202591D02*
Y662763D01*
X1202591D02*
X1202136Y661513D01*
X1202136D02*
X1201227Y659637D01*
X1201227D02*
X1196682Y653387D01*
X1196682D02*
X1203045D01*
X1215318Y669013D02*
X1207136Y649012D01*
X1219409Y664013D02*
X1220318Y664638D01*
X1220318D02*
X1221682Y666513D01*
X1221682D02*
Y653387D01*
X1228500Y666513D02*
X1227136Y665888D01*
X1227136D02*
X1226227Y664013D01*
X1226227D02*
X1225773Y660887D01*
X1225773D02*
Y659012D01*
X1225773D02*
X1226227Y655887D01*
X1226227D02*
X1227136Y654012D01*
X1227136D02*
X1228500Y653387D01*
X1228500D02*
X1229409D01*
X1229409D02*
X1230773Y654012D01*
X1230773D02*
X1231682Y655887D01*
X1231682D02*
X1232136Y659012D01*
X1232136D02*
Y660887D01*
X1232136D02*
X1231682Y664013D01*
X1231682D02*
X1230773Y665888D01*
X1230773D02*
X1229409Y666513D01*
X1229409D02*
X1228500D01*
X838909Y666344D02*
Y658844D01*
X838568Y657438*
X838568D02*
X838227Y656969D01*
X837545Y656500*
X836864*
X836182Y656969*
X835841Y657438*
X835841D02*
X835500Y658844D01*
Y659781*
X843682Y663063D02*
X843000Y662594D01*
X842318Y661656*
X841977Y660250*
Y659313*
X841977D02*
X842318Y657906D01*
X843000Y656969*
X843682Y656500*
X844705*
X845386Y656969*
X846068Y657906*
X846409Y659313*
X846409D02*
Y660250D01*
X846068Y661656*
X845386Y662594*
X844705Y663063*
X844705D02*
X843682D01*
X849477Y666344D02*
Y656500D01*
Y661656D02*
X850159Y662594D01*
X850841Y663063*
X850841D02*
X851864D01*
X851864D02*
X852545Y662594D01*
X853227Y661656*
X853568Y660250*
Y659313*
X853568D02*
X853227Y657906D01*
X852545Y656969*
X851864Y656500*
X850841*
X850159Y656969*
X849477Y657906*
X864477Y666344D02*
Y656500D01*
Y666344D02*
X869250Y656500D01*
Y666344D02*
Y656500D01*
X874023Y663063D02*
X873341Y662594D01*
X872659Y661656*
X872318Y660250*
Y659313*
X872318D02*
X872659Y657906D01*
X873341Y656969*
X874023Y656500*
X875045*
X875727Y656969*
X876409Y657906*
X876750Y659313*
X876750D02*
Y660250D01*
X876409Y661656*
X875727Y662594*
X875045Y663063*
X875045D02*
X874023D01*
X880159D02*
X879818Y662594D01*
X880159Y662125*
X880500Y662594*
X880159Y663063*
Y657438D02*
X879818Y656969D01*
X880159Y656500*
X880500Y656969*
X880159Y657438*
X1041000Y663544D02*
Y653700D01*
Y663544D02*
X1043386D01*
X1044409Y663075*
X1045091Y662138*
X1045091D02*
X1045432Y661200D01*
X1045773Y659794*
Y657450*
X1045432Y656044*
X1045091Y655106*
X1044409Y654169*
X1043386Y653700*
X1041000*
X1052932Y660263D02*
Y653700D01*
Y658856D02*
X1052250Y659794D01*
X1051568Y660263*
X1051568D02*
X1050545D01*
X1050545D02*
X1049864Y659794D01*
X1049182Y658856*
X1048841Y657450*
Y656513*
X1048841D02*
X1049182Y655106D01*
X1049864Y654169*
X1050545Y653700*
X1051568*
X1052250Y654169*
X1052932Y655106*
X1057023Y663544D02*
Y655575D01*
X1057364Y654169*
X1058045Y653700*
X1058727*
X1056000Y660263D02*
X1058386D01*
X1061795Y657450D02*
X1065886D01*
Y658388*
X1065886D02*
X1065545Y659325D01*
X1065205Y659794*
X1064523Y660263*
X1064523D02*
X1063500D01*
X1063500D02*
X1062818Y659794D01*
X1062136Y658856*
X1061795Y657450*
Y656513*
X1061795D02*
X1062136Y655106D01*
X1062818Y654169*
X1063500Y653700*
X1064523*
X1065205Y654169*
X1065886Y655106*
X1069295Y660263D02*
X1068955Y659794D01*
X1069295Y659325*
X1069636Y659794*
X1069295Y660263*
Y654638D02*
X1068955Y654169D01*
X1069295Y653700*
X1069636Y654169*
X1069295Y654638*
X841305Y763403D02*
X838578Y753560D01*
X841305Y763403D02*
X844032Y753560D01*
X839600Y756841D02*
X843009D01*
X847100Y760122D02*
Y753560D01*
Y757310D02*
X847441Y758716D01*
X848123Y759653*
X848805Y760122*
X849828*
X853919Y763403D02*
Y755435D01*
X854259Y754028*
X854941Y753560*
X855623*
X852896Y760122D02*
X855282D01*
X858691D02*
X860055Y753560D01*
X861419Y760122D02*
X860055Y753560D01*
X861419Y760122D02*
X862782Y753560D01*
X864146Y760122D02*
X862782Y753560D01*
X868919Y760122D02*
X868237Y759653D01*
X867555Y758716*
X867214Y757310*
Y756372*
X867555Y754966*
X868237Y754028*
X868919Y753560*
X869941*
X870623Y754028*
X871305Y754966*
X871646Y756372*
Y757310*
X871305Y758716*
X870623Y759653*
X869941Y760122*
X868919*
X874714D02*
Y753560D01*
Y757310D02*
X875055Y758716D01*
X875737Y759653*
X876419Y760122*
X877441*
X880509Y763403D02*
Y753560D01*
X883919Y760122D02*
X880509Y755435D01*
X881873Y757310D02*
X884259Y753560D01*
X895169Y763403D02*
Y753560D01*
Y763403D02*
X897555D01*
X898578Y762935*
X899259Y761997*
X899600Y761060*
X899941Y759653*
Y757310*
X899600Y755903*
X899259Y754966*
X898578Y754028*
X897555Y753560*
X895169*
X903009Y757310D02*
X907100D01*
Y758247*
X906759Y759185*
X906419Y759653*
X905737Y760122*
X904714*
X904032Y759653*
X903350Y758716*
X903009Y757310*
Y756372*
X903350Y754966*
X904032Y754028*
X904714Y753560*
X905737*
X906419Y754028*
X907100Y754966*
X913919Y758716D02*
X913578Y759653D01*
X912555Y760122*
X911532*
X910509Y759653*
X910169Y758716*
X910509Y757778*
X911191Y757310*
X912896Y756841*
X913578Y756372*
X913919Y755435*
Y754966*
X913578Y754028*
X912555Y753560*
X911532*
X910509Y754028*
X910169Y754966*
X916987Y763403D02*
X917328Y762935D01*
X917669Y763403*
X917328Y763872*
X916987Y763403*
X917328Y760122D02*
Y753560D01*
X924828Y760122D02*
Y752622D01*
X924487Y751216*
X924146Y750747*
X923464Y750278*
X922441*
X921759Y750747*
X924828Y758716D02*
X924146Y759653D01*
X923464Y760122*
X922441*
X921759Y759653*
X921078Y758716*
X920737Y757310*
Y756372*
X921078Y754966*
X921759Y754028*
X922441Y753560*
X923464*
X924146Y754028*
X924828Y754966*
X927896Y760122D02*
Y753560D01*
Y758247D02*
X928919Y759653D01*
X929600Y760122*
X930623*
X931305Y759653*
X931646Y758247*
Y753560*
X934714Y757310D02*
X938805D01*
Y758247*
X938464Y759185*
X938123Y759653*
X937441Y760122*
X936419*
X935737Y759653*
X935055Y758716*
X934714Y757310*
Y756372*
X935055Y754966*
X935737Y754028*
X936419Y753560*
X937441*
X938123Y754028*
X938805Y754966*
X945964Y763403D02*
Y753560D01*
Y758716D02*
X945282Y759653D01*
X944600Y760122*
X943578*
X942896Y759653*
X942214Y758716*
X941873Y757310*
Y756372*
X942214Y754966*
X942896Y754028*
X943578Y753560*
X944600*
X945282Y754028*
X945964Y754966*
X956873Y763403D02*
Y753560D01*
Y763403D02*
X959941D01*
X960964Y762935*
X961305Y762466*
X961646Y761528*
Y760591*
X961305Y759653*
X960964Y759185*
X959941Y758716*
X956873D02*
X959941D01*
X960964Y758247*
X961305Y757778*
X961646Y756841*
Y755435*
X961305Y754497*
X960964Y754028*
X959941Y753560*
X956873*
X965055Y760122D02*
X967100Y753560D01*
X969146Y760122D02*
X967100Y753560D01*
X966419Y751685*
X965737Y750747*
X965055Y750278*
X964714*
X972555Y760122D02*
X972214Y759653D01*
X972555Y759185*
X972896Y759653*
X972555Y760122*
Y754497D02*
X972214Y754028D01*
X972555Y753560*
X972896Y754028*
X972555Y754497*
X983805Y763403D02*
X985509Y753560D01*
X987214Y763403D02*
X985509Y753560D01*
X987214Y763403D02*
X988919Y753560D01*
X990623Y763403D02*
X988919Y753560D01*
X993691Y763403D02*
X994032Y762935D01*
X994373Y763403*
X994032Y763872*
X993691Y763403*
X994032Y760122D02*
Y753560D01*
X997441Y763403D02*
Y753560D01*
X1000509Y763403D02*
Y753560D01*
X1005282Y760122D02*
X1004600Y759653D01*
X1003919Y758716*
X1003578Y757310*
Y756372*
X1003919Y754966*
X1004600Y754028*
X1005282Y753560*
X1006305*
X1006987Y754028*
X1007669Y754966*
X1008009Y756372*
Y757310*
X1007669Y758716*
X1006987Y759653*
X1006305Y760122*
X1005282*
X1011078D02*
X1012441Y753560D01*
X1013805Y760122D02*
X1012441Y753560D01*
X1013805Y760122D02*
X1015169Y753560D01*
X1016532Y760122D02*
X1015169Y753560D01*
X1032214Y761997D02*
X1031532Y762935D01*
X1030509Y763403*
X1029146*
X1028123Y762935*
X1027441Y761997*
Y761060*
X1027782Y760122*
X1028123Y759653*
X1028805Y759185*
X1030850Y758247*
X1031532Y757778*
X1031873Y757310*
X1032214Y756372*
Y754966*
X1031532Y754028*
X1030509Y753560*
X1029146*
X1028123Y754028*
X1027441Y754966*
X1035282Y760122D02*
Y750278D01*
Y758716D02*
X1035964Y759653D01*
X1036646Y760122*
X1037669*
X1038350Y759653*
X1039032Y758716*
X1039373Y757310*
Y756372*
X1039032Y754966*
X1038350Y754028*
X1037669Y753560*
X1036646*
X1035964Y754028*
X1035282Y754966*
X1042441Y760122D02*
Y753560D01*
Y757310D02*
X1042782Y758716D01*
X1043464Y759653*
X1044146Y760122*
X1045169*
X1048237Y763403D02*
X1048578Y762935D01*
X1048919Y763403*
X1048578Y763872*
X1048237Y763403*
X1048578Y760122D02*
Y753560D01*
X1051987Y760122D02*
Y753560D01*
Y758247D02*
X1053009Y759653D01*
X1053691Y760122*
X1054714*
X1055396Y759653*
X1055737Y758247*
Y753560*
X1062896Y760122D02*
Y752622D01*
X1062555Y751216*
X1062214Y750747*
X1061532Y750278*
X1060509*
X1059828Y750747*
X1062896Y758716D02*
X1062214Y759653D01*
X1061532Y760122*
X1060509*
X1059828Y759653*
X1059146Y758716*
X1058805Y757310*
Y756372*
X1059146Y754966*
X1059828Y754028*
X1060509Y753560*
X1061532*
X1062214Y754028*
X1062896Y754966*
X1076191Y763403D02*
Y753560D01*
X1073805Y763403D02*
X1078578D01*
X1081646Y757310D02*
X1085737D01*
Y758247*
X1085396Y759185*
X1085055Y759653*
X1084373Y760122*
X1083350*
X1082669Y759653*
X1081987Y758716*
X1081646Y757310*
Y756372*
X1081987Y754966*
X1082669Y754028*
X1083350Y753560*
X1084373*
X1085055Y754028*
X1085737Y754966*
X1092896Y758716D02*
X1092214Y759653D01*
X1091532Y760122*
X1090509*
X1089828Y759653*
X1089146Y758716*
X1088805Y757310*
Y756372*
X1089146Y754966*
X1089828Y754028*
X1090509Y753560*
X1091532*
X1092214Y754028*
X1092896Y754966*
X1095964Y763403D02*
Y753560D01*
Y758247D02*
X1096987Y759653D01*
X1097669Y760122*
X1098691*
X1099373Y759653*
X1099714Y758247*
Y753560*
X1102782Y760122D02*
Y753560D01*
Y758247D02*
X1103805Y759653D01*
X1104487Y760122*
X1105509*
X1106191Y759653*
X1106532Y758247*
Y753560*
X1109600Y763403D02*
X1109941Y762935D01*
X1110282Y763403*
X1109941Y763872*
X1109600Y763403*
X1109941Y760122D02*
Y753560D01*
X1117441Y758716D02*
X1116759Y759653D01*
X1116078Y760122*
X1115055*
X1114373Y759653*
X1113691Y758716*
X1113350Y757310*
Y756372*
X1113691Y754966*
X1114373Y754028*
X1115055Y753560*
X1116078*
X1116759Y754028*
X1117441Y754966*
X1124600Y760122D02*
Y753560D01*
Y758716D02*
X1123919Y759653D01*
X1123237Y760122*
X1122214*
X1121532Y759653*
X1120850Y758716*
X1120509Y757310*
Y756372*
X1120850Y754966*
X1121532Y754028*
X1122214Y753560*
X1123237*
X1123919Y754028*
X1124600Y754966*
X1127669Y763403D02*
Y753560D01*
X1143350Y761997D02*
X1142669Y762935D01*
X1141646Y763403*
X1140282*
X1139259Y762935*
X1138578Y761997*
Y761060*
X1138919Y760122*
X1139259Y759653*
X1139941Y759185*
X1141987Y758247*
X1142669Y757778*
X1143009Y757310*
X1143350Y756372*
Y754966*
X1142669Y754028*
X1141646Y753560*
X1140282*
X1139259Y754028*
X1138578Y754966*
X1146419Y757310D02*
X1150509D01*
Y758247*
X1150169Y759185*
X1149828Y759653*
X1149146Y760122*
X1148123*
X1147441Y759653*
X1146759Y758716*
X1146419Y757310*
Y756372*
X1146759Y754966*
X1147441Y754028*
X1148123Y753560*
X1149146*
X1149828Y754028*
X1150509Y754966*
X1153578Y760122D02*
Y753560D01*
Y757310D02*
X1153919Y758716D01*
X1154600Y759653*
X1155282Y760122*
X1156305*
X1159373D02*
X1161419Y753560D01*
X1163464Y760122D02*
X1161419Y753560D01*
X1166532Y763403D02*
X1166873Y762935D01*
X1167214Y763403*
X1166873Y763872*
X1166532Y763403*
X1166873Y760122D02*
Y753560D01*
X1174373Y758716D02*
X1173691Y759653D01*
X1173009Y760122*
X1171987*
X1171305Y759653*
X1170623Y758716*
X1170282Y757310*
Y756372*
X1170623Y754966*
X1171305Y754028*
X1171987Y753560*
X1173009*
X1173691Y754028*
X1174373Y754966*
X1177441Y757310D02*
X1181532D01*
Y758247*
X1181191Y759185*
X1180850Y759653*
X1180169Y760122*
X1179146*
X1178464Y759653*
X1177782Y758716*
X1177441Y757310*
Y756372*
X1177782Y754966*
X1178464Y754028*
X1179146Y753560*
X1180169*
X1180850Y754028*
X1181532Y754966*
X1188350Y758716D02*
X1188009Y759653D01*
X1186987Y760122*
X1185964*
X1184941Y759653*
X1184600Y758716*
X1184941Y757778*
X1185623Y757310*
X1187328Y756841*
X1188009Y756372*
X1188350Y755435*
Y754966*
X1188009Y754028*
X1186987Y753560*
X1185964*
X1184941Y754028*
X1184600Y754966*
X1204373Y761060D02*
X1204032Y761997D01*
X1203350Y762935*
X1202669Y763403*
X1201305*
X1200623Y762935*
X1199941Y761997*
X1199600Y761060*
X1199259Y759653*
Y757310*
X1199600Y755903*
X1199941Y754966*
X1200623Y754028*
X1201305Y753560*
X1202669*
X1203350Y754028*
X1204032Y754966*
X1204373Y755903*
X1209146Y760122D02*
X1208464Y759653D01*
X1207782Y758716*
X1207441Y757310*
Y756372*
X1207782Y754966*
X1208464Y754028*
X1209146Y753560*
X1210169*
X1210850Y754028*
X1211532Y754966*
X1211873Y756372*
Y757310*
X1211532Y758716*
X1210850Y759653*
X1210169Y760122*
X1209146*
X1214941D02*
Y753560D01*
Y757310D02*
X1215282Y758716D01*
X1215964Y759653*
X1216646Y760122*
X1217669*
X1220737D02*
Y750278D01*
Y758716D02*
X1221419Y759653D01*
X1222100Y760122*
X1223123*
X1223805Y759653*
X1224487Y758716*
X1224828Y757310*
Y756372*
X1224487Y754966*
X1223805Y754028*
X1223123Y753560*
X1222100*
X1221419Y754028*
X1220737Y754966*
X1228237Y754497D02*
X1227896Y754028D01*
X1228237Y753560*
X1228578Y754028*
X1228237Y754497*
X906455Y665513D02*
Y652387D01*
X903273Y665513D02*
X909636D01*
X913727D02*
Y652387D01*
Y665513D02*
X919636D01*
X913727Y659262D02*
X917364D01*
X913727Y652387D02*
X919636D01*
X923727Y665513D02*
X930091Y652387D01*
Y665513D02*
X923727Y652387D01*
X934636Y653637D02*
X934182Y653012D01*
X934182D02*
X934636Y652387D01*
X934636D02*
X935091Y653012D01*
X935091D02*
X934636Y653637D01*
X941909Y665513D02*
X940545Y664888D01*
X940545D02*
X939636Y663013D01*
X939636D02*
X939182Y659887D01*
X939182D02*
Y658012D01*
X939182D02*
X939636Y654887D01*
X939636D02*
X940545Y653012D01*
X940545D02*
X941909Y652387D01*
X941909D02*
X942818D01*
X942818D02*
X944182Y653012D01*
X944182D02*
X945091Y654887D01*
X945091D02*
X945545Y658012D01*
X945545D02*
Y659887D01*
X945545D02*
X945091Y663013D01*
X945091D02*
X944182Y664888D01*
X944182D02*
X942818Y665513D01*
X942818D02*
X941909D01*
X950091Y662388D02*
Y663013D01*
X950091D02*
X950545Y664263D01*
X950545D02*
X951000Y664888D01*
X951000D02*
X951909Y665513D01*
X951909D02*
X953727D01*
X953727D02*
X954636Y664888D01*
X954636D02*
X955091Y664263D01*
X955091D02*
X955545Y663013D01*
X955545D02*
Y661763D01*
X955545D02*
X955091Y660513D01*
X955091D02*
X954182Y658637D01*
X954182D02*
X949636Y652387D01*
X949636D02*
X956000D01*
X964636Y665513D02*
X960091Y656762D01*
X960091D02*
X966909D01*
X964636Y665513D02*
Y652387D01*
X1260727Y835044D02*
X1258000Y825200D01*
X1260727Y835044D02*
X1263455Y825200D01*
X1259023Y828481D02*
X1262432D01*
X1266523Y831763D02*
Y825200D01*
Y828950D02*
X1266864Y830356D01*
X1267545Y831294*
X1268227Y831763*
X1268227D02*
X1269250D01*
X1273341Y835044D02*
Y827075D01*
X1273682Y825669*
X1274364Y825200*
X1275045*
X1272318Y831763D02*
X1274705D01*
X1278114D02*
X1279477Y825200D01*
X1280841Y831763D02*
X1279477Y825200D01*
X1280841Y831763D02*
X1282205Y825200D01*
X1283568Y831763D02*
X1282205Y825200D01*
X1288341Y831763D02*
X1287659Y831294D01*
X1286977Y830356*
X1286636Y828950*
Y828013*
X1286636D02*
X1286977Y826606D01*
X1287659Y825669*
X1288341Y825200*
X1289364*
X1290045Y825669*
X1290727Y826606*
X1291068Y828013*
X1291068D02*
Y828950D01*
X1290727Y830356*
X1290045Y831294*
X1289364Y831763*
X1289364D02*
X1288341D01*
X1294136D02*
Y825200D01*
Y828950D02*
X1294477Y830356D01*
X1295159Y831294*
X1295841Y831763*
X1295841D02*
X1296864D01*
X1299932Y835044D02*
Y825200D01*
X1303341Y831763D02*
X1299932Y827075D01*
X1301295Y828950D02*
X1303682Y825200D01*
X1314591Y835044D02*
Y825200D01*
Y835044D02*
X1316977D01*
X1318000Y834575*
X1318682Y833638*
X1318682D02*
X1319023Y832700D01*
X1319364Y831294*
Y828950*
X1319023Y827544*
X1318682Y826606*
X1318000Y825669*
X1316977Y825200*
X1314591*
X1322432Y828950D02*
X1326523D01*
Y829888*
X1326523D02*
X1326182Y830825D01*
X1325841Y831294*
X1325159Y831763*
X1325159D02*
X1324136D01*
X1324136D02*
X1323455Y831294D01*
X1322773Y830356*
X1322432Y828950*
Y828013*
X1322432D02*
X1322773Y826606D01*
X1323455Y825669*
X1324136Y825200*
X1325159*
X1325841Y825669*
X1326523Y826606*
X1333341Y830356D02*
X1333000Y831294D01*
X1331977Y831763*
X1331977D02*
X1330955D01*
X1330955D02*
X1329932Y831294D01*
X1329591Y830356*
X1329932Y829419*
X1330614Y828950*
X1332318Y828481*
X1333000Y828013*
X1333000D02*
X1333341Y827075D01*
Y826606*
X1333000Y825669*
X1331977Y825200*
X1330955*
X1329932Y825669*
X1329591Y826606*
X1336409Y835044D02*
X1336750Y834575D01*
X1337091Y835044*
X1336750Y835513*
X1336750D02*
X1336409Y835044D01*
X1336750Y831763D02*
Y825200D01*
X1344250Y831763D02*
Y824262D01*
X1344250D02*
X1343909Y822856D01*
X1343568Y822387*
X1343568D02*
X1342886Y821919D01*
X1341864*
X1341182Y822387*
X1344250Y830356D02*
X1343568Y831294D01*
X1342886Y831763*
X1342886D02*
X1341864D01*
X1341864D02*
X1341182Y831294D01*
X1340500Y830356*
X1340159Y828950*
Y828013*
X1340159D02*
X1340500Y826606D01*
X1341182Y825669*
X1341864Y825200*
X1342886*
X1343568Y825669*
X1344250Y826606*
X1347318Y831763D02*
Y825200D01*
Y829888D02*
X1348341Y831294D01*
X1349023Y831763*
X1349023D02*
X1350045D01*
X1350045D02*
X1350727Y831294D01*
X1351068Y829888*
X1351068D02*
Y825200D01*
X1354136Y828950D02*
X1358227D01*
Y829888*
X1358227D02*
X1357886Y830825D01*
X1357545Y831294*
X1356864Y831763*
X1356864D02*
X1355841D01*
X1355841D02*
X1355159Y831294D01*
X1354477Y830356*
X1354136Y828950*
Y828013*
X1354136D02*
X1354477Y826606D01*
X1355159Y825669*
X1355841Y825200*
X1356864*
X1357545Y825669*
X1358227Y826606*
X1365386Y835044D02*
Y825200D01*
Y830356D02*
X1364705Y831294D01*
X1364023Y831763*
X1364023D02*
X1363000D01*
X1363000D02*
X1362318Y831294D01*
X1361636Y830356*
X1361295Y828950*
Y828013*
X1361295D02*
X1361636Y826606D01*
X1362318Y825669*
X1363000Y825200*
X1364023*
X1364705Y825669*
X1365386Y826606*
X1376295Y835044D02*
Y825200D01*
Y835044D02*
X1380727D01*
X1376295Y830356D02*
X1379023D01*
X1385500Y831763D02*
X1384818Y831294D01*
X1384136Y830356*
X1383795Y828950*
Y828013*
X1383795D02*
X1384136Y826606D01*
X1384818Y825669*
X1385500Y825200*
X1386523*
X1387205Y825669*
X1387886Y826606*
X1388227Y828013*
X1388227D02*
Y828950D01*
X1387886Y830356*
X1387205Y831294*
X1386523Y831763*
X1386523D02*
X1385500D01*
X1391295D02*
Y825200D01*
Y828950D02*
X1391636Y830356D01*
X1392318Y831294*
X1393000Y831763*
X1393000D02*
X1394023D01*
X1397432D02*
X1397091Y831294D01*
X1397432Y830825*
X1397773Y831294*
X1397432Y831763*
Y826138D02*
X1397091Y825669D01*
X1397432Y825200*
X1397773Y825669*
X1397432Y826138*
X1258000Y780044D02*
Y770200D01*
Y780044D02*
X1261068D01*
X1262091Y779575*
X1262432Y779106*
X1262773Y778169*
Y777231*
X1262432Y776294*
X1262091Y775825*
X1261068Y775356*
X1258000D02*
X1261068D01*
X1262091Y774888*
X1262091D02*
X1262432Y774419D01*
X1262773Y773481*
Y772075*
X1262432Y771138*
X1262432D02*
X1262091Y770669D01*
X1261068Y770200*
X1258000*
X1267545Y776763D02*
X1266864Y776294D01*
X1266182Y775356*
X1265841Y773950*
Y773013*
X1265841D02*
X1266182Y771606D01*
X1266864Y770669*
X1267545Y770200*
X1268568*
X1269250Y770669*
X1269932Y771606*
X1270273Y773013*
X1270273D02*
Y773950D01*
X1269932Y775356*
X1269250Y776294*
X1268568Y776763*
X1268568D02*
X1267545D01*
X1277432D02*
Y770200D01*
Y775356D02*
X1276750Y776294D01*
X1276068Y776763*
X1276068D02*
X1275045D01*
X1275045D02*
X1274364Y776294D01*
X1273682Y775356*
X1273341Y773950*
Y773013*
X1273341D02*
X1273682Y771606D01*
X1274364Y770669*
X1275045Y770200*
X1276068*
X1276750Y770669*
X1277432Y771606*
X1280500Y776763D02*
Y770200D01*
Y773950D02*
X1280841Y775356D01*
X1281523Y776294*
X1282205Y776763*
X1282205D02*
X1283227D01*
X1290386Y780044D02*
Y770200D01*
Y775356D02*
X1289705Y776294D01*
X1289023Y776763*
X1289023D02*
X1288000D01*
X1288000D02*
X1287318Y776294D01*
X1286636Y775356*
X1286295Y773950*
Y773013*
X1286295D02*
X1286636Y771606D01*
X1287318Y770669*
X1288000Y770200*
X1289023*
X1289705Y770669*
X1290386Y771606*
X1301295Y780044D02*
Y770200D01*
Y780044D02*
X1303682D01*
X1304705Y779575*
X1305386Y778638*
X1305386D02*
X1305727Y777700D01*
X1306068Y776294*
Y773950*
X1305727Y772544*
X1305386Y771606*
X1304705Y770669*
X1303682Y770200*
X1301295*
X1309136Y773950D02*
X1313227D01*
Y774888*
X1313227D02*
X1312886Y775825D01*
X1312545Y776294*
X1311864Y776763*
X1311864D02*
X1310841D01*
X1310841D02*
X1310159Y776294D01*
X1309477Y775356*
X1309136Y773950*
Y773013*
X1309136D02*
X1309477Y771606D01*
X1310159Y770669*
X1310841Y770200*
X1311864*
X1312545Y770669*
X1313227Y771606*
X1320045Y775356D02*
X1319705Y776294D01*
X1318682Y776763*
X1318682D02*
X1317659D01*
X1317659D02*
X1316636Y776294D01*
X1316295Y775356*
X1316636Y774419*
X1317318Y773950*
X1319023Y773481*
X1319705Y773013*
X1319705D02*
X1320045Y772075D01*
Y771606*
X1319705Y770669*
X1318682Y770200*
X1317659*
X1316636Y770669*
X1316295Y771606*
X1327205Y775356D02*
X1326523Y776294D01*
X1325841Y776763*
X1325841D02*
X1324818D01*
X1324818D02*
X1324136Y776294D01*
X1323455Y775356*
X1323114Y773950*
Y773013*
X1323114D02*
X1323455Y771606D01*
X1324136Y770669*
X1324818Y770200*
X1325841*
X1326523Y770669*
X1327205Y771606*
X1330273Y776763D02*
Y770200D01*
Y773950D02*
X1330614Y775356D01*
X1331295Y776294*
X1331977Y776763*
X1331977D02*
X1333000D01*
X1336068Y780044D02*
X1336409Y779575D01*
X1336750Y780044*
X1336409Y780513*
X1336409D02*
X1336068Y780044D01*
X1336409Y776763D02*
Y770200D01*
X1339818Y776763D02*
Y766919D01*
Y775356D02*
X1340500Y776294D01*
X1341182Y776763*
X1341182D02*
X1342205D01*
X1342205D02*
X1342886Y776294D01*
X1343568Y775356*
X1343909Y773950*
Y773013*
X1343909D02*
X1343568Y771606D01*
X1342886Y770669*
X1342205Y770200*
X1341182*
X1340500Y770669*
X1339818Y771606*
X1348000Y780044D02*
Y772075D01*
X1348341Y770669*
X1349023Y770200*
X1349705*
X1346977Y776763D02*
X1349364D01*
X1352773Y780044D02*
X1353114Y779575D01*
X1353455Y780044*
X1353114Y780513*
X1353114D02*
X1352773Y780044D01*
X1353114Y776763D02*
Y770200D01*
X1358227Y776763D02*
X1357545Y776294D01*
X1356864Y775356*
X1356523Y773950*
Y773013*
X1356523D02*
X1356864Y771606D01*
X1357545Y770669*
X1358227Y770200*
X1359250*
X1359932Y770669*
X1360614Y771606*
X1360955Y773013*
X1360955D02*
Y773950D01*
X1360614Y775356*
X1359932Y776294*
X1359250Y776763*
X1359250D02*
X1358227D01*
X1364023D02*
Y770200D01*
Y774888D02*
X1365045Y776294D01*
X1365727Y776763*
X1365727D02*
X1366750D01*
X1366750D02*
X1367432Y776294D01*
X1367773Y774888*
X1367773D02*
Y770200D01*
X1371182Y776763D02*
X1370841Y776294D01*
X1371182Y775825*
X1371523Y776294*
X1371182Y776763*
Y771138D02*
X1370841Y770669D01*
X1371182Y770200*
X1371523Y770669*
X1371182Y771138*
X1258000Y710044D02*
Y700200D01*
Y710044D02*
X1261068D01*
X1262091Y709575*
X1262432Y709106*
X1262773Y708169*
Y706763*
X1262773D02*
X1262432Y705825D01*
X1262091Y705356*
X1261068Y704888*
X1261068D02*
X1258000D01*
X1269932Y706763D02*
Y700200D01*
Y705356D02*
X1269250Y706294D01*
X1268568Y706763*
X1268568D02*
X1267545D01*
X1267545D02*
X1266864Y706294D01*
X1266182Y705356*
X1265841Y703950*
Y703013*
X1265841D02*
X1266182Y701606D01*
X1266864Y700669*
X1267545Y700200*
X1268568*
X1269250Y700669*
X1269932Y701606*
X1273000Y706763D02*
Y700200D01*
Y703950D02*
X1273341Y705356D01*
X1274023Y706294*
X1274705Y706763*
X1274705D02*
X1275727D01*
X1279818Y710044D02*
Y702075D01*
X1280159Y700669*
X1280841Y700200*
X1281523*
X1278795Y706763D02*
X1281182D01*
X1292432Y710044D02*
Y700200D01*
Y710044D02*
X1297205Y700200D01*
Y710044D02*
Y700200D01*
X1301977Y706763D02*
X1301295Y706294D01*
X1300614Y705356*
X1300273Y703950*
Y703013*
X1300273D02*
X1300614Y701606D01*
X1301295Y700669*
X1301977Y700200*
X1303000*
X1303682Y700669*
X1304364Y701606*
X1304705Y703013*
X1304705D02*
Y703950D01*
X1304364Y705356*
X1303682Y706294*
X1303000Y706763*
X1303000D02*
X1301977D01*
X1308114D02*
X1307773Y706294D01*
X1308114Y705825*
X1308455Y706294*
X1308114Y706763*
Y701138D02*
X1307773Y700669D01*
X1308114Y700200*
X1308455Y700669*
X1308114Y701138*
X1558000Y710044D02*
Y700200D01*
Y710044D02*
X1561068D01*
X1562091Y709575*
X1562432Y709106*
X1562773Y708169*
Y707231*
X1562432Y706294*
X1562091Y705825*
X1561068Y705356*
X1558000*
X1560386D02*
X1562773Y700200D01*
X1565841Y703950D02*
X1569932D01*
Y704888*
X1569932D02*
X1569591Y705825D01*
X1569250Y706294*
X1568568Y706763*
X1568568D02*
X1567545D01*
X1567545D02*
X1566864Y706294D01*
X1566182Y705356*
X1565841Y703950*
Y703013*
X1565841D02*
X1566182Y701606D01*
X1566864Y700669*
X1567545Y700200*
X1568568*
X1569250Y700669*
X1569932Y701606*
X1573000Y706763D02*
X1575045Y700200D01*
X1577091Y706763D02*
X1575045Y700200D01*
X1580159Y710044D02*
X1580500Y709575D01*
X1580841Y710044*
X1580500Y710513*
X1580500D02*
X1580159Y710044D01*
X1580500Y706763D02*
Y700200D01*
X1587659Y705356D02*
X1587318Y706294D01*
X1586295Y706763*
X1586295D02*
X1585273D01*
X1585273D02*
X1584250Y706294D01*
X1583909Y705356*
X1584250Y704419*
X1584932Y703950*
X1586636Y703481*
X1587318Y703013*
X1587318D02*
X1587659Y702075D01*
Y701606*
X1587318Y700669*
X1586295Y700200*
X1585273*
X1584250Y700669*
X1583909Y701606*
X1590727Y710044D02*
X1591068Y709575D01*
X1591409Y710044*
X1591068Y710513*
X1591068D02*
X1590727Y710044D01*
X1591068Y706763D02*
Y700200D01*
X1596182Y706763D02*
X1595500Y706294D01*
X1594818Y705356*
X1594477Y703950*
Y703013*
X1594477D02*
X1594818Y701606D01*
X1595500Y700669*
X1596182Y700200*
X1597205*
X1597886Y700669*
X1598568Y701606*
X1598909Y703013*
X1598909D02*
Y703950D01*
X1598568Y705356*
X1597886Y706294*
X1597205Y706763*
X1597205D02*
X1596182D01*
X1601977D02*
Y700200D01*
Y704888D02*
X1603000Y706294D01*
X1603682Y706763*
X1603682D02*
X1604705D01*
X1604705D02*
X1605386Y706294D01*
X1605727Y704888*
X1605727D02*
Y700200D01*
X1609136Y706763D02*
X1608795Y706294D01*
X1609136Y705825*
X1609477Y706294*
X1609136Y706763*
Y701138D02*
X1608795Y700669D01*
X1609136Y700200*
X1609477Y700669*
X1609136Y701138*
X1356182Y698325D02*
Y685200D01*
X1353000Y698325D02*
X1359364D01*
X1363455D02*
Y685200D01*
Y698325D02*
X1367091Y685200D01*
X1370727Y698325D02*
X1367091Y685200D01*
X1370727Y698325D02*
Y685200D01*
X1374818Y698325D02*
Y685200D01*
Y698325D02*
X1378000D01*
X1379364Y697700*
X1380273Y696450*
X1380727Y695200*
X1381182Y693325*
Y690200*
X1380727Y688325*
X1380273Y687075*
X1379364Y685825*
X1378000Y685200*
X1374818*
X1391636Y696450D02*
X1390727Y697700D01*
X1389364Y698325*
X1387545*
X1386182Y697700*
X1385273Y696450*
Y695200*
X1385727Y693950*
X1386182Y693325*
X1387091Y692700*
X1389818Y691450*
X1390727Y690825*
X1391182Y690200*
X1391636Y688950*
Y687075*
X1390727Y685825*
X1389364Y685200*
X1387545*
X1386182Y685825*
X1385273Y687075*
X1402545Y695200D02*
X1402091Y696450D01*
X1401182Y697700*
X1400273Y698325*
X1398455*
X1397545Y697700*
X1396636Y696450*
X1396182Y695200*
X1395727Y693325*
Y690200*
X1396182Y688325*
X1396636Y687075*
X1397545Y685825*
X1398455Y685200*
X1400273*
X1401182Y685825*
X1402091Y687075*
X1402545Y688325*
X1406636Y698325D02*
Y685200D01*
Y698325D02*
X1413000Y685200D01*
Y698325D02*
Y685200D01*
X1423909Y695200D02*
X1423455Y696450D01*
X1422545Y697700*
X1421636Y698325*
X1419818*
X1418909Y697700*
X1418000Y696450*
X1417545Y695200*
X1417091Y693325*
Y690200*
X1417545Y688325*
X1418000Y687075*
X1418909Y685825*
X1419818Y685200*
X1421636*
X1422545Y685825*
X1423455Y687075*
X1423909Y688325*
X1428000Y698325D02*
Y685200D01*
Y698325D02*
X1431182D01*
X1432545Y697700*
X1433455Y696450*
X1433909Y695200*
X1434364Y693325*
Y690200*
X1433909Y688325*
X1433455Y687075*
X1432545Y685825*
X1431182Y685200*
X1428000*
X1438909Y695200D02*
Y695825D01*
X1439364Y697075*
X1439818Y697700*
X1440727Y698325*
X1442545*
X1443455Y697700*
X1443909Y697075*
X1444364Y695825*
Y694575*
X1443909Y693325*
X1443000Y691450*
X1438455Y685200*
X1444818*
X1451182Y698325D02*
X1449818Y697700D01*
X1449364Y696450*
Y695200*
X1449818Y693950*
X1450727Y693325*
X1452545Y692700*
X1453909Y692075*
X1454818Y690825*
X1455273Y689575*
Y687700*
X1454818Y686450*
X1454364Y685825*
X1453000Y685200*
X1451182*
X1449818Y685825*
X1449364Y686450*
X1448909Y687700*
Y689575*
X1449364Y690825*
X1450273Y692075*
X1451636Y692700*
X1453455Y693325*
X1454364Y693950*
X1454818Y695200*
Y696450*
X1454364Y697700*
X1453000Y698325*
X1451182*
X1460273D02*
X1465273D01*
X1462545Y693325*
X1463909*
X1464818Y692700*
X1465273Y692075*
X1465727Y690200*
Y688950*
X1465273Y687075*
X1464364Y685825*
X1463000Y685200*
X1461636*
X1460273Y685825*
X1459818Y686450*
X1459364Y687700*
X1470727Y698325D02*
X1475727D01*
X1473000Y693325*
X1474364*
X1475273Y692700*
X1475727Y692075*
X1476182Y690200*
Y688950*
X1475727Y687075*
X1474818Y685825*
X1473455Y685200*
X1472091*
X1470727Y685825*
X1470273Y686450*
X1469818Y687700*
X1486182Y698325D02*
X1481636D01*
X1481182Y692700*
X1481636Y693325*
X1483000Y693950*
X1484364*
X1485727Y693325*
X1486636Y692075*
X1487091Y690200*
X1486636Y688950*
X1486182Y687075*
X1485273Y685825*
X1483909Y685200*
X1482545*
X1481182Y685825*
X1480727Y686450*
X1480273Y687700*
X1491182Y698325D02*
Y685200D01*
Y698325D02*
X1495273D01*
X1496636Y697700*
X1497091Y697075*
X1497545Y695825*
Y693950*
X1497091Y692700*
X1496636Y692075*
X1495273Y691450*
X1491182*
X1508455Y695200D02*
X1508000Y696450D01*
X1507091Y697700*
X1506182Y698325*
X1504364*
X1503455Y697700*
X1502545Y696450*
X1502091Y695200*
X1501636Y693325*
Y690200*
X1502091Y688325*
X1502545Y687075*
X1503455Y685825*
X1504364Y685200*
X1506182*
X1507091Y685825*
X1508000Y687075*
X1508455Y688325*
Y690200*
X1506182D02*
X1508455D01*
X1512545Y698325D02*
Y685200D01*
Y698325D02*
X1518455D01*
X1512545Y692075D02*
X1516182D01*
X1629727Y699813D02*
X1630636Y700438D01*
X1630636D02*
X1632000Y702313D01*
X1632000D02*
Y689187D01*
X1636545Y690437D02*
X1636091Y689812D01*
X1636091D02*
X1636545Y689187D01*
X1636545D02*
X1637000Y689812D01*
X1637000D02*
X1636545Y690437D01*
X1643818Y702313D02*
X1642455Y701688D01*
X1642455D02*
X1641545Y699813D01*
X1641545D02*
X1641091Y696687D01*
X1641091D02*
Y694812D01*
X1641091D02*
X1641545Y691687D01*
X1641545D02*
X1642455Y689812D01*
X1642455D02*
X1643818Y689187D01*
X1643818D02*
X1644727D01*
X1644727D02*
X1646091Y689812D01*
X1646091D02*
X1647000Y691687D01*
X1647000D02*
X1647455Y694812D01*
X1647455D02*
Y696687D01*
X1647455D02*
X1647000Y699813D01*
X1647000D02*
X1646091Y701688D01*
X1646091D02*
X1644727Y702313D01*
X1644727D02*
X1643818D01*
X1399545Y810513D02*
Y797387D01*
X1396364Y810513D02*
X1402727D01*
X1406818Y802387D02*
X1412273D01*
X1412273D02*
Y803637D01*
X1412273D02*
X1411818Y804887D01*
X1411818D02*
X1411364Y805513D01*
X1411364D02*
X1410455Y806138D01*
X1410455D02*
X1409091D01*
X1409091D02*
X1408182Y805513D01*
X1408182D02*
X1407273Y804262D01*
X1407273D02*
X1406818Y802387D01*
X1406818D02*
Y801137D01*
X1406818D02*
X1407273Y799262D01*
X1407273D02*
X1408182Y798012D01*
X1408182D02*
X1409091Y797387D01*
X1409091D02*
X1410455D01*
X1410455D02*
X1411364Y798012D01*
X1411364D02*
X1412273Y799262D01*
X1416364Y806138D02*
X1421364Y797387D01*
Y806138D02*
X1416364Y797387D01*
X1430909Y806138D02*
Y797387D01*
Y804262D02*
X1430000Y805513D01*
X1430000D02*
X1429091Y806138D01*
X1429091D02*
X1427727D01*
X1427727D02*
X1426818Y805513D01*
X1426818D02*
X1425909Y804262D01*
X1425909D02*
X1425455Y802387D01*
X1425455D02*
Y801137D01*
X1425455D02*
X1425909Y799262D01*
X1425909D02*
X1426818Y798012D01*
X1426818D02*
X1427727Y797387D01*
X1427727D02*
X1429091D01*
X1429091D02*
X1430000Y798012D01*
X1430000D02*
X1430909Y799262D01*
X1440000Y804262D02*
X1439545Y805513D01*
X1439545D02*
X1438182Y806138D01*
X1438182D02*
X1436818D01*
X1436818D02*
X1435455Y805513D01*
X1435455D02*
X1435000Y804262D01*
X1435000D02*
X1435455Y803012D01*
X1435455D02*
X1436364Y802387D01*
X1436364D02*
X1438636Y801762D01*
X1438636D02*
X1439545Y801137D01*
X1439545D02*
X1440000Y799887D01*
X1440000D02*
Y799262D01*
X1440000D02*
X1439545Y798012D01*
X1439545D02*
X1438182Y797387D01*
X1438182D02*
X1436818D01*
X1436818D02*
X1435455Y798012D01*
X1435455D02*
X1435000Y799262D01*
X1454545Y810513D02*
Y797387D01*
X1458636Y806138D02*
Y797387D01*
Y803637D02*
X1460000Y805513D01*
X1460000D02*
X1460909Y806138D01*
X1460909D02*
X1462273D01*
X1462273D02*
X1463182Y805513D01*
X1463182D02*
X1463636Y803637D01*
X1463636D02*
Y797387D01*
X1472727Y804262D02*
X1472273Y805513D01*
X1472273D02*
X1470909Y806138D01*
X1470909D02*
X1469545D01*
X1469545D02*
X1468182Y805513D01*
X1468182D02*
X1467727Y804262D01*
X1467727D02*
X1468182Y803012D01*
X1468182D02*
X1469091Y802387D01*
X1469091D02*
X1471364Y801762D01*
X1471364D02*
X1472273Y801137D01*
X1472273D02*
X1472727Y799887D01*
X1472727D02*
Y799262D01*
X1472727D02*
X1472273Y798012D01*
X1472273D02*
X1470909Y797387D01*
X1470909D02*
X1469545D01*
X1469545D02*
X1468182Y798012D01*
X1468182D02*
X1467727Y799262D01*
X1478182Y810513D02*
Y799887D01*
X1478182D02*
X1478636Y798012D01*
X1478636D02*
X1479545Y797387D01*
X1479545D02*
X1480455D01*
X1476818Y806138D02*
X1480000D01*
X1484545D02*
Y797387D01*
Y802387D02*
X1485000Y804262D01*
X1485000D02*
X1485909Y805513D01*
X1485909D02*
X1486818Y806138D01*
X1486818D02*
X1488182D01*
X1492273D02*
Y799887D01*
X1492273D02*
X1492727Y798012D01*
X1492727D02*
X1493636Y797387D01*
X1493636D02*
X1495000D01*
X1495000D02*
X1495909Y798012D01*
X1495909D02*
X1497273Y799887D01*
Y806138D02*
Y797387D01*
X1501364Y806138D02*
Y797387D01*
Y803637D02*
X1502727Y805513D01*
X1502727D02*
X1503636Y806138D01*
X1503636D02*
X1505000D01*
X1505000D02*
X1505909Y805513D01*
X1505909D02*
X1506364Y803637D01*
X1506364D02*
Y797387D01*
Y803637D02*
X1507727Y805513D01*
X1507727D02*
X1508636Y806138D01*
X1508636D02*
X1510000D01*
X1510000D02*
X1510909Y805513D01*
X1510909D02*
X1511364Y803637D01*
X1511364D02*
Y797387D01*
X1515455Y802387D02*
X1520909D01*
X1520909D02*
Y803637D01*
X1520909D02*
X1520455Y804887D01*
X1520455D02*
X1520000Y805513D01*
X1520000D02*
X1519091Y806138D01*
X1519091D02*
X1517727D01*
X1517727D02*
X1516818Y805513D01*
X1516818D02*
X1515909Y804262D01*
X1515909D02*
X1515455Y802387D01*
X1515455D02*
Y801137D01*
X1515455D02*
X1515909Y799262D01*
X1515909D02*
X1516818Y798012D01*
X1516818D02*
X1517727Y797387D01*
X1517727D02*
X1519091D01*
X1519091D02*
X1520000Y798012D01*
X1520000D02*
X1520909Y799262D01*
X1525000Y806138D02*
Y797387D01*
Y803637D02*
X1526364Y805513D01*
X1526364D02*
X1527273Y806138D01*
X1527273D02*
X1528636D01*
X1528636D02*
X1529545Y805513D01*
X1529545D02*
X1530000Y803637D01*
X1530000D02*
Y797387D01*
X1535455Y810513D02*
Y799887D01*
X1535455D02*
X1535909Y798012D01*
X1535909D02*
X1536818Y797387D01*
X1536818D02*
X1537727D01*
X1534091Y806138D02*
X1537273D01*
X1546818Y804262D02*
X1546364Y805513D01*
X1546364D02*
X1545000Y806138D01*
X1545000D02*
X1543636D01*
X1543636D02*
X1542273Y805513D01*
X1542273D02*
X1541818Y804262D01*
X1541818D02*
X1542273Y803012D01*
X1542273D02*
X1543182Y802387D01*
X1543182D02*
X1545455Y801762D01*
X1545455D02*
X1546364Y801137D01*
X1546364D02*
X1546818Y799887D01*
X1546818D02*
Y799262D01*
X1546818D02*
X1546364Y798012D01*
X1546364D02*
X1545000Y797387D01*
X1545000D02*
X1543636D01*
X1543636D02*
X1542273Y798012D01*
X1542273D02*
X1541818Y799262D01*
X1360032Y749372D02*
Y736247D01*
Y749372D02*
X1365941D01*
X1360032Y743122D02*
X1363669D01*
X1370487Y746247D02*
Y746872D01*
X1370941Y748122*
X1371396Y748747*
X1372305Y749372*
X1374123*
X1375032Y748747*
X1375487Y748122*
X1375941Y746872*
Y745622*
X1375487Y744372*
X1374578Y742497*
X1370032Y736247*
X1376396*
X1382759Y749372D02*
X1381396Y748747D01*
X1380941Y747497*
Y746247*
X1381396Y744997*
X1382305Y744372*
X1384123Y743747*
X1385487Y743122*
X1386396Y741872*
X1386850Y740622*
Y738747*
X1386396Y737497*
X1385941Y736872*
X1384578Y736247*
X1382759*
X1381396Y736872*
X1380941Y737497*
X1380487Y738747*
Y740622*
X1380941Y741872*
X1381850Y743122*
X1383214Y743747*
X1385032Y744372*
X1385941Y744997*
X1386396Y746247*
Y747497*
X1385941Y748747*
X1384578Y749372*
X1382759*
X1391850D02*
X1396850D01*
X1394123Y744372*
X1395487*
X1396396Y743747*
X1396850Y743122*
X1397305Y741247*
Y739997*
X1396850Y738122*
X1395941Y736872*
X1394578Y736247*
X1393214*
X1391850Y736872*
X1391396Y737497*
X1390941Y738747*
X1402305Y749372D02*
X1407305D01*
X1404578Y744372*
X1405941*
X1406850Y743747*
X1407305Y743122*
X1407759Y741247*
Y739997*
X1407305Y738122*
X1406396Y736872*
X1405032Y736247*
X1403669*
X1402305Y736872*
X1401850Y737497*
X1401396Y738747*
X1417759Y749372D02*
X1413214D01*
X1412759Y743747*
X1413214Y744372*
X1414578Y744997*
X1415941*
X1417305Y744372*
X1418214Y743122*
X1418669Y741247*
X1418214Y739997*
X1417759Y738122*
X1416850Y736872*
X1415487Y736247*
X1414123*
X1412759Y736872*
X1412305Y737497*
X1411850Y738747*
X1433214Y749372D02*
Y736247D01*
Y749372D02*
X1437305D01*
X1438669Y748747*
X1439123Y748122*
X1439578Y746872*
Y744997*
X1439123Y743747*
X1438669Y743122*
X1437305Y742497*
X1433214*
X1450487Y746247D02*
X1450032Y747497D01*
X1449123Y748747*
X1448214Y749372*
X1446396*
X1445487Y748747*
X1444578Y747497*
X1444123Y746247*
X1443669Y744372*
Y741247*
X1444123Y739372*
X1444578Y738122*
X1445487Y736872*
X1446396Y736247*
X1448214*
X1449123Y736872*
X1450032Y738122*
X1450487Y739372*
Y741247*
X1448214D02*
X1450487D01*
X1454578Y749372D02*
Y736247D01*
Y749372D02*
X1460487D01*
X1454578Y743122D02*
X1458214D01*
X1480487D02*
X1479578Y744372D01*
X1478669Y744997*
X1477305*
X1476396Y744372*
X1475487Y743122*
X1475032Y741247*
Y739997*
X1475487Y738122*
X1476396Y736872*
X1477305Y736247*
X1478669*
X1479578Y736872*
X1480487Y738122*
X1486850Y744997D02*
X1485941Y744372D01*
X1485032Y743122*
X1484578Y741247*
Y739997*
X1485032Y738122*
X1485941Y736872*
X1486850Y736247*
X1488214*
X1489123Y736872*
X1490032Y738122*
X1490487Y739997*
Y741247*
X1490032Y743122*
X1489123Y744372*
X1488214Y744997*
X1486850*
X1494578D02*
Y736247D01*
Y742497D02*
X1495941Y744372D01*
X1496850Y744997*
X1498214*
X1499123Y744372*
X1499578Y742497*
Y736247*
X1505032Y749372D02*
Y738747D01*
X1505487Y736872*
X1506396Y736247*
X1507305*
X1503669Y744997D02*
X1506850D01*
X1511396D02*
Y736247D01*
Y741247D02*
X1511850Y743122D01*
X1512759Y744372*
X1513669Y744997*
X1515032*
X1521396D02*
X1520487Y744372D01*
X1519578Y743122*
X1519123Y741247*
Y739997*
X1519578Y738122*
X1520487Y736872*
X1521396Y736247*
X1522759*
X1523669Y736872*
X1524578Y738122*
X1525032Y739997*
Y741247*
X1524578Y743122*
X1523669Y744372*
X1522759Y744997*
X1521396*
X1529123Y749372D02*
Y736247D01*
X1540032Y746247D02*
X1539578Y747497D01*
X1538669Y748747*
X1537759Y749372*
X1535941*
X1535032Y748747*
X1534123Y747497*
X1533669Y746247*
X1533214Y744372*
Y741247*
X1533669Y739372*
X1534123Y738122*
X1535032Y736872*
X1535941Y736247*
X1537759*
X1538669Y736872*
X1539578Y738122*
X1540032Y739372*
X1547759Y749372D02*
X1544123Y736247D01*
X1547759Y749372D02*
X1551396Y736247D01*
X1545487Y740622D02*
X1550032D01*
X1555487Y749372D02*
Y736247D01*
Y749372D02*
X1559578D01*
X1560941Y748747*
X1561396Y748122*
X1561850Y746872*
Y745622*
X1561396Y744372*
X1560941Y743747*
X1559578Y743122*
X1555487*
X1558669D02*
X1561850Y736247D01*
X1565941Y749372D02*
Y736247D01*
Y749372D02*
X1569123D01*
X1570487Y748747*
X1571396Y747497*
X1571850Y746247*
X1572305Y744372*
Y741247*
X1571850Y739372*
X1571396Y738122*
X1570487Y736872*
X1569123Y736247*
X1565941*
X1283600Y1065600D02*
G75*
G03X1283600I-2100J0D01*
G01X1276600Y1071000D02*
G03X1276600I-2100J0D01*
G01X1268600Y1058500D02*
G03X1268600I-2100J0D01*
G01X1270600Y1090000D02*
G03X1270600I-2100J0D01*
G01X1265100Y1075500D02*
G03X1265100I-2100J0D01*
G01X1259691Y1065091D02*
G03X1259691I-2100J0D01*
G01X1260100Y1073500D02*
G03X1260100I-2100J0D01*
G01Y1080500D02*
G03X1260100I-2100J0D01*
G01X1248100Y1090000D02*
G03X1248100I-2100J0D01*
G01X1240700Y1056300D02*
G03X1240700I-2100J0D01*
G01X1243800Y1078100D02*
G03X1243800I-2100J0D01*
G01X1229900Y1083800D02*
G03X1229900I-2100J0D01*
G01X1229700Y1091700D02*
G03X1229700I-2100J0D01*
G01X1224600Y1076000D02*
G03X1224600I-2100J0D01*
G01X1219100Y1065000D02*
G03X1219100I-2100J0D01*
G01X1214600Y1064500D02*
G03X1214600I-2100J0D01*
G01X1209200Y1077100D02*
G03X1209200I-2100J0D01*
G01X1212600Y1091500D02*
G03X1212600I-2100J0D01*
G01X1187100Y1114500D02*
G03X1187100I-2100J0D01*
G01X1177100D02*
G03X1177100I-2100J0D01*
G01X1155600Y1096500D02*
G03X1155600I-2100J0D01*
G01X1148100Y1086000D02*
G03X1148100I-2100J0D01*
G01X1142600Y1070000D02*
G03X1142600I-2100J0D01*
G01X1142300Y1085800D02*
G03X1142300I-2100J0D01*
G01X1142200Y1097600D02*
G03X1142200I-2100J0D01*
G01X1142500Y1107400D02*
G03X1142500I-2100J0D01*
G01X1131600Y1099500D02*
G03X1131600I-2100J0D01*
G01Y1109500D02*
G03X1131600I-2100J0D01*
G01X1114946Y1105217D02*
G03X1114946I-2100J0D01*
G01X1109946D02*
G03X1109946I-2100J0D01*
G01X1104946D02*
G03X1104946I-2100J0D01*
G01X1159600Y1050500D02*
G03X1159600I-2100J0D01*
G01X1142100Y1054500D02*
G03X1142100I-2100J0D01*
G01X1158100Y1079500D02*
G03X1158100I-2100J0D01*
G01X1171600Y1040500D02*
G03X1171600I-2100J0D01*
G01X1165000Y1076000D02*
G03X1165000I-2100J0D01*
G01X1301800Y1079367D02*
Y1089824D01*
X1301424Y1090200*
X1285500*
Y1096874*
X1282424Y1099950*
X1244400*
X1243587Y1100287D02*
G03X1244400Y1099950I813J813D01*
G01X1243587Y1100287D02*
X1242024Y1101850D01*
X1225300*
X1224487Y1102187D02*
G03X1225300Y1101850I813J813D01*
G01X1224487Y1102187D02*
X1223324Y1103350D01*
X1209376*
X1206713Y1100687*
X1205900Y1100350D02*
G03X1206713Y1100687I0J1150D01*
G01X1205900Y1100350D02*
X1202257D01*
Y1102650D02*
G03Y1100350I-1757J-1150D01*
G01Y1102650D02*
X1205424D01*
X1207824Y1105050*
X1202476*
X1201413Y1103987*
X1200600Y1103650D02*
G03X1201413Y1103987I0J1150D01*
G01X1200600Y1103650D02*
X1171257D01*
X1167421Y1102794D02*
G03X1171257Y1103650I2079J-294D01*
G01X1167421Y1102794D02*
X1167313Y1102687D01*
X1166500Y1102350D02*
G03X1167313Y1102687I0J1150D01*
G01X1166500Y1102350D02*
X1162757D01*
Y1104650D02*
G03Y1102350I-1757J-1150D01*
G01Y1104650D02*
X1163391D01*
Y1107350D02*
G03Y1104650I1609J-1350D01*
G01Y1107350D02*
X1162900D01*
X1161757*
Y1109650D02*
G03Y1107350I-1757J-1150D01*
G01Y1109650D02*
X1162900D01*
X1193725*
X1193687Y1109687D02*
G03X1193725Y1109650I813J813D01*
G01X1193687Y1109687D02*
X1186524Y1116850D01*
X1160976*
X1154313Y1110187*
X1153500Y1109850D02*
G03X1154313Y1110187I0J1150D01*
G01X1153500Y1109850D02*
X1148757D01*
Y1112150D02*
G03Y1109850I-1757J-1150D01*
G01Y1112150D02*
X1152506D01*
X1151427Y1113665D02*
G03X1152506Y1112150I2073J335D01*
G01X1147427Y1114165D02*
G03X1151427Y1113665I2073J335D01*
G01X1145929Y1117056D02*
G03X1147427Y1114165I-429J-2056D01*
G01X1145929Y1117056D02*
X1149224Y1120350D01*
X1134100*
X1133287Y1120687D02*
G03X1134100Y1120350I813J813D01*
G01X1133287Y1120687D02*
X1131524Y1122450D01*
X1108076*
X1096500Y1110874*
Y1106828*
Y1103605D02*
G03Y1106828I1346J1612D01*
G01Y1103605D02*
Y1092500D01*
X1134000*
Y1065950*
X1139200*
X1140013Y1065613D02*
G03X1139200Y1065950I-813J-813D01*
G01X1140013Y1065613D02*
X1149476Y1056150D01*
X1155743*
Y1053850D02*
G03Y1056150I1757J1150D01*
G01Y1053850D02*
X1149000D01*
X1148187Y1054187D02*
G03X1149000Y1053850I813J813D01*
G01X1148187Y1054187D02*
X1138724Y1063650D01*
X1134000*
Y1061126*
X1137213Y1057913*
X1137550Y1057100D02*
G03X1137213Y1057913I-1150J0D01*
G01X1137550Y1057100D02*
Y1049776D01*
X1138049Y1049277*
X1140780Y1046550D02*
G03X1138049Y1049277I-780J1950D01*
G01X1140780Y1046550D02*
X1141743D01*
X1145420Y1044550D02*
G03X1141743Y1046550I-1920J850D01*
G01X1145420Y1044550D02*
X1146424D01*
X1147687Y1045813*
X1148500Y1046150D02*
G03X1147687Y1045813I0J-1150D01*
G01X1148500Y1046150D02*
X1149743D01*
X1151396Y1042903D02*
G03X1149743Y1046150I104J2097D01*
G01X1147743Y1040850D02*
G03X1151396Y1042903I1757J1150D01*
G01X1147743Y1040850D02*
X1146276D01*
X1147071Y1040056*
X1145444Y1038429D02*
G03X1147071Y1040056I2056J-429D01*
G01X1145444Y1038429D02*
X1144424Y1039450D01*
X1141873*
X1140640Y1036500D02*
G03X1141873Y1039450I-640J2000D01*
G01X1142100Y1034500D02*
G03X1140640Y1036500I-2100J0D01*
G01X1142100Y1034500D02*
X1179874D01*
X1178187Y1036187*
X1177850Y1037000D02*
G03X1178187Y1036187I1150J0D01*
G01X1177850Y1037000D02*
Y1043743D01*
X1180896Y1044597D02*
G03X1177850Y1043743I-1896J903D01*
G01X1181903Y1044396D02*
G03X1180896Y1044597I-903J-1896D01*
G01X1185927Y1045335D02*
G03X1181903Y1044396I-1927J-835D01*
G01X1190000Y1045640D02*
G03X1185927Y1045335I-2000J-640D01*
G01X1194000Y1045640D02*
G03X1190000I-2000J-640D01*
G01X1198061Y1044599D02*
G03X1194000Y1045640I-2061J401D01*
G01X1198401Y1044561D02*
G03X1198061Y1044599I-401J-2061D01*
G01X1202396Y1043597D02*
G03X1198401Y1044561I-1896J903D01*
G01X1203762Y1043179D02*
G03X1202396Y1043597I-1262J-1679D01*
G01X1207257Y1043150D02*
G03X1203762Y1043179I-1757J-1150D01*
G01X1207257Y1043150D02*
X1209081D01*
X1210086Y1046636D02*
G03X1209081Y1043150I514J-2036D01*
G01X1209903Y1047604D02*
G03X1210086Y1046636I2097J-104D01*
G01X1206901Y1049422D02*
G03X1209903Y1047604I2099J78D01*
G01X1206500Y1049350D02*
G03X1206901Y1049422I0J1150D01*
G01X1206500Y1049350D02*
X1205257D01*
Y1051650D02*
G03Y1049350I-1757J-1150D01*
G01Y1051650D02*
X1206024D01*
X1206687Y1052313*
X1207500Y1052650D02*
G03X1206687Y1052313I0J-1150D01*
G01X1207500Y1052650D02*
X1225729D01*
X1224379Y1054000*
X1198121*
X1195561Y1051439*
X1194500Y1051000D02*
G03X1195561Y1051439I0J1500D01*
G01X1194500Y1051000D02*
X1178321D01*
X1177400Y1050079*
X1175279Y1052200D02*
G03X1177400Y1050079I21J-2100D01*
G01X1175279Y1052200D02*
X1176639Y1053561D01*
X1177700Y1054000D02*
G03X1176639Y1053561I0J-1500D01*
G01X1177700Y1054000D02*
X1193879D01*
X1196300Y1056422*
X1194000Y1057860D02*
G03X1196300Y1056422I2000J640D01*
G01X1190000Y1057860D02*
G03X1194000I2000J640D01*
G01X1186000D02*
G03X1190000I2000J640D01*
G01X1183902Y1060598D02*
G03X1186000Y1057860I98J-2098D01*
G01X1188000Y1061140D02*
G03X1183902Y1060598I-2000J-640D01*
G01X1192000Y1061140D02*
G03X1188000I-2000J-640D01*
G01X1196000D02*
G03X1192000I-2000J-640D01*
G01X1198098Y1058402D02*
G03X1196000Y1061140I-98J2098D01*
G01X1197469Y1057000D02*
G03X1198098Y1058402I-1469J1500D01*
G01X1197500Y1057000D02*
G03X1197469I0J-1500D01*
G01X1197500D02*
X1220530D01*
X1223750Y1059661D02*
G03X1220530Y1057000I-1750J-1161D01*
G01X1227258Y1059649D02*
G03X1223750Y1059661I-1758J-1149D01*
G01X1228013Y1059313D02*
G03X1227258Y1059649I-813J-813D01*
G01X1228013Y1059313D02*
X1234576Y1052750D01*
X1248524*
X1253677Y1057904*
X1254491Y1058241D02*
G03X1253677Y1057904I-0J-1150D01*
G01X1254491Y1058241D02*
X1256333D01*
Y1055941D02*
G03Y1058241I1758J1150D01*
G01Y1055941D02*
X1254967D01*
X1252676Y1053650*
X1254743*
X1257311Y1050563D02*
G03X1254743Y1053650I-811J1937D01*
G01X1257420Y1048650D02*
G03X1257311Y1050563I-1920J850D01*
G01X1257420Y1048650D02*
X1258524D01*
X1264187Y1054313*
X1265000Y1054650D02*
G03X1264187Y1054313I0J-1150D01*
G01X1265000Y1054650D02*
X1267000D01*
Y1056000*
X1298846*
Y1059406*
X1301800Y1062320D02*
G03X1298846Y1059406I-1706J-1226D01*
G01X1301800Y1062320D02*
Y1077067D01*
X1290604*
Y1079367D02*
G03Y1077067I-1758J-1150D01*
G01Y1079367D02*
X1301800D01*
X1283600Y1065600D02*
G03X1283600I-2100J0D01*
G01X1276600Y1071000D02*
G03X1276600I-2100J0D01*
G01X1268600Y1058500D02*
G03X1268600I-2100J0D01*
G01X1270600Y1090000D02*
G03X1270600I-2100J0D01*
G01X1265100Y1075500D02*
G03X1265100I-2100J0D01*
G01X1259691Y1065091D02*
G03X1259691I-2100J0D01*
G01X1260100Y1073500D02*
G03X1260100I-2100J0D01*
G01Y1080500D02*
G03X1260100I-2100J0D01*
G01X1248100Y1090000D02*
G03X1248100I-2100J0D01*
G01X1240700Y1056300D02*
G03X1240700I-2100J0D01*
G01X1239140Y1064000D02*
G03X1237860I-640J2000D01*
X1239140I640J-2000*
G01X1243800Y1078100D02*
G03X1243800I-2100J0D01*
G01X1239679Y1087750D02*
G03X1238121I-779J1950D01*
X1239679I779J-1950*
G01X1228640Y1066000D02*
G03X1227360I-640J2000D01*
X1228640I640J-2000*
G01X1229900Y1083800D02*
G03X1229900I-2100J0D01*
G01X1229700Y1091700D02*
G03X1229700I-2100J0D01*
G01X1224600Y1076000D02*
G03X1224600I-2100J0D01*
G01X1219100Y1065000D02*
G03X1219100I-2100J0D01*
G01X1214600Y1064500D02*
G03X1214600I-2100J0D01*
G01X1212335Y1071927D02*
G03X1211165Y1072073I-335J2073D01*
G01X1210844Y1068005D02*
G03X1212335Y1071927I656J1995D01*
G01X1209656Y1068995D02*
G03X1210844Y1068005I-656J-1995D01*
G01X1211165Y1072073D02*
G03X1209656Y1068995I335J-2073D01*
G01X1209200Y1077100D02*
G03X1209200I-2100J0D01*
G01X1214243Y1075950D02*
G03Y1078250I1757J1150D01*
G01Y1075950D02*
X1213100D01*
X1212287Y1076287D02*
G03X1213100Y1075950I813J813D01*
G01X1212287Y1076287D02*
X1208224Y1080350D01*
X1198494*
X1199598Y1078598D02*
G03X1198494Y1080350I-2098J-98D01*
G01X1201236Y1077681D02*
G03X1199598Y1078598I-1736J-1181D01*
G01X1201164Y1075219D02*
G03X1201236Y1077681I1736J1181D01*
G01X1197402Y1076402D02*
G03X1201164Y1075219I2098J98D01*
G01X1196506Y1080350D02*
G03X1197402Y1076402I994J-1850D01*
G01X1196506Y1080350D02*
X1184276D01*
X1183613Y1079687*
X1182800Y1079350D02*
G03X1183613Y1079687I0J1150D01*
G01X1182800Y1079350D02*
X1169600D01*
X1168787Y1079687D02*
G03X1169600Y1079350I813J813D01*
G01X1168787Y1079687D02*
X1166824Y1081650D01*
X1166399*
X1167198Y1080100D02*
G03X1166399Y1081650I-2098J-100D01*
G01X1165102Y1077900D02*
G03X1167198Y1080100I2098J100D01*
G01X1163801Y1081650D02*
G03X1165102Y1077900I1299J-1650D01*
G01X1163801Y1081650D02*
X1154776D01*
X1152313Y1079187*
X1151500Y1078850D02*
G03X1152313Y1079187I0J1150D01*
G01X1151500Y1078850D02*
X1149557D01*
Y1081150D02*
G03Y1078850I-1757J-1150D01*
G01Y1081150D02*
X1151024D01*
X1153487Y1083613*
X1154300Y1083950D02*
G03X1153487Y1083613I0J-1150D01*
G01X1154300Y1083950D02*
X1167300D01*
X1168113Y1083613D02*
G03X1167300Y1083950I-813J-813D01*
G01X1168113Y1083613D02*
X1170076Y1081650D01*
X1174580*
X1176439Y1084599D02*
G03X1174580Y1081650I61J-2099D01*
G01X1178561Y1082901D02*
G03X1176439Y1084599I-61J2099D01*
G01X1178420Y1081650D02*
G03X1178561Y1082901I-1920J850D01*
G01X1178420Y1081650D02*
X1182324D01*
X1182987Y1082313*
X1183800Y1082650D02*
G03X1182987Y1082313I0J-1150D01*
G01X1183800Y1082650D02*
X1208700D01*
X1209513Y1082313D02*
G03X1208700Y1082650I-813J-813D01*
G01X1209513Y1082313D02*
X1213576Y1078250D01*
X1214243*
X1212600Y1091500D02*
G03X1212600I-2100J0D01*
G01X1279495Y1095462D02*
G03X1277905Y1097650I505J2038D01*
G01X1279000Y1095350D02*
G03X1279495Y1095462I0J1150D01*
G01X1279000Y1095350D02*
X1212257D01*
X1208500Y1095860D02*
G03X1212257Y1095350I2000J640D01*
G01X1208500Y1097140D02*
G03Y1095860I-2000J-640D01*
G01X1212257Y1097650D02*
G03X1208500Y1097140I-1757J-1150D01*
G01X1212257Y1097650D02*
X1237906D01*
X1239894D02*
G03X1237906I-994J1850D01*
G01X1239894D02*
X1277905D01*
X1197910Y1089628D02*
G03X1197590Y1091872I1590J1372D01*
G01X1194530Y1092000D02*
G03X1197910Y1089628I1470J-1500D01*
G01X1194097Y1092612D02*
G03X1194530Y1092000I1903J888D01*
G01X1190628Y1094090D02*
G03X1194097Y1092612I1372J-1590D01*
G01X1189573Y1095165D02*
G03X1190628Y1094090I1927J835D01*
G01X1185573Y1094665D02*
G03X1189573Y1095165I1927J835D01*
G01X1181403Y1095104D02*
G03X1185573Y1094665I2097J-104D01*
G01X1182597Y1096896D02*
G03X1181403Y1095104I-2097J104D01*
G01X1185427Y1095835D02*
G03X1182597Y1096896I-1927J-835D01*
G01X1189427Y1096335D02*
G03X1185427Y1095835I-1927J-835D01*
G01X1192872Y1094410D02*
G03X1189427Y1096335I-1372J1590D01*
G01X1193903Y1093388D02*
G03X1192872Y1094410I-1903J-888D01*
G01X1197470Y1092000D02*
G03X1193903Y1093388I-1470J1500D01*
G01X1197590Y1091872D02*
G03X1197470Y1092000I-1590J-1372D01*
G01X1187100Y1114500D02*
G03X1187100I-2100J0D01*
G01X1177100D02*
G03X1177100I-2100J0D01*
G01X1155600Y1096500D02*
G03X1155600I-2100J0D01*
G01X1148100Y1086000D02*
G03X1148100I-2100J0D01*
G01X1142600Y1070000D02*
G03X1142600I-2100J0D01*
G01X1142300Y1085800D02*
G03X1142300I-2100J0D01*
G01X1142200Y1097600D02*
G03X1142200I-2100J0D01*
G01X1142500Y1107400D02*
G03X1142500I-2100J0D01*
G01X1131600Y1099500D02*
G03X1131600I-2100J0D01*
G01Y1109500D02*
G03X1131600I-2100J0D01*
G01X1114946Y1105217D02*
G03X1114946I-2100J0D01*
G01X1109946D02*
G03X1109946I-2100J0D01*
G01X1104946D02*
G03X1104946I-2100J0D01*
G01X1159600Y1050500D02*
G03X1159600I-2100J0D01*
G01X1142100Y1054500D02*
G03X1142100I-2100J0D01*
G01X1158100Y1079500D02*
G03X1158100I-2100J0D01*
G01X1171600Y1040500D02*
G03X1171600I-2100J0D01*
G01X1164597Y1049604D02*
G03X1163403Y1051396I903J1896D01*
X1164597Y1049604I-903J-1896*
G01X1165000Y1076000D02*
G03X1165000I-2100J0D01*
G01X1270512Y1089399D02*
X1301800D01*
X1269968Y1088499D02*
X1301800D01*
X1239984Y1087599D02*
X1301800D01*
X1240798Y1086699D02*
X1301800D01*
X1241000Y1085799D02*
X1301800D01*
X1240797Y1084899D02*
X1301800D01*
X1239980Y1083999D02*
X1301800D01*
X1229779Y1083099D02*
X1301800D01*
X1259235Y1082199D02*
X1301800D01*
X1259942Y1081299D02*
X1301800D01*
X1260098Y1080399D02*
X1301800D01*
X1290510Y1079499D02*
X1301800D01*
X1290396Y1076799D02*
X1301800D01*
X1265062Y1075899D02*
X1301800D01*
X1265039Y1074999D02*
X1301800D01*
X1264564Y1074099D02*
X1301800D01*
X1260078Y1073199D02*
X1301800D01*
X1276150Y1072299D02*
X1301800D01*
X1276562Y1071399D02*
X1301800D01*
X1276539Y1070499D02*
X1301800D01*
X1276064Y1069599D02*
X1301800D01*
X1229980Y1068699D02*
X1301800D01*
X1239584Y1067799D02*
X1301800D01*
X1283150Y1066899D02*
X1301800D01*
X1283562Y1065999D02*
X1301800D01*
X1283539Y1065099D02*
X1301800D01*
X1283064Y1064199D02*
X1301800D01*
X1258686Y1063299D02*
X1301800D01*
X1301740Y1062399D02*
X1301800D01*
X1268579Y1058799D02*
X1298846D01*
X1268512Y1057899D02*
X1298846D01*
X1267968Y1056999D02*
X1298846D01*
X1259942Y1056099D02*
X1298846D01*
X1268224Y1059699D02*
X1298525D01*
X1240562Y1062399D02*
X1298449D01*
X1266575Y1060599D02*
X1298054D01*
X1240539Y1061499D02*
X1298034D01*
X1264650Y1076799D02*
X1287297D01*
X1259846Y1079499D02*
X1287183D01*
X1243761Y1077699D02*
X1286811D01*
X1258892Y1078599D02*
X1286781D01*
X1281897Y1096599D02*
X1285500D01*
X1281080Y1095699D02*
X1285500D01*
X1211731Y1094799D02*
X1285500D01*
X1198062Y1093899D02*
X1285500D01*
X1229250Y1092999D02*
X1285500D01*
X1268575Y1092099D02*
X1285500D01*
X1270224Y1091199D02*
X1285500D01*
X1270579Y1090299D02*
X1285500D01*
X1282100Y1097499D02*
X1284875D01*
X1281898Y1098399D02*
X1283975D01*
X1281084Y1099299D02*
X1283075D01*
X1259492Y1064199D02*
X1279936D01*
X1258659Y1066899D02*
X1279850D01*
X1259691Y1065099D02*
X1279461D01*
X1259484Y1065999D02*
X1279438D01*
X1240990Y1099299D02*
X1278916D01*
X1240688Y1098399D02*
X1278102D01*
X1229362Y1069599D02*
X1272936D01*
X1259722Y1072299D02*
X1272850D01*
X1213540Y1070499D02*
X1272461D01*
X1213066Y1071399D02*
X1272438D01*
X1246075Y1092099D02*
X1268425D01*
X1247468Y1088499D02*
X1267032D01*
X1259002Y1055199D02*
X1267000D01*
X1247724Y1091199D02*
X1266776D01*
X1248012Y1089399D02*
X1266488D01*
X1240064Y1060599D02*
X1266425D01*
X1248079Y1090299D02*
X1266421D01*
X1260189Y1056999D02*
X1265032D01*
X1227224Y1059699D02*
X1264776D01*
X1260029Y1057899D02*
X1264488D01*
X1259312Y1058799D02*
X1264421D01*
X1257584Y1054299D02*
X1264172D01*
X1258398Y1053399D02*
X1263272D01*
X1258600Y1052499D02*
X1262372D01*
X1258397Y1051599D02*
X1261472D01*
X1260013Y1074099D02*
X1261436D01*
X1243348Y1076799D02*
X1261350D01*
X1259471Y1074999D02*
X1260961D01*
X1224598Y1075899D02*
X1260938D01*
X1257580Y1050699D02*
X1260572D01*
X1257579Y1049799D02*
X1259672D01*
X1257512Y1048899D02*
X1258772D01*
X1254225Y1055199D02*
X1257179D01*
X1243740Y1078599D02*
X1257108D01*
X1228528Y1058799D02*
X1256869D01*
X1229159Y1082199D02*
X1256765D01*
X1224346Y1074999D02*
X1256529D01*
X1240398Y1066899D02*
X1256523D01*
X1240150Y1063299D02*
X1256495D01*
X1213231Y1072299D02*
X1256278D01*
X1243266Y1079499D02*
X1256154D01*
X1210528Y1081299D02*
X1256058D01*
X1223392Y1074099D02*
X1255987D01*
X1213941Y1073199D02*
X1255922D01*
X1211428Y1080399D02*
X1255902D01*
X1240600Y1065999D02*
X1255697D01*
X1239580Y1064199D02*
X1255689D01*
X1240397Y1065099D02*
X1255491D01*
X1253325Y1054299D02*
X1255416D01*
X1239962Y1057899D02*
X1253672D01*
X1240580Y1056999D02*
X1252772D01*
X1240690Y1056099D02*
X1251872D01*
X1240388Y1055199D02*
X1250972D01*
X1239236Y1054299D02*
X1250072D01*
X1233928Y1053399D02*
X1249172D01*
X1229662Y1092099D02*
X1245925D01*
X1240622Y1088499D02*
X1244532D01*
X1240371Y1091199D02*
X1244276D01*
X1240978Y1089399D02*
X1243988D01*
X1240913Y1090299D02*
X1243921D01*
X1240880Y1100199D02*
X1243686D01*
X1240262Y1101099D02*
X1242775D01*
X1212328Y1079499D02*
X1240134D01*
X1224442Y1076799D02*
X1240052D01*
X1217471Y1078599D02*
X1239660D01*
X1223735Y1077699D02*
X1239639D01*
X1233028Y1054299D02*
X1237964D01*
X1229891Y1083999D02*
X1237820D01*
X1147362Y1087599D02*
X1237816D01*
X1207125Y1101099D02*
X1237538D01*
X1229639Y1091199D02*
X1237429D01*
X1230091Y1064199D02*
X1237420D01*
X1230090Y1067799D02*
X1237416D01*
X1229428Y1057899D02*
X1237238D01*
X1196636Y1088499D02*
X1237178D01*
X1211397Y1098399D02*
X1237112D01*
X1229590Y1084899D02*
X1237003D01*
X1179735Y1086699D02*
X1237002D01*
X1225575Y1060599D02*
X1236936D01*
X1202148Y1100199D02*
X1236920D01*
X1229164Y1090299D02*
X1236887D01*
X1229979Y1063299D02*
X1236850D01*
X1200859Y1089399D02*
X1236822D01*
X1232128Y1055199D02*
X1236812D01*
X1141335Y1099299D02*
X1236810D01*
X1228444Y1085799D02*
X1236800D01*
X1230328Y1056999D02*
X1236620D01*
X1229790Y1065099D02*
X1236603D01*
X1229788Y1066899D02*
X1236602D01*
X1231228Y1056099D02*
X1236510D01*
X1199847Y1061499D02*
X1236461D01*
X1229359Y1062399D02*
X1236438D01*
X1228644Y1065999D02*
X1236400D01*
X1218847D02*
X1227356D01*
X1180442Y1085799D02*
X1227156D01*
X1198897Y1062399D02*
X1226641D01*
X1213561Y1069599D02*
X1226638D01*
X1209628Y1082199D02*
X1226441D01*
X1217897Y1066899D02*
X1226212D01*
X1219098Y1065099D02*
X1226210D01*
X1212222Y1090299D02*
X1226036D01*
X1218231Y1063299D02*
X1226021D01*
X1213148Y1068699D02*
X1226020D01*
X1180598Y1084899D02*
X1226010D01*
X1211971Y1092999D02*
X1225950D01*
X1210942Y1067799D02*
X1225910D01*
X1218941Y1064199D02*
X1225909D01*
X1179392Y1083099D02*
X1225821D01*
X1180346Y1083999D02*
X1225709D01*
X1212578Y1091199D02*
X1225561D01*
X1212513Y1092099D02*
X1225538D01*
X1222075Y1060599D02*
X1225425D01*
X1197520Y1053399D02*
X1224980D01*
X1208025Y1101999D02*
X1224734D01*
X1223724Y1059699D02*
X1223776D01*
X1208925Y1102899D02*
X1223775D01*
X1200098Y1060599D02*
X1221925D01*
X1214098Y1074099D02*
X1221608D01*
X1218013Y1077699D02*
X1221265D01*
X1213847Y1074999D02*
X1220654D01*
X1218078Y1076799D02*
X1220558D01*
X1217722Y1075899D02*
X1220402D01*
X1199941Y1059699D02*
X1220276D01*
X1198012Y1057899D02*
X1219988D01*
X1199231Y1058799D02*
X1219921D01*
X1211098Y1066899D02*
X1216103D01*
X1214222Y1063299D02*
X1215769D01*
X1213971Y1065999D02*
X1215153D01*
X1214578Y1064199D02*
X1215059D01*
X1214513Y1065099D02*
X1214902D01*
X1213228Y1078599D02*
X1214529D01*
X1212897Y1075899D02*
X1214278D01*
X1209178Y1076799D02*
X1211775D01*
X1208822Y1075899D02*
X1211103D01*
X1210846Y1065999D02*
X1211029D01*
X1209113Y1077699D02*
X1210875D01*
X1142328Y1063299D02*
X1210778D01*
X1134000Y1072299D02*
X1210769D01*
X1209892Y1065099D02*
X1210487D01*
X1141428Y1064199D02*
X1210422D01*
X1204464Y1074999D02*
X1210153D01*
X1134000Y1073199D02*
X1210059D01*
X1208571Y1078599D02*
X1209975D01*
X1196075Y1047099D02*
X1209939D01*
X1142066Y1071399D02*
X1209934D01*
X1163792Y1074099D02*
X1209902D01*
X1207397Y1098399D02*
X1209603D01*
X1142540Y1070499D02*
X1209460D01*
X1142561Y1069599D02*
X1209439D01*
X1207731Y1094799D02*
X1209269D01*
X1201735Y1046199D02*
X1209238D01*
X1199347Y1079499D02*
X1209075D01*
X1200144Y1092999D02*
X1209029D01*
X1206971Y1043499D02*
X1208812D01*
X1201479Y1090299D02*
X1208778D01*
X1208347Y1097499D02*
X1208653D01*
X1202442Y1045299D02*
X1208620D01*
X1208441Y1095699D02*
X1208559D01*
X1202598Y1044399D02*
X1208510D01*
X1201290Y1092099D02*
X1208487D01*
X1201591Y1091199D02*
X1208422D01*
X1140528Y1065099D02*
X1208108D01*
X1142148Y1068699D02*
X1207765D01*
X1163968Y1047999D02*
X1207532D01*
X1202125Y1104699D02*
X1207472D01*
X1134000Y1065999D02*
X1207154D01*
X1134000Y1067799D02*
X1207058D01*
X1204859Y1048899D02*
X1206988D01*
X1204144Y1052499D02*
X1206930D01*
X1134000Y1066899D02*
X1206902D01*
X1201166Y1103799D02*
X1206572D01*
X1202066Y1102899D02*
X1205672D01*
X1199598Y1078599D02*
X1205629D01*
X1182066Y1098399D02*
X1205603D01*
X1204939Y1075899D02*
X1205378D01*
X1197650Y1094799D02*
X1205269D01*
X1204550Y1077699D02*
X1205087D01*
X1204962Y1076799D02*
X1205022D01*
X1192971Y1097499D02*
X1204653D01*
X1193578Y1095699D02*
X1204559D01*
X1193513Y1096599D02*
X1204402D01*
X1203144Y1043499D02*
X1204029D01*
X1196620Y1052499D02*
X1202856D01*
X1177022Y1048899D02*
X1202141D01*
X1195720Y1051599D02*
X1201710D01*
X1177378Y1049799D02*
X1201521D01*
X1178020Y1050699D02*
X1201409D01*
X1200968Y1074999D02*
X1201336D01*
X1201224Y1077699D02*
X1201250D01*
X1197724Y1046199D02*
X1199265D01*
X1171562Y1102899D02*
X1198934D01*
X1198039Y1092999D02*
X1198856D01*
X1131480Y1100199D02*
X1198852D01*
X1198079Y1045299D02*
X1198558D01*
X1171539Y1101999D02*
X1198460D01*
X1171064Y1101099D02*
X1198439D01*
X1197788Y1089399D02*
X1198141D01*
X1164746Y1074999D02*
X1198032D01*
X1197564Y1092099D02*
X1197710D01*
X1164998Y1075899D02*
X1197488D01*
X1194897Y1062399D02*
X1197103D01*
X1168922Y1076799D02*
X1196269D01*
X1195847Y1061499D02*
X1196153D01*
X1159290Y1056099D02*
X1195977D01*
X1192075Y1047099D02*
X1195925D01*
X1183366Y1079499D02*
X1195653D01*
X1169278Y1077699D02*
X1195559D01*
X1169213Y1078599D02*
X1195402D01*
X1134000Y1088499D02*
X1195364D01*
X1159591Y1055199D02*
X1195077D01*
X1193468Y1056999D02*
X1194532D01*
X1194061Y1092099D02*
X1194436D01*
X1193222Y1094799D02*
X1194350D01*
X1193724Y1046199D02*
X1194276D01*
X1134000Y1089399D02*
X1194212D01*
X1159479Y1054299D02*
X1194177D01*
X1193648Y1091199D02*
X1194020D01*
X1193566Y1093899D02*
X1193938D01*
X1134000Y1090299D02*
X1193910D01*
X1161362Y1110099D02*
X1193275D01*
X1190897Y1062399D02*
X1193103D01*
X1155125Y1110999D02*
X1192375D01*
X1191847Y1061499D02*
X1192153D01*
X1188075Y1047099D02*
X1191925D01*
X1156025Y1111899D02*
X1191475D01*
X1186231Y1112799D02*
X1190575D01*
X1189468Y1056999D02*
X1190532D01*
X1188859Y1093899D02*
X1190434D01*
X1134000Y1091199D02*
X1190352D01*
X1189724Y1046199D02*
X1190276D01*
X1188144Y1097499D02*
X1190029D01*
X1184136Y1092999D02*
X1189960D01*
X1134000Y1092099D02*
X1189939D01*
X1189479Y1094799D02*
X1189778D01*
X1186941Y1113699D02*
X1189675D01*
X1189290Y1096599D02*
X1189487D01*
X1186897Y1062399D02*
X1189103D01*
X1187098Y1114599D02*
X1188775D01*
X1187847Y1061499D02*
X1188153D01*
X1180362Y1047099D02*
X1187925D01*
X1186847Y1115499D02*
X1187875D01*
X1185897Y1116399D02*
X1186975D01*
X1182540Y1097499D02*
X1186856D01*
X1185468Y1056999D02*
X1186532D01*
X1185235Y1046199D02*
X1186276D01*
X1185288Y1093899D02*
X1186141D01*
X1184862Y1096599D02*
X1185710D01*
X1143228Y1062399D02*
X1185103D01*
X1144128Y1061499D02*
X1184153D01*
X1175897Y1116399D02*
X1184103D01*
X1145028Y1060599D02*
X1183902D01*
X1176231Y1112799D02*
X1183769D01*
X1176847Y1115499D02*
X1183153D01*
X1176941Y1113699D02*
X1183059D01*
X1177098Y1114599D02*
X1182902D01*
X1178578Y1082199D02*
X1182872D01*
X1096500Y1092999D02*
X1182864D01*
X1180980Y1046199D02*
X1182765D01*
X1158144Y1056999D02*
X1182532D01*
X1145928Y1059699D02*
X1182276D01*
X1181090Y1045299D02*
X1182058D01*
X1147728Y1057899D02*
X1181988D01*
X1146828Y1058799D02*
X1181921D01*
X1181897Y1044399D02*
X1181902D01*
X1096500Y1093899D02*
X1181712D01*
X1154731Y1094799D02*
X1181410D01*
X1141898Y1035399D02*
X1178975D01*
X1154397Y1098399D02*
X1178934D01*
X1155441Y1095699D02*
X1178852D01*
X1155347Y1097499D02*
X1178460D01*
X1155598Y1096599D02*
X1178439D01*
X1148731Y1036299D02*
X1178089D01*
X1152968Y1043499D02*
X1177850D01*
X1169575Y1042599D02*
X1177850D01*
X1171224Y1041699D02*
X1177850D01*
X1171579Y1040799D02*
X1177850D01*
X1171512Y1039899D02*
X1177850D01*
X1170968Y1038999D02*
X1177850D01*
X1149598Y1038099D02*
X1177850D01*
X1149441Y1037199D02*
X1177850D01*
X1151575Y1047099D02*
X1177638D01*
X1147980Y1086699D02*
X1177265D01*
X1153512Y1044399D02*
X1177212D01*
X1153224Y1046199D02*
X1177020D01*
X1153579Y1045299D02*
X1176910D01*
X1148090Y1085799D02*
X1176558D01*
X1166397Y1053399D02*
X1176477D01*
X1147788Y1084899D02*
X1176402D01*
X1167347Y1052499D02*
X1175577D01*
X1146636Y1083999D02*
X1175029D01*
X1168628Y1083099D02*
X1174487D01*
X1169528Y1082199D02*
X1174422D01*
X1160525Y1116399D02*
X1174103D01*
X1167598Y1051599D02*
X1173829D01*
X1156925Y1112799D02*
X1173769D01*
X1164512Y1048899D02*
X1173578D01*
X1167441Y1050699D02*
X1173287D01*
X1166731Y1049799D02*
X1173222D01*
X1159625Y1115499D02*
X1173153D01*
X1157825Y1113699D02*
X1173059D01*
X1158725Y1114599D02*
X1172902D01*
X1151513Y1042599D02*
X1169425D01*
X1168671Y1079499D02*
X1169034D01*
X1167162Y1080399D02*
X1168075D01*
X1149347Y1038999D02*
X1168032D01*
X1130862Y1101099D02*
X1167936D01*
X1151578Y1041699D02*
X1167776D01*
X1148397Y1039899D02*
X1167488D01*
X1162468Y1101999D02*
X1167461D01*
X1151222Y1040799D02*
X1167421D01*
X1166750Y1081299D02*
X1167175D01*
X1164842Y1076799D02*
X1165478D01*
X1164135Y1077699D02*
X1165122D01*
X1158859Y1053399D02*
X1164603D01*
X1158144Y1052499D02*
X1163653D01*
X1157897Y1078599D02*
X1163536D01*
X1157084Y1081299D02*
X1163450D01*
X1162575Y1051599D02*
X1163402D01*
X1162724Y1104699D02*
X1163352D01*
X1158100Y1079499D02*
X1163061D01*
X1157898Y1080399D02*
X1163038D01*
X1160636Y1106499D02*
X1162960D01*
X1161075Y1105599D02*
X1162939D01*
X1159290Y1051599D02*
X1162425D01*
X1134000Y1074099D02*
X1162008D01*
X1157080Y1077699D02*
X1161665D01*
X1134000Y1074999D02*
X1161054D01*
X1142039Y1047999D02*
X1161032D01*
X1134000Y1076799D02*
X1160958D01*
X1141480Y1105599D02*
X1160925D01*
X1134000Y1075899D02*
X1160802D01*
X1159591Y1050699D02*
X1160776D01*
X1158859Y1048899D02*
X1160488D01*
X1159479Y1049799D02*
X1160421D01*
X1096500Y1101999D02*
X1159532D01*
X1142297Y1106499D02*
X1159364D01*
X1114882Y1104699D02*
X1159276D01*
X1096500Y1102899D02*
X1158988D01*
X1114396Y1103799D02*
X1158921D01*
X1154214Y1110099D02*
X1158638D01*
X1142500Y1107399D02*
X1158212D01*
X1148080Y1109199D02*
X1158020D01*
X1142298Y1108299D02*
X1157910D01*
X1148628Y1056999D02*
X1156856D01*
X1140636Y1052499D02*
X1156856D01*
X1141788Y1053399D02*
X1156141D01*
X1142062Y1048899D02*
X1156141D01*
X1137550Y1051599D02*
X1155710D01*
X1141650Y1049799D02*
X1155521D01*
X1137550Y1050699D02*
X1155409D01*
X1134000Y1077699D02*
X1154920D01*
X1154425Y1081299D02*
X1154916D01*
X1149364Y1078599D02*
X1154103D01*
X1153525Y1080399D02*
X1154102D01*
X1152625Y1079499D02*
X1153900D01*
X1134000Y1083099D02*
X1152972D01*
X1142042Y1098399D02*
X1152603D01*
X1096500Y1094799D02*
X1152269D01*
X1134000Y1082199D02*
X1152072D01*
X1150731Y1112799D02*
X1151778D01*
X1142198Y1097499D02*
X1151653D01*
X1140992Y1095699D02*
X1151559D01*
X1144735Y1047099D02*
X1151425D01*
X1141946Y1096599D02*
X1151402D01*
X1149450Y1081299D02*
X1151172D01*
X1145442Y1046199D02*
X1149776D01*
X1105625Y1119999D02*
X1148872D01*
X1148084Y1112799D02*
X1148269D01*
X1142090Y1054299D02*
X1148075D01*
X1104725Y1119099D02*
X1147972D01*
X1146328Y1040799D02*
X1147778D01*
X1147148Y1113699D02*
X1147559D01*
X1141980Y1055199D02*
X1147175D01*
X1145598Y1045299D02*
X1147172D01*
X1103825Y1118199D02*
X1147072D01*
X1141362Y1056099D02*
X1146275D01*
X1141084Y1036299D02*
X1146269D01*
X1134000Y1078599D02*
X1146236D01*
X1102925Y1117299D02*
X1146172D01*
X1134000Y1081299D02*
X1146150D01*
X1141484Y1109199D02*
X1145920D01*
X1098425Y1112799D02*
X1145916D01*
X1134000Y1079499D02*
X1145761D01*
X1134000Y1080399D02*
X1145738D01*
X1141648Y1037199D02*
X1145559D01*
X1142061Y1038099D02*
X1145402D01*
X1137550Y1056999D02*
X1145375D01*
X1141280Y1083999D02*
X1145364D01*
X1131513Y1110099D02*
X1145103D01*
X1097525Y1111899D02*
X1145102D01*
X1130971Y1110999D02*
X1144900D01*
X1142040Y1038999D02*
X1144875D01*
X1141284Y1087599D02*
X1144638D01*
X1137227Y1057899D02*
X1144475D01*
X1142097Y1084899D02*
X1144212D01*
X1142098Y1086699D02*
X1144020D01*
X1102025Y1116399D02*
X1143934D01*
X1142300Y1085799D02*
X1143910D01*
X1099325Y1113699D02*
X1143852D01*
X1136328Y1058799D02*
X1143575D01*
X1101125Y1115499D02*
X1143460D01*
X1100225Y1114599D02*
X1143439D01*
X1135428Y1059699D02*
X1142675D01*
X1141564Y1047099D02*
X1142265D01*
X1134528Y1060599D02*
X1141775D01*
X1134000Y1061499D02*
X1140875D01*
X1134000Y1062399D02*
X1139975D01*
X1137550Y1052499D02*
X1139364D01*
X1114911Y1105599D02*
X1139320D01*
X1131578Y1109199D02*
X1139316D01*
X1096500Y1095699D02*
X1139208D01*
X1134000Y1083999D02*
X1139120D01*
X1134000Y1087599D02*
X1139116D01*
X1134000Y1063299D02*
X1139075D01*
X1134000Y1071399D02*
X1138934D01*
X1131590Y1099299D02*
X1138865D01*
X1134000Y1068699D02*
X1138852D01*
X1137550Y1056099D02*
X1138638D01*
X1114510Y1106499D02*
X1138503D01*
X1131222Y1108299D02*
X1138502D01*
X1134000Y1070499D02*
X1138460D01*
X1134000Y1069599D02*
X1138439D01*
X1137550Y1049799D02*
X1138350D01*
X1134000Y1084899D02*
X1138303D01*
X1134000Y1086699D02*
X1138302D01*
X1096500Y1107399D02*
X1138300D01*
X1096500Y1096599D02*
X1138254D01*
X1137550Y1053399D02*
X1138212D01*
X1131288Y1098399D02*
X1138158D01*
X1134000Y1085799D02*
X1138100D01*
X1137550Y1055199D02*
X1138020D01*
X1130136Y1097499D02*
X1138002D01*
X1137550Y1054299D02*
X1137910D01*
X1106525Y1120899D02*
X1133075D01*
X1107425Y1121799D02*
X1132175D01*
X1096500Y1097499D02*
X1128864D01*
X1096500Y1101099D02*
X1128138D01*
X1096625Y1110999D02*
X1128029D01*
X1096500Y1108299D02*
X1127778D01*
X1096500Y1098399D02*
X1127712D01*
X1096500Y1100199D02*
X1127520D01*
X1096500Y1110099D02*
X1127487D01*
X1096500Y1109199D02*
X1127422D01*
X1096500Y1099299D02*
X1127410D01*
X1109396Y1103799D02*
X1111297D01*
X1109510Y1106499D02*
X1111183D01*
X1109882Y1104699D02*
X1110811D01*
X1109911Y1105599D02*
X1110781D01*
X1104396Y1103799D02*
X1106297D01*
X1104510Y1106499D02*
X1106183D01*
X1104882Y1104699D02*
X1105811D01*
X1104911Y1105599D02*
X1105781D01*
X1099396Y1103799D02*
X1101297D01*
X1099510Y1106499D02*
X1101183D01*
X1099882Y1104699D02*
X1100811D01*
X1099911Y1105599D02*
X1100781D01*
G54D28*
X1128000Y1023000D02*
X1152000D01*
X1157500Y1028500*
X1128000Y1023000D02*
X1126500Y1024500D01*
X1124000*
X1129000Y1025400D02*
X1131100Y1027500D01*
X1136000*
X1150000Y1025000D02*
X1138500D01*
X1136000Y1027500*
X1150000Y1025000D02*
X1155500Y1030500D01*
X1204100Y1024200D02*
X1228200D01*
X1229000Y1025000*
X1267600*
X1204100Y1024200D02*
X1194900Y1033400D01*
X1182600*
X1179000Y1037000*
Y1045500*
X1206300Y1019500D02*
X1184500D01*
X1177100Y1026900*
X1206300Y1019500D02*
X1207700Y1020900D01*
Y1021000*
X1219500*
X1220500Y1022000*
X1229500*
X1230500Y1023000*
X1241500*
X1189100Y1022100D02*
X1218500D01*
X1219400Y1023000*
X1228500*
X1229500Y1024000*
X1189100Y1022100D02*
X1181600Y1029600D01*
X1176000*
Y1029800*
X1175900Y1029900*
X1222500Y1016500D02*
X1236000D01*
X1237500Y1018000*
X1261900Y1023000D02*
X1243500D01*
X1242500Y1024000*
X1229500*
X1234500Y1019000D02*
X1273500D01*
X1278000Y1023500*
X1281500*
X1300500Y1014500D02*
X1294000Y1021000D01*
X1288000*
X1300500Y1014500D02*
X1305900D01*
X1307900Y1016500*
X1310000*
X1272000D02*
X1283500D01*
X1288000Y1021000*
X1272000Y1016500D02*
X1270500Y1018000D01*
X1237500*
X1285000Y1025500D02*
X1293500D01*
X1295000Y1027000*
X1285000Y1025500D02*
X1283500Y1027000D01*
X1229500*
X1264500Y1021000D02*
X1243500D01*
X1241500Y1023000*
X1318000D02*
X1327500D01*
X1328900Y1024400*
Y1027000*
X1318000Y1023000D02*
X1314000Y1027000D01*
X1295000*
X1323000Y1025500D02*
X1319200D01*
X1316600Y1028100*
X1323000Y1025500D02*
X1319200D01*
X1316600Y1028100*
X1293500*
X1101500Y1026600D02*
X1126800D01*
X1127700Y1027500*
X1129600*
X1131000Y1028900*
X1132900*
X1135500Y1031500*
X1146000*
X1113800Y1039800D02*
X1110000D01*
X1107089Y1042711*
X1095004*
X1093657Y1044057*
Y1046720*
X1113800Y1039800D02*
X1114100Y1040100D01*
X1123132*
X1108000Y1045300D02*
X1104200D01*
X1100280Y1049220*
X1096157*
X1108000Y1045300D02*
X1111300Y1048600D01*
X1114300*
X1114748Y1032400D02*
X1129000D01*
X1131100Y1034500*
X1140000*
X1114748Y1032400D02*
X1112648Y1034500D01*
X1102000*
X1098800Y1037700*
X1083000*
X1080700Y1040000*
Y1044867*
X1080346Y1045220*
X1127400Y1033900D02*
X1115800D01*
X1113200Y1036500*
X1108200*
X1105250Y1039450*
X1084450*
X1082500Y1041400*
Y1048063*
X1082346Y1048217*
X1127400Y1033900D02*
X1127800Y1034300D01*
X1133500Y1036400D02*
X1123900D01*
X1121500Y1038800*
X1133500Y1036400D02*
X1135600Y1038500D01*
X1140000*
X1114400D02*
X1108700D01*
X1106100Y1041100*
X1086500*
X1084200Y1043400*
Y1050400*
X1082383Y1052217*
X1079846*
X1114400Y1038500D02*
X1114700Y1038800D01*
X1121500*
X1113800Y1027500D02*
X1125100D01*
X1126100Y1028500*
X1127800*
X1129100Y1029800*
X1113800Y1027500D02*
X1108800Y1032500D01*
X1101100*
X1098380Y1035220*
X1078346*
X1129800Y1046400D02*
X1129700Y1046500D01*
X1124000*
X1116800Y1047217D02*
X1118800D01*
X1124000Y1052417*
Y1056500*
X1126500Y1059000*
X1131800*
X1127500Y1038400D02*
X1124600D01*
X1123132Y1040100*
X1126600Y1044100D02*
X1126450Y1044250D01*
X1117150*
X1114800Y1046600*
Y1048100*
X1114300Y1048600*
X1143500Y1045400D02*
X1140300D01*
X1136400Y1049300*
Y1057100*
X1133100Y1060400*
X1107346Y1047717D02*
X1109130Y1049500D01*
X1113800*
X1114800Y1050500*
Y1056000*
X1117000Y1058200*
X1121000*
X1123200Y1060400*
X1133100*
X1112346Y1051717D02*
Y1056846D01*
X1120300Y1064800*
X1139200*
X1146900Y1043400D02*
X1140700D01*
X1134900Y1049200*
Y1055900*
X1131800Y1059000*
X1146900Y1043400D02*
X1148500Y1045000D01*
X1151500*
X1157500Y1055000D02*
X1149000D01*
X1139200Y1064800*
X1149500Y1042000D02*
X1125300D01*
X1124200Y1043100*
X1114800*
X1112800Y1045100*
Y1046500*
X1147500Y1038000D02*
X1144900Y1040600D01*
X1124400*
X1123280Y1041720*
X1112157*
X1211341Y1036000D02*
X1222500D01*
X1226000Y1039500*
X1242500*
X1211341Y1036000D02*
X1207341Y1040000D01*
X1204000*
X1202500Y1041500*
X1223000Y1035000D02*
X1209907D01*
X1206007Y1038900*
X1201375*
X1200500Y1039775*
Y1044500*
X1223000Y1035000D02*
X1226500Y1038500D01*
X1238000*
X1201900Y1031800D02*
X1204700D01*
X1206900Y1034000*
X1201900Y1031800D02*
X1194700Y1039000D01*
X1183000*
X1204500Y1028800D02*
X1201500D01*
X1195100Y1035200*
X1182900*
X1181000Y1037100*
Y1042500*
X1204500Y1028800D02*
X1208700Y1033000D01*
X1229500*
X1216500Y1031000D02*
X1218500D01*
X1219500Y1032000*
X1229000*
X1218000Y1039500D02*
X1224500D01*
X1225500Y1040500*
X1234500*
X1235500Y1041500*
X1255000*
X1256000Y1042500*
X1268000*
X1215000Y1041500D02*
X1220500D01*
X1223500Y1044500*
X1212000Y1047500D02*
X1214000Y1049500D01*
X1225000*
X1210600Y1044600D02*
X1213500D01*
X1217200Y1048300*
X1209000Y1049500D02*
X1211000D01*
X1212000Y1050500*
X1225500*
X1203500D02*
X1206500D01*
X1207500Y1051500*
X1205500Y1042000D02*
X1211500D01*
X1213000Y1043500*
X1220000*
X1222000Y1045500*
X1234500*
X1220500Y1030000D02*
X1223000D01*
X1224000Y1031000*
X1228500*
X1220500Y1030000D02*
X1223000D01*
X1224000Y1031000*
X1217500Y1045500D02*
X1218500Y1046500D01*
X1233500Y1042500D02*
X1253000D01*
X1254500Y1044000*
X1233500Y1042500D02*
X1231500Y1044500D01*
X1223500*
X1259000Y1047500D02*
X1250500D01*
X1249500Y1048500*
X1226000*
X1225000Y1049500*
X1259000Y1047500D02*
X1265000Y1053500D01*
X1286500*
X1249500Y1046500D02*
X1261000D01*
X1265500Y1051000*
X1284000*
X1249500Y1046500D02*
X1248500Y1047500D01*
X1225500*
X1224700Y1048300*
X1217200*
X1227000Y1050500D02*
X1249500D01*
X1251500Y1052500*
X1256500*
X1227000Y1050500D02*
X1226000Y1051500D01*
X1207500*
X1248300Y1036000D02*
X1240500D01*
X1238000Y1038500*
X1248300Y1036000D02*
X1250000Y1037700D01*
X1265500*
X1234500Y1031800D02*
X1255300D01*
X1258000Y1034500*
X1272500*
X1234500Y1031800D02*
X1232300Y1034000D01*
X1206900*
X1257000Y1030500D02*
X1232000D01*
X1229500Y1033000*
X1257000Y1030500D02*
X1259000Y1032500D01*
X1266000*
X1226050Y1026050D02*
X1228550D01*
X1229500Y1027000*
X1226050Y1026050D02*
X1225100Y1027000D01*
X1222500*
X1234100Y1051600D02*
X1249000D01*
X1254491Y1057091*
X1258091*
X1234100Y1051600D02*
X1227200Y1058500D01*
X1225500*
X1255500Y1049500D02*
X1226500D01*
X1225500Y1050500*
X1240000Y1044500D02*
X1235500D01*
X1234500Y1045500*
X1286600Y1026500D02*
X1291900D01*
X1293500Y1028100*
X1286600Y1026500D02*
X1285000Y1028100D01*
X1251000*
X1250650Y1028450*
X1231050*
X1228500Y1031000*
X1224000*
X1291900Y1026500D02*
X1286600D01*
X1285000Y1028100*
X1251000*
X1250650Y1028450*
X1231050*
X1228500Y1031000*
X1291900Y1026500D02*
X1293500Y1028100D01*
X1316600*
X1299000Y1033000D02*
X1290500Y1041500D01*
X1269000*
X1268000Y1042500*
X1303000Y1032500D02*
X1293000Y1042500D01*
X1271000*
X1269500Y1044000*
X1254500*
X1317500Y1029500D02*
X1231500D01*
X1229000Y1032000*
X1317500Y1029500D02*
X1319000Y1031000D01*
X1316500Y1042500D02*
X1328500D01*
X1331000Y1045000*
Y1047500*
X1316500Y1042500D02*
X1314500Y1044500D01*
X1272000*
X1271000Y1045500*
X1248000*
X1247000Y1046500*
X1218500*
X1316846Y1052717D02*
Y1059846D01*
X1320594Y1063594*
Y1073217*
X1315594Y1078217*
X1288846*
X1147800Y1080000D02*
X1151500D01*
X1154300Y1082800*
X1167300*
X1182800Y1080500D02*
X1169600D01*
X1167300Y1082800*
X1182800Y1080500D02*
X1183800Y1081500D01*
X1208700*
X1161000Y1103500D02*
X1166500D01*
X1167800Y1104800*
X1200600*
X1202000Y1106200*
X1226000*
X1216000Y1077100D02*
X1213100D01*
X1208700Y1081500*
X1210500Y1096500D02*
X1279000D01*
X1280000Y1097500*
X1200500Y1101500D02*
X1205900D01*
X1208900Y1104500*
X1277500Y1103500D02*
X1255500D01*
X1254167Y1104833*
X1227367*
X1226000Y1106200*
X1304147Y1084647D02*
X1304200Y1084700D01*
Y1089050*
X1299700Y1093550*
X1290450*
X1282900Y1101100*
X1244400*
X1242500Y1103000*
X1225300*
X1223800Y1104500*
X1208900*
X1086000Y1106500D02*
X1090500D01*
X1107600Y1123600*
X1132000*
X1160000Y1108500D02*
X1162900D01*
X1160000*
X1162900D02*
X1198600D01*
X1165000Y1106000D02*
X1200000D01*
X1202200Y1108200*
X1227500*
X1151000Y1120500D02*
X1145500Y1115000D01*
X1151000Y1120500*
X1147000Y1111000D02*
X1153500D01*
X1160500Y1118000*
X1187000*
X1149500Y1114500D02*
X1154000Y1119000D01*
X1192000*
X1197500Y1113500D02*
X1192000Y1119000D01*
X1265500Y1115500D02*
X1261000D01*
X1256000Y1120500*
X1151000*
X1282500Y1106000D02*
X1229700D01*
X1227500Y1108200*
X1279500Y1118500D02*
X1276500Y1121500D01*
X1134100*
X1132000Y1123600*
X1268900Y1110500D02*
X1194500D01*
X1187000Y1118000*
X1290000Y1122500D02*
X1149500D01*
X1146500Y1125500*
X1141500*
G54D29*
X1175300Y1050100D02*
X1177700Y1052500D01*
X1194500*
X1197500Y1055500*
X1225000*
X1228000Y1052500D02*
X1225000Y1055500D01*
X1300346Y1046717D02*
Y1060843D01*
X1300094Y1061094*
X1323846Y1045217D02*
Y1054094D01*
X1321846Y1056094*
X1319594*
X1304094Y1084594D02*
X1304147Y1084647D01*
G54D33*
X652000Y645200D02*
X1688000D01*
Y1350000*
X652000*
Y645200*
X1253500D02*
X1688000D01*
Y840200*
X1253500*
Y645200*
X1253000Y785200D02*
X1688000D01*
Y645200*
X1253000*
Y785200*
Y675200D02*
X1688000D01*
Y645200*
X1253000*
Y675200*
X1413000*
Y645200*
X1253000*
Y675200*
Y785200D02*
X1688000D01*
Y840200*
X1253000*
Y785200*
Y715200D02*
X1688000D01*
Y785200*
X1253000*
Y715200*
X1553000Y675200D02*
X1688000D01*
Y715200*
X1553000*
Y675200*
X818500Y675700D02*
X1024000D01*
Y645200*
X818500*
Y675700*
X1024000Y645200D02*
X1253500D01*
Y675700*
X1024000*
Y645200*
X818500Y785700D02*
X1253500D01*
Y675700*
X818500*
Y785700*
G54D37*
X1158300Y1059000D03*
X1176800Y1040400D03*
X1214300Y1058400D03*
X1275500Y1060000D03*
X1278500D03*
X1281500D03*
X1298500Y1065500D03*
X1152300Y1076300D03*
X1190000Y1102300D03*
X1219900Y1101800D03*
X1210700Y1083700D03*
X1111200Y1112500D03*
X1117600Y1120800D03*
G54D48*
X1124000Y1024500D03*
X1129000Y1025400D03*
X1222500Y1016500D03*
X1261900Y1023000D03*
X1234500Y1019000D03*
X1267600Y1025000D03*
X1264500Y1021000D03*
X1281500Y1023500D03*
X1310000Y1016500D03*
X1323000Y1025500D03*
X1093657Y1046720D03*
X1096157Y1049220D03*
X1101500Y1026600D03*
X1080346Y1045220D03*
X1082346Y1048217D03*
X1079846Y1052217D03*
X1078346Y1035220D03*
X1124000Y1046500D03*
X1129800Y1046400D03*
X1116800Y1047217D03*
X1127500Y1038400D03*
X1126600Y1044100D03*
X1143500Y1045400D03*
X1107346Y1047717D03*
X1112346Y1051717D03*
X1112800Y1046500D03*
X1112157Y1041720D03*
X1140000Y1034500D03*
X1127800Y1034300D03*
X1140000Y1038500D03*
X1129100Y1029800D03*
X1157500Y1028500D03*
X1155500Y1030500D03*
X1183000Y1039000D03*
X1181000Y1042500D03*
X1179000Y1045500D03*
X1177100Y1026900D03*
X1175900Y1029900D03*
X1151500Y1045000D03*
X1157500Y1055000D03*
X1175300Y1050100D03*
X1149500Y1042000D03*
X1147500Y1038000D03*
X1146000Y1031500D03*
X1216500Y1031000D03*
X1218000Y1039500D03*
X1215000Y1041500D03*
X1212000Y1047500D03*
X1210600Y1044600D03*
X1209000Y1049500D03*
X1203500Y1050500D03*
X1205500Y1042000D03*
X1202500Y1041500D03*
X1200500Y1044500D03*
X1220500Y1030000D03*
X1217500Y1045500D03*
X1222500Y1027000D03*
X1255500Y1049500D03*
X1256500Y1052500D03*
X1240000Y1044500D03*
X1242500Y1039500D03*
X1228000Y1052500D03*
X1225500Y1058500D03*
X1258091Y1057091D03*
X1299000Y1033000D03*
X1303000Y1032500D03*
X1286500Y1053500D03*
X1284000Y1051000D03*
X1265500Y1037700D03*
X1272500Y1034500D03*
X1266000Y1032500D03*
X1300346Y1046717D03*
X1300094Y1061094D03*
X1319000Y1031000D03*
X1331000Y1047500D03*
X1316846Y1052717D03*
X1323846Y1045217D03*
X1319594Y1056094D03*
X1328900Y1027000D03*
X1147800Y1080000D03*
X1161000Y1103500D03*
X1216000Y1077100D03*
X1210500Y1096500D03*
X1200500Y1101500D03*
X1277500Y1103500D03*
X1280000Y1097500D03*
X1288846Y1078217D03*
X1304094Y1084594D03*
X1086000Y1106500D03*
X1141500Y1125500D03*
X1165000Y1106000D03*
X1160000Y1108500D03*
X1145500Y1115000D03*
X1147000Y1111000D03*
X1149500Y1114500D03*
X1198600Y1108500D03*
X1197500Y1113500D03*
X1265500Y1115500D03*
X1282500Y1106000D03*
X1279500Y1118500D03*
X1268900Y1110500D03*
X1290000Y1122500D03*
G54D60*
G74*
X0Y0D02*
M02*
