%
T1C.01F095S3
X103509Y101259
X10225Y10295
X1031Y1039
X1039Y10475
X1036Y105
X10415Y10505
X1031Y1051
X10335Y10615
X103Y1074
X103Y1082
X1045Y1101
X10565Y1096
X10695Y1086
X10695Y107
X1049Y10675
X10625Y1057
X1055Y1057
X1055Y1032
X106Y10125
X109Y1012
X10805Y1019
X10845Y1019
X109Y10195
X1097Y1021
X10825Y10215
X1078Y10215
X10865Y10215
X1097Y10255
X10957Y10327
X107835Y103522
X108035Y104522
X10875Y10455
X109366Y104672
X108235Y104822
X109616Y104922
X107985Y105222
X10875Y10565
X1088Y10605
X10865Y10675
X10865Y1074
X109085Y108972
X1086Y11065
X10885Y11125
X11176Y11208
X11112Y11125
X109785Y110522
X110285Y110522
X111285Y110522
X110785Y110522
X11025Y107522
X110785Y107522
X110785Y106572
X110285Y106572
X11195Y10605
X1103Y10605
X11033Y1056
X11198Y10554
X111235Y105172
X110735Y104772
X11168Y104722
X11128Y10465
X11106Y10445
X111216Y104172
X11035Y1037
X11197Y10368
X10993Y10293
X11015Y10266
X11Y1012
X111Y1012
X112Y1012
X113Y1012
X11415Y10125
X11385Y10125
X1127Y10205
X1124Y10245
X1129Y10254
X1134Y10255
X11415Y10275
X11238Y10297
X11291Y10298
X1146Y10315
X11278Y10343
X114Y10345
X11275Y10384
X114Y10385
X11266Y10441
X11435Y10454
X11298Y10464
X1124Y10465
X114Y10485
X11295Y10505
X1128Y10531
X114Y10545
X1129Y1056
X11245Y10675
X11405Y107
X11295Y1072
X11245Y1074
X11402Y10858
X1146Y1086
X11295Y10875
X11401Y10976
X11295Y10995
X11404Y11074
X11295Y11095
X1147Y1111
X11455Y1115
X11415Y11255
X11614Y11258
X11515Y11257
X11495Y11145
X11535Y1114
X116Y11085
X1165Y1106
X1161Y11035
X11695Y11025
X11535Y10965
X11478Y108
X11651Y108
X1156Y10795
X11672Y1078
X11523Y10763
X11629Y1076
X11583Y1059
X11575Y1055
X11655Y10515
X11575Y10505
X11625Y10495
X11515Y1045
X11495Y1042
X11695Y10405
X11475Y1038
X11555Y10305
X11635Y103
X11575Y10285
X1169Y1028
X11615Y1027
X11675Y10165
X1171Y10165
X11595Y10165
X11615Y1012
X11585Y1012
X11485Y1012
X11515Y1012
X11835Y1013
X11965Y1013
X11935Y1013
X11865Y1013
X11915Y10155
X11885Y10155
X11771Y10269
X11908Y10275
X11759Y10299
X1193Y10305
X1183Y1039
X11768Y10404
X1194Y10425
X119Y10425
X1186Y10425
X1181Y10425
X1184Y10445
X1192Y1045
X1188Y1045
X1196Y1045
X1179Y10455
X11753Y10501
X1192Y10585
X1188Y10585
X1196Y10585
X1184Y10585
X1186Y10605
X1194Y10605
X119Y10605
X11765Y10825
X11785Y1085
X1196Y10905
X1192Y10925
X1196Y10935
X11835Y1095
X11875Y10955
X11915Y1096
X11805Y1097
X119Y11023
X1175Y11145
X1185Y11145
X1183Y11255
X11732Y11256
X11988Y11256
X12047Y11256
X12125Y11256
X12066Y11145
X12145Y11144
X11975Y11135
X11986Y11085
X12199Y11018
X12005Y11015
X12105Y10965
X12065Y10965
X12105Y10915
X11995Y1091
X12107Y10837
X11975Y10785
X1216Y10771
X12071Y10771
X11995Y10765
X12029Y10764
X1212Y1074
X12115Y107
X1209Y1067
X1217Y1065
X12125Y10645
X1198Y10605
X1222Y10585
X12143Y10584
X12035Y10505
X1209Y10495
X1212Y10475
X12175Y10455
X12106Y10446
X12005Y10445
X1198Y10425
X12055Y1042
X1215Y10415
X12025Y10415
X1218Y10395
X1212Y10385
X12045Y1037
X12165Y1031
X12205Y103
X12185Y1027
X12165Y10166
X12115Y10159
X12075Y10159
X12015Y10155
X11985Y10155
X122Y10139
X12134Y10128
X12166Y10128
X12066Y10125
X120259Y10125
X12415Y1012
X12385Y1012
X123259Y101259
X12265Y1014
X1235Y10145
X12225Y10165
X12305Y1019
X12345Y1019
X1237Y1021
X12225Y1027
X12272Y10287
X12385Y10346
X12275Y10365
X12425Y10395
X1225Y10425
X124Y10445
X1228Y10525
X12386Y10563
X12255Y10585
X12385Y1062
X1228Y1064
X12385Y1066
X1228Y1068
X12225Y1076
X12417Y10781
X12278Y10838
X12389Y10858
X12389Y10897
X1246Y109
X12276Y10917
X12389Y10995
X12655Y11155
X12689Y11105
X12685Y109
X1258Y10805
X1263Y10755
X1258Y10735
X125759Y106509
X12665Y10585
X125809Y105709
X12565Y10525
X12555Y10495
X12625Y104
X12655Y10377
X12539Y10354
X1266Y10325
X12676Y1025
X12619Y1023
X12645Y1021
X1262Y10155
X1258Y10155
X12526Y10125
X125741Y10125
X128259Y101209
X12935Y1015
X12965Y1015
X12865Y1016
X12885Y10185
X12915Y10185
X1283Y10195
X127991Y101991
X12815Y10235
X12725Y10345
X1288Y1035
X12785Y1038
X1284Y1051
X12865Y10535
X12755Y106
X12785Y106
X12815Y106
X12815Y10656
X12745Y1071
X128885Y107822
X128Y10975
X1292Y1098
X129Y11015
X12775Y11035
X12825Y1106
X12795Y11185
X129Y11225
X13165Y1105
X13065Y1105
X132159Y109909
X13105Y10981
X13065Y10905
X131659Y108759
X130409Y108459
X131109Y107509
X131585Y106572
X12985Y10655
X130789Y106208
X131183Y106208
X130009Y106109
X130986Y105913
X131183Y105617
X130789Y105617
X131959Y105609
X131685Y105272
X130035Y104672
X1299Y1033
X1303Y10325
X1319Y1031
X1308Y10215
X1302Y10215
X13147Y10215
X1312Y10215
X1305Y10215
X13173Y10214
X13075Y10185
X131Y10165
X13019Y10165
X1315Y10155
X13185Y10155
X13125Y10135
X13075Y10125
X130209Y101209
X1323Y1015
X1323Y10255
X13289Y1027
X13235Y1029
X13379Y1033
X13334Y10374
X132385Y104522
X1331Y10475
X133Y10595
X1335Y10685
X132416Y108072
X13365Y1087
X13265Y10875
X1342Y1099
X13315Y1099
X13265Y11045
X13365Y11045
M30
