*
*
G04 PADS Layout (Build Number 2008.43.1) generated Gerber (RS-274-X) file*
G04 PC Version=2.1*
*
%IN "TEX024_TMDSCNCD28335PGF"*%
*
%MOIN*%
*
%FSLAX35Y35*%
*
*
*
*
G04 PC Standard Apertures*
*
*
G04 Thermal Relief Aperture macro.*
%AMTER*
1,1,$1,0,0*
1,0,$1-$2,0,0*
21,0,$3,$4,0,0,45*
21,0,$3,$4,0,0,135*
%
*
*
G04 Annular Aperture macro.*
%AMANN*
1,1,$1,0,0*
1,0,$2,0,0*
%
*
*
G04 Odd Aperture macro.*
%AMODD*
1,1,$1,0,0*
1,0,$1-0.005,0,0*
%
*
*
G04 PC Custom Aperture Macros*
*
*
*
*
*
*
G04 PC Aperture Table*
*
%ADD027C,0.01*%
%ADD028C,0.005*%
%ADD033C,0.008*%
%ADD042C,0.006*%
%ADD060C,0*%
*
*
*
*
G04 PC Circuitry*
G04 Layer Name TEX024_TMDSCNCD28335PGF - circuitry*
%LPD*%
*
*
G04 PC Custom Flashes*
G04 Layer Name TEX024_TMDSCNCD28335PGF - flashes*
%LPD*%
*
*
G04 PC Circuitry*
G04 Layer Name TEX024_TMDSCNCD28335PGF - circuitry*
%LPD*%
*
G54D27*
G01X1030000Y1038500D02*
Y1051500D01*
X1050000*
Y1038500*
X1030000*
X1047500Y1082500D02*
Y1079000D01*
X1045000*
Y1076000*
X1047500*
Y1072500*
X1027500*
Y1082500*
X1047500*
Y1079000*
X1045000*
Y1076000*
X1047500*
Y1072500*
X1027500*
Y1082500*
X1047500*
X1293580Y664184D02*
Y654341D01*
X1297670*
X1303466Y664184D02*
X1300739Y654341D01*
X1303466Y664184D02*
X1306193Y654341D01*
X1301761Y657622D02*
X1305170D01*
X1309261Y664184D02*
X1311989Y659497D01*
Y654341*
X1314716Y664184D02*
X1311989Y659497D01*
X1317784Y664184D02*
Y654341D01*
Y664184D02*
X1322216D01*
X1317784Y659497D02*
X1320511D01*
X1317784Y654341D02*
X1322216D01*
X1325284Y664184D02*
Y654341D01*
Y664184D02*
X1328352D01*
X1329375Y663716*
X1329716Y663247*
X1330057Y662309*
Y661372*
X1329716Y660434*
X1329375Y659966*
X1328352Y659497*
X1325284*
X1327670D02*
X1330057Y654341D01*
X1035078Y707903D02*
Y698060D01*
Y707903D02*
X1038146D01*
X1039169Y707435*
X1039509Y706966*
X1039850Y706028*
Y704622*
X1039509Y703685*
X1039169Y703216*
X1038146Y702747*
X1035078*
X1042919Y707903D02*
Y698060D01*
X1047691Y707903D02*
Y698060D01*
X1042919Y703216D02*
X1047691D01*
X1052805Y707903D02*
X1052123Y707435D01*
X1051441Y706497*
X1051100Y705560*
X1050759Y704153*
Y701810*
X1051100Y700403*
X1051441Y699466*
X1052123Y698528*
X1052805Y698060*
X1054169*
X1054850Y698528*
X1055532Y699466*
X1055873Y700403*
X1056214Y701810*
Y704153*
X1055873Y705560*
X1055532Y706497*
X1054850Y707435*
X1054169Y707903*
X1052805*
X1059282D02*
Y698060D01*
Y707903D02*
X1064055Y698060D01*
Y707903D02*
Y698060D01*
X1067123Y707903D02*
Y698060D01*
Y707903D02*
X1071555D01*
X1067123Y703216D02*
X1069850D01*
X1067123Y698060D02*
X1071555D01*
X1074964Y704622D02*
X1074623Y704153D01*
X1074964Y703685*
X1075305Y704153*
X1074964Y704622*
Y698997D02*
X1074623Y698528D01*
X1074964Y698060*
X1075305Y698528*
X1074964Y698997*
X1090646Y707903D02*
X1087237D01*
X1086896Y703685*
X1087237Y704153*
X1088259Y704622*
X1089282*
X1090305Y704153*
X1090987Y703216*
X1091328Y701810*
X1090987Y700872*
X1090646Y699466*
X1089964Y698528*
X1088941Y698060*
X1087919*
X1086896Y698528*
X1086555Y698997*
X1086214Y699935*
X1096441Y707903D02*
X1095419Y707435D01*
X1094737Y706028*
X1094396Y703685*
Y702278*
X1094737Y699935*
X1095419Y698528*
X1096441Y698060*
X1097123*
X1098146Y698528*
X1098828Y699935*
X1099169Y702278*
Y703685*
X1098828Y706028*
X1098146Y707435*
X1097123Y707903*
X1096441*
X1103941D02*
X1102919Y707435D01*
X1102578Y706497*
Y705560*
X1102919Y704622*
X1103600Y704153*
X1104964Y703685*
X1105987Y703216*
X1106669Y702278*
X1107009Y701341*
Y699935*
X1106669Y698997*
X1106328Y698528*
X1105305Y698060*
X1103941*
X1102919Y698528*
X1102578Y698997*
X1102237Y699935*
Y701341*
X1102578Y702278*
X1103259Y703216*
X1104282Y703685*
X1105646Y704153*
X1106328Y704622*
X1106669Y705560*
Y706497*
X1106328Y707435*
X1105305Y707903*
X1103941*
X1110419Y698997D02*
X1110078Y698528D01*
X1110419Y698060*
X1110759Y698528*
X1110419Y698997*
X1118259Y704622D02*
X1117919Y703216D01*
X1117237Y702278*
X1116214Y701810*
X1115873*
X1114850Y702278*
X1114169Y703216*
X1113828Y704622*
Y705091*
X1114169Y706497*
X1114850Y707435*
X1115873Y707903*
X1116214*
X1117237Y707435*
X1117919Y706497*
X1118259Y704622*
Y702278*
X1117919Y699935*
X1117237Y698528*
X1116214Y698060*
X1115532*
X1114509Y698528*
X1114169Y699466*
X1124737Y707903D02*
X1121328Y701341D01*
X1126441*
X1124737Y707903D02*
Y698060D01*
X1134282Y707903D02*
X1130873Y698060D01*
X1129509Y707903D02*
X1134282D01*
X1137691Y698997D02*
X1137350Y698528D01*
X1137691Y698060*
X1138032Y698528*
X1137691Y698997*
X1141441Y705560D02*
Y706028D01*
X1141782Y706966*
X1142123Y707435*
X1142805Y707903*
X1144169*
X1144850Y707435*
X1145191Y706966*
X1145532Y706028*
Y705091*
X1145191Y704153*
X1144509Y702747*
X1141100Y698060*
X1145873*
X1153714Y707903D02*
X1150305Y698060D01*
X1148941Y707903D02*
X1153714D01*
X1158828D02*
X1157805Y707435D01*
X1157123Y706028*
X1156782Y703685*
Y702278*
X1157123Y699935*
X1157805Y698528*
X1158828Y698060*
X1159509*
X1160532Y698528*
X1161214Y699935*
X1161555Y702278*
Y703685*
X1161214Y706028*
X1160532Y707435*
X1159509Y707903*
X1158828*
X1169055Y704622D02*
X1168714Y703216D01*
X1168032Y702278*
X1167009Y701810*
X1166669*
X1165646Y702278*
X1164964Y703216*
X1164623Y704622*
Y705091*
X1164964Y706497*
X1165646Y707435*
X1166669Y707903*
X1167009*
X1168032Y707435*
X1168714Y706497*
X1169055Y704622*
Y702278*
X1168714Y699935*
X1168032Y698528*
X1167009Y698060*
X1166328*
X1165305Y698528*
X1164964Y699466*
X1032578Y726403D02*
Y716560D01*
Y726403D02*
X1035305Y716560D01*
X1038032Y726403D02*
X1035305Y716560D01*
X1038032Y726403D02*
Y716560D01*
X1041100Y726403D02*
X1041441Y725935D01*
X1041782Y726403*
X1041441Y726872*
X1041100Y726403*
X1041441Y723122D02*
Y716560D01*
X1048941Y726403D02*
Y716560D01*
Y721716D02*
X1048259Y722653D01*
X1047578Y723122*
X1046555*
X1045873Y722653*
X1045191Y721716*
X1044850Y720310*
Y719372*
X1045191Y717966*
X1045873Y717028*
X1046555Y716560*
X1047578*
X1048259Y717028*
X1048941Y717966*
X1056100Y726403D02*
Y716560D01*
Y721716D02*
X1055419Y722653D01*
X1054737Y723122*
X1053714*
X1053032Y722653*
X1052350Y721716*
X1052009Y720310*
Y719372*
X1052350Y717966*
X1053032Y717028*
X1053714Y716560*
X1054737*
X1055419Y717028*
X1056100Y717966*
X1059169Y726403D02*
Y716560D01*
X1062237Y720310D02*
X1066328D01*
Y721247*
X1065987Y722185*
X1065646Y722653*
X1064964Y723122*
X1063941*
X1063259Y722653*
X1062578Y721716*
X1062237Y720310*
Y719372*
X1062578Y717966*
X1063259Y717028*
X1063941Y716560*
X1064964*
X1065646Y717028*
X1066328Y717966*
X1069396Y726403D02*
Y716560D01*
Y721716D02*
X1070078Y722653D01*
X1070759Y723122*
X1071782*
X1072464Y722653*
X1073146Y721716*
X1073487Y720310*
Y719372*
X1073146Y717966*
X1072464Y717028*
X1071782Y716560*
X1070759*
X1070078Y717028*
X1069396Y717966*
X1078259Y723122D02*
X1077578Y722653D01*
X1076896Y721716*
X1076555Y720310*
Y719372*
X1076896Y717966*
X1077578Y717028*
X1078259Y716560*
X1079282*
X1079964Y717028*
X1080646Y717966*
X1080987Y719372*
Y720310*
X1080646Y721716*
X1079964Y722653*
X1079282Y723122*
X1078259*
X1084055D02*
Y716560D01*
Y720310D02*
X1084396Y721716D01*
X1085078Y722653*
X1085759Y723122*
X1086782*
X1091555D02*
X1090873Y722653D01*
X1090191Y721716*
X1089850Y720310*
Y719372*
X1090191Y717966*
X1090873Y717028*
X1091555Y716560*
X1092578*
X1093259Y717028*
X1093941Y717966*
X1094282Y719372*
Y720310*
X1093941Y721716*
X1093259Y722653*
X1092578Y723122*
X1091555*
X1098032Y717028D02*
X1097691Y716560D01*
X1097350Y717028*
X1097691Y717497*
X1098032Y717028*
Y716091*
X1097691Y715153*
X1097350Y714685*
X1108941Y726403D02*
Y716560D01*
Y726403D02*
X1111669Y716560D01*
X1114396Y726403D02*
X1111669Y716560D01*
X1114396Y726403D02*
Y716560D01*
X1120191Y726403D02*
X1117464Y716560D01*
X1120191Y726403D02*
X1122919Y716560D01*
X1118487Y719841D02*
X1121896D01*
X1135873Y726403D02*
X1134850Y725935D01*
X1134169Y724528*
X1133828Y722185*
Y720778*
X1134169Y718435*
X1134850Y717028*
X1135873Y716560*
X1136555*
X1137578Y717028*
X1138259Y718435*
X1138600Y720778*
Y722185*
X1138259Y724528*
X1137578Y725935*
X1136555Y726403*
X1135873*
X1142009Y724060D02*
Y724528D01*
X1142350Y725466*
X1142691Y725935*
X1143373Y726403*
X1144737*
X1145419Y725935*
X1145759Y725466*
X1146100Y724528*
Y723591*
X1145759Y722653*
X1145078Y721247*
X1141669Y716560*
X1146441*
X1150191Y726403D02*
X1153941D01*
X1151896Y722653*
X1152919*
X1153600Y722185*
X1153941Y721716*
X1154282Y720310*
Y719372*
X1153941Y717966*
X1153259Y717028*
X1152237Y716560*
X1151214*
X1150191Y717028*
X1149850Y717497*
X1149509Y718435*
X1160759Y726403D02*
X1157350Y719841D01*
X1162464*
X1160759Y726403D02*
Y716560D01*
X1169623Y724997D02*
X1169282Y725935D01*
X1168259Y726403*
X1167578*
X1166555Y725935*
X1165873Y724528*
X1165532Y722185*
Y719841*
X1165873Y717966*
X1166555Y717028*
X1167578Y716560*
X1167919*
X1168941Y717028*
X1169623Y717966*
X1169964Y719372*
Y719841*
X1169623Y721247*
X1168941Y722185*
X1167919Y722653*
X1167578*
X1166555Y722185*
X1165873Y721247*
X1165532Y719841*
X1041078Y743028D02*
X1041759Y743497D01*
X1042782Y744903*
Y735060*
X1045850Y743028D02*
X1046532Y743497D01*
X1047555Y744903*
Y735060*
X1052328Y744903D02*
X1051305Y744435D01*
X1050964Y743497*
Y742560*
X1051305Y741622*
X1051987Y741153*
X1053350Y740685*
X1054373Y740216*
X1055055Y739278*
X1055396Y738341*
Y736935*
X1055055Y735997*
X1054714Y735528*
X1053691Y735060*
X1052328*
X1051305Y735528*
X1050964Y735997*
X1050623Y736935*
Y738341*
X1050964Y739278*
X1051646Y740216*
X1052669Y740685*
X1054032Y741153*
X1054714Y741622*
X1055055Y742560*
Y743497*
X1054714Y744435*
X1053691Y744903*
X1052328*
X1062896D02*
X1059487D01*
X1059146Y740685*
X1059487Y741153*
X1060509Y741622*
X1061532*
X1062555Y741153*
X1063237Y740216*
X1063578Y738810*
X1063237Y737872*
X1062896Y736466*
X1062214Y735528*
X1061191Y735060*
X1060169*
X1059146Y735528*
X1058805Y735997*
X1058464Y736935*
X1079600Y742560D02*
X1079259Y743497D01*
X1078578Y744435*
X1077896Y744903*
X1076532*
X1075850Y744435*
X1075169Y743497*
X1074828Y742560*
X1074487Y741153*
Y738810*
X1074828Y737403*
X1075169Y736466*
X1075850Y735528*
X1076532Y735060*
X1077896*
X1078578Y735528*
X1079259Y736466*
X1079600Y737403*
X1082669Y738810D02*
X1086759D01*
Y739747*
X1086419Y740685*
X1086078Y741153*
X1085396Y741622*
X1084373*
X1083691Y741153*
X1083009Y740216*
X1082669Y738810*
Y737872*
X1083009Y736466*
X1083691Y735528*
X1084373Y735060*
X1085396*
X1086078Y735528*
X1086759Y736466*
X1089828Y741622D02*
Y735060D01*
Y739747D02*
X1090850Y741153D01*
X1091532Y741622*
X1092555*
X1093237Y741153*
X1093578Y739747*
Y735060*
X1097669Y744903D02*
Y736935D01*
X1098009Y735528*
X1098691Y735060*
X1099373*
X1096646Y741622D02*
X1099032D01*
X1102441D02*
Y735060D01*
Y738810D02*
X1102782Y740216D01*
X1103464Y741153*
X1104146Y741622*
X1105169*
X1108237Y738810D02*
X1112328D01*
Y739747*
X1111987Y740685*
X1111646Y741153*
X1110964Y741622*
X1109941*
X1109259Y741153*
X1108578Y740216*
X1108237Y738810*
Y737872*
X1108578Y736466*
X1109259Y735528*
X1109941Y735060*
X1110964*
X1111646Y735528*
X1112328Y736466*
X1128009Y743497D02*
X1127328Y744435D01*
X1126305Y744903*
X1124941*
X1123919Y744435*
X1123237Y743497*
Y742560*
X1123578Y741622*
X1123919Y741153*
X1124600Y740685*
X1126646Y739747*
X1127328Y739278*
X1127669Y738810*
X1128009Y737872*
Y736466*
X1127328Y735528*
X1126305Y735060*
X1124941*
X1123919Y735528*
X1123237Y736466*
X1132100Y744903D02*
Y736935D01*
X1132441Y735528*
X1133123Y735060*
X1133805*
X1131078Y741622D02*
X1133464D01*
X1136873D02*
Y735060D01*
Y738810D02*
X1137214Y740216D01*
X1137896Y741153*
X1138578Y741622*
X1139600*
X1142669Y738810D02*
X1146759D01*
Y739747*
X1146419Y740685*
X1146078Y741153*
X1145396Y741622*
X1144373*
X1143691Y741153*
X1143009Y740216*
X1142669Y738810*
Y737872*
X1143009Y736466*
X1143691Y735528*
X1144373Y735060*
X1145396*
X1146078Y735528*
X1146759Y736466*
X1149828Y738810D02*
X1153919D01*
Y739747*
X1153578Y740685*
X1153237Y741153*
X1152555Y741622*
X1151532*
X1150850Y741153*
X1150169Y740216*
X1149828Y738810*
Y737872*
X1150169Y736466*
X1150850Y735528*
X1151532Y735060*
X1152555*
X1153237Y735528*
X1153919Y736466*
X1158009Y744903D02*
Y736935D01*
X1158350Y735528*
X1159032Y735060*
X1159714*
X1156987Y741622D02*
X1159373D01*
X1167591Y666513D02*
X1163045Y657762D01*
X1163045D02*
X1169864D01*
X1167591Y666513D02*
Y653387D01*
X1182136Y669013D02*
X1173955Y649012D01*
X1186682Y663388D02*
Y664013D01*
X1186682D02*
X1187136Y665263D01*
X1187136D02*
X1187591Y665888D01*
X1187591D02*
X1188500Y666513D01*
X1188500D02*
X1190318D01*
X1190318D02*
X1191227Y665888D01*
X1191227D02*
X1191682Y665263D01*
X1191682D02*
X1192136Y664013D01*
X1192136D02*
Y662763D01*
X1192136D02*
X1191682Y661513D01*
X1191682D02*
X1190773Y659637D01*
X1190773D02*
X1186227Y653387D01*
X1186227D02*
X1192591D01*
X1197136Y663388D02*
Y664013D01*
X1197136D02*
X1197591Y665263D01*
X1197591D02*
X1198045Y665888D01*
X1198045D02*
X1198955Y666513D01*
X1198955D02*
X1200773D01*
X1200773D02*
X1201682Y665888D01*
X1201682D02*
X1202136Y665263D01*
X1202136D02*
X1202591Y664013D01*
X1202591D02*
Y662763D01*
X1202591D02*
X1202136Y661513D01*
X1202136D02*
X1201227Y659637D01*
X1201227D02*
X1196682Y653387D01*
X1196682D02*
X1203045D01*
X1215318Y669013D02*
X1207136Y649012D01*
X1219409Y664013D02*
X1220318Y664638D01*
X1220318D02*
X1221682Y666513D01*
X1221682D02*
Y653387D01*
X1228500Y666513D02*
X1227136Y665888D01*
X1227136D02*
X1226227Y664013D01*
X1226227D02*
X1225773Y660887D01*
X1225773D02*
Y659012D01*
X1225773D02*
X1226227Y655887D01*
X1226227D02*
X1227136Y654012D01*
X1227136D02*
X1228500Y653387D01*
X1228500D02*
X1229409D01*
X1229409D02*
X1230773Y654012D01*
X1230773D02*
X1231682Y655887D01*
X1231682D02*
X1232136Y659012D01*
X1232136D02*
Y660887D01*
X1232136D02*
X1231682Y664013D01*
X1231682D02*
X1230773Y665888D01*
X1230773D02*
X1229409Y666513D01*
X1229409D02*
X1228500D01*
X838909Y666344D02*
Y658844D01*
X838568Y657438*
X838568D02*
X838227Y656969D01*
X837545Y656500*
X836864*
X836182Y656969*
X835841Y657438*
X835841D02*
X835500Y658844D01*
Y659781*
X843682Y663063D02*
X843000Y662594D01*
X842318Y661656*
X841977Y660250*
Y659313*
X841977D02*
X842318Y657906D01*
X843000Y656969*
X843682Y656500*
X844705*
X845386Y656969*
X846068Y657906*
X846409Y659313*
X846409D02*
Y660250D01*
X846068Y661656*
X845386Y662594*
X844705Y663063*
X844705D02*
X843682D01*
X849477Y666344D02*
Y656500D01*
Y661656D02*
X850159Y662594D01*
X850841Y663063*
X850841D02*
X851864D01*
X851864D02*
X852545Y662594D01*
X853227Y661656*
X853568Y660250*
Y659313*
X853568D02*
X853227Y657906D01*
X852545Y656969*
X851864Y656500*
X850841*
X850159Y656969*
X849477Y657906*
X864477Y666344D02*
Y656500D01*
Y666344D02*
X869250Y656500D01*
Y666344D02*
Y656500D01*
X874023Y663063D02*
X873341Y662594D01*
X872659Y661656*
X872318Y660250*
Y659313*
X872318D02*
X872659Y657906D01*
X873341Y656969*
X874023Y656500*
X875045*
X875727Y656969*
X876409Y657906*
X876750Y659313*
X876750D02*
Y660250D01*
X876409Y661656*
X875727Y662594*
X875045Y663063*
X875045D02*
X874023D01*
X880159D02*
X879818Y662594D01*
X880159Y662125*
X880500Y662594*
X880159Y663063*
Y657438D02*
X879818Y656969D01*
X880159Y656500*
X880500Y656969*
X880159Y657438*
X1041000Y663544D02*
Y653700D01*
Y663544D02*
X1043386D01*
X1044409Y663075*
X1045091Y662138*
X1045091D02*
X1045432Y661200D01*
X1045773Y659794*
Y657450*
X1045432Y656044*
X1045091Y655106*
X1044409Y654169*
X1043386Y653700*
X1041000*
X1052932Y660263D02*
Y653700D01*
Y658856D02*
X1052250Y659794D01*
X1051568Y660263*
X1051568D02*
X1050545D01*
X1050545D02*
X1049864Y659794D01*
X1049182Y658856*
X1048841Y657450*
Y656513*
X1048841D02*
X1049182Y655106D01*
X1049864Y654169*
X1050545Y653700*
X1051568*
X1052250Y654169*
X1052932Y655106*
X1057023Y663544D02*
Y655575D01*
X1057364Y654169*
X1058045Y653700*
X1058727*
X1056000Y660263D02*
X1058386D01*
X1061795Y657450D02*
X1065886D01*
Y658388*
X1065886D02*
X1065545Y659325D01*
X1065205Y659794*
X1064523Y660263*
X1064523D02*
X1063500D01*
X1063500D02*
X1062818Y659794D01*
X1062136Y658856*
X1061795Y657450*
Y656513*
X1061795D02*
X1062136Y655106D01*
X1062818Y654169*
X1063500Y653700*
X1064523*
X1065205Y654169*
X1065886Y655106*
X1069295Y660263D02*
X1068955Y659794D01*
X1069295Y659325*
X1069636Y659794*
X1069295Y660263*
Y654638D02*
X1068955Y654169D01*
X1069295Y653700*
X1069636Y654169*
X1069295Y654638*
X841305Y763403D02*
X838578Y753560D01*
X841305Y763403D02*
X844032Y753560D01*
X839600Y756841D02*
X843009D01*
X847100Y760122D02*
Y753560D01*
Y757310D02*
X847441Y758716D01*
X848123Y759653*
X848805Y760122*
X849828*
X853919Y763403D02*
Y755435D01*
X854259Y754028*
X854941Y753560*
X855623*
X852896Y760122D02*
X855282D01*
X858691D02*
X860055Y753560D01*
X861419Y760122D02*
X860055Y753560D01*
X861419Y760122D02*
X862782Y753560D01*
X864146Y760122D02*
X862782Y753560D01*
X868919Y760122D02*
X868237Y759653D01*
X867555Y758716*
X867214Y757310*
Y756372*
X867555Y754966*
X868237Y754028*
X868919Y753560*
X869941*
X870623Y754028*
X871305Y754966*
X871646Y756372*
Y757310*
X871305Y758716*
X870623Y759653*
X869941Y760122*
X868919*
X874714D02*
Y753560D01*
Y757310D02*
X875055Y758716D01*
X875737Y759653*
X876419Y760122*
X877441*
X880509Y763403D02*
Y753560D01*
X883919Y760122D02*
X880509Y755435D01*
X881873Y757310D02*
X884259Y753560D01*
X895169Y763403D02*
Y753560D01*
Y763403D02*
X897555D01*
X898578Y762935*
X899259Y761997*
X899600Y761060*
X899941Y759653*
Y757310*
X899600Y755903*
X899259Y754966*
X898578Y754028*
X897555Y753560*
X895169*
X903009Y757310D02*
X907100D01*
Y758247*
X906759Y759185*
X906419Y759653*
X905737Y760122*
X904714*
X904032Y759653*
X903350Y758716*
X903009Y757310*
Y756372*
X903350Y754966*
X904032Y754028*
X904714Y753560*
X905737*
X906419Y754028*
X907100Y754966*
X913919Y758716D02*
X913578Y759653D01*
X912555Y760122*
X911532*
X910509Y759653*
X910169Y758716*
X910509Y757778*
X911191Y757310*
X912896Y756841*
X913578Y756372*
X913919Y755435*
Y754966*
X913578Y754028*
X912555Y753560*
X911532*
X910509Y754028*
X910169Y754966*
X916987Y763403D02*
X917328Y762935D01*
X917669Y763403*
X917328Y763872*
X916987Y763403*
X917328Y760122D02*
Y753560D01*
X924828Y760122D02*
Y752622D01*
X924487Y751216*
X924146Y750747*
X923464Y750278*
X922441*
X921759Y750747*
X924828Y758716D02*
X924146Y759653D01*
X923464Y760122*
X922441*
X921759Y759653*
X921078Y758716*
X920737Y757310*
Y756372*
X921078Y754966*
X921759Y754028*
X922441Y753560*
X923464*
X924146Y754028*
X924828Y754966*
X927896Y760122D02*
Y753560D01*
Y758247D02*
X928919Y759653D01*
X929600Y760122*
X930623*
X931305Y759653*
X931646Y758247*
Y753560*
X934714Y757310D02*
X938805D01*
Y758247*
X938464Y759185*
X938123Y759653*
X937441Y760122*
X936419*
X935737Y759653*
X935055Y758716*
X934714Y757310*
Y756372*
X935055Y754966*
X935737Y754028*
X936419Y753560*
X937441*
X938123Y754028*
X938805Y754966*
X945964Y763403D02*
Y753560D01*
Y758716D02*
X945282Y759653D01*
X944600Y760122*
X943578*
X942896Y759653*
X942214Y758716*
X941873Y757310*
Y756372*
X942214Y754966*
X942896Y754028*
X943578Y753560*
X944600*
X945282Y754028*
X945964Y754966*
X956873Y763403D02*
Y753560D01*
Y763403D02*
X959941D01*
X960964Y762935*
X961305Y762466*
X961646Y761528*
Y760591*
X961305Y759653*
X960964Y759185*
X959941Y758716*
X956873D02*
X959941D01*
X960964Y758247*
X961305Y757778*
X961646Y756841*
Y755435*
X961305Y754497*
X960964Y754028*
X959941Y753560*
X956873*
X965055Y760122D02*
X967100Y753560D01*
X969146Y760122D02*
X967100Y753560D01*
X966419Y751685*
X965737Y750747*
X965055Y750278*
X964714*
X972555Y760122D02*
X972214Y759653D01*
X972555Y759185*
X972896Y759653*
X972555Y760122*
Y754497D02*
X972214Y754028D01*
X972555Y753560*
X972896Y754028*
X972555Y754497*
X983805Y763403D02*
X985509Y753560D01*
X987214Y763403D02*
X985509Y753560D01*
X987214Y763403D02*
X988919Y753560D01*
X990623Y763403D02*
X988919Y753560D01*
X993691Y763403D02*
X994032Y762935D01*
X994373Y763403*
X994032Y763872*
X993691Y763403*
X994032Y760122D02*
Y753560D01*
X997441Y763403D02*
Y753560D01*
X1000509Y763403D02*
Y753560D01*
X1005282Y760122D02*
X1004600Y759653D01*
X1003919Y758716*
X1003578Y757310*
Y756372*
X1003919Y754966*
X1004600Y754028*
X1005282Y753560*
X1006305*
X1006987Y754028*
X1007669Y754966*
X1008009Y756372*
Y757310*
X1007669Y758716*
X1006987Y759653*
X1006305Y760122*
X1005282*
X1011078D02*
X1012441Y753560D01*
X1013805Y760122D02*
X1012441Y753560D01*
X1013805Y760122D02*
X1015169Y753560D01*
X1016532Y760122D02*
X1015169Y753560D01*
X1032214Y761997D02*
X1031532Y762935D01*
X1030509Y763403*
X1029146*
X1028123Y762935*
X1027441Y761997*
Y761060*
X1027782Y760122*
X1028123Y759653*
X1028805Y759185*
X1030850Y758247*
X1031532Y757778*
X1031873Y757310*
X1032214Y756372*
Y754966*
X1031532Y754028*
X1030509Y753560*
X1029146*
X1028123Y754028*
X1027441Y754966*
X1035282Y760122D02*
Y750278D01*
Y758716D02*
X1035964Y759653D01*
X1036646Y760122*
X1037669*
X1038350Y759653*
X1039032Y758716*
X1039373Y757310*
Y756372*
X1039032Y754966*
X1038350Y754028*
X1037669Y753560*
X1036646*
X1035964Y754028*
X1035282Y754966*
X1042441Y760122D02*
Y753560D01*
Y757310D02*
X1042782Y758716D01*
X1043464Y759653*
X1044146Y760122*
X1045169*
X1048237Y763403D02*
X1048578Y762935D01*
X1048919Y763403*
X1048578Y763872*
X1048237Y763403*
X1048578Y760122D02*
Y753560D01*
X1051987Y760122D02*
Y753560D01*
Y758247D02*
X1053009Y759653D01*
X1053691Y760122*
X1054714*
X1055396Y759653*
X1055737Y758247*
Y753560*
X1062896Y760122D02*
Y752622D01*
X1062555Y751216*
X1062214Y750747*
X1061532Y750278*
X1060509*
X1059828Y750747*
X1062896Y758716D02*
X1062214Y759653D01*
X1061532Y760122*
X1060509*
X1059828Y759653*
X1059146Y758716*
X1058805Y757310*
Y756372*
X1059146Y754966*
X1059828Y754028*
X1060509Y753560*
X1061532*
X1062214Y754028*
X1062896Y754966*
X1076191Y763403D02*
Y753560D01*
X1073805Y763403D02*
X1078578D01*
X1081646Y757310D02*
X1085737D01*
Y758247*
X1085396Y759185*
X1085055Y759653*
X1084373Y760122*
X1083350*
X1082669Y759653*
X1081987Y758716*
X1081646Y757310*
Y756372*
X1081987Y754966*
X1082669Y754028*
X1083350Y753560*
X1084373*
X1085055Y754028*
X1085737Y754966*
X1092896Y758716D02*
X1092214Y759653D01*
X1091532Y760122*
X1090509*
X1089828Y759653*
X1089146Y758716*
X1088805Y757310*
Y756372*
X1089146Y754966*
X1089828Y754028*
X1090509Y753560*
X1091532*
X1092214Y754028*
X1092896Y754966*
X1095964Y763403D02*
Y753560D01*
Y758247D02*
X1096987Y759653D01*
X1097669Y760122*
X1098691*
X1099373Y759653*
X1099714Y758247*
Y753560*
X1102782Y760122D02*
Y753560D01*
Y758247D02*
X1103805Y759653D01*
X1104487Y760122*
X1105509*
X1106191Y759653*
X1106532Y758247*
Y753560*
X1109600Y763403D02*
X1109941Y762935D01*
X1110282Y763403*
X1109941Y763872*
X1109600Y763403*
X1109941Y760122D02*
Y753560D01*
X1117441Y758716D02*
X1116759Y759653D01*
X1116078Y760122*
X1115055*
X1114373Y759653*
X1113691Y758716*
X1113350Y757310*
Y756372*
X1113691Y754966*
X1114373Y754028*
X1115055Y753560*
X1116078*
X1116759Y754028*
X1117441Y754966*
X1124600Y760122D02*
Y753560D01*
Y758716D02*
X1123919Y759653D01*
X1123237Y760122*
X1122214*
X1121532Y759653*
X1120850Y758716*
X1120509Y757310*
Y756372*
X1120850Y754966*
X1121532Y754028*
X1122214Y753560*
X1123237*
X1123919Y754028*
X1124600Y754966*
X1127669Y763403D02*
Y753560D01*
X1143350Y761997D02*
X1142669Y762935D01*
X1141646Y763403*
X1140282*
X1139259Y762935*
X1138578Y761997*
Y761060*
X1138919Y760122*
X1139259Y759653*
X1139941Y759185*
X1141987Y758247*
X1142669Y757778*
X1143009Y757310*
X1143350Y756372*
Y754966*
X1142669Y754028*
X1141646Y753560*
X1140282*
X1139259Y754028*
X1138578Y754966*
X1146419Y757310D02*
X1150509D01*
Y758247*
X1150169Y759185*
X1149828Y759653*
X1149146Y760122*
X1148123*
X1147441Y759653*
X1146759Y758716*
X1146419Y757310*
Y756372*
X1146759Y754966*
X1147441Y754028*
X1148123Y753560*
X1149146*
X1149828Y754028*
X1150509Y754966*
X1153578Y760122D02*
Y753560D01*
Y757310D02*
X1153919Y758716D01*
X1154600Y759653*
X1155282Y760122*
X1156305*
X1159373D02*
X1161419Y753560D01*
X1163464Y760122D02*
X1161419Y753560D01*
X1166532Y763403D02*
X1166873Y762935D01*
X1167214Y763403*
X1166873Y763872*
X1166532Y763403*
X1166873Y760122D02*
Y753560D01*
X1174373Y758716D02*
X1173691Y759653D01*
X1173009Y760122*
X1171987*
X1171305Y759653*
X1170623Y758716*
X1170282Y757310*
Y756372*
X1170623Y754966*
X1171305Y754028*
X1171987Y753560*
X1173009*
X1173691Y754028*
X1174373Y754966*
X1177441Y757310D02*
X1181532D01*
Y758247*
X1181191Y759185*
X1180850Y759653*
X1180169Y760122*
X1179146*
X1178464Y759653*
X1177782Y758716*
X1177441Y757310*
Y756372*
X1177782Y754966*
X1178464Y754028*
X1179146Y753560*
X1180169*
X1180850Y754028*
X1181532Y754966*
X1188350Y758716D02*
X1188009Y759653D01*
X1186987Y760122*
X1185964*
X1184941Y759653*
X1184600Y758716*
X1184941Y757778*
X1185623Y757310*
X1187328Y756841*
X1188009Y756372*
X1188350Y755435*
Y754966*
X1188009Y754028*
X1186987Y753560*
X1185964*
X1184941Y754028*
X1184600Y754966*
X1204373Y761060D02*
X1204032Y761997D01*
X1203350Y762935*
X1202669Y763403*
X1201305*
X1200623Y762935*
X1199941Y761997*
X1199600Y761060*
X1199259Y759653*
Y757310*
X1199600Y755903*
X1199941Y754966*
X1200623Y754028*
X1201305Y753560*
X1202669*
X1203350Y754028*
X1204032Y754966*
X1204373Y755903*
X1209146Y760122D02*
X1208464Y759653D01*
X1207782Y758716*
X1207441Y757310*
Y756372*
X1207782Y754966*
X1208464Y754028*
X1209146Y753560*
X1210169*
X1210850Y754028*
X1211532Y754966*
X1211873Y756372*
Y757310*
X1211532Y758716*
X1210850Y759653*
X1210169Y760122*
X1209146*
X1214941D02*
Y753560D01*
Y757310D02*
X1215282Y758716D01*
X1215964Y759653*
X1216646Y760122*
X1217669*
X1220737D02*
Y750278D01*
Y758716D02*
X1221419Y759653D01*
X1222100Y760122*
X1223123*
X1223805Y759653*
X1224487Y758716*
X1224828Y757310*
Y756372*
X1224487Y754966*
X1223805Y754028*
X1223123Y753560*
X1222100*
X1221419Y754028*
X1220737Y754966*
X1228237Y754497D02*
X1227896Y754028D01*
X1228237Y753560*
X1228578Y754028*
X1228237Y754497*
X906455Y665513D02*
Y652387D01*
X903273Y665513D02*
X909636D01*
X913727D02*
Y652387D01*
Y665513D02*
X919636D01*
X913727Y659262D02*
X917364D01*
X913727Y652387D02*
X919636D01*
X923727Y665513D02*
X930091Y652387D01*
Y665513D02*
X923727Y652387D01*
X934636Y653637D02*
X934182Y653012D01*
X934182D02*
X934636Y652387D01*
X934636D02*
X935091Y653012D01*
X935091D02*
X934636Y653637D01*
X941909Y665513D02*
X940545Y664888D01*
X940545D02*
X939636Y663013D01*
X939636D02*
X939182Y659887D01*
X939182D02*
Y658012D01*
X939182D02*
X939636Y654887D01*
X939636D02*
X940545Y653012D01*
X940545D02*
X941909Y652387D01*
X941909D02*
X942818D01*
X942818D02*
X944182Y653012D01*
X944182D02*
X945091Y654887D01*
X945091D02*
X945545Y658012D01*
X945545D02*
Y659887D01*
X945545D02*
X945091Y663013D01*
X945091D02*
X944182Y664888D01*
X944182D02*
X942818Y665513D01*
X942818D02*
X941909D01*
X950091Y662388D02*
Y663013D01*
X950091D02*
X950545Y664263D01*
X950545D02*
X951000Y664888D01*
X951000D02*
X951909Y665513D01*
X951909D02*
X953727D01*
X953727D02*
X954636Y664888D01*
X954636D02*
X955091Y664263D01*
X955091D02*
X955545Y663013D01*
X955545D02*
Y661763D01*
X955545D02*
X955091Y660513D01*
X955091D02*
X954182Y658637D01*
X954182D02*
X949636Y652387D01*
X949636D02*
X956000D01*
X964636Y665513D02*
X960091Y656762D01*
X960091D02*
X966909D01*
X964636Y665513D02*
Y652387D01*
X1260727Y835044D02*
X1258000Y825200D01*
X1260727Y835044D02*
X1263455Y825200D01*
X1259023Y828481D02*
X1262432D01*
X1266523Y831763D02*
Y825200D01*
Y828950D02*
X1266864Y830356D01*
X1267545Y831294*
X1268227Y831763*
X1268227D02*
X1269250D01*
X1273341Y835044D02*
Y827075D01*
X1273682Y825669*
X1274364Y825200*
X1275045*
X1272318Y831763D02*
X1274705D01*
X1278114D02*
X1279477Y825200D01*
X1280841Y831763D02*
X1279477Y825200D01*
X1280841Y831763D02*
X1282205Y825200D01*
X1283568Y831763D02*
X1282205Y825200D01*
X1288341Y831763D02*
X1287659Y831294D01*
X1286977Y830356*
X1286636Y828950*
Y828013*
X1286636D02*
X1286977Y826606D01*
X1287659Y825669*
X1288341Y825200*
X1289364*
X1290045Y825669*
X1290727Y826606*
X1291068Y828013*
X1291068D02*
Y828950D01*
X1290727Y830356*
X1290045Y831294*
X1289364Y831763*
X1289364D02*
X1288341D01*
X1294136D02*
Y825200D01*
Y828950D02*
X1294477Y830356D01*
X1295159Y831294*
X1295841Y831763*
X1295841D02*
X1296864D01*
X1299932Y835044D02*
Y825200D01*
X1303341Y831763D02*
X1299932Y827075D01*
X1301295Y828950D02*
X1303682Y825200D01*
X1314591Y835044D02*
Y825200D01*
Y835044D02*
X1316977D01*
X1318000Y834575*
X1318682Y833638*
X1318682D02*
X1319023Y832700D01*
X1319364Y831294*
Y828950*
X1319023Y827544*
X1318682Y826606*
X1318000Y825669*
X1316977Y825200*
X1314591*
X1322432Y828950D02*
X1326523D01*
Y829888*
X1326523D02*
X1326182Y830825D01*
X1325841Y831294*
X1325159Y831763*
X1325159D02*
X1324136D01*
X1324136D02*
X1323455Y831294D01*
X1322773Y830356*
X1322432Y828950*
Y828013*
X1322432D02*
X1322773Y826606D01*
X1323455Y825669*
X1324136Y825200*
X1325159*
X1325841Y825669*
X1326523Y826606*
X1333341Y830356D02*
X1333000Y831294D01*
X1331977Y831763*
X1331977D02*
X1330955D01*
X1330955D02*
X1329932Y831294D01*
X1329591Y830356*
X1329932Y829419*
X1330614Y828950*
X1332318Y828481*
X1333000Y828013*
X1333000D02*
X1333341Y827075D01*
Y826606*
X1333000Y825669*
X1331977Y825200*
X1330955*
X1329932Y825669*
X1329591Y826606*
X1336409Y835044D02*
X1336750Y834575D01*
X1337091Y835044*
X1336750Y835513*
X1336750D02*
X1336409Y835044D01*
X1336750Y831763D02*
Y825200D01*
X1344250Y831763D02*
Y824262D01*
X1344250D02*
X1343909Y822856D01*
X1343568Y822387*
X1343568D02*
X1342886Y821919D01*
X1341864*
X1341182Y822387*
X1344250Y830356D02*
X1343568Y831294D01*
X1342886Y831763*
X1342886D02*
X1341864D01*
X1341864D02*
X1341182Y831294D01*
X1340500Y830356*
X1340159Y828950*
Y828013*
X1340159D02*
X1340500Y826606D01*
X1341182Y825669*
X1341864Y825200*
X1342886*
X1343568Y825669*
X1344250Y826606*
X1347318Y831763D02*
Y825200D01*
Y829888D02*
X1348341Y831294D01*
X1349023Y831763*
X1349023D02*
X1350045D01*
X1350045D02*
X1350727Y831294D01*
X1351068Y829888*
X1351068D02*
Y825200D01*
X1354136Y828950D02*
X1358227D01*
Y829888*
X1358227D02*
X1357886Y830825D01*
X1357545Y831294*
X1356864Y831763*
X1356864D02*
X1355841D01*
X1355841D02*
X1355159Y831294D01*
X1354477Y830356*
X1354136Y828950*
Y828013*
X1354136D02*
X1354477Y826606D01*
X1355159Y825669*
X1355841Y825200*
X1356864*
X1357545Y825669*
X1358227Y826606*
X1365386Y835044D02*
Y825200D01*
Y830356D02*
X1364705Y831294D01*
X1364023Y831763*
X1364023D02*
X1363000D01*
X1363000D02*
X1362318Y831294D01*
X1361636Y830356*
X1361295Y828950*
Y828013*
X1361295D02*
X1361636Y826606D01*
X1362318Y825669*
X1363000Y825200*
X1364023*
X1364705Y825669*
X1365386Y826606*
X1376295Y835044D02*
Y825200D01*
Y835044D02*
X1380727D01*
X1376295Y830356D02*
X1379023D01*
X1385500Y831763D02*
X1384818Y831294D01*
X1384136Y830356*
X1383795Y828950*
Y828013*
X1383795D02*
X1384136Y826606D01*
X1384818Y825669*
X1385500Y825200*
X1386523*
X1387205Y825669*
X1387886Y826606*
X1388227Y828013*
X1388227D02*
Y828950D01*
X1387886Y830356*
X1387205Y831294*
X1386523Y831763*
X1386523D02*
X1385500D01*
X1391295D02*
Y825200D01*
Y828950D02*
X1391636Y830356D01*
X1392318Y831294*
X1393000Y831763*
X1393000D02*
X1394023D01*
X1397432D02*
X1397091Y831294D01*
X1397432Y830825*
X1397773Y831294*
X1397432Y831763*
Y826138D02*
X1397091Y825669D01*
X1397432Y825200*
X1397773Y825669*
X1397432Y826138*
X1258000Y780044D02*
Y770200D01*
Y780044D02*
X1261068D01*
X1262091Y779575*
X1262432Y779106*
X1262773Y778169*
Y777231*
X1262432Y776294*
X1262091Y775825*
X1261068Y775356*
X1258000D02*
X1261068D01*
X1262091Y774888*
X1262091D02*
X1262432Y774419D01*
X1262773Y773481*
Y772075*
X1262432Y771138*
X1262432D02*
X1262091Y770669D01*
X1261068Y770200*
X1258000*
X1267545Y776763D02*
X1266864Y776294D01*
X1266182Y775356*
X1265841Y773950*
Y773013*
X1265841D02*
X1266182Y771606D01*
X1266864Y770669*
X1267545Y770200*
X1268568*
X1269250Y770669*
X1269932Y771606*
X1270273Y773013*
X1270273D02*
Y773950D01*
X1269932Y775356*
X1269250Y776294*
X1268568Y776763*
X1268568D02*
X1267545D01*
X1277432D02*
Y770200D01*
Y775356D02*
X1276750Y776294D01*
X1276068Y776763*
X1276068D02*
X1275045D01*
X1275045D02*
X1274364Y776294D01*
X1273682Y775356*
X1273341Y773950*
Y773013*
X1273341D02*
X1273682Y771606D01*
X1274364Y770669*
X1275045Y770200*
X1276068*
X1276750Y770669*
X1277432Y771606*
X1280500Y776763D02*
Y770200D01*
Y773950D02*
X1280841Y775356D01*
X1281523Y776294*
X1282205Y776763*
X1282205D02*
X1283227D01*
X1290386Y780044D02*
Y770200D01*
Y775356D02*
X1289705Y776294D01*
X1289023Y776763*
X1289023D02*
X1288000D01*
X1288000D02*
X1287318Y776294D01*
X1286636Y775356*
X1286295Y773950*
Y773013*
X1286295D02*
X1286636Y771606D01*
X1287318Y770669*
X1288000Y770200*
X1289023*
X1289705Y770669*
X1290386Y771606*
X1301295Y780044D02*
Y770200D01*
Y780044D02*
X1303682D01*
X1304705Y779575*
X1305386Y778638*
X1305386D02*
X1305727Y777700D01*
X1306068Y776294*
Y773950*
X1305727Y772544*
X1305386Y771606*
X1304705Y770669*
X1303682Y770200*
X1301295*
X1309136Y773950D02*
X1313227D01*
Y774888*
X1313227D02*
X1312886Y775825D01*
X1312545Y776294*
X1311864Y776763*
X1311864D02*
X1310841D01*
X1310841D02*
X1310159Y776294D01*
X1309477Y775356*
X1309136Y773950*
Y773013*
X1309136D02*
X1309477Y771606D01*
X1310159Y770669*
X1310841Y770200*
X1311864*
X1312545Y770669*
X1313227Y771606*
X1320045Y775356D02*
X1319705Y776294D01*
X1318682Y776763*
X1318682D02*
X1317659D01*
X1317659D02*
X1316636Y776294D01*
X1316295Y775356*
X1316636Y774419*
X1317318Y773950*
X1319023Y773481*
X1319705Y773013*
X1319705D02*
X1320045Y772075D01*
Y771606*
X1319705Y770669*
X1318682Y770200*
X1317659*
X1316636Y770669*
X1316295Y771606*
X1327205Y775356D02*
X1326523Y776294D01*
X1325841Y776763*
X1325841D02*
X1324818D01*
X1324818D02*
X1324136Y776294D01*
X1323455Y775356*
X1323114Y773950*
Y773013*
X1323114D02*
X1323455Y771606D01*
X1324136Y770669*
X1324818Y770200*
X1325841*
X1326523Y770669*
X1327205Y771606*
X1330273Y776763D02*
Y770200D01*
Y773950D02*
X1330614Y775356D01*
X1331295Y776294*
X1331977Y776763*
X1331977D02*
X1333000D01*
X1336068Y780044D02*
X1336409Y779575D01*
X1336750Y780044*
X1336409Y780513*
X1336409D02*
X1336068Y780044D01*
X1336409Y776763D02*
Y770200D01*
X1339818Y776763D02*
Y766919D01*
Y775356D02*
X1340500Y776294D01*
X1341182Y776763*
X1341182D02*
X1342205D01*
X1342205D02*
X1342886Y776294D01*
X1343568Y775356*
X1343909Y773950*
Y773013*
X1343909D02*
X1343568Y771606D01*
X1342886Y770669*
X1342205Y770200*
X1341182*
X1340500Y770669*
X1339818Y771606*
X1348000Y780044D02*
Y772075D01*
X1348341Y770669*
X1349023Y770200*
X1349705*
X1346977Y776763D02*
X1349364D01*
X1352773Y780044D02*
X1353114Y779575D01*
X1353455Y780044*
X1353114Y780513*
X1353114D02*
X1352773Y780044D01*
X1353114Y776763D02*
Y770200D01*
X1358227Y776763D02*
X1357545Y776294D01*
X1356864Y775356*
X1356523Y773950*
Y773013*
X1356523D02*
X1356864Y771606D01*
X1357545Y770669*
X1358227Y770200*
X1359250*
X1359932Y770669*
X1360614Y771606*
X1360955Y773013*
X1360955D02*
Y773950D01*
X1360614Y775356*
X1359932Y776294*
X1359250Y776763*
X1359250D02*
X1358227D01*
X1364023D02*
Y770200D01*
Y774888D02*
X1365045Y776294D01*
X1365727Y776763*
X1365727D02*
X1366750D01*
X1366750D02*
X1367432Y776294D01*
X1367773Y774888*
X1367773D02*
Y770200D01*
X1371182Y776763D02*
X1370841Y776294D01*
X1371182Y775825*
X1371523Y776294*
X1371182Y776763*
Y771138D02*
X1370841Y770669D01*
X1371182Y770200*
X1371523Y770669*
X1371182Y771138*
X1258000Y710044D02*
Y700200D01*
Y710044D02*
X1261068D01*
X1262091Y709575*
X1262432Y709106*
X1262773Y708169*
Y706763*
X1262773D02*
X1262432Y705825D01*
X1262091Y705356*
X1261068Y704888*
X1261068D02*
X1258000D01*
X1269932Y706763D02*
Y700200D01*
Y705356D02*
X1269250Y706294D01*
X1268568Y706763*
X1268568D02*
X1267545D01*
X1267545D02*
X1266864Y706294D01*
X1266182Y705356*
X1265841Y703950*
Y703013*
X1265841D02*
X1266182Y701606D01*
X1266864Y700669*
X1267545Y700200*
X1268568*
X1269250Y700669*
X1269932Y701606*
X1273000Y706763D02*
Y700200D01*
Y703950D02*
X1273341Y705356D01*
X1274023Y706294*
X1274705Y706763*
X1274705D02*
X1275727D01*
X1279818Y710044D02*
Y702075D01*
X1280159Y700669*
X1280841Y700200*
X1281523*
X1278795Y706763D02*
X1281182D01*
X1292432Y710044D02*
Y700200D01*
Y710044D02*
X1297205Y700200D01*
Y710044D02*
Y700200D01*
X1301977Y706763D02*
X1301295Y706294D01*
X1300614Y705356*
X1300273Y703950*
Y703013*
X1300273D02*
X1300614Y701606D01*
X1301295Y700669*
X1301977Y700200*
X1303000*
X1303682Y700669*
X1304364Y701606*
X1304705Y703013*
X1304705D02*
Y703950D01*
X1304364Y705356*
X1303682Y706294*
X1303000Y706763*
X1303000D02*
X1301977D01*
X1308114D02*
X1307773Y706294D01*
X1308114Y705825*
X1308455Y706294*
X1308114Y706763*
Y701138D02*
X1307773Y700669D01*
X1308114Y700200*
X1308455Y700669*
X1308114Y701138*
X1558000Y710044D02*
Y700200D01*
Y710044D02*
X1561068D01*
X1562091Y709575*
X1562432Y709106*
X1562773Y708169*
Y707231*
X1562432Y706294*
X1562091Y705825*
X1561068Y705356*
X1558000*
X1560386D02*
X1562773Y700200D01*
X1565841Y703950D02*
X1569932D01*
Y704888*
X1569932D02*
X1569591Y705825D01*
X1569250Y706294*
X1568568Y706763*
X1568568D02*
X1567545D01*
X1567545D02*
X1566864Y706294D01*
X1566182Y705356*
X1565841Y703950*
Y703013*
X1565841D02*
X1566182Y701606D01*
X1566864Y700669*
X1567545Y700200*
X1568568*
X1569250Y700669*
X1569932Y701606*
X1573000Y706763D02*
X1575045Y700200D01*
X1577091Y706763D02*
X1575045Y700200D01*
X1580159Y710044D02*
X1580500Y709575D01*
X1580841Y710044*
X1580500Y710513*
X1580500D02*
X1580159Y710044D01*
X1580500Y706763D02*
Y700200D01*
X1587659Y705356D02*
X1587318Y706294D01*
X1586295Y706763*
X1586295D02*
X1585273D01*
X1585273D02*
X1584250Y706294D01*
X1583909Y705356*
X1584250Y704419*
X1584932Y703950*
X1586636Y703481*
X1587318Y703013*
X1587318D02*
X1587659Y702075D01*
Y701606*
X1587318Y700669*
X1586295Y700200*
X1585273*
X1584250Y700669*
X1583909Y701606*
X1590727Y710044D02*
X1591068Y709575D01*
X1591409Y710044*
X1591068Y710513*
X1591068D02*
X1590727Y710044D01*
X1591068Y706763D02*
Y700200D01*
X1596182Y706763D02*
X1595500Y706294D01*
X1594818Y705356*
X1594477Y703950*
Y703013*
X1594477D02*
X1594818Y701606D01*
X1595500Y700669*
X1596182Y700200*
X1597205*
X1597886Y700669*
X1598568Y701606*
X1598909Y703013*
X1598909D02*
Y703950D01*
X1598568Y705356*
X1597886Y706294*
X1597205Y706763*
X1597205D02*
X1596182D01*
X1601977D02*
Y700200D01*
Y704888D02*
X1603000Y706294D01*
X1603682Y706763*
X1603682D02*
X1604705D01*
X1604705D02*
X1605386Y706294D01*
X1605727Y704888*
X1605727D02*
Y700200D01*
X1609136Y706763D02*
X1608795Y706294D01*
X1609136Y705825*
X1609477Y706294*
X1609136Y706763*
Y701138D02*
X1608795Y700669D01*
X1609136Y700200*
X1609477Y700669*
X1609136Y701138*
X1356182Y698325D02*
Y685200D01*
X1353000Y698325D02*
X1359364D01*
X1363455D02*
Y685200D01*
Y698325D02*
X1367091Y685200D01*
X1370727Y698325D02*
X1367091Y685200D01*
X1370727Y698325D02*
Y685200D01*
X1374818Y698325D02*
Y685200D01*
Y698325D02*
X1378000D01*
X1379364Y697700*
X1380273Y696450*
X1380727Y695200*
X1381182Y693325*
Y690200*
X1380727Y688325*
X1380273Y687075*
X1379364Y685825*
X1378000Y685200*
X1374818*
X1391636Y696450D02*
X1390727Y697700D01*
X1389364Y698325*
X1387545*
X1386182Y697700*
X1385273Y696450*
Y695200*
X1385727Y693950*
X1386182Y693325*
X1387091Y692700*
X1389818Y691450*
X1390727Y690825*
X1391182Y690200*
X1391636Y688950*
Y687075*
X1390727Y685825*
X1389364Y685200*
X1387545*
X1386182Y685825*
X1385273Y687075*
X1402545Y695200D02*
X1402091Y696450D01*
X1401182Y697700*
X1400273Y698325*
X1398455*
X1397545Y697700*
X1396636Y696450*
X1396182Y695200*
X1395727Y693325*
Y690200*
X1396182Y688325*
X1396636Y687075*
X1397545Y685825*
X1398455Y685200*
X1400273*
X1401182Y685825*
X1402091Y687075*
X1402545Y688325*
X1406636Y698325D02*
Y685200D01*
Y698325D02*
X1413000Y685200D01*
Y698325D02*
Y685200D01*
X1423909Y695200D02*
X1423455Y696450D01*
X1422545Y697700*
X1421636Y698325*
X1419818*
X1418909Y697700*
X1418000Y696450*
X1417545Y695200*
X1417091Y693325*
Y690200*
X1417545Y688325*
X1418000Y687075*
X1418909Y685825*
X1419818Y685200*
X1421636*
X1422545Y685825*
X1423455Y687075*
X1423909Y688325*
X1428000Y698325D02*
Y685200D01*
Y698325D02*
X1431182D01*
X1432545Y697700*
X1433455Y696450*
X1433909Y695200*
X1434364Y693325*
Y690200*
X1433909Y688325*
X1433455Y687075*
X1432545Y685825*
X1431182Y685200*
X1428000*
X1438909Y695200D02*
Y695825D01*
X1439364Y697075*
X1439818Y697700*
X1440727Y698325*
X1442545*
X1443455Y697700*
X1443909Y697075*
X1444364Y695825*
Y694575*
X1443909Y693325*
X1443000Y691450*
X1438455Y685200*
X1444818*
X1451182Y698325D02*
X1449818Y697700D01*
X1449364Y696450*
Y695200*
X1449818Y693950*
X1450727Y693325*
X1452545Y692700*
X1453909Y692075*
X1454818Y690825*
X1455273Y689575*
Y687700*
X1454818Y686450*
X1454364Y685825*
X1453000Y685200*
X1451182*
X1449818Y685825*
X1449364Y686450*
X1448909Y687700*
Y689575*
X1449364Y690825*
X1450273Y692075*
X1451636Y692700*
X1453455Y693325*
X1454364Y693950*
X1454818Y695200*
Y696450*
X1454364Y697700*
X1453000Y698325*
X1451182*
X1460273D02*
X1465273D01*
X1462545Y693325*
X1463909*
X1464818Y692700*
X1465273Y692075*
X1465727Y690200*
Y688950*
X1465273Y687075*
X1464364Y685825*
X1463000Y685200*
X1461636*
X1460273Y685825*
X1459818Y686450*
X1459364Y687700*
X1470727Y698325D02*
X1475727D01*
X1473000Y693325*
X1474364*
X1475273Y692700*
X1475727Y692075*
X1476182Y690200*
Y688950*
X1475727Y687075*
X1474818Y685825*
X1473455Y685200*
X1472091*
X1470727Y685825*
X1470273Y686450*
X1469818Y687700*
X1486182Y698325D02*
X1481636D01*
X1481182Y692700*
X1481636Y693325*
X1483000Y693950*
X1484364*
X1485727Y693325*
X1486636Y692075*
X1487091Y690200*
X1486636Y688950*
X1486182Y687075*
X1485273Y685825*
X1483909Y685200*
X1482545*
X1481182Y685825*
X1480727Y686450*
X1480273Y687700*
X1491182Y698325D02*
Y685200D01*
Y698325D02*
X1495273D01*
X1496636Y697700*
X1497091Y697075*
X1497545Y695825*
Y693950*
X1497091Y692700*
X1496636Y692075*
X1495273Y691450*
X1491182*
X1508455Y695200D02*
X1508000Y696450D01*
X1507091Y697700*
X1506182Y698325*
X1504364*
X1503455Y697700*
X1502545Y696450*
X1502091Y695200*
X1501636Y693325*
Y690200*
X1502091Y688325*
X1502545Y687075*
X1503455Y685825*
X1504364Y685200*
X1506182*
X1507091Y685825*
X1508000Y687075*
X1508455Y688325*
Y690200*
X1506182D02*
X1508455D01*
X1512545Y698325D02*
Y685200D01*
Y698325D02*
X1518455D01*
X1512545Y692075D02*
X1516182D01*
X1629727Y699813D02*
X1630636Y700438D01*
X1630636D02*
X1632000Y702313D01*
X1632000D02*
Y689187D01*
X1636545Y690437D02*
X1636091Y689812D01*
X1636091D02*
X1636545Y689187D01*
X1636545D02*
X1637000Y689812D01*
X1637000D02*
X1636545Y690437D01*
X1643818Y702313D02*
X1642455Y701688D01*
X1642455D02*
X1641545Y699813D01*
X1641545D02*
X1641091Y696687D01*
X1641091D02*
Y694812D01*
X1641091D02*
X1641545Y691687D01*
X1641545D02*
X1642455Y689812D01*
X1642455D02*
X1643818Y689187D01*
X1643818D02*
X1644727D01*
X1644727D02*
X1646091Y689812D01*
X1646091D02*
X1647000Y691687D01*
X1647000D02*
X1647455Y694812D01*
X1647455D02*
Y696687D01*
X1647455D02*
X1647000Y699813D01*
X1647000D02*
X1646091Y701688D01*
X1646091D02*
X1644727Y702313D01*
X1644727D02*
X1643818D01*
X1399545Y810513D02*
Y797387D01*
X1396364Y810513D02*
X1402727D01*
X1406818Y802387D02*
X1412273D01*
X1412273D02*
Y803637D01*
X1412273D02*
X1411818Y804887D01*
X1411818D02*
X1411364Y805513D01*
X1411364D02*
X1410455Y806138D01*
X1410455D02*
X1409091D01*
X1409091D02*
X1408182Y805513D01*
X1408182D02*
X1407273Y804262D01*
X1407273D02*
X1406818Y802387D01*
X1406818D02*
Y801137D01*
X1406818D02*
X1407273Y799262D01*
X1407273D02*
X1408182Y798012D01*
X1408182D02*
X1409091Y797387D01*
X1409091D02*
X1410455D01*
X1410455D02*
X1411364Y798012D01*
X1411364D02*
X1412273Y799262D01*
X1416364Y806138D02*
X1421364Y797387D01*
Y806138D02*
X1416364Y797387D01*
X1430909Y806138D02*
Y797387D01*
Y804262D02*
X1430000Y805513D01*
X1430000D02*
X1429091Y806138D01*
X1429091D02*
X1427727D01*
X1427727D02*
X1426818Y805513D01*
X1426818D02*
X1425909Y804262D01*
X1425909D02*
X1425455Y802387D01*
X1425455D02*
Y801137D01*
X1425455D02*
X1425909Y799262D01*
X1425909D02*
X1426818Y798012D01*
X1426818D02*
X1427727Y797387D01*
X1427727D02*
X1429091D01*
X1429091D02*
X1430000Y798012D01*
X1430000D02*
X1430909Y799262D01*
X1440000Y804262D02*
X1439545Y805513D01*
X1439545D02*
X1438182Y806138D01*
X1438182D02*
X1436818D01*
X1436818D02*
X1435455Y805513D01*
X1435455D02*
X1435000Y804262D01*
X1435000D02*
X1435455Y803012D01*
X1435455D02*
X1436364Y802387D01*
X1436364D02*
X1438636Y801762D01*
X1438636D02*
X1439545Y801137D01*
X1439545D02*
X1440000Y799887D01*
X1440000D02*
Y799262D01*
X1440000D02*
X1439545Y798012D01*
X1439545D02*
X1438182Y797387D01*
X1438182D02*
X1436818D01*
X1436818D02*
X1435455Y798012D01*
X1435455D02*
X1435000Y799262D01*
X1454545Y810513D02*
Y797387D01*
X1458636Y806138D02*
Y797387D01*
Y803637D02*
X1460000Y805513D01*
X1460000D02*
X1460909Y806138D01*
X1460909D02*
X1462273D01*
X1462273D02*
X1463182Y805513D01*
X1463182D02*
X1463636Y803637D01*
X1463636D02*
Y797387D01*
X1472727Y804262D02*
X1472273Y805513D01*
X1472273D02*
X1470909Y806138D01*
X1470909D02*
X1469545D01*
X1469545D02*
X1468182Y805513D01*
X1468182D02*
X1467727Y804262D01*
X1467727D02*
X1468182Y803012D01*
X1468182D02*
X1469091Y802387D01*
X1469091D02*
X1471364Y801762D01*
X1471364D02*
X1472273Y801137D01*
X1472273D02*
X1472727Y799887D01*
X1472727D02*
Y799262D01*
X1472727D02*
X1472273Y798012D01*
X1472273D02*
X1470909Y797387D01*
X1470909D02*
X1469545D01*
X1469545D02*
X1468182Y798012D01*
X1468182D02*
X1467727Y799262D01*
X1478182Y810513D02*
Y799887D01*
X1478182D02*
X1478636Y798012D01*
X1478636D02*
X1479545Y797387D01*
X1479545D02*
X1480455D01*
X1476818Y806138D02*
X1480000D01*
X1484545D02*
Y797387D01*
Y802387D02*
X1485000Y804262D01*
X1485000D02*
X1485909Y805513D01*
X1485909D02*
X1486818Y806138D01*
X1486818D02*
X1488182D01*
X1492273D02*
Y799887D01*
X1492273D02*
X1492727Y798012D01*
X1492727D02*
X1493636Y797387D01*
X1493636D02*
X1495000D01*
X1495000D02*
X1495909Y798012D01*
X1495909D02*
X1497273Y799887D01*
Y806138D02*
Y797387D01*
X1501364Y806138D02*
Y797387D01*
Y803637D02*
X1502727Y805513D01*
X1502727D02*
X1503636Y806138D01*
X1503636D02*
X1505000D01*
X1505000D02*
X1505909Y805513D01*
X1505909D02*
X1506364Y803637D01*
X1506364D02*
Y797387D01*
Y803637D02*
X1507727Y805513D01*
X1507727D02*
X1508636Y806138D01*
X1508636D02*
X1510000D01*
X1510000D02*
X1510909Y805513D01*
X1510909D02*
X1511364Y803637D01*
X1511364D02*
Y797387D01*
X1515455Y802387D02*
X1520909D01*
X1520909D02*
Y803637D01*
X1520909D02*
X1520455Y804887D01*
X1520455D02*
X1520000Y805513D01*
X1520000D02*
X1519091Y806138D01*
X1519091D02*
X1517727D01*
X1517727D02*
X1516818Y805513D01*
X1516818D02*
X1515909Y804262D01*
X1515909D02*
X1515455Y802387D01*
X1515455D02*
Y801137D01*
X1515455D02*
X1515909Y799262D01*
X1515909D02*
X1516818Y798012D01*
X1516818D02*
X1517727Y797387D01*
X1517727D02*
X1519091D01*
X1519091D02*
X1520000Y798012D01*
X1520000D02*
X1520909Y799262D01*
X1525000Y806138D02*
Y797387D01*
Y803637D02*
X1526364Y805513D01*
X1526364D02*
X1527273Y806138D01*
X1527273D02*
X1528636D01*
X1528636D02*
X1529545Y805513D01*
X1529545D02*
X1530000Y803637D01*
X1530000D02*
Y797387D01*
X1535455Y810513D02*
Y799887D01*
X1535455D02*
X1535909Y798012D01*
X1535909D02*
X1536818Y797387D01*
X1536818D02*
X1537727D01*
X1534091Y806138D02*
X1537273D01*
X1546818Y804262D02*
X1546364Y805513D01*
X1546364D02*
X1545000Y806138D01*
X1545000D02*
X1543636D01*
X1543636D02*
X1542273Y805513D01*
X1542273D02*
X1541818Y804262D01*
X1541818D02*
X1542273Y803012D01*
X1542273D02*
X1543182Y802387D01*
X1543182D02*
X1545455Y801762D01*
X1545455D02*
X1546364Y801137D01*
X1546364D02*
X1546818Y799887D01*
X1546818D02*
Y799262D01*
X1546818D02*
X1546364Y798012D01*
X1546364D02*
X1545000Y797387D01*
X1545000D02*
X1543636D01*
X1543636D02*
X1542273Y798012D01*
X1542273D02*
X1541818Y799262D01*
X1360032Y749372D02*
Y736247D01*
Y749372D02*
X1365941D01*
X1360032Y743122D02*
X1363669D01*
X1370487Y746247D02*
Y746872D01*
X1370941Y748122*
X1371396Y748747*
X1372305Y749372*
X1374123*
X1375032Y748747*
X1375487Y748122*
X1375941Y746872*
Y745622*
X1375487Y744372*
X1374578Y742497*
X1370032Y736247*
X1376396*
X1382759Y749372D02*
X1381396Y748747D01*
X1380941Y747497*
Y746247*
X1381396Y744997*
X1382305Y744372*
X1384123Y743747*
X1385487Y743122*
X1386396Y741872*
X1386850Y740622*
Y738747*
X1386396Y737497*
X1385941Y736872*
X1384578Y736247*
X1382759*
X1381396Y736872*
X1380941Y737497*
X1380487Y738747*
Y740622*
X1380941Y741872*
X1381850Y743122*
X1383214Y743747*
X1385032Y744372*
X1385941Y744997*
X1386396Y746247*
Y747497*
X1385941Y748747*
X1384578Y749372*
X1382759*
X1391850D02*
X1396850D01*
X1394123Y744372*
X1395487*
X1396396Y743747*
X1396850Y743122*
X1397305Y741247*
Y739997*
X1396850Y738122*
X1395941Y736872*
X1394578Y736247*
X1393214*
X1391850Y736872*
X1391396Y737497*
X1390941Y738747*
X1402305Y749372D02*
X1407305D01*
X1404578Y744372*
X1405941*
X1406850Y743747*
X1407305Y743122*
X1407759Y741247*
Y739997*
X1407305Y738122*
X1406396Y736872*
X1405032Y736247*
X1403669*
X1402305Y736872*
X1401850Y737497*
X1401396Y738747*
X1417759Y749372D02*
X1413214D01*
X1412759Y743747*
X1413214Y744372*
X1414578Y744997*
X1415941*
X1417305Y744372*
X1418214Y743122*
X1418669Y741247*
X1418214Y739997*
X1417759Y738122*
X1416850Y736872*
X1415487Y736247*
X1414123*
X1412759Y736872*
X1412305Y737497*
X1411850Y738747*
X1433214Y749372D02*
Y736247D01*
Y749372D02*
X1437305D01*
X1438669Y748747*
X1439123Y748122*
X1439578Y746872*
Y744997*
X1439123Y743747*
X1438669Y743122*
X1437305Y742497*
X1433214*
X1450487Y746247D02*
X1450032Y747497D01*
X1449123Y748747*
X1448214Y749372*
X1446396*
X1445487Y748747*
X1444578Y747497*
X1444123Y746247*
X1443669Y744372*
Y741247*
X1444123Y739372*
X1444578Y738122*
X1445487Y736872*
X1446396Y736247*
X1448214*
X1449123Y736872*
X1450032Y738122*
X1450487Y739372*
Y741247*
X1448214D02*
X1450487D01*
X1454578Y749372D02*
Y736247D01*
Y749372D02*
X1460487D01*
X1454578Y743122D02*
X1458214D01*
X1480487D02*
X1479578Y744372D01*
X1478669Y744997*
X1477305*
X1476396Y744372*
X1475487Y743122*
X1475032Y741247*
Y739997*
X1475487Y738122*
X1476396Y736872*
X1477305Y736247*
X1478669*
X1479578Y736872*
X1480487Y738122*
X1486850Y744997D02*
X1485941Y744372D01*
X1485032Y743122*
X1484578Y741247*
Y739997*
X1485032Y738122*
X1485941Y736872*
X1486850Y736247*
X1488214*
X1489123Y736872*
X1490032Y738122*
X1490487Y739997*
Y741247*
X1490032Y743122*
X1489123Y744372*
X1488214Y744997*
X1486850*
X1494578D02*
Y736247D01*
Y742497D02*
X1495941Y744372D01*
X1496850Y744997*
X1498214*
X1499123Y744372*
X1499578Y742497*
Y736247*
X1505032Y749372D02*
Y738747D01*
X1505487Y736872*
X1506396Y736247*
X1507305*
X1503669Y744997D02*
X1506850D01*
X1511396D02*
Y736247D01*
Y741247D02*
X1511850Y743122D01*
X1512759Y744372*
X1513669Y744997*
X1515032*
X1521396D02*
X1520487Y744372D01*
X1519578Y743122*
X1519123Y741247*
Y739997*
X1519578Y738122*
X1520487Y736872*
X1521396Y736247*
X1522759*
X1523669Y736872*
X1524578Y738122*
X1525032Y739997*
Y741247*
X1524578Y743122*
X1523669Y744372*
X1522759Y744997*
X1521396*
X1529123Y749372D02*
Y736247D01*
X1540032Y746247D02*
X1539578Y747497D01*
X1538669Y748747*
X1537759Y749372*
X1535941*
X1535032Y748747*
X1534123Y747497*
X1533669Y746247*
X1533214Y744372*
Y741247*
X1533669Y739372*
X1534123Y738122*
X1535032Y736872*
X1535941Y736247*
X1537759*
X1538669Y736872*
X1539578Y738122*
X1540032Y739372*
X1547759Y749372D02*
X1544123Y736247D01*
X1547759Y749372D02*
X1551396Y736247D01*
X1545487Y740622D02*
X1550032D01*
X1555487Y749372D02*
Y736247D01*
Y749372D02*
X1559578D01*
X1560941Y748747*
X1561396Y748122*
X1561850Y746872*
Y745622*
X1561396Y744372*
X1560941Y743747*
X1559578Y743122*
X1555487*
X1558669D02*
X1561850Y736247D01*
X1565941Y749372D02*
Y736247D01*
Y749372D02*
X1569123D01*
X1570487Y748747*
X1571396Y747497*
X1571850Y746247*
X1572305Y744372*
Y741247*
X1571850Y739372*
X1571396Y738122*
X1570487Y736872*
X1569123Y736247*
X1565941*
X1474159Y663984D02*
Y654141D01*
Y663984D02*
X1477227D01*
X1478250Y663516*
X1478591Y663047*
X1478932Y662109*
Y660703*
X1478591Y659766*
X1478250Y659297*
X1477227Y658828*
X1474159*
X1482000Y660703D02*
Y654141D01*
Y657891D02*
X1482341Y659297D01*
X1483023Y660234*
X1483705Y660703*
X1484727*
X1487795Y663984D02*
X1488136Y663516D01*
X1488477Y663984*
X1488136Y664453*
X1487795Y663984*
X1488136Y660703D02*
Y654141D01*
X1491545Y660703D02*
Y654141D01*
Y658828D02*
X1492568Y660234D01*
X1493250Y660703*
X1494273*
X1494955Y660234*
X1495295Y658828*
Y654141*
Y658828D02*
X1496318Y660234D01*
X1497000Y660703*
X1498023*
X1498705Y660234*
X1499045Y658828*
Y654141*
X1506205Y660703D02*
Y654141D01*
Y659297D02*
X1505523Y660234D01*
X1504841Y660703*
X1503818*
X1503136Y660234*
X1502455Y659297*
X1502114Y657891*
Y656953*
X1502455Y655547*
X1503136Y654609*
X1503818Y654141*
X1504841*
X1505523Y654609*
X1506205Y655547*
X1509273Y660703D02*
Y654141D01*
Y657891D02*
X1509614Y659297D01*
X1510295Y660234*
X1510977Y660703*
X1512000*
X1515409D02*
X1517455Y654141D01*
X1519500Y660703D02*
X1517455Y654141D01*
X1516773Y652266*
X1516091Y651328*
X1515409Y650859*
X1515068*
X1535182Y662578D02*
X1534500Y663516D01*
X1533477Y663984*
X1532114*
X1531091Y663516*
X1530409Y662578*
Y661641*
X1530750Y660703*
X1531091Y660234*
X1531773Y659766*
X1533818Y658828*
X1534500Y658359*
X1534841Y657891*
X1535182Y656953*
Y655547*
X1534500Y654609*
X1533477Y654141*
X1532114*
X1531091Y654609*
X1530409Y655547*
X1538250Y663984D02*
X1538591Y663516D01*
X1538932Y663984*
X1538591Y664453*
X1538250Y663984*
X1538591Y660703D02*
Y654141D01*
X1546091Y663984D02*
Y654141D01*
Y659297D02*
X1545409Y660234D01*
X1544727Y660703*
X1543705*
X1543023Y660234*
X1542341Y659297*
X1542000Y657891*
Y656953*
X1542341Y655547*
X1543023Y654609*
X1543705Y654141*
X1544727*
X1545409Y654609*
X1546091Y655547*
X1549159Y657891D02*
X1553250D01*
Y658828*
X1552909Y659766*
X1552568Y660234*
X1551886Y660703*
X1550864*
X1550182Y660234*
X1549500Y659297*
X1549159Y657891*
Y656953*
X1549500Y655547*
X1550182Y654609*
X1550864Y654141*
X1551886*
X1552568Y654609*
X1553250Y655547*
X1568932Y662578D02*
X1568250Y663516D01*
X1567227Y663984*
X1565864*
X1564841Y663516*
X1564159Y662578*
Y661641*
X1564500Y660703*
X1564841Y660234*
X1565523Y659766*
X1567568Y658828*
X1568250Y658359*
X1568591Y657891*
X1568932Y656953*
Y655547*
X1568250Y654609*
X1567227Y654141*
X1565864*
X1564841Y654609*
X1564159Y655547*
X1572000Y663984D02*
X1572341Y663516D01*
X1572682Y663984*
X1572341Y664453*
X1572000Y663984*
X1572341Y660703D02*
Y654141D01*
X1575750Y663984D02*
Y654141D01*
X1578818Y663984D02*
Y654141D01*
X1582227Y660703D02*
X1578818Y656016D01*
X1580182Y657891D02*
X1582568Y654141D01*
X1589386Y659297D02*
X1589045Y660234D01*
X1588023Y660703*
X1587000*
X1585977Y660234*
X1585636Y659297*
X1585977Y658359*
X1586659Y657891*
X1588364Y657422*
X1589045Y656953*
X1589386Y656016*
Y655547*
X1589045Y654609*
X1588023Y654141*
X1587000*
X1585977Y654609*
X1585636Y655547*
X1596545Y659297D02*
X1595864Y660234D01*
X1595182Y660703*
X1594159*
X1593477Y660234*
X1592795Y659297*
X1592455Y657891*
Y656953*
X1592795Y655547*
X1593477Y654609*
X1594159Y654141*
X1595182*
X1595864Y654609*
X1596545Y655547*
X1599614Y660703D02*
Y654141D01*
Y657891D02*
X1599955Y659297D01*
X1600636Y660234*
X1601318Y660703*
X1602341*
X1605409Y657891D02*
X1609500D01*
Y658828*
X1609159Y659766*
X1608818Y660234*
X1608136Y660703*
X1607114*
X1606432Y660234*
X1605750Y659297*
X1605409Y657891*
Y656953*
X1605750Y655547*
X1606432Y654609*
X1607114Y654141*
X1608136*
X1608818Y654609*
X1609500Y655547*
X1612568Y657891D02*
X1616659D01*
Y658828*
X1616318Y659766*
X1615977Y660234*
X1615295Y660703*
X1614273*
X1613591Y660234*
X1612909Y659297*
X1612568Y657891*
Y656953*
X1612909Y655547*
X1613591Y654609*
X1614273Y654141*
X1615295*
X1615977Y654609*
X1616659Y655547*
X1619727Y660703D02*
Y654141D01*
Y658828D02*
X1620750Y660234D01*
X1621432Y660703*
X1622455*
X1623136Y660234*
X1623477Y658828*
Y654141*
G54D28*
X1301862Y1067126D02*
X1317862D01*
Y1051126*
X1301862*
Y1067126*
X1317362Y1052126D02*
G75*
G03X1317362I-500J0D01*
G01X1095182Y1096281D02*
X1094955Y1096125D01*
X1094727Y1095813*
X1094727D02*
X1094614Y1095500D01*
X1094500Y1095031*
Y1094250*
X1094614Y1093781*
X1094727Y1093469*
X1094955Y1093156*
X1095182Y1093000*
X1095636*
X1095864Y1093156*
X1096091Y1093469*
X1096205Y1093781*
X1096318Y1094250*
Y1095031*
X1096205Y1095500*
X1096091Y1095813*
X1096091D02*
X1095864Y1096125D01*
X1095636Y1096281*
X1095182*
X1097341D02*
Y1093000D01*
Y1096281D02*
X1098932Y1093000D01*
Y1096281D02*
Y1093000D01*
X1061654Y1050795D02*
X1061341Y1050681D01*
X1061029Y1050454*
X1060872Y1050227*
Y1049772*
X1061029Y1049545*
X1061341Y1049318*
X1061654Y1049204*
X1062122Y1049091*
X1062904*
X1063372Y1049204*
X1063685Y1049318*
X1063997Y1049545*
X1064154Y1049772*
Y1050227*
X1063997Y1050454*
X1063685Y1050681*
X1063372Y1050795*
X1060872Y1052954D02*
X1063060Y1051818D01*
Y1053522*
X1060872Y1052954D02*
X1064154D01*
X1061497Y1054545D02*
X1061341Y1054772D01*
X1060872Y1055113*
X1064154*
X1034457Y1096531D02*
X1034343Y1096844D01*
X1034116Y1097156*
X1033888Y1097313*
X1033434*
X1033207Y1097156*
X1032979Y1096844*
X1032866Y1096531*
X1032752Y1096063*
Y1095281*
X1032866Y1094813*
X1032979Y1094500*
X1033207Y1094188*
X1033434Y1094031*
X1033888*
X1034116Y1094188*
X1034343Y1094500*
X1034457Y1094813*
X1036616Y1097313D02*
X1035479Y1095125D01*
X1037184*
X1036616Y1097313D02*
Y1094031D01*
X1038888Y1097313D02*
X1038547Y1097156D01*
X1038320Y1096688*
X1038207Y1095906*
Y1095438*
X1038320Y1094656*
X1038547Y1094188*
X1038888Y1094031*
X1039116*
X1039457Y1094188*
X1039684Y1094656*
X1039797Y1095438*
Y1095906*
X1039684Y1096688*
X1039457Y1097156*
X1039116Y1097313*
X1038888*
X1054500Y1050205D02*
X1054187Y1050091D01*
X1054187D02*
X1053875Y1049864D01*
X1053719Y1049636*
Y1049182*
X1053875Y1048955*
X1054187Y1048727*
X1054187D02*
X1054500Y1048614D01*
X1054969Y1048500*
X1055750*
X1056219Y1048614*
X1056531Y1048727*
X1056844Y1048955*
X1057000Y1049182*
Y1049636*
X1056844Y1049864*
X1056531Y1050091*
X1056219Y1050205*
X1053719Y1052364D02*
X1055906Y1051227D01*
Y1052932*
X1053719Y1052364D02*
X1057000D01*
X1054500Y1054068D02*
X1054344D01*
X1054031Y1054182*
X1053875Y1054295*
X1053719Y1054523*
Y1054977*
X1053875Y1055205*
X1054031Y1055318*
X1054344Y1055432*
X1054656*
X1054969Y1055318*
X1055437Y1055091*
X1055437D02*
X1057000Y1053955D01*
Y1055545*
X1016000Y1034205D02*
X1015688Y1034091D01*
X1015688D02*
X1015375Y1033864D01*
X1015219Y1033636*
Y1033182*
X1015375Y1032955*
X1015688Y1032727*
X1015688D02*
X1016000Y1032614D01*
X1016469Y1032500*
X1017250*
X1017719Y1032614*
X1018031Y1032727*
X1018344Y1032955*
X1018500Y1033182*
Y1033636*
X1018344Y1033864*
X1018031Y1034091*
X1017719Y1034205*
X1015219Y1036364D02*
X1017406Y1035227D01*
Y1036932*
X1015219Y1036364D02*
X1018500D01*
X1015219Y1038182D02*
Y1039432D01*
X1016469Y1038750*
Y1039091*
X1016625Y1039318*
X1016781Y1039432*
X1017250Y1039545*
X1017563*
X1017563D02*
X1018031Y1039432D01*
X1018344Y1039205*
X1018500Y1038864*
Y1038523*
X1018344Y1038182*
X1018188Y1038068*
X1018188D02*
X1017875Y1037955D01*
X1057358Y1023591D02*
X1057244Y1023903D01*
X1057017Y1024216*
X1056790Y1024372*
X1056335*
X1056108Y1024216*
X1055881Y1023903*
X1055767Y1023591*
X1055654Y1023122*
Y1022341*
X1055767Y1021872*
X1055881Y1021559*
X1056108Y1021247*
X1056335Y1021091*
X1056790*
X1057017Y1021247*
X1057244Y1021559*
X1057358Y1021872*
X1059517Y1024372D02*
X1058381Y1022184D01*
X1060085*
X1059517Y1024372D02*
Y1021091D01*
X1062585Y1024372D02*
X1061449D01*
X1061335Y1022966*
X1061449Y1023122*
X1061790Y1023278*
X1062131*
X1062472Y1023122*
X1062699Y1022809*
X1062813Y1022341*
X1062699Y1022028*
X1062585Y1021559*
X1062358Y1021247*
X1062017Y1021091*
X1061676*
X1061335Y1021247*
X1061222Y1021403*
X1061108Y1021716*
X1060500Y1035705D02*
X1060187Y1035591D01*
X1060187D02*
X1059875Y1035364D01*
X1059719Y1035136*
Y1034682*
X1059875Y1034455*
X1060187Y1034227*
X1060187D02*
X1060500Y1034114D01*
X1060969Y1034000*
X1061750*
X1062219Y1034114*
X1062531Y1034227*
X1062844Y1034455*
X1063000Y1034682*
Y1035136*
X1062844Y1035364*
X1062531Y1035591*
X1062219Y1035705*
X1059719Y1037864D02*
X1061906Y1036727D01*
Y1038432*
X1059719Y1037864D02*
X1063000D01*
X1060187Y1040818D02*
X1059875Y1040705D01*
X1059719Y1040364*
Y1040136*
X1059875Y1039795*
X1060344Y1039568*
X1061125Y1039455*
X1061906*
X1062531Y1039568*
X1062844Y1039795*
X1063000Y1040136*
Y1040250*
X1062844Y1040591*
X1062531Y1040818*
X1062062Y1040932*
X1062062D02*
X1061906D01*
X1061437Y1040818*
X1061437D02*
X1061125Y1040591D01*
X1060969Y1040250*
Y1040136*
X1061125Y1039795*
X1061437Y1039568*
X1061437D02*
X1061906Y1039455D01*
X1019858Y1023091D02*
X1019744Y1023403D01*
X1019517Y1023716*
X1019290Y1023872*
X1018835*
X1018608Y1023716*
X1018381Y1023403*
X1018267Y1023091*
X1018154Y1022622*
Y1021841*
X1018267Y1021372*
X1018381Y1021059*
X1018608Y1020747*
X1018835Y1020591*
X1019290*
X1019517Y1020747*
X1019744Y1021059*
X1019858Y1021372*
X1022017Y1023872D02*
X1020881Y1021684D01*
X1022585*
X1022017Y1023872D02*
Y1020591D01*
X1024744Y1023872D02*
X1023608Y1021684D01*
X1025313*
X1024744Y1023872D02*
Y1020591D01*
X1060672Y1078125D02*
X1063953D01*
X1060672D02*
Y1079148D01*
X1060828Y1079489*
X1060984Y1079602*
X1061297Y1079716*
X1061609*
X1061922Y1079602*
X1062078Y1079489*
X1062234Y1079148*
Y1078125*
Y1078920D02*
X1063953Y1079716D01*
X1061297Y1080739D02*
X1061141Y1080966D01*
X1060672Y1081307*
X1063953*
X1060672Y1082557D02*
Y1083807D01*
X1061922Y1083125*
Y1083466*
X1062078Y1083693*
X1062234Y1083807*
X1062703Y1083920*
X1063016*
X1063484Y1083807*
X1063797Y1083580*
X1063953Y1083239*
Y1082898*
X1063797Y1082557*
X1063641Y1082443*
X1063328Y1082330*
X1071719Y1025717D02*
X1075000D01*
X1071719D02*
Y1026739D01*
X1071875Y1027080*
X1072032Y1027194*
X1072344Y1027307*
X1072657*
X1072969Y1027194*
X1073125Y1027080*
X1073282Y1026739*
Y1025717*
Y1026512D02*
X1075000Y1027307D01*
X1071719Y1028330D02*
X1075000D01*
X1071719D02*
X1075000Y1029921D01*
X1071719D02*
X1075000D01*
X1072344Y1030944D02*
X1072188Y1031171D01*
X1071719Y1031512*
X1075000*
X1098065Y1024717D02*
X1101346D01*
X1098065D02*
Y1025739D01*
X1098221Y1026080*
X1098378Y1026194*
X1098690Y1026307*
X1099003*
X1099315Y1026194*
X1099471Y1026080*
X1099628Y1025739*
Y1024717*
Y1025512D02*
X1101346Y1026307D01*
X1098065Y1027330D02*
X1101346D01*
X1098065D02*
X1101346Y1028921D01*
X1098065D02*
X1101346D01*
X1098846Y1030057D02*
X1098690D01*
X1098378Y1030171*
X1098221Y1030285*
X1098065Y1030512*
Y1030967*
X1098221Y1031194*
X1098378Y1031307*
X1098690Y1031421*
X1099003*
X1099315Y1031307*
X1099784Y1031080*
X1101346Y1029944*
Y1031535*
X1070187Y1088591D02*
X1069875Y1088364D01*
X1069719Y1088023*
Y1087568*
X1069875Y1087227*
X1070187Y1087000*
X1070187D02*
X1070500D01*
X1070812Y1087114*
X1070812D02*
X1070969Y1087227D01*
X1071125Y1087455*
X1071437Y1088136*
X1071437D02*
X1071594Y1088364D01*
X1071750Y1088477*
X1072062Y1088591*
X1072062D02*
X1072531D01*
X1072844Y1088364*
X1073000Y1088023*
Y1087568*
X1072844Y1087227*
X1072531Y1087000*
X1069719Y1089614D02*
X1073000Y1090182D01*
X1069719Y1090750D02*
X1073000Y1090182D01*
X1069719Y1090750D02*
X1073000Y1091318D01*
X1069719Y1091886D02*
X1073000Y1091318D01*
X1070344Y1092909D02*
X1070187Y1093136D01*
X1070187D02*
X1069719Y1093477D01*
X1073000*
X1022364Y1051328D02*
Y1048984D01*
X1022477Y1048516*
X1022705Y1048203*
X1023045Y1048047*
X1023273*
X1023614Y1048203*
X1023841Y1048516*
X1023955Y1048984*
Y1051328*
X1026455D02*
X1025318D01*
X1025205Y1049922*
X1025318Y1050078*
X1025659Y1050234*
X1026000*
X1026341Y1050078*
X1026568Y1049766*
X1026682Y1049297*
X1026568Y1048984*
X1026455Y1048516*
X1026227Y1048203*
X1025886Y1048047*
X1025545*
X1025205Y1048203*
X1025091Y1048359*
X1024977Y1048672*
X1048364Y1092328D02*
Y1089984D01*
X1048477Y1089516*
X1048705Y1089203*
X1049045Y1089047*
X1049273*
X1049614Y1089203*
X1049841Y1089516*
X1049955Y1089984*
Y1092328*
X1052114D02*
X1050977Y1090141D01*
X1052682*
X1052114Y1092328D02*
Y1089047D01*
X1299420Y1089328D02*
Y1086984D01*
X1299534Y1086516*
X1299761Y1086203*
X1300102Y1086047*
X1300330*
X1300670Y1086203*
X1300898Y1086516*
X1301011Y1086984*
Y1089328*
X1302261D02*
X1303511D01*
X1302830Y1088078*
X1303170*
X1303398Y1087922*
X1303511Y1087766*
X1303625Y1087297*
Y1086984*
X1303511Y1086516*
X1303284Y1086203*
X1302943Y1086047*
X1302602*
X1302261Y1086203*
X1302148Y1086359*
X1302034Y1086672*
X1324297Y1080780D02*
X1327579D01*
Y1082143*
X1324297Y1083166D02*
X1327579D01*
X1324297D02*
Y1083961D01*
X1324454Y1084302*
X1324766Y1084530*
X1325079Y1084643*
X1325547Y1084757*
X1326329*
X1326797Y1084643*
X1327110Y1084530*
X1327422Y1084302*
X1327579Y1083961*
Y1083166*
X1325079Y1085893D02*
X1324922D01*
X1324610Y1086007*
X1324454Y1086120*
X1324297Y1086348*
Y1086802*
X1324454Y1087030*
X1324610Y1087143*
X1324922Y1087257*
X1325235*
X1325547Y1087143*
X1326016Y1086916*
X1327579Y1085780*
Y1087370*
X1334140Y1080780D02*
X1337421D01*
Y1082143*
X1334140Y1083166D02*
X1337421D01*
X1334140D02*
Y1083961D01*
X1334296Y1084302*
X1334609Y1084530*
X1334921Y1084643*
X1335390Y1084757*
X1336171*
X1336640Y1084643*
X1336953Y1084530*
X1337265Y1084302*
X1337421Y1083961*
Y1083166*
X1334140Y1086007D02*
Y1087257D01*
X1335390Y1086575*
Y1086916*
X1335546Y1087143*
X1335703Y1087257*
X1336171Y1087370*
X1336484*
X1336953Y1087257*
X1337265Y1087030*
X1337421Y1086689*
Y1086348*
X1337265Y1086007*
X1337109Y1085893*
X1336796Y1085780*
X1081705Y1115000D02*
X1081591Y1115313D01*
X1081591D02*
X1081364Y1115625D01*
X1081136Y1115781*
X1080682*
X1080455Y1115625*
X1080227Y1115313*
X1080227D02*
X1080114Y1115000D01*
X1080000Y1114531*
Y1113750*
X1080114Y1113281*
X1080227Y1112969*
X1080455Y1112656*
X1080682Y1112500*
X1081136*
X1081364Y1112656*
X1081591Y1112969*
X1081705Y1113281*
X1082841Y1115000D02*
Y1115156D01*
X1082955Y1115469*
X1083068Y1115625*
X1083295Y1115781*
X1083750*
X1083977Y1115625*
X1084091Y1115469*
X1084205Y1115156*
Y1114844*
X1084091Y1114531*
X1083864Y1114063*
X1083864D02*
X1082727Y1112500D01*
X1084318*
X1086818Y1114688D02*
X1086705Y1114219D01*
X1086477Y1113906*
X1086136Y1113750*
X1086023*
X1085682Y1113906*
X1085455Y1114219*
X1085341Y1114688*
X1085341D02*
Y1114844D01*
X1085455Y1115313*
X1085455D02*
X1085682Y1115625D01*
X1086023Y1115781*
X1086136*
X1086477Y1115625*
X1086705Y1115313*
X1086705D02*
X1086818Y1114688D01*
X1086818D02*
Y1113906D01*
X1086705Y1113125*
X1086477Y1112656*
X1086136Y1112500*
X1085909*
X1085568Y1112656*
X1085455Y1112969*
X1271705Y1092500D02*
X1271591Y1092813D01*
X1271591D02*
X1271364Y1093125D01*
X1271136Y1093281*
X1270682*
X1270455Y1093125*
X1270227Y1092813*
X1270227D02*
X1270114Y1092500D01*
X1270000Y1092031*
Y1091250*
X1270114Y1090781*
X1270227Y1090469*
X1270455Y1090156*
X1270682Y1090000*
X1271136*
X1271364Y1090156*
X1271591Y1090469*
X1271705Y1090781*
X1272841Y1092500D02*
Y1092656D01*
X1272955Y1092969*
X1273068Y1093125*
X1273295Y1093281*
X1273750*
X1273977Y1093125*
X1274091Y1092969*
X1274205Y1092656*
Y1092344*
X1274091Y1092031*
X1273864Y1091563*
X1273864D02*
X1272727Y1090000D01*
X1274318*
X1275909Y1093281D02*
X1275568Y1093125D01*
X1275455Y1092813*
X1275455D02*
Y1092500D01*
X1275568Y1092188*
X1275568D02*
X1275795Y1092031D01*
X1276250Y1091875*
X1276591Y1091719*
X1276818Y1091406*
X1276932Y1091094*
Y1090625*
X1276818Y1090313*
X1276818D02*
X1276705Y1090156D01*
X1276364Y1090000*
X1275909*
X1275568Y1090156*
X1275455Y1090313*
X1275455D02*
X1275341Y1090625D01*
Y1091094*
X1275455Y1091406*
X1275682Y1091719*
X1276023Y1091875*
X1276477Y1092031*
X1276705Y1092188*
X1276705D02*
X1276818Y1092500D01*
Y1092813*
X1276818D02*
X1276705Y1093125D01*
X1276364Y1093281*
X1275909*
X1287677Y1029334D02*
X1287365Y1029221D01*
X1287052Y1028994*
X1286896Y1028766*
Y1028312*
X1287052Y1028084*
X1287365Y1027857*
X1287677Y1027744*
X1288146Y1027630*
X1288927*
X1289396Y1027744*
X1289708Y1027857*
X1290021Y1028084*
X1290177Y1028312*
Y1028766*
X1290021Y1028994*
X1289708Y1029221*
X1289396Y1029334*
X1286896Y1030584D02*
Y1031834D01*
X1288146Y1031153*
Y1031494*
X1288302Y1031721*
X1288458Y1031834*
X1288927Y1031948*
X1289240*
X1289708Y1031834*
X1290021Y1031607*
X1290177Y1031266*
Y1030925*
X1290021Y1030584*
X1289865Y1030471*
X1289552Y1030357*
X1287677Y1033084D02*
X1287521D01*
X1287208Y1033198*
X1287052Y1033312*
X1286896Y1033539*
Y1033994*
X1287052Y1034221*
X1287208Y1034334*
X1287521Y1034448*
X1287833*
X1288146Y1034334*
X1288615Y1034107*
X1290177Y1032971*
Y1034562*
X1288209Y1080124D02*
Y1076843D01*
Y1080124D02*
X1289231D01*
X1289572Y1079968*
X1289686Y1079811*
X1289800Y1079499*
Y1079186*
X1289686Y1078874*
X1289572Y1078718*
X1289231Y1078561*
X1288209*
X1289004D02*
X1289800Y1076843D01*
X1290822Y1079499D02*
X1291050Y1079655D01*
X1291390Y1080124*
Y1076843*
X1293095Y1080124D02*
X1292754Y1079968D01*
X1292527Y1079499*
X1292413Y1078718*
Y1078249*
X1292527Y1077468*
X1292754Y1076999*
X1293095Y1076843*
X1293322*
X1293663Y1076999*
X1293890Y1077468*
X1294004Y1078249*
Y1078718*
X1293890Y1079499*
X1293663Y1079968*
X1293322Y1080124*
X1293095*
X1314455Y1080780D02*
X1317736D01*
Y1082143*
X1314455Y1083166D02*
X1317736D01*
X1314455D02*
Y1083961D01*
X1314611Y1084302*
X1314924Y1084530*
X1315236Y1084643*
X1315705Y1084757*
X1316486*
X1316955Y1084643*
X1317267Y1084530*
X1317580Y1084302*
X1317736Y1083961*
Y1083166*
X1315080Y1085780D02*
X1314924Y1086007D01*
X1314455Y1086348*
X1317736*
X1318392Y1063063D02*
X1320736D01*
X1321204Y1063177*
X1321517Y1063404*
X1321673Y1063745*
Y1063972*
X1321517Y1064313*
X1321204Y1064540*
X1320736Y1064654*
X1318392*
X1319173Y1065790D02*
X1319017D01*
X1318704Y1065904*
X1318548Y1066018*
X1318392Y1066245*
Y1066699*
X1318548Y1066927*
X1318704Y1067040*
X1319017Y1067154*
X1319329*
X1319642Y1067040*
X1320111Y1066813*
X1321673Y1065677*
Y1067268*
X1260977Y1051328D02*
Y1048984D01*
X1261091Y1048516*
X1261318Y1048203*
X1261659Y1048047*
X1261886*
X1262227Y1048203*
X1262455Y1048516*
X1262568Y1048984*
Y1051328*
X1264955Y1050859D02*
X1264841Y1051172D01*
X1264500Y1051328*
X1264273*
X1263932Y1051172*
X1263705Y1050703*
X1263591Y1049922*
Y1049141*
X1263705Y1048516*
X1263932Y1048203*
X1264273Y1048047*
X1264386*
X1264727Y1048203*
X1264955Y1048516*
X1265068Y1048984*
Y1049141*
X1264955Y1049609*
X1264727Y1049922*
X1264386Y1050078*
X1264273*
X1263932Y1049922*
X1263705Y1049609*
X1263591Y1049141*
X1254719Y1064000D02*
X1258000Y1065591D01*
X1254719D02*
X1258000Y1064000D01*
X1255344Y1066614D02*
X1255187Y1066841D01*
X1254719Y1067182*
X1258000*
X1333220Y1067531D02*
X1333107Y1067844D01*
X1332879Y1068156*
X1332652Y1068313*
X1332198*
X1331970Y1068156*
X1331743Y1067844*
X1331629Y1067531*
X1331516Y1067063*
Y1066281*
X1331629Y1065813*
X1331743Y1065500*
X1331970Y1065188*
X1332198Y1065031*
X1332652*
X1332879Y1065188*
X1333107Y1065500*
X1333220Y1065813*
X1334470Y1068313D02*
X1335720D01*
X1335038Y1067063*
X1335379*
X1335607Y1066906*
X1335720Y1066750*
X1335834Y1066281*
Y1065969*
X1335720Y1065500*
X1335493Y1065188*
X1335152Y1065031*
X1334811*
X1334470Y1065188*
X1334357Y1065344*
X1334243Y1065656*
X1338448Y1068313D02*
X1337311Y1065031D01*
X1336857Y1068313D02*
X1338448D01*
X1087111Y1058268D02*
X1086798Y1058154D01*
X1086486Y1057927*
X1086329Y1057699*
Y1057245*
X1086486Y1057018*
X1086798Y1056790*
X1087111Y1056677*
X1087579Y1056563*
X1088361*
X1088829Y1056677*
X1089142Y1056790*
X1089454Y1057018*
X1089611Y1057245*
Y1057699*
X1089454Y1057927*
X1089142Y1058154*
X1088829Y1058268*
X1086329Y1060427D02*
X1088517Y1059290D01*
Y1060995*
X1086329Y1060427D02*
X1089611D01*
X1086329Y1063608D02*
X1089611Y1062472D01*
X1086329Y1062018D02*
Y1063608D01*
X1331484Y1048094D02*
X1331370Y1048407D01*
X1331143Y1048719*
X1330916Y1048876*
X1330461*
X1330234Y1048719*
X1330007Y1048407*
X1329893Y1048094*
X1329780Y1047626*
Y1046844*
X1329893Y1046376*
X1330007Y1046063*
X1330234Y1045751*
X1330461Y1045594*
X1330916*
X1331143Y1045751*
X1331370Y1046063*
X1331484Y1046376*
X1332734Y1048876D02*
X1333984D01*
X1333302Y1047626*
X1333643*
X1333870Y1047469*
X1333984Y1047313*
X1334098Y1046844*
Y1046532*
X1333984Y1046063*
X1333757Y1045751*
X1333416Y1045594*
X1333075*
X1332734Y1045751*
X1332620Y1045907*
X1332507Y1046219*
X1336484Y1048407D02*
X1336370Y1048719D01*
X1336030Y1048876*
X1335802*
X1335461Y1048719*
X1335234Y1048251*
X1335120Y1047469*
Y1046688*
X1335234Y1046063*
X1335461Y1045751*
X1335802Y1045594*
X1335916*
X1336257Y1045751*
X1336484Y1046063*
X1336598Y1046532*
Y1046688*
X1336484Y1047157*
X1336257Y1047469*
X1335916Y1047626*
X1335802*
X1335461Y1047469*
X1335234Y1047157*
X1335120Y1046688*
X1269705Y1077900D02*
X1269591Y1078213D01*
X1269591D02*
X1269364Y1078525D01*
X1269136Y1078681*
X1268682*
X1268455Y1078525*
X1268227Y1078213*
X1268227D02*
X1268114Y1077900D01*
X1268000Y1077431*
Y1076650*
X1268114Y1076181*
X1268227Y1075869*
X1268455Y1075556*
X1268682Y1075400*
X1269136*
X1269364Y1075556*
X1269591Y1075869*
X1269705Y1076181*
X1272205Y1078681D02*
X1271068D01*
X1270955Y1077275*
X1271068Y1077431*
X1271409Y1077588*
X1271409D02*
X1271750D01*
X1271750D02*
X1272091Y1077431D01*
X1272318Y1077119*
X1272432Y1076650*
X1272318Y1076338*
X1272318D02*
X1272205Y1075869D01*
X1271977Y1075556*
X1271636Y1075400*
X1271295*
X1270955Y1075556*
X1270841Y1075713*
X1270841D02*
X1270727Y1076025D01*
X1273455Y1078056D02*
X1273682Y1078213D01*
X1273682D02*
X1274023Y1078681D01*
Y1075400*
X1260905Y1077100D02*
X1260791Y1077413D01*
X1260791D02*
X1260564Y1077725D01*
X1260336Y1077881*
X1259882*
X1259655Y1077725*
X1259427Y1077413*
X1259427D02*
X1259314Y1077100D01*
X1259200Y1076631*
Y1075850*
X1259314Y1075381*
X1259427Y1075069*
X1259655Y1074756*
X1259882Y1074600*
X1260336*
X1260564Y1074756*
X1260791Y1075069*
X1260905Y1075381*
X1263405Y1077881D02*
X1262268D01*
X1262155Y1076475*
X1262268Y1076631*
X1262609Y1076788*
X1262609D02*
X1262950D01*
X1262950D02*
X1263291Y1076631D01*
X1263518Y1076319*
X1263632Y1075850*
X1263518Y1075538*
X1263518D02*
X1263405Y1075069D01*
X1263177Y1074756*
X1262836Y1074600*
X1262495*
X1262155Y1074756*
X1262041Y1074913*
X1262041D02*
X1261927Y1075225D01*
X1264882Y1077881D02*
X1266132D01*
X1265450Y1076631*
X1265791*
X1266018Y1076475*
X1266132Y1076319*
X1266245Y1075850*
Y1075538*
X1266245D02*
X1266132Y1075069D01*
X1265905Y1074756*
X1265564Y1074600*
X1265223*
X1264882Y1074756*
X1264768Y1074913*
X1264768D02*
X1264655Y1075225D01*
X1246705Y1034500D02*
X1246591Y1034813D01*
X1246591D02*
X1246364Y1035125D01*
X1246136Y1035281*
X1245682*
X1245455Y1035125*
X1245227Y1034813*
X1245227D02*
X1245114Y1034500D01*
X1245000Y1034031*
Y1033250*
X1245114Y1032781*
X1245227Y1032469*
X1245455Y1032156*
X1245682Y1032000*
X1246136*
X1246364Y1032156*
X1246591Y1032469*
X1246705Y1032781*
X1249205Y1035281D02*
X1248068D01*
X1247955Y1033875*
X1248068Y1034031*
X1248409Y1034188*
X1248409D02*
X1248750D01*
X1248750D02*
X1249091Y1034031D01*
X1249318Y1033719*
X1249432Y1033250*
X1249318Y1032938*
X1249318D02*
X1249205Y1032469D01*
X1248977Y1032156*
X1248636Y1032000*
X1248295*
X1247955Y1032156*
X1247841Y1032313*
X1247841D02*
X1247727Y1032625D01*
X1251591Y1035281D02*
X1250455Y1033094D01*
X1252159*
X1251591Y1035281D02*
Y1032000D01*
X1294770Y1029598D02*
X1298051D01*
X1294770D02*
Y1030621D01*
X1294926Y1030962*
X1295082Y1031076*
X1295395Y1031189*
X1295707*
X1296020Y1031076*
X1296176Y1030962*
X1296332Y1030621*
Y1029598*
Y1030394D02*
X1298051Y1031189D01*
X1295395Y1032212D02*
X1295239Y1032439D01*
X1294770Y1032780*
X1298051*
X1294770Y1034371D02*
X1294926Y1034030D01*
X1295239Y1033917*
X1295551*
X1295864Y1034030*
X1296020Y1034258*
X1296176Y1034712*
X1296332Y1035053*
X1296645Y1035280*
X1296957Y1035394*
X1297426*
X1297739Y1035280*
X1297895Y1035167*
X1298051Y1034826*
Y1034371*
X1297895Y1034030*
X1297739Y1033917*
X1297426Y1033803*
X1296957*
X1296645Y1033917*
X1296332Y1034144*
X1296176Y1034485*
X1296020Y1034939*
X1295864Y1035167*
X1295551Y1035280*
X1295239*
X1294926Y1035167*
X1294770Y1034826*
Y1034371*
X1328234Y1053220D02*
X1331516D01*
X1328234D02*
Y1054243D01*
X1328234D02*
X1328391Y1054584D01*
X1328547Y1054698*
X1328859Y1054811*
X1328859D02*
X1329172D01*
X1329484Y1054698*
X1329484D02*
X1329641Y1054584D01*
X1329797Y1054243*
Y1053220*
Y1054016D02*
X1331516Y1054811D01*
X1328859Y1055834D02*
X1328703Y1056061D01*
X1328234Y1056402*
X1328234D02*
X1331516D01*
X1329328Y1058902D02*
X1329797Y1058789D01*
X1330109Y1058561*
X1330109D02*
X1330266Y1058220D01*
Y1058107*
X1330109Y1057766*
X1330109D02*
X1329797Y1057539D01*
X1329328Y1057425*
X1329172*
X1328703Y1057539*
X1328391Y1057766*
X1328234Y1058107*
X1328234D02*
Y1058220D01*
X1328234D02*
X1328391Y1058561D01*
X1328703Y1058789*
X1329328Y1058902*
X1330109*
X1330109D02*
X1330891Y1058789D01*
X1331359Y1058561*
X1331359D02*
X1331516Y1058220D01*
Y1057993*
X1331359Y1057652*
X1331359D02*
X1331047Y1057539D01*
X1322329Y1021724D02*
X1325610D01*
X1322329D02*
Y1022747D01*
X1322485Y1023088*
X1322641Y1023202*
X1322954Y1023315*
X1323266*
X1323579Y1023202*
X1323735Y1023088*
X1323891Y1022747*
Y1021724*
Y1022520D02*
X1325610Y1023315D01*
X1323110Y1024452D02*
X1322954D01*
X1322641Y1024565*
X1322485Y1024679*
X1322329Y1024906*
Y1025361*
X1322485Y1025588*
X1322641Y1025702*
X1322954Y1025815*
X1323266*
X1323579Y1025702*
X1324048Y1025474*
X1325610Y1024338*
Y1025929*
X1322329Y1027634D02*
X1322485Y1027293D01*
X1322954Y1027065*
X1323735Y1026952*
X1324204*
X1324985Y1027065*
X1325454Y1027293*
X1325610Y1027634*
X1325610D02*
Y1027861D01*
X1325454Y1028202*
X1324985Y1028429*
X1324204Y1028543*
X1323735*
X1322954Y1028429*
X1322485Y1028202*
X1322329Y1027861*
Y1027634*
X1067778Y1063496D02*
X1071059D01*
X1067778D02*
Y1064519D01*
X1067934Y1064860*
X1068090Y1064973*
X1068403Y1065087*
X1068715*
X1069028Y1064973*
X1069184Y1064860*
X1069340Y1064519*
Y1063496*
Y1064292D02*
X1071059Y1065087D01*
X1068559Y1066223D02*
X1068403D01*
X1068090Y1066337*
X1067934Y1066451*
X1067778Y1066678*
Y1067132*
X1067934Y1067360*
X1068090Y1067473*
X1068403Y1067587*
X1068715*
X1069028Y1067473*
X1069497Y1067246*
X1071059Y1066110*
Y1067701*
X1067778Y1069860D02*
X1069965Y1068723D01*
Y1070428*
X1067778Y1069860D02*
X1071059D01*
X1338077Y1023693D02*
X1341358D01*
X1338077D02*
Y1024716D01*
X1338233Y1025057*
X1338390Y1025170*
X1338702Y1025284*
X1339015*
X1339327Y1025170*
X1339483Y1025057*
X1339640Y1024716*
Y1023693*
Y1024488D02*
X1341358Y1025284D01*
X1338858Y1026420D02*
X1338702D01*
X1338390Y1026534*
X1338233Y1026647*
X1338077Y1026875*
Y1027329*
X1338233Y1027557*
X1338390Y1027670*
X1338702Y1027784*
X1339015*
X1339327Y1027670*
X1339796Y1027443*
X1341358Y1026307*
Y1027897*
X1338858Y1029034D02*
X1338702D01*
X1338390Y1029147*
X1338233Y1029261*
X1338077Y1029488*
Y1029943*
X1338233Y1030170*
X1338390Y1030284*
X1338702Y1030397*
X1339015*
X1339327Y1030284*
X1339796Y1030057*
X1341358Y1028920*
Y1030511*
X1089187Y1076091D02*
X1088875Y1075864D01*
X1088719Y1075523*
Y1075068*
X1088875Y1074727*
X1089187Y1074500*
X1089187D02*
X1089500D01*
X1089812Y1074614*
X1089812D02*
X1089969Y1074727D01*
X1090125Y1074955*
X1090437Y1075636*
X1090437D02*
X1090594Y1075864D01*
X1090750Y1075977*
X1091062Y1076091*
X1091062D02*
X1091531D01*
X1091844Y1075864*
X1092000Y1075523*
Y1075068*
X1091844Y1074727*
X1091531Y1074500*
X1088719Y1077114D02*
X1092000Y1077682D01*
X1088719Y1078250D02*
X1092000Y1077682D01*
X1088719Y1078250D02*
X1092000Y1078818D01*
X1088719Y1079386D02*
X1092000Y1078818D01*
X1089500Y1080523D02*
X1089344D01*
X1089031Y1080636*
X1088875Y1080750*
X1088719Y1080977*
Y1081432*
X1088875Y1081659*
X1089031Y1081773*
X1089344Y1081886*
X1089656*
X1089969Y1081773*
X1090437Y1081545*
X1090437D02*
X1092000Y1080409D01*
Y1082000*
X1305925Y1086029D02*
Y1082748D01*
X1307289*
X1308312Y1085404D02*
X1308539Y1085561D01*
X1308880Y1086029*
Y1082748*
X1311380Y1084936D02*
X1311266Y1084467D01*
X1311039Y1084154*
X1310698Y1083998*
X1310584*
X1310243Y1084154*
X1310016Y1084467*
X1309902Y1084936*
Y1085092*
X1310016Y1085561*
X1310243Y1085873*
X1310584Y1086029*
X1310698*
X1311039Y1085873*
X1311266Y1085561*
X1311380Y1084936*
Y1084154*
X1311266Y1083373*
X1311039Y1082904*
X1310698Y1082748*
X1310471*
X1310130Y1082904*
X1310016Y1083217*
X1284927Y1055189D02*
X1288209D01*
Y1056553*
X1285709Y1057689D02*
X1285552D01*
X1285240Y1057803*
X1285084Y1057916*
X1284927Y1058144*
Y1058598*
X1285084Y1058825*
X1285240Y1058939*
X1285552Y1059053*
X1285865*
X1286177Y1058939*
X1286646Y1058712*
X1288209Y1057575*
Y1059166*
X1284927Y1060871D02*
X1285084Y1060530D01*
X1285552Y1060303*
X1286334Y1060189*
X1286802*
X1287584Y1060303*
X1288052Y1060530*
X1288209Y1060871*
Y1061098*
X1288052Y1061439*
X1287584Y1061666*
X1286802Y1061780*
X1286334*
X1285552Y1061666*
X1285084Y1061439*
X1284927Y1061098*
Y1060871*
X1278082Y1028545D02*
X1277769Y1028431D01*
X1277457Y1028204*
X1277301Y1027977*
Y1027522*
X1277457Y1027295*
X1277769Y1027068*
X1278082Y1026954*
X1278551Y1026840*
X1279332*
X1279801Y1026954*
X1280113Y1027068*
X1280426Y1027295*
X1280582Y1027522*
Y1027977*
X1280426Y1028204*
X1280113Y1028431*
X1279801Y1028545*
X1277301Y1029795D02*
Y1031045D01*
X1278551Y1030363*
Y1030704*
X1278707Y1030931*
X1278863Y1031045*
X1279332Y1031158*
X1279644*
X1280113Y1031045*
X1280426Y1030818*
X1280582Y1030477*
Y1030136*
X1280426Y1029795*
X1280269Y1029681*
X1279957Y1029568*
X1277301Y1032749D02*
X1277457Y1032408D01*
X1277769Y1032295*
X1278082*
X1278394Y1032408*
X1278551Y1032636*
X1278707Y1033090*
X1278863Y1033431*
X1279176Y1033658*
X1279488Y1033772*
X1279957*
X1280269Y1033658*
X1280426Y1033545*
X1280582Y1033204*
Y1032749*
X1280426Y1032408*
X1280269Y1032295*
X1279957Y1032181*
X1279488*
X1279176Y1032295*
X1278863Y1032522*
X1278707Y1032863*
X1278551Y1033318*
X1278394Y1033545*
X1278082Y1033658*
X1277769*
X1277457Y1033545*
X1277301Y1033204*
Y1032749*
X1331252Y1043909D02*
X1331138Y1044222D01*
X1330911Y1044534*
X1330684Y1044691*
X1330229*
X1330002Y1044534*
X1329775Y1044222*
X1329661Y1043909*
X1329547Y1043441*
Y1042659*
X1329661Y1042191*
X1329775Y1041878*
X1330002Y1041566*
X1330229Y1041409*
X1330684*
X1330911Y1041566*
X1331138Y1041878*
X1331252Y1042191*
X1332502Y1044691D02*
X1333752D01*
X1333070Y1043441*
X1333411*
X1333638Y1043284*
X1333752Y1043128*
X1333865Y1042659*
Y1042347*
X1333752Y1041878*
X1333525Y1041566*
X1333184Y1041409*
X1332843*
X1332502Y1041566*
X1332388Y1041722*
X1332275Y1042034*
X1336365Y1044691D02*
X1335229D01*
X1335115Y1043284*
X1335229Y1043441*
X1335570Y1043597*
X1335911*
X1336252Y1043441*
X1336479Y1043128*
X1336593Y1042659*
X1336479Y1042347*
X1336365Y1041878*
X1336138Y1041566*
X1335797Y1041409*
X1335456*
X1335115Y1041566*
X1335002Y1041722*
X1334888Y1042034*
X1294205Y1025000D02*
X1294091Y1025313D01*
X1294091D02*
X1293864Y1025625D01*
X1293636Y1025781*
X1293182*
X1292955Y1025625*
X1292727Y1025313*
X1292727D02*
X1292614Y1025000D01*
X1292500Y1024531*
Y1023750*
X1292614Y1023281*
X1292727Y1022969*
X1292955Y1022656*
X1293182Y1022500*
X1293636*
X1293864Y1022656*
X1294091Y1022969*
X1294205Y1023281*
X1296705Y1025781D02*
X1295568D01*
X1295455Y1024375*
X1295568Y1024531*
X1295909Y1024688*
X1295909D02*
X1296250D01*
X1296250D02*
X1296591Y1024531D01*
X1296818Y1024219*
X1296932Y1023750*
X1296818Y1023438*
X1296818D02*
X1296705Y1022969D01*
X1296477Y1022656*
X1296136Y1022500*
X1295795*
X1295455Y1022656*
X1295341Y1022813*
X1295341D02*
X1295227Y1023125D01*
X1298068Y1025000D02*
Y1025156D01*
X1298182Y1025469*
X1298295Y1025625*
X1298523Y1025781*
X1298977*
X1299205Y1025625*
X1299318Y1025469*
X1299432Y1025156*
Y1024844*
X1299318Y1024531*
X1299091Y1024063*
X1299091D02*
X1297955Y1022500D01*
X1299545*
X1134500Y1119781D02*
Y1117437D01*
X1134500D02*
X1134614Y1116969D01*
X1134841Y1116656*
X1135182Y1116500*
X1135409*
X1135750Y1116656*
X1135977Y1116969*
X1136091Y1117437*
X1136091D02*
Y1119781D01*
X1137114Y1119156D02*
X1137341Y1119312D01*
X1137341D02*
X1137682Y1119781D01*
Y1116500*
X1258500Y1083281D02*
Y1080000D01*
Y1083281D02*
X1259523D01*
X1259864Y1083125*
X1259977Y1082969*
X1260091Y1082656*
Y1082344*
X1259977Y1082031*
X1259864Y1081875*
X1259523Y1081719*
X1258500*
X1259295D02*
X1260091Y1080000D01*
X1261341Y1083281D02*
X1262591D01*
X1261909Y1082031*
X1262250*
X1262477Y1081875*
X1262591Y1081719*
X1262705Y1081250*
Y1080938*
X1262591Y1080469*
X1262364Y1080156*
X1262023Y1080000*
X1261682*
X1261341Y1080156*
X1261227Y1080313*
X1261114Y1080625*
X1264864Y1083281D02*
X1263727Y1081094D01*
X1265432*
X1264864Y1083281D02*
Y1080000D01*
X1028648Y1035766D02*
X1028875Y1035922D01*
X1029102Y1036234*
X1029216Y1036703*
Y1037016*
X1029102Y1037484*
X1028875Y1037797*
X1028648Y1037953*
X1028307*
X1028080Y1037797*
X1027852Y1037484*
X1027739Y1037016*
Y1036703*
X1027852Y1036234*
X1028080Y1035922*
X1028307Y1035766*
X1028648*
X1295266Y1104852D02*
X1295422Y1104625D01*
X1295734Y1104398*
X1296203Y1104284*
X1296516*
X1296984Y1104398*
X1297297Y1104625*
X1297453Y1104852*
Y1105193*
X1297297Y1105420*
X1296984Y1105648*
X1296516Y1105761*
X1296203*
X1295734Y1105648*
X1295422Y1105420*
X1295266Y1105193*
Y1104852*
X1259407Y1055360D02*
X1259180Y1055204D01*
X1258953Y1054892*
X1258839Y1054423*
Y1054110*
X1258953Y1053642*
X1259180Y1053329*
X1259407Y1053173*
X1259748*
X1259976Y1053329*
X1260203Y1053642*
X1260316Y1054110*
Y1054423*
X1260203Y1054892*
X1259976Y1055204*
X1259748Y1055360*
X1259407*
G54D33*
X1051500Y1087000D02*
Y1073000D01*
X1058500*
Y1087000*
X1051500*
X1330000Y1088500D02*
Y1102500D01*
X1323000*
Y1088500*
X1330000*
X1340000D02*
Y1102500D01*
X1333000*
Y1088500*
X1340000*
X1109500Y1117000D02*
X1090500D01*
Y1108000*
X1109500*
Y1117000*
X1248000Y1085500D02*
X1267000D01*
Y1094500*
X1248000*
Y1085500*
X1320000Y1088500D02*
Y1102500D01*
X1313000*
Y1088500*
X1320000*
X1320047Y1070374D02*
X1339047D01*
Y1079374*
X1320047*
Y1070374*
X1273866Y1058783D02*
Y1039783D01*
X1282866*
Y1058783*
X1273866*
X652000Y645200D02*
X1688000D01*
Y1350000*
X652000*
Y645200*
X1253500D02*
X1688000D01*
Y840200*
X1253500*
Y645200*
X1253000Y785200D02*
X1688000D01*
Y645200*
X1253000*
Y785200*
Y675200D02*
X1688000D01*
Y645200*
X1253000*
Y675200*
X1413000*
Y645200*
X1253000*
Y675200*
Y785200D02*
X1688000D01*
Y840200*
X1253000*
Y785200*
Y715200D02*
X1688000D01*
Y785200*
X1253000*
Y715200*
X1553000Y675200D02*
X1688000D01*
Y715200*
X1553000*
Y675200*
X818500Y675700D02*
X1024000D01*
Y645200*
X818500*
Y675700*
X1024000Y645200D02*
X1253500D01*
Y675700*
X1024000*
Y645200*
X818500Y785700D02*
X1253500D01*
Y675700*
X818500*
Y785700*
X1120300Y1067000D02*
G03X1120300I-1650J0D01*
G01X1116300Y1055200D02*
X1118200Y1063900D01*
X1117600*
X1115624Y1055182D02*
X1117524Y1063882D01*
X1115600Y1055200D02*
X1116300D01*
X1118600Y1059200D02*
X1117700Y1055100D01*
X1121200Y1059200D02*
X1118600D01*
X1121600Y1060900D02*
X1121200Y1059200D01*
X1118900Y1060900D02*
X1121600D01*
X1119600Y1063800D02*
X1118900Y1060900D01*
X1121000Y1064000D02*
X1120300D01*
X1120100Y1063900*
X1119600Y1063800*
X1121900Y1064200D02*
X1121400Y1064000D01*
X1121000*
X1123000Y1064200D02*
X1121900D01*
X1123400Y1064000D02*
X1123100D01*
X1123000Y1064200*
X1124100Y1063900D02*
X1123400Y1064000D01*
X1124900Y1063300D02*
X1124500Y1063800D01*
X1124100Y1063900*
X1125100Y1062800D02*
X1124900Y1063300D01*
X1125100Y1062400D02*
X1124900Y1062800D01*
X1125100*
X1125200Y1061600D02*
X1125100Y1062400D01*
X1125300Y1060700D02*
X1125200Y1061600D01*
X1125300Y1059800D02*
Y1060700D01*
X1125500Y1059400D02*
X1125300Y1059800D01*
X1126300Y1058400D02*
X1125900Y1059100D01*
X1125500Y1059400*
X1126700Y1057600D02*
X1126300Y1058400D01*
X1126700Y1056900D02*
Y1057600D01*
X1126900Y1055900D02*
X1126700Y1056900D01*
X1126600Y1054100D02*
X1126900Y1055200D01*
Y1055900*
X1126300Y1053700D02*
X1126600Y1054100D01*
X1125100Y1053200D02*
X1126300Y1053700D01*
X1123700Y1052600D02*
X1125100Y1053200D01*
X1122500Y1052200D02*
X1123700Y1052600D01*
X1120400Y1051300D02*
X1121500Y1051800D01*
X1122500Y1052200*
X1119600Y1050900D02*
X1120400Y1051300D01*
X1118600Y1050300D02*
X1119600Y1050900D01*
X1118200Y1049500D02*
X1118600Y1050300D01*
X1117800Y1048200D02*
X1118200Y1049500D01*
X1117900Y1047300D02*
X1117800Y1048200D01*
X1118100Y1046700D02*
X1117900Y1047300D01*
X1118300Y1046300D02*
X1118100Y1046700D01*
Y1045800D02*
X1118300Y1046300D01*
X1116800Y1045600D02*
X1117800Y1045500D01*
X1118100Y1045800*
X1115500Y1046300D02*
X1116800Y1045600D01*
X1113800Y1047100D02*
X1115500Y1046300D01*
X1112900Y1048200D02*
X1113800Y1047100D01*
X1112400Y1048900D02*
X1112900Y1048200D01*
X1111900Y1050200D02*
X1112400Y1048900D01*
X1111900Y1050700D02*
Y1050200D01*
X1110800Y1052400D02*
X1111900Y1050700D01*
X1110000Y1053500D02*
X1110800Y1052400D01*
X1109400Y1054100D02*
X1110000Y1053500D01*
X1108000Y1053600D02*
X1109000Y1054300D01*
X1109400Y1054100*
X1107500Y1053200D02*
X1108000Y1053600D01*
X1106400Y1053200D02*
X1107500D01*
X1105000Y1054000D02*
X1106400Y1053200D01*
X1114100Y1054300D02*
Y1054600D01*
X1115200Y1059200*
X1114500Y1053900D02*
X1114100Y1054300D01*
X1115200Y1053500D02*
X1114500Y1053900D01*
X1116000Y1053200D02*
X1115200Y1053500D01*
X1116600Y1053200D02*
X1116000D01*
X1117900Y1053600D02*
X1117100Y1053300D01*
X1116600Y1053200*
X1118200Y1054400D02*
Y1054000D01*
X1117900Y1053700*
Y1053600*
Y1055000D02*
X1118100Y1054800D01*
X1118200Y1054600*
Y1054400*
X1117900Y1055000D02*
X1117700Y1055100D01*
X1103900Y1055700D02*
X1105000Y1054000D01*
X1103000Y1056900D02*
X1103900Y1055700D01*
X1101300Y1058300D02*
X1103000Y1056900D01*
X1100500Y1059800D02*
X1100800Y1059100D01*
X1101300Y1058300*
X1107400Y1059800D02*
X1100500D01*
X1115200Y1059200D02*
X1112400D01*
X1113000Y1061000*
X1115500*
X1114200Y1070100D02*
X1107400D01*
Y1059800*
X1115500Y1061000D02*
X1116300Y1064000D01*
X1115900Y1064200*
X1115000Y1064600*
X1114800Y1065000*
X1114200Y1065500*
Y1070100*
X1092702Y1051848D02*
Y1046598D01*
X1091429Y1051848D02*
X1093975D01*
X1095611Y1048598D02*
X1097793D01*
Y1049098*
X1097611Y1049598*
X1097429Y1049848*
X1097065Y1050098*
X1097065D02*
X1096520D01*
X1096156Y1049848*
X1095793Y1049348*
X1095611Y1048598*
Y1048098*
X1095793Y1047348*
X1096156Y1046848*
X1096520Y1046598*
X1097065*
X1097065D02*
X1097429Y1046848D01*
X1097793Y1047348*
X1099429Y1050098D02*
X1101429Y1046598D01*
Y1050098D02*
X1099429Y1046598D01*
X1105247Y1050098D02*
Y1046598D01*
Y1049348D02*
X1104884Y1049848D01*
X1104520Y1050098*
X1103975*
X1103611Y1049848*
X1103247Y1049348*
X1103065Y1048598*
X1103065D02*
Y1048098D01*
X1103065D02*
X1103247Y1047348D01*
X1103611Y1046848*
X1103975Y1046598*
X1104520*
X1104884Y1046848*
X1105247Y1047348*
X1108884Y1049348D02*
X1108702Y1049848D01*
X1108156Y1050098*
X1107611*
X1107065Y1049848*
X1107065D02*
X1106884Y1049348D01*
X1107065Y1048848*
X1107065D02*
X1107429Y1048598D01*
X1108338Y1048348*
X1108702Y1048098*
X1108884Y1047598*
Y1047348*
X1108702Y1046848*
X1108156Y1046598*
X1107611*
X1107065Y1046848*
X1107065D02*
X1106884Y1047348D01*
X1087492Y1043974D02*
Y1038724D01*
X1089128Y1042224D02*
Y1038724D01*
Y1041224D02*
X1089674Y1041974D01*
X1090038Y1042224*
X1090583*
X1090947Y1041974*
X1091128Y1041224*
Y1038724*
X1094765Y1041474D02*
X1094583Y1041974D01*
X1094038Y1042224*
X1093492*
X1092947Y1041974*
X1092765Y1041474*
X1092947Y1040974*
X1093310Y1040724*
X1094219Y1040474*
X1094583Y1040224*
X1094765Y1039724*
Y1039474*
X1094583Y1038974*
X1094038Y1038724*
X1093492*
X1092947Y1038974*
X1092765Y1039474*
X1096947Y1043974D02*
Y1039724D01*
X1097128Y1038974*
X1097492Y1038724*
X1097856*
X1096401Y1042224D02*
X1097674D01*
X1099492D02*
Y1038724D01*
Y1040724D02*
X1099674Y1041474D01*
X1100038Y1041974*
X1100401Y1042224*
X1100947*
X1102583D02*
Y1039724D01*
X1102765Y1038974*
X1103128Y1038724*
X1103674*
X1104038Y1038974*
X1104583Y1039724*
Y1042224D02*
Y1038724D01*
X1106219Y1042224D02*
Y1038724D01*
Y1041224D02*
X1106765Y1041974D01*
X1107128Y1042224*
X1107674*
X1108038Y1041974*
X1108219Y1041224*
Y1038724*
Y1041224D02*
X1108765Y1041974D01*
X1109128Y1042224*
X1109674*
X1110038Y1041974*
X1110219Y1041224*
Y1038724*
X1111856Y1040724D02*
X1114038D01*
Y1041224*
X1113856Y1041724*
X1113674Y1041974*
X1113310Y1042224*
X1112765*
X1112401Y1041974*
X1112038Y1041474*
X1111856Y1040724*
Y1040224*
X1112038Y1039474*
X1112401Y1038974*
X1112765Y1038724*
X1113310*
X1113674Y1038974*
X1114038Y1039474*
X1115674Y1042224D02*
Y1038724D01*
Y1041224D02*
X1116219Y1041974D01*
X1116583Y1042224*
X1117128*
X1117492Y1041974*
X1117674Y1041224*
Y1038724*
X1119856Y1043974D02*
Y1039724D01*
X1120038Y1038974*
X1120401Y1038724*
X1120765*
X1119310Y1042224D02*
X1120583D01*
X1124401Y1041474D02*
X1124219Y1041974D01*
X1123674Y1042224*
X1123128*
X1122583Y1041974*
X1122401Y1041474*
X1122583Y1040974*
X1122947Y1040724*
X1123856Y1040474*
X1124219Y1040224*
X1124401Y1039724*
Y1039474*
X1124219Y1038974*
X1123674Y1038724*
X1123128*
X1122583Y1038974*
X1122401Y1039474*
G54D42*
X1059744Y1071500D02*
Y1058500D01*
X1065256*
Y1071500*
X1059744*
X1042000Y1093244D02*
X1055000D01*
Y1098756*
X1042000*
Y1093244*
X1052244Y1071500D02*
Y1058500D01*
X1057756*
Y1071500*
X1052244*
X1019744Y1044000D02*
Y1031000D01*
X1025256*
Y1044000*
X1019744*
X1054000Y1025256D02*
X1041000D01*
Y1019744*
X1054000*
Y1025256*
X1052244Y1046500D02*
Y1033500D01*
X1057756*
Y1046500*
X1052244*
X1026000Y1019744D02*
X1039000D01*
Y1025256*
X1026000*
Y1019744*
X1077429Y1022264D02*
X1076445Y1023248D01*
Y1034170*
X1094555*
Y1022264*
X1077429*
X1104275D02*
X1103291Y1023248D01*
Y1034170*
X1121401*
Y1022264*
X1104275*
X1084756Y1093272D02*
Y1075161D01*
X1074520*
Y1093272*
X1084756*
X1076213Y1073386D02*
G03X1076213I-500J0D01*
G01X1075307Y1091334D02*
X1075494Y1091061D01*
X1075869Y1090788*
X1076244Y1090652*
X1076807Y1090516*
X1077744*
X1078307Y1090652*
X1078682Y1090788*
X1079057Y1091061*
X1079244Y1091334*
Y1091879*
X1079057Y1092152*
X1078682Y1092425*
X1078307Y1092561*
X1077744Y1092698*
X1076807*
X1076244Y1092561*
X1075869Y1092425*
X1075494Y1092152*
X1075307Y1091879*
Y1091334*
X1080031Y1090516D02*
X1083969D01*
X1080031D02*
X1083969Y1092425D01*
X1080031D02*
X1083969D01*
X1304250Y1091750D02*
X1298750D01*
Y1104250*
X1304250*
Y1091750*
X1327240Y1103800D02*
G03X1327240I-640J0D01*
G01X1337240D02*
G03X1337240I-640J0D01*
G01X1285453Y1049878D02*
Y1036878D01*
X1290965*
Y1049878*
X1285453*
X1298646Y1075661D02*
X1285646D01*
Y1070150*
X1298646*
Y1075661*
X1317000Y1104000D02*
G03X1317000I-500J0D01*
G01X1273055Y1061876D02*
Y1056376D01*
X1260305*
Y1061876*
X1273055*
Y1056376*
X1260305*
Y1061876*
X1273055*
X1253299Y1069886D02*
Y1043114D01*
X1240701*
Y1069886*
X1253299*
X1089657Y1046720D02*
Y1054720D01*
X1085657*
Y1046720*
X1089657*
X1303594Y1042839D02*
X1316594D01*
Y1048350*
X1303594*
Y1042839*
X1273055Y1073693D02*
X1260055D01*
Y1068181*
X1273055*
Y1073693*
X1243500Y1070744D02*
X1256500D01*
Y1076256*
X1243500*
Y1070744*
X1244000Y1036744D02*
X1257000D01*
Y1042256*
X1244000*
Y1036744*
X1298839Y1036878D02*
Y1049878D01*
X1293327*
Y1036878*
X1298839*
X1320886Y1059720D02*
Y1046720D01*
X1326398*
Y1059720*
X1320886*
Y1043972D02*
Y1030972D01*
X1326398*
Y1043972*
X1320886*
X1066744Y1085000D02*
Y1072000D01*
X1072256*
Y1085000*
X1066744*
X1336634Y1022906D02*
Y1036291D01*
X1330335*
Y1022906*
X1336634*
X1093000Y1074000D02*
X1118000D01*
Y1097000*
X1093000*
Y1074000*
X1097000Y1092000D02*
Y1079000D01*
X1099500*
Y1092000*
X1097000*
X1102000D02*
Y1079000D01*
X1104500*
Y1092000*
X1102000*
X1107000D02*
Y1079000D01*
X1109500*
Y1092000*
X1107000*
X1112000D02*
Y1079000D01*
X1114500*
Y1092000*
X1112000*
X1093500Y1071688D02*
X1093773Y1071875D01*
X1094182Y1072438*
X1094182D02*
Y1068500D01*
X1303563Y1078024D02*
Y1080386D01*
X1316161*
Y1078024*
X1303563Y1071724D02*
Y1069362D01*
X1316161*
Y1071724*
X1291598Y1053949D02*
X1289236D01*
Y1066547*
X1291598*
X1297898Y1053949D02*
X1300260D01*
Y1066547*
X1297898*
X1303169Y1040622D02*
Y1041803D01*
X1316555*
Y1040622*
Y1034323D02*
Y1033142D01*
X1303169*
Y1034323*
X1304350D02*
Y1033142D01*
Y1040622D02*
Y1041803D01*
X1303169Y1028811D02*
Y1029992D01*
X1316555*
Y1028811*
Y1022512D02*
Y1021331D01*
X1303169*
Y1022512*
X1304350D02*
Y1021331D01*
Y1028811D02*
Y1029992D01*
X1139709Y1115291D02*
Y1113717D01*
X1140496Y1113323*
X1139709Y1112929*
Y1026709*
X1228291*
Y1115291*
X1139709*
X1256500Y1083256D02*
X1243500D01*
Y1077744*
X1256500*
Y1083256*
X1076927Y1123594D02*
Y1119656D01*
Y1123594D02*
X1078155D01*
X1078564Y1123406*
X1078700Y1123219*
X1078836Y1122844*
Y1122469*
X1078700Y1122094*
X1078564Y1121906*
X1078155Y1121719*
X1076927*
X1077882D02*
X1078836Y1119656D01*
X1080064Y1123594D02*
Y1119656D01*
Y1123594D02*
X1081836D01*
X1080064Y1121719D02*
X1081155D01*
X1080064Y1119656D02*
X1081836D01*
X1083064Y1123594D02*
Y1119656D01*
X1084700*
X1085927Y1123594D02*
Y1119656D01*
Y1123594D02*
X1087700D01*
X1085927Y1121719D02*
X1087018D01*
X1085927Y1119656D02*
X1087700D01*
X1090018Y1123594D02*
X1088927Y1119656D01*
X1090018Y1123594D02*
X1091109Y1119656D01*
X1089336Y1120969D02*
X1090700D01*
X1094245Y1123031D02*
X1093973Y1123406D01*
X1093564Y1123594*
X1093018*
X1092609Y1123406*
X1092336Y1123031*
Y1122656*
X1092473Y1122281*
X1092609Y1122094*
X1092882Y1121906*
X1093700Y1121531*
X1093973Y1121344*
X1094109Y1121156*
X1094245Y1120781*
Y1120219*
X1093973Y1119844*
X1093564Y1119656*
X1093018*
X1092609Y1119844*
X1092336Y1120219*
X1095473Y1123594D02*
Y1119656D01*
Y1123594D02*
X1097245D01*
X1095473Y1121719D02*
X1096564D01*
X1095473Y1119656D02*
X1097245D01*
X1101609Y1122844D02*
X1101882Y1123031D01*
X1102291Y1123594*
Y1119656*
X1103655Y1120031D02*
X1103518Y1119844D01*
X1103655Y1119656*
X1103791Y1119844*
X1103655Y1120031*
X1105836Y1123594D02*
X1105427Y1123406D01*
X1105155Y1122844*
X1105018Y1121906*
Y1121344*
X1105155Y1120406*
X1105427Y1119844*
X1105836Y1119656*
X1106109*
X1106518Y1119844*
X1106791Y1120406*
X1106927Y1121344*
Y1121906*
X1106791Y1122844*
X1106518Y1123406*
X1106109Y1123594*
X1105836*
X1007086Y1115594D02*
Y1111656D01*
X1006132Y1115594D02*
X1008041D01*
X1009268D02*
Y1111656D01*
Y1115594D02*
X1010359Y1111656D01*
X1011450Y1115594D02*
X1010359Y1111656D01*
X1011450Y1115594D02*
Y1111656D01*
X1012677Y1115594D02*
Y1111656D01*
Y1115594D02*
X1013632D01*
X1014041Y1115406*
X1014314Y1115031*
X1014450Y1114656*
X1014586Y1114094*
Y1113156*
X1014450Y1112594*
X1014314Y1112219*
X1014041Y1111844*
X1013632Y1111656*
X1012677*
X1017723Y1115031D02*
X1017450Y1115406D01*
X1017041Y1115594*
X1016495*
X1016086Y1115406*
X1015814Y1115031*
Y1114656*
X1015950Y1114281*
X1016086Y1114094*
X1016359Y1113906*
X1017177Y1113531*
X1017450Y1113344*
X1017586Y1113156*
X1017723Y1112781*
Y1112219*
X1017450Y1111844*
X1017041Y1111656*
X1016495*
X1016086Y1111844*
X1015814Y1112219*
X1020995Y1114656D02*
X1020859Y1115031D01*
X1020586Y1115406*
X1020314Y1115594*
X1019768*
X1019495Y1115406*
X1019223Y1115031*
X1019086Y1114656*
X1018950Y1114094*
Y1113156*
X1019086Y1112594*
X1019223Y1112219*
X1019495Y1111844*
X1019768Y1111656*
X1020314*
X1020586Y1111844*
X1020859Y1112219*
X1020995Y1112594*
X1022223Y1115594D02*
Y1111656D01*
Y1115594D02*
X1024132Y1111656D01*
Y1115594D02*
Y1111656D01*
X1027405Y1114656D02*
X1027268Y1115031D01*
X1026995Y1115406*
X1026723Y1115594*
X1026177*
X1025905Y1115406*
X1025632Y1115031*
X1025495Y1114656*
X1025359Y1114094*
Y1113156*
X1025495Y1112594*
X1025632Y1112219*
X1025905Y1111844*
X1026177Y1111656*
X1026723*
X1026995Y1111844*
X1027268Y1112219*
X1027405Y1112594*
X1028632Y1115594D02*
Y1111656D01*
Y1115594D02*
X1029586D01*
X1029995Y1115406*
X1030268Y1115031*
X1030405Y1114656*
X1030541Y1114094*
Y1113156*
X1030405Y1112594*
X1030268Y1112219*
X1029995Y1111844*
X1029586Y1111656*
X1028632*
X1031905Y1114656D02*
Y1114844D01*
X1032041Y1115219*
X1032177Y1115406*
X1032450Y1115594*
X1032995*
X1033268Y1115406*
X1033405Y1115219*
X1033541Y1114844*
Y1114469*
X1033405Y1114094*
X1033132Y1113531*
X1031768Y1111656*
X1033677*
X1035586Y1115594D02*
X1035177Y1115406D01*
X1035041Y1115031*
Y1114656*
X1035177Y1114281*
X1035450Y1114094*
X1035995Y1113906*
X1036405Y1113719*
X1036677Y1113344*
X1036814Y1112969*
Y1112406*
X1036677Y1112031*
X1036541Y1111844*
X1036132Y1111656*
X1035586*
X1035177Y1111844*
X1035041Y1112031*
X1034905Y1112406*
Y1112969*
X1035041Y1113344*
X1035314Y1113719*
X1035723Y1113906*
X1036268Y1114094*
X1036541Y1114281*
X1036677Y1114656*
Y1115031*
X1036541Y1115406*
X1036132Y1115594*
X1035586*
X1038314D02*
X1039814D01*
X1038995Y1114094*
X1039405*
X1039677Y1113906*
X1039814Y1113719*
X1039950Y1113156*
Y1112781*
X1039814Y1112219*
X1039541Y1111844*
X1039132Y1111656*
X1038723*
X1038314Y1111844*
X1038177Y1112031*
X1038041Y1112406*
X1041450Y1115594D02*
X1042950D01*
X1042132Y1114094*
X1042541*
X1042814Y1113906*
X1042950Y1113719*
X1043086Y1113156*
Y1112781*
X1042950Y1112219*
X1042677Y1111844*
X1042268Y1111656*
X1041859*
X1041450Y1111844*
X1041314Y1112031*
X1041177Y1112406*
X1046086Y1115594D02*
X1044723D01*
X1044586Y1113906*
X1044723Y1114094*
X1045132Y1114281*
X1045541*
X1045950Y1114094*
X1046223Y1113719*
X1046359Y1113156*
X1046223Y1112781*
X1046086Y1112219*
X1045814Y1111844*
X1045405Y1111656*
X1044995*
X1044586Y1111844*
X1044450Y1112031*
X1044314Y1112406*
X1047586Y1115594D02*
Y1111656D01*
Y1115594D02*
X1048814D01*
X1049223Y1115406*
X1049359Y1115219*
X1049495Y1114844*
Y1114281*
X1049359Y1113906*
X1049223Y1113719*
X1048814Y1113531*
X1047586*
X1052768Y1114656D02*
X1052632Y1115031D01*
X1052359Y1115406*
X1052086Y1115594*
X1051541*
X1051268Y1115406*
X1050995Y1115031*
X1050859Y1114656*
X1050723Y1114094*
Y1113156*
X1050859Y1112594*
X1050995Y1112219*
X1051268Y1111844*
X1051541Y1111656*
X1052086*
X1052359Y1111844*
X1052632Y1112219*
X1052768Y1112594*
Y1113156*
X1052086D02*
X1052768D01*
X1053995Y1115594D02*
Y1111656D01*
Y1115594D02*
X1055768D01*
X1053995Y1113719D02*
X1055086D01*
X1063268Y1115594D02*
Y1111656D01*
Y1115594D02*
X1064495D01*
X1064905Y1115406*
X1065041Y1115219*
X1065177Y1114844*
Y1114469*
X1065041Y1114094*
X1064905Y1113906*
X1064495Y1113719*
X1063268*
X1064223D02*
X1065177Y1111656D01*
X1066405Y1114844D02*
X1066677Y1115031D01*
X1067086Y1115594*
Y1111656*
X1068450Y1112031D02*
X1068314Y1111844D01*
X1068450Y1111656*
X1068586Y1111844*
X1068450Y1112031*
X1070632Y1115594D02*
X1070223Y1115406D01*
X1069950Y1114844*
X1069814Y1113906*
Y1113344*
X1069950Y1112406*
X1070223Y1111844*
X1070632Y1111656*
X1070905*
X1071314Y1111844*
X1071586Y1112406*
X1071723Y1113344*
Y1113906*
X1071586Y1114844*
X1071314Y1115406*
X1070905Y1115594*
X1070632*
X1006586Y1123594D02*
Y1119656D01*
Y1123594D02*
X1008359D01*
X1006586Y1121719D02*
X1007677D01*
X1009723Y1122656D02*
Y1122844D01*
X1009859Y1123219*
X1009995Y1123406*
X1010268Y1123594*
X1010814*
X1011086Y1123406*
X1011223Y1123219*
X1011359Y1122844*
Y1122469*
X1011223Y1122094*
X1010950Y1121531*
X1009586Y1119656*
X1011495*
X1013405Y1123594D02*
X1012995Y1123406D01*
X1012859Y1123031*
Y1122656*
X1012995Y1122281*
X1013268Y1122094*
X1013814Y1121906*
X1014223Y1121719*
X1014495Y1121344*
X1014632Y1120969*
Y1120406*
X1014495Y1120031*
X1014359Y1119844*
X1013950Y1119656*
X1013405*
X1012995Y1119844*
X1012859Y1120031*
X1012723Y1120406*
Y1120969*
X1012859Y1121344*
X1013132Y1121719*
X1013541Y1121906*
X1014086Y1122094*
X1014359Y1122281*
X1014495Y1122656*
Y1123031*
X1014359Y1123406*
X1013950Y1123594*
X1013405*
X1016132D02*
X1017632D01*
X1016814Y1122094*
X1017223*
X1017495Y1121906*
X1017632Y1121719*
X1017768Y1121156*
Y1120781*
X1017632Y1120219*
X1017359Y1119844*
X1016950Y1119656*
X1016541*
X1016132Y1119844*
X1015995Y1120031*
X1015859Y1120406*
X1019268Y1123594D02*
X1020768D01*
X1019950Y1122094*
X1020359*
X1020632Y1121906*
X1020768Y1121719*
X1020905Y1121156*
Y1120781*
X1020768Y1120219*
X1020495Y1119844*
X1020086Y1119656*
X1019677*
X1019268Y1119844*
X1019132Y1120031*
X1018995Y1120406*
X1023905Y1123594D02*
X1022541D01*
X1022405Y1121906*
X1022541Y1122094*
X1022950Y1122281*
X1023359*
X1023768Y1122094*
X1024041Y1121719*
X1024177Y1121156*
X1024041Y1120781*
X1023905Y1120219*
X1023632Y1119844*
X1023223Y1119656*
X1022814*
X1022405Y1119844*
X1022268Y1120031*
X1022132Y1120406*
X1028541Y1123594D02*
Y1119656D01*
Y1123594D02*
X1029768D01*
X1030177Y1123406*
X1030314Y1123219*
X1030450Y1122844*
Y1122281*
X1030314Y1121906*
X1030177Y1121719*
X1029768Y1121531*
X1028541*
X1033723Y1122656D02*
X1033586Y1123031D01*
X1033314Y1123406*
X1033041Y1123594*
X1032495*
X1032223Y1123406*
X1031950Y1123031*
X1031814Y1122656*
X1031677Y1122094*
Y1121156*
X1031814Y1120594*
X1031950Y1120219*
X1032223Y1119844*
X1032495Y1119656*
X1033041*
X1033314Y1119844*
X1033586Y1120219*
X1033723Y1120594*
Y1121156*
X1033041D02*
X1033723D01*
X1034950Y1123594D02*
Y1119656D01*
Y1123594D02*
X1036723D01*
X1034950Y1121719D02*
X1036041D01*
X1042723D02*
X1042450Y1122094D01*
X1042177Y1122281*
X1041768*
X1041495Y1122094*
X1041223Y1121719*
X1041086Y1121156*
Y1120781*
X1041223Y1120219*
X1041495Y1119844*
X1041768Y1119656*
X1042177*
X1042450Y1119844*
X1042723Y1120219*
X1044632Y1122281D02*
X1044359Y1122094D01*
X1044086Y1121719*
X1043950Y1121156*
Y1120781*
X1044086Y1120219*
X1044359Y1119844*
X1044632Y1119656*
X1045041*
X1045314Y1119844*
X1045586Y1120219*
X1045723Y1120781*
Y1121156*
X1045586Y1121719*
X1045314Y1122094*
X1045041Y1122281*
X1044632*
X1046950D02*
Y1119656D01*
Y1121531D02*
X1047359Y1122094D01*
X1047632Y1122281*
X1048041*
X1048314Y1122094*
X1048450Y1121531*
Y1119656*
X1050086Y1123594D02*
Y1120406D01*
X1050223Y1119844*
X1050495Y1119656*
X1050768*
X1049677Y1122281D02*
X1050632D01*
X1051995D02*
Y1119656D01*
Y1121156D02*
X1052132Y1121719D01*
X1052405Y1122094*
X1052677Y1122281*
X1053086*
X1054995D02*
X1054723Y1122094D01*
X1054450Y1121719*
X1054314Y1121156*
Y1120781*
X1054450Y1120219*
X1054723Y1119844*
X1054995Y1119656*
X1055405*
X1055677Y1119844*
X1055950Y1120219*
X1056086Y1120781*
Y1121156*
X1055950Y1121719*
X1055677Y1122094*
X1055405Y1122281*
X1054995*
X1057314Y1123594D02*
Y1119656D01*
X1060586Y1122656D02*
X1060450Y1123031D01*
X1060177Y1123406*
X1059905Y1123594*
X1059359*
X1059086Y1123406*
X1058814Y1123031*
X1058677Y1122656*
X1058541Y1122094*
Y1121156*
X1058677Y1120594*
X1058814Y1120219*
X1059086Y1119844*
X1059359Y1119656*
X1059905*
X1060177Y1119844*
X1060450Y1120219*
X1060586Y1120594*
X1062905Y1123594D02*
X1061814Y1119656D01*
X1062905Y1123594D02*
X1063995Y1119656D01*
X1062223Y1120969D02*
X1063586D01*
X1065223Y1123594D02*
Y1119656D01*
Y1123594D02*
X1066450D01*
X1066859Y1123406*
X1066995Y1123219*
X1067132Y1122844*
Y1122469*
X1066995Y1122094*
X1066859Y1121906*
X1066450Y1121719*
X1065223*
X1066177D02*
X1067132Y1119656D01*
X1068359Y1123594D02*
Y1119656D01*
Y1123594D02*
X1069314D01*
X1069723Y1123406*
X1069995Y1123031*
X1070132Y1122656*
X1070268Y1122094*
Y1121156*
X1070132Y1120594*
X1069995Y1120219*
X1069723Y1119844*
X1069314Y1119656*
X1068359*
G54D60*
G74*
X0Y0D02*
M02*
