*
*
G04 PADS Layout (Build Number 2008.43.1) generated Gerber (RS-274-X) file*
G04 PC Version=2.1*
*
%IN "TEX024_TMDSCNCD28335PGF"*%
*
%MOIN*%
*
%FSLAX35Y35*%
*
*
*
*
G04 PC Standard Apertures*
*
*
G04 Thermal Relief Aperture macro.*
%AMTER*
1,1,$1,0,0*
1,0,$1-$2,0,0*
21,0,$3,$4,0,0,45*
21,0,$3,$4,0,0,135*
%
*
*
G04 Annular Aperture macro.*
%AMANN*
1,1,$1,0,0*
1,0,$2,0,0*
%
*
*
G04 Odd Aperture macro.*
%AMODD*
1,1,$1,0,0*
1,0,$1-0.005,0,0*
%
*
*
G04 PC Custom Aperture Macros*
*
*
*
*
*
*
G04 PC Aperture Table*
*
%ADD027C,0.01*%
%ADD028C,0.005*%
%ADD033C,0.008*%
%ADD042C,0.006*%
%ADD060C,0*%
*
*
*
*
G04 PC Circuitry*
G04 Layer Name TEX024_TMDSCNCD28335PGF - circuitry*
%LPD*%
*
*
G04 PC Custom Flashes*
G04 Layer Name TEX024_TMDSCNCD28335PGF - flashes*
%LPD*%
*
*
G04 PC Circuitry*
G04 Layer Name TEX024_TMDSCNCD28335PGF - circuitry*
%LPD*%
*
G54D27*
G01X1293580Y664184D02*
Y654341D01*
X1297670*
X1303466Y664184D02*
X1300739Y654341D01*
X1303466Y664184D02*
X1306193Y654341D01*
X1301761Y657622D02*
X1305170D01*
X1309261Y664184D02*
X1311989Y659497D01*
Y654341*
X1314716Y664184D02*
X1311989Y659497D01*
X1317784Y664184D02*
Y654341D01*
Y664184D02*
X1322216D01*
X1317784Y659497D02*
X1320511D01*
X1317784Y654341D02*
X1322216D01*
X1325284Y664184D02*
Y654341D01*
Y664184D02*
X1328352D01*
X1329375Y663716*
X1329716Y663247*
X1330057Y662309*
Y661372*
X1329716Y660434*
X1329375Y659966*
X1328352Y659497*
X1325284*
X1327670D02*
X1330057Y654341D01*
X1035078Y707903D02*
Y698060D01*
Y707903D02*
X1038146D01*
X1039169Y707435*
X1039509Y706966*
X1039850Y706028*
Y704622*
X1039509Y703685*
X1039169Y703216*
X1038146Y702747*
X1035078*
X1042919Y707903D02*
Y698060D01*
X1047691Y707903D02*
Y698060D01*
X1042919Y703216D02*
X1047691D01*
X1052805Y707903D02*
X1052123Y707435D01*
X1051441Y706497*
X1051100Y705560*
X1050759Y704153*
Y701810*
X1051100Y700403*
X1051441Y699466*
X1052123Y698528*
X1052805Y698060*
X1054169*
X1054850Y698528*
X1055532Y699466*
X1055873Y700403*
X1056214Y701810*
Y704153*
X1055873Y705560*
X1055532Y706497*
X1054850Y707435*
X1054169Y707903*
X1052805*
X1059282D02*
Y698060D01*
Y707903D02*
X1064055Y698060D01*
Y707903D02*
Y698060D01*
X1067123Y707903D02*
Y698060D01*
Y707903D02*
X1071555D01*
X1067123Y703216D02*
X1069850D01*
X1067123Y698060D02*
X1071555D01*
X1074964Y704622D02*
X1074623Y704153D01*
X1074964Y703685*
X1075305Y704153*
X1074964Y704622*
Y698997D02*
X1074623Y698528D01*
X1074964Y698060*
X1075305Y698528*
X1074964Y698997*
X1090646Y707903D02*
X1087237D01*
X1086896Y703685*
X1087237Y704153*
X1088259Y704622*
X1089282*
X1090305Y704153*
X1090987Y703216*
X1091328Y701810*
X1090987Y700872*
X1090646Y699466*
X1089964Y698528*
X1088941Y698060*
X1087919*
X1086896Y698528*
X1086555Y698997*
X1086214Y699935*
X1096441Y707903D02*
X1095419Y707435D01*
X1094737Y706028*
X1094396Y703685*
Y702278*
X1094737Y699935*
X1095419Y698528*
X1096441Y698060*
X1097123*
X1098146Y698528*
X1098828Y699935*
X1099169Y702278*
Y703685*
X1098828Y706028*
X1098146Y707435*
X1097123Y707903*
X1096441*
X1103941D02*
X1102919Y707435D01*
X1102578Y706497*
Y705560*
X1102919Y704622*
X1103600Y704153*
X1104964Y703685*
X1105987Y703216*
X1106669Y702278*
X1107009Y701341*
Y699935*
X1106669Y698997*
X1106328Y698528*
X1105305Y698060*
X1103941*
X1102919Y698528*
X1102578Y698997*
X1102237Y699935*
Y701341*
X1102578Y702278*
X1103259Y703216*
X1104282Y703685*
X1105646Y704153*
X1106328Y704622*
X1106669Y705560*
Y706497*
X1106328Y707435*
X1105305Y707903*
X1103941*
X1110419Y698997D02*
X1110078Y698528D01*
X1110419Y698060*
X1110759Y698528*
X1110419Y698997*
X1118259Y704622D02*
X1117919Y703216D01*
X1117237Y702278*
X1116214Y701810*
X1115873*
X1114850Y702278*
X1114169Y703216*
X1113828Y704622*
Y705091*
X1114169Y706497*
X1114850Y707435*
X1115873Y707903*
X1116214*
X1117237Y707435*
X1117919Y706497*
X1118259Y704622*
Y702278*
X1117919Y699935*
X1117237Y698528*
X1116214Y698060*
X1115532*
X1114509Y698528*
X1114169Y699466*
X1124737Y707903D02*
X1121328Y701341D01*
X1126441*
X1124737Y707903D02*
Y698060D01*
X1134282Y707903D02*
X1130873Y698060D01*
X1129509Y707903D02*
X1134282D01*
X1137691Y698997D02*
X1137350Y698528D01*
X1137691Y698060*
X1138032Y698528*
X1137691Y698997*
X1141441Y705560D02*
Y706028D01*
X1141782Y706966*
X1142123Y707435*
X1142805Y707903*
X1144169*
X1144850Y707435*
X1145191Y706966*
X1145532Y706028*
Y705091*
X1145191Y704153*
X1144509Y702747*
X1141100Y698060*
X1145873*
X1153714Y707903D02*
X1150305Y698060D01*
X1148941Y707903D02*
X1153714D01*
X1158828D02*
X1157805Y707435D01*
X1157123Y706028*
X1156782Y703685*
Y702278*
X1157123Y699935*
X1157805Y698528*
X1158828Y698060*
X1159509*
X1160532Y698528*
X1161214Y699935*
X1161555Y702278*
Y703685*
X1161214Y706028*
X1160532Y707435*
X1159509Y707903*
X1158828*
X1169055Y704622D02*
X1168714Y703216D01*
X1168032Y702278*
X1167009Y701810*
X1166669*
X1165646Y702278*
X1164964Y703216*
X1164623Y704622*
Y705091*
X1164964Y706497*
X1165646Y707435*
X1166669Y707903*
X1167009*
X1168032Y707435*
X1168714Y706497*
X1169055Y704622*
Y702278*
X1168714Y699935*
X1168032Y698528*
X1167009Y698060*
X1166328*
X1165305Y698528*
X1164964Y699466*
X1032578Y726403D02*
Y716560D01*
Y726403D02*
X1035305Y716560D01*
X1038032Y726403D02*
X1035305Y716560D01*
X1038032Y726403D02*
Y716560D01*
X1041100Y726403D02*
X1041441Y725935D01*
X1041782Y726403*
X1041441Y726872*
X1041100Y726403*
X1041441Y723122D02*
Y716560D01*
X1048941Y726403D02*
Y716560D01*
Y721716D02*
X1048259Y722653D01*
X1047578Y723122*
X1046555*
X1045873Y722653*
X1045191Y721716*
X1044850Y720310*
Y719372*
X1045191Y717966*
X1045873Y717028*
X1046555Y716560*
X1047578*
X1048259Y717028*
X1048941Y717966*
X1056100Y726403D02*
Y716560D01*
Y721716D02*
X1055419Y722653D01*
X1054737Y723122*
X1053714*
X1053032Y722653*
X1052350Y721716*
X1052009Y720310*
Y719372*
X1052350Y717966*
X1053032Y717028*
X1053714Y716560*
X1054737*
X1055419Y717028*
X1056100Y717966*
X1059169Y726403D02*
Y716560D01*
X1062237Y720310D02*
X1066328D01*
Y721247*
X1065987Y722185*
X1065646Y722653*
X1064964Y723122*
X1063941*
X1063259Y722653*
X1062578Y721716*
X1062237Y720310*
Y719372*
X1062578Y717966*
X1063259Y717028*
X1063941Y716560*
X1064964*
X1065646Y717028*
X1066328Y717966*
X1069396Y726403D02*
Y716560D01*
Y721716D02*
X1070078Y722653D01*
X1070759Y723122*
X1071782*
X1072464Y722653*
X1073146Y721716*
X1073487Y720310*
Y719372*
X1073146Y717966*
X1072464Y717028*
X1071782Y716560*
X1070759*
X1070078Y717028*
X1069396Y717966*
X1078259Y723122D02*
X1077578Y722653D01*
X1076896Y721716*
X1076555Y720310*
Y719372*
X1076896Y717966*
X1077578Y717028*
X1078259Y716560*
X1079282*
X1079964Y717028*
X1080646Y717966*
X1080987Y719372*
Y720310*
X1080646Y721716*
X1079964Y722653*
X1079282Y723122*
X1078259*
X1084055D02*
Y716560D01*
Y720310D02*
X1084396Y721716D01*
X1085078Y722653*
X1085759Y723122*
X1086782*
X1091555D02*
X1090873Y722653D01*
X1090191Y721716*
X1089850Y720310*
Y719372*
X1090191Y717966*
X1090873Y717028*
X1091555Y716560*
X1092578*
X1093259Y717028*
X1093941Y717966*
X1094282Y719372*
Y720310*
X1093941Y721716*
X1093259Y722653*
X1092578Y723122*
X1091555*
X1098032Y717028D02*
X1097691Y716560D01*
X1097350Y717028*
X1097691Y717497*
X1098032Y717028*
Y716091*
X1097691Y715153*
X1097350Y714685*
X1108941Y726403D02*
Y716560D01*
Y726403D02*
X1111669Y716560D01*
X1114396Y726403D02*
X1111669Y716560D01*
X1114396Y726403D02*
Y716560D01*
X1120191Y726403D02*
X1117464Y716560D01*
X1120191Y726403D02*
X1122919Y716560D01*
X1118487Y719841D02*
X1121896D01*
X1135873Y726403D02*
X1134850Y725935D01*
X1134169Y724528*
X1133828Y722185*
Y720778*
X1134169Y718435*
X1134850Y717028*
X1135873Y716560*
X1136555*
X1137578Y717028*
X1138259Y718435*
X1138600Y720778*
Y722185*
X1138259Y724528*
X1137578Y725935*
X1136555Y726403*
X1135873*
X1142009Y724060D02*
Y724528D01*
X1142350Y725466*
X1142691Y725935*
X1143373Y726403*
X1144737*
X1145419Y725935*
X1145759Y725466*
X1146100Y724528*
Y723591*
X1145759Y722653*
X1145078Y721247*
X1141669Y716560*
X1146441*
X1150191Y726403D02*
X1153941D01*
X1151896Y722653*
X1152919*
X1153600Y722185*
X1153941Y721716*
X1154282Y720310*
Y719372*
X1153941Y717966*
X1153259Y717028*
X1152237Y716560*
X1151214*
X1150191Y717028*
X1149850Y717497*
X1149509Y718435*
X1160759Y726403D02*
X1157350Y719841D01*
X1162464*
X1160759Y726403D02*
Y716560D01*
X1169623Y724997D02*
X1169282Y725935D01*
X1168259Y726403*
X1167578*
X1166555Y725935*
X1165873Y724528*
X1165532Y722185*
Y719841*
X1165873Y717966*
X1166555Y717028*
X1167578Y716560*
X1167919*
X1168941Y717028*
X1169623Y717966*
X1169964Y719372*
Y719841*
X1169623Y721247*
X1168941Y722185*
X1167919Y722653*
X1167578*
X1166555Y722185*
X1165873Y721247*
X1165532Y719841*
X1041078Y743028D02*
X1041759Y743497D01*
X1042782Y744903*
Y735060*
X1045850Y743028D02*
X1046532Y743497D01*
X1047555Y744903*
Y735060*
X1052328Y744903D02*
X1051305Y744435D01*
X1050964Y743497*
Y742560*
X1051305Y741622*
X1051987Y741153*
X1053350Y740685*
X1054373Y740216*
X1055055Y739278*
X1055396Y738341*
Y736935*
X1055055Y735997*
X1054714Y735528*
X1053691Y735060*
X1052328*
X1051305Y735528*
X1050964Y735997*
X1050623Y736935*
Y738341*
X1050964Y739278*
X1051646Y740216*
X1052669Y740685*
X1054032Y741153*
X1054714Y741622*
X1055055Y742560*
Y743497*
X1054714Y744435*
X1053691Y744903*
X1052328*
X1062896D02*
X1059487D01*
X1059146Y740685*
X1059487Y741153*
X1060509Y741622*
X1061532*
X1062555Y741153*
X1063237Y740216*
X1063578Y738810*
X1063237Y737872*
X1062896Y736466*
X1062214Y735528*
X1061191Y735060*
X1060169*
X1059146Y735528*
X1058805Y735997*
X1058464Y736935*
X1079600Y742560D02*
X1079259Y743497D01*
X1078578Y744435*
X1077896Y744903*
X1076532*
X1075850Y744435*
X1075169Y743497*
X1074828Y742560*
X1074487Y741153*
Y738810*
X1074828Y737403*
X1075169Y736466*
X1075850Y735528*
X1076532Y735060*
X1077896*
X1078578Y735528*
X1079259Y736466*
X1079600Y737403*
X1082669Y738810D02*
X1086759D01*
Y739747*
X1086419Y740685*
X1086078Y741153*
X1085396Y741622*
X1084373*
X1083691Y741153*
X1083009Y740216*
X1082669Y738810*
Y737872*
X1083009Y736466*
X1083691Y735528*
X1084373Y735060*
X1085396*
X1086078Y735528*
X1086759Y736466*
X1089828Y741622D02*
Y735060D01*
Y739747D02*
X1090850Y741153D01*
X1091532Y741622*
X1092555*
X1093237Y741153*
X1093578Y739747*
Y735060*
X1097669Y744903D02*
Y736935D01*
X1098009Y735528*
X1098691Y735060*
X1099373*
X1096646Y741622D02*
X1099032D01*
X1102441D02*
Y735060D01*
Y738810D02*
X1102782Y740216D01*
X1103464Y741153*
X1104146Y741622*
X1105169*
X1108237Y738810D02*
X1112328D01*
Y739747*
X1111987Y740685*
X1111646Y741153*
X1110964Y741622*
X1109941*
X1109259Y741153*
X1108578Y740216*
X1108237Y738810*
Y737872*
X1108578Y736466*
X1109259Y735528*
X1109941Y735060*
X1110964*
X1111646Y735528*
X1112328Y736466*
X1128009Y743497D02*
X1127328Y744435D01*
X1126305Y744903*
X1124941*
X1123919Y744435*
X1123237Y743497*
Y742560*
X1123578Y741622*
X1123919Y741153*
X1124600Y740685*
X1126646Y739747*
X1127328Y739278*
X1127669Y738810*
X1128009Y737872*
Y736466*
X1127328Y735528*
X1126305Y735060*
X1124941*
X1123919Y735528*
X1123237Y736466*
X1132100Y744903D02*
Y736935D01*
X1132441Y735528*
X1133123Y735060*
X1133805*
X1131078Y741622D02*
X1133464D01*
X1136873D02*
Y735060D01*
Y738810D02*
X1137214Y740216D01*
X1137896Y741153*
X1138578Y741622*
X1139600*
X1142669Y738810D02*
X1146759D01*
Y739747*
X1146419Y740685*
X1146078Y741153*
X1145396Y741622*
X1144373*
X1143691Y741153*
X1143009Y740216*
X1142669Y738810*
Y737872*
X1143009Y736466*
X1143691Y735528*
X1144373Y735060*
X1145396*
X1146078Y735528*
X1146759Y736466*
X1149828Y738810D02*
X1153919D01*
Y739747*
X1153578Y740685*
X1153237Y741153*
X1152555Y741622*
X1151532*
X1150850Y741153*
X1150169Y740216*
X1149828Y738810*
Y737872*
X1150169Y736466*
X1150850Y735528*
X1151532Y735060*
X1152555*
X1153237Y735528*
X1153919Y736466*
X1158009Y744903D02*
Y736935D01*
X1158350Y735528*
X1159032Y735060*
X1159714*
X1156987Y741622D02*
X1159373D01*
X1167591Y666513D02*
X1163045Y657762D01*
X1163045D02*
X1169864D01*
X1167591Y666513D02*
Y653387D01*
X1182136Y669013D02*
X1173955Y649012D01*
X1186682Y663388D02*
Y664013D01*
X1186682D02*
X1187136Y665263D01*
X1187136D02*
X1187591Y665888D01*
X1187591D02*
X1188500Y666513D01*
X1188500D02*
X1190318D01*
X1190318D02*
X1191227Y665888D01*
X1191227D02*
X1191682Y665263D01*
X1191682D02*
X1192136Y664013D01*
X1192136D02*
Y662763D01*
X1192136D02*
X1191682Y661513D01*
X1191682D02*
X1190773Y659637D01*
X1190773D02*
X1186227Y653387D01*
X1186227D02*
X1192591D01*
X1197136Y663388D02*
Y664013D01*
X1197136D02*
X1197591Y665263D01*
X1197591D02*
X1198045Y665888D01*
X1198045D02*
X1198955Y666513D01*
X1198955D02*
X1200773D01*
X1200773D02*
X1201682Y665888D01*
X1201682D02*
X1202136Y665263D01*
X1202136D02*
X1202591Y664013D01*
X1202591D02*
Y662763D01*
X1202591D02*
X1202136Y661513D01*
X1202136D02*
X1201227Y659637D01*
X1201227D02*
X1196682Y653387D01*
X1196682D02*
X1203045D01*
X1215318Y669013D02*
X1207136Y649012D01*
X1219409Y664013D02*
X1220318Y664638D01*
X1220318D02*
X1221682Y666513D01*
X1221682D02*
Y653387D01*
X1228500Y666513D02*
X1227136Y665888D01*
X1227136D02*
X1226227Y664013D01*
X1226227D02*
X1225773Y660887D01*
X1225773D02*
Y659012D01*
X1225773D02*
X1226227Y655887D01*
X1226227D02*
X1227136Y654012D01*
X1227136D02*
X1228500Y653387D01*
X1228500D02*
X1229409D01*
X1229409D02*
X1230773Y654012D01*
X1230773D02*
X1231682Y655887D01*
X1231682D02*
X1232136Y659012D01*
X1232136D02*
Y660887D01*
X1232136D02*
X1231682Y664013D01*
X1231682D02*
X1230773Y665888D01*
X1230773D02*
X1229409Y666513D01*
X1229409D02*
X1228500D01*
X838909Y666344D02*
Y658844D01*
X838568Y657438*
X838568D02*
X838227Y656969D01*
X837545Y656500*
X836864*
X836182Y656969*
X835841Y657438*
X835841D02*
X835500Y658844D01*
Y659781*
X843682Y663063D02*
X843000Y662594D01*
X842318Y661656*
X841977Y660250*
Y659313*
X841977D02*
X842318Y657906D01*
X843000Y656969*
X843682Y656500*
X844705*
X845386Y656969*
X846068Y657906*
X846409Y659313*
X846409D02*
Y660250D01*
X846068Y661656*
X845386Y662594*
X844705Y663063*
X844705D02*
X843682D01*
X849477Y666344D02*
Y656500D01*
Y661656D02*
X850159Y662594D01*
X850841Y663063*
X850841D02*
X851864D01*
X851864D02*
X852545Y662594D01*
X853227Y661656*
X853568Y660250*
Y659313*
X853568D02*
X853227Y657906D01*
X852545Y656969*
X851864Y656500*
X850841*
X850159Y656969*
X849477Y657906*
X864477Y666344D02*
Y656500D01*
Y666344D02*
X869250Y656500D01*
Y666344D02*
Y656500D01*
X874023Y663063D02*
X873341Y662594D01*
X872659Y661656*
X872318Y660250*
Y659313*
X872318D02*
X872659Y657906D01*
X873341Y656969*
X874023Y656500*
X875045*
X875727Y656969*
X876409Y657906*
X876750Y659313*
X876750D02*
Y660250D01*
X876409Y661656*
X875727Y662594*
X875045Y663063*
X875045D02*
X874023D01*
X880159D02*
X879818Y662594D01*
X880159Y662125*
X880500Y662594*
X880159Y663063*
Y657438D02*
X879818Y656969D01*
X880159Y656500*
X880500Y656969*
X880159Y657438*
X1041000Y663544D02*
Y653700D01*
Y663544D02*
X1043386D01*
X1044409Y663075*
X1045091Y662138*
X1045091D02*
X1045432Y661200D01*
X1045773Y659794*
Y657450*
X1045432Y656044*
X1045091Y655106*
X1044409Y654169*
X1043386Y653700*
X1041000*
X1052932Y660263D02*
Y653700D01*
Y658856D02*
X1052250Y659794D01*
X1051568Y660263*
X1051568D02*
X1050545D01*
X1050545D02*
X1049864Y659794D01*
X1049182Y658856*
X1048841Y657450*
Y656513*
X1048841D02*
X1049182Y655106D01*
X1049864Y654169*
X1050545Y653700*
X1051568*
X1052250Y654169*
X1052932Y655106*
X1057023Y663544D02*
Y655575D01*
X1057364Y654169*
X1058045Y653700*
X1058727*
X1056000Y660263D02*
X1058386D01*
X1061795Y657450D02*
X1065886D01*
Y658388*
X1065886D02*
X1065545Y659325D01*
X1065205Y659794*
X1064523Y660263*
X1064523D02*
X1063500D01*
X1063500D02*
X1062818Y659794D01*
X1062136Y658856*
X1061795Y657450*
Y656513*
X1061795D02*
X1062136Y655106D01*
X1062818Y654169*
X1063500Y653700*
X1064523*
X1065205Y654169*
X1065886Y655106*
X1069295Y660263D02*
X1068955Y659794D01*
X1069295Y659325*
X1069636Y659794*
X1069295Y660263*
Y654638D02*
X1068955Y654169D01*
X1069295Y653700*
X1069636Y654169*
X1069295Y654638*
X841305Y763403D02*
X838578Y753560D01*
X841305Y763403D02*
X844032Y753560D01*
X839600Y756841D02*
X843009D01*
X847100Y760122D02*
Y753560D01*
Y757310D02*
X847441Y758716D01*
X848123Y759653*
X848805Y760122*
X849828*
X853919Y763403D02*
Y755435D01*
X854259Y754028*
X854941Y753560*
X855623*
X852896Y760122D02*
X855282D01*
X858691D02*
X860055Y753560D01*
X861419Y760122D02*
X860055Y753560D01*
X861419Y760122D02*
X862782Y753560D01*
X864146Y760122D02*
X862782Y753560D01*
X868919Y760122D02*
X868237Y759653D01*
X867555Y758716*
X867214Y757310*
Y756372*
X867555Y754966*
X868237Y754028*
X868919Y753560*
X869941*
X870623Y754028*
X871305Y754966*
X871646Y756372*
Y757310*
X871305Y758716*
X870623Y759653*
X869941Y760122*
X868919*
X874714D02*
Y753560D01*
Y757310D02*
X875055Y758716D01*
X875737Y759653*
X876419Y760122*
X877441*
X880509Y763403D02*
Y753560D01*
X883919Y760122D02*
X880509Y755435D01*
X881873Y757310D02*
X884259Y753560D01*
X895169Y763403D02*
Y753560D01*
Y763403D02*
X897555D01*
X898578Y762935*
X899259Y761997*
X899600Y761060*
X899941Y759653*
Y757310*
X899600Y755903*
X899259Y754966*
X898578Y754028*
X897555Y753560*
X895169*
X903009Y757310D02*
X907100D01*
Y758247*
X906759Y759185*
X906419Y759653*
X905737Y760122*
X904714*
X904032Y759653*
X903350Y758716*
X903009Y757310*
Y756372*
X903350Y754966*
X904032Y754028*
X904714Y753560*
X905737*
X906419Y754028*
X907100Y754966*
X913919Y758716D02*
X913578Y759653D01*
X912555Y760122*
X911532*
X910509Y759653*
X910169Y758716*
X910509Y757778*
X911191Y757310*
X912896Y756841*
X913578Y756372*
X913919Y755435*
Y754966*
X913578Y754028*
X912555Y753560*
X911532*
X910509Y754028*
X910169Y754966*
X916987Y763403D02*
X917328Y762935D01*
X917669Y763403*
X917328Y763872*
X916987Y763403*
X917328Y760122D02*
Y753560D01*
X924828Y760122D02*
Y752622D01*
X924487Y751216*
X924146Y750747*
X923464Y750278*
X922441*
X921759Y750747*
X924828Y758716D02*
X924146Y759653D01*
X923464Y760122*
X922441*
X921759Y759653*
X921078Y758716*
X920737Y757310*
Y756372*
X921078Y754966*
X921759Y754028*
X922441Y753560*
X923464*
X924146Y754028*
X924828Y754966*
X927896Y760122D02*
Y753560D01*
Y758247D02*
X928919Y759653D01*
X929600Y760122*
X930623*
X931305Y759653*
X931646Y758247*
Y753560*
X934714Y757310D02*
X938805D01*
Y758247*
X938464Y759185*
X938123Y759653*
X937441Y760122*
X936419*
X935737Y759653*
X935055Y758716*
X934714Y757310*
Y756372*
X935055Y754966*
X935737Y754028*
X936419Y753560*
X937441*
X938123Y754028*
X938805Y754966*
X945964Y763403D02*
Y753560D01*
Y758716D02*
X945282Y759653D01*
X944600Y760122*
X943578*
X942896Y759653*
X942214Y758716*
X941873Y757310*
Y756372*
X942214Y754966*
X942896Y754028*
X943578Y753560*
X944600*
X945282Y754028*
X945964Y754966*
X956873Y763403D02*
Y753560D01*
Y763403D02*
X959941D01*
X960964Y762935*
X961305Y762466*
X961646Y761528*
Y760591*
X961305Y759653*
X960964Y759185*
X959941Y758716*
X956873D02*
X959941D01*
X960964Y758247*
X961305Y757778*
X961646Y756841*
Y755435*
X961305Y754497*
X960964Y754028*
X959941Y753560*
X956873*
X965055Y760122D02*
X967100Y753560D01*
X969146Y760122D02*
X967100Y753560D01*
X966419Y751685*
X965737Y750747*
X965055Y750278*
X964714*
X972555Y760122D02*
X972214Y759653D01*
X972555Y759185*
X972896Y759653*
X972555Y760122*
Y754497D02*
X972214Y754028D01*
X972555Y753560*
X972896Y754028*
X972555Y754497*
X983805Y763403D02*
X985509Y753560D01*
X987214Y763403D02*
X985509Y753560D01*
X987214Y763403D02*
X988919Y753560D01*
X990623Y763403D02*
X988919Y753560D01*
X993691Y763403D02*
X994032Y762935D01*
X994373Y763403*
X994032Y763872*
X993691Y763403*
X994032Y760122D02*
Y753560D01*
X997441Y763403D02*
Y753560D01*
X1000509Y763403D02*
Y753560D01*
X1005282Y760122D02*
X1004600Y759653D01*
X1003919Y758716*
X1003578Y757310*
Y756372*
X1003919Y754966*
X1004600Y754028*
X1005282Y753560*
X1006305*
X1006987Y754028*
X1007669Y754966*
X1008009Y756372*
Y757310*
X1007669Y758716*
X1006987Y759653*
X1006305Y760122*
X1005282*
X1011078D02*
X1012441Y753560D01*
X1013805Y760122D02*
X1012441Y753560D01*
X1013805Y760122D02*
X1015169Y753560D01*
X1016532Y760122D02*
X1015169Y753560D01*
X1032214Y761997D02*
X1031532Y762935D01*
X1030509Y763403*
X1029146*
X1028123Y762935*
X1027441Y761997*
Y761060*
X1027782Y760122*
X1028123Y759653*
X1028805Y759185*
X1030850Y758247*
X1031532Y757778*
X1031873Y757310*
X1032214Y756372*
Y754966*
X1031532Y754028*
X1030509Y753560*
X1029146*
X1028123Y754028*
X1027441Y754966*
X1035282Y760122D02*
Y750278D01*
Y758716D02*
X1035964Y759653D01*
X1036646Y760122*
X1037669*
X1038350Y759653*
X1039032Y758716*
X1039373Y757310*
Y756372*
X1039032Y754966*
X1038350Y754028*
X1037669Y753560*
X1036646*
X1035964Y754028*
X1035282Y754966*
X1042441Y760122D02*
Y753560D01*
Y757310D02*
X1042782Y758716D01*
X1043464Y759653*
X1044146Y760122*
X1045169*
X1048237Y763403D02*
X1048578Y762935D01*
X1048919Y763403*
X1048578Y763872*
X1048237Y763403*
X1048578Y760122D02*
Y753560D01*
X1051987Y760122D02*
Y753560D01*
Y758247D02*
X1053009Y759653D01*
X1053691Y760122*
X1054714*
X1055396Y759653*
X1055737Y758247*
Y753560*
X1062896Y760122D02*
Y752622D01*
X1062555Y751216*
X1062214Y750747*
X1061532Y750278*
X1060509*
X1059828Y750747*
X1062896Y758716D02*
X1062214Y759653D01*
X1061532Y760122*
X1060509*
X1059828Y759653*
X1059146Y758716*
X1058805Y757310*
Y756372*
X1059146Y754966*
X1059828Y754028*
X1060509Y753560*
X1061532*
X1062214Y754028*
X1062896Y754966*
X1076191Y763403D02*
Y753560D01*
X1073805Y763403D02*
X1078578D01*
X1081646Y757310D02*
X1085737D01*
Y758247*
X1085396Y759185*
X1085055Y759653*
X1084373Y760122*
X1083350*
X1082669Y759653*
X1081987Y758716*
X1081646Y757310*
Y756372*
X1081987Y754966*
X1082669Y754028*
X1083350Y753560*
X1084373*
X1085055Y754028*
X1085737Y754966*
X1092896Y758716D02*
X1092214Y759653D01*
X1091532Y760122*
X1090509*
X1089828Y759653*
X1089146Y758716*
X1088805Y757310*
Y756372*
X1089146Y754966*
X1089828Y754028*
X1090509Y753560*
X1091532*
X1092214Y754028*
X1092896Y754966*
X1095964Y763403D02*
Y753560D01*
Y758247D02*
X1096987Y759653D01*
X1097669Y760122*
X1098691*
X1099373Y759653*
X1099714Y758247*
Y753560*
X1102782Y760122D02*
Y753560D01*
Y758247D02*
X1103805Y759653D01*
X1104487Y760122*
X1105509*
X1106191Y759653*
X1106532Y758247*
Y753560*
X1109600Y763403D02*
X1109941Y762935D01*
X1110282Y763403*
X1109941Y763872*
X1109600Y763403*
X1109941Y760122D02*
Y753560D01*
X1117441Y758716D02*
X1116759Y759653D01*
X1116078Y760122*
X1115055*
X1114373Y759653*
X1113691Y758716*
X1113350Y757310*
Y756372*
X1113691Y754966*
X1114373Y754028*
X1115055Y753560*
X1116078*
X1116759Y754028*
X1117441Y754966*
X1124600Y760122D02*
Y753560D01*
Y758716D02*
X1123919Y759653D01*
X1123237Y760122*
X1122214*
X1121532Y759653*
X1120850Y758716*
X1120509Y757310*
Y756372*
X1120850Y754966*
X1121532Y754028*
X1122214Y753560*
X1123237*
X1123919Y754028*
X1124600Y754966*
X1127669Y763403D02*
Y753560D01*
X1143350Y761997D02*
X1142669Y762935D01*
X1141646Y763403*
X1140282*
X1139259Y762935*
X1138578Y761997*
Y761060*
X1138919Y760122*
X1139259Y759653*
X1139941Y759185*
X1141987Y758247*
X1142669Y757778*
X1143009Y757310*
X1143350Y756372*
Y754966*
X1142669Y754028*
X1141646Y753560*
X1140282*
X1139259Y754028*
X1138578Y754966*
X1146419Y757310D02*
X1150509D01*
Y758247*
X1150169Y759185*
X1149828Y759653*
X1149146Y760122*
X1148123*
X1147441Y759653*
X1146759Y758716*
X1146419Y757310*
Y756372*
X1146759Y754966*
X1147441Y754028*
X1148123Y753560*
X1149146*
X1149828Y754028*
X1150509Y754966*
X1153578Y760122D02*
Y753560D01*
Y757310D02*
X1153919Y758716D01*
X1154600Y759653*
X1155282Y760122*
X1156305*
X1159373D02*
X1161419Y753560D01*
X1163464Y760122D02*
X1161419Y753560D01*
X1166532Y763403D02*
X1166873Y762935D01*
X1167214Y763403*
X1166873Y763872*
X1166532Y763403*
X1166873Y760122D02*
Y753560D01*
X1174373Y758716D02*
X1173691Y759653D01*
X1173009Y760122*
X1171987*
X1171305Y759653*
X1170623Y758716*
X1170282Y757310*
Y756372*
X1170623Y754966*
X1171305Y754028*
X1171987Y753560*
X1173009*
X1173691Y754028*
X1174373Y754966*
X1177441Y757310D02*
X1181532D01*
Y758247*
X1181191Y759185*
X1180850Y759653*
X1180169Y760122*
X1179146*
X1178464Y759653*
X1177782Y758716*
X1177441Y757310*
Y756372*
X1177782Y754966*
X1178464Y754028*
X1179146Y753560*
X1180169*
X1180850Y754028*
X1181532Y754966*
X1188350Y758716D02*
X1188009Y759653D01*
X1186987Y760122*
X1185964*
X1184941Y759653*
X1184600Y758716*
X1184941Y757778*
X1185623Y757310*
X1187328Y756841*
X1188009Y756372*
X1188350Y755435*
Y754966*
X1188009Y754028*
X1186987Y753560*
X1185964*
X1184941Y754028*
X1184600Y754966*
X1204373Y761060D02*
X1204032Y761997D01*
X1203350Y762935*
X1202669Y763403*
X1201305*
X1200623Y762935*
X1199941Y761997*
X1199600Y761060*
X1199259Y759653*
Y757310*
X1199600Y755903*
X1199941Y754966*
X1200623Y754028*
X1201305Y753560*
X1202669*
X1203350Y754028*
X1204032Y754966*
X1204373Y755903*
X1209146Y760122D02*
X1208464Y759653D01*
X1207782Y758716*
X1207441Y757310*
Y756372*
X1207782Y754966*
X1208464Y754028*
X1209146Y753560*
X1210169*
X1210850Y754028*
X1211532Y754966*
X1211873Y756372*
Y757310*
X1211532Y758716*
X1210850Y759653*
X1210169Y760122*
X1209146*
X1214941D02*
Y753560D01*
Y757310D02*
X1215282Y758716D01*
X1215964Y759653*
X1216646Y760122*
X1217669*
X1220737D02*
Y750278D01*
Y758716D02*
X1221419Y759653D01*
X1222100Y760122*
X1223123*
X1223805Y759653*
X1224487Y758716*
X1224828Y757310*
Y756372*
X1224487Y754966*
X1223805Y754028*
X1223123Y753560*
X1222100*
X1221419Y754028*
X1220737Y754966*
X1228237Y754497D02*
X1227896Y754028D01*
X1228237Y753560*
X1228578Y754028*
X1228237Y754497*
X906455Y665513D02*
Y652387D01*
X903273Y665513D02*
X909636D01*
X913727D02*
Y652387D01*
Y665513D02*
X919636D01*
X913727Y659262D02*
X917364D01*
X913727Y652387D02*
X919636D01*
X923727Y665513D02*
X930091Y652387D01*
Y665513D02*
X923727Y652387D01*
X934636Y653637D02*
X934182Y653012D01*
X934182D02*
X934636Y652387D01*
X934636D02*
X935091Y653012D01*
X935091D02*
X934636Y653637D01*
X941909Y665513D02*
X940545Y664888D01*
X940545D02*
X939636Y663013D01*
X939636D02*
X939182Y659887D01*
X939182D02*
Y658012D01*
X939182D02*
X939636Y654887D01*
X939636D02*
X940545Y653012D01*
X940545D02*
X941909Y652387D01*
X941909D02*
X942818D01*
X942818D02*
X944182Y653012D01*
X944182D02*
X945091Y654887D01*
X945091D02*
X945545Y658012D01*
X945545D02*
Y659887D01*
X945545D02*
X945091Y663013D01*
X945091D02*
X944182Y664888D01*
X944182D02*
X942818Y665513D01*
X942818D02*
X941909D01*
X950091Y662388D02*
Y663013D01*
X950091D02*
X950545Y664263D01*
X950545D02*
X951000Y664888D01*
X951000D02*
X951909Y665513D01*
X951909D02*
X953727D01*
X953727D02*
X954636Y664888D01*
X954636D02*
X955091Y664263D01*
X955091D02*
X955545Y663013D01*
X955545D02*
Y661763D01*
X955545D02*
X955091Y660513D01*
X955091D02*
X954182Y658637D01*
X954182D02*
X949636Y652387D01*
X949636D02*
X956000D01*
X964636Y665513D02*
X960091Y656762D01*
X960091D02*
X966909D01*
X964636Y665513D02*
Y652387D01*
X1260727Y835044D02*
X1258000Y825200D01*
X1260727Y835044D02*
X1263455Y825200D01*
X1259023Y828481D02*
X1262432D01*
X1266523Y831763D02*
Y825200D01*
Y828950D02*
X1266864Y830356D01*
X1267545Y831294*
X1268227Y831763*
X1268227D02*
X1269250D01*
X1273341Y835044D02*
Y827075D01*
X1273682Y825669*
X1274364Y825200*
X1275045*
X1272318Y831763D02*
X1274705D01*
X1278114D02*
X1279477Y825200D01*
X1280841Y831763D02*
X1279477Y825200D01*
X1280841Y831763D02*
X1282205Y825200D01*
X1283568Y831763D02*
X1282205Y825200D01*
X1288341Y831763D02*
X1287659Y831294D01*
X1286977Y830356*
X1286636Y828950*
Y828013*
X1286636D02*
X1286977Y826606D01*
X1287659Y825669*
X1288341Y825200*
X1289364*
X1290045Y825669*
X1290727Y826606*
X1291068Y828013*
X1291068D02*
Y828950D01*
X1290727Y830356*
X1290045Y831294*
X1289364Y831763*
X1289364D02*
X1288341D01*
X1294136D02*
Y825200D01*
Y828950D02*
X1294477Y830356D01*
X1295159Y831294*
X1295841Y831763*
X1295841D02*
X1296864D01*
X1299932Y835044D02*
Y825200D01*
X1303341Y831763D02*
X1299932Y827075D01*
X1301295Y828950D02*
X1303682Y825200D01*
X1314591Y835044D02*
Y825200D01*
Y835044D02*
X1316977D01*
X1318000Y834575*
X1318682Y833638*
X1318682D02*
X1319023Y832700D01*
X1319364Y831294*
Y828950*
X1319023Y827544*
X1318682Y826606*
X1318000Y825669*
X1316977Y825200*
X1314591*
X1322432Y828950D02*
X1326523D01*
Y829888*
X1326523D02*
X1326182Y830825D01*
X1325841Y831294*
X1325159Y831763*
X1325159D02*
X1324136D01*
X1324136D02*
X1323455Y831294D01*
X1322773Y830356*
X1322432Y828950*
Y828013*
X1322432D02*
X1322773Y826606D01*
X1323455Y825669*
X1324136Y825200*
X1325159*
X1325841Y825669*
X1326523Y826606*
X1333341Y830356D02*
X1333000Y831294D01*
X1331977Y831763*
X1331977D02*
X1330955D01*
X1330955D02*
X1329932Y831294D01*
X1329591Y830356*
X1329932Y829419*
X1330614Y828950*
X1332318Y828481*
X1333000Y828013*
X1333000D02*
X1333341Y827075D01*
Y826606*
X1333000Y825669*
X1331977Y825200*
X1330955*
X1329932Y825669*
X1329591Y826606*
X1336409Y835044D02*
X1336750Y834575D01*
X1337091Y835044*
X1336750Y835513*
X1336750D02*
X1336409Y835044D01*
X1336750Y831763D02*
Y825200D01*
X1344250Y831763D02*
Y824262D01*
X1344250D02*
X1343909Y822856D01*
X1343568Y822387*
X1343568D02*
X1342886Y821919D01*
X1341864*
X1341182Y822387*
X1344250Y830356D02*
X1343568Y831294D01*
X1342886Y831763*
X1342886D02*
X1341864D01*
X1341864D02*
X1341182Y831294D01*
X1340500Y830356*
X1340159Y828950*
Y828013*
X1340159D02*
X1340500Y826606D01*
X1341182Y825669*
X1341864Y825200*
X1342886*
X1343568Y825669*
X1344250Y826606*
X1347318Y831763D02*
Y825200D01*
Y829888D02*
X1348341Y831294D01*
X1349023Y831763*
X1349023D02*
X1350045D01*
X1350045D02*
X1350727Y831294D01*
X1351068Y829888*
X1351068D02*
Y825200D01*
X1354136Y828950D02*
X1358227D01*
Y829888*
X1358227D02*
X1357886Y830825D01*
X1357545Y831294*
X1356864Y831763*
X1356864D02*
X1355841D01*
X1355841D02*
X1355159Y831294D01*
X1354477Y830356*
X1354136Y828950*
Y828013*
X1354136D02*
X1354477Y826606D01*
X1355159Y825669*
X1355841Y825200*
X1356864*
X1357545Y825669*
X1358227Y826606*
X1365386Y835044D02*
Y825200D01*
Y830356D02*
X1364705Y831294D01*
X1364023Y831763*
X1364023D02*
X1363000D01*
X1363000D02*
X1362318Y831294D01*
X1361636Y830356*
X1361295Y828950*
Y828013*
X1361295D02*
X1361636Y826606D01*
X1362318Y825669*
X1363000Y825200*
X1364023*
X1364705Y825669*
X1365386Y826606*
X1376295Y835044D02*
Y825200D01*
Y835044D02*
X1380727D01*
X1376295Y830356D02*
X1379023D01*
X1385500Y831763D02*
X1384818Y831294D01*
X1384136Y830356*
X1383795Y828950*
Y828013*
X1383795D02*
X1384136Y826606D01*
X1384818Y825669*
X1385500Y825200*
X1386523*
X1387205Y825669*
X1387886Y826606*
X1388227Y828013*
X1388227D02*
Y828950D01*
X1387886Y830356*
X1387205Y831294*
X1386523Y831763*
X1386523D02*
X1385500D01*
X1391295D02*
Y825200D01*
Y828950D02*
X1391636Y830356D01*
X1392318Y831294*
X1393000Y831763*
X1393000D02*
X1394023D01*
X1397432D02*
X1397091Y831294D01*
X1397432Y830825*
X1397773Y831294*
X1397432Y831763*
Y826138D02*
X1397091Y825669D01*
X1397432Y825200*
X1397773Y825669*
X1397432Y826138*
X1258000Y780044D02*
Y770200D01*
Y780044D02*
X1261068D01*
X1262091Y779575*
X1262432Y779106*
X1262773Y778169*
Y777231*
X1262432Y776294*
X1262091Y775825*
X1261068Y775356*
X1258000D02*
X1261068D01*
X1262091Y774888*
X1262091D02*
X1262432Y774419D01*
X1262773Y773481*
Y772075*
X1262432Y771138*
X1262432D02*
X1262091Y770669D01*
X1261068Y770200*
X1258000*
X1267545Y776763D02*
X1266864Y776294D01*
X1266182Y775356*
X1265841Y773950*
Y773013*
X1265841D02*
X1266182Y771606D01*
X1266864Y770669*
X1267545Y770200*
X1268568*
X1269250Y770669*
X1269932Y771606*
X1270273Y773013*
X1270273D02*
Y773950D01*
X1269932Y775356*
X1269250Y776294*
X1268568Y776763*
X1268568D02*
X1267545D01*
X1277432D02*
Y770200D01*
Y775356D02*
X1276750Y776294D01*
X1276068Y776763*
X1276068D02*
X1275045D01*
X1275045D02*
X1274364Y776294D01*
X1273682Y775356*
X1273341Y773950*
Y773013*
X1273341D02*
X1273682Y771606D01*
X1274364Y770669*
X1275045Y770200*
X1276068*
X1276750Y770669*
X1277432Y771606*
X1280500Y776763D02*
Y770200D01*
Y773950D02*
X1280841Y775356D01*
X1281523Y776294*
X1282205Y776763*
X1282205D02*
X1283227D01*
X1290386Y780044D02*
Y770200D01*
Y775356D02*
X1289705Y776294D01*
X1289023Y776763*
X1289023D02*
X1288000D01*
X1288000D02*
X1287318Y776294D01*
X1286636Y775356*
X1286295Y773950*
Y773013*
X1286295D02*
X1286636Y771606D01*
X1287318Y770669*
X1288000Y770200*
X1289023*
X1289705Y770669*
X1290386Y771606*
X1301295Y780044D02*
Y770200D01*
Y780044D02*
X1303682D01*
X1304705Y779575*
X1305386Y778638*
X1305386D02*
X1305727Y777700D01*
X1306068Y776294*
Y773950*
X1305727Y772544*
X1305386Y771606*
X1304705Y770669*
X1303682Y770200*
X1301295*
X1309136Y773950D02*
X1313227D01*
Y774888*
X1313227D02*
X1312886Y775825D01*
X1312545Y776294*
X1311864Y776763*
X1311864D02*
X1310841D01*
X1310841D02*
X1310159Y776294D01*
X1309477Y775356*
X1309136Y773950*
Y773013*
X1309136D02*
X1309477Y771606D01*
X1310159Y770669*
X1310841Y770200*
X1311864*
X1312545Y770669*
X1313227Y771606*
X1320045Y775356D02*
X1319705Y776294D01*
X1318682Y776763*
X1318682D02*
X1317659D01*
X1317659D02*
X1316636Y776294D01*
X1316295Y775356*
X1316636Y774419*
X1317318Y773950*
X1319023Y773481*
X1319705Y773013*
X1319705D02*
X1320045Y772075D01*
Y771606*
X1319705Y770669*
X1318682Y770200*
X1317659*
X1316636Y770669*
X1316295Y771606*
X1327205Y775356D02*
X1326523Y776294D01*
X1325841Y776763*
X1325841D02*
X1324818D01*
X1324818D02*
X1324136Y776294D01*
X1323455Y775356*
X1323114Y773950*
Y773013*
X1323114D02*
X1323455Y771606D01*
X1324136Y770669*
X1324818Y770200*
X1325841*
X1326523Y770669*
X1327205Y771606*
X1330273Y776763D02*
Y770200D01*
Y773950D02*
X1330614Y775356D01*
X1331295Y776294*
X1331977Y776763*
X1331977D02*
X1333000D01*
X1336068Y780044D02*
X1336409Y779575D01*
X1336750Y780044*
X1336409Y780513*
X1336409D02*
X1336068Y780044D01*
X1336409Y776763D02*
Y770200D01*
X1339818Y776763D02*
Y766919D01*
Y775356D02*
X1340500Y776294D01*
X1341182Y776763*
X1341182D02*
X1342205D01*
X1342205D02*
X1342886Y776294D01*
X1343568Y775356*
X1343909Y773950*
Y773013*
X1343909D02*
X1343568Y771606D01*
X1342886Y770669*
X1342205Y770200*
X1341182*
X1340500Y770669*
X1339818Y771606*
X1348000Y780044D02*
Y772075D01*
X1348341Y770669*
X1349023Y770200*
X1349705*
X1346977Y776763D02*
X1349364D01*
X1352773Y780044D02*
X1353114Y779575D01*
X1353455Y780044*
X1353114Y780513*
X1353114D02*
X1352773Y780044D01*
X1353114Y776763D02*
Y770200D01*
X1358227Y776763D02*
X1357545Y776294D01*
X1356864Y775356*
X1356523Y773950*
Y773013*
X1356523D02*
X1356864Y771606D01*
X1357545Y770669*
X1358227Y770200*
X1359250*
X1359932Y770669*
X1360614Y771606*
X1360955Y773013*
X1360955D02*
Y773950D01*
X1360614Y775356*
X1359932Y776294*
X1359250Y776763*
X1359250D02*
X1358227D01*
X1364023D02*
Y770200D01*
Y774888D02*
X1365045Y776294D01*
X1365727Y776763*
X1365727D02*
X1366750D01*
X1366750D02*
X1367432Y776294D01*
X1367773Y774888*
X1367773D02*
Y770200D01*
X1371182Y776763D02*
X1370841Y776294D01*
X1371182Y775825*
X1371523Y776294*
X1371182Y776763*
Y771138D02*
X1370841Y770669D01*
X1371182Y770200*
X1371523Y770669*
X1371182Y771138*
X1258000Y710044D02*
Y700200D01*
Y710044D02*
X1261068D01*
X1262091Y709575*
X1262432Y709106*
X1262773Y708169*
Y706763*
X1262773D02*
X1262432Y705825D01*
X1262091Y705356*
X1261068Y704888*
X1261068D02*
X1258000D01*
X1269932Y706763D02*
Y700200D01*
Y705356D02*
X1269250Y706294D01*
X1268568Y706763*
X1268568D02*
X1267545D01*
X1267545D02*
X1266864Y706294D01*
X1266182Y705356*
X1265841Y703950*
Y703013*
X1265841D02*
X1266182Y701606D01*
X1266864Y700669*
X1267545Y700200*
X1268568*
X1269250Y700669*
X1269932Y701606*
X1273000Y706763D02*
Y700200D01*
Y703950D02*
X1273341Y705356D01*
X1274023Y706294*
X1274705Y706763*
X1274705D02*
X1275727D01*
X1279818Y710044D02*
Y702075D01*
X1280159Y700669*
X1280841Y700200*
X1281523*
X1278795Y706763D02*
X1281182D01*
X1292432Y710044D02*
Y700200D01*
Y710044D02*
X1297205Y700200D01*
Y710044D02*
Y700200D01*
X1301977Y706763D02*
X1301295Y706294D01*
X1300614Y705356*
X1300273Y703950*
Y703013*
X1300273D02*
X1300614Y701606D01*
X1301295Y700669*
X1301977Y700200*
X1303000*
X1303682Y700669*
X1304364Y701606*
X1304705Y703013*
X1304705D02*
Y703950D01*
X1304364Y705356*
X1303682Y706294*
X1303000Y706763*
X1303000D02*
X1301977D01*
X1308114D02*
X1307773Y706294D01*
X1308114Y705825*
X1308455Y706294*
X1308114Y706763*
Y701138D02*
X1307773Y700669D01*
X1308114Y700200*
X1308455Y700669*
X1308114Y701138*
X1558000Y710044D02*
Y700200D01*
Y710044D02*
X1561068D01*
X1562091Y709575*
X1562432Y709106*
X1562773Y708169*
Y707231*
X1562432Y706294*
X1562091Y705825*
X1561068Y705356*
X1558000*
X1560386D02*
X1562773Y700200D01*
X1565841Y703950D02*
X1569932D01*
Y704888*
X1569932D02*
X1569591Y705825D01*
X1569250Y706294*
X1568568Y706763*
X1568568D02*
X1567545D01*
X1567545D02*
X1566864Y706294D01*
X1566182Y705356*
X1565841Y703950*
Y703013*
X1565841D02*
X1566182Y701606D01*
X1566864Y700669*
X1567545Y700200*
X1568568*
X1569250Y700669*
X1569932Y701606*
X1573000Y706763D02*
X1575045Y700200D01*
X1577091Y706763D02*
X1575045Y700200D01*
X1580159Y710044D02*
X1580500Y709575D01*
X1580841Y710044*
X1580500Y710513*
X1580500D02*
X1580159Y710044D01*
X1580500Y706763D02*
Y700200D01*
X1587659Y705356D02*
X1587318Y706294D01*
X1586295Y706763*
X1586295D02*
X1585273D01*
X1585273D02*
X1584250Y706294D01*
X1583909Y705356*
X1584250Y704419*
X1584932Y703950*
X1586636Y703481*
X1587318Y703013*
X1587318D02*
X1587659Y702075D01*
Y701606*
X1587318Y700669*
X1586295Y700200*
X1585273*
X1584250Y700669*
X1583909Y701606*
X1590727Y710044D02*
X1591068Y709575D01*
X1591409Y710044*
X1591068Y710513*
X1591068D02*
X1590727Y710044D01*
X1591068Y706763D02*
Y700200D01*
X1596182Y706763D02*
X1595500Y706294D01*
X1594818Y705356*
X1594477Y703950*
Y703013*
X1594477D02*
X1594818Y701606D01*
X1595500Y700669*
X1596182Y700200*
X1597205*
X1597886Y700669*
X1598568Y701606*
X1598909Y703013*
X1598909D02*
Y703950D01*
X1598568Y705356*
X1597886Y706294*
X1597205Y706763*
X1597205D02*
X1596182D01*
X1601977D02*
Y700200D01*
Y704888D02*
X1603000Y706294D01*
X1603682Y706763*
X1603682D02*
X1604705D01*
X1604705D02*
X1605386Y706294D01*
X1605727Y704888*
X1605727D02*
Y700200D01*
X1609136Y706763D02*
X1608795Y706294D01*
X1609136Y705825*
X1609477Y706294*
X1609136Y706763*
Y701138D02*
X1608795Y700669D01*
X1609136Y700200*
X1609477Y700669*
X1609136Y701138*
X1356182Y698325D02*
Y685200D01*
X1353000Y698325D02*
X1359364D01*
X1363455D02*
Y685200D01*
Y698325D02*
X1367091Y685200D01*
X1370727Y698325D02*
X1367091Y685200D01*
X1370727Y698325D02*
Y685200D01*
X1374818Y698325D02*
Y685200D01*
Y698325D02*
X1378000D01*
X1379364Y697700*
X1380273Y696450*
X1380727Y695200*
X1381182Y693325*
Y690200*
X1380727Y688325*
X1380273Y687075*
X1379364Y685825*
X1378000Y685200*
X1374818*
X1391636Y696450D02*
X1390727Y697700D01*
X1389364Y698325*
X1387545*
X1386182Y697700*
X1385273Y696450*
Y695200*
X1385727Y693950*
X1386182Y693325*
X1387091Y692700*
X1389818Y691450*
X1390727Y690825*
X1391182Y690200*
X1391636Y688950*
Y687075*
X1390727Y685825*
X1389364Y685200*
X1387545*
X1386182Y685825*
X1385273Y687075*
X1402545Y695200D02*
X1402091Y696450D01*
X1401182Y697700*
X1400273Y698325*
X1398455*
X1397545Y697700*
X1396636Y696450*
X1396182Y695200*
X1395727Y693325*
Y690200*
X1396182Y688325*
X1396636Y687075*
X1397545Y685825*
X1398455Y685200*
X1400273*
X1401182Y685825*
X1402091Y687075*
X1402545Y688325*
X1406636Y698325D02*
Y685200D01*
Y698325D02*
X1413000Y685200D01*
Y698325D02*
Y685200D01*
X1423909Y695200D02*
X1423455Y696450D01*
X1422545Y697700*
X1421636Y698325*
X1419818*
X1418909Y697700*
X1418000Y696450*
X1417545Y695200*
X1417091Y693325*
Y690200*
X1417545Y688325*
X1418000Y687075*
X1418909Y685825*
X1419818Y685200*
X1421636*
X1422545Y685825*
X1423455Y687075*
X1423909Y688325*
X1428000Y698325D02*
Y685200D01*
Y698325D02*
X1431182D01*
X1432545Y697700*
X1433455Y696450*
X1433909Y695200*
X1434364Y693325*
Y690200*
X1433909Y688325*
X1433455Y687075*
X1432545Y685825*
X1431182Y685200*
X1428000*
X1438909Y695200D02*
Y695825D01*
X1439364Y697075*
X1439818Y697700*
X1440727Y698325*
X1442545*
X1443455Y697700*
X1443909Y697075*
X1444364Y695825*
Y694575*
X1443909Y693325*
X1443000Y691450*
X1438455Y685200*
X1444818*
X1451182Y698325D02*
X1449818Y697700D01*
X1449364Y696450*
Y695200*
X1449818Y693950*
X1450727Y693325*
X1452545Y692700*
X1453909Y692075*
X1454818Y690825*
X1455273Y689575*
Y687700*
X1454818Y686450*
X1454364Y685825*
X1453000Y685200*
X1451182*
X1449818Y685825*
X1449364Y686450*
X1448909Y687700*
Y689575*
X1449364Y690825*
X1450273Y692075*
X1451636Y692700*
X1453455Y693325*
X1454364Y693950*
X1454818Y695200*
Y696450*
X1454364Y697700*
X1453000Y698325*
X1451182*
X1460273D02*
X1465273D01*
X1462545Y693325*
X1463909*
X1464818Y692700*
X1465273Y692075*
X1465727Y690200*
Y688950*
X1465273Y687075*
X1464364Y685825*
X1463000Y685200*
X1461636*
X1460273Y685825*
X1459818Y686450*
X1459364Y687700*
X1470727Y698325D02*
X1475727D01*
X1473000Y693325*
X1474364*
X1475273Y692700*
X1475727Y692075*
X1476182Y690200*
Y688950*
X1475727Y687075*
X1474818Y685825*
X1473455Y685200*
X1472091*
X1470727Y685825*
X1470273Y686450*
X1469818Y687700*
X1486182Y698325D02*
X1481636D01*
X1481182Y692700*
X1481636Y693325*
X1483000Y693950*
X1484364*
X1485727Y693325*
X1486636Y692075*
X1487091Y690200*
X1486636Y688950*
X1486182Y687075*
X1485273Y685825*
X1483909Y685200*
X1482545*
X1481182Y685825*
X1480727Y686450*
X1480273Y687700*
X1491182Y698325D02*
Y685200D01*
Y698325D02*
X1495273D01*
X1496636Y697700*
X1497091Y697075*
X1497545Y695825*
Y693950*
X1497091Y692700*
X1496636Y692075*
X1495273Y691450*
X1491182*
X1508455Y695200D02*
X1508000Y696450D01*
X1507091Y697700*
X1506182Y698325*
X1504364*
X1503455Y697700*
X1502545Y696450*
X1502091Y695200*
X1501636Y693325*
Y690200*
X1502091Y688325*
X1502545Y687075*
X1503455Y685825*
X1504364Y685200*
X1506182*
X1507091Y685825*
X1508000Y687075*
X1508455Y688325*
Y690200*
X1506182D02*
X1508455D01*
X1512545Y698325D02*
Y685200D01*
Y698325D02*
X1518455D01*
X1512545Y692075D02*
X1516182D01*
X1629727Y699813D02*
X1630636Y700438D01*
X1630636D02*
X1632000Y702313D01*
X1632000D02*
Y689187D01*
X1636545Y690437D02*
X1636091Y689812D01*
X1636091D02*
X1636545Y689187D01*
X1636545D02*
X1637000Y689812D01*
X1637000D02*
X1636545Y690437D01*
X1643818Y702313D02*
X1642455Y701688D01*
X1642455D02*
X1641545Y699813D01*
X1641545D02*
X1641091Y696687D01*
X1641091D02*
Y694812D01*
X1641091D02*
X1641545Y691687D01*
X1641545D02*
X1642455Y689812D01*
X1642455D02*
X1643818Y689187D01*
X1643818D02*
X1644727D01*
X1644727D02*
X1646091Y689812D01*
X1646091D02*
X1647000Y691687D01*
X1647000D02*
X1647455Y694812D01*
X1647455D02*
Y696687D01*
X1647455D02*
X1647000Y699813D01*
X1647000D02*
X1646091Y701688D01*
X1646091D02*
X1644727Y702313D01*
X1644727D02*
X1643818D01*
X1399545Y810513D02*
Y797387D01*
X1396364Y810513D02*
X1402727D01*
X1406818Y802387D02*
X1412273D01*
X1412273D02*
Y803637D01*
X1412273D02*
X1411818Y804887D01*
X1411818D02*
X1411364Y805513D01*
X1411364D02*
X1410455Y806138D01*
X1410455D02*
X1409091D01*
X1409091D02*
X1408182Y805513D01*
X1408182D02*
X1407273Y804262D01*
X1407273D02*
X1406818Y802387D01*
X1406818D02*
Y801137D01*
X1406818D02*
X1407273Y799262D01*
X1407273D02*
X1408182Y798012D01*
X1408182D02*
X1409091Y797387D01*
X1409091D02*
X1410455D01*
X1410455D02*
X1411364Y798012D01*
X1411364D02*
X1412273Y799262D01*
X1416364Y806138D02*
X1421364Y797387D01*
Y806138D02*
X1416364Y797387D01*
X1430909Y806138D02*
Y797387D01*
Y804262D02*
X1430000Y805513D01*
X1430000D02*
X1429091Y806138D01*
X1429091D02*
X1427727D01*
X1427727D02*
X1426818Y805513D01*
X1426818D02*
X1425909Y804262D01*
X1425909D02*
X1425455Y802387D01*
X1425455D02*
Y801137D01*
X1425455D02*
X1425909Y799262D01*
X1425909D02*
X1426818Y798012D01*
X1426818D02*
X1427727Y797387D01*
X1427727D02*
X1429091D01*
X1429091D02*
X1430000Y798012D01*
X1430000D02*
X1430909Y799262D01*
X1440000Y804262D02*
X1439545Y805513D01*
X1439545D02*
X1438182Y806138D01*
X1438182D02*
X1436818D01*
X1436818D02*
X1435455Y805513D01*
X1435455D02*
X1435000Y804262D01*
X1435000D02*
X1435455Y803012D01*
X1435455D02*
X1436364Y802387D01*
X1436364D02*
X1438636Y801762D01*
X1438636D02*
X1439545Y801137D01*
X1439545D02*
X1440000Y799887D01*
X1440000D02*
Y799262D01*
X1440000D02*
X1439545Y798012D01*
X1439545D02*
X1438182Y797387D01*
X1438182D02*
X1436818D01*
X1436818D02*
X1435455Y798012D01*
X1435455D02*
X1435000Y799262D01*
X1454545Y810513D02*
Y797387D01*
X1458636Y806138D02*
Y797387D01*
Y803637D02*
X1460000Y805513D01*
X1460000D02*
X1460909Y806138D01*
X1460909D02*
X1462273D01*
X1462273D02*
X1463182Y805513D01*
X1463182D02*
X1463636Y803637D01*
X1463636D02*
Y797387D01*
X1472727Y804262D02*
X1472273Y805513D01*
X1472273D02*
X1470909Y806138D01*
X1470909D02*
X1469545D01*
X1469545D02*
X1468182Y805513D01*
X1468182D02*
X1467727Y804262D01*
X1467727D02*
X1468182Y803012D01*
X1468182D02*
X1469091Y802387D01*
X1469091D02*
X1471364Y801762D01*
X1471364D02*
X1472273Y801137D01*
X1472273D02*
X1472727Y799887D01*
X1472727D02*
Y799262D01*
X1472727D02*
X1472273Y798012D01*
X1472273D02*
X1470909Y797387D01*
X1470909D02*
X1469545D01*
X1469545D02*
X1468182Y798012D01*
X1468182D02*
X1467727Y799262D01*
X1478182Y810513D02*
Y799887D01*
X1478182D02*
X1478636Y798012D01*
X1478636D02*
X1479545Y797387D01*
X1479545D02*
X1480455D01*
X1476818Y806138D02*
X1480000D01*
X1484545D02*
Y797387D01*
Y802387D02*
X1485000Y804262D01*
X1485000D02*
X1485909Y805513D01*
X1485909D02*
X1486818Y806138D01*
X1486818D02*
X1488182D01*
X1492273D02*
Y799887D01*
X1492273D02*
X1492727Y798012D01*
X1492727D02*
X1493636Y797387D01*
X1493636D02*
X1495000D01*
X1495000D02*
X1495909Y798012D01*
X1495909D02*
X1497273Y799887D01*
Y806138D02*
Y797387D01*
X1501364Y806138D02*
Y797387D01*
Y803637D02*
X1502727Y805513D01*
X1502727D02*
X1503636Y806138D01*
X1503636D02*
X1505000D01*
X1505000D02*
X1505909Y805513D01*
X1505909D02*
X1506364Y803637D01*
X1506364D02*
Y797387D01*
Y803637D02*
X1507727Y805513D01*
X1507727D02*
X1508636Y806138D01*
X1508636D02*
X1510000D01*
X1510000D02*
X1510909Y805513D01*
X1510909D02*
X1511364Y803637D01*
X1511364D02*
Y797387D01*
X1515455Y802387D02*
X1520909D01*
X1520909D02*
Y803637D01*
X1520909D02*
X1520455Y804887D01*
X1520455D02*
X1520000Y805513D01*
X1520000D02*
X1519091Y806138D01*
X1519091D02*
X1517727D01*
X1517727D02*
X1516818Y805513D01*
X1516818D02*
X1515909Y804262D01*
X1515909D02*
X1515455Y802387D01*
X1515455D02*
Y801137D01*
X1515455D02*
X1515909Y799262D01*
X1515909D02*
X1516818Y798012D01*
X1516818D02*
X1517727Y797387D01*
X1517727D02*
X1519091D01*
X1519091D02*
X1520000Y798012D01*
X1520000D02*
X1520909Y799262D01*
X1525000Y806138D02*
Y797387D01*
Y803637D02*
X1526364Y805513D01*
X1526364D02*
X1527273Y806138D01*
X1527273D02*
X1528636D01*
X1528636D02*
X1529545Y805513D01*
X1529545D02*
X1530000Y803637D01*
X1530000D02*
Y797387D01*
X1535455Y810513D02*
Y799887D01*
X1535455D02*
X1535909Y798012D01*
X1535909D02*
X1536818Y797387D01*
X1536818D02*
X1537727D01*
X1534091Y806138D02*
X1537273D01*
X1546818Y804262D02*
X1546364Y805513D01*
X1546364D02*
X1545000Y806138D01*
X1545000D02*
X1543636D01*
X1543636D02*
X1542273Y805513D01*
X1542273D02*
X1541818Y804262D01*
X1541818D02*
X1542273Y803012D01*
X1542273D02*
X1543182Y802387D01*
X1543182D02*
X1545455Y801762D01*
X1545455D02*
X1546364Y801137D01*
X1546364D02*
X1546818Y799887D01*
X1546818D02*
Y799262D01*
X1546818D02*
X1546364Y798012D01*
X1546364D02*
X1545000Y797387D01*
X1545000D02*
X1543636D01*
X1543636D02*
X1542273Y798012D01*
X1542273D02*
X1541818Y799262D01*
X1360032Y749372D02*
Y736247D01*
Y749372D02*
X1365941D01*
X1360032Y743122D02*
X1363669D01*
X1370487Y746247D02*
Y746872D01*
X1370941Y748122*
X1371396Y748747*
X1372305Y749372*
X1374123*
X1375032Y748747*
X1375487Y748122*
X1375941Y746872*
Y745622*
X1375487Y744372*
X1374578Y742497*
X1370032Y736247*
X1376396*
X1382759Y749372D02*
X1381396Y748747D01*
X1380941Y747497*
Y746247*
X1381396Y744997*
X1382305Y744372*
X1384123Y743747*
X1385487Y743122*
X1386396Y741872*
X1386850Y740622*
Y738747*
X1386396Y737497*
X1385941Y736872*
X1384578Y736247*
X1382759*
X1381396Y736872*
X1380941Y737497*
X1380487Y738747*
Y740622*
X1380941Y741872*
X1381850Y743122*
X1383214Y743747*
X1385032Y744372*
X1385941Y744997*
X1386396Y746247*
Y747497*
X1385941Y748747*
X1384578Y749372*
X1382759*
X1391850D02*
X1396850D01*
X1394123Y744372*
X1395487*
X1396396Y743747*
X1396850Y743122*
X1397305Y741247*
Y739997*
X1396850Y738122*
X1395941Y736872*
X1394578Y736247*
X1393214*
X1391850Y736872*
X1391396Y737497*
X1390941Y738747*
X1402305Y749372D02*
X1407305D01*
X1404578Y744372*
X1405941*
X1406850Y743747*
X1407305Y743122*
X1407759Y741247*
Y739997*
X1407305Y738122*
X1406396Y736872*
X1405032Y736247*
X1403669*
X1402305Y736872*
X1401850Y737497*
X1401396Y738747*
X1417759Y749372D02*
X1413214D01*
X1412759Y743747*
X1413214Y744372*
X1414578Y744997*
X1415941*
X1417305Y744372*
X1418214Y743122*
X1418669Y741247*
X1418214Y739997*
X1417759Y738122*
X1416850Y736872*
X1415487Y736247*
X1414123*
X1412759Y736872*
X1412305Y737497*
X1411850Y738747*
X1433214Y749372D02*
Y736247D01*
Y749372D02*
X1437305D01*
X1438669Y748747*
X1439123Y748122*
X1439578Y746872*
Y744997*
X1439123Y743747*
X1438669Y743122*
X1437305Y742497*
X1433214*
X1450487Y746247D02*
X1450032Y747497D01*
X1449123Y748747*
X1448214Y749372*
X1446396*
X1445487Y748747*
X1444578Y747497*
X1444123Y746247*
X1443669Y744372*
Y741247*
X1444123Y739372*
X1444578Y738122*
X1445487Y736872*
X1446396Y736247*
X1448214*
X1449123Y736872*
X1450032Y738122*
X1450487Y739372*
Y741247*
X1448214D02*
X1450487D01*
X1454578Y749372D02*
Y736247D01*
Y749372D02*
X1460487D01*
X1454578Y743122D02*
X1458214D01*
X1480487D02*
X1479578Y744372D01*
X1478669Y744997*
X1477305*
X1476396Y744372*
X1475487Y743122*
X1475032Y741247*
Y739997*
X1475487Y738122*
X1476396Y736872*
X1477305Y736247*
X1478669*
X1479578Y736872*
X1480487Y738122*
X1486850Y744997D02*
X1485941Y744372D01*
X1485032Y743122*
X1484578Y741247*
Y739997*
X1485032Y738122*
X1485941Y736872*
X1486850Y736247*
X1488214*
X1489123Y736872*
X1490032Y738122*
X1490487Y739997*
Y741247*
X1490032Y743122*
X1489123Y744372*
X1488214Y744997*
X1486850*
X1494578D02*
Y736247D01*
Y742497D02*
X1495941Y744372D01*
X1496850Y744997*
X1498214*
X1499123Y744372*
X1499578Y742497*
Y736247*
X1505032Y749372D02*
Y738747D01*
X1505487Y736872*
X1506396Y736247*
X1507305*
X1503669Y744997D02*
X1506850D01*
X1511396D02*
Y736247D01*
Y741247D02*
X1511850Y743122D01*
X1512759Y744372*
X1513669Y744997*
X1515032*
X1521396D02*
X1520487Y744372D01*
X1519578Y743122*
X1519123Y741247*
Y739997*
X1519578Y738122*
X1520487Y736872*
X1521396Y736247*
X1522759*
X1523669Y736872*
X1524578Y738122*
X1525032Y739997*
Y741247*
X1524578Y743122*
X1523669Y744372*
X1522759Y744997*
X1521396*
X1529123Y749372D02*
Y736247D01*
X1540032Y746247D02*
X1539578Y747497D01*
X1538669Y748747*
X1537759Y749372*
X1535941*
X1535032Y748747*
X1534123Y747497*
X1533669Y746247*
X1533214Y744372*
Y741247*
X1533669Y739372*
X1534123Y738122*
X1535032Y736872*
X1535941Y736247*
X1537759*
X1538669Y736872*
X1539578Y738122*
X1540032Y739372*
X1547759Y749372D02*
X1544123Y736247D01*
X1547759Y749372D02*
X1551396Y736247D01*
X1545487Y740622D02*
X1550032D01*
X1555487Y749372D02*
Y736247D01*
Y749372D02*
X1559578D01*
X1560941Y748747*
X1561396Y748122*
X1561850Y746872*
Y745622*
X1561396Y744372*
X1560941Y743747*
X1559578Y743122*
X1555487*
X1558669D02*
X1561850Y736247D01*
X1565941Y749372D02*
Y736247D01*
Y749372D02*
X1569123D01*
X1570487Y748747*
X1571396Y747497*
X1571850Y746247*
X1572305Y744372*
Y741247*
X1571850Y739372*
X1571396Y738122*
X1570487Y736872*
X1569123Y736247*
X1565941*
X1471091Y662578D02*
X1470409Y663516D01*
X1469386Y663984*
X1468023*
X1467000Y663516*
X1466318Y662578*
Y661641*
X1466659Y660703*
X1467000Y660234*
X1467682Y659766*
X1469727Y658828*
X1470409Y658359*
X1470750Y657891*
X1471091Y656953*
Y655547*
X1470409Y654609*
X1469386Y654141*
X1468023*
X1467000Y654609*
X1466318Y655547*
X1474159Y657891D02*
X1478250D01*
Y658828*
X1477909Y659766*
X1477568Y660234*
X1476886Y660703*
X1475864*
X1475182Y660234*
X1474500Y659297*
X1474159Y657891*
Y656953*
X1474500Y655547*
X1475182Y654609*
X1475864Y654141*
X1476886*
X1477568Y654609*
X1478250Y655547*
X1485409Y659297D02*
X1484727Y660234D01*
X1484045Y660703*
X1483023*
X1482341Y660234*
X1481659Y659297*
X1481318Y657891*
Y656953*
X1481659Y655547*
X1482341Y654609*
X1483023Y654141*
X1484045*
X1484727Y654609*
X1485409Y655547*
X1490182Y660703D02*
X1489500Y660234D01*
X1488818Y659297*
X1488477Y657891*
Y656953*
X1488818Y655547*
X1489500Y654609*
X1490182Y654141*
X1491205*
X1491886Y654609*
X1492568Y655547*
X1492909Y656953*
Y657891*
X1492568Y659297*
X1491886Y660234*
X1491205Y660703*
X1490182*
X1495977D02*
Y654141D01*
Y658828D02*
X1497000Y660234D01*
X1497682Y660703*
X1498705*
X1499386Y660234*
X1499727Y658828*
Y654141*
X1506886Y663984D02*
Y654141D01*
Y659297D02*
X1506205Y660234D01*
X1505523Y660703*
X1504500*
X1503818Y660234*
X1503136Y659297*
X1502795Y657891*
Y656953*
X1503136Y655547*
X1503818Y654609*
X1504500Y654141*
X1505523*
X1506205Y654609*
X1506886Y655547*
X1514045Y660703D02*
Y654141D01*
Y659297D02*
X1513364Y660234D01*
X1512682Y660703*
X1511659*
X1510977Y660234*
X1510295Y659297*
X1509955Y657891*
Y656953*
X1510295Y655547*
X1510977Y654609*
X1511659Y654141*
X1512682*
X1513364Y654609*
X1514045Y655547*
X1517114Y660703D02*
Y654141D01*
Y657891D02*
X1517455Y659297D01*
X1518136Y660234*
X1518818Y660703*
X1519841*
X1523250D02*
X1525295Y654141D01*
X1527341Y660703D02*
X1525295Y654141D01*
X1524614Y652266*
X1523932Y651328*
X1523250Y650859*
X1522909*
X1543023Y662578D02*
X1542341Y663516D01*
X1541318Y663984*
X1539955*
X1538932Y663516*
X1538250Y662578*
Y661641*
X1538591Y660703*
X1538932Y660234*
X1539614Y659766*
X1541659Y658828*
X1542341Y658359*
X1542682Y657891*
X1543023Y656953*
Y655547*
X1542341Y654609*
X1541318Y654141*
X1539955*
X1538932Y654609*
X1538250Y655547*
X1546091Y663984D02*
X1546432Y663516D01*
X1546773Y663984*
X1546432Y664453*
X1546091Y663984*
X1546432Y660703D02*
Y654141D01*
X1553932Y663984D02*
Y654141D01*
Y659297D02*
X1553250Y660234D01*
X1552568Y660703*
X1551545*
X1550864Y660234*
X1550182Y659297*
X1549841Y657891*
Y656953*
X1550182Y655547*
X1550864Y654609*
X1551545Y654141*
X1552568*
X1553250Y654609*
X1553932Y655547*
X1557000Y657891D02*
X1561091D01*
Y658828*
X1560750Y659766*
X1560409Y660234*
X1559727Y660703*
X1558705*
X1558023Y660234*
X1557341Y659297*
X1557000Y657891*
Y656953*
X1557341Y655547*
X1558023Y654609*
X1558705Y654141*
X1559727*
X1560409Y654609*
X1561091Y655547*
X1576773Y662578D02*
X1576091Y663516D01*
X1575068Y663984*
X1573705*
X1572682Y663516*
X1572000Y662578*
Y661641*
X1572341Y660703*
X1572682Y660234*
X1573364Y659766*
X1575409Y658828*
X1576091Y658359*
X1576432Y657891*
X1576773Y656953*
Y655547*
X1576091Y654609*
X1575068Y654141*
X1573705*
X1572682Y654609*
X1572000Y655547*
X1579841Y663984D02*
X1580182Y663516D01*
X1580523Y663984*
X1580182Y664453*
X1579841Y663984*
X1580182Y660703D02*
Y654141D01*
X1583591Y663984D02*
Y654141D01*
X1586659Y663984D02*
Y654141D01*
X1590068Y660703D02*
X1586659Y656016D01*
X1588023Y657891D02*
X1590409Y654141D01*
X1597227Y659297D02*
X1596886Y660234D01*
X1595864Y660703*
X1594841*
X1593818Y660234*
X1593477Y659297*
X1593818Y658359*
X1594500Y657891*
X1596205Y657422*
X1596886Y656953*
X1597227Y656016*
Y655547*
X1596886Y654609*
X1595864Y654141*
X1594841*
X1593818Y654609*
X1593477Y655547*
X1604386Y659297D02*
X1603705Y660234D01*
X1603023Y660703*
X1602000*
X1601318Y660234*
X1600636Y659297*
X1600295Y657891*
Y656953*
X1600636Y655547*
X1601318Y654609*
X1602000Y654141*
X1603023*
X1603705Y654609*
X1604386Y655547*
X1607455Y660703D02*
Y654141D01*
Y657891D02*
X1607795Y659297D01*
X1608477Y660234*
X1609159Y660703*
X1610182*
X1613250Y657891D02*
X1617341D01*
Y658828*
X1617000Y659766*
X1616659Y660234*
X1615977Y660703*
X1614955*
X1614273Y660234*
X1613591Y659297*
X1613250Y657891*
Y656953*
X1613591Y655547*
X1614273Y654609*
X1614955Y654141*
X1615977*
X1616659Y654609*
X1617341Y655547*
X1620409Y657891D02*
X1624500D01*
Y658828*
X1624159Y659766*
X1623818Y660234*
X1623136Y660703*
X1622114*
X1621432Y660234*
X1620750Y659297*
X1620409Y657891*
Y656953*
X1620750Y655547*
X1621432Y654609*
X1622114Y654141*
X1623136*
X1623818Y654609*
X1624500Y655547*
X1627568Y660703D02*
Y654141D01*
Y658828D02*
X1628591Y660234D01*
X1629273Y660703*
X1630295*
X1630977Y660234*
X1631318Y658828*
Y654141*
G54D28*
X1303595Y1104500D02*
X1303709Y1104813D01*
X1303709D02*
X1303936Y1105125D01*
X1304164Y1105281*
X1304618*
X1304845Y1105125*
X1305073Y1104813*
X1305073D02*
X1305186Y1104500D01*
X1305300Y1104031*
Y1103250*
X1305186Y1102781*
X1305073Y1102469*
X1304845Y1102156*
X1304618Y1102000*
X1304164*
X1303936Y1102156*
X1303709Y1102469*
X1303595Y1102781*
X1302345Y1105281D02*
X1301095D01*
X1301777Y1104031*
X1301436*
X1301209Y1103875*
X1301095Y1103719*
X1300982Y1103250*
Y1102938*
X1300982D02*
X1301095Y1102469D01*
X1301323Y1102156*
X1301664Y1102000*
X1302005*
X1302345Y1102156*
X1302459Y1102313*
X1302459D02*
X1302573Y1102625D01*
X1298482Y1104188D02*
X1298595Y1103719D01*
X1298823Y1103406*
X1299164Y1103250*
X1299277*
X1299618Y1103406*
X1299845Y1103719*
X1299959Y1104188*
X1299959D02*
Y1104344D01*
X1299845Y1104813*
X1299845D02*
X1299618Y1105125D01*
X1299277Y1105281*
X1299164*
X1298823Y1105125*
X1298595Y1104813*
X1298595D02*
X1298482Y1104188D01*
X1298482D02*
Y1103406D01*
X1298595Y1102625*
X1298823Y1102156*
X1299164Y1102000*
X1299391*
X1299732Y1102156*
X1299845Y1102469*
X1334797Y1015819D02*
X1331516D01*
X1334797D02*
Y1016842D01*
X1334641Y1017183*
X1334484Y1017296*
X1334484D02*
X1334172Y1017410D01*
X1333859*
X1333859D02*
X1333547Y1017296D01*
X1333391Y1017183*
X1333234Y1016842*
X1333234D02*
Y1015819D01*
Y1016614D02*
X1331516Y1017410D01*
X1334172Y1018433D02*
X1334328Y1018660D01*
X1334797Y1019001*
X1331516*
X1334797Y1021501D02*
Y1020364D01*
X1333391Y1020251*
X1333547Y1020364*
X1333703Y1020705*
Y1021046*
X1333547Y1021387*
X1333234Y1021614*
X1333234D02*
X1332766Y1021728D01*
X1332453Y1021614*
X1331984Y1021501*
X1331984D02*
X1331672Y1021273D01*
X1331516Y1020933*
Y1020592*
X1331672Y1020251*
X1331828Y1020137*
X1332141Y1020023*
X1327281Y1080500D02*
X1324000D01*
X1327281D02*
Y1081523D01*
X1327125Y1081864*
X1326969Y1081977*
X1326656Y1082091*
X1326344*
X1326031Y1081977*
X1325875Y1081864*
X1325719Y1081523*
Y1080500*
Y1081295D02*
X1324000Y1082091D01*
X1326813Y1084477D02*
X1327125Y1084364D01*
X1327281Y1084023*
Y1083795*
X1327125Y1083455*
X1326656Y1083227*
X1325875Y1083114*
X1325094*
X1324469Y1083227*
X1324156Y1083455*
X1324000Y1083795*
Y1083909*
X1324156Y1084250*
X1324469Y1084477*
X1324938Y1084591*
X1324938D02*
X1325094D01*
X1325563Y1084477*
X1325563D02*
X1325875Y1084250D01*
X1326031Y1083909*
Y1083795*
X1325875Y1083455*
X1325563Y1083227*
X1325563D02*
X1325094Y1083114D01*
X1337281Y1080500D02*
X1334000D01*
X1337281D02*
Y1081523D01*
X1337125Y1081864*
X1336969Y1081977*
X1336656Y1082091*
X1336344*
X1336031Y1081977*
X1335875Y1081864*
X1335719Y1081523*
Y1080500*
Y1081295D02*
X1334000Y1082091D01*
X1337281Y1084705D02*
X1334000Y1083568D01*
X1337281Y1083114D02*
Y1084705D01*
X1073423Y1043219D02*
X1070141D01*
X1073423D02*
Y1044015D01*
X1073266Y1044356*
X1072954Y1044583*
X1072641Y1044697*
X1072173Y1044810*
X1071391*
X1070923Y1044697*
X1070610Y1044583*
X1070298Y1044356*
X1070141Y1044015*
Y1043219*
X1073423Y1045833D02*
X1070141D01*
X1073423D02*
X1070141Y1047424D01*
X1073423D02*
X1070141D01*
X1072798Y1048447D02*
X1072954Y1048674D01*
X1073423Y1049015*
X1070141*
X1268594Y1044988D02*
X1268907Y1044874D01*
X1269219Y1044647*
X1269376Y1044420*
Y1043965*
X1269219Y1043738*
X1268907Y1043511*
X1268594Y1043397*
X1268126Y1043283*
X1267344*
X1266876Y1043397*
X1266563Y1043511*
X1266251Y1043738*
X1266094Y1043965*
Y1044420*
X1266251Y1044647*
X1266563Y1044874*
X1266876Y1044988*
X1269376Y1046238D02*
Y1047488D01*
X1268126Y1046806*
Y1047147*
X1267969Y1047374*
X1267813Y1047488*
X1267344Y1047602*
X1267032*
X1266563Y1047488*
X1266251Y1047261*
X1266094Y1046920*
Y1046579*
X1266251Y1046238*
X1266407Y1046124*
X1266719Y1046011*
X1269376Y1049761D02*
X1267188Y1048624D01*
Y1050329*
X1269376Y1049761D02*
X1266094D01*
X1084594Y1024299D02*
X1084907Y1024185D01*
X1085219Y1023958*
X1085376Y1023731*
Y1023276*
X1085219Y1023049*
X1084907Y1022822*
X1084594Y1022708*
X1084126Y1022594*
X1083344*
X1082876Y1022708*
X1082563Y1022822*
X1082251Y1023049*
X1082094Y1023276*
Y1023731*
X1082251Y1023958*
X1082563Y1024185*
X1082876Y1024299*
X1084594Y1025435D02*
X1084751D01*
X1085063Y1025549*
X1085219Y1025663*
X1085376Y1025890*
Y1026344*
X1085219Y1026572*
X1085063Y1026685*
X1084751Y1026799*
X1084438*
X1084126Y1026685*
X1083657Y1026458*
X1082094Y1025322*
Y1026913*
X1085376Y1029526D02*
X1082094Y1028390D01*
X1085376Y1027935D02*
Y1029526D01*
X1092594Y1024299D02*
X1092907Y1024185D01*
X1093219Y1023958*
X1093376Y1023731*
Y1023276*
X1093219Y1023049*
X1092907Y1022822*
X1092594Y1022708*
X1092126Y1022594*
X1091344*
X1090876Y1022708*
X1090563Y1022822*
X1090251Y1023049*
X1090094Y1023276*
Y1023731*
X1090251Y1023958*
X1090563Y1024185*
X1090876Y1024299*
X1092594Y1025435D02*
X1092751D01*
X1093063Y1025549*
X1093219Y1025663*
X1093376Y1025890*
Y1026344*
X1093219Y1026572*
X1093063Y1026685*
X1092751Y1026799*
X1092438*
X1092126Y1026685*
X1091657Y1026458*
X1090094Y1025322*
Y1026913*
X1092907Y1029299D02*
X1093219Y1029185D01*
X1093376Y1028844*
Y1028617*
X1093219Y1028276*
X1092751Y1028049*
X1091969Y1027935*
X1091188*
X1090563Y1028049*
X1090251Y1028276*
X1090094Y1028617*
Y1028731*
X1090251Y1029072*
X1090563Y1029299*
X1091032Y1029413*
X1091188*
X1091657Y1029299*
X1091969Y1029072*
X1092126Y1028731*
Y1028617*
X1091969Y1028276*
X1091657Y1028049*
X1091188Y1027935*
X1080094Y1057299D02*
X1080407Y1057185D01*
X1080719Y1056958*
X1080876Y1056731*
Y1056276*
X1080719Y1056049*
X1080407Y1055822*
X1080094Y1055708*
X1079626Y1055594*
X1078844*
X1078376Y1055708*
X1078063Y1055822*
X1077751Y1056049*
X1077594Y1056276*
Y1056731*
X1077751Y1056958*
X1078063Y1057185*
X1078376Y1057299*
X1080094Y1058435D02*
X1080251D01*
X1080563Y1058549*
X1080719Y1058663*
X1080876Y1058890*
Y1059344*
X1080719Y1059572*
X1080563Y1059685*
X1080251Y1059799*
X1079938*
X1079626Y1059685*
X1079157Y1059458*
X1077594Y1058322*
Y1059913*
X1080876Y1062413D02*
Y1061276D01*
X1079469Y1061163*
X1079626Y1061276*
X1079782Y1061617*
Y1061958*
X1079626Y1062299*
X1079313Y1062526*
X1078844Y1062640*
X1078532Y1062526*
X1078063Y1062413*
X1077751Y1062185*
X1077594Y1061844*
Y1061504*
X1077751Y1061163*
X1077907Y1061049*
X1078219Y1060935*
X1100094Y1023799D02*
X1100407Y1023685D01*
X1100719Y1023458*
X1100876Y1023231*
Y1022776*
X1100719Y1022549*
X1100407Y1022322*
X1100094Y1022208*
X1099626Y1022094*
X1098844*
X1098376Y1022208*
X1098063Y1022322*
X1097751Y1022549*
X1097594Y1022776*
Y1023231*
X1097751Y1023458*
X1098063Y1023685*
X1098376Y1023799*
X1100094Y1024935D02*
X1100251D01*
X1100563Y1025049*
X1100719Y1025163*
X1100876Y1025390*
Y1025844*
X1100719Y1026072*
X1100563Y1026185*
X1100251Y1026299*
X1099938*
X1099626Y1026185*
X1099157Y1025958*
X1097594Y1024822*
Y1026413*
X1100876Y1027663D02*
Y1028913D01*
X1099626Y1028231*
Y1028572*
X1099469Y1028799*
X1099313Y1028913*
X1098844Y1029026*
X1098532*
X1098063Y1028913*
X1097751Y1028685*
X1097594Y1028344*
Y1028004*
X1097751Y1027663*
X1097907Y1027549*
X1098219Y1027435*
X1108094Y1065299D02*
X1108407Y1065185D01*
X1108719Y1064958*
X1108876Y1064731*
Y1064276*
X1108719Y1064049*
X1108407Y1063822*
X1108094Y1063708*
X1107626Y1063594*
X1106844*
X1106376Y1063708*
X1106063Y1063822*
X1105751Y1064049*
X1105594Y1064276*
Y1064731*
X1105751Y1064958*
X1106063Y1065185*
X1106376Y1065299*
X1108094Y1066435D02*
X1108251D01*
X1108563Y1066549*
X1108719Y1066663*
X1108876Y1066890*
Y1067344*
X1108719Y1067572*
X1108563Y1067685*
X1108251Y1067799*
X1107938*
X1107626Y1067685*
X1107157Y1067458*
X1105594Y1066322*
Y1067913*
X1108251Y1068935D02*
X1108407Y1069163D01*
X1108876Y1069504*
X1105594*
X1104094Y1064799D02*
X1104407Y1064685D01*
X1104719Y1064458*
X1104876Y1064231*
Y1063776*
X1104719Y1063549*
X1104407Y1063322*
X1104094Y1063208*
X1103626Y1063094*
X1102844*
X1102376Y1063208*
X1102063Y1063322*
X1101751Y1063549*
X1101594Y1063776*
Y1064231*
X1101751Y1064458*
X1102063Y1064685*
X1102376Y1064799*
X1104094Y1065935D02*
X1104251D01*
X1104563Y1066049*
X1104719Y1066163*
X1104876Y1066390*
Y1066844*
X1104719Y1067072*
X1104563Y1067185*
X1104251Y1067299*
X1103938*
X1103626Y1067185*
X1103157Y1066958*
X1101594Y1065822*
Y1067413*
X1104876Y1069117D02*
X1104719Y1068776D01*
X1104251Y1068549*
X1103469Y1068435*
X1103001*
X1102219Y1068549*
X1101751Y1068776*
X1101594Y1069117*
Y1069344*
X1101751Y1069685*
X1102219Y1069913*
X1103001Y1070026*
X1103469*
X1104251Y1069913*
X1104719Y1069685*
X1104876Y1069344*
Y1069117*
X1117094Y1025299D02*
X1117407Y1025185D01*
X1117719Y1024958*
X1117876Y1024731*
Y1024276*
X1117719Y1024049*
X1117407Y1023822*
X1117094Y1023708*
X1116626Y1023594*
X1115844*
X1115376Y1023708*
X1115063Y1023822*
X1114751Y1024049*
X1114594Y1024276*
Y1024731*
X1114751Y1024958*
X1115063Y1025185*
X1115376Y1025299*
X1117251Y1026322D02*
X1117407Y1026549D01*
X1117876Y1026890*
X1114594*
X1116782Y1029390D02*
X1116313Y1029276D01*
X1116001Y1029049*
X1115844Y1028708*
Y1028594*
X1116001Y1028254*
X1116313Y1028026*
X1116782Y1027913*
X1116938*
X1117407Y1028026*
X1117719Y1028254*
X1117876Y1028594*
Y1028708*
X1117719Y1029049*
X1117407Y1029276*
X1116782Y1029390*
X1116001*
X1115219Y1029276*
X1114751Y1029049*
X1114594Y1028708*
Y1028481*
X1114751Y1028140*
X1115063Y1028026*
X1085830Y1068828D02*
Y1065547D01*
Y1068828D02*
X1084807D01*
X1084466Y1068672*
X1084352Y1068516*
X1084239Y1068203*
Y1067891*
X1084352Y1067578*
X1084466Y1067422*
X1084807Y1067266*
X1085830*
X1085034D02*
X1084239Y1065547D01*
X1083102Y1068047D02*
Y1068203D01*
X1082989Y1068516*
X1082875Y1068672*
X1082648Y1068828*
X1082193*
X1081966Y1068672*
X1081852Y1068516*
X1081739Y1068203*
Y1067891*
X1081852Y1067578*
X1082080Y1067109*
X1083216Y1065547*
X1081625*
X1079125Y1067734D02*
X1079239Y1067266D01*
X1079466Y1066953*
X1079807Y1066797*
X1079920*
X1080261Y1066953*
X1080489Y1067266*
X1080602Y1067734*
Y1067891*
X1080489Y1068359*
X1080261Y1068672*
X1079920Y1068828*
X1079807*
X1079466Y1068672*
X1079239Y1068359*
X1079125Y1067734*
Y1066953*
X1079239Y1066172*
X1079466Y1065703*
X1079807Y1065547*
X1080034*
X1080375Y1065703*
X1080489Y1066016*
X1318281Y1080500D02*
X1315000D01*
X1318281D02*
Y1081523D01*
X1318125Y1081864*
X1317969Y1081977*
X1317656Y1082091*
X1317344*
X1317031Y1081977*
X1316875Y1081864*
X1316719Y1081523*
Y1080500*
Y1081295D02*
X1315000Y1082091D01*
X1317500Y1083227D02*
X1317656D01*
X1317969Y1083341*
X1318125Y1083455*
X1318281Y1083682*
Y1084136*
X1318125Y1084364*
X1317969Y1084477*
X1317656Y1084591*
X1317344*
X1317031Y1084477*
X1316563Y1084250*
X1316563D02*
X1315000Y1083114D01*
Y1084705*
X1317656Y1085727D02*
X1317813Y1085955D01*
X1317813D02*
X1318281Y1086295D01*
X1315000*
X1086000Y1075281D02*
Y1072000D01*
Y1075281D02*
X1084977D01*
X1084636Y1075125*
X1084523Y1074969*
X1084409Y1074656*
Y1074344*
X1084523Y1074031*
X1084636Y1073875*
X1084977Y1073719*
X1086000*
X1085205D02*
X1084409Y1072000D01*
X1083159Y1075281D02*
X1081909D01*
X1082591Y1074031*
X1082250*
X1082023Y1073875*
X1081909Y1073719*
X1081795Y1073250*
Y1072938*
X1081909Y1072469*
X1082136Y1072156*
X1082477Y1072000*
X1082818*
X1083159Y1072156*
X1083273Y1072313*
X1083386Y1072625*
X1080091Y1075281D02*
X1080432Y1075125D01*
X1080659Y1074656*
X1080773Y1073875*
Y1073406*
X1080659Y1072625*
X1080432Y1072156*
X1080091Y1072000*
X1079864*
X1079523Y1072156*
X1079295Y1072625*
X1079182Y1073406*
Y1073875*
X1079295Y1074656*
X1079523Y1075125*
X1079864Y1075281*
X1080091*
X1132500Y1082281D02*
Y1079000D01*
Y1082281D02*
X1131477D01*
X1131136Y1082125*
X1131023Y1081969*
X1130909Y1081656*
Y1081344*
X1131023Y1081031*
X1131136Y1080875*
X1131477Y1080719*
X1132500*
X1131705D02*
X1130909Y1079000D01*
X1129659Y1082281D02*
X1128409D01*
X1129091Y1081031*
X1128750*
X1128523Y1080875*
X1128409Y1080719*
X1128295Y1080250*
Y1079938*
X1128295D02*
X1128409Y1079469D01*
X1128636Y1079156*
X1128977Y1079000*
X1129318*
X1129659Y1079156*
X1129773Y1079313*
X1129773D02*
X1129886Y1079625D01*
X1127273Y1081656D02*
X1127045Y1081813D01*
X1127045D02*
X1126705Y1082281D01*
Y1079000*
X1132500Y1077281D02*
Y1074000D01*
Y1077281D02*
X1131477D01*
X1131136Y1077125*
X1131023Y1076969*
X1130909Y1076656*
Y1076344*
X1131023Y1076031*
X1131136Y1075875*
X1131477Y1075719*
X1132500*
X1131705D02*
X1130909Y1074000D01*
X1129659Y1077281D02*
X1128409D01*
X1129091Y1076031*
X1128750*
X1128523Y1075875*
X1128409Y1075719*
X1128295Y1075250*
Y1074938*
X1128295D02*
X1128409Y1074469D01*
X1128636Y1074156*
X1128977Y1074000*
X1129318*
X1129659Y1074156*
X1129773Y1074313*
X1129773D02*
X1129886Y1074625D01*
X1127159Y1076500D02*
Y1076656D01*
X1127045Y1076969*
X1126932Y1077125*
X1126705Y1077281*
X1126250*
X1126023Y1077125*
X1125909Y1076969*
X1125795Y1076656*
Y1076344*
X1125909Y1076031*
X1126136Y1075563*
X1126136D02*
X1127273Y1074000D01*
X1125682*
X1269376Y1058252D02*
X1266094D01*
X1269376D02*
Y1059275D01*
X1269219Y1059616*
X1269063Y1059729*
X1268751Y1059843*
X1268438*
X1268126Y1059729*
X1267969Y1059616*
X1267813Y1059275*
Y1058252*
Y1059047D02*
X1266094Y1059843D01*
X1268751Y1060866D02*
X1268907Y1061093D01*
X1269376Y1061434*
X1266094*
X1269376Y1064047D02*
X1266094Y1062911D01*
X1269376Y1062457D02*
Y1064047D01*
X1212281Y1018000D02*
X1209000D01*
Y1019364*
X1211656Y1020386D02*
X1211813Y1020614D01*
X1211813D02*
X1212281Y1020955D01*
X1209000*
X1147313Y1080720D02*
X1144031D01*
Y1082084*
X1146531Y1083220D02*
X1146688D01*
X1147000Y1083334*
X1147156Y1083448*
X1147313Y1083675*
Y1084130*
X1147156Y1084357*
X1147000Y1084470*
X1146688Y1084584*
X1146375*
X1146063Y1084470*
X1145594Y1084243*
X1144031Y1083107*
Y1084698*
X1161781Y1100000D02*
X1158500D01*
Y1101364*
X1161781Y1102955D02*
X1161625Y1102614D01*
X1161312Y1102500*
X1161312D02*
X1161000D01*
X1160687Y1102614*
X1160687D02*
X1160531Y1102841D01*
X1160375Y1103295*
X1160219Y1103636*
X1159906Y1103864*
X1159594Y1103977*
X1159125*
X1158812Y1103864*
X1158812D02*
X1158656Y1103750D01*
X1158500Y1103409*
Y1102955*
X1158656Y1102614*
X1158812Y1102500*
X1158812D02*
X1159125Y1102386D01*
X1159594*
X1159906Y1102500*
X1160219Y1102727*
X1160375Y1103068*
X1160531Y1103523*
X1160687Y1103750*
X1160687D02*
X1161000Y1103864D01*
X1161312*
X1161312D02*
X1161625Y1103750D01*
X1161781Y1103409*
Y1102955*
X1118781Y1111500D02*
X1115500D01*
Y1112864*
X1118156Y1113886D02*
X1118313Y1114114D01*
X1118313D02*
X1118781Y1114455D01*
X1115500*
X1118156Y1115477D02*
X1118313Y1115705D01*
X1118313D02*
X1118781Y1116045D01*
X1115500*
X1115781Y1077500D02*
X1112500D01*
X1115781D02*
Y1078523D01*
X1115625Y1078864*
X1115469Y1078977*
X1115156Y1079091*
X1114844*
X1114531Y1078977*
X1114375Y1078864*
X1114219Y1078523*
Y1077500*
Y1078295D02*
X1112500Y1079091D01*
X1115000Y1080227D02*
X1115156D01*
X1115469Y1080341*
X1115625Y1080455*
X1115781Y1080682*
Y1081136*
X1115625Y1081364*
X1115469Y1081477*
X1115156Y1081591*
X1114844*
X1114531Y1081477*
X1114063Y1081250*
X1114063D02*
X1112500Y1080114D01*
Y1081705*
X1115781Y1084205D02*
Y1083068D01*
X1114375Y1082955*
X1114531Y1083068*
X1114688Y1083409*
X1114688D02*
Y1083750D01*
X1114688D02*
X1114531Y1084091D01*
X1114219Y1084318*
X1113750Y1084432*
X1113438Y1084318*
X1113438D02*
X1112969Y1084205D01*
X1112656Y1083977*
X1112500Y1083636*
Y1083295*
X1112656Y1082955*
X1112813Y1082841*
X1112813D02*
X1113125Y1082727D01*
X1180581Y1048500D02*
X1177300D01*
X1180581D02*
Y1049523D01*
X1180425Y1049864*
X1180269Y1049977*
X1179956Y1050091*
X1179644*
X1179331Y1049977*
X1179175Y1049864*
X1179019Y1049523*
Y1048500*
Y1049295D02*
X1177300Y1050091D01*
X1180581Y1051114D02*
X1177300D01*
X1180581D02*
X1177300Y1052705D01*
X1180581D02*
X1177300D01*
X1180581Y1053955D02*
Y1055205D01*
X1179331Y1054523*
Y1054864*
X1179175Y1055091*
X1179019Y1055205*
X1178550Y1055318*
X1178238*
X1178238D02*
X1177769Y1055205D01*
X1177456Y1054977*
X1177300Y1054636*
Y1054295*
X1177456Y1053955*
X1177613Y1053841*
X1177613D02*
X1177925Y1053727D01*
X1127047Y1065330D02*
X1127359Y1065216D01*
X1127672Y1064989*
X1127828Y1064761*
Y1064307*
X1127672Y1064080*
X1127359Y1063852*
X1127047Y1063739*
X1126578Y1063625*
X1125797*
X1125328Y1063739*
X1125016Y1063852*
X1124703Y1064080*
X1124547Y1064307*
Y1064761*
X1124703Y1064989*
X1125016Y1065216*
X1125328Y1065330*
X1127203Y1066352D02*
X1127359Y1066580D01*
X1127828Y1066920*
X1124547*
X1127359Y1069307D02*
X1127672Y1069193D01*
X1127828Y1068852*
Y1068625*
X1127672Y1068284*
X1127203Y1068057*
X1126422Y1067943*
X1125641*
X1125016Y1068057*
X1124703Y1068284*
X1124547Y1068625*
Y1068739*
X1124703Y1069080*
X1125016Y1069307*
X1125484Y1069420*
X1125641*
X1126109Y1069307*
X1126422Y1069080*
X1126578Y1068739*
Y1068625*
X1126422Y1068284*
X1126109Y1068057*
X1125641Y1067943*
X1131047Y1062773D02*
X1131359Y1062659D01*
X1131672Y1062432*
X1131828Y1062205*
Y1061750*
X1131672Y1061523*
X1131359Y1061295*
X1131047Y1061182*
X1130578Y1061068*
X1129797*
X1129328Y1061182*
X1129016Y1061295*
X1128703Y1061523*
X1128547Y1061750*
Y1062205*
X1128703Y1062432*
X1129016Y1062659*
X1129328Y1062773*
X1131203Y1063795D02*
X1131359Y1064023D01*
X1131828Y1064364*
X1128547*
X1131828Y1066977D02*
X1128547Y1065841D01*
X1131828Y1065386D02*
Y1066977D01*
X1124641Y1024867D02*
X1124954Y1024754D01*
X1125266Y1024526*
X1125423Y1024299*
Y1023844*
X1125266Y1023617*
X1124954Y1023390*
X1124641Y1023276*
X1124173Y1023163*
X1123391*
X1122923Y1023276*
X1122610Y1023390*
X1122298Y1023617*
X1122141Y1023844*
Y1024299*
X1122298Y1024526*
X1122610Y1024754*
X1122923Y1024867*
X1124798Y1025890D02*
X1124954Y1026117D01*
X1125423Y1026458*
X1122141*
X1125423Y1028049D02*
X1125266Y1027708D01*
X1124954Y1027594*
X1124641*
X1124329Y1027708*
X1124173Y1027935*
X1124016Y1028390*
X1123860Y1028731*
X1123548Y1028958*
X1123235Y1029072*
X1122766*
X1122454Y1028958*
X1122298Y1028844*
X1122141Y1028504*
Y1028049*
X1122298Y1027708*
X1122454Y1027594*
X1122766Y1027481*
X1123235*
X1123548Y1027594*
X1123860Y1027822*
X1124016Y1028163*
X1124173Y1028617*
X1124329Y1028844*
X1124641Y1028958*
X1124954*
X1125266Y1028844*
X1125423Y1028504*
Y1028049*
X1108141Y1023856D02*
X1108454Y1023742D01*
X1108766Y1023515*
X1108923Y1023288*
Y1022833*
X1108766Y1022606*
X1108454Y1022379*
X1108141Y1022265*
X1107673Y1022151*
X1106891*
X1106423Y1022265*
X1106110Y1022379*
X1105798Y1022606*
X1105641Y1022833*
Y1023288*
X1105798Y1023515*
X1106110Y1023742*
X1106423Y1023856*
X1108141Y1024992D02*
X1108298D01*
X1108610Y1025106*
X1108766Y1025219*
X1108923Y1025447*
Y1025901*
X1108766Y1026129*
X1108610Y1026242*
X1108298Y1026356*
X1107985*
X1107673Y1026242*
X1107204Y1026015*
X1105641Y1024879*
Y1026469*
X1108141Y1027606D02*
X1108298D01*
X1108610Y1027719*
X1108766Y1027833*
X1108923Y1028060*
Y1028515*
X1108766Y1028742*
X1108610Y1028856*
X1108298Y1028969*
X1107985*
X1107673Y1028856*
X1107204Y1028629*
X1105641Y1027492*
Y1029083*
X1163100Y1050805D02*
X1163413Y1050691D01*
X1163725Y1050464*
X1163881Y1050236*
Y1049782*
X1163725Y1049555*
X1163413Y1049327*
X1163100Y1049214*
X1162631Y1049100*
X1161850*
X1161381Y1049214*
X1161069Y1049327*
X1160756Y1049555*
X1160600Y1049782*
Y1050236*
X1160756Y1050464*
X1161069Y1050691*
X1161381Y1050805*
X1163881Y1052055D02*
Y1053305D01*
X1162631Y1052623*
Y1052964*
X1162475Y1053191*
X1162319Y1053305*
X1161850Y1053418*
X1161538*
X1161069Y1053305*
X1160756Y1053077*
X1160600Y1052736*
Y1052395*
X1160756Y1052055*
X1160913Y1051941*
X1161225Y1051827*
X1163881Y1055123D02*
X1163725Y1054782D01*
X1163256Y1054555*
X1162475Y1054441*
X1162006*
X1161225Y1054555*
X1160756Y1054782*
X1160600Y1055123*
Y1055350*
X1160756Y1055691*
X1161225Y1055918*
X1162006Y1056032*
X1162475*
X1163256Y1055918*
X1163725Y1055691*
X1163881Y1055350*
Y1055123*
X1145605Y1021400D02*
X1145491Y1021087D01*
X1145491D02*
X1145264Y1020775D01*
X1145036Y1020619*
X1144582*
X1144355Y1020775*
X1144127Y1021087*
X1144127D02*
X1144014Y1021400D01*
X1143900Y1021869*
Y1022650*
X1144014Y1023119*
X1144127Y1023431*
X1144355Y1023744*
X1144582Y1023900*
X1145036*
X1145264Y1023744*
X1145491Y1023431*
X1145605Y1023119*
X1146855Y1020619D02*
X1148105D01*
X1147423Y1021869*
X1147764*
X1147991Y1022025*
X1148105Y1022181*
X1148218Y1022650*
Y1022962*
X1148218D02*
X1148105Y1023431D01*
X1147877Y1023744*
X1147536Y1023900*
X1147195*
X1146855Y1023744*
X1146741Y1023587*
X1146741D02*
X1146627Y1023275D01*
X1149241Y1021244D02*
X1149468Y1021087D01*
X1149468D02*
X1149809Y1020619D01*
Y1023900*
X1294646Y1054925D02*
X1294958Y1054811D01*
X1295271Y1054584*
X1295427Y1054357*
Y1053902*
X1295271Y1053675*
X1294958Y1053448*
X1294646Y1053334*
X1294177Y1053220*
X1293396*
X1292927Y1053334*
X1292614Y1053448*
X1292302Y1053675*
X1292146Y1053902*
Y1054357*
X1292302Y1054584*
X1292614Y1054811*
X1292927Y1054925*
X1295427Y1056175D02*
Y1057425D01*
X1294177Y1056743*
Y1057084*
X1294021Y1057311*
X1293864Y1057425*
X1293396Y1057539*
X1293083*
X1292614Y1057425*
X1292302Y1057198*
X1292146Y1056857*
Y1056516*
X1292302Y1056175*
X1292458Y1056061*
X1292771Y1055948*
X1295427Y1058789D02*
Y1060039D01*
X1294177Y1059357*
Y1059698*
X1294021Y1059925*
X1293864Y1060039*
X1293396Y1060152*
X1293083*
X1292614Y1060039*
X1292302Y1059811*
X1292146Y1059470*
Y1059130*
X1292302Y1058789*
X1292458Y1058675*
X1292771Y1058561*
X1287553Y1055189D02*
X1284272D01*
X1287553D02*
Y1056212D01*
X1287397Y1056553*
X1287240Y1056666*
X1286928Y1056780*
X1286615*
X1286303Y1056666*
X1286147Y1056553*
X1285990Y1056212*
Y1055189*
Y1055984D02*
X1284272Y1056780D01*
X1286928Y1057803D02*
X1287084Y1058030D01*
X1287553Y1058371*
X1284272*
X1286928Y1059394D02*
X1287084Y1059621D01*
X1287553Y1059962*
X1284272*
X1170981Y1055900D02*
X1167700D01*
X1170981D02*
Y1056923D01*
X1170825Y1057264*
X1170669Y1057377*
X1170356Y1057491*
X1170044*
X1169731Y1057377*
X1169575Y1057264*
X1169419Y1056923*
Y1055900*
Y1056695D02*
X1167700Y1057491D01*
X1170200Y1058627D02*
X1170356D01*
X1170669Y1058741*
X1170825Y1058855*
X1170981Y1059082*
Y1059536*
X1170825Y1059764*
X1170669Y1059877*
X1170356Y1059991*
X1170044*
X1169731Y1059877*
X1169263Y1059650*
X1167700Y1058514*
Y1060105*
X1109781Y1077500D02*
X1106500D01*
X1109781D02*
Y1078523D01*
X1109625Y1078864*
X1109469Y1078977*
X1109156Y1079091*
X1108844*
X1108531Y1078977*
X1108375Y1078864*
X1108219Y1078523*
Y1077500*
Y1078295D02*
X1106500Y1079091D01*
X1109000Y1080227D02*
X1109156D01*
X1109469Y1080341*
X1109625Y1080455*
X1109781Y1080682*
Y1081136*
X1109625Y1081364*
X1109469Y1081477*
X1109156Y1081591*
X1108844*
X1108531Y1081477*
X1108063Y1081250*
X1108063D02*
X1106500Y1080114D01*
Y1081705*
X1109313Y1084091D02*
X1109625Y1083977D01*
X1109781Y1083636*
Y1083409*
X1109625Y1083068*
X1109156Y1082841*
X1108375Y1082727*
X1107594*
X1106969Y1082841*
X1106656Y1083068*
X1106500Y1083409*
Y1083523*
X1106656Y1083864*
X1106969Y1084091*
X1107438Y1084205*
X1107438D02*
X1107594D01*
X1108063Y1084091*
X1108063D02*
X1108375Y1083864D01*
X1108531Y1083523*
Y1083409*
X1108375Y1083068*
X1108063Y1082841*
X1108063D02*
X1107594Y1082727D01*
X1103781Y1077500D02*
X1100500D01*
X1103781D02*
Y1078523D01*
X1103625Y1078864*
X1103469Y1078977*
X1103156Y1079091*
X1102844*
X1102531Y1078977*
X1102375Y1078864*
X1102219Y1078523*
Y1077500*
Y1078295D02*
X1100500Y1079091D01*
X1103000Y1080227D02*
X1103156D01*
X1103469Y1080341*
X1103625Y1080455*
X1103781Y1080682*
Y1081136*
X1103625Y1081364*
X1103469Y1081477*
X1103156Y1081591*
X1102844*
X1102531Y1081477*
X1102063Y1081250*
X1102063D02*
X1100500Y1080114D01*
Y1081705*
X1103781Y1084318D02*
X1100500Y1083182D01*
X1103781Y1082727D02*
Y1084318D01*
X1097781Y1077500D02*
X1094500D01*
X1097781D02*
Y1078523D01*
X1097625Y1078864*
X1097469Y1078977*
X1097156Y1079091*
X1096844*
X1096531Y1078977*
X1096375Y1078864*
X1096219Y1078523*
Y1077500*
Y1078295D02*
X1094500Y1079091D01*
X1097000Y1080227D02*
X1097156D01*
X1097469Y1080341*
X1097625Y1080455*
X1097781Y1080682*
Y1081136*
X1097625Y1081364*
X1097469Y1081477*
X1097156Y1081591*
X1096844*
X1096531Y1081477*
X1096063Y1081250*
X1096063D02*
X1094500Y1080114D01*
Y1081705*
X1097781Y1083295D02*
X1097625Y1082955D01*
X1097313Y1082841*
X1097313D02*
X1097000D01*
X1096688Y1082955*
X1096688D02*
X1096531Y1083182D01*
X1096375Y1083636*
X1096219Y1083977*
X1095906Y1084205*
X1095594Y1084318*
X1095125*
X1094813Y1084205*
X1094813D02*
X1094656Y1084091D01*
X1094500Y1083750*
Y1083295*
X1094656Y1082955*
X1094813Y1082841*
X1094813D02*
X1095125Y1082727D01*
X1095594*
X1095906Y1082841*
X1096219Y1083068*
X1096375Y1083409*
X1096531Y1083864*
X1096688Y1084091*
X1096688D02*
X1097000Y1084205D01*
X1097313*
X1097313D02*
X1097625Y1084091D01*
X1097781Y1083750*
Y1083295*
X1331516Y1076187D02*
Y1072906D01*
Y1076187D02*
X1330493D01*
X1330152Y1076031*
X1330038Y1075874*
X1329925Y1075562*
Y1075249*
X1330038Y1074937*
X1330152Y1074781*
X1330493Y1074624*
X1331516*
X1330720D02*
X1329925Y1072906D01*
X1328334Y1076187D02*
X1328675Y1076031D01*
X1328788Y1075718*
Y1075406*
X1328675Y1075093*
X1328448Y1074937*
X1327993Y1074781*
X1327652Y1074624*
X1327425Y1074312*
X1327311Y1073999*
Y1073531*
X1327425Y1073218*
X1327538Y1073062*
X1327879Y1072906*
X1328334*
X1328675Y1073062*
X1328788Y1073218*
X1328902Y1073531*
Y1073999*
X1328788Y1074312*
X1328561Y1074624*
X1328220Y1074781*
X1327766Y1074937*
X1327538Y1075093*
X1327425Y1075406*
Y1075718*
X1327538Y1076031*
X1327879Y1076187*
X1328334*
X1324954Y1051252D02*
X1321673D01*
X1324954D02*
Y1052275D01*
X1324798Y1052616*
X1324642Y1052729*
X1324329Y1052843*
X1324017*
X1323704Y1052729*
X1323548Y1052616*
X1323392Y1052275*
Y1051252*
Y1052047D02*
X1321673Y1052843D01*
X1323861Y1055343D02*
X1323392Y1055229D01*
X1323079Y1055002*
X1322923Y1054661*
Y1054547*
X1323079Y1054207*
X1323392Y1053979*
X1323861Y1053866*
X1324017*
X1324486Y1053979*
X1324798Y1054207*
X1324954Y1054547*
Y1054661*
X1324798Y1055002*
X1324486Y1055229*
X1323861Y1055343*
X1323079*
X1322298Y1055229*
X1321829Y1055002*
X1321673Y1054661*
Y1054434*
X1321829Y1054093*
X1322142Y1053979*
X1122220Y1019187D02*
Y1022469D01*
X1123584*
X1124607Y1019812D02*
X1124834Y1019656D01*
X1125175Y1019187*
Y1022469*
X1126880Y1019187D02*
X1126539Y1019344D01*
X1126311Y1019812*
X1126198Y1020594*
Y1021062*
X1126311Y1021844*
X1126539Y1022312*
X1126880Y1022469*
X1127107*
X1127448Y1022312*
X1127675Y1021844*
X1127789Y1021062*
Y1020594*
X1127675Y1019812*
X1127448Y1019344*
X1127107Y1019187*
X1126880*
X1155100Y1077881D02*
Y1074600D01*
X1153736*
X1152714Y1077256D02*
X1152486Y1077413D01*
X1152486D02*
X1152145Y1077881D01*
Y1074600*
X1151009Y1077100D02*
Y1077256D01*
X1150895Y1077569*
X1150782Y1077725*
X1150555Y1077881*
X1150100*
X1149873Y1077725*
X1149759Y1077569*
X1149645Y1077256*
Y1076944*
X1149759Y1076631*
X1149986Y1076163*
X1149986D02*
X1151123Y1074600D01*
X1149532*
X1210126Y1054313D02*
Y1051031D01*
X1210126D02*
X1208762D01*
X1207740Y1053688D02*
X1207512Y1053844D01*
X1207171Y1054313*
Y1051031*
X1205921Y1054313D02*
X1204671D01*
X1205353Y1053063*
X1205012*
X1204785Y1052906*
X1204785D02*
X1204671Y1052750D01*
X1204558Y1052281*
X1204558D02*
Y1051969D01*
X1204671Y1051500*
X1204899Y1051188*
X1205240Y1051031*
X1205240D02*
X1205581D01*
X1205581D02*
X1205921Y1051188D01*
X1206035Y1051344*
X1206149Y1051656*
X1210500Y1085281D02*
Y1082000D01*
X1209136*
X1208114Y1084656D02*
X1207886Y1084813D01*
X1207545Y1085281*
Y1082000*
X1205386Y1085281D02*
X1206523Y1083094D01*
X1204818*
X1205386Y1085281D02*
Y1082000D01*
X1222781Y1099000D02*
X1219500D01*
Y1100364*
X1222156Y1101386D02*
X1222312Y1101614D01*
X1222312D02*
X1222781Y1101955D01*
X1219500*
X1222781Y1104455D02*
Y1103318D01*
X1221375Y1103205*
X1221531Y1103318*
X1221687Y1103659*
X1221687D02*
Y1104000D01*
X1221687D02*
X1221531Y1104341D01*
X1221219Y1104568*
X1220750Y1104682*
X1220437Y1104568*
X1220437D02*
X1219969Y1104455D01*
X1219656Y1104227*
X1219500Y1103886*
Y1103545*
X1219656Y1103205*
X1219812Y1103091*
X1219812D02*
X1220125Y1102977D01*
X1186781Y1091500D02*
X1183500D01*
Y1092864*
X1186156Y1093886D02*
X1186313Y1094114D01*
X1186313D02*
X1186781Y1094455D01*
X1183500*
X1186313Y1096841D02*
X1186625Y1096727D01*
X1186781Y1096386*
Y1096159*
X1186625Y1095818*
X1186156Y1095591*
X1185375Y1095477*
X1184594*
X1183969Y1095591*
X1183656Y1095818*
X1183500Y1096159*
Y1096273*
X1183656Y1096614*
X1183969Y1096841*
X1184438Y1096955*
X1184438D02*
X1184594D01*
X1185063Y1096841*
X1185063D02*
X1185375Y1096614D01*
X1185531Y1096273*
Y1096159*
X1185375Y1095818*
X1185063Y1095591*
X1185063D02*
X1184594Y1095477D01*
X1162280Y1060313D02*
Y1057031D01*
X1160916*
X1159893Y1059688D02*
X1159666Y1059844D01*
X1159325Y1060313*
Y1057031*
X1156711Y1060313D02*
X1157848Y1057031D01*
X1158302Y1060313D02*
X1156711D01*
X1180000Y1030281D02*
Y1027000D01*
X1178636*
X1177614Y1029656D02*
X1177386Y1029813D01*
X1177386D02*
X1177045Y1030281D01*
Y1027000*
X1175455Y1030281D02*
X1175795Y1030125D01*
X1175909Y1029813*
X1175909D02*
Y1029500D01*
X1175795Y1029188*
X1175795D02*
X1175568Y1029031D01*
X1175114Y1028875*
X1174773Y1028719*
X1174545Y1028406*
X1174432Y1028094*
Y1027625*
X1174545Y1027313*
X1174545D02*
X1174659Y1027156D01*
X1175000Y1027000*
X1175455*
X1175795Y1027156*
X1175909Y1027313*
X1175909D02*
X1176023Y1027625D01*
Y1028094*
X1175909Y1028406*
X1175682Y1028719*
X1175341Y1028875*
X1174886Y1029031*
X1174659Y1029188*
X1174659D02*
X1174545Y1029500D01*
Y1029813*
X1174545D02*
X1174659Y1030125D01*
X1175000Y1030281*
X1175455*
X1203000Y1043281D02*
Y1040000D01*
X1201636*
X1200386Y1043281D02*
X1199136D01*
X1199818Y1042031*
X1199477*
X1199250Y1041875*
X1199136Y1041719*
X1199023Y1041250*
Y1040938*
X1199023D02*
X1199136Y1040469D01*
X1199364Y1040156*
X1199705Y1040000*
X1200045*
X1200386Y1040156*
X1200500Y1040313*
X1200500D02*
X1200614Y1040625D01*
X1218281Y1062000D02*
X1215000D01*
Y1063364*
X1218281Y1065523D02*
X1216094Y1064386D01*
Y1066091*
X1218281Y1065523D02*
X1215000D01*
X1210000Y1093281D02*
Y1090000D01*
X1208636*
X1206136Y1093281D02*
X1207273D01*
X1207386Y1091875*
X1207273Y1092031*
X1206932Y1092188*
X1206591*
X1206250Y1092031*
X1206023Y1091719*
X1205909Y1091250*
X1206023Y1090938*
X1206136Y1090469*
X1206364Y1090156*
X1206705Y1090000*
X1207045*
X1207386Y1090156*
X1207500Y1090313*
X1207614Y1090625*
X1202281Y1100500D02*
X1199000D01*
Y1101864*
X1201813Y1104250D02*
X1202125Y1104136D01*
X1202281Y1103795*
Y1103568*
X1202125Y1103227*
X1201656Y1103000*
X1200875Y1102886*
X1200094*
X1199469Y1103000*
X1199156Y1103227*
X1199000Y1103568*
Y1103682*
X1199156Y1104023*
X1199469Y1104250*
X1199938Y1104364*
X1199938D02*
X1200094D01*
X1200563Y1104250*
X1200563D02*
X1200875Y1104023D01*
X1201031Y1103682*
Y1103568*
X1200875Y1103227*
X1200563Y1103000*
X1200563D02*
X1200094Y1102886D01*
X1169281Y1100000D02*
X1166000D01*
Y1101364*
X1169281Y1103977D02*
X1166000Y1102841D01*
X1169281Y1102386D02*
Y1103977D01*
X1154700Y1045881D02*
Y1042600D01*
X1153336*
X1150836Y1044788D02*
X1150950Y1044319D01*
X1151177Y1044006*
X1151518Y1043850*
X1151632*
X1151973Y1044006*
X1152200Y1044319*
X1152314Y1044788*
X1152314D02*
Y1044944D01*
X1152200Y1045413*
X1152200D02*
X1151973Y1045725D01*
X1151632Y1045881*
X1151518*
X1151177Y1045725*
X1150950Y1045413*
X1150950D02*
X1150836Y1044788D01*
X1150836D02*
Y1044006D01*
X1150950Y1043225*
X1151177Y1042756*
X1151518Y1042600*
X1151745*
X1152086Y1042756*
X1152200Y1043069*
X1229081Y1035500D02*
X1225800D01*
X1229081D02*
Y1036523D01*
X1228925Y1036864*
X1228769Y1036977*
X1228456Y1037091*
X1228144*
X1227831Y1036977*
X1227675Y1036864*
X1227519Y1036523*
Y1035500*
Y1036295D02*
X1225800Y1037091D01*
X1228300Y1038227D02*
X1228456D01*
X1228769Y1038341*
X1228925Y1038455*
X1229081Y1038682*
Y1039136*
X1228925Y1039364*
X1228769Y1039477*
X1228456Y1039591*
X1228144*
X1227831Y1039477*
X1227363Y1039250*
X1227363D02*
X1225800Y1038114D01*
Y1039705*
X1229081Y1040955D02*
Y1042205D01*
X1227831Y1041523*
Y1041864*
X1227675Y1042091*
X1227519Y1042205*
X1227050Y1042318*
X1226738*
X1226738D02*
X1226269Y1042205D01*
X1225956Y1041977*
X1225800Y1041636*
Y1041295*
X1225956Y1040955*
X1226113Y1040841*
X1226113D02*
X1226425Y1040727D01*
X1078923Y1042708D02*
X1075641D01*
X1078923D02*
Y1043504D01*
X1078766Y1043844*
X1078454Y1044072*
X1078141Y1044185*
X1077673Y1044299*
X1076891*
X1076423Y1044185*
X1076110Y1044072*
X1075798Y1043844*
X1075641Y1043504*
Y1042708*
X1078923Y1045322D02*
X1075641D01*
X1078923D02*
X1075641Y1046913D01*
X1078923D02*
X1075641D01*
X1078141Y1048049D02*
X1078298D01*
X1078610Y1048163*
X1078766Y1048276*
X1078923Y1048504*
Y1048958*
X1078766Y1049185*
X1078610Y1049299*
X1078298Y1049413*
X1077985*
X1077673Y1049299*
X1077204Y1049072*
X1075641Y1047935*
Y1049526*
X1130328Y1038114D02*
X1127047D01*
X1130328D02*
Y1038909D01*
X1130172Y1039250*
X1129859Y1039477*
X1129547Y1039591*
X1129078Y1039705*
X1128297*
X1127828Y1039591*
X1127516Y1039477*
X1127203Y1039250*
X1127047Y1038909*
Y1038114*
X1130328Y1040727D02*
X1127047D01*
X1130328D02*
X1127047Y1042318D01*
X1130328D02*
X1127047D01*
X1130328Y1043568D02*
Y1044818D01*
X1129078Y1044136*
Y1044477*
X1128922Y1044705*
X1128766Y1044818*
X1128297Y1044932*
X1127984*
X1127516Y1044818*
X1127203Y1044591*
X1127047Y1044250*
Y1043909*
X1127203Y1043568*
X1127359Y1043455*
X1127672Y1043341*
X1075641Y1057299D02*
X1075954Y1057185D01*
X1076266Y1056958*
X1076423Y1056731*
Y1056276*
X1076266Y1056049*
X1075954Y1055822*
X1075641Y1055708*
X1075173Y1055594*
X1074391*
X1073923Y1055708*
X1073610Y1055822*
X1073298Y1056049*
X1073141Y1056276*
Y1056731*
X1073298Y1056958*
X1073610Y1057185*
X1073923Y1057299*
X1075641Y1058435D02*
X1075798D01*
X1076110Y1058549*
X1076266Y1058663*
X1076423Y1058890*
Y1059344*
X1076266Y1059572*
X1076110Y1059685*
X1075798Y1059799*
X1075485*
X1075173Y1059685*
X1074704Y1059458*
X1073141Y1058322*
Y1059913*
X1076423Y1062072D02*
X1074235Y1060935D01*
Y1062640*
X1076423Y1062072D02*
X1073141D01*
X1134736Y1100906D02*
X1134622Y1100593D01*
X1134395Y1100281*
X1134168Y1100124*
X1133713*
X1133486Y1100281*
X1133259Y1100593*
X1133145Y1100906*
X1133031Y1101374*
Y1102156*
X1133145Y1102624*
X1133259Y1102937*
X1133486Y1103249*
X1133713Y1103406*
X1134168*
X1134395Y1103249*
X1134622Y1102937*
X1134736Y1102624*
X1136327Y1100124D02*
X1135986Y1100281D01*
X1135872Y1100593*
Y1100906*
X1135986Y1101218*
X1136213Y1101374*
X1136668Y1101531*
X1137009Y1101687*
X1137236Y1101999*
X1137350Y1102312*
Y1102781*
X1137236Y1103093*
X1137122Y1103249*
X1136781Y1103406*
X1136327*
X1135986Y1103249*
X1135872Y1103093*
X1135759Y1102781*
Y1102312*
X1135872Y1101999*
X1136100Y1101687*
X1136441Y1101531*
X1136895Y1101374*
X1137122Y1101218*
X1137236Y1100906*
Y1100593*
X1137122Y1100281*
X1136781Y1100124*
X1136327*
X1201047Y1024068D02*
X1201359Y1023955D01*
X1201672Y1023727*
X1201828Y1023500*
Y1023045*
X1201672Y1022818*
X1201359Y1022591*
X1201047Y1022477*
X1200578Y1022364*
X1199797*
X1199328Y1022477*
X1199016Y1022591*
X1198703Y1022818*
X1198547Y1023045*
Y1023500*
X1198703Y1023727*
X1199016Y1023955*
X1199328Y1024068*
X1201828Y1026682D02*
X1198547Y1025545D01*
X1201828Y1025091D02*
Y1026682D01*
X1234444Y1048232D02*
X1234557Y1048544D01*
X1234785Y1048857*
X1235012Y1049013*
X1235467*
X1235694Y1048857*
X1235921Y1048544*
X1236035Y1048232*
X1236148Y1047763*
Y1046982*
X1236035Y1046513*
X1235921Y1046201*
X1235694Y1045888*
X1235467Y1045732*
X1235012*
X1234785Y1045888*
X1234557Y1046201*
X1234444Y1046513*
X1233421Y1048388D02*
X1233194Y1048544D01*
X1232853Y1049013*
Y1045732*
X1231603Y1049013D02*
X1230353D01*
X1231035Y1047763*
X1230694*
X1230467Y1047607*
X1230353Y1047451*
X1230239Y1046982*
Y1046669*
X1230353Y1046201*
X1230580Y1045888*
X1230921Y1045732*
X1231262*
X1231603Y1045888*
X1231717Y1046044*
X1231830Y1046357*
X1190500Y1117705D02*
X1190813Y1117591D01*
X1190813D02*
X1191125Y1117364D01*
X1191281Y1117136*
Y1116682*
X1191125Y1116455*
X1190813Y1116227*
X1190813D02*
X1190500Y1116114D01*
X1190031Y1116000*
X1189250*
X1188781Y1116114*
X1188469Y1116227*
X1188156Y1116455*
X1188000Y1116682*
Y1117136*
X1188156Y1117364*
X1188469Y1117591*
X1188781Y1117705*
X1191281Y1119864D02*
X1189094Y1118727D01*
Y1120432*
X1191281Y1119864D02*
X1188000D01*
X1191281Y1122023D02*
X1191125Y1121682D01*
X1190813Y1121568*
X1190813D02*
X1190500D01*
X1190188Y1121682*
X1190188D02*
X1190031Y1121909D01*
X1189875Y1122364*
X1189719Y1122705*
X1189406Y1122932*
X1189094Y1123045*
X1188625*
X1188313Y1122932*
X1188313D02*
X1188156Y1122818D01*
X1188000Y1122477*
Y1122023*
X1188156Y1121682*
X1188313Y1121568*
X1188313D02*
X1188625Y1121455D01*
X1189094*
X1189406Y1121568*
X1189719Y1121795*
X1189875Y1122136*
X1190031Y1122591*
X1190188Y1122818*
X1190188D02*
X1190500Y1122932D01*
X1190813*
X1190813D02*
X1191125Y1122818D01*
X1191281Y1122477*
Y1122023*
X1171047Y1118568D02*
X1171359Y1118455D01*
X1171672Y1118227*
X1171828Y1118000*
Y1117545*
X1171672Y1117318*
X1171359Y1117091*
X1171047Y1116977*
X1170578Y1116864*
X1169797*
X1169328Y1116977*
X1169016Y1117091*
X1168703Y1117318*
X1168547Y1117545*
Y1118000*
X1168703Y1118227*
X1169016Y1118455*
X1169328Y1118568*
X1171828Y1119818D02*
Y1121068D01*
X1170578Y1120386*
Y1120727*
X1170422Y1120955*
X1170266Y1121068*
X1169797Y1121182*
X1169484*
X1169016Y1121068*
X1168703Y1120841*
X1168547Y1120500*
Y1120159*
X1168703Y1119818*
X1168859Y1119705*
X1169172Y1119591*
X1244284Y1084647D02*
X1244398Y1084959D01*
X1244625Y1085272*
X1244852Y1085428*
X1245307*
X1245534Y1085272*
X1245761Y1084959*
X1245875Y1084647*
X1245989Y1084178*
Y1083397*
X1245875Y1082928*
X1245761Y1082616*
X1245534Y1082303*
X1245307Y1082147*
X1244852*
X1244625Y1082303*
X1244398Y1082616*
X1244284Y1082928*
X1243261Y1084803D02*
X1243034Y1084959D01*
X1242693Y1085428*
Y1082147*
X1240534Y1085428D02*
X1241670Y1083241D01*
X1239966*
X1240534Y1085428D02*
Y1082147D01*
X1241795Y1092900D02*
X1241909Y1093213D01*
X1241909D02*
X1242136Y1093525D01*
X1242364Y1093681*
X1242818*
X1243045Y1093525*
X1243273Y1093213*
X1243273D02*
X1243386Y1092900D01*
X1243500Y1092431*
Y1091650*
X1243386Y1091181*
X1243273Y1090869*
X1243045Y1090556*
X1242818Y1090400*
X1242364*
X1242136Y1090556*
X1241909Y1090869*
X1241795Y1091181*
X1239295Y1093681D02*
X1240432D01*
X1240545Y1092275*
X1240432Y1092431*
X1240091Y1092588*
X1240091D02*
X1239750D01*
X1239750D02*
X1239409Y1092431D01*
X1239182Y1092119*
X1239068Y1091650*
X1239182Y1091338*
X1239182D02*
X1239295Y1090869D01*
X1239523Y1090556*
X1239864Y1090400*
X1240205*
X1240545Y1090556*
X1240659Y1090713*
X1240659D02*
X1240773Y1091025D01*
X1220362Y1118647D02*
X1220674Y1118534D01*
X1220987Y1118306*
X1221143Y1118079*
Y1117625*
X1220987Y1117397*
X1220674Y1117170*
X1220362Y1117056*
X1219893Y1116943*
X1219112*
X1218643Y1117056*
X1218331Y1117170*
X1218018Y1117397*
X1217862Y1117625*
Y1118079*
X1218018Y1118306*
X1218331Y1118534*
X1218643Y1118647*
X1220518Y1119670D02*
X1220674Y1119897D01*
X1221143Y1120238*
X1217862*
X1221143Y1122738D02*
Y1121602D01*
X1219737Y1121488*
X1219893Y1121602*
X1220049Y1121943*
Y1122284*
X1219893Y1122625*
X1219581Y1122852*
X1219112Y1122966*
X1218799Y1122852*
X1218331Y1122738*
X1218018Y1122511*
X1217862Y1122170*
Y1121829*
X1218018Y1121488*
X1218174Y1121375*
X1218487Y1121261*
X1137295Y1060500D02*
X1137409Y1060813D01*
X1137409D02*
X1137636Y1061125D01*
X1137864Y1061281*
X1138318*
X1138545Y1061125*
X1138773Y1060813*
X1138773D02*
X1138886Y1060500D01*
X1139000Y1060031*
Y1059250*
X1138886Y1058781*
X1138773Y1058469*
X1138545Y1058156*
X1138318Y1058000*
X1137864*
X1137636Y1058156*
X1137409Y1058469*
X1137295Y1058781*
X1135136Y1061281D02*
X1136273Y1059094D01*
X1134568*
X1135136Y1061281D02*
Y1058000D01*
X1132068Y1060188D02*
X1132182Y1059719D01*
X1132409Y1059406*
X1132750Y1059250*
X1132864*
X1133205Y1059406*
X1133432Y1059719*
X1133545Y1060188*
X1133545D02*
Y1060344D01*
X1133432Y1060813*
X1133432D02*
X1133205Y1061125D01*
X1132864Y1061281*
X1132750*
X1132409Y1061125*
X1132182Y1060813*
X1132182D02*
X1132068Y1060188D01*
X1132068D02*
Y1059406D01*
X1132182Y1058625*
X1132409Y1058156*
X1132750Y1058000*
X1132977*
X1133318Y1058156*
X1133432Y1058469*
X1202547Y1118511D02*
X1202859Y1118398D01*
X1203172Y1118170*
X1203328Y1117943*
Y1117489*
X1203172Y1117261*
X1202859Y1117034*
X1202547Y1116920*
X1202078Y1116807*
X1201297*
X1200828Y1116920*
X1200516Y1117034*
X1200203Y1117261*
X1200047Y1117489*
Y1117943*
X1200203Y1118170*
X1200516Y1118398*
X1200828Y1118511*
X1203328Y1120670D02*
X1201141Y1119534D01*
Y1121239*
X1203328Y1120670D02*
X1200047D01*
X1175047Y1019705D02*
X1175359Y1019591D01*
X1175672Y1019364*
X1175828Y1019136*
Y1018682*
X1175672Y1018455*
X1175359Y1018227*
X1175047Y1018114*
X1174578Y1018000*
X1173797*
X1173328Y1018114*
X1173016Y1018227*
X1172703Y1018455*
X1172547Y1018682*
Y1019136*
X1172703Y1019364*
X1173016Y1019591*
X1173328Y1019705*
X1175828Y1022205D02*
Y1021068D01*
X1174422Y1020955*
X1174578Y1021068*
X1174734Y1021409*
Y1021750*
X1174578Y1022091*
X1174266Y1022318*
X1173797Y1022432*
X1173484Y1022318*
X1173016Y1022205*
X1172703Y1021977*
X1172547Y1021636*
Y1021295*
X1172703Y1020955*
X1172859Y1020841*
X1173172Y1020727*
X1175828Y1024136D02*
X1175672Y1023795D01*
X1175203Y1023568*
X1174422Y1023455*
X1173953*
X1173172Y1023568*
X1172703Y1023795*
X1172547Y1024136*
Y1024364*
X1172703Y1024705*
X1173172Y1024932*
X1173953Y1025045*
X1174422*
X1175203Y1024932*
X1175672Y1024705*
X1175828Y1024364*
Y1024136*
X1224600Y1021905D02*
X1224913Y1021791D01*
X1224913D02*
X1225225Y1021564D01*
X1225381Y1021336*
Y1020882*
X1225225Y1020655*
X1224913Y1020427*
X1224913D02*
X1224600Y1020314D01*
X1224131Y1020200*
X1223350*
X1222881Y1020314*
X1222569Y1020427*
X1222256Y1020655*
X1222100Y1020882*
Y1021336*
X1222256Y1021564*
X1222569Y1021791*
X1222881Y1021905*
X1224288Y1024405D02*
X1223819Y1024291D01*
X1223506Y1024064*
X1223350Y1023723*
Y1023609*
X1223506Y1023268*
X1223819Y1023041*
X1224288Y1022927*
X1224288D02*
X1224444D01*
X1224913Y1023041*
X1224913D02*
X1225225Y1023268D01*
X1225381Y1023609*
Y1023723*
X1225225Y1024064*
X1224913Y1024291*
X1224913D02*
X1224288Y1024405D01*
X1224288D02*
X1223506D01*
X1222725Y1024291*
X1222256Y1024064*
X1222100Y1023723*
Y1023495*
X1222256Y1023155*
X1222569Y1023041*
X1234175Y1060447D02*
X1234289Y1060759D01*
X1234516Y1061072*
X1234743Y1061228*
X1235198*
X1235425Y1061072*
X1235652Y1060759*
X1235766Y1060447*
X1235880Y1059978*
Y1059197*
X1235766Y1058728*
X1235652Y1058416*
X1235425Y1058103*
X1235198Y1057947*
X1234743*
X1234516Y1058103*
X1234289Y1058416*
X1234175Y1058728*
X1231789Y1060759D02*
X1231902Y1061072D01*
X1232243Y1061228*
X1232470*
X1232811Y1061072*
X1233039Y1060603*
X1233152Y1059822*
Y1059041*
X1233039Y1058416*
X1232811Y1058103*
X1232470Y1057947*
X1232357*
X1232016Y1058103*
X1231789Y1058416*
X1231675Y1058884*
Y1059041*
X1231789Y1059509*
X1232016Y1059822*
X1232357Y1059978*
X1232470*
X1232811Y1059822*
X1233039Y1059509*
X1233152Y1059041*
X1149606Y1031531D02*
X1149720Y1031844D01*
X1149947Y1032156*
X1150175Y1032313*
X1150629*
X1150856Y1032156*
X1151084Y1031844*
X1151197Y1031531*
X1151311Y1031063*
Y1030281*
X1151197Y1029813*
X1151084Y1029500*
X1150856Y1029188*
X1150629Y1029031*
X1150175*
X1149947Y1029188*
X1149720Y1029500*
X1149606Y1029813*
X1148584Y1031688D02*
X1148356Y1031844D01*
X1148016Y1032313*
Y1029031*
X1146311Y1032313D02*
X1146652Y1032156D01*
X1146879Y1031688*
X1146993Y1030906*
Y1030438*
X1146879Y1029656*
X1146652Y1029188*
X1146311Y1029031*
X1146084*
X1145743Y1029188*
X1145516Y1029656*
X1145402Y1030438*
Y1030906*
X1145516Y1031688*
X1145743Y1032156*
X1146084Y1032313*
X1146311*
X1136920Y1044647D02*
X1137034Y1044959D01*
X1137261Y1045272*
X1137489Y1045428*
X1137943*
X1138170Y1045272*
X1138398Y1044959*
X1138511Y1044647*
X1138625Y1044178*
Y1043397*
X1138511Y1042928*
X1138398Y1042616*
X1138170Y1042303*
X1137943Y1042147*
X1137489*
X1137261Y1042303*
X1137034Y1042616*
X1136920Y1042928*
X1135898Y1044803D02*
X1135670Y1044959D01*
X1135330Y1045428*
Y1042147*
X1135795Y1113000D02*
X1135909Y1113313D01*
X1135909D02*
X1136136Y1113625D01*
X1136364Y1113781*
X1136818*
X1137045Y1113625*
X1137273Y1113313*
X1137273D02*
X1137386Y1113000D01*
X1137500Y1112531*
Y1111750*
X1137386Y1111281*
X1137273Y1110969*
X1137045Y1110656*
X1136818Y1110500*
X1136364*
X1136136Y1110656*
X1135909Y1110969*
X1135795Y1111281*
X1134773Y1113156D02*
X1134545Y1113313D01*
X1134545D02*
X1134205Y1113781D01*
Y1110500*
X1133182Y1113156D02*
X1132955Y1113313D01*
X1132955D02*
X1132614Y1113781D01*
Y1110500*
X1137227Y1066047D02*
X1137341Y1066359D01*
X1137568Y1066672*
X1137795Y1066828*
X1138250*
X1138477Y1066672*
X1138705Y1066359*
X1138818Y1066047*
X1138932Y1065578*
Y1064797*
X1138818Y1064328*
X1138705Y1064016*
X1138477Y1063703*
X1138250Y1063547*
X1137795*
X1137568Y1063703*
X1137341Y1064016*
X1137227Y1064328*
X1136205Y1066203D02*
X1135977Y1066359D01*
X1135636Y1066828*
Y1063547*
X1134500Y1066047D02*
Y1066203D01*
X1134386Y1066516*
X1134273Y1066672*
X1134045Y1066828*
X1133591*
X1133364Y1066672*
X1133250Y1066516*
X1133136Y1066203*
Y1065891*
X1133250Y1065578*
X1133477Y1065109*
X1134614Y1063547*
X1133023*
X1149500Y1119205D02*
X1149813Y1119091D01*
X1149813D02*
X1150125Y1118864D01*
X1150281Y1118636*
Y1118182*
X1150125Y1117955*
X1149813Y1117727*
X1149813D02*
X1149500Y1117614D01*
X1149031Y1117500*
X1148250*
X1147781Y1117614*
X1147469Y1117727*
X1147156Y1117955*
X1147000Y1118182*
Y1118636*
X1147156Y1118864*
X1147469Y1119091*
X1147781Y1119205*
X1149500Y1120341D02*
X1149656D01*
X1149969Y1120455*
X1150125Y1120568*
X1150281Y1120795*
Y1121250*
X1150125Y1121477*
X1149969Y1121591*
X1149656Y1121705*
X1149344*
X1149031Y1121591*
X1148563Y1121364*
X1148563D02*
X1147000Y1120227D01*
Y1121818*
X1080994Y1052951D02*
X1081221Y1052795D01*
X1081449Y1052482*
X1081562Y1052013*
Y1051701*
X1081449Y1051232*
X1081221Y1050920*
X1080994Y1050763*
X1080653*
X1080426Y1050920*
X1080199Y1051232*
X1080085Y1051701*
Y1052013*
X1080199Y1052482*
X1080426Y1052795*
X1080653Y1052951*
X1080994*
X1096494D02*
X1096721Y1052795D01*
X1096949Y1052482*
X1097062Y1052013*
Y1051701*
X1096949Y1051232*
X1096721Y1050920*
X1096494Y1050763*
X1096153*
X1095926Y1050920*
X1095699Y1051232*
X1095585Y1051701*
Y1052013*
X1095699Y1052482*
X1095926Y1052795*
X1096153Y1052951*
X1096494*
X1112994D02*
X1113221Y1052795D01*
X1113449Y1052482*
X1113562Y1052013*
Y1051701*
X1113449Y1051232*
X1113221Y1050920*
X1112994Y1050763*
X1112653*
X1112426Y1050920*
X1112199Y1051232*
X1112085Y1051701*
Y1052013*
X1112199Y1052482*
X1112426Y1052795*
X1112653Y1052951*
X1112994*
G54D33*
X1215500Y1037500D02*
Y1023500D01*
X1208500*
Y1037500*
X1215500*
X1142500Y1087500D02*
Y1101500D01*
X1149500*
Y1087500*
X1142500*
X1150000Y1098500D02*
Y1112500D01*
X1157000*
Y1098500*
X1150000*
X1127000Y1124000D02*
Y1110000D01*
X1120000*
Y1124000*
X1127000*
X1129000Y1024000D02*
X1143000D01*
Y1017000*
X1129000*
Y1024000*
X1155500Y1066500D02*
X1141500D01*
Y1073500*
X1155500*
Y1066500*
X1211000Y1056500D02*
X1225000D01*
Y1049500*
X1211000*
Y1056500*
X1212500Y1087500D02*
X1226500D01*
Y1080500*
X1212500*
Y1087500*
X1211000Y1098500D02*
Y1112500D01*
X1218000*
Y1098500*
X1211000*
X1181500Y1099000D02*
Y1113000D01*
X1188500*
Y1099000*
X1181500*
X1155500Y1055500D02*
X1141500D01*
Y1062500*
X1155500*
Y1055500*
X1180000Y1031500D02*
X1166000D01*
Y1038500*
X1180000*
Y1031500*
X1203500D02*
X1189500D01*
Y1038500*
X1203500*
Y1031500*
X1226400Y1074700D02*
Y1060700D01*
X1219400*
Y1074700*
X1226400*
X1212500Y1095000D02*
X1226500D01*
Y1088000*
X1212500*
Y1095000*
X1203100Y1098500D02*
Y1112500D01*
X1210100*
Y1098500*
X1203100*
X1171500Y1099000D02*
Y1113000D01*
X1178500*
Y1099000*
X1171500*
X1155500Y1047000D02*
X1141500D01*
Y1054000*
X1155500*
Y1047000*
X652000Y645200D02*
X1688000D01*
Y1350000*
X652000*
Y645200*
X1253500D02*
X1688000D01*
Y840200*
X1253500*
Y645200*
X1253000Y785200D02*
X1688000D01*
Y645200*
X1253000*
Y785200*
Y675200D02*
X1688000D01*
Y645200*
X1253000*
Y675200*
X1413000*
Y645200*
X1253000*
Y675200*
Y785200D02*
X1688000D01*
Y840200*
X1253000*
Y785200*
Y715200D02*
X1688000D01*
Y785200*
X1253000*
Y715200*
X1553000Y675200D02*
X1688000D01*
Y715200*
X1553000*
Y675200*
X818500Y675700D02*
X1024000D01*
Y645200*
X818500*
Y675700*
X1024000Y645200D02*
X1253500D01*
Y675700*
X1024000*
Y645200*
X818500Y785700D02*
X1253500D01*
Y675700*
X818500*
Y785700*
G54D42*
X1308200Y1095244D02*
X1295200D01*
Y1100756*
X1308200*
Y1095244*
X1330335Y1022906D02*
Y1036291D01*
X1336634*
Y1022906*
X1330335*
X1329650Y1102193D02*
Y1088807D01*
X1323350*
Y1102193*
X1329650*
X1339650D02*
Y1088807D01*
X1333350*
Y1102193*
X1339650*
X1093762Y1044065D02*
Y1049565D01*
X1081262*
Y1044065*
X1093762*
X1264913Y1053720D02*
Y1040720D01*
X1259402*
Y1053720*
X1264913*
X1081846Y1030717D02*
Y1038717D01*
X1085846*
Y1030717*
X1081846*
X1089346D02*
Y1038717D01*
X1093346*
Y1030717*
X1089346*
X1093346Y1062717D02*
Y1054717D01*
X1089346*
Y1062717*
X1093346*
X1097346Y1030717D02*
Y1038717D01*
X1101346*
Y1030717*
X1097346*
X1109346Y1062717D02*
Y1054717D01*
X1105346*
Y1062717*
X1109346*
X1101346D02*
Y1054717D01*
X1097346*
Y1062717*
X1101346*
X1113846Y1030717D02*
Y1038717D01*
X1117846*
Y1030717*
X1113846*
X1088000Y1070256D02*
X1101000D01*
Y1064744*
X1088000*
Y1070256*
X1319256Y1102000D02*
Y1089000D01*
X1313744*
Y1102000*
X1319256*
X1088000Y1076756D02*
X1101000D01*
Y1071244*
X1088000*
Y1076756*
X1123000Y1071244D02*
X1110000D01*
Y1076756*
X1123000*
Y1071244*
Y1064744D02*
X1110000D01*
Y1070256*
X1123000*
Y1064744*
X1264913Y1066720D02*
Y1053720D01*
X1259402*
Y1066720*
X1264913*
X1111744Y1086500D02*
Y1099500D01*
X1117256*
Y1086500*
X1111744*
X1182929Y1057953D02*
X1181945Y1056969D01*
Y1046047*
X1200055*
Y1057953*
X1182929*
X1117846Y1062717D02*
Y1054717D01*
X1113846*
Y1062717*
X1117846*
X1125346D02*
Y1054717D01*
X1121346*
Y1062717*
X1125346*
X1121846Y1030717D02*
Y1038717D01*
X1125846*
Y1030717*
X1121846*
X1105346D02*
Y1038717D01*
X1109346*
Y1030717*
X1105346*
X1159744Y1035000D02*
Y1048000D01*
X1165256*
Y1035000*
X1159744*
X1164400Y1019644D02*
X1151400D01*
Y1025156*
X1164400*
Y1019644*
X1291358Y1062469D02*
Y1075469D01*
X1296870*
Y1062469*
X1291358*
X1288996Y1075469D02*
Y1062469D01*
X1283484*
Y1075469*
X1288996*
X1166744Y1041500D02*
Y1054500D01*
X1172256*
Y1041500*
X1166744*
X1105744Y1086500D02*
Y1099500D01*
X1111256*
Y1086500*
X1105744*
X1099744D02*
Y1099500D01*
X1105256*
Y1086500*
X1099744*
X1093744D02*
Y1099500D01*
X1099256*
Y1086500*
X1093744*
X1313205Y1077630D02*
X1326205D01*
Y1072118*
X1313205*
Y1077630*
X1326398Y1069563D02*
Y1056563D01*
X1320886*
Y1069563*
X1326398*
X1218350Y1032307D02*
Y1045693D01*
X1224650*
Y1032307*
X1218350*
X1109596Y1043967D02*
Y1049467D01*
X1097096*
Y1043967*
X1109596*
X1126096D02*
Y1049467D01*
X1113596*
Y1043967*
X1126096*
X1085846Y1062717D02*
Y1054717D01*
X1081846*
Y1062717*
X1085846*
X1131000Y1099500D02*
X1139000D01*
Y1095500*
X1131000*
Y1099500*
X1193500Y1022000D02*
Y1030000D01*
X1197500*
Y1022000*
X1193500*
X1229000Y1054500D02*
X1237000D01*
Y1050500*
X1229000*
Y1054500*
X1183000Y1116000D02*
Y1124000D01*
X1187000*
Y1116000*
X1183000*
X1177000Y1124000D02*
Y1116000D01*
X1173000*
Y1124000*
X1177000*
X1228800Y1085800D02*
X1236800D01*
Y1081800*
X1228800*
Y1085800*
X1236800Y1089700D02*
X1228800D01*
Y1093700*
X1236800*
Y1089700*
X1212500Y1115900D02*
Y1123900D01*
X1216500*
Y1115900*
X1212500*
X1139000Y1052500D02*
X1131000D01*
Y1056500*
X1139000*
Y1052500*
X1208600Y1123700D02*
Y1115700D01*
X1204600*
Y1123700*
X1208600*
X1171000Y1026500D02*
Y1018500D01*
X1167000*
Y1026500*
X1171000*
X1216500Y1018000D02*
Y1026000D01*
X1220500*
Y1018000*
X1216500*
X1237000Y1062000D02*
X1229000D01*
Y1066000*
X1237000*
Y1062000*
X1143500Y1029000D02*
X1135500D01*
Y1033000*
X1143500*
Y1029000*
X1131000Y1050500D02*
X1139000D01*
Y1046500*
X1131000*
Y1050500*
X1139200Y1105400D02*
X1131200D01*
Y1109400*
X1139200*
Y1105400*
X1139000Y1068000D02*
X1131000D01*
Y1072000*
X1139000*
Y1068000*
X1155500Y1124000D02*
Y1116000D01*
X1151500*
Y1124000*
X1155500*
X1240300Y1075344D02*
X1227300D01*
Y1080856*
X1240300*
Y1075344*
X1237900Y1074538D02*
Y1070600D01*
Y1074538D02*
X1236673D01*
X1236673D02*
X1236264Y1074350D01*
X1236127Y1074163*
X1236127D02*
X1235991Y1073788D01*
X1235991D02*
Y1073413D01*
X1235991D02*
X1236127Y1073038D01*
X1236127D02*
X1236264Y1072850D01*
X1236673Y1072663*
X1236673D02*
X1237900D01*
X1236945D02*
X1235991Y1070600D01*
X1234491Y1074538D02*
X1232991D01*
X1232991D02*
X1233809Y1073038D01*
X1233809D02*
X1233400D01*
X1233400D02*
X1233127Y1072850D01*
X1232991Y1072663*
X1232991D02*
X1232855Y1072100D01*
Y1071725*
X1232991Y1071163*
X1232991D02*
X1233264Y1070788D01*
X1233264D02*
X1233673Y1070600D01*
X1234082*
X1234491Y1070788*
X1234491D02*
X1234627Y1070975D01*
X1234764Y1071350*
X1231355Y1074538D02*
X1229855D01*
X1229855D02*
X1230673Y1073038D01*
X1230673D02*
X1230264D01*
X1230264D02*
X1229991Y1072850D01*
X1229855Y1072663*
X1229855D02*
X1229718Y1072100D01*
Y1071725*
X1229855Y1071163*
X1229855D02*
X1230127Y1070788D01*
X1230127D02*
X1230536Y1070600D01*
X1230945*
X1231355Y1070788*
X1231355D02*
X1231491Y1070975D01*
X1231627Y1071350*
G54D60*
X0Y0D02*
M02*
